<?xml version="1.0"?>
<svg xmlns="http://www.w3.org/2000/svg" xmlns:xlink="http://www.w3.org/1999/xlink" xmlns:svgjs="http://svgjs.com/svgjs" version="1.1" width="512" height="512" x="0" y="0" viewBox="0 0 512 512" style="enable-background:new 0 0 512 512" xml:space="preserve"><g><g xmlns="http://www.w3.org/2000/svg"><g><g><path d="m130.001 289.107 94.614 94.614c7.569 7.569 19.89 7.569 27.45.008l15.346-15.346 57.958 24.446 23.424 56.936-15.346 15.346c-52.524 52.524-137.69 52.516-190.214-.008l-94.614-94.614c-52.532-52.532-52.532-137.69-.008-190.213l15.346-15.346 57.447 23.935 23.935 57.447-15.346 15.346c-7.561 7.559-7.561 19.88.008 27.449z" fill="#b3e59f" data-original="#b3e59f" style=""/><path d="m347.827 447.394.969 2.368-15.349 15.349c-52.524 52.524-137.69 52.516-190.214-.008l-94.614-94.614c-52.532-52.532-52.532-137.69-.008-190.213l15.349-15.349 2.36.977c-35.695 52.344-30.307 124.302 16.137 170.746l94.614 94.614c46.445 46.445 118.411 51.824 170.756 16.13z" fill="#95d6a4" data-original="#95d6a4" style=""/><path d="m66.055 133.515c-9.254 9.254-9.254 24.258 0 33.512l77.186 77.186c9.254 9.254 24.258 9.254 33.512 0 9.254-9.254 9.254-24.258 0-33.512l-77.186-77.186c-9.254-9.255-24.258-9.255-33.512 0z" fill="#f9f6f9" data-original="#f9f6f9" style=""/><path d="m270.02 337.48c-9.254 9.254-9.254 24.258 0 33.512l77.186 77.186c9.254 9.254 24.258 9.254 33.512 0 9.254-9.254 9.254-24.258 0-33.512l-77.186-77.186c-9.254-9.254-24.258-9.254-33.512 0z" fill="#f9f6f9" data-original="#f9f6f9" style=""/><g fill="#dddaec"><path d="m337.773 371.721 42.945 42.945c4.631 4.631 6.934 10.693 6.942 16.756 0 6.071-2.319 12.134-6.942 16.756-9.253 9.253-24.26 9.253-33.513 0l-42.945-42.945c9.253 9.253 24.26 9.253 33.513 0 4.622-4.622 6.934-10.693 6.942-16.756-.008-6.063-2.319-12.134-6.942-16.756z" fill="#dddaec" data-original="#dddaec" style=""/><path d="m133.808 167.755 42.945 42.945c4.631 4.631 6.934 10.693 6.942 16.756 0 6.071-2.319 12.134-6.942 16.756-9.253 9.253-24.26 9.253-33.513 0l-42.945-42.945c9.253 9.253 24.26 9.253 33.513 0 4.622-4.622 6.934-10.693 6.942-16.756-.008-6.062-2.32-12.133-6.942-16.756z" fill="#dddaec" data-original="#dddaec" style=""/></g></g><path d="m472.466 7.502h-214.853c-16.773 0-30.371 13.597-30.371 30.371v168.429c0 16.773 13.598 30.371 30.371 30.371h30.285v31.778c0 11.446 12.747 18.281 22.281 11.947l65.81-43.725h96.477c16.773 0 30.371-13.598 30.371-30.371v-168.43c-.001-16.773-13.598-30.37-30.371-30.37z" fill="#f9f6f9" data-original="#f9f6f9" style=""/><path d="m290.49 236.666h-32.884c-16.768 0-30.364-13.596-30.364-30.364v-168.43c0-16.776 13.596-30.372 30.364-30.372h32.884c-16.776 0-30.372 13.596-30.372 30.372v168.429c0 16.769 13.596 30.365 30.372 30.365z" fill="#dddaec" data-original="#dddaec" style=""/><g><path d="m401.861 178.812h-9.14v-44.689-15.514c0-7.866-6.377-14.243-14.243-14.243h-50.261c-8.217 0-14.879 6.661-14.879 14.879 0 8.217 6.661 14.879 14.879 14.879h12.874v44.689h-12.874c-8.217 0-14.879 6.661-14.879 14.879 0 8.217 6.661 14.879 14.879 14.879h73.645c8.217 0 14.879-6.661 14.879-14.879-.001-8.219-6.662-14.88-14.88-14.88z" fill="#9dc6fb" data-original="#9dc6fb" style=""/><path d="m358.041 134.12v44.683h-12.878c-8.219 0-14.878 6.669-14.878 14.888 0 4.099 1.67 7.819 4.359 10.518 2.69 2.69 6.409 4.359 10.518 4.359h-16.947c-4.109 0-7.829-1.67-10.518-4.359-2.7-2.7-4.359-6.419-4.359-10.518 0-8.219 6.659-14.888 14.878-14.888h12.878v-44.683h-12.878c-4.109 0-7.829-1.66-10.518-4.359-2.7-2.69-4.359-6.409-4.359-10.518 0-8.219 6.659-14.878 14.878-14.878h16.947c-8.219 0-14.878 6.659-14.878 14.878 0 4.109 1.67 7.829 4.359 10.518 2.69 2.7 6.409 4.359 10.518 4.359z" fill="#80b4fb" data-original="#80b4fb" style=""/><circle cx="366.906" cy="55.737" fill="#9dc6fb" r="25.815" data-original="#9dc6fb" style=""/><path d="m375.756 79.993c-2.76 1.01-5.739 1.56-8.849 1.56-14.258 0-25.816-11.558-25.816-25.816s11.558-25.816 25.816-25.816c3.109 0 6.089.55 8.849 1.56-9.898 3.609-16.967 13.108-16.967 24.256-.001 11.149 7.068 20.647 16.967 24.256z" fill="#80b4fb" data-original="#80b4fb" style=""/></g></g><g><path d="m308.835 332.175c-12.163-12.163-31.954-12.164-44.119 0-9.374 9.375-11.516 23.278-6.44 34.731l-11.512 11.519c-4.641 4.641-12.198 4.636-16.844-.01l-94.619-94.609c-2.245-2.245-3.481-5.238-3.482-8.427 0-3.188 1.232-6.176 3.472-8.416l11.314-11.314c4.131 1.966 8.681 3.004 13.392 3.004 8.333 0 16.167-3.245 22.059-9.137 12.164-12.164 12.164-31.955 0-44.118l-77.186-77.186c-5.892-5.892-13.726-9.137-22.059-9.137s-16.167 3.245-22.059 9.137c-9.568 9.568-11.605 23.855-6.119 35.438l-11.327 11.327c-37.625 37.623-51.024 92.538-34.968 143.313 1.249 3.949 5.464 6.138 9.412 4.89 3.949-1.249 6.139-5.463 4.89-9.412-14.361-45.417-2.378-94.534 31.272-128.185l10.047-10.047 70.773 70.773-10.047 10.047c-5.074 5.074-7.867 11.831-7.866 19.026.002 7.195 2.799 13.954 7.876 19.03l94.619 94.609c10.495 10.494 27.568 10.499 38.058.008l10.037-10.043 47.186 47.186 23.593 23.593-10.045 10.039c-23.982 23.988-55.867 37.196-89.79 37.196-.002 0-.007 0-.01 0-33.924-.002-65.816-13.216-89.802-37.206l-94.62-94.609c-7.801-7.801-14.537-16.538-20.019-25.967-2.083-3.581-6.674-4.795-10.254-2.714-3.581 2.082-4.796 6.673-2.713 10.254 6.133 10.548 13.663 20.316 22.38 29.034l94.619 94.609c26.818 26.823 62.477 41.597 100.408 41.599h.011c37.928 0 73.585-14.77 100.396-41.587l11.147-11.14c4.309 2.181 9.097 3.344 14.066 3.344 8.333 0 16.167-3.245 22.059-9.137 5.894-5.892 9.139-13.727 9.139-22.059 0-8.333-3.245-16.167-9.138-22.059zm-237.476-193.358c3.059-3.059 7.127-4.744 11.453-4.744s8.394 1.685 11.453 4.744l77.186 77.186c6.315 6.315 6.315 16.59 0 22.905-3.059 3.059-7.127 4.744-11.453 4.744s-8.394-1.685-11.453-4.744l-38.593-38.593-38.596-38.595c-6.312-6.315-6.312-16.588.003-22.903zm304.055 304.056c-6.314 6.315-16.59 6.315-22.904 0l-77.186-77.186c-6.315-6.315-6.315-16.591 0-22.906 3.157-3.157 7.305-4.736 11.452-4.736s8.296 1.579 11.453 4.736l77.186 77.186c3.059 3.059 4.744 7.126 4.744 11.453 0 4.326-1.686 8.394-4.745 11.453z" fill="#000000" data-original="#000000" style=""/><path d="m502.836 59.15c4.143 0 7.5-3.358 7.5-7.5v-13.78c0-20.881-16.988-37.87-37.869-37.87h-214.85c-20.887 0-37.88 16.988-37.88 37.87v168.429c0 20.881 16.993 37.87 37.88 37.87h22.78v24.28c0 8.064 4.414 15.44 11.519 19.251 3.241 1.738 6.789 2.599 10.327 2.599 4.222 0 8.43-1.227 12.084-3.654l63.924-42.476h94.215c20.881 0 37.869-16.988 37.869-37.87v-124.849c0-4.142-3.357-7.5-7.5-7.5s-7.5 3.358-7.5 7.5v124.85c0 12.61-10.259 22.87-22.869 22.87h-96.48c-1.477 0-2.921.436-4.15 1.253l-65.808 43.729c-3.079 2.046-5.937.911-7.021.33-1.085-.582-3.609-2.335-3.609-6.032v-31.78c0-4.142-3.357-7.5-7.5-7.5h-30.28c-12.616 0-22.88-10.259-22.88-22.87v-168.43c0-12.611 10.264-22.87 22.88-22.87h214.85c12.61 0 22.869 10.259 22.869 22.87v13.78c-.001 4.142 3.356 7.5 7.499 7.5z" fill="#000000" data-original="#000000" style=""/><path d="m328.217 171.311c-12.34 0-22.379 10.039-22.379 22.379s10.039 22.378 22.379 22.378h73.644c12.34 0 22.379-10.039 22.379-22.379s-10.039-22.378-22.379-22.378h-1.641v-52.703c0-11.989-9.754-21.743-21.743-21.743h-50.26c-12.34 0-22.379 10.039-22.379 22.379s10.039 22.379 22.379 22.379h5.374v29.689h-5.374zm12.874-44.689h-12.874c-4.068 0-7.379-3.31-7.379-7.379s3.311-7.379 7.379-7.379h50.26c3.718 0 6.743 3.025 6.743 6.743v60.203c0 4.142 3.357 7.5 7.5 7.5h9.141c4.068 0 7.379 3.31 7.379 7.379 0 4.068-3.311 7.378-7.379 7.378h-73.644c-4.068 0-7.379-3.31-7.379-7.379s3.311-7.378 7.379-7.378h12.874c4.143 0 7.5-3.358 7.5-7.5v-44.689c0-4.141-3.358-7.499-7.5-7.499z" fill="#000000" data-original="#000000" style=""/><path d="m400.22 55.737c0-18.37-14.944-33.315-33.314-33.315s-33.315 14.945-33.315 33.315 14.945 33.315 33.315 33.315 33.314-14.945 33.314-33.315zm-51.629 0c0-10.099 8.216-18.315 18.315-18.315s18.314 8.216 18.314 18.315-8.216 18.315-18.314 18.315c-10.1 0-18.315-8.216-18.315-18.315z" fill="#000000" data-original="#000000" style=""/></g></g></g></svg>
