<?xml version="1.0"?>
<svg xmlns="http://www.w3.org/2000/svg" xmlns:xlink="http://www.w3.org/1999/xlink" xmlns:svgjs="http://svgjs.com/svgjs" version="1.1" width="512" height="512" x="0" y="0" viewBox="0 0 511.999 511.999" style="enable-background:new 0 0 512 512" xml:space="preserve"><g><g xmlns="http://www.w3.org/2000/svg"><g><circle cx="234.217" cy="277.782" fill="#9dc6fb" r="226.712" data-original="#9dc6fb" style=""/><path d="m285.774 498.61c-16.56 3.85-33.82 5.89-51.55 5.89-125.209 0-226.719-101.51-226.719-226.719s101.51-226.708 226.719-226.708c17.73 0 34.99 2.04 51.55 5.88-100.38 23.34-175.169 113.35-175.169 220.829s74.789 197.499 175.169 220.828z" fill="#80b4fb" data-original="#80b4fb" style=""/><circle cx="381.168" cy="130.83" fill="#f9f6f9" r="123.33" data-original="#f9f6f9" style=""/><path d="m400.628 252.629c-6.34 1.01-12.84 1.53-19.46 1.53-68.11 0-123.33-55.22-123.33-123.329 0-68.11 55.22-123.33 123.33-123.33 6.62 0 13.12.52 19.46 1.53-58.87 9.32-103.879 60.31-103.879 121.8s45.009 112.48 103.879 121.799z" fill="#dddaec" data-original="#dddaec" style=""/><g><path d="m417.996 185.406h-9.142v-44.696-15.516c0-7.868-6.378-14.246-14.246-14.246h-50.268c-8.219 0-14.881 6.662-14.881 14.881 0 8.219 6.662 14.881 14.881 14.881h12.876v44.697h-12.876c-8.219 0-14.881 6.662-14.881 14.881 0 8.219 6.662 14.881 14.881 14.881h73.656c8.219 0 14.881-6.662 14.881-14.881 0-8.22-6.662-14.882-14.881-14.882z" fill="#9dc6fb" data-original="#9dc6fb" style=""/><path d="m374.169 140.707v44.69h-12.88c-8.22 0-14.88 6.67-14.88 14.89 0 4.1 1.67 7.82 4.36 10.52 2.69 2.69 6.41 4.36 10.52 4.36h-16.95c-4.11 0-7.83-1.67-10.52-4.36-2.7-2.7-4.36-6.42-4.36-10.52 0-8.22 6.66-14.89 14.88-14.89h12.88v-44.69h-12.88c-4.11 0-7.83-1.66-10.52-4.36-2.7-2.69-4.36-6.41-4.36-10.52 0-8.22 6.66-14.88 14.88-14.88h16.95c-8.22 0-14.88 6.66-14.88 14.88 0 4.11 1.67 7.83 4.36 10.52 2.69 2.7 6.41 4.36 10.52 4.36z" fill="#80b4fb" data-original="#80b4fb" style=""/><circle cx="383.036" cy="62.312" fill="#9dc6fb" r="25.819" data-original="#9dc6fb" style=""/><path d="m391.886 86.572c-2.76 1.01-5.74 1.56-8.85 1.56-14.26 0-25.82-11.56-25.82-25.82s11.56-25.82 25.82-25.82c3.11 0 6.09.55 8.85 1.56-9.9 3.61-16.97 13.11-16.97 24.26s7.07 20.65 16.97 24.26z" fill="#80b4fb" data-original="#80b4fb" style=""/></g></g><g><path d="m511.999 130.831c0-26.564-7.917-52.14-22.896-73.964-2.345-3.415-7.013-4.283-10.428-1.939s-4.283 7.013-1.939 10.428c13.257 19.315 20.264 41.956 20.264 65.476 0 63.869-51.961 115.83-115.83 115.83s-115.83-51.961-115.83-115.83 51.96-115.832 115.829-115.832c28.47 0 55.836 10.422 77.059 29.348 3.091 2.757 7.832 2.486 10.589-.606 2.757-3.091 2.485-7.833-.606-10.589-23.975-21.379-54.887-33.153-87.042-33.153-40.76 0-77.222 18.739-101.234 48.051-14.986-2.964-30.339-4.481-45.716-4.481-62.561 0-121.377 24.362-165.616 68.598-44.24 44.236-68.603 103.052-68.603 165.611 0 62.56 24.363 121.377 68.603 165.616 44.239 44.239 103.057 68.603 165.616 68.603s121.375-24.364 165.611-68.603c44.236-44.238 68.598-103.055 68.598-165.616 0-15.377-1.517-30.729-4.48-45.714 29.312-24.012 48.051-60.474 48.051-101.234zm-148.439 129.641c.153 3.256.256 6.531.323 9.81h-122.166v-79.3c7.5-.238 14.99-.831 22.392-1.776 18.982 37.91 55.839 65.372 99.451 71.266zm-136.843 236.148c-23.16-2.269-45.452-15.024-64.881-37.239-12.765-14.594-23.768-32.589-32.647-53.216 29.703-16.26 62.92-25.41 97.528-26.567zm-76.172-27.363c5.902 6.749 12.068 12.721 18.449 17.911-31.092-9.645-59.762-26.219-84.125-48.936 9.788-9.127 20.269-17.265 31.326-24.358 9.371 21.333 20.94 40.052 34.35 55.383zm174.308-35.052c-22.698 37.493-51.981 59.372-83.136 62.406v-117.011c34.603 1.156 67.817 10.303 97.518 26.559-4.279 9.897-9.077 19.282-14.382 28.046zm27.375-20.34c11.062 7.095 21.547 15.235 31.339 24.365-24.33 22.688-52.956 39.248-84 48.899 13.987-11.396 26.853-26.548 38.117-45.155 5.34-8.819 10.189-18.224 14.544-28.109zm-110.511-49.275v-79.309h122.168c-.762 38.275-7.344 74.821-19.052 106.83-31.474-16.907-66.578-26.378-103.116-27.521zm-15-188.609c-34.189-1.167-67.626-10.297-97.501-26.624 4.275-9.881 9.066-19.251 14.364-28.001 22.699-37.491 51.982-59.371 83.137-62.406zm-103.095-12.597c31.667 16.985 66.997 26.451 103.094 27.604v79.293h-122.173c.762-38.301 7.354-74.871 19.079-106.897zm134.337 11.444c-5.384.58-10.81.965-16.242 1.149v-117.038c8.757.856 17.408 3.216 25.854 7.047-10.96 19.125-17.232 41.265-17.232 64.844 0 15.43 2.692 30.241 7.62 43.998zm-127.211-61.241c-5.331 8.805-10.173 18.192-14.523 28.06-11.147-7.131-21.653-15.265-31.362-24.309 24.327-22.684 52.95-39.243 83.99-48.894-13.982 11.395-26.843 26.543-38.105 45.143zm-56.522 14.352c11.158 10.442 23.309 19.759 36.243 27.819-12.899 34.275-20.141 73.503-20.929 114.524h-74.399c1.781-53.356 22.552-103.399 59.085-142.343zm-59.085 157.343h74.395c.317 16.317 1.661 32.51 4.016 48.239.557 3.72 3.757 6.391 7.407 6.391.37 0 .744-.027 1.12-.083 4.097-.613 6.92-4.432 6.307-8.528-2.245-14.999-3.531-30.446-3.845-46.019h122.176v79.309c-36.534 1.143-71.635 10.612-103.104 27.517-3.77-10.354-7.041-21.267-9.771-32.655-.965-4.027-5.014-6.509-9.041-5.545-4.028.966-6.511 5.014-5.545 9.042 3.083 12.859 6.836 25.158 11.2 36.8-12.832 8.018-24.958 17.337-36.219 27.887-36.539-38.947-57.313-88.995-59.096-142.355zm379.057 142.351c-11.261-10.549-23.386-19.867-36.217-27.884 12.885-34.26 20.119-73.469 20.907-114.467h74.399c-1.783 53.358-22.554 103.405-59.089 142.351zm59.088-157.351h-74.398c-.056-2.891-.148-5.776-.269-8.653.849.016 1.698.032 2.551.032 25.435 0 49.193-7.304 69.302-19.913 1.553 9.411 2.489 18.954 2.814 28.534z" fill="#000000" data-original="#000000" style=""/><path d="m344.34 177.906c-12.341 0-22.381 10.04-22.381 22.381s10.04 22.381 22.381 22.381h73.656c12.341 0 22.381-10.04 22.381-22.381s-10.04-22.381-22.381-22.381h-1.642v-52.713c0-11.99-9.755-21.745-21.745-21.745h-50.27c-12.341 0-22.381 10.04-22.381 22.381s10.04 22.381 22.381 22.381h5.377v29.697h-5.376zm12.877-44.697h-12.877c-4.069 0-7.381-3.311-7.381-7.381s3.312-7.381 7.381-7.381h50.27c3.72 0 6.745 3.026 6.745 6.745v60.213c0 4.142 3.357 7.5 7.5 7.5h9.142c4.069 0 7.381 3.311 7.381 7.381s-3.312 7.381-7.381 7.381h-73.657c-4.069 0-7.381-3.311-7.381-7.381s3.312-7.381 7.381-7.381h12.877c4.143 0 7.5-3.358 7.5-7.5v-44.697c0-4.141-3.358-7.499-7.5-7.499z" fill="#000000" data-original="#000000" style=""/><path d="m416.354 62.312c0-18.372-14.947-33.319-33.319-33.319s-33.318 14.947-33.318 33.319c0 18.373 14.946 33.319 33.318 33.319s33.319-14.946 33.319-33.319zm-51.637 0c0-10.101 8.218-18.319 18.318-18.319 10.102 0 18.319 8.218 18.319 18.319 0 10.102-8.218 18.319-18.319 18.319-10.1 0-18.318-8.217-18.318-18.319z" fill="#000000" data-original="#000000" style=""/></g></g></g></svg>
