<?xml version="1.0"?>
<svg xmlns="http://www.w3.org/2000/svg" xmlns:xlink="http://www.w3.org/1999/xlink" xmlns:svgjs="http://svgjs.com/svgjs" version="1.1" width="512" height="512" x="0" y="0" viewBox="0 0 512 512" style="enable-background:new 0 0 512 512" xml:space="preserve"><g><g xmlns="http://www.w3.org/2000/svg"><g><path d="m442.668 480.196h-373.336c-34.149 0-61.832-27.683-61.832-61.832v-324.732c0-34.149 27.683-61.832 61.832-61.832h373.336c34.149 0 61.832 27.683 61.832 61.832v324.732c0 34.149-27.683 61.832-61.832 61.832z" fill="#b3e59f" data-original="#b3e59f" style=""/><path d="m92.536 480.189h-23.197c-34.158 0-61.839-27.681-61.839-61.828v-324.729c0-34.147 27.681-61.839 61.839-61.839h23.197c-34.158 0-61.839 27.692-61.839 61.839v324.728c0 34.148 27.68 61.829 61.839 61.829z" fill="#95d6a4" data-original="#95d6a4" style=""/><path d="m471.283 166.25v252.117c0 15.801-12.809 28.611-28.611 28.611h-373.344c-15.801 0-28.611-12.81-28.611-28.611v-252.117c0-19.35 15.687-35.037 35.037-35.037h360.492c19.35 0 35.037 15.686 35.037 35.037z" fill="#f1f4f6" data-original="#f1f4f6" style=""/><path d="m105.402 446.988h-36.074c-15.8 0-28.611-12.811-28.611-28.611v-252.127c0-19.343 15.69-35.033 35.033-35.033h36.074c-19.354 0-35.033 15.689-35.033 35.033v252.127c0 15.8 12.811 28.611 28.611 28.611z" fill="#dddaec" data-original="#dddaec" style=""/><g fill="#dd5790"><circle cx="60.968" cy="82.612" r="20.251" fill="#dd5790" data-original="#dd5790" style=""/><circle cx="125.35" cy="82.612" r="20.251" fill="#dd5790" data-original="#dd5790" style=""/><circle cx="189.733" cy="82.612" r="20.251" fill="#dd5790" data-original="#dd5790" style=""/></g><g><path d="m305.03 368.41h-12.171v-59.505-20.657c0-10.474-8.491-18.965-18.965-18.965h-66.924c-10.941 0-19.811 8.87-19.811 19.811 0 10.941 8.87 19.811 19.811 19.811h17.142v59.505h-17.142c-10.941 0-19.811 8.87-19.811 19.811 0 10.941 8.87 19.811 19.811 19.811h98.06c10.941 0 19.811-8.87 19.811-19.811 0-10.941-8.87-19.811-19.811-19.811z" fill="#9dc6fb" data-original="#9dc6fb" style=""/><path d="m246.682 308.901v59.496h-17.147c-10.943 0-19.81 8.88-19.81 19.823 0 5.458 2.223 10.411 5.805 14.005 3.581 3.581 8.534 5.805 14.005 5.805h-22.566c-5.472 0-10.424-2.223-14.005-5.805-3.595-3.594-5.805-8.547-5.805-14.005 0-10.943 8.867-19.823 19.81-19.823h17.147v-59.496h-17.147c-5.472 0-10.424-2.21-14.005-5.805-3.595-3.581-5.805-8.534-5.805-14.005 0-10.943 8.867-19.81 19.81-19.81h22.566c-10.943 0-19.81 8.867-19.81 19.81 0 5.472 2.223 10.424 5.805 14.005 3.581 3.595 8.534 5.805 14.005 5.805z" fill="#80b4fb" data-original="#80b4fb" style=""/><circle cx="258.486" cy="204.532" fill="#9dc6fb" r="34.374" data-original="#9dc6fb" style=""/><path d="m270.269 236.83c-3.674 1.345-7.642 2.077-11.782 2.077-18.985 0-34.375-15.39-34.375-34.374s15.39-34.374 34.375-34.374c4.14 0 8.108.732 11.782 2.077-13.18 4.806-22.592 17.453-22.592 32.298 0 14.843 9.412 27.49 22.592 32.296z" fill="#80b4fb" data-original="#80b4fb" style=""/></g></g><g><path d="m60.968 110.364c15.302 0 27.751-12.449 27.751-27.751s-12.449-27.751-27.751-27.751-27.751 12.449-27.751 27.751c0 15.301 12.449 27.751 27.751 27.751zm0-40.503c7.031 0 12.751 5.72 12.751 12.751s-5.72 12.751-12.751 12.751-12.751-5.72-12.751-12.751 5.72-12.751 12.751-12.751z" fill="#000000" data-original="#000000" style=""/><path d="m153.102 82.612c0-15.302-12.449-27.751-27.751-27.751s-27.751 12.449-27.751 27.751 12.449 27.751 27.751 27.751c15.301.001 27.751-12.449 27.751-27.751zm-40.503 0c0-7.031 5.72-12.751 12.751-12.751s12.751 5.72 12.751 12.751-5.72 12.751-12.751 12.751c-7.031.001-12.751-5.72-12.751-12.751z" fill="#000000" data-original="#000000" style=""/><path d="m217.483 82.612c0-15.302-12.449-27.751-27.751-27.751s-27.751 12.449-27.751 27.751 12.449 27.751 27.751 27.751 27.751-12.449 27.751-27.751zm-40.502 0c0-7.031 5.72-12.751 12.751-12.751s12.751 5.72 12.751 12.751-5.72 12.751-12.751 12.751-12.751-5.72-12.751-12.751z" fill="#000000" data-original="#000000" style=""/><path d="m442.67 24.305h-34.61c-4.142 0-7.5 3.358-7.5 7.5s3.358 7.5 7.5 7.5h34.61c29.958 0 54.33 24.373 54.33 54.33v324.73c0 29.958-24.373 54.33-54.33 54.33h-373.34c-29.958 0-54.33-24.373-54.33-54.33v-324.73c0-29.958 24.373-54.33 54.33-54.33h308.73c4.142 0 7.5-3.358 7.5-7.5s-3.358-7.5-7.5-7.5h-308.73c-38.228 0-69.33 31.101-69.33 69.33v324.73c0 38.229 31.102 69.33 69.33 69.33h373.34c38.229 0 69.33-31.101 69.33-69.33v-324.73c0-38.229-31.102-69.33-69.33-69.33z" fill="#000000" data-original="#000000" style=""/><path d="m134.32 446.975c0 4.142 3.358 7.5 7.5 7.5h300.85c19.911 0 36.11-16.199 36.11-36.11v-252.12c0-23.451-19.079-42.53-42.53-42.53h-360.5c-23.451 0-42.53 19.079-42.53 42.53v252.12c0 19.911 16.199 36.11 36.11 36.11h42.49c4.142 0 7.5-3.358 7.5-7.5s-3.358-7.5-7.5-7.5h-42.49c-11.64 0-21.11-9.47-21.11-21.11v-252.12c0-15.18 12.35-27.53 27.53-27.53h360.5c15.18 0 27.53 12.35 27.53 27.53v252.12c0 11.64-9.47 21.11-21.11 21.11h-300.85c-4.142 0-7.5 3.358-7.5 7.5z" fill="#000000" data-original="#000000" style=""/><path d="m206.97 360.91c-15.06 0-27.311 12.251-27.311 27.311s12.252 27.312 27.312 27.312h98.06c15.06 0 27.312-12.252 27.312-27.312s-12.252-27.311-27.312-27.311h-4.67v-72.663c0-14.593-11.872-26.465-26.465-26.465h-66.926c-15.06 0-27.312 12.252-27.312 27.312s12.252 27.312 27.312 27.312h9.642v44.505h-9.642zm17.142-59.505h-17.142c-6.789 0-12.312-5.523-12.312-12.312s5.523-12.312 12.312-12.312h66.924c6.322 0 11.465 5.143 11.465 11.465v80.163c0 4.142 3.358 7.5 7.5 7.5h12.17c6.789 0 12.312 5.523 12.312 12.311 0 6.789-5.523 12.312-12.312 12.312h-98.06c-6.789 0-12.312-5.523-12.312-12.312 0-6.788 5.522-12.311 12.311-12.311h17.143c4.142 0 7.5-3.358 7.5-7.5v-59.505c.001-4.142-3.357-7.499-7.499-7.499z" fill="#000000" data-original="#000000" style=""/><path d="m300.359 204.532c0-23.089-18.784-41.874-41.874-41.874s-41.874 18.784-41.874 41.874 18.784 41.874 41.874 41.874 41.874-18.784 41.874-41.874zm-68.747 0c0-14.818 12.056-26.874 26.874-26.874s26.874 12.056 26.874 26.874-12.056 26.874-26.874 26.874-26.874-12.056-26.874-26.874z" fill="#000000" data-original="#000000" style=""/></g></g></g></svg>
