<?xml version="1.0"?>
<svg xmlns="http://www.w3.org/2000/svg" xmlns:xlink="http://www.w3.org/1999/xlink" xmlns:svgjs="http://svgjs.com/svgjs" version="1.1" width="512" height="512" x="0" y="0" viewBox="0 0 512 512" style="enable-background:new 0 0 512 512" xml:space="preserve" class=""><g><g xmlns="http://www.w3.org/2000/svg"><g><path d="m428.384 0h-246.163v98.605c0 8.284-6.716 15-15 15h-98.605v383.395c0 8.271 6.729 15 15 15h344.769c8.271 0 15-6.729 15-15v-482c-.001-8.271-6.73-15-15.001-15zm-89.162 310.637-70.875 102.759c-2.8 4.06-7.416 6.483-12.348 6.483s-9.548-2.424-12.348-6.483l-70.875-102.759c-3.165-4.589-3.524-10.554-.933-15.49 2.592-4.936 7.707-8.027 13.281-8.027h17.925v-85.491c0-8.284 6.716-15 15-15h75.898c8.284 0 15 6.716 15 15v85.491h17.925c5.574 0 10.689 3.091 13.281 8.027 2.594 4.936 2.234 10.901-.931 15.49z" fill="#6fffe9" data-original="#000000" style="" class=""/><path d="m278.949 302.121v-85.491h-45.898v85.491c0 8.284-6.716 15-15 15h-4.358l42.307 61.339 42.307-61.339h-4.358c-8.284 0-15-6.716-15-15z" fill="#6fffe9" data-original="#000000" style="" class=""/></g><path d="m152.221 0-83.605 83.605h78.605c2.761 0 5-2.239 5-5z" fill="#6fffe9" data-original="#000000" style="" class=""/></g></g></svg>
