<?xml version="1.0"?>
<svg xmlns="http://www.w3.org/2000/svg" xmlns:xlink="http://www.w3.org/1999/xlink" xmlns:svgjs="http://svgjs.com/svgjs" version="1.1" width="512" height="512" x="0" y="0" viewBox="0 0 512 512" style="enable-background:new 0 0 512 512" xml:space="preserve"><g><path xmlns="http://www.w3.org/2000/svg" d="m136 24h352v432h-352z" fill="#85bb40" data-original="#85bb40" style=""/><circle xmlns="http://www.w3.org/2000/svg" cx="312" cy="104" fill="#f6bc1b" r="40" data-original="#f6bc1b" style=""/><g xmlns="http://www.w3.org/2000/svg" fill="#0093b9"><path d="m176 168h96v32h-96z" fill="#0093b9" data-original="#0093b9" style=""/><path d="m352 168h96v32h-96z" fill="#0093b9" data-original="#0093b9" style=""/><path d="m352 232h96v32h-96z" fill="#0093b9" data-original="#0093b9" style=""/><path d="m352 304h96v32h-96z" fill="#0093b9" data-original="#0093b9" style=""/><path d="m352 368h96v32h-96z" fill="#0093b9" data-original="#0093b9" style=""/></g><path xmlns="http://www.w3.org/2000/svg" d="m254.527 347.354 25.473-23-12.286-29.662-34.274 1.751-17.885-17.883 1.751-34.274-29.662-12.286-23 25.473h-25.29l-23-25.473-29.66 12.286 1.751 34.274-17.885 17.885-34.274-1.751-12.286 29.662 25.473 23v25.292l-25.473 22.996 12.286 29.662 34.274-1.751 17.885 17.885-1.751 34.274 29.662 12.286 23-25.473h25.292l23 25.473 29.662-12.286-1.751-34.274 17.885-17.885 34.274 1.751 12.282-29.662-25.473-23zm-102.527 44.646a32 32 0 1 1 32-32 32 32 0 0 1 -32 32z" fill="#f6bc1b" data-original="#f6bc1b" style=""/><path xmlns="http://www.w3.org/2000/svg" d="m267.306 433.3a8.021 8.021 0 0 0 7.8-4.928l12.286-29.661a8 8 0 0 0 -2.03-9l-22.834-20.615v-18.187l22.834-20.615a8 8 0 0 0 2.03-9l-12.286-29.661a7.994 7.994 0 0 0 -7.8-4.928l-30.723 1.569-12.857-12.857 1.569-30.723a8 8 0 0 0 -4.928-7.8l-29.661-12.286a8 8 0 0 0 -9 2.03l-20.615 22.834h-18.182l-20.615-22.834a8 8 0 0 0 -9-2.03l-29.661 12.292a8 8 0 0 0 -4.928 7.8l1.569 30.723-12.857 12.851-30.723-1.569a7.991 7.991 0 0 0 -7.8 4.928l-12.285 29.661a8 8 0 0 0 2.03 9l22.834 20.615v18.182l-22.834 20.615a8 8 0 0 0 -2.03 9l12.291 29.661a8 8 0 0 0 7.8 4.928l30.723-1.569 12.857 12.857-1.569 30.723a8 8 0 0 0 4.928 7.8l29.661 12.286a8 8 0 0 0 9-2.03l20.615-22.834h18.182l20.615 22.834a8 8 0 0 0 9 2.03l29.661-12.286a8 8 0 0 0 4.928-7.8l-1.569-30.723 12.857-12.857zm-39.523-15.4-17.883 17.883a8 8 0 0 0 -2.333 6.065l1.463 28.635-19.23 7.965-19.215-21.282a8 8 0 0 0 -5.938-2.639h-25.293a8 8 0 0 0 -5.938 2.639l-19.216 21.282-19.229-7.965 1.463-28.635a8 8 0 0 0 -2.333-6.065l-17.884-17.883a8.028 8.028 0 0 0 -6.065-2.333l-28.635 1.463-7.965-19.23 21.282-19.215a8 8 0 0 0 2.639-5.938v-25.293a8 8 0 0 0 -2.639-5.938l-21.282-19.216 7.965-19.229 28.635 1.463a8.026 8.026 0 0 0 6.065-2.333l17.883-17.884a8 8 0 0 0 2.333-6.065l-1.463-28.635 19.229-7.965 19.215 21.282a8 8 0 0 0 5.938 2.639h25.292a8 8 0 0 0 5.938-2.639l19.218-21.282 19.229 7.965-1.463 28.635a8 8 0 0 0 2.333 6.065l17.884 17.883a7.994 7.994 0 0 0 6.065 2.333l28.635-1.463 7.965 19.229-21.282 19.215a8 8 0 0 0 -2.639 5.938v25.292a8 8 0 0 0 2.639 5.938l21.282 19.218-7.965 19.229-28.635-1.463a7.992 7.992 0 0 0 -6.065 2.334z" fill="#000000" data-original="#000000" style=""/><path xmlns="http://www.w3.org/2000/svg" d="m152 320a40 40 0 1 0 40 40 40.045 40.045 0 0 0 -40-40zm0 64a24 24 0 1 1 24-24 24.028 24.028 0 0 1 -24 24z" fill="#000000" data-original="#000000" style=""/><path xmlns="http://www.w3.org/2000/svg" d="m488 16h-352a8 8 0 0 0 -8 8v192h16v-184h336v416h-240v16h248a8 8 0 0 0 8-8v-432a8 8 0 0 0 -8-8z" fill="#000000" data-original="#000000" style=""/><path xmlns="http://www.w3.org/2000/svg" d="m168 168v32a8 8 0 0 0 8 8h40v16h16v-16h40a8 8 0 0 0 8-8v-8h24v232h16v-96h24v8a8 8 0 0 0 8 8h40v16h-40a8 8 0 0 0 -8 8v32a8 8 0 0 0 8 8h40v16h16v-16h40a8 8 0 0 0 8-8v-32a8 8 0 0 0 -8-8h-40v-16h40a8 8 0 0 0 8-8v-32a8 8 0 0 0 -8-8h-96a8 8 0 0 0 -8 8v8h-24v-120h24v8a8 8 0 0 0 8 8h40v16h-40a8 8 0 0 0 -8 8v32a8 8 0 0 0 8 8h96a8 8 0 0 0 8-8v-32a8 8 0 0 0 -8-8h-40v-16h40a8 8 0 0 0 8-8v-32a8 8 0 0 0 -8-8h-96a8 8 0 0 0 -8 8v8h-24v-24.679a47.948 47.948 0 0 0 31.1-75.109l12.213-12.212h84.687v-16h-88a8 8 0 0 0 -5.657 2.343l-14.555 14.557a47.984 47.984 0 1 0 -35.788 86.421v24.679h-24v-8a8 8 0 0 0 -8-8h-96a8 8 0 0 0 -8 8zm272 224h-80v-16h80zm-80-80h80v16h-80zm80-56h-80v-16h80zm-80-80h80v16h-80zm-80-72a31.979 31.979 0 0 1 48.242-27.556l-21.9 21.9 11.314 11.314 21.9-21.9a31.994 31.994 0 1 1 -59.556 16.242zm-96 72h80v16h-80z" fill="#000000" data-original="#000000" style=""/><path xmlns="http://www.w3.org/2000/svg" d="m176 128h16v16h-16z" fill="#000000" data-original="#000000" style=""/><path xmlns="http://www.w3.org/2000/svg" d="m208 128h16v16h-16z" fill="#000000" data-original="#000000" style=""/><path xmlns="http://www.w3.org/2000/svg" d="m400 128h16v16h-16z" fill="#000000" data-original="#000000" style=""/><path xmlns="http://www.w3.org/2000/svg" d="m432 128h16v16h-16z" fill="#000000" data-original="#000000" style=""/><path xmlns="http://www.w3.org/2000/svg" d="m152 288a72 72 0 1 0 72 72 72.081 72.081 0 0 0 -72-72zm0 128a56 56 0 1 1 56-56 56.064 56.064 0 0 1 -56 56z" fill="#000000" data-original="#000000" style=""/></g></svg>
