<svg viewBox="1 -47 511.99998 511" xmlns="http://www.w3.org/2000/svg"><path d="m461.757812 90.703125c-.339843 0-339.597656.007813-343.597656.007813v-71.359376c0-6.230468-5.050781-11.28125-11.277344-11.28125h-58.246093c-22.585938 0-41.0625 18.480469-41.0625 41.0625v313.746094c0 25.578125 20.734375 46.3125 46.3125 46.3125h407.871093c23.5625 0 42.667969-19.101562 42.667969-42.667968v-233.152344c0-23.5625-19.101562-42.667969-42.667969-42.667969zm0 0" fill="#ebebf0"/><path d="m504.425781 133.371094v233.152344c0 23.566406-19.101562 42.667968-42.667969 42.667968h-407.871093c-25.578125 0-46.3125-20.734375-46.3125-46.3125v-312.984375l.082031 2.292969c1.28125 21.4375 19.230469 38.566406 40.972656 38.566406l77.027344-.050781h336.101562c23.566407 0 42.667969 19.105469 42.667969 42.667969zm0 0" fill="#cdcdcd"/><path d="m504.425781 133.371094v219.898437h-450.539062c-25.578125 0-46.3125-20.734375-46.3125-46.308593v-257.066407l.082031 2.292969c1.28125 21.4375 19.230469 38.566406 40.972656 38.566406l77.027344-.050781h336.101562c23.566407 0 42.667969 19.105469 42.667969 42.667969zm0 0" fill="#ebebf0"/><path d="m106.882812 8.070312h-58.246093c-22.585938 0-41.0625 18.480469-41.0625 41.0625v.550782c0 22.585937 18.476562 41.0625 41.0625 41.0625h69.523437v-71.394532c0-6.230468-5.050781-11.28125-11.277344-11.28125zm0 0" fill="#bebebe"/><path d="m366.027344 223.425781h-80.210938c-8.894531 0-16.171875-7.277343-16.171875-16.175781v-56.710938c0-8.894531 7.277344-16.171874 16.171875-16.171874h80.210938c8.894531 0 16.171875 7.277343 16.171875 16.171874v56.710938c0 8.898438-7.277344 16.175781-16.171875 16.175781zm0 0" fill="#7fa32f"/><path d="m134.128906 364.554688h-60.554687c-14.300781 0-26-11.699219-26-26v-178.1875c0-14.300782 11.699219-26 26-26h60.550781c14.304688 0 26.003906 11.699218 26.003906 26v178.1875c0 14.300781-11.699218 26-26 26zm0 0" fill="#6990d7"/><path d="m366.027344 364.554688h-80.210938c-8.894531 0-16.171875-7.277344-16.171875-16.171876v-56.710937c0-8.898437 7.277344-16.175781 16.171875-16.175781h80.210938c8.894531 0 16.171875 7.277344 16.171875 16.175781v56.710937c0 8.894532-7.277344 16.171876-16.171875 16.171876zm0 0" fill="#f44545"/><path d="m458.109375 83.132812h-332.378906v-63.78125c0-10.394531-8.457031-18.851562-18.847657-18.851562h-10.71875c-4.183593 0-7.570312 3.386719-7.570312 7.570312 0 4.183594 3.386719 7.570313 7.570312 7.570313h10.71875c2.042969 0 3.707032 1.664063 3.707032 3.710937v63.789063c-.011719 0-.019532 0-.03125 0-.003906 0-.007813 0-.011719 0s-.011719 0-.015625 0c-.050781 0-.09375 0-.128906 0h.03125c-.035156 0-.082032 0-.132813 0-.003906 0-.003906 0-.007812 0-1.738281.003906-12.039063.007813-61.65625.035156-17.628907 0-32.082031-13.679687-33.382813-30.929687-1.578125-20.726563 14.496094-36.605469 33.382813-36.605469h17.242187c4.183594 0 7.570313-3.386719 7.570313-7.570313 0-4.179687-3.386719-7.570312-7.570313-7.570312h-17.242187c-24.699219 0-48.636719 18.660156-48.636719 51.679688v310.695312c0 29.714844 24.175781 53.894531 53.890625 53.894531h404.21875c29.714844 0 53.890625-24.179687 53.890625-53.894531v-225.851562c0-29.714844-24.175781-53.890626-53.890625-53.890626zm38.75 279.742188c0 21.367188-17.382813 38.75-38.75 38.75h-404.21875c-21.367187 0-38.75-17.382812-38.75-38.75v-277.949219c18.617187 17.6875 39.8125 12.464844 46.820313 13.390625 69.808593-.007812 326.433593-.042968 396.144531-.042968 21.367187 0 38.753906 17.382812 38.753906 38.75zm0 0"/><path d="m366.027344 126.796875h-39.804688c-4.179687 0-7.570312 3.386719-7.570312 7.570313 0 4.179687 3.390625 7.570312 7.570312 7.570312h39.804688c4.742187 0 8.601562 3.859375 8.601562 8.601562v56.710938c0 4.746094-3.859375 8.605469-8.601562 8.605469h-80.210938c-4.742187 0-8.601562-3.859375-8.601562-8.605469v-56.710938c0-4.742187 3.859375-8.601562 8.601562-8.601562h10.125c4.179688 0 7.570313-3.390625 7.570313-7.570312 0-4.183594-3.390625-7.570313-7.570313-7.570313h-10.125c-13.09375 0-23.742187 10.648437-23.742187 23.742187v56.710938c0 13.09375 10.648437 23.746094 23.742187 23.746094h80.210938c13.089844 0 23.742187-10.652344 23.742187-23.746094v-56.710938c0-13.09375-10.652343-23.742187-23.742187-23.742187zm0 0"/><path d="m134.128906 126.796875h-60.550781c-18.515625 0-33.574219 15.058594-33.574219 33.570313v178.1875c0 18.511718 15.058594 33.570312 33.574219 33.570312h60.550781c18.511719 0 33.570313-15.058594 33.570313-33.570312v-14.523438c0-4.179688-3.386719-7.570312-7.570313-7.570312-4.179687 0-7.570312 3.390624-7.570312 7.570312v14.523438c0 10.164062-8.265625 18.429687-18.429688 18.429687h-60.550781c-10.164063 0-18.433594-8.265625-18.433594-18.429687v-178.1875c0-10.160157 8.269531-18.429688 18.433594-18.429688h60.550781c10.160156 0 18.429688 8.265625 18.429688 18.429688v133.382812c0 4.183594 3.390625 7.570312 7.570312 7.570312 4.183594 0 7.570313-3.386718 7.570313-7.570312v-133.382812c0-18.511719-15.058594-33.570313-33.570313-33.570313zm0 0"/><path d="m366.027344 267.925781h-80.210938c-13.09375 0-23.742187 10.652344-23.742187 23.742188v56.714843c0 13.09375 10.648437 23.742188 23.742187 23.742188h80.210938c13.089844 0 23.742187-10.648438 23.742187-23.742188v-56.714843c0-13.089844-10.652343-23.742188-23.742187-23.742188zm8.601562 80.457031c0 4.742188-3.859375 8.601563-8.601562 8.601563h-80.210938c-4.742187 0-8.601562-3.859375-8.601562-8.601563v-56.714843c0-4.742188 3.859375-8.601563 8.601562-8.601563h80.210938c4.742187 0 8.601562 3.859375 8.601562 8.601563zm0 0"/><path d="m458.746094 171.324219h-55.632813c-4.183593 0-7.574219 3.390625-7.574219 7.570312 0 4.183594 3.390626 7.570313 7.574219 7.570313l55.683594.050781-.050781 125.941406h-36.847656l12.203124-11.742187c3.011719-2.898438 3.101563-7.691406.203126-10.707032-2.898438-3.011718-7.6875-3.101562-10.703126-.203124-26.128906 25.5-28.0625 25.1875-28.0625 30.222656 0 2.117187.875 4.050781 2.324219 5.453125 25.800781 23.839843 25.609375 26.886719 30.988281 26.886719 6.753907 0 10.175782-8.285157 5.25-13.027344l-12.207031-11.742188h36.851563c8.375 0 15.191406-6.8125 15.191406-15.191406v-125.890625c0-8.375-6.8125-15.191406-15.191406-15.191406zm0 0"/><path d="m185.34375 186.464844h41.363281l-12.203125 11.742187c-4.925781 4.742188-1.507812 13.027344 5.25 13.027344 5.375 0 5.1875-3.050781 30.988282-26.882813 2.515624-2.441406 3-6.164062 1.386718-9.097656-.78125-1.433594.722656.21875-27.128906-26.582031-3.011719-2.898437-7.804688-2.804687-10.703125.207031-2.898437 3.011719-2.808594 7.804688.207031 10.703125l12.203125 11.742188h-41.363281c-4.183594 0-7.570312 3.390625-7.570312 7.570312 0 4.183594 3.386718 7.570313 7.570312 7.570313zm0 0"/><path d="m245.492188 316.40625h-41.363282l12.203125-11.742188c3.011719-2.898437 3.105469-7.691406.207031-10.703124-2.898437-3.011719-7.691406-3.105469-10.703124-.207032-27.546876 26.511719-26.28125 25.046875-27.128907 26.582032-1.617187 2.941406-1.125 6.660156 1.386719 9.097656 25.847656 23.878906 25.621094 26.882812 30.988281 26.882812 6.753907 0 10.175781-8.285156 5.25-13.023437l-12.203125-11.746094h41.363282c4.179687 0 7.570312-3.386719 7.570312-7.570313 0-4.179687-3.390625-7.570312-7.570312-7.570312zm0 0"/></svg>