<?xml version="1.0"?>
<svg xmlns="http://www.w3.org/2000/svg" xmlns:xlink="http://www.w3.org/1999/xlink" xmlns:svgjs="http://svgjs.com/svgjs" version="1.1" width="512" height="512" x="0" y="0" viewBox="0 0 511.995 511.995" style="enable-background:new 0 0 512 512" xml:space="preserve"><g><g xmlns="http://www.w3.org/2000/svg"><g><g><path d="m486.244 177.325-195.833-157.693c-20.09-16.177-48.736-16.177-68.826 0l-195.833 157.693v273.155c0 29.832 24.183 54.015 54.015 54.015h352.462c29.832 0 54.015-24.183 54.015-54.015z" fill="#ffe07d" data-original="#ffe07d" style=""/><path d="m122.288 504.495h-42.53c-29.83 0-54.01-24.18-54.01-54.01v-273.16h42.53v273.16c0 29.83 24.18 54.01 54.01 54.01z" fill="#ffd064" data-original="#ffd064" style=""/><path d="m486.241 177.323-53.073 42.739-142.757 114.952c-20.09 16.182-48.741 16.182-68.831 0l-142.758-114.953-53.073-42.739 195.83-157.691c20.09-16.182 48.741-16.182 68.831 0z" fill="#ffd064" data-original="#ffd064" style=""/><g><path d="m433.171 127.83v92.232l-142.758 114.953c-20.09 16.182-48.741 16.182-68.832 0l-142.757-114.952v-150.864c0-18.306 14.841-33.147 33.147-33.147h229.421z" fill="#f9f6f9" data-original="#f9f6f9" style=""/><g fill="#dddaec"><path d="m433.171 180.604v39.459l-142.758 114.952c-20.09 16.182-48.741 16.182-68.831 0l-142.758-114.952v-39.459l142.758 114.953c20.09 16.182 48.741 16.182 68.831 0z" fill="#dddaec" data-original="#dddaec" style=""/><path d="m433.169 127.832h-58.637c-18.304 0-33.145-14.841-33.145-33.145v-58.636" fill="#dddaec" data-original="#dddaec" style=""/></g></g></g><g><path d="m292.826 226.059h-9.142v-44.697-15.517c0-7.868-6.378-14.246-14.246-14.246h-50.269c-8.219 0-14.881 6.662-14.881 14.881 0 8.219 6.662 14.881 14.881 14.881h12.876v44.697h-12.876c-8.219 0-14.881 6.662-14.881 14.881 0 8.219 6.662 14.881 14.881 14.881h73.657c8.219 0 14.881-6.662 14.881-14.881 0-8.218-6.663-14.88-14.881-14.88z" fill="#9dc6fb" data-original="#9dc6fb" style=""/><path d="m248.998 181.36v44.69h-12.88c-8.22 0-14.88 6.67-14.88 14.89 0 4.1 1.67 7.82 4.36 10.52 2.69 2.69 6.41 4.36 10.52 4.36h-16.95c-4.11 0-7.83-1.67-10.52-4.36-2.7-2.7-4.36-6.42-4.36-10.52 0-8.22 6.66-14.89 14.88-14.89h12.88v-44.69h-12.88c-4.11 0-7.83-1.66-10.52-4.36-2.7-2.69-4.36-6.41-4.36-10.52 0-8.22 6.66-14.88 14.88-14.88h16.95c-8.22 0-14.88 6.66-14.88 14.88 0 4.11 1.67 7.83 4.36 10.52 2.69 2.7 6.41 4.36 10.52 4.36z" fill="#80b4fb" data-original="#80b4fb" style=""/><circle cx="257.865" cy="102.964" fill="#9dc6fb" r="25.819" data-original="#9dc6fb" style=""/><path d="m266.716 127.224c-2.76 1.01-5.74 1.56-8.85 1.56-14.26 0-25.82-11.56-25.82-25.82s11.56-25.82 25.82-25.82c3.11 0 6.09.55 8.85 1.56-9.9 3.61-16.97 13.11-16.97 24.26s7.07 20.65 16.97 24.26z" fill="#80b4fb" data-original="#80b4fb" style=""/></g></g><g><path d="m490.951 171.483-50.284-40.489v-3.16c0-1.989-.79-3.897-2.197-5.303l-91.78-91.78c-1.406-1.407-3.314-2.197-5.303-2.197h-27.946l-18.33-14.761c-11.044-8.894-24.935-13.793-39.113-13.793s-28.07 4.899-39.114 13.794l-18.33 14.761h-86.586c-22.409 0-40.64 18.231-40.64 40.64v5.39c0 4.142 3.358 7.5 7.5 7.5s7.5-3.358 7.5-7.5v-5.39c0-14.138 11.502-25.64 25.64-25.64h221.919v51.132c0 22.412 18.233 40.645 40.645 40.645h51.136v81.146l-70.904 57.096c-3.226 2.598-3.735 7.319-1.137 10.545 1.482 1.84 3.654 2.796 5.846 2.796 1.651 0 3.313-.543 4.699-1.659l114.576-92.262v257.491c0 25.646-20.869 46.51-46.52 46.51h-352.46c-25.651 0-46.52-20.864-46.52-46.51v-257.491l183.625 147.863c11.045 8.895 24.939 13.794 39.125 13.794s28.08-4.899 39.124-13.794l45.71-36.81c3.226-2.598 3.735-7.319 1.137-10.545-2.598-3.225-7.318-3.735-10.545-1.137l-45.71 36.81c-17.218 13.868-42.212 13.867-59.431 0l-139.955-112.698v-111.892c0-4.142-3.358-7.5-7.5-7.5s-7.5 3.358-7.5 7.5v26.41l-50.284 40.489c-1.768 1.424-2.796 3.572-2.796 5.842v273.16c0 33.917 27.598 61.51 61.52 61.51h352.46c33.922 0 61.52-27.593 61.52-61.51v-273.16c0-2.271-1.029-4.419-2.797-5.843zm-419.623 32.916-33.621-27.073 33.621-27.072zm154.964-178.922c17.213-13.863 42.199-13.862 59.412 0l3.823 3.079h-67.058zm122.595 69.21v-40.526l66.17 66.17h-40.526c-14.14.001-25.644-11.503-25.644-25.644zm91.78 55.566 33.622 27.072-33.622 27.074z" fill="#000000" data-original="#000000" style=""/><path d="m296.857 393.729c-2.598 3.226-2.088 7.947 1.138 10.545l71.522 57.592c1.386 1.116 3.048 1.659 4.699 1.659 2.192 0 4.365-.957 5.846-2.796 2.598-3.227 2.089-7.948-1.138-10.546l-71.522-57.592c-3.226-2.599-7.947-2.089-10.545 1.138z" fill="#000000" data-original="#000000" style=""/><path d="m204.593 392.591-71.522 57.592c-3.227 2.598-3.736 7.319-1.138 10.546 1.481 1.84 3.654 2.796 5.846 2.796 1.651 0 3.313-.543 4.699-1.659l71.522-57.592c3.227-2.598 3.736-7.319 1.138-10.545-2.597-3.226-7.318-3.736-10.545-1.138z" fill="#000000" data-original="#000000" style=""/><path d="m219.169 218.559c-12.341 0-22.381 10.04-22.381 22.381s10.04 22.381 22.381 22.381h73.656c12.341 0 22.381-10.04 22.381-22.381s-10.04-22.381-22.381-22.381h-1.642v-52.713c0-11.991-9.755-21.746-21.746-21.746h-50.269c-12.341 0-22.381 10.04-22.381 22.381s10.04 22.381 22.381 22.381h5.376v29.697zm12.876-44.697h-12.876c-4.07 0-7.381-3.311-7.381-7.381s3.311-7.381 7.381-7.381h50.269c3.72 0 6.746 3.026 6.746 6.746v60.213c0 4.142 3.358 7.5 7.5 7.5h9.142c4.07 0 7.381 3.311 7.381 7.381s-3.311 7.381-7.381 7.381h-73.656c-4.07 0-7.381-3.311-7.381-7.381s3.311-7.381 7.381-7.381h12.876c4.142 0 7.5-3.358 7.5-7.5v-44.697c-.001-4.142-3.358-7.5-7.501-7.5z" fill="#000000" data-original="#000000" style=""/><path d="m291.184 102.964c0-18.373-14.947-33.319-33.319-33.319s-33.319 14.947-33.319 33.319 14.947 33.319 33.319 33.319 33.319-14.946 33.319-33.319zm-51.639 0c0-10.102 8.218-18.319 18.319-18.319s18.319 8.218 18.319 18.319-8.218 18.319-18.319 18.319-18.319-8.217-18.319-18.319z" fill="#000000" data-original="#000000" style=""/></g></g></g></svg>
