<?xml version="1.0"?>
<svg xmlns="http://www.w3.org/2000/svg" xmlns:xlink="http://www.w3.org/1999/xlink" xmlns:svgjs="http://svgjs.com/svgjs" version="1.1" width="512" height="512" x="0" y="0" viewBox="0 0 64 64" style="enable-background:new 0 0 512 512" xml:space="preserve" class=""><g>
<g xmlns="http://www.w3.org/2000/svg">
	<path style="" d="M45,56c-6.065,0-11-4.935-11-11s4.935-11,11-11s11,4.935,11,11S51.065,56,45,56z" fill="#f0bc5e" data-original="#f0bc5e" class=""/>
	<path style="" d="M19,41c-6.065,0-11-4.935-11-11s4.935-11,11-11s11,4.935,11,11S25.065,41,19,41z" fill="#f0bc5e" data-original="#f0bc5e" class=""/>
	<path style="" d="M41.612,29.46L42,28h6l0.388,1.46C52.8,28.028,56,23.883,56,19c0-6.065-4.935-11-11-11   s-11,4.935-11,11C34,23.883,37.2,28.028,41.612,29.46z" fill="#f0bc5e" data-original="#f0bc5e" class=""/>
	<g>
		<path d="M45,42c0.552,0,1,0.449,1,1h2c0-1.302-0.839-2.402-2-2.816V38h-2v2.184c-1.161,0.414-2,1.514-2,2.816c0,1.654,1.346,3,3,3    c0.552,0,1,0.449,1,1s-0.448,1-1,1s-1-0.449-1-1h-2c0,1.302,0.839,2.402,2,2.816V52h2v-2.184c1.161-0.414,2-1.514,2-2.816    c0-1.654-1.346-3-3-3c-0.552,0-1-0.449-1-1S44.448,42,45,42z" fill="#000000" data-original="#000000" style="" class=""/>
		<path d="M63,22.769v-7.537l-3.786-1.007c-0.22-0.659-0.481-1.296-0.782-1.904l1.962-3.383l-5.331-5.33L51.68,5.569    c-0.606-0.301-1.243-0.563-1.903-0.783L48.769,1h-7.537l-1.008,3.786c-0.66,0.22-1.297,0.482-1.903,0.783l-3.383-1.961    l-5.331,5.33l1.962,3.383c-0.301,0.608-0.562,1.245-0.782,1.904L27,15.231v0.572l-1.32,0.766    c-0.606-0.301-1.243-0.563-1.903-0.783L22.769,12h-7.537l-1.008,3.786c-0.66,0.22-1.297,0.482-1.903,0.783l-3.383-1.961    l-5.331,5.33l1.962,3.383c-0.301,0.608-0.562,1.245-0.782,1.904L1,26.231v7.537l3.786,1.007c0.22,0.659,0.481,1.295,0.782,1.903    l-1.962,3.384l5.331,5.33l3.383-1.961c0.606,0.301,1.243,0.563,1.903,0.783L15.231,48h7.537l1.008-3.786    c0.66-0.22,1.297-0.482,1.903-0.783L27,44.197v4.572l3.786,1.007c0.22,0.659,0.481,1.295,0.782,1.903l-1.962,3.384l5.331,5.33    l3.383-1.961c0.606,0.301,1.243,0.563,1.903,0.783L41.231,63h7.537l1.008-3.786c0.66-0.22,1.297-0.482,1.903-0.783l3.383,1.961    l5.331-5.33l-1.962-3.384c0.301-0.608,0.562-1.245,0.782-1.903L63,48.769v-7.537l-3.786-1.007    c-0.22-0.659-0.481-1.296-0.782-1.904l1.962-3.383L57.456,32l2.938-2.937l-1.962-3.384c0.301-0.607,0.562-1.245,0.782-1.903    L63,22.769z M25.721,41.143l-0.494,0.27c-0.79,0.432-1.65,0.786-2.558,1.053l-0.539,0.159L21.231,46h-4.463l-0.898-3.375    l-0.539-0.159c-0.907-0.267-1.768-0.621-2.558-1.053l-0.494-0.27l-3.016,1.749l-3.155-3.156l1.748-3.016l-0.27-0.494    c-0.433-0.792-0.787-1.653-1.052-2.557l-0.159-0.54L3,32.231v-4.463l3.376-0.898l0.159-0.54c0.265-0.904,0.619-1.765,1.052-2.558    l0.27-0.494l-1.748-3.015l3.155-3.156l3.016,1.749l0.494-0.27c0.79-0.432,1.65-0.786,2.558-1.053l0.539-0.159L16.769,14h4.463    l0.898,3.375l0.539,0.159c0.907,0.267,1.768,0.621,2.558,1.053l0.494,0.27L27,18.115v4.653l3.786,1.007    c0.22,0.659,0.481,1.296,0.782,1.903l-1.962,3.384L32.544,32l-2.938,2.937l1.962,3.383c-0.301,0.608-0.562,1.245-0.782,1.904    L27,41.231v0.653L25.721,41.143z M56.413,38.773c0.433,0.793,0.787,1.654,1.052,2.558l0.159,0.54L61,42.769v4.463l-3.376,0.898    l-0.159,0.54c-0.265,0.904-0.619,1.765-1.052,2.557l-0.27,0.494l1.748,3.016l-3.155,3.156l-3.016-1.749l-0.494,0.27    c-0.79,0.432-1.65,0.786-2.558,1.053l-0.539,0.159L47.231,61h-4.463l-0.898-3.375l-0.539-0.159    c-0.907-0.267-1.768-0.621-2.558-1.053l-0.494-0.27l-3.016,1.749l-3.155-3.156l1.748-3.016l-0.27-0.494    c-0.433-0.792-0.787-1.653-1.052-2.557l-0.159-0.54L29,47.231v-4.463l3.376-0.898l0.159-0.54c0.265-0.904,0.619-1.765,1.052-2.558    l0.27-0.494l-1.748-3.015l3.155-3.156l3.016,1.749l0.494-0.27c0.79-0.432,1.65-0.786,2.558-1.053l0.539-0.159L42.769,29h4.463    l0.898,3.375l0.539,0.159c0.907,0.267,1.768,0.621,2.558,1.053l0.494,0.27l3.016-1.749l3.155,3.156l-1.748,3.015L56.413,38.773z     M57.892,28.736l-1.85,1.85l-0.979-0.979l-3.383,1.961c-0.606-0.301-1.243-0.563-1.903-0.783L48.769,27h-7.537l-1.008,3.786    c-0.66,0.22-1.297,0.482-1.903,0.783l-3.383-1.961l-0.979,0.979l-1.85-1.85l1.748-3.016l-0.27-0.494    c-0.433-0.792-0.787-1.653-1.052-2.557l-0.159-0.54L29,21.231v-4.463l3.376-0.898l0.159-0.54c0.265-0.904,0.619-1.765,1.052-2.558    l0.27-0.494l-1.748-3.015l3.155-3.156l3.016,1.749l0.494-0.27c0.79-0.432,1.65-0.786,2.558-1.053l0.539-0.159L42.769,3h4.463    l0.898,3.375l0.539,0.159c0.907,0.267,1.768,0.621,2.558,1.053l0.494,0.27l3.016-1.749l3.155,3.156l-1.748,3.015l0.27,0.494    c0.433,0.793,0.787,1.654,1.052,2.558l0.159,0.54L61,16.769v4.463l-3.376,0.898l-0.159,0.54c-0.265,0.904-0.619,1.765-1.052,2.557    l-0.27,0.494L57.892,28.736z" fill="#000000" data-original="#000000" style="" class=""/>
		<polygon points="23,30 21,30 21,33 19,33 19,28 17,28 17,33 15,33 15,26 13,26 13,35 25,35 25,33 23,33   " fill="#000000" data-original="#000000" style="" class=""/>
		<path d="M49.658,21.211l-1.513-0.756C48.694,19.755,49,18.891,49,18v-1.83c0-2.224-1.663-4.053-3.786-4.164    c-1.114-0.06-2.163,0.33-2.967,1.092C41.454,13.85,41,14.908,41,16v2c0,0.891,0.306,1.755,0.854,2.455l-1.513,0.756    C38.897,21.933,38,23.385,38,25v2h2v-2c0-0.853,0.474-1.619,1.236-2L44,21.618v-1.842l-0.331-0.298C43.237,19.089,43,18.564,43,18    v-2c0-0.554,0.222-1.069,0.624-1.451s0.943-0.577,1.484-0.546C46.151,14.058,47,15.03,47,16.17V18    c0,0.564-0.237,1.089-0.669,1.478L46,19.776v1.842L48.764,23C49.526,23.381,50,24.147,50,25v2h2v-2    C52,23.385,51.103,21.933,49.658,21.211z" fill="#000000" data-original="#000000" style="" class=""/>
	</g>
</g>
</g></svg>
