<?xml version="1.0"?>
<svg xmlns="http://www.w3.org/2000/svg" xmlns:xlink="http://www.w3.org/1999/xlink" xmlns:svgjs="http://svgjs.com/svgjs" version="1.1" width="512" height="512" x="0" y="0" viewBox="0 0 512 512" style="enable-background:new 0 0 512 512" xml:space="preserve"><g><g xmlns="http://www.w3.org/2000/svg" id="Filledoutline"><path d="m40 40h432v400h-432z" fill="#f8bc1e" data-original="#f8bc1e" style=""/><path d="m56 440h48v48h-48z" fill="#a17835" data-original="#a17835" style=""/><path d="m56 440h48v32h-48z" fill="#8b6639" data-original="#8b6639" style=""/><path d="m232 440h48v48h-48z" fill="#a17835" data-original="#a17835" style=""/><path d="m232 440h48v32h-48z" fill="#8b6639" data-original="#8b6639" style=""/><path d="m408 440h48v48h-48z" fill="#a17835" data-original="#a17835" style=""/><path d="m408 440h48v32h-48z" fill="#8b6639" data-original="#8b6639" style=""/><path d="m24 424h464v32h-464z" fill="#a17835" data-original="#a17835" style=""/><path d="m376 296h48v48h-48z" fill="#f9da62" data-original="#f9da62" style=""/><path d="m472 304h-12a12 12 0 0 0 -12 12v20.305a63.7 63.7 0 0 1 -63.695 63.695h-36.305a12 12 0 0 0 -12 12v12h136z" fill="#f5a922" data-original="#f5a922" style=""/><path d="m376 168h48v48h-48z" fill="#f9da62" data-original="#f9da62" style=""/><path d="m472 176h-12a12 12 0 0 0 -12 12v20.305a63.7 63.7 0 0 1 -63.695 63.695h-36.305a12 12 0 0 0 -12 12v12h136z" fill="#f5a922" data-original="#f5a922" style=""/><path d="m376 40h48v48h-48z" fill="#f9da62" data-original="#f9da62" style=""/><path d="m472 48h-12a12 12 0 0 0 -12 12v20.305a63.7 63.7 0 0 1 -63.695 63.695h-36.305a12 12 0 0 0 -12 12v12h136z" fill="#f5a922" data-original="#f5a922" style=""/><path d="m232 296h48v48h-48z" fill="#f9da62" data-original="#f9da62" style=""/><path d="m328 304h-12a12 12 0 0 0 -12 12v20.305a63.7 63.7 0 0 1 -63.695 63.695h-36.305a12 12 0 0 0 -12 12v12h136z" fill="#f5a922" data-original="#f5a922" style=""/><path d="m232 168h48v48h-48z" fill="#f9da62" data-original="#f9da62" style=""/><path d="m328 176h-12a12 12 0 0 0 -12 12v20.305a63.7 63.7 0 0 1 -63.695 63.695h-36.305a12 12 0 0 0 -12 12v12h136z" fill="#f5a922" data-original="#f5a922" style=""/><path d="m232 40h48v48h-48z" fill="#f9da62" data-original="#f9da62" style=""/><path d="m328 48h-12a12 12 0 0 0 -12 12v20.305a63.7 63.7 0 0 1 -63.695 63.695h-36.305a12 12 0 0 0 -12 12v12h136z" fill="#f5a922" data-original="#f5a922" style=""/><path d="m88 296h48v48h-48z" fill="#f9da62" data-original="#f9da62" style=""/><path d="m184 304h-12a12 12 0 0 0 -12 12v20.305a63.7 63.7 0 0 1 -63.695 63.695h-36.305a12 12 0 0 0 -12 12v12h136z" fill="#f5a922" data-original="#f5a922" style=""/><path d="m88 168h48v48h-48z" fill="#f9da62" data-original="#f9da62" style=""/><path d="m184 176h-12a12 12 0 0 0 -12 12v20.305a63.7 63.7 0 0 1 -63.695 63.695h-36.305a12 12 0 0 0 -12 12v12h136z" fill="#f5a922" data-original="#f5a922" style=""/><path d="m88 40h48v48h-48z" fill="#f9da62" data-original="#f9da62" style=""/><path d="m184 48h-12a12 12 0 0 0 -12 12v20.305a63.7 63.7 0 0 1 -63.695 63.695h-36.305a12 12 0 0 0 -12 12v12h136z" fill="#f5a922" data-original="#f5a922" style=""/><path d="m488 416h-8v-376a8 8 0 0 0 -8-8h-432a8 8 0 0 0 -8 8v376h-8a8 8 0 0 0 -8 8v32a8 8 0 0 0 8 8h24v24a8 8 0 0 0 8 8h48a8 8 0 0 0 8-8v-24h112v24a8 8 0 0 0 8 8h48a8 8 0 0 0 8-8v-24h112v24a8 8 0 0 0 8 8h48a8 8 0 0 0 8-8v-24h24a8 8 0 0 0 8-8v-32a8 8 0 0 0 -8-8zm-152 0v-112h32v40a8 8 0 0 0 8 8h48a8 8 0 0 0 8-8v-40h32v112zm-240-112h32v32h-32zm-48-16v-112h32v40a8 8 0 0 0 8 8h48a8 8 0 0 0 8-8v-40h32v112zm48-112h32v32h-32zm96 0h32v40a8 8 0 0 0 8 8h48a8 8 0 0 0 8-8v-40h32v112h-128zm48-128h32v32h-32zm-8 48h48a8 8 0 0 0 8-8v-40h32v112h-128v-112h32v40a8 8 0 0 0 8 8zm8 80h32v32h-32zm144 0h32v32h-32zm-8 48h48a8 8 0 0 0 8-8v-40h32v112h-128v-112h32v40a8 8 0 0 0 8 8zm8 80h32v32h-32zm-144 0h32v32h-32zm-16 0v40a8 8 0 0 0 8 8h48a8 8 0 0 0 8-8v-40h32v112h-128v-112zm240-144h-128v-112h32v40a8 8 0 0 0 8 8h48a8 8 0 0 0 8-8v-40h32zm-80-112h32v32h-32zm-288 0h32v32h-32zm-16 0v40a8 8 0 0 0 8 8h48a8 8 0 0 0 8-8v-40h32v112h-128v-112zm-32 256h32v40a8 8 0 0 0 8 8h48a8 8 0 0 0 8-8v-40h32v112h-128zm48 176h-32v-16h32zm176 0h-32v-16h32zm176 0h-32v-16h32zm32-32h-448v-16h448z" fill="#000000" data-original="#000000" style=""/><path d="m432 384h16v16h-16z" fill="#000000" data-original="#000000" style=""/><path d="m288 384h16v16h-16z" fill="#000000" data-original="#000000" style=""/><path d="m432 256h16v16h-16z" fill="#000000" data-original="#000000" style=""/><path d="m288 256h16v16h-16z" fill="#000000" data-original="#000000" style=""/><path d="m144 384h16v16h-16z" fill="#000000" data-original="#000000" style=""/><path d="m144 256h16v16h-16z" fill="#000000" data-original="#000000" style=""/><path d="m432 128h16v16h-16z" fill="#000000" data-original="#000000" style=""/><path d="m288 128h16v16h-16z" fill="#000000" data-original="#000000" style=""/><path d="m144 128h16v16h-16z" fill="#000000" data-original="#000000" style=""/></g></g></svg>
