<?xml version="1.0"?>
<svg xmlns="http://www.w3.org/2000/svg" xmlns:xlink="http://www.w3.org/1999/xlink" xmlns:svgjs="http://svgjs.com/svgjs" version="1.1" width="512" height="512" x="0" y="0" viewBox="0 0 512 512" style="enable-background:new 0 0 512 512" xml:space="preserve" class=""><g><g xmlns="http://www.w3.org/2000/svg" id="solid"><path d="m130.169 155.92c0-.814 0-1.616.011-2.43l.126-12.722a86.949 86.949 0 0 0 -11.809 1.755c-1.142.251-2.276.533-3.405.83l-.163 17.2a222.252 222.252 0 0 0 41.011 131.319 238.346 238.346 0 0 1 43.96 138.328 240.977 240.977 0 0 1 -1.9 30.155l-1.1 8.719a87.312 87.312 0 0 0 15.017-6.057l1.463-11.561a223.134 223.134 0 0 0 -39.247-157.239 238.328 238.328 0 0 1 -43.964-138.297z" fill="#5bc0be" data-original="#000000" style="" class=""/><path d="m98.929 160.4.105-11.062c-52.378 25.627-79.214 103.044-61.573 183.07 9.5 43.133 30.407 81.269 58.862 107.384 25.941 23.807 55.558 35.206 84.035 32.5l1.764-13.947a224.921 224.921 0 0 0 1.778-28.145 222.434 222.434 0 0 0 -41.022-129.091 238.158 238.158 0 0 1 -43.949-140.709zm6.853 253.725a8 8 0 0 1 -11.279-.882c-3.266-3.821-6.41-7.824-9.346-11.9a8 8 0 0 1 12.983-9.352c2.676 3.716 5.546 7.367 8.525 10.852a8 8 0 0 1 -.883 11.281zm50.168 37.147a8 8 0 0 1 -10.866 3.151 182.34 182.34 0 0 1 -30.847-21.4 8 8 0 0 1 10.426-12.136 166.344 166.344 0 0 0 28.137 19.518 8 8 0 0 1 3.15 10.866z" fill="#5bc0be" data-original="#000000" style="" class=""/><path d="m219.52 179.753c-21.989-22.59-47.707-36.152-73.215-38.786l-.126 12.7c-.01.768-.01 1.5-.01 2.251a222.415 222.415 0 0 0 41.021 129.064 239.064 239.064 0 0 1 42.315 166.223c16.922-14.32 30.353-35.254 38.582-60.535 10.752-33.033 12.083-72.063 3.749-109.9-8.682-39.4-27.261-75.276-52.316-101.017z" fill="#5bc0be" data-original="#000000" style="" class=""/><path d="m339.248 175.291a238.192 238.192 0 0 1 68.683-130.435l7.917-7.73c-55.108-19.026-128.906 16.592-173.164 85.564a231.16 231.16 0 0 0 -19.736 38.03c30.255 27.407 53.908 68.477 64.513 116.609.392 1.779.757 3.558 1.11 5.336a223.076 223.076 0 0 0 50.677-107.374zm-60.929-42.975a166.483 166.483 0 0 0 -18.325 28.927 8 8 0 1 1 -14.326-7.123 182.321 182.321 0 0 1 20.091-31.714 8 8 0 1 1 12.56 9.91zm27.763-27.707c-3.6 2.83-7.13 5.848-10.486 8.97a8 8 0 1 1 -10.9-11.716c3.68-3.423 7.548-6.731 11.5-9.834a8 8 0 1 1 9.887 12.58z" fill="#5bc0be" data-original="#000000" style="" class=""/><path d="m455.127 64.712-9.089 8.872a223.685 223.685 0 0 0 -64.1 121.724 239.052 239.052 0 0 1 -87.91 147.286c23.616 2.011 49.919-4.234 75-17.955 29.448-16.109 55.6-41.12 75.622-72.329 21.794-33.956 34.1-72.435 34.66-108.351.496-31.522-8.044-59.316-24.183-79.247z" fill="#5bc0be" data-original="#000000" style="" class=""/><path d="m366.178 192.57a239.671 239.671 0 0 1 68.683-130.434l9.118-8.9a86.547 86.547 0 0 0 -9.568-7.122c-.989-.633-1.991-1.238-3-1.827l-12.303 12.013a222.3 222.3 0 0 0 -64.1 121.725 239.189 239.189 0 0 1 -63.257 124.925q1.131 9.826 1.457 19.543a223.059 223.059 0 0 0 72.97-129.923z" fill="#5bc0be" data-original="#000000" style="" class=""/></g></g></svg>
