<?xml version="1.0" encoding="iso-8859-1"?>
<!-- Generator: Adobe Illustrator 19.0.0, SVG Export Plug-In . SVG Version: 6.00 Build 0)  -->
<svg version="1.1" id="Capa_1" xmlns="http://www.w3.org/2000/svg" xmlns:xlink="http://www.w3.org/1999/xlink" x="0px" y="0px"
	 viewBox="0 0 512 512" style="enable-background:new 0 0 512 512;" xml:space="preserve">
<polygon style="fill:#C40041;" points="369.77,12.318 348.455,0 291.48,119.106 312.795,131.4 312.795,173.667 334.109,185.965 
	405.43,144.788 405.43,77.917 426.744,65.611 "/>
<polygon style="fill:#F43834;" points="369.77,12.318 312.795,131.4 334.109,119.094 334.109,185.965 405.43,144.788 405.43,77.917 
	426.744,65.611 "/>
<polygon style="fill:#FF5331;" points="369.77,12.318 348.455,0 291.48,119.105 312.795,131.4 "/>
<path style="fill:#007A6E;" d="M299.948,243.714c-2.694-2.175-5.816-4.004-9.336-5.511l-29.643-17.497
	c-0.245-0.147-0.49-0.294-0.741-0.437L260,220.135h-0.024c-19.943-11.179-45.31-6.259-66.832-4.533
	c8.161-35.899,68.524-46.862,98.532-46.197l22.372-84.356L279.27,64.947c-13.703,0.041-27.387,1.964-40.61,5.54V70.17
	l-34.777-20.103l-38.916,22.468v34.341c-46.257,33.109-79.711,81.165-79.711,139.519l0,0l0,0c0,21.594,2.293,47.606,23.244,59.551
	l-0.001,0.004l34.002,19.649v-0.002c19.703,11.796,44.061,6.482,65.613,5.397c-2.579,13.438-13.492,22.756-24.484,29.88
	c-28.086,18.203-64.896,25.511-97.998,22.168l0,0v83.221l34.777,20.103c14.525,0.01,29.379-2.302,44.558-6.919v12.451L199.744,512
	l38.916-22.468v-48.378c32.627-24.165,58.64-56.994,70.813-96.053C318.204,317.09,326.816,265.41,299.948,243.714
	C297.253,241.539,311.351,252.922,299.948,243.714z"/>
<path style="fill:#00C169;" d="M314.048,85.05L314.048,85.05L314.048,85.05z"/>
<path style="fill:#00D16D;" d="M238.66,104.009c24.939-12.558,50.069-18.881,75.387-18.96L279.27,64.947
	c-13.591,0.042-27.128,1.897-40.61,5.539V104.009L238.66,104.009z"/>
<path style="fill:#00C169;" d="M202.582,343.983L202.582,343.983L202.582,343.983z"/>
<g>
	<path style="fill:#00D16D;" d="M237.384,364.081l-34.787-20.085c0,0-0.011-0.011-0.014-0.014
		c-27.749,32.35-79.698,42.82-116.951,39.058l34.777,20.103c14.538,1.468,32.629,1.908,49.675-1.334
		C187.128,398.573,222.507,385.327,237.384,364.081z"/>
	<polygon style="fill:#00D16D;" points="199.744,92.638 164.967,72.535 203.883,50.066 238.66,70.169 	"/>
</g>
<path style="fill:#009F5E;" d="M199.744,465.126c-27.447,14.178-53.893,21.257-79.335,21.239v-83.221
	c30.93,3.124,65.277-3.096,92.307-18.702c13.121-7.575,27.831-18.151,30.367-34.256c3.001-19.06-12.344-19.672-27.164-19.48
	c-30.167,0.391-72.816,11.643-89.212-22.816c-13.65-28.686-7.261-70.052,3.997-98.337c13.58-34.12,39.526-61.449,69.04-82.574
	V92.638L238.66,70.17v33.84c24.939-12.558,50.069-18.881,75.387-18.96l-22.372,84.356c-26.197-0.581-49.82,5.201-70.876,17.358
	c-11.829,6.829-37.384,26.675-25.296,43.654c8.067,11.332,37.021,4.993,48.044,3.622c19.188-2.017,44.344-2.713,59.132,12.14
	c15.241,15.308,15.431,41.554,13.902,61.551c-4.149,54.27-34.801,101.485-77.922,133.422v48.378L199.744,512V465.126z"/>
<g>
</g>
<g>
</g>
<g>
</g>
<g>
</g>
<g>
</g>
<g>
</g>
<g>
</g>
<g>
</g>
<g>
</g>
<g>
</g>
<g>
</g>
<g>
</g>
<g>
</g>
<g>
</g>
<g>
</g>
</svg>
