<?xml version="1.0" encoding="iso-8859-1"?>
<!-- Generator: Adobe Illustrator 19.0.0, SVG Export Plug-In . SVG Version: 6.00 Build 0)  -->
<svg version="1.1" id="Capa_1" xmlns="http://www.w3.org/2000/svg" xmlns:xlink="http://www.w3.org/1999/xlink" x="0px" y="0px"
	 viewBox="0 0 512 512" style="enable-background:new 0 0 512 512;" xml:space="preserve">
<polygon style="fill:#C40041;" points="456.409,17.044 45.206,254.452 45.206,505.915 55.709,512 466.794,274.659 466.794,23.056 
	"/>
<path style="fill:#2E527C;" d="M141.062,231.044c-4.372,0-7.658-5.423-5.407-9.346L260.967,3.12c2.623-3.498,5.768-4.055,9.433-1.67
	l102.47,86.261c6.172,5.197-1.865,14.744-8.038,9.548L268.078,15.81L146.481,227.906
	C145.329,229.917,143.225,231.044,141.062,231.044z"/>
<polygon style="fill:#F43834;" points="55.708,512 55.708,260.397 466.794,23.056 466.794,274.659 "/>
<polygon style="fill:#FFFFFF;" points="77.518,272.373 444.884,60.909 444.884,261.875 77.518,473.974 "/>
<g>
	<path style="fill:#F43834;" d="M189.245,316.253c0,17.595-3.271,33.007-9.816,46.237c-6.544,13.23-15.922,23.371-28.136,30.422
		c-12.215,7.052-21.594,7.742-28.138,2.068c-6.543-5.674-9.815-17.356-9.815-35.048c0-17.691,3.28-33.096,9.843-46.216
		c6.561-13.118,15.967-23.215,28.218-30.288c12.251-7.072,21.621-7.78,28.111-2.124C186,286.961,189.245,298.611,189.245,316.253z
		 M131.063,349.845c0,11.876,1.69,19.843,5.072,23.901c3.38,4.059,8.433,4.146,15.159,0.263c13.487-7.786,20.23-23.628,20.23-47.524
		c0-23.944-6.707-32.044-20.122-24.299c-6.726,3.883-11.796,9.828-15.213,17.835C132.77,328.029,131.063,337.97,131.063,349.845z"/>
	<path style="fill:#F43834;" d="M260.842,255.068c0,11.44-2.682,21.737-8.043,30.89c-5.363,9.155-12.988,16.587-22.875,22.295
		l-7.253,4.187v37.807l-16.904,9.759V253.712l25.465-14.702c9.669-5.583,17.023-7.052,22.057-4.41
		C258.324,237.243,260.842,244.066,260.842,255.068z M222.671,293.974l5.562-3.211c5.199-3.001,9.089-6.616,11.67-10.845
		c2.581-4.228,3.872-8.961,3.872-14.195c0-5.283-1.082-8.56-3.245-9.832c-2.162-1.271-5.553-0.575-10.169,2.091l-7.689,4.439
		L222.671,293.974L222.671,293.974z"/>
	<path style="fill:#F43834;" d="M321.806,293.012l-45.913,26.508V213.225l45.913-26.508v18.467l-29.009,16.749v23.339l26.992-15.584
		v18.467l-26.992,15.584v27.41l29.009-16.749V293.012z"/>
	<path style="fill:#F43834;" d="M409.162,242.577l-21.485,12.404l-34.681-60.39l-0.49,0.283c0.69,13.804,1.036,23.734,1.036,29.793
		v50.021l-15.104,8.721V177.115l21.32-12.309l34.627,59.621l0.381-0.22c-0.545-13.5-0.818-23.109-0.818-28.828v-50.312l15.214-8.784
		L409.162,242.577L409.162,242.577z"/>
</g>
<polygon style="fill:#F18D83;" points="466.794,23.056 456.409,17.044 45.206,254.452 55.708,260.397 "/>
<path style="fill:#C40041;" d="M284.439,7.699l0.007-0.015l-4.729-2.736l-0.008,0.018c-2.223-1.333-5.134-1.253-8.333,0.594
	c-6.964,4.021-12.61,14.809-12.61,24.095c0,5.495,1.986,9.212,5.042,10.515l-0.008,0.019l3.728,2.171
	c0.267,0.182,0.543,0.346,0.832,0.484l0.123,0.071l0.008-0.017c2.13,0.961,4.791,0.742,7.689-0.931
	c6.965-4.021,12.611-14.809,12.611-24.095C288.788,12.803,287.099,9.245,284.439,7.699z"/>
<path style="fill:#F43834;" d="M288.788,17.872c0,9.286-5.646,20.074-12.611,24.095s-12.611-0.247-12.611-9.533
	s5.646-20.074,12.611-24.095C283.142,4.317,288.788,8.585,288.788,17.872z"/>
<g>
</g>
<g>
</g>
<g>
</g>
<g>
</g>
<g>
</g>
<g>
</g>
<g>
</g>
<g>
</g>
<g>
</g>
<g>
</g>
<g>
</g>
<g>
</g>
<g>
</g>
<g>
</g>
<g>
</g>
</svg>
