<?xml version="1.0" encoding="iso-8859-1"?>
<!-- Generator: Adobe Illustrator 19.0.0, SVG Export Plug-In . SVG Version: 6.00 Build 0)  -->
<svg version="1.1" id="Capa_1" xmlns="http://www.w3.org/2000/svg" xmlns:xlink="http://www.w3.org/1999/xlink" x="0px" y="0px"
	 viewBox="0 0 512 512" style="enable-background:new 0 0 512 512;" xml:space="preserve">
<path style="fill:#AE392E;" d="M132.457,165.335l-3.258-5.632l0.541-0.312L0,234.295v7.41v0.1v11.892
	c0,15.953,17.235,25.954,31.086,18.038c13.247-7.571,21.423-21.66,21.423-36.918V211.49L132.457,165.335z"/>
<path style="fill:#C40041;" d="M0,241.705v11.993c0,15.953,17.235,25.954,31.086,18.038l0,0
	c13.247-7.571,21.423-21.66,21.423-36.918v-24.57L0,241.705z"/>
<polygon style="fill:#E6C190;" points="383.619,20.322 482.204,191.075 285.035,77.24 "/>
<polygon style="fill:#FFD2A6;" points="482.204,191.075 235.892,333.284 137.158,162.616 38.574,219.534 38.574,390.287 
	235.743,504.123 235.743,504.123 235.743,504.123 235.743,504.123 235.743,504.123 482.204,361.829 "/>
<polygon style="fill:#FCBC90;" points="235.743,333.37 235.892,333.284 137.158,161.814 38.574,218.731 38.574,390.287 
	235.743,504.123 "/>
<path style="fill:#E6C190;" d="M235.743,504.123L235.743,504.123L235.743,504.123z"/>
<polygon style="fill:#FFFFFF;" points="61.077,263.46 211.097,349.945 211.097,432.976 61.077,346.362 "/>
<polygon style="fill:#33AEFF;" points="67.565,274.049 204.44,353.136 204.44,421.625 67.565,342.772 "/>
<g style="opacity:0.2;">
	<polygon style="fill:#FFFFFF;" points="184.144,341.409 133.979,312.423 165.05,398.932 204.44,421.625 204.44,397.92 	"/>
</g>
<g style="opacity:0.2;">
	<polygon style="fill:#FFFFFF;" points="140.861,384.998 109.772,298.437 67.565,274.049 67.565,307.412 83.578,351.996 	"/>
</g>
<g>
	<polygon style="fill:#FFFFFF;" points="316.475,457.512 316.475,343.665 259.717,376.434 259.717,490.281 	"/>
	<polygon style="fill:#FFFFFF;" points="334.327,409.472 475.034,328.235 475.034,252.121 334.327,333.242 	"/>
</g>
<polygon style="fill:#33AEFF;" points="309.8,453.697 309.8,355.158 266.374,380.231 266.374,478.77 "/>
<g style="opacity:0.2;">
	<polygon style="fill:#FFFFFF;" points="309.8,422.553 309.8,363.88 269.103,477.194 295.688,461.845 	"/>
</g>
<g style="opacity:0.2;">
	<polygon style="fill:#FFFFFF;" points="266.374,408.676 266.374,460.018 302.526,359.358 279.263,372.789 	"/>
</g>
<polygon style="fill:#33AEFF;" points="340.441,337.468 340.441,398.302 468.378,324.438 468.378,263.604 "/>
<g style="opacity:0.1;">
	<polygon style="fill:#FFFFFF;" points="468.378,299.725 468.378,263.603 427.429,287.245 399.864,363.995 457.18,330.903 	"/>
</g>
<g style="opacity:0.2;">
	<polygon style="fill:#FFFFFF;" points="353.073,330.175 340.441,365.345 340.441,398.302 375.662,377.967 403.227,301.218 	"/>
</g>
<g>
	<path style="fill:#E3E3E3;" d="M407.649,290.196c0,15.953,17.284,25.954,31.174,18.038c13.285-7.571,21.484-21.66,21.484-36.918
		v-24.57l-52.659,31.457L407.649,290.196L407.649,290.196z"/>
	<path style="fill:#E3E3E3;" d="M511.853,215.783L392.168,7.877l-262.97,151.825l122.576,211.861l52.509-31.451v11.956
		c0,15.953,16.935,25.954,30.545,18.038c13.017-7.571,21.05-21.66,21.05-36.918v-23.981L511.853,215.783z"/>
</g>
<g>
	<path style="fill:#D1D1D1;" d="M407.649,290.196c0,15.953,17.284,25.954,31.174,18.038c13.285-7.571,21.484-21.66,21.484-36.918
		v-24.57l-52.659,31.457L407.649,290.196L407.649,290.196z"/>
	<path style="fill:#D1D1D1;" d="M304.283,340.113v11.956c0,15.953,16.935,25.954,30.545,18.038
		c13.017-7.571,21.05-21.66,21.05-36.918v-23.981L304.283,340.113z"/>
</g>
<path style="fill:#F43834;" d="M407.793,278.11l-0.143-0.248V277.5l-0.154,0.094L286.98,68.607l-52.594,30.365l121.598,209.962
	l-0.037,0.023v11.993c0,15.953,16.97,25.954,30.608,18.038l0,0c13.044-7.571,21.094-21.66,21.094-36.918v-23.874L407.793,278.11z"/>
<path style="fill:#C40041;" d="M356.073,309.087l-0.089-0.153l-0.037,0.023v11.993c0,15.953,16.97,25.954,30.608,18.038l0,0
	c13.044-7.571,21.094-21.66,21.094-36.918v-23.874L356.073,309.087z"/>
<polygon style="fill:#AE392E;" points="407.649,277.861 407.649,277.5 407.496,277.594 "/>
<path style="fill:#F43834;" d="M511.853,215.783L392.168,7.877l-53.173,30.699l121.161,208.17l0.152-0.091v11.412
	c0,15.953,16.967,25.954,30.602,18.038c13.041-7.571,21.09-21.66,21.09-36.918L511.853,215.783z"/>
<path style="fill:#C40041;" d="M511.853,215.783l-51.545,30.873v11.412c0,15.953,16.967,25.954,30.602,18.038
	c13.041-7.571,21.09-21.66,21.09-36.918L511.853,215.783z"/>
<polygon style="fill:#FFFFFF;" points="309.8,404.448 264.091,430.765 264.091,442.383 309.8,415.993 "/>
<path style="fill:#F43834;" d="M304.261,340.069L181.792,129.337l-52.053,30.053l0,0L0,234.295v7.51l132.457-76.47l119.306,206.229
	l0.011-0.007v11.948c0,15.953,17.235,25.954,31.086,18.038c13.248-7.571,21.423-21.66,21.423-36.918v-24.57L304.261,340.069z"/>
<polygon style="fill:#C84135;" points="129.198,159.702 129.739,159.39 129.739,159.39 0,234.295 0,241.805 132.457,165.335 "/>
<path style="fill:#C40041;" d="M251.775,371.485v11.992c0,15.953,17.235,25.954,31.086,18.038l0,0
	c13.248-7.571,21.423-21.66,21.423-36.918v-24.57L251.775,371.485z"/>
<g>
</g>
<g>
</g>
<g>
</g>
<g>
</g>
<g>
</g>
<g>
</g>
<g>
</g>
<g>
</g>
<g>
</g>
<g>
</g>
<g>
</g>
<g>
</g>
<g>
</g>
<g>
</g>
<g>
</g>
</svg>
