<?xml version="1.0" encoding="iso-8859-1"?>
<!-- Generator: Adobe Illustrator 19.0.0, SVG Export Plug-In . SVG Version: 6.00 Build 0)  -->
<svg version="1.1" id="Capa_1" xmlns="http://www.w3.org/2000/svg" xmlns:xlink="http://www.w3.org/1999/xlink" x="0px" y="0px"
	 viewBox="0 0 512 512" style="enable-background:new 0 0 512 512;" xml:space="preserve">
<polygon style="fill:#9FACBC;" points="349.546,0 201.904,85.241 201.904,133.896 227.415,148.638 276.145,120.503 276.145,180.652 
	296.627,180.652 296.627,180.652 317.108,180.652 317.108,96.853 375.02,63.418 375.02,14.708 "/>
<polygon style="fill:#C8CED6;" points="227.415,99.961 201.904,85.241 349.546,0 375.02,14.708 "/>
<g>
	<polygon style="fill:#8392A5;" points="375.02,14.708 227.415,99.961 227.415,148.638 296.627,108.678 296.627,180.652 
		317.108,180.652 317.108,96.853 375.02,63.418 	"/>
	<path style="fill:#8392A5;" d="M339.333,141.004l-26.39,15.24l-56.587-69.039L97.193,179.068l0,0v101.773L14.026,328.82v91.592
		L172.661,512l325.313-187.693v-91.711L339.333,141.004z M137.136,227.795l16.678,20.347l0,0L137.136,227.795z"/>
</g>
<polygon style="fill:#E8EDEF;" points="255.721,372.461 497.974,232.596 339.333,141.004 153.814,248.142 "/>
<polygon style="fill:#E3E3E3;" points="97.193,280.841 14.026,328.82 172.667,420.412 255.691,372.478 "/>
<polygon style="fill:#C8CED6;" points="97.193,179.068 256.356,87.206 414.911,280.649 255.775,372.526 "/>
<g>
	<polygon style="fill:#284363;" points="288.462,146.185 258.175,109.177 120.818,188.744 151.265,225.395 	"/>
	<polygon style="fill:#284363;" points="182.577,222.21 159.586,235.484 159.586,240.856 180.101,266.06 203.082,252.792 
		203.082,247.257 	"/>
	<polygon style="fill:#284363;" points="335.616,231.273 335.588,231.238 335.588,236.611 356.823,262.805 372.202,253.928 
		372.202,248.393 372.184,248.404 350.965,222.501 	"/>
	<polygon style="fill:#284363;" points="307.92,197.311 307.915,197.304 307.915,202.677 329.744,229.548 345.066,220.806 
		345.066,215.271 345.05,215.28 323.134,188.525 	"/>
	<polygon style="fill:#284363;" points="247.243,232.353 247.242,232.352 247.242,237.725 268.796,264.109 291.145,251.631 
		291.145,246.096 291.132,246.103 269.401,219.557 	"/>
	<path style="fill:#284363;" d="M354.613,269.182l-82.653,47.72l-0.001-0.002v5.373l14.839,18.315l82.627-47.643v-5.535v-0.042
		L354.613,269.182z"/>
	<path style="fill:#284363;" d="M278.766,339.709l-14.863-18.156l-22.956,13.254l-0.035-0.043v5.372l14.839,18.384l23.043-13.272
		v-5.535L278.766,339.709z"/>
	<polygon style="fill:#284363;" points="266.729,270.649 244.51,283.349 244.497,283.332 244.497,288.705 266.114,315.184 
		288.227,302.445 288.227,296.91 287.329,297.428 288.227,296.909 	"/>
	<path style="fill:#284363;" d="M230.518,280.651l-0.068,0.039l-21.477-26.236l-22.971,13.266l-0.018-0.022v5.372l21.554,26.384
		l22.98-13.268V280.651z"/>
	<polygon style="fill:#284363;" points="258.01,314.294 257.976,314.314 236.415,287.976 213.35,301.159 213.35,301.162 
		213.35,306.535 234.967,333.102 258.01,319.829 	"/>
	<polygon style="fill:#284363;" points="318.443,284.993 318.443,279.458 318.439,279.46 297.042,253.322 274.818,266.025 
		274.811,266.017 274.811,271.39 296.379,297.584 	"/>
	<polygon style="fill:#284363;" points="348.74,267.506 348.74,261.971 348.74,261.971 327.51,235.907 305.124,248.703 
		305.124,248.736 305.124,254.108 326.513,280.303 	"/>
	<polygon style="fill:#284363;" points="392.966,273.775 378.098,255.624 362.672,264.529 362.665,264.52 362.665,269.892 
		377.484,288.247 392.863,279.37 392.863,273.835 	"/>
	<polygon style="fill:#284363;" points="217.074,255.274 238.628,281.658 260.832,268.98 260.832,263.446 239.187,237.005 
		217.028,249.802 217.074,249.902 	"/>
	<polygon style="fill:#284363;" points="277.456,220.301 299.285,246.988 321.634,234.178 321.634,228.643 321.607,228.659 
		299.864,201.964 277.456,214.905 277.456,214.928 	"/>
	<polygon style="fill:#284363;" points="233.296,235.401 233.296,229.866 233.296,229.809 212.794,204.765 190.656,217.545 
		190.633,217.517 190.633,222.889 211.148,248.093 	"/>
	<polygon style="fill:#284363;" points="263.51,217.846 263.51,212.311 263.482,212.327 243.01,187.319 220.933,200.065 
		220.848,199.961 220.848,205.334 241.363,230.538 	"/>
	<polygon style="fill:#284363;" points="293.993,200.233 293.993,194.698 293.961,194.717 273.567,169.677 251.078,182.661 
		251.066,182.646 251.066,188.019 271.581,213.223 	"/>
	<path style="fill:#284363;" d="M317.24,186.861v-5.535l-0.002,0.001L296.737,156.3l-15.119,8.729v0.012v5.372l20.516,25.204
		L317.24,186.861z"/>
</g>
<polygon style="fill:#00D16D;" points="372.202,248.426 350.965,222.501 335.588,231.29 356.792,257.323 "/>
<polygon style="fill:#8392A5;" points="277.456,214.905 299.227,241.499 321.634,228.692 299.864,201.964 "/>
<polygon style="fill:#F43834;" points="307.915,197.314 329.711,224.074 345.066,215.298 323.134,188.525 "/>
<g>
	<polygon style="fill:#8392A5;" points="241.351,225.157 263.509,212.36 243.01,187.319 220.85,200.113 	"/>
	<polygon style="fill:#8392A5;" points="251.066,182.668 271.564,207.708 293.993,194.755 273.567,169.677 	"/>
	<polygon style="fill:#8392A5;" points="348.74,261.972 327.51,235.907 305.124,248.703 326.499,274.814 	"/>
	<polygon style="fill:#8392A5;" points="217.029,249.802 238.6,276.153 260.832,263.445 239.187,237.005 	"/>
	<polygon style="fill:#8392A5;" points="291.145,246.119 269.4,219.557 247.242,232.353 268.914,258.826 	"/>
	<polygon style="fill:#8392A5;" points="318.443,279.464 297.042,253.322 274.811,266.029 296.283,292.259 	"/>
</g>
<g>
	<polygon style="fill:#FFD800;" points="203.082,247.257 182.577,222.21 159.586,235.484 180.092,260.534 	"/>
	<polygon style="fill:#FFD800;" points="302.044,190.106 317.24,181.329 296.737,156.3 281.619,165.028 	"/>
</g>
<polygon style="fill:#8392A5;" points="369.424,287.367 354.613,269.182 271.959,316.902 286.822,335.058 "/>
<g>
	<polygon style="fill:#33AEFF;" points="378.098,255.624 362.665,264.534 377.476,282.719 392.966,273.775 	"/>
	<polygon style="fill:#33AEFF;" points="263.903,321.553 240.912,334.827 255.775,352.983 278.766,339.709 	"/>
</g>
<polygon style="fill:#F43834;" points="207.453,293.956 230.518,280.773 208.973,254.454 185.984,267.73 "/>
<g>
	<polygon style="fill:#8392A5;" points="211.137,242.605 233.296,229.809 212.794,204.765 190.633,217.559 	"/>
	<polygon style="fill:#8392A5;" points="288.227,296.909 266.729,270.649 244.497,283.356 266.066,309.704 	"/>
</g>
<polygon style="fill:#00D16D;" points="258.01,314.355 236.415,287.976 213.35,301.159 235.019,327.629 "/>
<polygon style="fill:#C8CED6;" points="172.661,420.412 497.974,232.596 497.974,324.307 172.661,512 "/>
<path style="fill:#8392A5;" d="M460.402,281.314c-1.357-0.782-3.031-0.782-4.39,0.003L209.767,423.796
	c-1.356,0.784-2.191,2.232-2.191,3.798v64.261l8.778-5.064v-56.666l237.468-137.4v57.057l8.778-5.064v-59.602
	C462.599,283.547,461.762,282.097,460.402,281.314z"/>
<g>
</g>
<g>
</g>
<g>
</g>
<g>
</g>
<g>
</g>
<g>
</g>
<g>
</g>
<g>
</g>
<g>
</g>
<g>
</g>
<g>
</g>
<g>
</g>
<g>
</g>
<g>
</g>
<g>
</g>
</svg>
