<?xml version="1.0" encoding="iso-8859-1"?>
<!-- Generator: Adobe Illustrator 19.0.0, SVG Export Plug-In . SVG Version: 6.00 Build 0)  -->
<svg version="1.1" id="Capa_1" xmlns="http://www.w3.org/2000/svg" xmlns:xlink="http://www.w3.org/1999/xlink" x="0px" y="0px"
	 viewBox="0 0 511.999 511.999" style="enable-background:new 0 0 511.999 511.999;" xml:space="preserve">
<path style="fill:#8B5129;" d="M466.11,196.849l0.817-0.35l-15.753-9.539c-0.281-0.178-0.566-0.35-0.854-0.517l-0.16-0.097
	l0.001,0.005c-3.673-2.092-7.919-3.292-12.448-3.292h-92.386V20.835c-0.003-5.358-2.983-9.679-7.103-11.917l-12.433-7.079
	c-0.005-0.002-0.009-0.005-0.014-0.007l-0.003-0.002c-3.957-2.278-9.041-2.601-13.559,0.009L42.79,157.557
	c-4.824,2.786-7.57,7.372-8.244,12.208l-0.169,2.33c0,0.002,0,0.003,0,0.004v309.106c0,17.007,13.787,30.794,30.794,30.794h385.345
	c14.97,0,27.106-12.136,27.106-27.106V219.014C477.623,209.85,473.071,201.755,466.11,196.849z"/>
<path style="fill:#D88A55;" d="M404.08,96.77l0.007-0.002l-6.671-3.852v0.004c-8.582-5.606-20.062-6.706-30.203-0.843L320,119.372
	l-4.463,94.627l74.312-42.112c17.874-10.32,28.885-29.391,28.885-50.031l0,0C418.734,110.658,412.611,101.587,404.08,96.77z"/>
<path style="fill:#FCBF90;" d="M328.287,207.43v-83.222L375.5,96.912c19.209-11.105,43.234,2.757,43.234,24.944l0,0
	c0,20.639-11.011,39.711-28.885,50.031L328.287,207.43z"/>
<g>
	<path style="fill:#BA6024;" d="M52.445,178.419c9.095,5.301,30.742,4.639,30.742,4.639h262.139V20.835
		c-0.005-10.446-11.315-16.971-20.361-11.747L55.54,164.807c-1.174,0.678-2.221,1.467-3.149,2.336
		C51.816,167.741,46.706,173.354,52.445,178.419z"/>
	<path style="fill:#BA6024;" d="M47.127,483.276v5.178c0,3.754,0.674,7.349,1.903,10.676l4.97-5.154
		C51.019,490.955,48.661,487.319,47.127,483.276z"/>
</g>
<path style="fill:#284363;" d="M360.76,150.038c0-13.722,8.343-29.663,18.635-35.605c10.292-5.942,18.635,0.365,18.635,14.087
	s-8.343,29.663-18.635,35.605C369.103,170.067,360.76,163.76,360.76,150.038z"/>
<path style="fill:#9FACBC;" d="M367.124,146.364c0-9.036,5.494-19.533,12.271-23.445c6.777-3.913,12.271,0.241,12.271,9.276
	c0,9.036-5.494,19.533-12.271,23.445C372.618,159.553,367.124,155.399,367.124,146.364z"/>
<g>
	<g>
		<polygon style="fill:#00AC65;" points="311.972,304.046 47.406,457.476 47.127,190.699 311.693,37.269 		"/>
	</g>
</g>
<g>
	<g>
		<polygon style="fill:#00AC65;" points="311.972,304.046 311.693,37.269 47.127,190.699 47.151,213.015 296.08,68.928 
			296.312,290.502 47.383,434.59 47.406,457.475 		"/>
		<polygon style="fill:#FFE6C6;" points="296.08,68.928 47.151,213.015 47.173,234.041 276.534,101.289 276.722,280.808 
			47.361,413.559 47.383,434.59 296.312,290.502 		"/>
	</g>
</g>
<g>
	<g>
		<path style="fill:#FFE6C6;" d="M296.11,97.357c0.016,15.701-9.522,33.962-21.305,40.787s-21.348-0.371-21.365-16.072
			c-0.017-15.701,9.522-33.962,21.305-40.787C286.528,74.46,296.093,81.656,296.11,97.357z"/>
	</g>
</g>
<g>
	<g>
		<path style="fill:#FFE6C6;" d="M141.599,269.181c0.035,33.106-20.077,71.609-44.922,85.999
			c-24.844,14.39-45.013-0.782-45.047-33.888c-0.035-33.106,20.077-71.609,44.922-85.999
			C121.396,220.902,141.565,236.075,141.599,269.181z"/>
	</g>
</g>
<g>
	<g>
		<path style="fill:#FFE6C6;" d="M244.533,209.638c0.008,8.115-4.921,17.552-11.011,21.079s-11.033-0.192-11.042-8.306
			c-0.008-8.115,4.921-17.552,11.011-21.079C239.581,197.805,244.525,201.524,244.533,209.638z"/>
	</g>
</g>
<g>
	<g>
		<path style="fill:#FFE6C6;" d="M296.282,262.072c0.016,15.701-9.522,33.962-21.305,40.787
			c-11.783,6.825-21.348-0.371-21.365-16.072s9.522-33.962,21.305-40.787C286.7,239.176,296.266,246.371,296.282,262.072z"/>
	</g>
</g>
<polygon style="fill:#BA6024;" points="81.993,204.653 325.025,61.803 325.025,219.69 81.242,219.69 "/>
<path style="fill:#33AEFF;" d="M309.212,105.536l-5.279-3.118c-4.626-2.733-10.365-2.762-15.019-0.076L70.93,228.145
	c-9.624,5.556-15.552,15.824-15.552,26.936v135.995c0,4.46,2.384,8.579,6.25,10.801l6.648,3.821
	c0.113,0.067,0.227,0.132,0.342,0.197l0.18,0.104l0.004-0.005c3.576,1.91,8.069,2.118,12.081-0.198l219.102-126.498
	c9.624-5.556,15.552-15.824,15.552-26.936v-135.99C315.537,111.536,312.895,107.619,309.212,105.536z"/>
<path style="fill:#4F78E0;" d="M62.208,395.013V259.024c0-11.112,5.928-21.38,15.552-26.936l219.101-126.499
	c4.113-2.375,8.734-2.099,12.351-0.054l-5.279-3.118c-4.626-2.733-10.365-2.762-15.019-0.076L70.93,228.145
	c-9.624,5.556-15.552,15.824-15.552,26.936v135.995c0,4.46,2.384,8.579,6.25,10.801l6.648,3.821
	C64.728,403.581,62.208,399.735,62.208,395.013z"/>
<path style="fill:#2683BF;" d="M68.617,405.895l0.181,0.104l0.004-0.005C68.74,405.961,68.678,405.929,68.617,405.895z"/>
<polygon style="fill:#424242;" points="62.208,354.218 315.464,208 315.464,245.265 62.208,391.61 "/>
<polygon style="fill:#FFD800;" points="249.728,163.906 298.88,135.529 298.88,166.921 249.728,195.298 "/>
<g>
	<path style="fill:#DCA700;" d="M256.879,165.384l7.952-4.591c1.572-0.907,3.536,0.227,3.536,2.042v10.768l-3.419,2.052v1.691
		l30.776-17.586v3.209c0,1.046-0.558,2.012-1.463,2.535l-40.623,23.454v-3.173c0-1.026,0.538-1.978,1.417-2.507l7.414-4.466v-1.691
		l-5.314,3.001c-1.572,0.888-3.517-0.248-3.517-2.053v-7.07C253.636,168.683,254.872,166.542,256.879,165.384z"/>
	<path style="fill:#DCA700;" d="M294.26,158.653c0.906-0.523,1.463-1.489,1.463-2.535v-4.773l-22.736,13.127
		c-0.905,0.523-1.464,1.489-1.464,2.535v4.773L294.26,158.653z"/>
	<path style="fill:#DCA700;" d="M272.987,156.092c-0.905,0.523-1.464,1.489-1.464,2.535v4.773l12.516-7.23
		c0.905-0.523,1.463-1.489,1.463-2.535v-4.769L272.987,156.092z"/>
	<path style="fill:#DCA700;" d="M288.263,147.194c-0.917,0.52-1.484,1.492-1.484,2.546v4.851l7.48-4.318
		c0.906-0.523,1.463-1.489,1.463-2.535v-4.773L288.263,147.194z"/>
</g>
<g>
	<polygon style="fill:#FFFFFF;" points="79.047,262.123 79.047,282.762 145.263,244.507 145.263,223.893 	"/>
	<polygon style="fill:#FFFFFF;" points="151.877,219.856 151.877,240.713 241.612,188.905 241.612,168.267 	"/>
</g>
<g>
	<polygon style="fill:#2683BF;" points="79.047,298.347 241.612,204.49 241.612,213.722 79.047,307.579 	"/>
	<polygon style="fill:#2683BF;" points="79.047,315.482 241.612,221.625 241.612,230.858 79.047,324.714 	"/>
</g>
<g style="opacity:0.2;">
	<path style="fill:#FFFFFF;" d="M103.529,217.209L62.208,332.261v62.752c0,9.584,10.375,15.574,18.675,10.782l36.584-21.122
		l79.527-221.427L103.529,217.209z"/>
</g>
<g style="opacity:0.2;">
	<path style="fill:#FFFFFF;" d="M315.537,168.451v-52.08c0-9.584-10.375-15.574-18.676-10.782l-54.766,31.619l-79.527,221.427
		l106.811-61.667L315.537,168.451z"/>
</g>
<g>
	<path style="fill:#8B5129;" d="M466.927,196.498l-16.768-10.153l0.001,0.005c-3.673-2.092-7.919-3.292-12.448-3.292H83.187
		c0,0-21.646,0.662-30.742-4.639c-5.583-3.254-7.329-9.515-7.318-15.172v309.108c0,17.007,13.787,30.794,30.794,30.794h361.791
		c13.917,0,25.2-11.283,25.2-25.2V208.258c0-3.279-0.633-6.407-1.772-9.28L466.927,196.498z"/>
	<path style="fill:#8B5129;" d="M40.987,164.764c0.001-0.78,0.068-1.558,0.176-2.332h-0.176V164.764z"/>
</g>
<polygon style="fill:#BA6024;" points="325.025,183.058 325.025,140.746 253.04,183.058 "/>
<path style="fill:#D88A55;" d="M477.623,217.108c0-13.918-11.282-25.2-25.2-25.2H72.437c0,0-20.61,0.064-29.705-5.237
	c-5.583-3.254-8.366-8.917-8.355-14.574v309.108c0,17.007,13.787,30.794,30.794,30.794h387.251c13.918,0,25.2-11.282,25.2-25.2
	L477.623,217.108L477.623,217.108z"/>
<g>
	<path style="fill:#BA6024;" d="M46.67,223.386c-0.303,0-0.61-0.077-0.893-0.238c-3.917-2.246-6.124-4.195-6.216-4.277
		c-0.742-0.66-0.808-1.795-0.148-2.537c0.66-0.741,1.795-0.808,2.536-0.149c0.056,0.048,2.081,1.818,5.616,3.845
		c0.861,0.494,1.159,1.592,0.665,2.453C47.899,223.062,47.293,223.386,46.67,223.386z"/>
	<path style="fill:#BA6024;" d="M70.8,229.942c-3.773,0-7.574-0.45-11.296-1.337c-0.965-0.23-1.561-1.199-1.331-2.165
		c0.23-0.965,1.202-1.56,2.165-1.331c3.449,0.823,6.97,1.24,10.462,1.24l3.323-0.006c0.001,0,0.001,0,0.001,0
		c0.992,0,1.796,0.803,1.798,1.794c0.001,0.992-0.802,1.798-1.794,1.799L70.8,229.942z M417.624,229.938L417.624,229.938
		l-14.32-0.003c-0.992,0-1.797-0.805-1.796-1.797c0-0.992,0.805-1.796,1.797-1.796h0.001l14.319,0.002
		c0.993,0,1.797,0.805,1.797,1.797C419.421,229.134,418.617,229.938,417.624,229.938z M388.989,229.933L388.989,229.933
		l-14.316-0.003c-0.992,0-1.797-0.805-1.796-1.797c0-0.992,0.805-1.796,1.797-1.796l0,0l14.315,0.002
		c0.993,0,1.797,0.805,1.797,1.797C390.786,229.129,389.981,229.933,388.989,229.933z M360.359,229.928L360.359,229.928
		l-14.315-0.002c-0.993,0-1.797-0.805-1.797-1.797c0-0.993,0.805-1.797,1.797-1.797l0,0l14.315,0.002
		c0.992,0,1.797,0.805,1.796,1.797C362.156,229.124,361.352,229.928,360.359,229.928z M88.438,229.925
		c-0.992,0-1.796-0.804-1.797-1.796c0-0.993,0.804-1.797,1.796-1.798l14.309-0.005c0.993,0,1.797,0.804,1.797,1.796
		c0.001,0.993-0.804,1.797-1.796,1.797L88.438,229.925L88.438,229.925z M331.73,229.925L331.73,229.925l-14.314-0.002
		c-0.993,0-1.797-0.805-1.797-1.797c0-0.993,0.805-1.797,1.797-1.797l0,0l14.315,0.002c0.992,0,1.797,0.805,1.796,1.797
		C333.527,229.121,332.722,229.925,331.73,229.925z M303.102,229.921L303.102,229.921l-14.314-0.001
		c-0.993,0-1.797-0.805-1.797-1.797c0-0.993,0.805-1.797,1.797-1.797l0,0l14.314,0.001c0.993,0,1.797,0.805,1.797,1.797
		C304.899,229.117,304.094,229.921,303.102,229.921z M274.476,229.918L274.476,229.918l-14.324-0.001
		c-0.993,0-1.797-0.805-1.797-1.797c0-0.993,0.805-1.797,1.797-1.797l0,0l14.324,0.001c0.993,0,1.797,0.805,1.797,1.797
		C276.272,229.114,275.468,229.918,274.476,229.918z M117.055,229.916c-0.993,0.001-1.797-0.804-1.797-1.796
		c-0.001-0.993,0.804-1.797,1.796-1.797l14.308-0.002c0.992,0,1.797,0.804,1.797,1.797c0,0.992-0.804,1.797-1.797,1.797
		L117.055,229.916z M245.838,229.915l-14.304-0.001c-0.993,0-1.797-0.805-1.797-1.797c0-0.993,0.805-1.797,1.797-1.797l0,0
		l14.304,0.001c0.992,0,1.797,0.805,1.797,1.797S246.83,229.915,245.838,229.915z M217.221,229.914L217.221,229.914l-14.313-0.001
		c-0.993,0-1.797-0.804-1.797-1.797s0.804-1.797,1.797-1.797l14.313,0.001c0.993,0,1.797,0.805,1.797,1.797
		C219.018,229.109,218.213,229.914,217.221,229.914z M145.669,229.914c-0.992,0-1.797-0.804-1.797-1.797
		c0-0.992,0.804-1.797,1.797-1.797l14.307-0.001c0.992,0,1.797,0.804,1.797,1.797c0,0.992-0.804,1.797-1.797,1.797L145.669,229.914z
		 M188.593,229.913h-14.312c-0.993,0-1.797-0.804-1.797-1.797s0.804-1.797,1.797-1.797h14.312c0.993,0,1.797,0.804,1.797,1.797
		C190.39,229.108,189.586,229.913,188.593,229.913z"/>
	<path style="fill:#BA6024;" d="M438.86,237.129c-0.993,0-1.797-0.804-1.797-1.797v-5.391l-5.387-0.001
		c-0.992,0-1.797-0.805-1.796-1.797c0-0.992,0.805-1.796,1.797-1.796l0,0l8.98,0.002v8.984
		C440.657,236.325,439.852,237.129,438.86,237.129z"/>
	<path style="fill:#BA6024;" d="M438.86,458.512c-0.993,0-1.797-0.804-1.797-1.797v-13.836c0-0.993,0.804-1.797,1.797-1.797
		s1.797,0.804,1.797,1.797v13.836C440.657,457.708,439.852,458.512,438.86,458.512z M438.86,430.839
		c-0.993,0-1.797-0.804-1.797-1.797v-13.837c0-0.993,0.804-1.797,1.797-1.797s1.797,0.804,1.797,1.797v13.837
		C440.657,430.035,439.852,430.839,438.86,430.839z M438.86,403.166c-0.993,0-1.797-0.805-1.797-1.797v-13.836
		c0-0.993,0.804-1.797,1.797-1.797s1.797,0.804,1.797,1.797v13.836C440.657,402.362,439.852,403.166,438.86,403.166z
		 M438.86,375.494c-0.993,0-1.797-0.804-1.797-1.797v-13.836c0-0.992,0.804-1.797,1.797-1.797s1.797,0.805,1.797,1.797v13.836
		C440.657,374.69,439.852,375.494,438.86,375.494z M438.86,347.821c-0.993,0-1.797-0.804-1.797-1.797v-13.836
		c0-0.992,0.804-1.797,1.797-1.797s1.797,0.805,1.797,1.797v13.836C440.657,347.017,439.852,347.821,438.86,347.821z
		 M438.86,320.148c-0.993,0-1.797-0.804-1.797-1.797v-13.836c0-0.992,0.804-1.797,1.797-1.797s1.797,0.805,1.797,1.797v13.836
		C440.657,319.344,439.852,320.148,438.86,320.148z M438.86,292.476c-0.993,0-1.797-0.804-1.797-1.797v-13.836
		c0-0.993,0.804-1.797,1.797-1.797s1.797,0.804,1.797,1.797v13.836C440.657,291.671,439.852,292.476,438.86,292.476z
		 M438.86,264.803c-0.993,0-1.797-0.804-1.797-1.797v-13.837c0-0.993,0.804-1.797,1.797-1.797s1.797,0.804,1.797,1.797v13.836
		C440.657,263.998,439.852,264.803,438.86,264.803z"/>
	<path style="fill:#BA6024;" d="M440.657,479.537h-8.985c-0.993,0-1.797-0.804-1.797-1.797s0.804-1.797,1.797-1.797h5.391v-5.391
		c0-0.993,0.804-1.797,1.797-1.797s1.797,0.804,1.797,1.797V479.537z"/>
	<path style="fill:#BA6024;" d="M417.413,479.537h-14.259c-0.992,0-1.797-0.804-1.797-1.797s0.805-1.797,1.797-1.797h14.259
		c0.993,0,1.797,0.804,1.797,1.797S418.405,479.537,417.413,479.537z M388.894,479.537h-14.259c-0.992,0-1.797-0.804-1.797-1.797
		s0.805-1.797,1.797-1.797h14.259c0.993,0,1.797,0.804,1.797,1.797S389.887,479.537,388.894,479.537z M360.375,479.537h-14.259
		c-0.992,0-1.797-0.804-1.797-1.797s0.805-1.797,1.797-1.797h14.259c0.993,0,1.797,0.804,1.797,1.797
		S361.368,479.537,360.375,479.537z M331.857,479.537h-14.259c-0.992,0-1.797-0.804-1.797-1.797s0.805-1.797,1.797-1.797h14.259
		c0.993,0,1.797,0.804,1.797,1.797S332.85,479.537,331.857,479.537z M303.338,479.537h-14.259c-0.993,0-1.797-0.804-1.797-1.797
		s0.804-1.797,1.797-1.797h14.259c0.993,0,1.797,0.804,1.797,1.797S304.331,479.537,303.338,479.537z M274.82,479.537h-14.26
		c-0.992,0-1.797-0.804-1.797-1.797s0.805-1.797,1.797-1.797h14.26c0.993,0,1.797,0.804,1.797,1.797S275.812,479.537,274.82,479.537
		z M246.301,479.537h-14.259c-0.993,0-1.797-0.804-1.797-1.797s0.804-1.797,1.797-1.797h14.259c0.993,0,1.797,0.804,1.797,1.797
		S247.293,479.537,246.301,479.537z M217.782,479.537h-14.259c-0.993,0-1.797-0.804-1.797-1.797s0.804-1.797,1.797-1.797h14.259
		c0.993,0,1.797,0.804,1.797,1.797S218.775,479.537,217.782,479.537z M189.264,479.537h-14.259c-0.993,0-1.797-0.804-1.797-1.797
		s0.804-1.797,1.797-1.797h14.259c0.992,0,1.797,0.804,1.797,1.797S190.256,479.537,189.264,479.537z M160.745,479.537h-14.259
		c-0.993,0-1.797-0.804-1.797-1.797s0.804-1.797,1.797-1.797h14.259c0.992,0,1.797,0.804,1.797,1.797
		S161.737,479.537,160.745,479.537z M132.227,479.537h-14.259c-0.993,0-1.797-0.804-1.797-1.797s0.804-1.797,1.797-1.797h14.259
		c0.992,0,1.797,0.804,1.797,1.797S133.219,479.537,132.227,479.537z M103.708,479.537H89.449c-0.993,0-1.797-0.804-1.797-1.797
		s0.804-1.797,1.797-1.797h14.259c0.992,0,1.797,0.804,1.797,1.797S104.7,479.537,103.708,479.537z M75.189,479.537l-10.367-0.047
		c-0.072-0.017-1.781-0.421-4.295-1.273c-0.94-0.319-1.443-1.339-1.125-2.279c0.319-0.94,1.339-1.444,2.279-1.124
		c1.87,0.634,3.274,1.005,3.769,1.13h9.739c0.993,0,1.797,0.804,1.797,1.797S76.182,479.537,75.189,479.537z"/>
	<path style="fill:#BA6024;" d="M48.392,471.973c-0.372,0-0.747-0.115-1.069-0.353c-2.296-1.703-4.134-3.555-5.463-5.503
		c-0.559-0.82-0.347-1.938,0.473-2.497c0.818-0.559,1.938-0.348,2.497,0.473c1.102,1.617,2.661,3.178,4.634,4.641
		c0.797,0.591,0.964,1.716,0.373,2.514C49.484,471.722,48.941,471.973,48.392,471.973z"/>
</g>
<circle style="fill:#C8CED6;" cx="403.74" cy="357.369" r="22.595"/>
<circle style="fill:#9FACBC;" cx="403.74" cy="357.369" r="12.521"/>
<g>
</g>
<g>
</g>
<g>
</g>
<g>
</g>
<g>
</g>
<g>
</g>
<g>
</g>
<g>
</g>
<g>
</g>
<g>
</g>
<g>
</g>
<g>
</g>
<g>
</g>
<g>
</g>
<g>
</g>
</svg>
