<?xml version="1.0" encoding="iso-8859-1"?>
<!-- Generator: Adobe Illustrator 19.0.0, SVG Export Plug-In . SVG Version: 6.00 Build 0)  -->
<svg version="1.1" id="Capa_1" xmlns="http://www.w3.org/2000/svg" xmlns:xlink="http://www.w3.org/1999/xlink" x="0px" y="0px"
	 viewBox="0 0 512 512" style="enable-background:new 0 0 512 512;" xml:space="preserve">
<polygon style="fill:#DCA700;" points="330.424,46.523 304.377,31.394 254.33,39.675 280.378,54.804 "/>
<polygon style="fill:#FF9F2C;" points="330.424,46.524 304.377,31.394 267.248,37.538 250.208,15.129 224.161,0 193.992,74.511 
	143.945,124.02 175.347,161.789 174.585,232.062 200.632,247.191 250.208,196.023 299.785,189.946 299.023,120.552 "/>
<polygon style="fill:#FFD800;" points="250.208,15.129 280.378,54.804 330.424,46.523 299.023,120.552 299.785,189.946 
	250.208,196.023 200.632,247.191 201.394,176.919 169.993,139.149 220.04,89.641 "/>
<g>
	<polygon style="fill:#CC8200;" points="250.208,15.129 224.161,0 193.992,74.511 220.04,89.641 	"/>
	<polygon style="fill:#CC8200;" points="201.394,176.919 175.347,161.789 143.945,124.02 169.993,139.149 	"/>
</g>
<polygon style="fill:#DCA700;" points="249.894,311.332 223.847,296.203 173.8,304.484 199.847,319.613 "/>
<polygon style="fill:#FF9F2C;" points="249.894,311.332 223.847,296.203 186.717,302.346 169.678,279.938 143.631,264.809 
	113.462,339.32 63.415,388.828 94.816,426.598 94.055,496.871 120.102,512 169.678,460.832 219.254,454.754 218.492,385.361 "/>
<polygon style="fill:#FFD800;" points="169.678,279.938 199.847,319.613 249.894,311.332 218.492,385.361 219.254,454.754 
	169.678,460.832 120.102,512 120.863,441.727 89.462,403.957 139.509,354.449 "/>
<g>
	<polygon style="fill:#CC8200;" points="169.678,279.938 143.631,264.809 113.462,339.32 139.509,354.449 	"/>
	<polygon style="fill:#CC8200;" points="120.863,441.727 94.816,426.598 63.415,388.828 89.462,403.957 	"/>
</g>
<polygon style="fill:#DCA700;" points="448.585,196.932 422.538,181.803 372.491,190.083 398.538,205.212 "/>
<polygon style="fill:#FF9F2C;" points="448.585,196.932 422.538,181.803 385.409,187.946 368.369,165.537 342.322,150.408 
	312.153,224.919 262.106,274.428 293.508,312.197 292.746,382.47 318.793,397.6 368.369,346.431 417.945,340.354 417.184,270.961 
	"/>
<polygon style="fill:#FFD800;" points="368.369,165.537 398.538,205.212 448.585,196.932 417.184,270.961 417.945,340.354 
	368.369,346.431 318.793,397.6 319.555,327.327 288.153,289.557 338.2,240.049 "/>
<g>
	<polygon style="fill:#CC8200;" points="368.369,165.537 342.322,150.408 312.153,224.919 338.2,240.049 	"/>
	<polygon style="fill:#CC8200;" points="319.555,327.327 293.508,312.198 262.106,274.428 288.153,289.557 	"/>
</g>
<g>
</g>
<g>
</g>
<g>
</g>
<g>
</g>
<g>
</g>
<g>
</g>
<g>
</g>
<g>
</g>
<g>
</g>
<g>
</g>
<g>
</g>
<g>
</g>
<g>
</g>
<g>
</g>
<g>
</g>
</svg>
