<?xml version="1.0" encoding="iso-8859-1"?>
<!-- Generator: Adobe Illustrator 19.0.0, SVG Export Plug-In . SVG Version: 6.00 Build 0)  -->
<svg version="1.1" id="Capa_1" xmlns="http://www.w3.org/2000/svg" xmlns:xlink="http://www.w3.org/1999/xlink" x="0px" y="0px"
	 viewBox="0 0 512.001 512.001" style="enable-background:new 0 0 512.001 512.001;" xml:space="preserve">
<path style="fill:#00D16D;" d="M444.834,0L227.435,9.593L11.498,250.187l0.014,24.458c0.048,72.861,40.083,141.725,103.343,177.991
	l-0.012,0.002l50.235,29.146l-0.039-0.095c33.805,20.788,76.64,32.217,118.067,30.051l55.421-60.885
	C442.746,336.358,500.504,187.1,500.504,32.274L444.834,0z"/>
<path style="fill:#FFFFFF;" d="M448.631,86.816c-7.204,121.282-55.482,236.241-137.768,326.641l-41.319,45.393
	c-83.793-2.008-151.384-70.877-151.433-155.244l-0.006-10.488L297.271,93.495L448.631,86.816 M479.975,55.003l-196.799,8.684
	L87.698,281.484l0.013,22.14c0.059,103.047,83.783,185.671,185.592,185.671c3.278,0,6.56-0.085,9.872-0.258l50.169-55.116
	C427.689,330.274,479.975,195.159,479.975,55.003L479.975,55.003z"/>
<polygon style="fill:#009F5E;" points="227.435,9.593 283.106,41.867 500.504,32.274 444.834,0 "/>
<path style="fill:#007A6E;" d="M126.619,451.195h-0.004c-37.779-38.177-59.396-90.543-59.433-144.277l-0.014-24.457l-55.671-32.274
	l0.014,24.458c0.044,76.478,41.83,142.726,103.344,177.991l-0.013,0.002l50.235,29.146l-0.039-0.095
	C151.04,473.073,138.143,462.825,126.619,451.195z"/>
<path style="fill:#FFFFFF;" d="M304.534,262.547c18.758-22.226,31.6-55.333,30.657-84.345c-1.172-36.05-23.92-52.408-51.486-37.087
	c-29.339,16.306-53.272,61.644-53.272,100.618c0,28.266,12.596,45.322,30.706,45.869c-23.946,25.598-41.023,66.152-41.023,102.167
	v26.695l0,0c38.485,9.238,86.955-18.746,125.44-72.423l0,0v-26.695C345.557,281.329,328.48,260.495,304.534,262.547z"/>
<polygon style="fill:#33CD87;" points="67.169,282.461 283.106,41.867 227.435,9.593 11.498,250.187 "/>
<g>
</g>
<g>
</g>
<g>
</g>
<g>
</g>
<g>
</g>
<g>
</g>
<g>
</g>
<g>
</g>
<g>
</g>
<g>
</g>
<g>
</g>
<g>
</g>
<g>
</g>
<g>
</g>
<g>
</g>
</svg>
