<?xml version="1.0" encoding="iso-8859-1"?>
<!-- Generator: Adobe Illustrator 19.0.0, SVG Export Plug-In . SVG Version: 6.00 Build 0)  -->
<svg version="1.1" id="Capa_1" xmlns="http://www.w3.org/2000/svg" xmlns:xlink="http://www.w3.org/1999/xlink" x="0px" y="0px"
	 viewBox="0 0 512 512" style="enable-background:new 0 0 512 512;" xml:space="preserve">
<path style="fill:#2E527C;" d="M401.269,157.111c-2.612,0-5.129-1.437-6.387-3.929c-1.781-3.525-0.367-7.826,3.157-9.607
	c0.46-0.232,46.072-23.466,61.27-46.594c6.896-10.493,10.457-24.357,14.229-39.035c4.805-18.703,9.773-38.043,22.193-55.017
	c2.333-3.187,6.808-3.881,9.994-1.548c3.187,2.332,3.882,6.807,1.549,9.994c-10.796,14.753-15.415,32.738-19.883,50.13
	c-4.076,15.864-7.925,30.849-16.128,43.331c-17.299,26.323-64.763,50.49-66.774,51.506
	C403.453,156.863,402.352,157.111,401.269,157.111z"/>
<path style="fill:#FCBC90;" d="M395.035,64.921l-88.677-15.749L3.345,224.116v279.526L17.797,512L320.81,337.055l88.677-118.145
	V73.279L395.035,64.921z M361.695,173.451c0-8.854,4.419-18.874,10.474-24.772c-0.009,0.009-0.018,0.016-0.027,0.025
	c6.504-1.758,11.359,3.191,11.359,12.47c0,8.84-4.405,18.845-10.446,24.746C366.55,187.679,361.695,182.73,361.695,173.451z
	 M375.036,146.294c-0.155,0.108-0.308,0.222-0.462,0.336C374.728,146.516,374.881,146.402,375.036,146.294z M373.756,147.268
	c-0.178,0.146-0.357,0.288-0.533,0.441C373.399,147.556,373.578,147.414,373.756,147.268z M374.692,185.357
	c0.545-0.228,1.098-0.5,1.66-0.825C375.79,184.856,375.237,185.124,374.692,185.357z M373.055,185.921
	c0.509-0.138,1.029-0.317,1.556-0.534C374.083,185.608,373.565,185.783,373.055,185.921z"/>
<path style="fill:#FFD2A6;" d="M320.81,57.529L17.797,232.474V512L320.81,337.055l88.677-118.145V73.279L320.81,57.529z
	 M376.352,184.532c-8.095,4.674-14.657-0.287-14.657-11.081c0-10.793,6.562-23.332,14.657-28.006s14.658,0.287,14.658,11.081
	C391.01,167.32,384.447,179.858,376.352,184.532z"/>
<path style="fill:#FF8A5C;" d="M391.01,156.526c0-4.516-1.243-10.341-5.903-12.268c-6.516-2.693-13.247,4.728-12.962,4.446
	c8.122-2.193,11.349,6.274,11.349,12.887c0,8.159-4.134,18.17-10.44,24.33C384.424,182.847,391.01,167.229,391.01,156.526z"/>
<path style="fill:#284363;" d="M204.478,350.72c-13.53,6.989-26.566,10.478-39.107,10.469v-41.022
	c16.096,1.627,44.137-1.721,54.681-16.102c15.118-20.62-5.799-20.189-22.061-18.671c-28.09,2.361-35.385-18.3-32.192-42.577
	c3.266-24.839,18.785-44.542,38.679-58.782v-16.928l19.183-11.076v16.681c12.293-6.19,24.681-9.307,37.16-9.345l-11.027,41.581
	c-13.316-0.295-34.675,3.254-43.307,14.895c-13.158,17.745,5.51,18.716,19.584,16.966c65.76-6.911,27.042,80.28-2.41,102.094v23.847
	l-19.183,11.076L204.478,350.72L204.478,350.72z"/>
<g>
	<polygon style="fill:#FF8A5C;" points="17.797,512 3.345,503.642 3.345,224.116 17.797,232.474 	"/>
	<polygon style="fill:#FF8A5C;" points="320.81,57.529 306.358,49.171 395.035,64.921 409.487,73.279 	"/>
</g>
<path style="fill:#9FACBC;" d="M386.771,147.243l20.998-12.075c4.9-2.818,11.015,0.719,11.015,6.372l0,0
	c0,5.758-3.076,11.077-8.067,13.948l-22.319,12.841c-4.627,2.636-10.377-0.706-10.377-6.031l0,0
	C378.021,156.072,381.361,150.325,386.771,147.243z"/>
<g>
</g>
<g>
</g>
<g>
</g>
<g>
</g>
<g>
</g>
<g>
</g>
<g>
</g>
<g>
</g>
<g>
</g>
<g>
</g>
<g>
</g>
<g>
</g>
<g>
</g>
<g>
</g>
<g>
</g>
</svg>
