<?xml version="1.0" encoding="iso-8859-1"?>
<!-- Generator: Adobe Illustrator 19.0.0, SVG Export Plug-In . SVG Version: 6.00 Build 0)  -->
<svg version="1.1" id="Capa_1" xmlns="http://www.w3.org/2000/svg" xmlns:xlink="http://www.w3.org/1999/xlink" x="0px" y="0px"
	 viewBox="0 0 512 512" style="enable-background:new 0 0 512 512;" xml:space="preserve">
<path style="fill:#867E88;" d="M456.403,59.605H55.597c-13.282,0-24.048,10.767-24.048,24.048V420.33h448.903V83.653
	C480.452,70.372,469.685,59.605,456.403,59.605z"/>
<rect x="31.548" y="91.67" style="fill:#FFFFFF;" width="448.9" height="288.58"/>
<path style="fill:#6F6571;" d="M488.468,452.395H23.532c-8.854,0-16.032-7.178-16.032-16.032v-16.032
	c0-4.427,3.589-8.016,8.016-8.016h480.968c4.427,0,8.016,3.589,8.016,8.016v16.032C504.5,445.217,497.322,452.395,488.468,452.395z"
	/>
<path style="fill:#E6646E;" d="M327.383,340.169H184.617c-4.714,0-8.41-4.047-7.983-8.742l14.575-160.323
	c0.375-4.129,3.837-7.29,7.983-7.29h113.617c4.146,0,7.608,3.161,7.983,7.29l14.575,160.323
	C335.793,336.122,332.097,340.169,327.383,340.169z"/>
<path style="fill:#DC4655;" d="M265.601,316.121c-32.996,0-58.87-28.332-55.882-61.193l8.283-91.113h-18.81
	c-4.146,0-7.607,3.161-7.983,7.29l-14.575,160.323c-0.427,4.694,3.27,8.742,7.983,8.742h142.767c4.714,0,8.41-4.048,7.984-8.742
	l-1.391-15.306L265.601,316.121L265.601,316.121z"/>
<path style="fill:#EDEBED;" d="M223.935,348.185c-88.544,0-160.323-71.779-160.323-160.323V91.669H31.548V380.25h448.903v-32.065
	H223.935z"/>
<path d="M448.387,84.169H63.613c-4.143,0-7.5,3.358-7.5,7.5s3.357,7.5,7.5,7.5h384.773c4.143,0,7.5-3.358,7.5-7.5
	S452.529,84.169,448.387,84.169z"/>
<path d="M448.387,372.75H63.613c-4.143,0-7.5,3.358-7.5,7.5s3.357,7.5,7.5,7.5h384.773c4.143,0,7.5-3.358,7.5-7.5
	S452.529,372.75,448.387,372.75z"/>
<path d="M256,116.234c-17.396,0-31.549,14.153-31.549,31.548v8.532h-25.26c-8.077,0-14.72,6.066-15.452,14.111l-14.574,160.323
	c-0.395,4.331,1.062,8.657,3.994,11.868c2.933,3.211,7.108,5.053,11.457,5.053h142.768c4.349,0,8.524-1.842,11.457-5.053
	s4.389-7.537,3.994-11.868l-14.574-160.324c-0.732-8.044-7.375-14.11-15.452-14.11h-25.26v-8.532
	C287.549,130.387,273.396,116.234,256,116.234z M239.451,147.782c0-9.125,7.424-16.548,16.549-16.548s16.549,7.423,16.549,16.548
	v8.532h-33.098L239.451,147.782L239.451,147.782z M312.809,171.314c0.269,0,0.49,0.202,0.515,0.47l14.574,160.322
	c0.005,0.062,0.021,0.227-0.134,0.395c-0.153,0.168-0.317,0.168-0.38,0.168H184.616c-0.063,0-0.227,0-0.38-0.168
	c-0.154-0.168-0.139-0.333-0.134-0.395l14.574-160.321c0.024-0.269,0.246-0.471,0.515-0.471h25.26v16.548c0,4.142,3.357,7.5,7.5,7.5
	s7.5-3.358,7.5-7.5v-16.548h33.098v16.548c0,4.142,3.357,7.5,7.5,7.5s7.5-3.358,7.5-7.5v-16.548L312.809,171.314L312.809,171.314z"
	/>
<path d="M496.483,404.814h-8.532V83.653c0-17.396-14.152-31.549-31.548-31.549H55.597c-17.396,0-31.548,14.153-31.548,31.549
	v321.161h-8.532C6.961,404.814,0,411.775,0,420.331v16.032c0,12.976,10.557,23.533,23.532,23.533h464.936
	c12.976,0,23.532-10.557,23.532-23.533v-16.032C512,411.775,505.039,404.814,496.483,404.814z M39.049,83.653
	c0-9.125,7.423-16.549,16.548-16.549h400.807c9.125,0,16.548,7.424,16.548,16.549v321.161H39.049V83.653z M497,436.363
	c0,4.705-3.827,8.533-8.532,8.533H23.532c-4.705,0-8.532-3.828-8.532-8.533v-16.032c0-0.285,0.231-0.516,0.517-0.516h208.961
	c-0.012,0.171-0.026,0.342-0.026,0.516c0,4.142,3.357,7.5,7.5,7.5h48.098c4.143,0,7.5-3.358,7.5-7.5
	c0-0.174-0.014-0.345-0.026-0.516h208.961c0.285,0,0.517,0.231,0.517,0.516v16.032H497z"/>
<g>
</g>
<g>
</g>
<g>
</g>
<g>
</g>
<g>
</g>
<g>
</g>
<g>
</g>
<g>
</g>
<g>
</g>
<g>
</g>
<g>
</g>
<g>
</g>
<g>
</g>
<g>
</g>
<g>
</g>
</svg>
