<?xml version="1.0" encoding="iso-8859-1"?>
<!-- Generator: Adobe Illustrator 19.0.0, SVG Export Plug-In . SVG Version: 6.00 Build 0)  -->
<svg version="1.1" id="Capa_1" xmlns="http://www.w3.org/2000/svg" xmlns:xlink="http://www.w3.org/1999/xlink" x="0px" y="0px"
	 viewBox="0 0 512 512" style="enable-background:new 0 0 512 512;" xml:space="preserve">
<path style="fill:#9C969E;" d="M400.001,40h-288c-17.673,0-32,14.327-32,32v400c0,17.673,14.327,32,32,32h288
	c17.673,0,32-14.327,32-32V72C432.001,54.327,417.674,40,400.001,40z"/>
<path style="fill:#FFFFFF;" d="M392.041,440h-272c-4.418,0-8-3.582-8-8V80c0-4.418,3.582-8,8-8h272c4.418,0,8,3.582,8,8v352
	C400.041,436.418,396.459,440,392.041,440z"/>
<g>
	<circle style="fill:#E6646E;" cx="184.001" cy="152" r="16"/>
	<circle style="fill:#E6646E;" cx="184.001" cy="224" r="16"/>
</g>
<circle style="fill:#FFD164;" cx="184.001" cy="296" r="16"/>
<circle style="fill:#C9C6CA;" cx="184.001" cy="368" r="16"/>
<path style="fill:#DBD9DC;" d="M256.001,8c-48.601,0-88,8.618-88,19.25V64c0,4.418,3.582,8,8,8h160c4.418,0,8-3.582,8-8V27.25
	C344.001,16.618,304.602,8,256.001,8z"/>
<path style="fill:#C9C6CA;" d="M336.041,72h-160c-4.418,0-8-3.582-8-8V48h176v16C344.041,68.418,340.459,72,336.041,72z"/>
<path d="M400.292,32.064h-48.613v-5.276c0-12.572-18.105-17.987-31.724-20.966C302.79,2.068,280.077,0,256.001,0
	s-46.789,2.068-63.954,5.823c-13.619,2.979-31.724,8.394-31.724,20.966v5.276H111.71c-21.816,0-39.564,17.749-39.564,39.565v400.806
	c0,21.816,17.749,39.564,39.564,39.564H400.29c21.816,0,39.564-17.749,39.564-39.564V71.629
	C439.856,49.813,422.107,32.064,400.292,32.064z M175.324,27.751C179.771,23.209,207.419,15,256.001,15s76.229,8.209,80.677,12.751
	v35.862c0,0.285-0.231,0.516-0.516,0.516H175.84c-0.285,0-0.516-0.232-0.516-0.516V27.751z M424.856,472.436
	c0,13.545-11.02,24.564-24.564,24.564H111.71c-13.545,0-24.564-11.02-24.564-24.564V71.629c0-13.545,11.02-24.565,24.564-24.565
	h48.613v16.548c0,8.556,6.96,15.516,15.516,15.516h160.322c8.556,0,15.516-6.961,15.516-15.516V47.064h48.613
	c13.545,0,24.564,11.02,24.564,24.565v400.807H424.856z"/>
<path d="M392.275,64.129h-16.033c-4.142,0-7.5,3.358-7.5,7.5s3.358,7.5,7.5,7.5h16.033c0.285,0,0.516,0.231,0.516,0.516v352.709
	c0,0.285-0.231,0.516-0.516,0.516H119.727c-0.285,0-0.516-0.231-0.516-0.516V79.645c0-0.285,0.231-0.516,0.516-0.516h16.033
	c4.142,0,7.5-3.358,7.5-7.5s-3.358-7.5-7.5-7.5h-16.033c-8.556,0-15.516,6.96-15.516,15.516v352.709
	c0,8.556,6.96,15.516,15.516,15.516h272.549c8.556,0,15.516-6.96,15.516-15.516V79.645C407.792,71.09,400.831,64.129,392.275,64.129
	z"/>
<path d="M183.855,175.323c12.976,0,23.532-10.557,23.532-23.532s-10.557-23.532-23.532-23.532s-23.532,10.557-23.532,23.532
	S170.88,175.323,183.855,175.323z M183.855,143.258c4.705,0,8.532,3.828,8.532,8.532s-3.828,8.532-8.532,8.532
	s-8.532-3.828-8.532-8.532S179.15,143.258,183.855,143.258z"/>
<path d="M231.952,143.258h112.226c4.142,0,7.5-3.358,7.5-7.5s-3.358-7.5-7.5-7.5H231.952c-4.142,0-7.5,3.358-7.5,7.5
	S227.811,143.258,231.952,143.258z"/>
<path d="M231.952,175.323h8.016c4.142,0,7.5-3.358,7.5-7.5s-3.358-7.5-7.5-7.5h-8.016c-4.142,0-7.5,3.358-7.5,7.5
	S227.811,175.323,231.952,175.323z"/>
<path d="M272.033,160.323c-4.142,0-7.5,3.358-7.5,7.5s3.358,7.5,7.5,7.5h32.064c4.142,0,7.5-3.358,7.5-7.5s-3.358-7.5-7.5-7.5
	H272.033z"/>
<path d="M183.855,247.468c12.976,0,23.532-10.557,23.532-23.532s-10.557-23.532-23.532-23.532s-23.532,10.557-23.532,23.532
	S170.88,247.468,183.855,247.468z M183.855,215.403c4.705,0,8.532,3.828,8.532,8.532s-3.828,8.532-8.532,8.532
	s-8.532-3.828-8.532-8.532S179.15,215.403,183.855,215.403z"/>
<path d="M231.952,215.403h112.226c4.142,0,7.5-3.358,7.5-7.5s-3.358-7.5-7.5-7.5H231.952c-4.142,0-7.5,3.358-7.5,7.5
	S227.811,215.403,231.952,215.403z"/>
<path d="M231.952,247.468h8.016c4.142,0,7.5-3.358,7.5-7.5s-3.358-7.5-7.5-7.5h-8.016c-4.142,0-7.5,3.358-7.5,7.5
	S227.811,247.468,231.952,247.468z"/>
<path d="M272.033,232.468c-4.142,0-7.5,3.358-7.5,7.5s3.358,7.5,7.5,7.5h32.064c4.142,0,7.5-3.358,7.5-7.5s-3.358-7.5-7.5-7.5
	H272.033z"/>
<path d="M183.855,319.613c12.976,0,23.532-10.557,23.532-23.532s-10.557-23.532-23.532-23.532s-23.532,10.557-23.532,23.532
	S170.88,319.613,183.855,319.613z M183.855,287.548c4.705,0,8.532,3.828,8.532,8.532s-3.828,8.532-8.532,8.532
	s-8.532-3.828-8.532-8.532S179.15,287.548,183.855,287.548z"/>
<path d="M231.952,287.548h112.226c4.142,0,7.5-3.358,7.5-7.5s-3.358-7.5-7.5-7.5H231.952c-4.142,0-7.5,3.358-7.5,7.5
	S227.811,287.548,231.952,287.548z"/>
<path d="M231.952,319.613h8.016c4.142,0,7.5-3.358,7.5-7.5s-3.358-7.5-7.5-7.5h-8.016c-4.142,0-7.5,3.358-7.5,7.5
	S227.811,319.613,231.952,319.613z"/>
<path d="M272.033,304.613c-4.142,0-7.5,3.358-7.5,7.5s3.358,7.5,7.5,7.5h32.064c4.142,0,7.5-3.358,7.5-7.5s-3.358-7.5-7.5-7.5
	H272.033z"/>
<path d="M183.855,391.758c12.976,0,23.532-10.557,23.532-23.532s-10.557-23.532-23.532-23.532s-23.532,10.557-23.532,23.532
	S170.88,391.758,183.855,391.758z M183.855,359.694c4.705,0,8.532,3.828,8.532,8.532s-3.828,8.532-8.532,8.532
	s-8.532-3.828-8.532-8.532S179.15,359.694,183.855,359.694z"/>
<path d="M231.952,359.694h112.226c4.142,0,7.5-3.358,7.5-7.5s-3.358-7.5-7.5-7.5H231.952c-4.142,0-7.5,3.358-7.5,7.5
	S227.811,359.694,231.952,359.694z"/>
<path d="M231.952,391.758h8.016c4.142,0,7.5-3.358,7.5-7.5s-3.358-7.5-7.5-7.5h-8.016c-4.142,0-7.5,3.358-7.5,7.5
	S227.811,391.758,231.952,391.758z"/>
<path d="M272.033,376.758c-4.142,0-7.5,3.358-7.5,7.5s3.358,7.5,7.5,7.5h32.064c4.142,0,7.5-3.358,7.5-7.5s-3.358-7.5-7.5-7.5
	H272.033z"/>
<path d="M256.041,47.064c4.142,0,7.5-3.358,7.5-7.5s-3.358-7.5-7.5-7.5h-0.08c-4.142,0-7.46,3.358-7.46,7.5
	S251.898,47.064,256.041,47.064z"/>
<g>
</g>
<g>
</g>
<g>
</g>
<g>
</g>
<g>
</g>
<g>
</g>
<g>
</g>
<g>
</g>
<g>
</g>
<g>
</g>
<g>
</g>
<g>
</g>
<g>
</g>
<g>
</g>
<g>
</g>
</svg>
