<?xml version="1.0" encoding="iso-8859-1"?>
<!-- Generator: Adobe Illustrator 19.0.0, SVG Export Plug-In . SVG Version: 6.00 Build 0)  -->
<svg version="1.1" id="Capa_1" xmlns="http://www.w3.org/2000/svg" xmlns:xlink="http://www.w3.org/1999/xlink" x="0px" y="0px"
	 viewBox="0 0 512.001 512.001" style="enable-background:new 0 0 512.001 512.001;" xml:space="preserve">
<path style="fill:#EDEBED;" d="M337.076,393.774H63.466c-8.889,0-16.095-7.206-16.095-16.095V23.595
	c0-8.889,7.206-16.095,16.095-16.095h273.61c8.889,0,16.095,7.206,16.095,16.095v354.084
	C353.171,386.568,345.965,393.774,337.076,393.774z"/>
<g>
	<circle style="fill:#E6646E;" cx="119.799" cy="112.119" r="16.09"/>
	<circle style="fill:#E6646E;" cx="119.799" cy="289.158" r="16.09"/>
	<circle style="fill:#E6646E;" cx="119.799" cy="200.639" r="16.09"/>
	<path style="fill:#E6646E;" d="M398.956,305.253c-14.624,0-28.13,4.779-39.046,12.859c-4.408,3.262-10.274,3.262-14.682,0
		c-10.916-8.079-24.422-12.859-39.046-12.859c-36.293,0-65.715,29.421-65.715,65.715c0,48.022,53.834,105.31,104.995,131.806
		c4.438,2.298,9.773,2.298,14.211,0c51.162-26.496,104.995-83.784,104.995-131.806C464.67,334.674,435.248,305.253,398.956,305.253z
		"/>
</g>
<path style="fill:#DC4655;" d="M297.963,366.754c0-23.109,9.289-44.032,24.31-59.299c-5.173-1.309-10.512-2.202-16.091-2.202
	c-36.293,0-65.715,29.421-65.715,65.715c0,48.022,53.834,105.31,104.996,131.806c4.438,2.298,9.773,2.298,14.211,0
	c4.525-2.343,9.063-5.005,13.59-7.802C331.076,457.879,297.963,409.476,297.963,366.754z"/>
<path d="M119.757,88.521c-13.01,0-23.595,10.584-23.595,23.595s10.584,23.595,23.595,23.595s23.595-10.585,23.595-23.595
	S132.767,88.521,119.757,88.521z M119.757,120.71c-4.739,0-8.595-3.856-8.595-8.595c0-4.739,3.855-8.595,8.595-8.595
	c4.74,0,8.595,3.855,8.595,8.595C128.352,116.855,124.496,120.71,119.757,120.71z"/>
<path d="M296.799,88.521H168.041c-4.142,0-7.5,3.358-7.5,7.5c0,4.142,3.358,7.5,7.5,7.5h128.757c4.143,0,7.5-3.358,7.5-7.5
	C304.298,91.879,300.941,88.521,296.799,88.521z"/>
<path d="M168.041,135.71h16.095c4.142,0,7.5-3.358,7.5-7.5c0-4.142-3.358-7.5-7.5-7.5h-16.095c-4.142,0-7.5,3.358-7.5,7.5
	C160.541,132.352,163.899,135.71,168.041,135.71z"/>
<path d="M256.563,135.71c4.142,0,7.5-3.358,7.5-7.5c0-4.142-3.357-7.5-7.5-7.5h-40.237c-4.142,0-7.5,3.358-7.5,7.5
	c0,4.142,3.358,7.5,7.5,7.5H256.563z"/>
<path d="M119.757,177.042c-13.01,0-23.595,10.585-23.595,23.595s10.584,23.595,23.595,23.595s23.595-10.584,23.595-23.595
	S132.767,177.042,119.757,177.042z M119.757,209.232c-4.739,0-8.595-3.855-8.595-8.595s3.855-8.595,8.595-8.595
	c4.74,0,8.595,3.856,8.595,8.595S124.496,209.232,119.757,209.232z"/>
<path d="M296.799,177.042H168.041c-4.142,0-7.5,3.358-7.5,7.5c0,4.142,3.358,7.5,7.5,7.5h128.757c4.143,0,7.5-3.358,7.5-7.5
	C304.298,180.4,300.941,177.042,296.799,177.042z"/>
<path d="M168.041,224.232h16.095c4.142,0,7.5-3.358,7.5-7.5s-3.358-7.5-7.5-7.5h-16.095c-4.142,0-7.5,3.358-7.5,7.5
	S163.899,224.232,168.041,224.232z"/>
<path d="M256.563,224.232c4.142,0,7.5-3.358,7.5-7.5s-3.357-7.5-7.5-7.5h-40.237c-4.142,0-7.5,3.358-7.5,7.5s3.358,7.5,7.5,7.5
	H256.563z"/>
<path d="M119.757,265.563c-13.01,0-23.595,10.584-23.595,23.595c0,13.011,10.584,23.595,23.595,23.595s23.595-10.585,23.595-23.595
	C143.352,276.148,132.767,265.563,119.757,265.563z M119.757,297.753c-4.739,0-8.595-3.856-8.595-8.595s3.855-8.595,8.595-8.595
	c4.74,0,8.595,3.855,8.595,8.595S124.496,297.753,119.757,297.753z"/>
<path d="M304.299,273.063c0-4.142-3.357-7.5-7.5-7.5H168.041c-4.142,0-7.5,3.358-7.5,7.5s3.358,7.5,7.5,7.5h128.757
	C300.941,280.563,304.299,277.205,304.299,273.063z"/>
<path d="M168.041,297.753c-4.142,0-7.5,3.358-7.5,7.5c0,4.142,3.358,7.5,7.5,7.5h16.095c4.142,0,7.5-3.358,7.5-7.5
	c0-4.142-3.358-7.5-7.5-7.5H168.041z"/>
<path d="M239.921,305.253c0-4.142-3.358-7.5-7.5-7.5h-16.095c-4.142,0-7.5,3.358-7.5,7.5c0,4.142,3.358,7.5,7.5,7.5h16.095
	C236.563,312.753,239.921,309.395,239.921,305.253z"/>
<path d="M208.278,386.274H63.426c-4.739,0-8.595-3.856-8.595-8.595V23.595c0-4.739,3.855-8.595,8.595-8.595h273.61
	c4.739,0,8.595,3.855,8.595,8.595v257.517c0,4.142,3.357,7.5,7.5,7.5s7.5-3.358,7.5-7.5V23.595C360.631,10.584,350.046,0,337.036,0
	H63.426c-13.01,0-23.595,10.584-23.595,23.595V377.68c0,13.01,10.584,23.595,23.595,23.595h144.853c4.142,0,7.5-3.358,7.5-7.5
	C215.779,389.633,212.42,386.274,208.278,386.274z"/>
<path d="M398.956,297.753c-15.797,0-30.842,4.955-43.508,14.33c-1.747,1.294-4.01,1.295-5.759,0
	c-12.666-9.375-27.711-14.33-43.508-14.33c-40.37,0-73.214,32.844-73.214,73.215c0,51.324,55.445,110.706,109.046,138.466
	c3.305,1.711,6.929,2.567,10.555,2.567c3.624,0,7.25-0.856,10.555-2.567c53.603-27.76,109.046-87.142,109.046-138.466
	C472.17,330.597,439.326,297.753,398.956,297.753z M356.225,496.113c-2.289,1.187-5.023,1.186-7.313,0
	c-62.352-32.291-100.945-90.102-100.945-125.146c0-32.1,26.115-58.215,58.214-58.215c12.561,0,24.52,3.938,34.584,11.387
	c7.062,5.226,16.547,5.224,23.606,0c10.064-7.449,22.023-11.387,34.584-11.387c32.1,0,58.215,26.115,58.215,58.215
	C457.17,415.977,404.772,470.971,356.225,496.113z"/>
<g>
</g>
<g>
</g>
<g>
</g>
<g>
</g>
<g>
</g>
<g>
</g>
<g>
</g>
<g>
</g>
<g>
</g>
<g>
</g>
<g>
</g>
<g>
</g>
<g>
</g>
<g>
</g>
<g>
</g>
</svg>
