<?xml version="1.0" encoding="iso-8859-1"?>
<!-- Generator: Adobe Illustrator 19.0.0, SVG Export Plug-In . SVG Version: 6.00 Build 0)  -->
<svg version="1.1" id="Capa_1" xmlns="http://www.w3.org/2000/svg" xmlns:xlink="http://www.w3.org/1999/xlink" x="0px" y="0px"
	 viewBox="0 0 511.998 511.998" style="enable-background:new 0 0 511.998 511.998;" xml:space="preserve">
<path style="fill:#E6646E;" d="M432.361,151.776H79.637c-4.427,0-8.016,3.589-8.016,8.016v68.14c0,2.213,1.795,4.008,4.008,4.008
	h4.008v264.542c0,4.427,3.589,8.016,8.016,8.016h336.69c4.427,0,8.016-3.589,8.016-8.016V231.94h4.008
	c2.213,0,4.008-1.795,4.008-4.008v-68.14C440.377,155.365,436.788,151.776,432.361,151.776z"/>
<path style="fill:#DC4655;" d="M432.361,255.99v-24.049H79.637v264.542c0,4.427,3.589,8.016,8.016,8.016h336.69
	c4.427,0,8.016-3.589,8.016-8.016v-16.033H231.949c-70.838,0-128.263-57.425-128.263-128.263v-88.18
	c0-4.427,3.589-8.016,8.016-8.016L432.361,255.99L432.361,255.99z"/>
<rect x="239.969" y="151.776" style="fill:#FFE17D;" width="32.061" height="352.724"/>
<rect x="239.969" y="480.449" style="fill:#FFD164;" width="32.061" height="24.051"/>
<path d="M432.36,144.276H279.931c7.965-4.93,17.591-11.004,27.552-17.561c13.237-8.711,24.569-16.618,33.98-23.696
	c17.153,5.316,30.16,14.59,30.378,14.747c3.349,2.429,8.034,1.688,10.469-1.66c2.437-3.35,1.695-8.041-1.654-10.477
	c-0.838-0.609-10.838-7.769-25.323-13.616c7.223-6.118,12.523-11.402,15.85-15.816c7.647-10.151,10.885-22.673,9.115-35.259
	c-1.771-12.585-8.336-23.729-18.488-31.377c-20.952-15.787-50.847-11.584-66.636,9.371l0,0
	c-8.521,11.309-18.946,36.598-30.987,75.163c-3.062,9.807-5.85,19.276-8.188,27.477c-2.339-8.2-5.126-17.67-8.188-27.477
	c-12.041-38.565-22.467-63.852-30.987-75.163l0,0c-15.788-20.956-45.682-25.159-66.636-9.371
	c-10.151,7.647-16.718,18.791-18.488,31.377c-1.77,12.585,1.468,25.108,9.115,35.259c3.325,4.414,8.626,9.697,15.849,15.816
	c-14.486,5.846-24.485,13.007-25.323,13.616c-3.347,2.434-4.086,7.116-1.656,10.466c2.431,3.35,7.118,4.095,10.471,1.67
	c0.218-0.157,13.227-9.43,30.379-14.747c9.411,7.079,20.744,14.985,33.979,23.696c9.961,6.556,19.586,12.631,27.552,17.561H79.637
	c-8.556,0-15.518,6.96-15.518,15.517v72.148c0,4.142,3.357,7.5,7.5,7.5h0.517v257.042c0,8.556,6.96,15.517,15.517,15.517h336.691
	c8.556,0,15.517-6.96,15.517-15.517V239.441h0.517c4.143,0,7.5-3.358,7.5-7.5v-72.148
	C447.878,151.236,440.916,144.276,432.36,144.276z M264.532,497h-17.065V159.277h17.065V497z M299.29,114.15
	c-10.131,6.669-19.914,12.836-27.913,17.781c8.149-15.666,18.793-25.751,31.793-30.067c5.844-1.941,11.861-2.625,17.79-2.458
	C314.72,103.817,307.554,108.71,299.29,114.15z M307.156,27.959L307.156,27.959c10.812-14.349,31.278-17.228,45.629-6.417
	c6.951,5.237,11.446,12.868,12.658,21.485c1.212,8.617-1.004,17.193-6.241,24.144c-2.927,3.885-8.919,10.001-20.949,19.428
	c-12.364-2.816-26.197-3.474-39.738,1.003c-7.329,2.423-14.025,6.162-20.078,11.184c0.023-0.074,0.046-0.147,0.069-0.22
	C292.865,52.58,302.012,34.788,307.156,27.959z M152.796,67.17c-5.237-6.951-7.453-15.526-6.241-24.143
	c1.212-8.617,5.707-16.249,12.658-21.485c5.86-4.415,12.74-6.546,19.566-6.546c9.89,0,19.667,4.474,26.063,12.964
	c5.142,6.824,14.283,24.604,28.631,70.547c0.029,0.094,0.058,0.187,0.087,0.281c-6.053-5.022-12.748-8.761-20.079-11.184
	c-13.541-4.477-27.374-3.819-39.738-1.004C161.715,77.172,155.723,71.056,152.796,67.17z M191.04,99.405
	c5.928-0.167,11.943,0.517,17.789,2.457c13.001,4.316,23.644,14.402,31.793,30.067c-7.982-4.934-17.744-11.086-27.86-17.746
	C204.474,108.731,197.292,103.827,191.04,99.405z M87.138,496.483V239.441h16.55c4.143,0,7.5-3.358,7.5-7.5
	c0-4.142-3.357-7.5-7.5-7.5H79.121v-64.648c0-0.285,0.231-0.516,0.517-0.516h152.828v65.164h-96.714c-4.143,0-7.5,3.358-7.5,7.5
	c0,4.142,3.357,7.5,7.5,7.5h96.714V497H87.654C87.37,497,87.138,496.768,87.138,496.483z M424.86,496.483
	c0,0.285-0.231,0.516-0.516,0.516H279.532V239.441h96.714c4.143,0,7.5-3.358,7.5-7.5c0-4.142-3.357-7.5-7.5-7.5h-96.714v-65.164
	H432.36c0.285,0,0.517,0.231,0.517,0.516v64.648h-24.565c-4.143,0-7.5,3.358-7.5,7.5c0,4.142,3.357,7.5,7.5,7.5h16.549v257.042
	H424.86z"/>
<g>
</g>
<g>
</g>
<g>
</g>
<g>
</g>
<g>
</g>
<g>
</g>
<g>
</g>
<g>
</g>
<g>
</g>
<g>
</g>
<g>
</g>
<g>
</g>
<g>
</g>
<g>
</g>
<g>
</g>
</svg>
