<?xml version="1.0" encoding="iso-8859-1"?>
<!-- Generator: Adobe Illustrator 19.0.0, SVG Export Plug-In . SVG Version: 6.00 Build 0)  -->
<svg version="1.1" id="Capa_1" xmlns="http://www.w3.org/2000/svg" xmlns:xlink="http://www.w3.org/1999/xlink" x="0px" y="0px"
	 viewBox="0 0 512 512" style="enable-background:new 0 0 512 512;" xml:space="preserve">
<path style="fill:#FFE17D;" d="M251.844,7.582c-53.292,2.071-97.478,45.914-99.939,99.189c-2.072,44.836,24.222,83.754,62.45,100.44
	c5.818,2.539,9.58,8.263,9.58,14.611V496.47c0,6.606,7.542,10.376,12.826,6.413l44.89-33.668c4.037-3.028,6.413-7.779,6.413-12.826
	v-24.034l-8.016-16.047l8.016-16.018l-8.016-16.032l8.016-16.032v-16.032l-8.016-16.032l8.017-16.036v-98.305
	c0-6.337,3.744-12.067,9.553-14.601c36.831-16.063,62.591-52.761,62.591-95.51C360.209,52.779,311.291,5.272,251.844,7.582z
	 M255.802,95.678c-13.282,0-24.048-10.767-24.048-24.048s10.767-24.048,24.048-24.048c13.282,0,24.048,10.767,24.048,24.048
	S269.083,95.678,255.802,95.678z"/>
<g>
	<path style="fill:#FFD164;" d="M255.802,31.549c-44.272,0-80.161,35.889-80.161,80.161s35.889,80.161,80.161,80.161
		s80.161-35.889,80.161-80.161S300.073,31.549,255.802,31.549z M255.802,95.678c-13.282,0-24.048-10.767-24.048-24.048
		s10.767-24.048,24.048-24.048c13.282,0,24.048,10.767,24.048,24.048S269.083,95.678,255.802,95.678z"/>
	<path style="fill:#FFD164;" d="M248.511,245.871c0-13.214-10.986-23.92-24.576-24.028v274.628c0,6.606,7.771,10.376,13.216,6.413
		l11.36-8.269V245.871z"/>
</g>
<path d="M333.433,31.192c-22.093-21.251-51.17-32.3-81.88-31.104c-27.658,1.075-53.946,12.639-74.023,32.563
	c-20.079,19.926-31.84,46.126-33.118,73.773c-1.071,23.189,4.903,45.718,17.279,65.151c12.019,18.874,29.192,33.573,49.663,42.509
	c3.086,1.347,5.081,4.385,5.081,7.738V496.47c0,5.915,3.287,11.233,8.577,13.878c2.214,1.107,4.591,1.652,6.955,1.652
	c3.285,0,6.542-1.054,9.294-3.118l44.89-33.668c5.894-4.42,9.413-11.458,9.413-18.826v-24.034c0-1.164-0.271-2.311-0.791-3.352
	l-6.34-12.692l6.338-12.664c1.057-2.112,1.057-4.598,0.001-6.71l-6.339-12.679l6.339-12.678c0.521-1.042,0.792-2.189,0.792-3.354
	v-16.032c0-1.165-0.271-2.313-0.792-3.354l-6.339-12.678l6.34-12.681c0.521-1.042,0.792-2.19,0.792-3.354v-98.305
	c0-3.355,1.983-6.388,5.052-7.727c40.757-17.775,67.093-57.963,67.093-102.385C367.709,81.049,355.536,52.454,333.433,31.192z
	 M294.62,200.346c-8.538,3.724-14.055,12.154-14.055,21.476v96.535l-7.225,14.452c-1.056,2.112-1.055,4.597,0,6.708l7.225,14.448
	v12.491l-7.224,14.449c-1.056,2.111-1.056,4.597,0,6.708l6.339,12.677l-6.337,12.663c-1.057,2.111-1.057,4.596-0.002,6.708
	l7.226,14.464v22.265c0,2.671-1.276,5.223-3.413,6.826l-44.89,33.668c-0.114,0.085-0.254,0.192-0.541,0.049
	c-0.285-0.143-0.285-0.32-0.285-0.462V221.823c0-9.318-5.526-17.751-14.08-21.485c-17.728-7.738-32.601-20.47-43.012-36.819
	c-10.707-16.813-15.875-36.316-14.947-56.402c1.104-23.882,11.296-46.547,28.7-63.819c17.403-17.271,40.146-27.293,64.039-28.222
	c1.304-0.05,2.6-0.076,3.896-0.076c25.147,0,48.814,9.507,67.003,27.002c19.136,18.407,29.675,43.163,29.675,69.708
	C352.709,150.165,329.908,184.956,294.62,200.346z"/>
<path d="M256,416.836c-4.142,0-7.5,3.358-7.5,7.5v16.036c0,4.142,3.358,7.5,7.5,7.5c4.142,0,7.5-3.358,7.5-7.5v-16.036
	C263.5,420.194,260.142,416.836,256,416.836z"/>
<path d="M256,248.501c-4.142,0-7.5,3.358-7.5,7.5v136.273c0,4.142,3.358,7.5,7.5,7.5c4.142,0,7.5-3.358,7.5-7.5V256.001
	C263.5,251.859,260.142,248.501,256,248.501z"/>
<path d="M280.048,64.13c-4.142,0-7.5,3.358-7.5,7.5c0,9.125-7.423,16.548-16.548,16.548c-9.125,0-16.548-7.423-16.548-16.548
	S246.875,55.082,256,55.082c4.142,0,7.5-3.358,7.5-7.5s-3.358-7.5-7.5-7.5c-17.396,0-31.548,14.152-31.548,31.548
	s14.152,31.548,31.548,31.548s31.548-14.152,31.548-31.548C287.548,67.488,284.19,64.13,280.048,64.13z"/>
<g>
</g>
<g>
</g>
<g>
</g>
<g>
</g>
<g>
</g>
<g>
</g>
<g>
</g>
<g>
</g>
<g>
</g>
<g>
</g>
<g>
</g>
<g>
</g>
<g>
</g>
<g>
</g>
<g>
</g>
</svg>
