<?xml version="1.0" encoding="iso-8859-1"?>
<!-- Generator: Adobe Illustrator 19.0.0, SVG Export Plug-In . SVG Version: 6.00 Build 0)  -->
<svg version="1.1" id="Capa_1" xmlns="http://www.w3.org/2000/svg" xmlns:xlink="http://www.w3.org/1999/xlink" x="0px" y="0px"
	 viewBox="0 0 512.001 512.001" style="enable-background:new 0 0 512.001 512.001;" xml:space="preserve">
<g>
	<path style="fill:#EDEBED;" d="M53.475,217.243l21.377,128.256c0.644,3.865,3.988,6.698,7.907,6.698h250.282
		c3.919,0,7.263-2.833,7.907-6.698l21.376-128.256c0.814-4.886-2.954-9.334-7.907-9.334H61.382
		C56.429,207.909,52.661,212.357,53.475,217.243z"/>
	<path style="fill:#EDEBED;" d="M498.667,310.477l-101.991-29.165c-2.881-0.824-5.935-0.824-8.815,0l-101.99,29.165
		c-3.465,0.991-5.857,4.121-5.817,7.724c0.292,25.763,8.007,127.155,108.211,184.098c2.43,1.381,5.511,1.418,7.972,0.093
		c100.444-54.107,107.986-158.064,108.248-184.199C504.52,314.591,502.131,311.468,498.667,310.477z"/>
</g>
<path style="fill:#DBD9DC;" d="M387.86,281.313l-101.99,29.164c-3.463,0.99-5.857,4.124-5.817,7.725
	c0.292,25.765,8.008,127.155,108.211,184.097c1.223,0.695,2.612,1.046,4.003,1.058V280.695
	C390.784,280.695,389.301,280.901,387.86,281.313z"/>
<path style="fill:#E6646E;" d="M392.268,183.86H23.532c-8.854,0-16.032-7.178-16.032-16.032l0,0c0-8.854,7.178-16.032,16.032-16.032
	h368.736c8.854,0,16.032,7.178,16.032,16.032l0,0C408.3,176.683,401.123,183.86,392.268,183.86z"/>
<g>
	<path style="fill:#FFD164;" d="M116.556,174.261L116.556,174.261c7.921,3.958,17.55,0.745,21.508-7.176L206.206,30.71
		c3.958-7.921,0.745-17.55-7.176-21.508l0,0c-7.921-3.958-17.55-0.745-21.508,7.176l-68.143,136.376
		C105.423,160.675,108.635,170.304,116.556,174.261z"/>
	<path style="fill:#FFD164;" d="M216.77,9.203L216.77,9.203c7.921-3.958,17.55-0.745,21.508,7.176l68.143,136.376
		c3.958,7.921,0.745,17.55-7.176,21.508l0,0c-7.921,3.958-17.55,0.745-21.508-7.176L209.595,30.71
		C205.637,22.79,208.849,13.16,216.77,9.203z"/>
	<path style="fill:#FFD164;" d="M392.268,313.401l79.021,22.596c-3.696,32.381-18.79,93.071-78.68,131.36
		c-60.327-40.016-75.612-99.464-79.357-131.361L392.268,313.401"/>
</g>
<path style="fill:#FFE17D;" d="M392.268,338.413l51.695,14.782c-5.944,25.693-19.672,58.978-51.166,84.442
	c-32.004-26.293-46.008-59.214-52.09-84.479L392.268,338.413"/>
<path d="M255.993,368.744h-40.592v-49.128h32.58c4.142,0,7.5-3.358,7.5-7.5s-3.358-7.5-7.5-7.5h-32.58v-49.128h74.935l-1.6,18.403
	c-0.359,4.127,2.695,7.763,6.822,8.122c0.221,0.02,0.44,0.029,0.658,0.029c3.848,0,7.123-2.945,7.463-6.851l1.713-19.703h76.189
	c3.666,0,6.795-2.65,7.397-6.267l9.799-58.784c9.819-2.831,17.025-11.892,17.025-22.61c0-12.976-10.557-23.532-23.532-23.532h-81.69
	l-65.593-131.27c-5.8-11.607-19.962-16.331-31.568-10.532c-2.043,1.021-3.882,2.322-5.506,3.836
	c-1.631-1.516-3.482-2.813-5.529-3.836c-5.623-2.81-12.002-3.261-17.966-1.272c-5.962,1.989-10.793,6.182-13.603,11.804
	l-68.143,136.376c-4.594,9.193-2.58,19.985,4.221,26.959H23.532c-4.705,0-8.532-3.828-8.532-8.532s3.828-8.532,8.532-8.532h53.774
	c4.142,0,7.5-3.358,7.5-7.5c0-4.142-3.358-7.5-7.5-7.5H23.532C10.557,144.297,0,154.854,0,167.829
	c0,10.718,7.206,19.779,17.025,22.61l27.825,166.944c2.546,15.275,15.633,26.362,31.119,26.362h180.025c4.142,0,7.5-3.358,7.5-7.5
	S260.135,368.744,255.993,368.744z M200.4,368.744h-65.087l-4.272-49.128H200.4V368.744z M200.4,304.616h-70.664l-4.272-49.128
	H200.4V304.616z M104.832,191.36l4.272,49.128H40.573l-8.188-49.128H104.832z M200.4,191.36v49.128h-76.24l-4.272-49.128H200.4z
	 M43.073,255.488h67.335l4.272,49.128H51.261L43.073,255.488z M215.4,240.489v-49.128h80.512l-4.272,49.128H215.4z M375.227,240.489
	h-68.532l4.272-49.128h72.447L375.227,240.489z M400.801,167.829c0,4.705-3.827,8.532-8.532,8.532h-83.361
	c4.447-4.561,6.845-10.752,6.688-17.064h76.673C396.974,159.297,400.801,163.125,400.801,167.829z M220.123,15.912
	c1.221-0.61,2.52-0.899,3.8-0.899c3.133,0,6.153,1.73,7.646,4.718l68.143,136.375c2.103,4.209,0.389,9.344-3.819,11.447
	c-4.207,2.103-9.343,0.39-11.446-3.819L216.303,27.358C214.201,23.15,215.914,18.015,220.123,15.912z M116.089,156.107
	L184.232,19.73c1.019-2.039,2.771-3.558,4.932-4.28s4.475-0.557,6.515,0.461c4.208,2.103,5.921,7.237,3.818,11.446l-68.143,136.376
	c-2.103,4.209-7.236,5.922-11.447,3.819l0,0C115.7,165.45,113.986,160.316,116.089,156.107z M144.773,170.438l5.567-11.142h83.947
	c4.142,0,7.5-3.358,7.5-7.5c0-4.142-3.358-7.5-7.5-7.5h-76.452L207.9,44.098l63.128,126.34c1.121,2.243,2.563,4.219,4.23,5.922
	H140.543C142.21,174.658,143.652,172.681,144.773,170.438z M59.645,354.917l-5.884-35.3h62.223l4.272,49.128H75.967
	C67.845,368.744,60.98,362.929,59.645,354.917z"/>
<path d="M511.889,311.689c-0.182-3.186-2.359-5.907-5.427-6.784L394.33,272.842c-1.348-0.386-2.775-0.386-4.123,0l-112.132,32.063
	c-3.063,0.876-5.239,3.591-5.426,6.772c-0.079,1.358-1.798,33.743,11.568,74.601c12.354,37.765,40.5,90.076,104.427,124.812
	c1.116,0.606,2.348,0.91,3.581,0.91c1.173,0,2.348-0.275,3.423-0.827c64.085-32.866,92.291-85.336,104.667-123.565
	C513.683,346.322,511.968,313.084,511.889,311.689z M486.045,382.988c-7.333,22.65-18.018,43.168-31.756,60.986
	c-16.383,21.247-37.213,38.727-61.965,52.006c-45.776-25.888-77.279-64.159-93.669-113.811
	c-9.587-29.045-10.985-53.938-11.096-64.374l104.708-29.941l104.717,29.944C496.898,328.339,495.561,353.593,486.045,382.988z"/>
<path d="M390.207,306.19l-79.017,22.595c-3.535,1.011-5.816,4.435-5.388,8.085c3.896,33.172,19.813,95.048,82.661,136.736
	c1.255,0.833,2.7,1.25,4.146,1.25c1.403,0,2.808-0.393,4.04-1.181c62.393-39.889,78.214-102.849,82.091-136.828
	c0.416-3.644-1.863-7.053-5.39-8.062l-79.02-22.596C392.982,305.805,391.555,305.805,390.207,306.19z M463.015,341.432
	c-4.647,31.491-20.083,82.632-70.334,116.892c-50.794-35.72-66.419-86.067-71.128-116.9l70.716-20.222L463.015,341.432z"/>
<g>
</g>
<g>
</g>
<g>
</g>
<g>
</g>
<g>
</g>
<g>
</g>
<g>
</g>
<g>
</g>
<g>
</g>
<g>
</g>
<g>
</g>
<g>
</g>
<g>
</g>
<g>
</g>
<g>
</g>
</svg>
