<?xml version="1.0" encoding="iso-8859-1"?>
<!-- Generator: Adobe Illustrator 19.0.0, SVG Export Plug-In . SVG Version: 6.00 Build 0)  -->
<svg version="1.1" id="Capa_1" xmlns="http://www.w3.org/2000/svg" xmlns:xlink="http://www.w3.org/1999/xlink" x="0px" y="0px"
	 viewBox="0 0 512 512" style="enable-background:new 0 0 512 512;" xml:space="preserve">
<path style="fill:#EDEBED;" d="M480.446,43.58h-192.42c-13.284,0-24.052,10.769-24.052,24.052V236
	c0,13.284,10.769,24.052,24.052,24.052h40.088v46.445c0,3.572,4.318,5.36,6.843,2.835l49.279-49.279h96.211
	c13.284,0,24.052-10.769,24.052-24.052V67.632C504.499,54.348,493.73,43.58,480.446,43.58z"/>
<path style="fill:#E6646E;" d="M372.314,389.241l-96.078-55.318c-9.323-5.367-21.086-3.812-28.692,3.795l-24.861,24.861
	c-7.605,7.605-19.692,8.21-28.062,1.454c-14.625-11.805-29.237-24.917-43.526-39.207c-14.289-14.289-27.402-28.903-39.207-43.526
	c-6.756-8.369-6.151-20.457,1.454-28.062l24.861-24.861c7.606-7.606,9.162-19.369,3.795-28.692l-55.317-96.079
	c-7.811-13.566-26.37-16.021-37.438-4.952l-28.516,28.516c-37.161,37.161,6.144,140.718,96.726,231.3s194.137,133.887,231.3,96.726
	l28.516-28.516C388.335,415.61,385.881,397.052,372.314,389.241z"/>
<path style="fill:#DC4655;" d="M137.495,338.426C46.914,247.844,3.608,144.289,40.771,107.127l-20.043,20.043
	c-37.161,37.161,6.143,140.718,96.725,231.3s194.137,133.887,231.3,96.725l20.043-20.043
	C331.633,472.313,228.077,429.008,137.495,338.426z"/>
<path style="fill:#DBD9DC;" d="M288.026,139.79V43.58c-13.284,0-24.052,10.769-24.052,24.052V236
	c0,13.284,10.769,24.052,24.052,24.052h40.088v46.445c0,3.572,4.318,5.36,6.843,2.835l49.279-49.279h96.211
	c13.284,0,24.052-10.769,24.052-24.052H384.237C331.1,236,288.026,192.925,288.026,139.79z"/>
<path d="M376.057,382.741l-96.078-55.317c-12.236-7.044-27.755-4.993-37.739,4.991l-24.861,24.861
	c-4.885,4.886-12.644,5.282-18.045,0.921c-14.666-11.84-29.11-24.852-42.934-38.675c-13.823-13.823-26.836-28.269-38.675-42.934
	c-4.361-5.402-3.965-13.159,0.922-18.045l24.861-24.861c9.983-9.984,12.035-25.503,4.991-37.738L93.182,99.864
	c-4.897-8.504-13.285-14.12-23.015-15.408c-9.723-1.284-19.289,1.954-26.23,8.895l-28.516,28.516
	c-40.705,40.705,1.781,146.963,96.725,241.908c70.565,70.564,147.368,112.152,198.875,112.146
	c17.795-0.002,32.582-4.969,43.033-15.421l28.516-28.516c6.939-6.939,10.182-16.5,8.895-26.23
	C390.179,396.026,384.563,387.637,376.057,382.741z M343.446,449.891c-15.452,15.452-47.317,14.695-87.418-2.075
	c-42.807-17.901-90.137-51.515-133.272-94.65C79.62,310.031,46.007,262.7,28.105,219.894c-16.771-40.104-17.526-71.967-2.074-87.419
	l14.644-14.644l5.198,9.028c1.389,2.41,3.913,3.76,6.508,3.76c1.27,0,2.557-0.323,3.736-1.002c3.591-2.067,4.825-6.653,2.758-10.244
	l-7.214-12.528l2.885-2.885c3.094-3.093,7.185-4.774,11.476-4.774c0.722,0,1.449,0.047,2.178,0.144
	c5.064,0.669,9.432,3.593,11.98,8.02l55.318,96.079c3.668,6.369,2.599,14.447-2.598,19.644l-9.087,9.088l-48.907-84.945
	c-2.067-3.591-6.654-4.825-10.244-2.757c-3.591,2.066-4.825,6.653-2.758,10.244l50.924,88.445l-4.788,4.788
	c-10.324,10.323-11.178,26.693-1.987,38.078c12.172,15.078,25.542,29.922,39.74,44.12c14.197,14.197,29.041,27.568,44.119,39.739
	c11.384,9.191,27.755,8.338,38.078-1.986l3.456-3.456l18.519,10.569c1.173,0.669,2.45,0.988,3.712,0.988
	c2.605,0,5.138-1.359,6.522-3.785c2.054-3.598,0.802-8.179-2.796-10.233l-14.959-8.537l10.408-10.408
	c5.196-5.197,13.273-6.266,19.645-2.598l96.078,55.318c4.428,2.549,7.351,6.916,8.021,11.98c0.67,5.065-1.018,10.042-4.631,13.653
	l-3.804,3.804l-82.26-46.947c-3.596-2.052-8.179-0.802-10.233,2.796c-2.053,3.599-0.802,8.179,2.796,10.233l78.7,44.915
	L343.446,449.891z"/>
<path d="M395.255,79.501c-15.565-3.244-31.436,0.547-43.552,10.398c-12.116,9.852-19.066,24.45-19.066,40.052
	c0,4.143,3.358,7.501,7.501,7.501s7.501-3.359,7.501-7.501c0-11.065,4.931-21.421,13.527-28.412
	c8.595-6.989,19.901-9.669,31.026-7.351c13.763,2.868,24.936,14.042,27.805,27.805c4.006,19.221-6.999,37.761-25.598,43.125
	c-10.566,3.047-17.666,12.2-17.666,22.776c0,4.143,3.358,7.501,7.501,7.501c4.144,0,7.501-3.359,7.501-7.501
	c0-3.825,2.74-7.185,6.82-8.36c26.221-7.562,41.752-33.615,36.128-60.601C430.62,99.415,414.773,83.569,395.255,79.501z"/>
<path d="M384.317,209.14h-0.08c-4.144,0-7.461,3.359-7.461,7.501c0,4.143,3.398,7.501,7.541,7.501s7.501-3.359,7.501-7.501
	C391.818,212.498,388.459,209.14,384.317,209.14z"/>
<path d="M480.446,36.079h-192.42c-17.399,0-31.553,14.154-31.553,31.553V236c0,17.399,14.154,31.553,31.553,31.553h32.587v38.944
	c0,4.672,2.789,8.847,7.105,10.634c1.433,0.593,2.932,0.881,4.416,0.881c2.99,0,5.92-1.169,8.127-3.377l47.081-47.082h93.103
	C497.844,267.554,512,253.399,512,236V67.632C512,50.233,497.845,36.079,480.446,36.079z M496.998,236
	c0,9.127-7.425,16.551-16.552,16.551h-96.21c-1.989,0-3.897,0.79-5.305,2.197l-43.316,43.317v-38.013
	c0-4.143-3.358-7.501-7.501-7.501h-40.088c-9.127,0-16.551-7.424-16.551-16.551V67.632c0-9.127,7.424-16.551,16.551-16.551h192.42
	c9.127,0,16.552,7.424,16.552,16.551L496.998,236L496.998,236z"/>
<g>
</g>
<g>
</g>
<g>
</g>
<g>
</g>
<g>
</g>
<g>
</g>
<g>
</g>
<g>
</g>
<g>
</g>
<g>
</g>
<g>
</g>
<g>
</g>
<g>
</g>
<g>
</g>
<g>
</g>
</svg>
