<?xml version="1.0" encoding="iso-8859-1"?>
<!-- Generator: Adobe Illustrator 19.0.0, SVG Export Plug-In . SVG Version: 6.00 Build 0)  -->
<svg version="1.1" id="Capa_1" xmlns="http://www.w3.org/2000/svg" xmlns:xlink="http://www.w3.org/1999/xlink" x="0px" y="0px"
	 viewBox="0 0 512.002 512.002" style="enable-background:new 0 0 512.002 512.002;" xml:space="preserve">
<path style="fill:#EDEBED;" d="M495.93,448.547c-159.953-11.901-319.907-11.901-479.86,0c-5.045,0.375-9.124-3.923-8.508-8.944
	c15.018-122.401,15.018-244.801,0-367.202c-0.616-5.021,3.464-9.32,8.508-8.944c159.953,11.901,319.907,11.901,479.86,0
	c5.045-0.375,9.124,3.923,8.508,8.944c-15.018,122.4-15.018,244.801,0,367.201C505.054,444.624,500.975,448.922,495.93,448.547z"/>
<path style="fill:#DBD9DC;" d="M239.968,376.244c-88.544,0-160.323-71.779-160.323-160.323V67.529
	c-21.189-1.159-42.379-2.494-63.569-4.071c-5.047-0.376-9.131,3.925-8.514,8.948c15.017,122.397,15.017,244.794,0,367.19
	c-0.616,5.024,3.466,9.326,8.514,8.951c159.949-11.9,319.898-11.9,479.846,0c5.054,0.376,9.13-3.932,8.513-8.962
	c-2.59-21.114-4.568-42.227-6.264-63.341L239.968,376.244L239.968,376.244z"/>
<g>
	<path style="fill:#FF8087;" d="M432.355,392.276H79.645c-8.854,0-16.032-7.178-16.032-16.032V215.921
		c0-8.854,7.178-16.032,16.032-16.032h352.71c8.854,0,16.032,7.178,16.032,16.032v160.323
		C448.387,385.098,441.209,392.276,432.355,392.276z"/>
	<circle style="fill:#FF8087;" cx="424.34" cy="127.742" r="24.05"/>
</g>
<path style="fill:#E6646E;" d="M79.645,215.921v-16.032c-8.854,0-16.032,7.178-16.032,16.032v160.323
	c0,8.854,7.178,16.032,16.032,16.032h352.71c8.854,0,16.032-7.178,16.032-16.032H239.968
	C151.424,376.244,79.645,304.465,79.645,215.921z"/>
<path d="M511.883,73.315c0.568-4.636-0.945-9.226-4.155-12.593c-3.204-3.361-7.708-5.089-12.354-4.745
	c-158.836,11.818-319.91,11.818-478.747,0c-4.644-0.345-9.149,1.383-12.354,4.744c-3.209,3.366-4.724,7.956-4.156,12.593
	c14.874,121.222,14.874,244.152,0,365.375c-0.568,4.637,0.946,9.227,4.156,12.593c3.204,3.361,7.705,5.088,12.354,4.744
	c158.837-11.818,319.911-11.818,478.747,0c0.391,0.029,0.78,0.043,1.169,0.043c4.227,0,8.251-1.71,11.186-4.788
	c3.21-3.367,4.724-7.957,4.155-12.593C497.009,317.467,497.009,194.537,511.883,73.315z M496.994,440.516
	c0.01,0.076,0.031,0.253-0.123,0.416c-0.129,0.135-0.263,0.146-0.385,0.136c-79.787-5.936-160.137-8.904-240.486-8.904
	s-160.699,2.968-240.487,8.904c-0.119,0.008-0.254,0-0.383-0.136c-0.155-0.163-0.133-0.34-0.124-0.416
	c15.022-122.435,15.022-246.594,0-369.028c-0.009-0.076-0.031-0.253,0.124-0.416c0.128-0.136,0.265-0.145,0.383-0.136
	c159.575,11.872,321.399,11.872,480.973,0c0.122-0.01,0.256,0.001,0.385,0.136c0.154,0.163,0.133,0.34,0.123,0.416
	C481.972,193.922,481.972,318.082,496.994,440.516z"/>
<path d="M87.663,384.776h-8.018c-4.705,0-8.532-3.828-8.532-8.533V215.921c0-4.705,3.828-8.532,8.532-8.532h312.631
	c4.143,0,7.5-3.358,7.5-7.5s-3.357-7.5-7.5-7.5H79.645c-12.976,0-23.532,10.557-23.532,23.532v160.322
	c0,12.976,10.557,23.533,23.532,23.533h8.018c4.142,0,7.5-3.358,7.5-7.5S91.805,384.776,87.663,384.776z"/>
<path d="M432.355,192.389h-8.016c-4.143,0-7.5,3.358-7.5,7.5s3.357,7.5,7.5,7.5h8.016c4.705,0,8.532,3.828,8.532,8.532v160.322
	c0,4.705-3.827,8.533-8.532,8.533H119.726c-4.142,0-7.5,3.358-7.5,7.5s3.358,7.5,7.5,7.5h312.629
	c12.976,0,23.532-10.557,23.532-23.533V215.921C455.887,202.946,445.33,192.389,432.355,192.389z"/>
<path d="M239.968,248.502H103.693c-4.142,0-7.5,3.358-7.5,7.5c0,4.142,3.358,7.5,7.5,7.5h136.274c4.142,0,7.5-3.358,7.5-7.5
	C247.468,251.86,244.11,248.502,239.968,248.502z"/>
<path d="M392.79,256.002c0,4.142,3.357,7.5,7.5,7.5h16.032c4.143,0,7.5-3.358,7.5-7.5c0-4.142-3.357-7.5-7.5-7.5H400.29
	C396.148,248.502,392.79,251.86,392.79,256.002z"/>
<path d="M352.193,248.502c-4.143,0-7.5,3.358-7.5,7.5c0,4.142,3.357,7.5,7.5,7.5h16.032c4.143,0,7.5-3.358,7.5-7.5
	c0-4.142-3.357-7.5-7.5-7.5H352.193z"/>
<path d="M239.968,288.583H103.693c-4.142,0-7.5,3.358-7.5,7.5s3.358,7.5,7.5,7.5h136.274c4.142,0,7.5-3.358,7.5-7.5
	S244.11,288.583,239.968,288.583z"/>
<path d="M247.468,336.163c0-4.142-3.358-7.5-7.5-7.5H103.693c-4.142,0-7.5,3.358-7.5,7.5s3.358,7.5,7.5,7.5h136.274
	C244.11,343.663,247.468,340.305,247.468,336.163z"/>
<path d="M424.339,96.195c-17.396,0-31.549,14.152-31.549,31.548s14.152,31.549,31.549,31.549c17.396,0,31.548-14.153,31.548-31.549
	S441.734,96.195,424.339,96.195z M424.339,144.293c-9.125,0-16.549-7.424-16.549-16.549s7.424-16.548,16.549-16.548
	s16.548,7.423,16.548,16.548C440.887,136.869,433.464,144.293,424.339,144.293z"/>
<g>
</g>
<g>
</g>
<g>
</g>
<g>
</g>
<g>
</g>
<g>
</g>
<g>
</g>
<g>
</g>
<g>
</g>
<g>
</g>
<g>
</g>
<g>
</g>
<g>
</g>
<g>
</g>
<g>
</g>
</svg>
