<?xml version="1.0" encoding="iso-8859-1"?>
<!-- Generator: Adobe Illustrator 19.0.0, SVG Export Plug-In . SVG Version: 6.00 Build 0)  -->
<svg version="1.1" id="Capa_1" xmlns="http://www.w3.org/2000/svg" xmlns:xlink="http://www.w3.org/1999/xlink" x="0px" y="0px"
	 viewBox="0 0 511.999 511.999" style="enable-background:new 0 0 511.999 511.999;" xml:space="preserve">
<path style="fill:#FFE17D;" d="M256.001,39.565c-98.509,0-179.726,64.783-191.04,148.316c-0.676,4.99,4.682,8.709,8.994,6.109
	c10.169-6.133,26.88-10.134,45.773-10.134c23.802,0,44.142,6.351,52.298,15.315c2.189,2.406,5.801,2.932,8.267,0.811
	c10.916-9.389,40.69-16.125,75.709-16.125s64.793,6.736,75.709,16.125c2.466,2.121,6.078,1.595,8.267-0.811
	c8.156-8.964,28.496-15.315,52.298-15.315c18.892,0,35.604,4.001,45.773,10.134c4.312,2.6,9.669-1.119,8.994-6.109
	C435.727,104.348,354.51,39.565,256.001,39.565z"/>
<path style="fill:#FFC350;" d="M64.961,187.881c-0.676,4.99,4.682,8.709,8.993,6.108c10.169-6.133,26.881-10.134,45.773-10.134
	c23.802,0,44.142,6.351,52.298,15.314c2.189,2.406,5.801,2.932,8.267,0.811c10.916-9.389,40.69-16.125,75.709-16.125V39.565
	C157.492,39.565,76.275,104.348,64.961,187.881z"/>
<path style="fill:#FFD164;" d="M256.001,39.565c-43.203,0-78.326,71.826-80.001,161.691c1.503,0.183,3.044-0.202,4.292-1.276
	c10.916-9.389,40.69-16.125,75.709-16.125s64.792,6.736,75.709,16.125c1.249,1.074,2.789,1.459,4.292,1.276
	C334.327,111.391,299.204,39.565,256.001,39.565z"/>
<path d="M396.978,83.226c-35.927-31.437-83.081-49.402-133.477-51.028V7.5c0-4.142-3.357-7.5-7.5-7.5c-4.143,0-7.5,3.358-7.5,7.5
	v24.698c-50.396,1.625-97.55,19.591-133.477,51.027c-37.989,33.24-58.91,77.518-58.91,124.678c0,4.142,3.357,7.5,7.5,7.5
	s7.5-3.358,7.5-7.5c0-5.617,17.158-16.548,48.612-16.548s48.613,10.932,48.613,16.548c0,0.008,0,0.016,0,0.024
	c0.013,4.131,3.365,7.482,7.5,7.482c4.002,0,7.271-3.127,7.488-7.075c0.008-0.141,0.012-0.281,0.012-0.424
	c0.54-3.788,21.154-15.256,65.161-16.448v284.98c0,19.606,15.95,35.557,35.557,35.557s35.557-15.951,35.557-35.557v-28.056
	c0-4.142-3.357-7.5-7.5-7.5s-7.5,3.358-7.5,7.5v28.056c0,11.335-9.222,20.557-20.557,20.557s-20.557-9.222-20.557-20.557v-284.98
	c44.007,1.192,64.622,12.66,65.161,16.448c0.004,4.139,3.36,7.492,7.5,7.492c4.143,0,7.5-3.358,7.5-7.5
	c0-5.617,17.159-16.548,48.613-16.548s48.612,10.932,48.612,16.548c0,4.142,3.357,7.5,7.5,7.5s7.5-3.358,7.5-7.5
	C455.888,160.744,434.967,116.465,396.978,83.226z M434.907,184.005c-11.511-4.933-26.65-7.65-42.632-7.65
	s-31.121,2.717-42.633,7.65c-2.392,1.025-4.587,2.138-6.592,3.323c-0.388-6.869-0.947-13.681-1.725-20.372
	c-0.478-4.114-4.2-7.058-8.316-6.583c-4.114,0.479-7.063,4.202-6.584,8.316c0.773,6.642,1.322,13.411,1.695,20.239
	c-16.917-8.545-45.163-12.572-72.109-12.573c-0.004,0-0.007,0-0.011,0c-0.004,0-0.007,0-0.011,0
	c-26.944,0.001-55.188,4.027-72.105,12.571c0.371-6.829,0.918-13.598,1.691-20.241c0.479-4.115-2.47-7.838-6.584-8.316
	c-4.096-0.473-7.838,2.468-8.316,6.583c-0.778,6.692-1.337,13.505-1.726,20.374c-2.005-1.185-4.199-2.297-6.591-3.322
	c-11.512-4.933-26.651-7.65-42.633-7.65s-31.121,2.717-42.632,7.65c-1.501,0.644-2.928,1.32-4.277,2.027
	c10.488-66.827,68.346-120.71,143.073-135.146c-17.248,17.418-31.275,46.188-39.652,83.215c-0.914,4.04,1.62,8.056,5.66,8.97
	c4.045,0.916,8.056-1.621,8.971-5.66c12.414-54.88,37.977-90.341,65.125-90.346c0.002,0,0.004,0,0.005,0s0.004,0,0.005,0
	c27.151,0.005,52.716,35.472,65.129,90.361c0.788,3.483,3.882,5.848,7.309,5.847c0.548,0,1.104-0.06,1.661-0.186
	c4.04-0.914,6.574-4.93,5.661-8.97c-8.376-37.034-22.405-65.81-39.655-83.23c74.727,14.436,132.585,68.319,143.073,135.146
	C437.835,185.325,436.408,184.648,434.907,184.005z"/>
<g>
</g>
<g>
</g>
<g>
</g>
<g>
</g>
<g>
</g>
<g>
</g>
<g>
</g>
<g>
</g>
<g>
</g>
<g>
</g>
<g>
</g>
<g>
</g>
<g>
</g>
<g>
</g>
<g>
</g>
</svg>
