<?xml version="1.0" encoding="iso-8859-1"?>
<!-- Generator: Adobe Illustrator 19.0.0, SVG Export Plug-In . SVG Version: 6.00 Build 0)  -->
<svg version="1.1" id="Capa_1" xmlns="http://www.w3.org/2000/svg" xmlns:xlink="http://www.w3.org/1999/xlink" x="0px" y="0px"
	 viewBox="0 0 512 512" style="enable-background:new 0 0 512 512;" xml:space="preserve">
<path style="fill:#FFE17D;" d="M198.247,9.727L19.188,96.169c-2.245,1.084-3.672,3.357-3.672,5.85v212.704
	c0,2.493,1.427,4.766,3.672,5.85l179.059,86.442c3.568,1.723,7.728,1.723,11.296,0l179.059-86.442
	c2.245-1.084,3.672-3.357,3.672-5.85V102.019c0-2.493-1.427-4.766-3.672-5.85L209.543,9.727
	C205.975,8.004,201.816,8.004,198.247,9.727z"/>
<path style="fill:#FFC350;" d="M16.596,98.463c-0.683,1.04-1.08,2.263-1.08,3.556v212.704c0,2.493,1.427,4.766,3.672,5.85
	l179.059,86.442c1.784,0.861,3.716,1.292,5.648,1.292V188.883L16.596,98.463z"/>
<path style="fill:#FFD164;" d="M391.194,98.463c0.683,1.04,1.08,2.263,1.08,3.556v212.704c0,2.493-1.427,4.766-3.672,5.85
	l-179.059,86.442c-1.784,0.861-3.716,1.292-5.648,1.292V188.883L391.194,98.463z"/>
<polygon style="fill:#FF8087;" points="327.722,129 139.765,38.199 90.218,62.215 278.597,153.156 "/>
<path style="fill:#E6646E;" d="M278.597,153.156v70.451c0,2.395,2.503,3.966,4.66,2.925l40.793-19.693
	c2.245-1.084,3.672-3.357,3.672-5.85V129L278.597,153.156z"/>
<circle style="fill:#EDEBED;" cx="384.26" cy="392.27" r="112.23"/>
<circle style="fill:#FFFFFF;" cx="384.26" cy="392.27" r="88.18"/>
<circle style="fill:#EDEBED;" cx="384.26" cy="392.27" r="40.08"/>
<circle style="fill:#AEA8AF;" cx="384.26" cy="392.27" r="16.03"/>
<path d="M241.999,162.66l-38.104,18.396L32.767,98.442L89.87,70.875l181.227,87.489v72.104c0,2.581,1.327,4.98,3.513,6.353
	c1.214,0.762,2.599,1.147,3.988,1.147c1.112,0,2.227-0.247,3.26-0.746l45.471-21.952c2.592-1.251,4.239-3.875,4.239-6.754v-72.439
	l53.207-25.686v137.594c0,4.142,3.358,7.5,7.5,7.5s7.5-3.358,7.5-7.5V98.442c0-2.878-1.647-5.503-4.239-6.754L207.156,0.746
	c-2.061-0.995-4.461-0.995-6.521,0L12.255,91.688c-2.592,1.251-4.239,3.875-4.239,6.754V319.3c0,2.878,1.647,5.503,4.239,6.754
	l188.379,90.941c1.03,0.498,2.146,0.746,3.261,0.746s2.23-0.249,3.261-0.746l38.128-18.406c3.73-1.801,5.294-6.285,3.494-10.015
	c-1.801-3.73-6.285-5.292-10.015-3.494l-27.367,13.212V194.091l37.125-17.923c3.73-1.801,5.294-6.284,3.493-10.015
	C250.213,162.424,245.729,160.861,241.999,162.66z M139.772,47.031l170.873,82.491l-32.396,15.639l-170.807-82.46L139.772,47.031z
	 M316.568,203.808l-30.471,14.71v-60.49l30.471-14.71V203.808z M203.895,15.828l171.128,82.613l-47.176,22.775
	c-0.172-0.101-0.337-0.21-0.518-0.297l-170.561-82.34L203.895,15.828z M23.016,110.391l173.379,83.7v204.202l-173.379-83.7
	C23.016,314.593,23.016,110.391,23.016,110.391z"/>
<path d="M78.863,289.937l-27.645-13.346c-3.731-1.803-8.214-0.237-10.015,3.493s-0.237,8.214,3.493,10.015l27.645,13.346
	c1.051,0.508,2.162,0.748,3.255,0.748c2.788,0,5.466-1.562,6.759-4.241C84.157,296.221,82.593,291.738,78.863,289.937z"/>
<path d="M104.305,268.366l-53.049-25.61c-3.732-1.803-8.215-0.237-10.015,3.493c-1.801,3.73-0.237,8.214,3.493,10.015l53.049,25.609
	c1.051,0.508,2.162,0.748,3.255,0.748c2.788,0,5.466-1.562,6.759-4.241C109.599,274.651,108.035,270.167,104.305,268.366z"/>
<path d="M384.258,272.549c-66.017,0-119.726,53.709-119.726,119.726S318.241,512,384.258,512s119.726-53.708,119.726-119.726
	S450.276,272.549,384.258,272.549z M384.258,497c-57.746,0-104.726-46.979-104.726-104.726s46.98-104.726,104.726-104.726
	s104.726,46.98,104.726,104.726S442.005,497,384.258,497z"/>
<path d="M464.42,384.775h-57.862c-2.344-6.951-7.849-12.456-14.8-14.8v-57.862c0-4.142-3.358-7.5-7.5-7.5s-7.5,3.358-7.5,7.5v57.862
	c-9.308,3.139-16.033,11.946-16.033,22.3c0,12.976,10.557,23.532,23.533,23.532c10.353,0,19.16-6.724,22.3-16.032h57.862
	c4.142,0,7.5-3.358,7.5-7.5S468.562,384.775,464.42,384.775z M384.258,400.807c-4.705,0-8.533-3.828-8.533-8.532
	c0-4.705,3.828-8.533,8.533-8.533s8.532,3.828,8.532,8.533C392.791,396.979,388.963,400.807,384.258,400.807z"/>
<g>
</g>
<g>
</g>
<g>
</g>
<g>
</g>
<g>
</g>
<g>
</g>
<g>
</g>
<g>
</g>
<g>
</g>
<g>
</g>
<g>
</g>
<g>
</g>
<g>
</g>
<g>
</g>
<g>
</g>
</svg>
