<?xml version="1.0" encoding="iso-8859-1"?>
<!-- Generator: Adobe Illustrator 19.0.0, SVG Export Plug-In . SVG Version: 6.00 Build 0)  -->
<svg version="1.1" id="Capa_1" xmlns="http://www.w3.org/2000/svg" xmlns:xlink="http://www.w3.org/1999/xlink" x="0px" y="0px"
	 viewBox="0 0 512 512" style="enable-background:new 0 0 512 512;" xml:space="preserve">
<path style="fill:#AEA8AF;" d="M493.537,252.346l-61.182-20.394l-28.227-77.624c-2.304-6.336-8.325-10.553-15.067-10.553h-92.98
	v200.403H464.42l24.964-9.986c9.13-3.652,15.117-12.495,15.117-22.328v-44.308C504.5,260.655,500.084,254.528,493.537,252.346z"/>
<polygon style="fill:#6F6571;" points="296.081,175.839 296.081,231.952 432.355,231.952 411.951,175.839 "/>
<polygon style="fill:#5D5360;" points="420.695,199.887 411.951,175.839 296.081,175.839 296.081,199.887 "/>
<path style="fill:#9C969E;" d="M296.081,288.065v56.113H464.42l24.964-9.986c9.13-3.652,15.117-12.495,15.117-22.328v-23.799
	H296.081z"/>
<rect x="296.08" y="320.13" style="fill:#867E88;" width="136.27" height="24.05"/>
<path style="fill:#EDEBED;" d="M304.097,344.177H15.516c-4.427,0-8.016-3.589-8.016-8.016V119.726c0-4.427,3.589-8.016,8.016-8.016
	h288.581c4.427,0,8.016,3.589,8.016,8.016v216.435C312.113,340.588,308.524,344.177,304.097,344.177z"/>
<path style="fill:#DBD9DC;" d="M304.097,344.177H15.516c-4.427,0-8.016-3.589-8.016-8.016v-48.097h304.613v48.097
	C312.113,340.588,308.524,344.177,304.097,344.177z"/>
<g>
	<circle style="fill:#6F6571;" cx="111.71" cy="360.21" r="40.08"/>
	<circle style="fill:#6F6571;" cx="432.36" cy="360.21" r="40.08"/>
</g>
<path d="M111.709,344.693c-8.556,0-15.516,6.96-15.516,15.516s6.96,15.516,15.516,15.516s15.516-6.96,15.516-15.516
	S120.265,344.693,111.709,344.693z"/>
<path d="M432.355,344.693c-8.556,0-15.516,6.96-15.516,15.516s6.96,15.516,15.516,15.516s15.516-6.96,15.516-15.516
	S440.911,344.693,432.355,344.693z"/>
<path d="M495.909,245.23l-57.744-19.248l-26.989-74.218c-3.369-9.265-12.256-15.49-22.115-15.49h-69.448v-16.549
	c0-8.556-6.96-15.516-15.516-15.516H15.516C6.96,104.209,0,111.17,0,119.726v216.436c0,8.556,6.96,15.516,15.516,15.516H64.91
	c-0.504,2.77-0.781,5.619-0.781,8.532c0,26.236,21.345,47.581,47.581,47.581s47.581-21.345,47.581-47.581
	c0-2.914-0.277-5.762-0.781-8.532h227.047c-0.504,2.77-0.781,5.619-0.781,8.532c0,26.236,21.345,47.581,47.581,47.581
	s47.581-21.345,47.581-47.581c0-3.706-0.44-7.31-1.245-10.774l15.871-7.935C505.318,336.122,512,325.309,512,313.282v-45.727
	C512,257.411,505.534,248.439,495.909,245.23z M319.613,183.339h55.02l14.95,41.113h-69.97V183.339z M405.544,224.452l-14.95-41.113
	h16.104l14.95,41.113H405.544z M389.061,151.274c3.575,0,6.797,2.257,8.019,5.616l4.163,11.448h-81.63v-17.064H389.061z
	 M15.516,119.209h288.581c0.285,0,0.516,0.231,0.516,0.516v160.839H15V119.726C15,119.441,15.231,119.209,15.516,119.209z
	 M111.709,392.791c-17.965,0-32.581-14.616-32.581-32.581s14.616-32.581,32.581-32.581s32.581,14.616,32.581,32.581
	C144.291,378.175,129.675,392.791,111.709,392.791z M111.709,312.629c-17.679,0-33.125,9.699-41.328,24.048H15.516
	c-0.285,0-0.516-0.231-0.516-0.516v-40.597h289.613v41.113H153.038C144.835,322.328,129.388,312.629,111.709,312.629z
	 M432.355,392.791c-17.965,0-32.581-14.616-32.581-32.581s14.616-32.581,32.581-32.581s32.581,14.616,32.581,32.581
	S450.32,392.791,432.355,392.791z M487.853,328.084l-14.847,7.423c-8.36-13.707-23.454-22.878-40.651-22.878
	c-17.679,0-33.125,9.699-41.328,24.048h-71.414v-41.113h136.791c4.142,0,7.5-3.358,7.5-7.5s-3.358-7.5-7.5-7.5H319.613v-41.113
	h111.525l60.028,20.009c3.49,1.163,5.834,4.416,5.834,8.094v13.009h-8.532c-4.142,0-7.5,3.358-7.5,7.5s3.358,7.5,7.5,7.5H497v17.718
	C497,319.591,493.495,325.262,487.853,328.084z"/>
<path d="M71.629,207.387h148.113L188.15,225.44c-3.596,2.055-4.846,6.636-2.791,10.233c1.384,2.422,3.915,3.78,6.519,3.78
	c1.262,0,2.541-0.319,3.714-0.99l56.113-32.064c2.336-1.335,3.779-3.82,3.779-6.512s-1.442-5.176-3.779-6.512l-56.113-32.064
	c-3.595-2.055-8.177-0.805-10.233,2.791c-2.055,3.597-0.806,8.178,2.791,10.233l31.592,18.053H71.629c-4.142,0-7.5,3.358-7.5,7.5
	S67.487,207.387,71.629,207.387z"/>
<g>
</g>
<g>
</g>
<g>
</g>
<g>
</g>
<g>
</g>
<g>
</g>
<g>
</g>
<g>
</g>
<g>
</g>
<g>
</g>
<g>
</g>
<g>
</g>
<g>
</g>
<g>
</g>
<g>
</g>
</svg>
