<?xml version="1.0" encoding="iso-8859-1"?>
<!-- Generator: Adobe Illustrator 19.0.0, SVG Export Plug-In . SVG Version: 6.00 Build 0)  -->
<svg version="1.1" id="Capa_1" xmlns="http://www.w3.org/2000/svg" xmlns:xlink="http://www.w3.org/1999/xlink" x="0px" y="0px"
	 viewBox="0 0 512 512" style="enable-background:new 0 0 512 512;" xml:space="preserve">
<path style="fill:#E6646E;" d="M255.813,7.5C142.428,7.498,60.688,115.181,83.768,226.191
	c24.14,116.112,141.887,177.32,154.85,262.98c1.316,8.693,8.395,15.328,17.187,15.328h0.004c8.8,0,15.877-6.646,17.195-15.347
	c14.469-95.496,159.16-160.607,159.16-305.298C432.164,86.458,353.209,7.502,255.813,7.5z"/>
<path style="fill:#DC4655;" d="M155.988,226.192C135.407,127.2,198.207,30.926,292.437,11.224
	c-14.343-2.989-29.319-4.256-44.712-3.519C132.439,13.227,60.156,115.081,84.6,227.882
	c24.924,115.015,141.586,176.044,154.49,261.285c1.316,8.695,8.394,15.333,17.188,15.333h0.408c8.583,0,15.481-6.495,16.737-14.985
	c0.033-0.221,0.066-0.442,0.1-0.662c6.216-40.223-3.491-81.236-29.723-112.356C207.935,333.948,168.796,287.796,155.988,226.192z"/>
<circle style="fill:#FF8087;" cx="255.809" cy="183.85" r="136.27"/>
<circle style="fill:#EDEBED;" cx="255.809" cy="183.85" r="104.21"/>
<circle style="fill:#FFFFFF;" cx="255.809" cy="183.85" r="80.16"/>
<circle style="fill:#EDEBED;" cx="255.809" cy="183.85" r="40.08"/>
<circle style="fill:#AEA8AF;" cx="255.809" cy="183.85" r="16.03"/>
<path d="M255.813,0c-0.003,0,0,0-0.003,0c-54.482,0-105.703,24.55-140.521,67.351c-36.547,44.927-50.712,103.378-38.864,160.367
	c13.116,63.087,53.323,110.766,88.797,152.832c30.943,36.692,60.169,71.35,65.98,109.744c1.904,12.578,12.25,21.706,24.607,21.706
	c12.353,0,22.704-9.136,24.611-21.723c5.816-38.388,35.039-73.041,65.978-109.728c43.718-51.84,93.268-110.598,93.268-196.694
	C439.665,82.479,357.189,0.001,255.813,0z M334.93,370.878c-32.342,38.352-62.891,74.577-69.341,117.151
	c-0.788,5.198-4.901,8.97-9.785,8.97c-4.877,0-8.986-3.764-9.771-8.95c-6.444-42.583-36.997-78.813-69.344-117.17
	c-36.004-42.694-73.235-86.843-85.579-146.215c-10.925-52.55,2.128-106.438,35.814-147.848
	C158.884,37.531,205.862,14.999,255.813,15c93.105,0.001,168.852,75.75,168.852,168.855c0,35.923-9.318,70.002-28.487,104.185
	C379.086,318.519,356.638,345.137,334.93,370.878z"/>
<path d="M255.81,40.081c-79.277,0-143.774,64.497-143.774,143.774s64.497,143.774,143.774,143.774s143.774-64.497,143.774-143.774
	S335.086,40.081,255.81,40.081z M255.81,312.629c-71.006,0-128.774-57.768-128.774-128.774S184.803,55.081,255.81,55.081
	s128.774,57.768,128.774,128.774S326.816,312.629,255.81,312.629z"/>
<path d="M255.81,104.209c-4.142,0-7.5,3.358-7.5,7.5v49.846c-9.308,3.139-16.032,11.946-16.032,22.3
	c0,12.976,10.557,23.532,23.532,23.532c10.353,0,19.16-6.724,22.299-16.032h49.846c4.143,0,7.5-3.358,7.5-7.5s-3.357-7.5-7.5-7.5
	h-49.846c-2.344-6.951-7.849-12.456-14.8-14.8v-49.846C263.309,107.567,259.952,104.209,255.81,104.209z M255.81,192.387
	c-4.705,0-8.532-3.828-8.532-8.532s3.828-8.532,8.532-8.532c4.705,0,8.532,3.828,8.532,8.532S260.514,192.387,255.81,192.387z"/>
<path d="M159.354,176.823c1.676-23.138,11.645-44.926,28.071-61.353s38.215-26.396,61.353-28.071
	c22.905-1.659,45.665,4.857,64.085,18.349c3.342,2.447,8.034,1.724,10.482-1.619c2.447-3.341,1.723-8.035-1.619-10.482
	c-21.287-15.593-47.582-23.127-74.032-21.208c-26.731,1.936-51.902,13.451-70.875,32.425c-18.974,18.974-30.49,44.145-32.426,70.875
	c-1.916,26.453,5.616,52.745,21.209,74.032c1.469,2.006,3.747,3.068,6.056,3.068c1.538,0,3.09-0.472,4.426-1.45
	c3.341-2.448,4.066-7.141,1.618-10.482C164.211,222.489,157.695,199.73,159.354,176.823z"/>
<path d="M346.017,117.938c-2.448-3.343-7.143-4.067-10.482-1.619c-3.342,2.447-4.066,7.141-1.619,10.482
	c13.492,18.418,20.008,41.178,18.35,64.084c-1.676,23.138-11.646,44.926-28.072,61.353c-16.426,16.426-38.214,26.396-61.352,28.072
	c-22.909,1.657-45.666-4.858-64.084-18.349c-3.34-2.447-8.035-1.723-10.482,1.618c-2.448,3.342-1.723,8.035,1.618,10.482
	c19.114,14,42.258,21.503,65.935,21.502c2.692,0,5.396-0.097,8.097-0.293c26.731-1.936,51.902-13.452,70.876-32.426
	s30.489-44.145,32.425-70.875C369.141,165.517,361.609,139.226,346.017,117.938z"/>
<g>
</g>
<g>
</g>
<g>
</g>
<g>
</g>
<g>
</g>
<g>
</g>
<g>
</g>
<g>
</g>
<g>
</g>
<g>
</g>
<g>
</g>
<g>
</g>
<g>
</g>
<g>
</g>
<g>
</g>
</svg>
