<?xml version="1.0" encoding="iso-8859-1"?>
<!-- Generator: Adobe Illustrator 19.0.0, SVG Export Plug-In . SVG Version: 6.00 Build 0)  -->
<svg version="1.1" id="Capa_1" xmlns="http://www.w3.org/2000/svg" xmlns:xlink="http://www.w3.org/1999/xlink" x="0px" y="0px"
	 viewBox="0 0 512 512" style="enable-background:new 0 0 512 512;" xml:space="preserve">
<path style="fill:#FFE17D;" d="M424.339,352.194H23.532c-8.854,0-16.032-7.178-16.032-16.032V63.613
	c0-8.854,7.178-16.032,16.032-16.032h400.806c8.854,0,16.032,7.178,16.032,16.032v272.548
	C440.371,345.016,433.193,352.194,424.339,352.194z"/>
<path style="fill:#FFD164;" d="M23.532,352.194h400.806c8.854,0,16.032-7.178,16.032-16.032V63.613c0-0.09-0.025-0.172-0.026-0.261
	l-166.331,160.39c-27.947,26.949-72.21,26.949-100.157,0L7.526,63.352C7.525,63.441,7.5,63.523,7.5,63.613v272.548
	C7.5,345.016,14.678,352.194,23.532,352.194z"/>
<circle style="fill:#EDEBED;" cx="392.27" cy="352.19" r="112.23"/>
<path style="fill:#E2E0E3;" d="M424.339,432.355c-61.98,0-112.226-50.245-112.226-112.226c0-22.787,6.836-43.956,18.505-61.657
	c-30.447,20.071-50.569,54.527-50.569,93.721c0,61.981,50.245,112.226,112.226,112.226c39.194,0,73.65-20.122,93.722-50.569
	C468.294,425.519,447.125,432.355,424.339,432.355z"/>
<path style="fill:#FFC350;" d="M173.857,223.742L7.526,63.352C7.525,63.441,7.5,63.523,7.5,63.613v33.121l149.664,144.319
	c18.022,17.378,41.735,26.949,66.771,26.949s48.749-9.571,66.771-26.949L440.37,96.732v-33.12c0-0.09-0.025-0.172-0.026-0.261
	l-166.331,160.39C246.067,250.691,201.804,250.691,173.857,223.742z"/>
<path d="M247.983,344.693H23.532c-3.744,0-6.924-2.427-8.071-5.787l133.554-128.608l19.675,18.946
	c15.489,14.916,35.367,22.373,55.245,22.373s39.756-7.458,55.245-22.373l19.675-18.946l19.771,19.039
	c1.455,1.401,3.329,2.098,5.201,2.098c1.967,0,3.932-0.769,5.403-2.298c2.873-2.983,2.783-7.731-0.2-10.604l-19.363-18.646
	L432.87,81.247v134.67c0,4.142,3.357,7.5,7.5,7.5s7.5-3.358,7.5-7.5V63.613c0-12.976-10.557-23.532-23.532-23.532H23.532
	C10.557,40.081,0,50.637,0,63.613v272.548c0,12.976,10.557,23.532,23.532,23.532h224.451c4.143,0,7.5-3.358,7.5-7.5
	S252.126,344.693,247.983,344.693z M15,318.527V81.247l123.203,118.64L15,318.527z M23.532,55.081h400.807
	c3.744,0,6.924,2.427,8.071,5.787L268.776,218.44c-25.146,24.213-64.539,24.213-89.682,0L15.461,60.868
	C16.608,57.507,19.788,55.081,23.532,55.081z"/>
<path d="M392.274,232.468c-66.017,0-119.726,53.708-119.726,119.726s53.709,119.726,119.726,119.726S512,418.21,512,352.193
	S458.291,232.468,392.274,232.468z M392.274,456.919c-57.746,0-104.726-46.98-104.726-104.726s46.979-104.726,104.726-104.726
	S497,294.447,497,352.193S450.021,456.919,392.274,456.919z"/>
<path d="M443.083,318.834l-62.833,62.834l-34.777-34.778c-2.93-2.929-7.678-2.929-10.607,0s-2.929,7.678,0,10.606l40.081,40.081
	c1.407,1.407,3.314,2.197,5.304,2.197s3.896-0.79,5.304-2.197l68.137-68.137c2.929-2.929,2.929-7.678,0-10.606
	C450.761,315.905,446.013,315.905,443.083,318.834z"/>
<g>
</g>
<g>
</g>
<g>
</g>
<g>
</g>
<g>
</g>
<g>
</g>
<g>
</g>
<g>
</g>
<g>
</g>
<g>
</g>
<g>
</g>
<g>
</g>
<g>
</g>
<g>
</g>
<g>
</g>
</svg>
