<?xml version="1.0" encoding="iso-8859-1"?>
<!-- Generator: Adobe Illustrator 19.0.0, SVG Export Plug-In . SVG Version: 6.00 Build 0)  -->
<svg version="1.1" id="Capa_1" xmlns="http://www.w3.org/2000/svg" xmlns:xlink="http://www.w3.org/1999/xlink" x="0px" y="0px"
	 viewBox="0 0 511.999 511.999" style="enable-background:new 0 0 511.999 511.999;" xml:space="preserve">
<circle style="fill:#E2E0E3;" cx="256" cy="256.001" r="192"/>
<path style="fill:#C9C6CA;" d="M320,384.001c-106.039,0-192-85.961-192-192c0-36.618,10.26-70.835,28.048-99.952
	C100.849,125.773,64,186.58,64,256.001c0,106.039,85.961,192,192,192c69.421,0,130.229-36.849,163.951-92.048
	C390.836,373.741,356.617,384.001,320,384.001z"/>
<path style="fill:#DBD9DC;" d="M379.901,374.419c7.578,1.837,15.011,3.836,22.28,5.991c3.635-4.266,7.077-8.693,10.332-13.269
	c-2.791-0.878-5.729-1.604-8.565-2.437C396.213,368.471,388.175,371.704,379.901,374.419z"/>
<path d="M510.747,335.009c-1.552-2.335-4.276-3.606-7.063-3.305l-44.846,4.911c-4.117,0.451-7.09,4.154-6.639,8.272
	c0.45,4.117,4.149,7.088,8.271,6.639l21.398-2.344c-17.299,7.84-47.911,10.49-86.295,7.255c-11.056-0.932-22.674-2.341-34.708-4.188
	c8.836-26.999,13.836-57.244,14.522-88.75h65.067c-0.881,22.273-5.679,43.89-14.324,64.358c-1.611,3.816,0.176,8.215,3.991,9.827
	c0.953,0.402,1.941,0.593,2.915,0.593c2.924,0,5.703-1.721,6.912-4.584c7.666-18.153,12.536-37.136,14.57-56.656
	c16.289,12.276,28.5,24.195,35.589,34.818c1.445,2.166,3.822,3.338,6.245,3.338c1.431,0,2.877-0.409,4.156-1.262
	c3.445-2.299,4.375-6.956,2.075-10.402c-9.292-13.926-25.115-28.819-47.009-44.284c0.017-1.081,0.04-2.162,0.04-3.246
	c0-110.188-89.645-199.833-199.832-199.833c-45.69,0-90.361,15.819-125.782,44.544c-13.853,11.234-26.074,24.253-36.394,38.59
	c-29.481-0.732-49.327,2.518-62.638,6.98l5.789-9.892c2.093-3.575,0.891-8.169-2.685-10.261c-3.573-2.092-8.17-0.891-10.261,2.685
	L1.027,167.749c-1.416,2.419-1.364,5.427,0.134,7.797c1.382,2.185,3.781,3.491,6.337,3.491c0.216,0,0.433-0.009,0.649-0.028
	l44.945-3.896c4.127-0.358,7.183-3.993,6.824-8.12c-0.357-4.126-3.987-7.182-8.119-6.824l-19.989,1.732
	c12.115-4.922,29.954-7.578,52.036-7.702c-10.657,17.961-18.51,37.56-23.086,58.044c-0.903,4.042,1.642,8.052,5.684,8.955
	c4.041,0.902,8.052-1.641,8.955-5.684c5.409-24.21,15.774-47.084,30.178-67.17c14.857,3.989,30.056,7.357,45.558,10.094
	c-9.106,27.329-14.255,58.047-14.953,90.063H76.459c-26.759-17.404-46.212-34.604-55.708-49.44
	c-2.232-3.488-6.87-4.505-10.359-2.273c-3.489,2.233-4.507,6.872-2.273,10.36c9.16,14.31,25.464,29.799,47.877,45.626
	c-0.017,1.078-0.043,2.153-0.043,3.227c0,110.188,89.645,199.833,199.833,199.833c64.286,0,124.67-31.034,162.222-83.156
	c2.621,0.062,5.211,0.102,7.745,0.102c22.348,0,41.253-2.406,55.557-7.305l-5.267,9.484c-2.011,3.621-0.706,8.187,2.916,10.198
	c1.153,0.641,2.402,0.945,3.634,0.945c2.636,0,5.193-1.393,6.563-3.86l21.901-39.44C512.418,340.35,512.297,337.344,510.747,335.009
	z M71.117,263.501h0.929c5.239,3.324,10.726,6.655,16.469,9.984c15.515,8.996,32.426,17.734,50.389,26.087
	c2.491,18.961,6.609,37.121,12.23,53.991c-15.485,2.734-30.669,6.097-45.512,10.081C85.179,335.208,72.611,300.757,71.117,263.501z
	 M137.097,282.129c-12.562-6.039-24.532-12.265-35.802-18.628h34.885C136.317,269.765,136.623,275.98,137.097,282.129z
	 M151.183,263.501h97.102v62.071c-4.683-1.465-9.369-2.97-14.053-4.522c-28.601-9.477-56.028-20.139-81.418-31.596
	C151.929,280.945,151.382,272.278,151.183,263.501z M155.135,306.894c23.453,10.244,48.453,19.803,74.379,28.394
	c6.29,2.084,12.548,4.077,18.771,5.992v3.44c-28.069,0.301-55.524,2.437-82.152,6.398
	C161.357,337.258,157.665,322.414,155.135,306.894z M248.285,359.721v80.635c-24.42-3.107-47.393-21.341-65.355-52.134
	c-4.154-7.121-7.923-14.73-11.304-22.741C196.497,361.934,222.11,360.008,248.285,359.721z M263.285,440.356v-80.625
	c26.158,0.339,51.747,2.316,76.59,5.913c-3.364,7.952-7.11,15.506-11.235,22.578C310.677,419.014,287.705,437.248,263.285,440.356z
	 M345.895,349.765c-26.318-4.693-54.29-11.338-82.61-19.646v-66.618h97.101C359.687,294.3,354.692,323.737,345.895,349.765z
	 M328.639,123.78c4.125,7.073,7.872,14.627,11.235,22.579c-24.844,3.597-50.432,5.573-76.59,5.913V71.646
	C287.705,74.753,310.677,92.987,328.639,123.78z M248.285,71.646v80.635c-26.178-0.287-51.79-2.214-76.659-5.76
	c3.381-8.011,7.15-15.62,11.304-22.741C200.891,92.987,223.865,74.753,248.285,71.646z M263.285,167.271
	c28.056-0.355,55.487-2.555,82.089-6.568c9.123,26.402,14.299,56.393,15.011,87.798h-97.101v-81.23H263.285z M440.452,248.501
	h-65.064c-0.699-32.096-5.873-62.887-15.021-90.267c15.441-2.761,30.58-6.149,45.378-10.155
	C426.306,176.569,438.952,211.123,440.452,248.501z M395.612,135.252c-13.238,3.401-26.76,6.283-40.521,8.673
	c-3.962-9.804-8.465-19.08-13.496-27.703c-8.431-14.452-17.96-26.478-28.295-35.88C345.538,90.923,373.895,110.137,395.612,135.252z
	 M115.674,135.496c7.192-8.37,15.139-16.128,23.777-23.133c17.527-14.214,37.506-25.007,58.767-31.974
	c-10.315,9.395-19.828,21.405-28.244,35.833c-5.065,8.682-9.595,18.026-13.577,27.904
	C142.567,141.755,128.978,138.886,115.674,135.496z M166.132,160.886c26.625,3.96,54.08,6.094,82.153,6.395v81.22h-97.102
	C151.894,217.168,157.049,187.243,166.132,160.886z M115.735,376.487c13.284-3.383,26.854-6.243,40.662-8.61
	c3.982,9.877,8.512,19.221,13.576,27.903c8.43,14.452,17.959,26.478,28.294,35.88C165.92,421.041,137.481,401.729,115.735,376.487z
	 M313.368,431.598c10.309-9.393,19.816-21.397,28.229-35.818c5.03-8.624,9.533-17.9,13.496-27.703
	c13.786,2.394,27.332,5.282,40.592,8.691C373.573,402.346,345.031,421.199,313.368,431.598z"/>
<g>
</g>
<g>
</g>
<g>
</g>
<g>
</g>
<g>
</g>
<g>
</g>
<g>
</g>
<g>
</g>
<g>
</g>
<g>
</g>
<g>
</g>
<g>
</g>
<g>
</g>
<g>
</g>
<g>
</g>
</svg>
