<?xml version="1.0" encoding="iso-8859-1"?>
<!-- Generator: Adobe Illustrator 19.0.0, SVG Export Plug-In . SVG Version: 6.00 Build 0)  -->
<svg version="1.1" id="Capa_1" xmlns="http://www.w3.org/2000/svg" xmlns:xlink="http://www.w3.org/1999/xlink" x="0px" y="0px"
	 viewBox="0 0 512.003 512.003" style="enable-background:new 0 0 512.003 512.003;" xml:space="preserve">
<path style="fill:#DC4655;" d="M277.438,14.771L277.438,14.771c12.076-11.915,32.239-8.722,40.042,6.342l0,0
	c6.336,12.231,21.323,17.1,33.638,10.93l0,0c15.166-7.601,33.356,1.668,36.122,18.405l0,0c2.246,13.59,14.995,22.853,28.614,20.789
	l0,0c16.772-2.542,31.208,11.894,28.667,28.667l0,0c-2.064,13.619,7.199,26.368,20.789,28.614l0,0
	c16.737,2.766,26.005,20.955,18.405,36.122l0,0c-6.171,12.315-1.301,27.302,10.93,33.638l0,0
	c15.064,7.803,18.257,27.966,6.342,40.042l0,0c-9.675,9.805-9.675,25.564,0,35.369l0,0c11.915,12.076,8.722,32.239-6.342,40.042l0,0
	c-12.231,6.336-17.1,21.323-10.93,33.638l0,0c7.601,15.167-1.668,33.356-18.405,36.122l0,0
	c-13.59,2.246-22.853,14.996-20.789,28.614l0,0c2.542,16.772-11.894,31.208-28.667,28.667l0,0
	c-13.619-2.064-26.368,7.199-28.614,20.789l0,0c-2.766,16.737-20.955,26.005-36.122,18.405l0,0
	c-12.315-6.171-27.302-1.301-33.638,10.93l0,0c-7.803,15.064-27.966,18.257-40.042,6.342l0,0c-9.805-9.675-25.564-9.675-35.369,0
	l0,0c-12.076,11.915-32.239,8.722-40.042-6.342l0,0c-6.336-12.231-21.323-17.1-33.638-10.93l0,0
	c-15.166,7.601-33.356-1.668-36.122-18.405l0,0c-2.246-13.59-14.996-22.853-28.614-20.789l0,0
	c-16.772,2.542-31.208-11.894-28.667-28.667l0,0c2.064-13.619-7.199-26.368-20.789-28.614l0,0
	c-16.737-2.766-26.005-20.955-18.405-36.122l0,0c6.171-12.315,1.301-27.302-10.93-33.638l0,0
	c-15.063-7.803-18.257-27.966-6.342-40.042l0,0c9.675-9.805,9.675-25.564,0-35.369l0,0c-11.915-12.076-8.722-32.239,6.342-40.042
	l0,0c12.231-6.336,17.1-21.323,10.93-33.638l0,0c-7.601-15.166,1.668-33.356,18.405-36.122l0,0
	c13.59-2.246,22.853-14.996,20.789-28.614l0,0c-2.542-16.772,11.894-31.208,28.667-28.667l0,0
	c13.619,2.064,26.368-7.199,28.614-20.789l0,0c2.766-16.737,20.955-26.005,36.122-18.405l0,0
	c12.315,6.171,27.302,1.301,33.638-10.93l0,0c7.803-15.063,27.966-18.257,40.042-6.342l0,0
	C251.874,24.446,267.632,24.446,277.438,14.771z"/>
<path style="fill:#C43F4F;" d="M351.935,392.272c-126.171,0-228.452-102.282-228.452-228.452c0-49.474,15.779-95.237,42.507-132.639
	c-14.632-5.575-31.101,3.395-33.723,19.265c-2.246,13.591-14.996,22.853-28.614,20.789C86.88,68.694,72.445,83.131,74.987,99.903
	c2.064,13.62-7.2,26.368-20.789,28.614l0,0c-16.738,2.766-26.005,20.955-18.405,36.122c6.172,12.315,1.301,27.302-10.93,33.638
	c-15.063,7.803-18.256,27.966-6.342,40.042c9.675,9.805,9.675,25.564,0,35.369c-11.916,12.076-8.722,32.239,6.342,40.042
	c12.232,6.336,17.101,21.323,10.93,33.637c-7.6,15.166,1.667,33.357,18.405,36.122l0,0c13.59,2.246,22.853,14.996,20.789,28.614
	c-2.542,16.772,11.894,31.208,28.666,28.667c13.619-2.064,26.368,7.2,28.614,20.789c2.766,16.737,20.955,26.005,36.121,18.405h0.001
	c12.315-6.171,27.302-1.301,33.638,10.93c7.803,15.064,27.965,18.256,40.041,6.342c9.806-9.675,25.563-9.675,35.369,0
	c12.076,11.916,32.239,8.722,40.041-6.342c6.336-12.232,21.323-17.1,33.638-10.93h0.001c15.165,7.601,33.355-1.668,36.121-18.405
	c2.246-13.59,14.995-22.853,28.614-20.789c16.772,2.542,31.208-11.894,28.666-28.667c-2.064-13.619,7.2-26.368,20.789-28.614l0,0
	c15.871-2.622,24.84-19.091,19.266-33.723C447.173,376.493,401.411,392.272,351.935,392.272z"/>
<circle style="fill:#FF8587;" cx="259.754" cy="256.004" r="200.393"/>
<path style="fill:#E6646E;" d="M348.632,391.505c-119.603-9.359-215.023-104.778-224.382-224.381
	c-0.322-4.109-3.655-7.312-7.776-7.312l0,0c-2.725,0-5.3,1.38-6.733,3.698c-19.552,31.613-29.522,69.771-25.429,110.538
	c8.279,82.447,74.956,149.121,157.405,157.396c40.764,4.091,78.918-5.879,110.529-25.429c2.317-1.433,3.698-4.009,3.698-6.733l0,0
	C355.943,395.16,352.74,391.827,348.632,391.505z"/>
<path d="M489.485,341.759c-1.335-3.921-5.598-6.017-9.518-4.682c-3.921,1.335-6.017,5.597-4.682,9.518
	c0.479,1.407,1.062,2.797,1.73,4.132c2.543,5.076,2.524,10.888-0.054,15.946c-2.577,5.059-7.268,8.491-12.87,9.416
	c-17.541,2.899-29.645,19.559-26.981,37.138c0.851,5.613-0.963,11.135-4.978,15.148c-4.015,4.015-9.534,5.831-15.15,4.979
	c-17.578-2.661-34.239,9.441-37.137,26.982c-0.926,5.601-4.358,10.292-9.417,12.87c-5.059,2.577-10.871,2.597-15.946,0.053
	c-15.895-7.966-35.479-1.602-43.658,14.186c-2.611,5.042-7.325,8.442-12.932,9.33c-5.609,0.888-11.142-0.89-15.184-4.877
	c-12.656-12.487-33.248-12.488-45.903,0c-4.042,3.988-9.575,5.767-15.184,4.877c-5.607-0.888-10.321-4.289-12.932-9.33
	c-8.177-15.787-27.761-22.153-43.658-14.186c-5.076,2.543-10.889,2.524-15.946-0.053c-5.059-2.578-8.491-7.269-9.417-12.87
	c-2.898-17.541-19.561-29.644-37.137-26.981c-5.616,0.851-11.136-0.964-15.149-4.979c-4.014-4.014-5.829-9.536-4.978-15.148
	c2.663-17.578-9.441-34.238-26.982-37.138c-5.602-0.925-10.292-4.357-12.87-9.416c-2.578-5.059-2.597-10.871-0.054-15.946
	c7.966-15.895,1.603-35.48-14.185-43.658c-5.042-2.611-8.442-7.325-9.331-12.933c-0.888-5.608,0.89-11.142,4.877-15.183
	c12.488-12.656,12.488-33.248,0-45.903c-3.987-4.042-5.765-9.575-4.877-15.182c0.888-5.607,4.289-10.321,9.331-12.933
	c15.787-8.178,22.15-27.762,14.185-43.658c-2.543-5.076-2.524-10.888,0.054-15.946c2.577-5.059,7.268-8.491,12.87-9.416
	c17.541-2.899,29.645-19.559,26.981-37.138c-0.851-5.613,0.964-11.135,4.978-15.148c4.015-4.015,9.539-5.828,15.149-4.979
	c17.581,2.666,34.239-9.441,37.137-26.982c0.926-5.601,4.358-10.292,9.417-12.87c5.059-2.577,10.872-2.597,15.946-0.053
	c15.897,7.968,35.48,1.601,43.658-14.186c2.611-5.042,7.325-8.442,12.932-9.33c5.608-0.889,11.142,0.89,15.184,4.877
	c12.656,12.488,33.248,12.488,45.903,0c4.042-3.988,9.574-5.768,15.184-4.877c5.607,0.888,10.321,4.289,12.932,9.33
	c5.786,11.169,17.276,17.621,29.135,17.619c4.904,0,9.873-1.104,14.523-3.435c5.075-2.543,10.888-2.524,15.945,0.053
	c5.059,2.578,8.491,7.269,9.417,12.87c2.899,17.541,19.564,29.648,37.137,26.981c5.616-0.851,11.136,0.964,15.15,4.979
	c4.015,4.014,5.829,9.536,4.978,15.148c-2.663,17.578,9.441,34.238,26.982,37.138c5.602,0.925,10.292,4.357,12.87,9.416
	s2.597,10.871,0.054,15.946c-2.29,4.569-3.457,9.463-3.468,14.546c-0.01,4.142,3.34,7.508,7.482,7.518c0.006,0,0.012,0,0.018,0
	c4.134,0,7.49-3.347,7.5-7.482c0.006-2.741,0.639-5.386,1.878-7.861c4.702-9.383,4.666-20.126-0.099-29.477
	c-4.765-9.351-13.436-15.694-23.788-17.404c-9.49-1.569-16.038-10.582-14.598-20.091c1.572-10.376-1.782-20.582-9.202-28.002
	c-7.42-7.421-17.625-10.773-28.004-9.204c-9.511,1.446-18.522-5.107-20.09-14.597c-1.711-10.354-8.055-19.024-17.405-23.789
	c-9.352-4.764-20.095-4.8-29.477-0.098c-8.599,4.309-19.193,0.867-23.618-7.675c-4.827-9.318-13.54-15.603-23.904-17.245
	c-10.368-1.645-20.594,1.644-28.064,9.015c-6.847,6.756-17.987,6.756-24.833,0c-7.471-7.371-17.699-10.655-28.064-9.015
	c-10.365,1.642-19.077,7.928-23.904,17.245c-4.424,8.542-15.02,11.984-23.618,7.675c-9.383-4.703-20.126-4.667-29.477,0.098
	s-15.694,13.436-17.405,23.789c-1.569,9.49-10.577,16.041-20.091,14.597c-10.377-1.57-20.582,1.782-28.003,9.204
	c-7.42,7.42-10.774,17.626-9.202,28.002c1.441,9.51-5.107,18.522-14.597,20.091c-10.354,1.711-19.024,8.055-23.789,17.405
	c-4.765,9.351-4.801,20.094-0.099,29.477c4.309,8.599,0.867,19.194-7.674,23.618c-9.318,4.827-15.603,13.54-17.246,23.905
	c-1.642,10.365,1.645,20.594,9.015,28.063c6.756,6.847,6.756,17.987,0,24.834c-7.371,7.47-10.657,17.698-9.016,28.063
	c1.642,10.366,7.928,19.078,17.246,23.905c8.541,4.424,11.983,15.02,7.674,23.618c-4.702,9.383-4.666,20.126,0.099,29.477
	s13.436,15.694,23.788,17.404c9.49,1.569,16.038,10.582,14.598,20.091c-1.572,10.376,1.782,20.582,9.202,28.002
	c7.421,7.422,17.63,10.778,28.003,9.204c9.515-1.442,18.523,5.108,20.091,14.597c1.711,10.354,8.055,19.024,17.405,23.789
	c9.351,4.763,20.094,4.799,29.477,0.098c8.6-4.309,19.194-0.866,23.618,7.675c4.827,9.318,13.54,15.603,23.904,17.245
	c10.363,1.642,20.593-1.644,28.064-9.015c6.848-6.756,17.988-6.755,24.833,0c6.208,6.125,14.32,9.429,22.832,9.429
	c1.731,0,3.48-0.137,5.232-0.414c10.365-1.642,19.077-7.928,23.904-17.245c4.424-8.542,15.021-11.984,23.618-7.675
	c9.382,4.702,20.125,4.666,29.476-0.098c9.351-4.765,15.694-13.436,17.405-23.789c1.568-9.49,10.581-16.044,20.091-14.597
	c10.378,1.571,20.582-1.782,28.003-9.204c7.42-7.42,10.774-17.626,9.202-28.002c-1.441-9.51,5.107-18.522,14.597-20.091
	c10.354-1.711,19.024-8.055,23.789-17.405s4.801-20.094,0.099-29.477C490.062,343.279,489.746,342.523,489.485,341.759z"/>
<path d="M486.918,202.605l-96.19,96.19c-2.929,2.929-2.929,7.678,0,10.606c1.464,1.464,3.384,2.197,5.303,2.197
	s3.839-0.732,5.303-2.197l96.19-96.19c2.929-2.929,2.929-7.678,0-10.606C494.596,199.677,489.847,199.677,486.918,202.605z"/>
<path d="M380.515,219.931c0,15.186,12.354,27.54,27.54,27.54c15.185,0,27.539-12.354,27.539-27.54
	c0-15.186-12.354-27.539-27.539-27.539C392.869,192.392,380.515,204.747,380.515,219.931z M420.594,219.931
	c0,6.915-5.625,12.541-12.54,12.541c-6.915,0-12.541-5.625-12.541-12.541c0-6.915,5.625-12.54,12.541-12.54
	C414.969,207.391,420.594,213.017,420.594,219.931z"/>
<path d="M480.197,264.535c-15.185,0-27.54,12.354-27.54,27.54c0,15.185,12.354,27.539,27.54,27.539
	c15.186,0,27.539-12.354,27.539-27.539C507.736,276.889,495.383,264.535,480.197,264.535z M480.197,304.614
	c-6.915,0-12.541-5.625-12.541-12.54c0-6.915,5.625-12.541,12.541-12.541c6.915,0,12.54,5.625,12.54,12.541
	C492.737,298.988,487.112,304.614,480.197,304.614z"/>
<path d="M252.262,211.915v88.175c0,28.445,23.142,51.586,51.586,51.586c28.445,0,51.587-23.142,51.587-51.586v-88.175
	c0-28.445-23.142-51.586-51.587-51.586C275.403,160.329,252.262,183.47,252.262,211.915z M340.436,211.915v88.175
	c0,20.174-16.413,36.587-36.588,36.587s-36.587-16.413-36.587-36.587v-88.175c0-20.174,16.413-36.587,36.587-36.587
	C324.023,175.328,340.436,191.741,340.436,211.915z"/>
<path d="M183.611,336.677c-20.174,0-36.588-16.413-36.588-36.587c0-4.142-3.358-7.5-7.5-7.5s-7.5,3.358-7.5,7.5
	c0,28.445,23.142,51.586,51.587,51.586s51.586-23.142,51.586-51.586v-16.031c0-28.445-23.142-51.587-51.586-51.587h-27.693
	l6.35-57.143h57.414c4.142,0,7.5-3.358,7.5-7.5s-3.358-7.5-7.5-7.5h-64.127c-3.822,0-7.032,2.874-7.454,6.672l-8.016,72.143
	c-0.236,2.12,0.443,4.24,1.866,5.83c1.423,1.589,3.455,2.498,5.588,2.498h36.072c20.174,0,36.587,16.413,36.587,36.588v16.031
	C220.198,320.265,203.784,336.677,183.611,336.677z"/>
<path d="M454.251,206.931c3.976-1.161,6.258-5.325,5.097-9.301c-12.347-42.284-38.554-80.341-73.793-107.16
	c-36.416-27.714-79.914-42.364-125.794-42.364c-114.634,0-207.896,93.262-207.896,207.896s93.262,207.896,207.896,207.896
	c42.814,0,83.932-12.913,118.908-37.342c34.18-23.872,60.151-56.968,75.105-95.709c1.492-3.864-0.432-8.206-4.296-9.697
	c-3.863-1.492-8.206,0.431-9.697,4.296c-13.876,35.946-37.978,66.657-69.702,88.813c-32.445,22.661-70.594,34.639-110.319,34.639
	c-106.363,0-192.897-86.533-192.897-192.897S153.398,63.106,259.761,63.106c42.571,0,82.928,13.59,116.71,39.3
	c32.706,24.891,57.025,60.202,68.479,99.429C446.111,205.81,450.276,208.095,454.251,206.931z"/>
<g>
</g>
<g>
</g>
<g>
</g>
<g>
</g>
<g>
</g>
<g>
</g>
<g>
</g>
<g>
</g>
<g>
</g>
<g>
</g>
<g>
</g>
<g>
</g>
<g>
</g>
<g>
</g>
<g>
</g>
</svg>
