<?xml version="1.0" encoding="iso-8859-1"?>
<!-- Generator: Adobe Illustrator 19.0.0, SVG Export Plug-In . SVG Version: 6.00 Build 0)  -->
<svg version="1.1" id="Capa_1" xmlns="http://www.w3.org/2000/svg" xmlns:xlink="http://www.w3.org/1999/xlink" x="0px" y="0px"
	 viewBox="0 0 512 512" style="enable-background:new 0 0 512 512;" xml:space="preserve">
<path style="fill:#AEA8AF;" d="M493.537,304.453l-61.182-20.394l-28.227-77.624c-2.304-6.336-8.325-10.553-15.067-10.553h-92.98
	v200.403H464.42l24.964-9.986c9.13-3.652,15.117-12.495,15.117-22.328v-44.308C504.5,312.762,500.084,306.636,493.537,304.453z"/>
<polygon style="fill:#6F6571;" points="296.081,227.946 296.081,284.059 432.355,284.059 411.951,227.946 "/>
<polygon style="fill:#5D5360;" points="420.695,251.995 411.951,227.946 296.081,227.946 296.081,251.995 "/>
<g>
	<path style="fill:#9C969E;" d="M504.481,364.221c0.001-0.084,0.019-0.165,0.019-0.25v-23.799H296.081v24.048h208.4V364.221z"/>
	<rect x="296.08" y="372.24" style="fill:#9C969E;" width="136.27" height="24.05"/>
</g>
<path style="fill:#E6646E;" d="M304.097,163.817H15.516c-4.427,0-8.016,3.589-8.016,8.016v52.105c0,2.213,1.795,4.008,4.008,4.008
	h4.008v128.258c0,4.427,3.589,8.016,8.016,8.016H296.08c4.427,0,8.016-3.589,8.016-8.016V227.946h4.008
	c2.213,0,4.008-1.795,4.008-4.008v-52.105C312.113,167.406,308.524,163.817,304.097,163.817z"/>
<path style="fill:#DC4655;" d="M304.097,251.995v-24.048H15.516v128.258c0,4.427,3.589,8.016,8.016,8.016H296.08
	c4.427,0,8.016-3.589,8.016-8.016v-16.032h-184.37c-44.272,0-80.161-35.889-80.161-80.161l0,0c0-4.427,3.589-8.016,8.016-8.016
	L304.097,251.995L304.097,251.995z"/>
<rect x="143.77" y="163.82" style="fill:#FFE17D;" width="32.06" height="200.4"/>
<rect x="143.77" y="340.17" style="fill:#FFD164;" width="32.06" height="24.05"/>
<path style="fill:#867E88;" d="M23.532,364.221c-4.427,0-8.016,3.589-8.016,8.016v16.032c0,4.427,3.589,8.016,8.016,8.016h440.887
	l24.964-9.986c9.052-3.621,14.996-12.347,15.098-22.079H23.532V364.221z"/>
<g>
	<circle style="fill:#6F6571;" cx="111.71" cy="412.32" r="40.08"/>
	<circle style="fill:#6F6571;" cx="432.36" cy="412.32" r="40.08"/>
</g>
<path d="M111.71,396.801c-8.556,0-15.517,6.96-15.517,15.516s6.961,15.516,15.517,15.516s15.516-6.96,15.516-15.516
	S120.266,396.801,111.71,396.801z"/>
<path d="M432.354,396.801c-8.556,0-15.516,6.96-15.516,15.516s6.96,15.516,15.516,15.516s15.517-6.96,15.517-15.516
	S440.91,396.801,432.354,396.801z"/>
<path d="M495.909,297.338l-57.745-19.248l-26.987-74.218c-3.369-9.266-12.257-15.491-22.116-15.491h-69.447v-16.548
	c0-8.556-6.961-15.516-15.517-15.516H188.231c13.889-8.211,30.794-18.796,43.611-28.694c11.277,4.339,19.452,10.343,19.658,10.496
	c3.309,2.483,8.007,1.816,10.494-1.491c2.489-3.311,1.824-8.012-1.486-10.502c-0.588-0.442-6.782-5.022-16.105-9.439
	c1.406-1.455,2.636-2.861,3.647-4.203c12.507-16.6,9.177-40.28-7.424-52.787c-8.041-6.059-17.961-8.623-27.931-7.221
	c-9.971,1.402-18.798,6.604-24.855,14.645c-9.746,12.936-20.881,45.927-28.033,69.498c-7.152-23.571-18.288-56.562-28.033-69.498
	c-12.509-16.6-36.189-19.929-52.786-7.424c-16.6,12.506-19.931,36.186-7.425,52.787c1.011,1.341,2.24,2.748,3.646,4.202
	c-9.322,4.418-15.515,8.998-16.103,9.44c-3.311,2.49-3.976,7.191-1.486,10.502c2.491,3.31,7.191,3.976,10.502,1.485
	c0.151-0.113,8.311-6.159,19.616-10.517c12.821,9.906,29.745,20.503,43.646,28.721H15.517C6.961,156.317,0,163.278,0,171.833v56.113
	c0,4.142,3.357,7.5,7.5,7.5h0.517v152.823c0,8.556,6.96,15.516,15.516,15.516H64.91c-0.504,2.77-0.781,5.619-0.781,8.532
	c0,26.236,21.345,47.581,47.581,47.581c26.235,0,47.58-21.345,47.58-47.581c0-2.914-0.277-5.762-0.781-8.532h227.047
	c-0.504,2.77-0.781,5.619-0.781,8.532c0,26.236,21.345,47.581,47.58,47.581c26.236,0,47.581-21.345,47.581-47.581
	c0-3.706-0.44-7.31-1.245-10.774l15.87-7.935C505.317,388.229,512,377.417,512,365.39v-45.727
	C512,309.518,505.533,300.546,495.909,297.338z M151.274,356.721V171.317h17.064V356.72h-17.064V356.721z M183.339,235.446h113.258
	V356.72H183.339V235.446z M311.597,235.446h0.517h62.519l14.95,41.113h-77.985v-41.113H311.597z M405.544,276.56l-14.95-41.113
	h16.103l14.95,41.113H405.544z M389.061,203.382c3.575,0,6.798,2.257,8.019,5.617l4.163,11.448h-81.629v-17.064h69.447V203.382z
	 M304.613,171.833v48.613h-0.517H183.339v-49.129h120.758C304.382,171.317,304.613,171.549,304.613,171.833z M174.897,146.712
	c6.234-11.273,14.132-18.546,23.619-21.665c4.539-1.492,9.216-1.98,13.824-1.787C200.543,131.39,186.637,139.878,174.897,146.712z
	 M199.82,76.147L199.82,76.147c3.647-4.842,8.962-7.973,14.964-8.817c1.073-0.151,2.144-0.226,3.208-0.226
	c4.893,0,9.632,1.577,13.608,4.573c4.841,3.647,7.972,8.962,8.816,14.964s-0.7,11.974-4.348,16.815
	c-1.644,2.182-4.147,4.678-7.276,7.378c-10.649-2.915-22.876-3.99-34.886-0.063c-4.173,1.364-8.097,3.25-11.77,5.653
	C188.029,99.33,194.496,83.215,199.82,76.147z M83.543,103.458c-7.529-9.994-5.523-24.251,4.47-31.78
	c4.082-3.075,8.873-4.56,13.628-4.56c6.888,0,13.698,3.117,18.152,9.029c5.325,7.068,11.792,23.182,17.683,40.278
	c-3.673-2.403-7.598-4.289-11.77-5.653c-12.012-3.929-24.241-2.854-34.89,0.062C87.689,108.135,85.187,105.64,83.543,103.458z
	 M121.045,125.029c9.511,3.11,17.427,10.39,23.674,21.685c-11.75-6.839-25.668-15.335-37.472-23.472
	C111.838,123.057,116.505,123.544,121.045,125.029z M15,171.833c0-0.285,0.231-0.516,0.517-0.516h120.758v49.129H15V171.833z
	 M136.274,235.446V356.72H23.017V235.446H136.274z M23.532,388.785c-0.284,0-0.516-0.231-0.516-0.516v-16.548h63.906
	c-6.848,4.197-12.549,10.081-16.541,17.064H23.532z M111.71,444.898c-17.965,0-32.581-14.616-32.581-32.581
	s14.616-32.581,32.581-32.581s32.58,14.616,32.58,32.581S129.675,444.898,111.71,444.898z M136.497,371.721h160.1v17.064h-143.56
	C149.045,381.802,143.345,375.917,136.497,371.721z M432.354,444.898c-17.965,0-32.58-14.616-32.58-32.581
	s14.615-32.581,32.58-32.581s32.581,14.616,32.581,32.581S450.319,444.898,432.354,444.898z M487.852,380.192l-14.846,7.423
	c-8.361-13.707-23.455-22.878-40.651-22.878c-17.678,0-33.125,9.699-41.327,24.048h-79.43v-41.113h144.807
	c4.143,0,7.5-3.358,7.5-7.5s-3.357-7.5-7.5-7.5H311.597V291.56h119.54l60.029,20.009c3.489,1.163,5.834,4.416,5.834,8.094v13.009
	h-8.532c-4.143,0-7.5,3.358-7.5,7.5s3.357,7.5,7.5,7.5H497v17.718C497,371.699,493.495,377.37,487.852,380.192z"/>
<g>
</g>
<g>
</g>
<g>
</g>
<g>
</g>
<g>
</g>
<g>
</g>
<g>
</g>
<g>
</g>
<g>
</g>
<g>
</g>
<g>
</g>
<g>
</g>
<g>
</g>
<g>
</g>
<g>
</g>
</svg>
