<?xml version="1.0" encoding="iso-8859-1"?>
<!-- Generator: Adobe Illustrator 19.0.0, SVG Export Plug-In . SVG Version: 6.00 Build 0)  -->
<svg version="1.1" id="Capa_1" xmlns="http://www.w3.org/2000/svg" xmlns:xlink="http://www.w3.org/1999/xlink" x="0px" y="0px"
	 viewBox="0 0 512 512" style="enable-background:new 0 0 512 512;" xml:space="preserve">
<path style="fill:#EDEBED;" d="M488.468,336.161H23.532c-8.854,0-16.032-7.178-16.032-16.032V191.871
	c0-8.854,7.178-16.032,16.032-16.032h464.935c8.854,0,16.032,7.178,16.032,16.032v128.258
	C504.5,328.983,497.322,336.161,488.468,336.161z"/>
<path style="fill:#E2E0E3;" d="M103.694,312.113c-39.845,0-72.145-32.301-72.145-72.145v-64.129h-8.016
	c-8.854,0-16.032,7.178-16.032,16.032v128.258c0,8.854,7.178,16.032,16.032,16.032h464.935c8.854,0,16.032-7.178,16.032-16.032
	v-8.016L103.694,312.113L103.694,312.113z"/>
<g>
	<path style="fill:#FFD164;" d="M256,276.468l-14.876,9.339c-3.278,2.058-7.392-0.931-6.448-4.685l4.285-17.033l-13.479-11.262
		c-2.971-2.482-1.399-7.318,2.463-7.58l17.524-1.188l6.545-16.299c1.443-3.592,6.528-3.592,7.97,0l6.545,16.299l17.524,1.188
		c3.862,0.262,5.434,5.098,2.463,7.58l-13.479,11.262l4.285,17.033c0.944,3.754-3.17,6.743-6.448,4.685L256,276.468z"/>
	<path style="fill:#FFD164;" d="M163.815,276.468l-14.876,9.339c-3.278,2.058-7.392-0.931-6.448-4.685l4.285-17.033l-13.479-11.262
		c-2.971-2.482-1.399-7.318,2.463-7.58l17.524-1.188l6.545-16.299c1.442-3.592,6.528-3.592,7.97,0l6.545,16.299l17.524,1.188
		c3.862,0.262,5.433,5.098,2.463,7.58l-13.479,11.262l4.285,17.033c0.944,3.754-3.17,6.743-6.448,4.685L163.815,276.468z"/>
	<path style="fill:#FFD164;" d="M348.185,276.468l-14.876,9.339c-3.278,2.058-7.392-0.931-6.448-4.685l4.285-17.033l-13.479-11.262
		c-2.971-2.482-1.399-7.318,2.463-7.58l17.524-1.188l6.545-16.299c1.443-3.592,6.528-3.592,7.97,0l6.545,16.299l17.524,1.188
		c3.862,0.262,5.434,5.098,2.463,7.58l-13.479,11.262l4.285,17.033c0.944,3.754-3.17,6.743-6.448,4.685L348.185,276.468z"/>
	<path style="fill:#FFD164;" d="M440.371,276.468l-14.876,9.339c-3.278,2.058-7.392-0.931-6.448-4.685l4.285-17.033l-13.479-11.262
		c-2.971-2.482-1.399-7.318,2.463-7.58l17.524-1.188l6.545-16.299c1.443-3.592,6.528-3.592,7.97,0l6.545,16.299l17.524,1.188
		c3.862,0.262,5.433,5.098,2.463,7.58l-13.479,11.262l4.285,17.033c0.944,3.754-3.17,6.743-6.448,4.685L440.371,276.468z"/>
	<path style="fill:#FFD164;" d="M71.629,276.468l-14.876,9.339c-3.278,2.058-7.392-0.931-6.448-4.685l4.285-17.033l-13.479-11.262
		c-2.971-2.482-1.399-7.318,2.463-7.58l17.524-1.188l6.545-16.299c1.442-3.592,6.528-3.592,7.97,0l6.545,16.299l17.524,1.188
		c3.862,0.262,5.433,5.098,2.463,7.58l-13.479,11.262l4.285,17.033c0.944,3.754-3.17,6.743-6.448,4.685L71.629,276.468z"/>
</g>
<path d="M39.562,328.661h-16.03c-4.705,0-8.532-3.828-8.532-8.532V191.871c0-4.705,3.828-8.532,8.532-8.532h416.836
	c4.142,0,7.5-3.358,7.5-7.5s-3.358-7.5-7.5-7.5H23.532C10.557,168.339,0,178.896,0,191.871v128.258
	c0,12.976,10.557,23.532,23.532,23.532h16.029c4.142,0,7.5-3.358,7.5-7.5S43.704,328.661,39.562,328.661z"/>
<path d="M488.468,168.339h-16.029c-4.142,0-7.5,3.358-7.5,7.5s3.358,7.5,7.5,7.5h16.029c4.705,0,8.532,3.828,8.532,8.532v128.258
	c0,4.705-3.828,8.532-8.532,8.532H71.632c-4.142,0-7.5,3.358-7.5,7.5s3.358,7.5,7.5,7.5h416.836
	c12.976,0,23.532-10.557,23.532-23.532V191.871C512,178.896,501.443,168.339,488.468,168.339z"/>
<path d="M294.981,245.887c-1.497-4.607-5.587-7.795-10.419-8.123l-12.826-0.87l-4.791-11.93c-1.805-4.495-6.101-7.399-10.945-7.399
	s-9.14,2.904-10.945,7.399l-4.791,11.93l-12.826,0.87c-4.833,0.328-8.923,3.516-10.42,8.123s-0.062,9.59,3.655,12.696l9.865,8.243
	l-3.136,12.467c-1.182,4.698,0.587,9.572,4.506,12.419c3.918,2.848,9.102,3.022,13.204,0.447L256,285.323l10.888,6.836
	c1.934,1.214,4.107,1.816,6.275,1.816c2.432,0,4.857-0.758,6.929-2.264c3.919-2.847,5.688-7.722,4.506-12.419l-3.136-12.467
	l9.865-8.243C295.043,255.477,296.478,250.494,294.981,245.887z M268.23,258.333c-2.209,1.846-3.167,4.793-2.465,7.585l2.338,9.292
	l-8.115-5.095c-1.219-0.765-2.604-1.148-3.988-1.148s-2.769,0.383-3.988,1.148l-8.115,5.095l2.338-9.292
	c0.702-2.792-0.255-5.739-2.465-7.585l-7.353-6.144l9.56-0.648c2.872-0.195,5.379-2.017,6.453-4.688l3.57-8.891l3.57,8.891
	c1.073,2.671,3.581,4.493,6.453,4.688l9.56,0.648L268.23,258.333z"/>
<path d="M202.795,245.887c-1.497-4.607-5.587-7.795-10.419-8.123l-12.826-0.87l-4.791-11.931c-1.806-4.494-6.102-7.398-10.945-7.398
	c-4.844,0-9.139,2.905-10.944,7.399l-4.791,11.93l-12.826,0.87c-4.833,0.328-8.923,3.516-10.42,8.123s-0.062,9.59,3.655,12.696
	l9.865,8.243l-3.136,12.467c-1.182,4.698,0.587,9.572,4.506,12.419c3.918,2.848,9.102,3.022,13.204,0.447l10.888-6.836l10.888,6.836
	c1.934,1.214,4.107,1.816,6.275,1.816c2.432,0,4.857-0.758,6.929-2.264c3.919-2.847,5.688-7.722,4.506-12.419l-3.136-12.467
	l9.865-8.243C202.857,255.477,204.292,250.494,202.795,245.887z M176.044,258.333c-2.209,1.846-3.167,4.793-2.465,7.585l2.338,9.292
	l-8.115-5.095c-1.219-0.765-2.604-1.148-3.988-1.148s-2.769,0.383-3.988,1.148l-8.115,5.095l2.338-9.292
	c0.702-2.792-0.255-5.739-2.465-7.585l-7.353-6.144l9.56-0.648c2.872-0.195,5.379-2.017,6.453-4.688l3.57-8.892l3.57,8.892
	c1.073,2.671,3.58,4.493,6.453,4.688l9.56,0.648L176.044,258.333z"/>
<path d="M387.167,245.887c-1.497-4.607-5.587-7.795-10.419-8.123l-12.826-0.87l-4.791-11.93c-1.805-4.494-6.101-7.398-10.944-7.399
	l0,0c-4.843,0-9.14,2.904-10.945,7.399l-4.79,11.93l-12.826,0.87c-4.833,0.328-8.923,3.516-10.42,8.123s-0.062,9.59,3.655,12.696
	l9.865,8.243l-3.136,12.467c-1.182,4.698,0.587,9.572,4.506,12.419c3.918,2.848,9.102,3.022,13.204,0.447l10.888-6.836l10.888,6.836
	c1.934,1.214,4.107,1.816,6.275,1.816c2.432,0,4.857-0.758,6.929-2.264c3.919-2.847,5.688-7.722,4.506-12.419l-3.136-12.467
	l9.865-8.243C387.229,255.477,388.664,250.494,387.167,245.887z M360.416,258.333c-2.209,1.846-3.167,4.793-2.465,7.585l2.338,9.292
	l-8.115-5.095c-1.219-0.765-2.604-1.148-3.988-1.148s-2.769,0.383-3.988,1.148l-8.115,5.095l2.338-9.292
	c0.702-2.792-0.255-5.739-2.465-7.585l-7.353-6.144l9.56-0.648c2.873-0.195,5.38-2.017,6.453-4.688l3.57-8.892l3.57,8.892
	c1.073,2.671,3.581,4.493,6.453,4.688l9.56,0.648L360.416,258.333z"/>
<path d="M440.371,217.566c-4.843,0-9.14,2.904-10.945,7.399l-4.79,11.93l-12.826,0.87c-4.833,0.328-8.923,3.516-10.42,8.123
	s-0.062,9.59,3.655,12.696l9.865,8.243l-3.136,12.467c-1.182,4.697,0.587,9.572,4.505,12.419c3.918,2.848,9.101,3.022,13.204,0.447
	l10.888-6.836l10.888,6.836c1.934,1.214,4.107,1.816,6.275,1.816c2.432,0,4.857-0.759,6.929-2.264
	c3.918-2.847,5.687-7.722,4.505-12.419l-3.136-12.467l9.865-8.243c3.717-3.105,5.152-8.089,3.655-12.696
	c-1.497-4.606-5.587-7.795-10.419-8.123l-12.826-0.87l-4.791-11.93C449.511,220.471,445.215,217.566,440.371,217.566
	L440.371,217.566z M450.394,251.542l9.559,0.648l-7.353,6.144c-2.209,1.846-3.167,4.793-2.465,7.585l2.338,9.292l-8.115-5.095
	c-2.438-1.53-5.538-1.53-7.976,0l-8.115,5.095l2.338-9.292c0.702-2.792-0.255-5.739-2.465-7.585l-7.353-6.144l9.56-0.648
	c2.873-0.195,5.38-2.017,6.453-4.688l3.57-8.892l3.57,8.892C445.015,249.525,447.522,251.347,450.394,251.542z"/>
<path d="M82.517,292.159c4.103,2.576,9.285,2.399,13.204-0.447c3.918-2.847,5.687-7.722,4.505-12.419l-3.136-12.467l9.865-8.243
	c3.717-3.105,5.152-8.089,3.655-12.696s-5.587-7.795-10.419-8.123l-12.826-0.87l-4.791-11.931
	c-1.806-4.494-6.102-7.398-10.945-7.398c-4.844,0-9.139,2.905-10.944,7.399l-4.791,11.93l-12.826,0.87
	c-4.833,0.328-8.922,3.516-10.419,8.123c-1.497,4.607-0.062,9.59,3.655,12.696l9.865,8.243l-3.136,12.466
	c-1.182,4.698,0.586,9.573,4.505,12.42c2.072,1.506,4.497,2.264,6.929,2.264c2.168,0,4.342-0.603,6.275-1.816l10.888-6.836
	L82.517,292.159z M59.527,275.21l2.337-9.292c0.702-2.792-0.255-5.739-2.465-7.585l-7.353-6.144l9.56-0.648
	c2.872-0.195,5.379-2.017,6.453-4.688l3.57-8.892l3.57,8.892c1.073,2.671,3.58,4.493,6.453,4.688l9.56,0.648l-7.353,6.144
	c-2.209,1.846-3.167,4.793-2.465,7.585l2.338,9.292l-8.115-5.095c-1.219-0.765-2.604-1.148-3.988-1.148s-2.769,0.383-3.988,1.148
	L59.527,275.21z"/>
<g>
</g>
<g>
</g>
<g>
</g>
<g>
</g>
<g>
</g>
<g>
</g>
<g>
</g>
<g>
</g>
<g>
</g>
<g>
</g>
<g>
</g>
<g>
</g>
<g>
</g>
<g>
</g>
<g>
</g>
</svg>
