<?xml version="1.0" encoding="iso-8859-1"?>
<!-- Generator: Adobe Illustrator 19.0.0, SVG Export Plug-In . SVG Version: 6.00 Build 0)  -->
<svg version="1.1" id="Capa_1" xmlns="http://www.w3.org/2000/svg" xmlns:xlink="http://www.w3.org/1999/xlink" x="0px" y="0px"
	 viewBox="0 0 512 512" style="enable-background:new 0 0 512 512;" xml:space="preserve">
<path style="fill:#FFE17D;" d="M19.644,236.933C12.507,238.717,7.5,245.13,7.5,252.487v55.125c0,7.357,5.007,13.769,12.144,15.553
	l19.92,4.98v-96.192L19.644,236.933z"/>
<polygon style="fill:#FFD164;" points="23.532,324.137 39.565,328.145 39.565,231.953 23.532,235.961 "/>
<path style="fill:#4B3F4E;" d="M284.056,504.5h-24.048c-11.068,0-20.04-8.972-20.04-20.04l0,0c0-11.068,8.972-20.04,20.04-20.04
	h24.048c11.068,0,20.04,8.972,20.04,20.04l0,0C304.097,495.528,295.124,504.5,284.056,504.5z"/>
<path style="fill:#5D5360;" d="M63.613,344.178h-8.016c-8.854,0-16.032-7.178-16.032-16.032v-96.194
	c0-8.854,7.178-16.032,16.032-16.032h8.016c8.854,0,16.032,7.178,16.032,16.032v96.194C79.645,337,72.467,344.178,63.613,344.178z"
	/>
<path style="fill:#6F6571;" d="M67.621,336.162L67.621,336.162c-6.641,0-12.024-5.383-12.024-12.024V235.96
	c0-6.641,5.383-12.024,12.024-12.024l0,0c6.641,0,12.024,5.383,12.024,12.024v88.177C79.645,330.779,74.262,336.162,67.621,336.162z
	"/>
<path style="fill:#FFE17D;" d="M492.356,323.165c7.137-1.784,12.144-8.197,12.144-15.554v-55.125
	c0-7.357-5.007-13.769-12.144-15.553l-19.92-4.98v96.192L492.356,323.165z"/>
<polygon style="fill:#FFD164;" points="488.468,235.961 472.435,231.953 472.435,328.145 488.468,324.137 "/>
<path style="fill:#5D5360;" d="M456.403,344.178h-8.016c-8.854,0-16.032-7.178-16.032-16.032v-96.194
	c0-8.854,7.178-16.032,16.032-16.032h8.016c8.854,0,16.032,7.178,16.032,16.032v96.194C472.435,337,465.258,344.178,456.403,344.178
	z"/>
<path style="fill:#6F6571;" d="M460.411,336.162L460.411,336.162c-6.641,0-12.024-5.383-12.024-12.024V235.96
	c0-6.641,5.383-12.024,12.024-12.024l0,0c6.641,0,12.024,5.383,12.024,12.024v88.177
	C472.435,330.779,467.052,336.162,460.411,336.162z"/>
<path style="fill:#5D5360;" d="M284.056,464.419h-24.048c-1.373,0-2.712,0.141-4.008,0.404v7.613
	c0,8.854,7.178,16.032,16.032,16.032h24.048c2.729,0,5.308-0.554,7.752-1.391c0.114-0.866,0.264-1.721,0.264-2.618
	C304.097,473.392,295.125,464.419,284.056,464.419z"/>
<path d="M494.176,229.657l-14.24-3.56v-2.162c0-59.815-23.293-116.05-65.589-158.346S315.815,0,256,0S139.949,23.293,97.653,65.589
	S32.064,164.12,32.064,223.935v2.162l-14.24,3.56C7.329,232.282,0,241.669,0,252.487v55.125c0,10.818,7.33,20.206,17.824,22.83
	l15.034,3.758c2.678,10.051,11.856,17.478,22.739,17.478h8.017c12.976,0,23.532-10.557,23.532-23.532v-96.192
	c0-12.976-10.557-23.532-23.532-23.532h-8.017c-2.825,0-5.535,0.501-8.046,1.418C54.826,101.181,145.531,15,256,15
	s201.174,86.181,208.449,194.839c-2.511-0.917-5.221-1.418-8.046-1.418h-8.017c-12.976,0-23.532,10.557-23.532,23.532v96.192
	c0,12.976,10.557,23.532,23.532,23.532h8.017c2.355,0,4.629-0.352,6.776-0.999c-10.855,69.182-70.867,122.273-143.05,122.273
	h-11.061c-4.367-9.453-13.932-16.032-25.011-16.032h-24.049c-15.186,0-27.54,12.354-27.54,27.54S244.822,512,260.008,512h24.049
	c14.002,0,25.588-10.506,27.311-24.048h8.761c86.147,0,156.578-68.52,159.687-153.921l14.36-3.59
	C504.67,327.817,512,318.43,512,307.611v-55.125C512,241.669,504.671,232.282,494.176,229.657z M55.597,223.421h8.017
	c4.705,0,8.532,3.828,8.532,8.532v96.192c0,4.705-3.827,8.532-8.532,8.532h-8.017c-4.705,0-8.532-3.828-8.532-8.532v-48.097
	c0-4.142-3.357-7.5-7.5-7.5s-7.5,3.358-7.5,7.5v38.491l-10.602-2.65c-3.806-0.952-6.463-4.355-6.463-8.278v-55.125
	c0-3.922,2.657-7.326,6.463-8.278l10.602-2.65v6.424c0,4.142,3.357,7.5,7.5,7.5s7.5-3.358,7.5-7.5v-16.029
	C47.064,227.249,50.892,223.421,55.597,223.421z M284.057,497h-24.049c-6.915,0-12.54-5.625-12.54-12.541
	c0-6.915,5.625-12.54,12.54-12.54h24.049c6.915,0,12.54,5.625,12.54,12.54C296.597,491.375,290.972,497,284.057,497z M497,307.611
	c0,3.922-2.657,7.326-6.463,8.278l-10.602,2.65v-38.491c0-4.142-3.357-7.5-7.5-7.5s-7.5,3.358-7.5,7.5v48.097
	c0,4.705-3.827,8.532-8.532,8.532h-8.017c-4.705,0-8.532-3.828-8.532-8.532v-96.192c0-4.705,3.827-8.532,8.532-8.532h8.017
	c4.705,0,8.532,3.828,8.532,8.532v16.029c0,4.142,3.357,7.5,7.5,7.5s7.5-3.358,7.5-7.5v-6.424l10.602,2.65
	c3.806,0.952,6.463,4.355,6.463,8.278V307.611z"/>
<g>
</g>
<g>
</g>
<g>
</g>
<g>
</g>
<g>
</g>
<g>
</g>
<g>
</g>
<g>
</g>
<g>
</g>
<g>
</g>
<g>
</g>
<g>
</g>
<g>
</g>
<g>
</g>
<g>
</g>
</svg>
