<?xml version="1.0" encoding="iso-8859-1"?>
<!-- Generator: Adobe Illustrator 19.0.0, SVG Export Plug-In . SVG Version: 6.00 Build 0)  -->
<svg version="1.1" id="Capa_1" xmlns="http://www.w3.org/2000/svg" xmlns:xlink="http://www.w3.org/1999/xlink" x="0px" y="0px"
	 viewBox="0 0 512 512" style="enable-background:new 0 0 512 512;" xml:space="preserve">
<path style="fill:#6F6571;" d="M255.615,7.5C142.23,7.498,60.49,115.181,83.57,226.191c24.14,116.112,141.887,177.32,154.85,262.98
	c1.316,8.693,8.395,15.328,17.187,15.328h0.004c8.8,0,15.877-6.646,17.195-15.347c14.469-95.496,159.16-160.607,159.16-305.298
	C431.967,86.458,353.012,7.502,255.615,7.5z"/>
<path style="fill:#5D5360;" d="M155.79,226.192C135.21,127.2,198.009,30.926,292.24,11.224c-14.343-2.989-29.319-4.256-44.712-3.519
	C132.241,13.227,59.958,115.081,84.402,227.882c24.924,115.015,141.586,176.044,154.49,261.285
	c1.316,8.695,8.394,15.333,17.188,15.333h0.408c8.583,0,15.481-6.495,16.737-14.985c0.033-0.221,0.066-0.442,0.1-0.662
	c6.216-40.223-3.491-81.236-29.723-112.356C207.737,333.948,168.598,287.796,155.79,226.192z"/>
<circle style="fill:#EDEBED;" cx="255.61" cy="183.85" r="127.86"/>
<circle style="fill:#FFFFFF;" cx="255.61" cy="183.85" r="104.21"/>
<g>
	<circle style="fill:#5D5360;" cx="256.41" cy="116.22" r="16.03"/>
	<path style="fill:#5D5360;" d="M272.042,264.016h-32.065v-104.21h24.048c4.427,0,8.016,3.589,8.016,8.016v96.194H272.042z"/>
</g>
<path d="M255.814,0c-0.003,0,0,0-0.003,0C201.329,0,150.108,24.55,115.29,67.351c-36.547,44.927-50.712,103.378-38.864,160.367
	c13.116,63.087,53.323,110.766,88.797,152.832c30.943,36.692,60.169,71.35,65.98,109.744C233.107,502.872,243.453,512,255.81,512
	c12.353,0,22.704-9.136,24.611-21.723c5.816-38.388,35.039-73.041,65.978-109.728c43.717-51.84,93.267-110.597,93.267-196.694
	C439.665,82.479,357.19,0.001,255.814,0z M334.932,370.879c-32.342,38.352-62.891,74.577-69.342,117.151
	c-0.788,5.198-4.9,8.97-9.784,8.97c-4.877,0-8.986-3.764-9.771-8.95c-6.444-42.583-36.997-78.813-69.344-117.17
	c-36.004-42.694-73.235-86.843-85.579-146.215c-10.925-52.55,2.128-106.438,35.814-147.848
	C158.885,37.531,205.863,14.999,255.814,15c93.105,0.001,168.852,75.75,168.852,168.855c0,35.923-9.318,70.002-28.487,104.186
	C379.086,318.519,356.64,345.137,334.932,370.879z"/>
<path d="M232.16,256.516c-4.142,0-7.5,3.358-7.5,7.5s3.358,7.5,7.5,7.5h48.097c4.142,0,7.5-3.358,7.5-7.5s-3.358-7.5-7.5-7.5h-0.517
	v-88.693c0-8.556-6.96-15.516-15.516-15.516H232.16c-4.142,0-7.5,3.358-7.5,7.5s3.358,7.5,7.5,7.5h0.516v89.209H232.16z
	 M247.676,167.307h16.548c0.285,0,0.516,0.231,0.516,0.516v88.693h-17.064V167.307z"/>
<path d="M279.741,116.219c0-12.976-10.557-23.532-23.532-23.532c-12.976,0-23.532,10.557-23.532,23.532s10.557,23.532,23.532,23.532
	C269.184,139.751,279.741,129.194,279.741,116.219z M247.676,116.219c0-4.705,3.828-8.532,8.532-8.532
	c4.705,0,8.532,3.828,8.532,8.532s-3.828,8.532-8.532,8.532S247.676,120.923,247.676,116.219z"/>
<path d="M170.703,98.747c42.916-42.916,111.313-47.088,159.099-9.708c3.263,2.552,7.976,1.975,10.528-1.286
	c2.552-3.263,1.976-7.977-1.286-10.528c-53.749-42.045-130.68-37.352-178.948,10.916c-48.268,48.269-52.961,125.199-10.916,178.948
	c1.479,1.891,3.685,2.879,5.913,2.879c1.616,0,3.244-0.52,4.616-1.593c3.262-2.552,3.838-7.266,1.286-10.528
	C123.615,210.061,127.788,141.663,170.703,98.747z"/>
<path d="M352.427,99.954c-3.279,2.532-3.884,7.242-1.353,10.52c36.845,47.719,32.479,115.854-10.156,158.488
	s-110.77,47.001-158.488,10.156c-3.278-2.531-7.989-1.926-10.52,1.353c-2.531,3.278-1.926,7.988,1.353,10.52
	c24.389,18.831,53.519,28.091,82.545,28.091c34.852,0,69.553-13.351,95.716-39.514c47.954-47.953,52.864-124.589,11.422-178.262
	C360.415,98.028,355.706,97.423,352.427,99.954z"/>
<g>
</g>
<g>
</g>
<g>
</g>
<g>
</g>
<g>
</g>
<g>
</g>
<g>
</g>
<g>
</g>
<g>
</g>
<g>
</g>
<g>
</g>
<g>
</g>
<g>
</g>
<g>
</g>
<g>
</g>
</svg>
