<?xml version="1.0" encoding="iso-8859-1"?>
<!-- Generator: Adobe Illustrator 19.0.0, SVG Export Plug-In . SVG Version: 6.00 Build 0)  -->
<svg version="1.1" id="Capa_1" xmlns="http://www.w3.org/2000/svg" xmlns:xlink="http://www.w3.org/1999/xlink" x="0px" y="0px"
	 viewBox="0 0 512.001 512.001" style="enable-background:new 0 0 512.001 512.001;" xml:space="preserve">
<path style="fill:#DBD9DC;" d="M480.452,133.407H167.823v232.468c0,13.282,10.767,24.048,24.048,24.048H360.21l66.477,66.477
	c5.05,5.05,13.684,1.473,13.684-5.669v-60.808h40.081c13.282,0,24.048-10.767,24.048-24.048V157.456
	C504.5,144.174,493.733,133.407,480.452,133.407z"/>
<path style="fill:#C9C6CA;" d="M264.016,345.835L264.016,345.835c0-6.641,5.383-12.024,12.024-12.024h52.105
	c22.136,0,40.081-17.945,40.081-40.081V133.407H167.823v232.468c0,13.282,10.767,24.048,24.048,24.048H360.21l66.477,66.477
	c5.05,5.05,13.684,1.473,13.684-5.668v-60.809h40.081c13.282,0,24.048-10.767,24.048-24.048v-8.016H276.04
	C269.4,357.859,264.016,352.475,264.016,345.835z"/>
<path style="fill:#E6646E;" d="M320.129,53.246H31.548C18.267,53.246,7.5,64.013,7.5,77.294v208.419
	c0,13.282,10.767,24.048,24.048,24.048h40.081v60.809c0,7.142,8.635,10.718,13.684,5.668l66.477-66.477h168.339
	c13.282,0,24.048-10.767,24.048-24.048V77.294C344.177,64.013,333.411,53.246,320.129,53.246z"/>
<path style="fill:#DC4655;" d="M39.565,149.44V53.246h-8.016C18.267,53.246,7.5,64.013,7.5,77.294v208.419
	c0,13.282,10.767,24.048,24.048,24.048h40.081v60.808c0,7.142,8.635,10.718,13.685,5.668l66.477-66.477H320.13
	c13.282,0,24.048-10.767,24.048-24.048v-8.016H167.823C96.988,277.698,39.565,220.274,39.565,149.44z"/>
<path d="M187.719,107.272c-16.769-3.495-33.877,0.588-46.933,11.202c-13.056,10.616-20.544,26.346-20.544,43.157
	c0,4.142,3.358,7.5,7.5,7.5c4.142,0,7.5-3.358,7.5-7.5c0-12.276,5.47-23.764,15.007-31.518c9.536-7.754,22.078-10.727,34.409-8.156
	c15.272,3.183,27.672,15.583,30.855,30.855c4.443,21.318-7.766,41.881-28.399,47.832c-11.23,3.239-18.775,12.959-18.775,24.188
	c0,4.142,3.358,7.5,7.5,7.5s7.5-3.358,7.5-7.5c0-4.479,3.188-8.407,7.932-9.775c28.253-8.148,44.988-36.223,38.927-65.305
	C225.816,128.725,208.745,111.654,187.719,107.272z"/>
<path d="M175.839,250.324h-0.087c-4.142,0-7.457,3.358-7.457,7.5s3.402,7.5,7.544,7.5s7.5-3.358,7.5-7.5
	S179.981,250.324,175.839,250.324z"/>
<path d="M351.677,285.714V77.294c0-17.396-14.152-31.548-31.548-31.548H31.548C14.152,45.746,0,59.898,0,77.294v208.419
	c0,17.396,14.152,31.548,31.548,31.548h32.581v53.309c0,6.298,3.76,11.925,9.579,14.335c1.931,0.8,3.952,1.189,5.954,1.189
	c4.03,0,7.98-1.577,10.956-4.552l64.28-64.28H320.13C337.525,317.262,351.677,303.11,351.677,285.714z M151.791,302.262
	c-1.989,0-3.897,0.79-5.303,2.197L80.01,370.936c-0.126,0.125-0.245,0.244-0.563,0.112c-0.319-0.132-0.319-0.3-0.319-0.477v-60.809
	c0-4.142-3.358-7.5-7.5-7.5h-40.08c-9.125,0-16.548-7.423-16.548-16.548V77.294c0-9.125,7.423-16.548,16.548-16.548h288.581
	c9.125,0,16.548,7.423,16.548,16.548v208.419c0,9.125-7.423,16.548-16.548,16.548L151.791,302.262L151.791,302.262z"/>
<path d="M480.452,125.907h-104.21c-4.142,0-7.5,3.358-7.5,7.5s3.358,7.5,7.5,7.5h104.21c9.125,0,16.548,7.423,16.548,16.548v208.419
	c0,9.125-7.423,16.548-16.548,16.548h-40.081c-4.142,0-7.5,3.358-7.5,7.5v60.809c0,0.177,0,0.345-0.319,0.477
	c-0.319,0.13-0.438,0.012-0.563-0.112l-66.477-66.477c-1.406-1.407-3.314-2.197-5.303-2.197H191.871
	c-9.125,0-16.548-7.423-16.548-16.548v-24.049c0-4.142-3.358-7.5-7.5-7.5s-7.5,3.358-7.5,7.5v24.049
	c0,17.396,14.152,31.548,31.548,31.548h165.232l64.28,64.28c2.976,2.976,6.926,4.553,10.956,4.553c2.001,0,4.023-0.389,5.954-1.189
	c5.819-2.41,9.579-8.037,9.579-14.335v-53.309h32.581c17.396,0,31.548-14.152,31.548-31.548V157.456
	C512,140.06,497.848,125.907,480.452,125.907z"/>
<g>
</g>
<g>
</g>
<g>
</g>
<g>
</g>
<g>
</g>
<g>
</g>
<g>
</g>
<g>
</g>
<g>
</g>
<g>
</g>
<g>
</g>
<g>
</g>
<g>
</g>
<g>
</g>
<g>
</g>
</svg>
