<?xml version="1.0" encoding="iso-8859-1"?>
<!-- Generator: Adobe Illustrator 19.0.0, SVG Export Plug-In . SVG Version: 6.00 Build 0)  -->
<svg version="1.1" id="Capa_1" xmlns="http://www.w3.org/2000/svg" xmlns:xlink="http://www.w3.org/1999/xlink" x="0px" y="0px"
	 viewBox="0 0 512 512" style="enable-background:new 0 0 512 512;" xml:space="preserve">
<path style="fill:#FFF6D8;" d="M256,87.661c-92.825,0-168.339,75.517-168.339,168.339S163.175,424.339,256,424.339
	S424.339,348.822,424.339,256S348.825,87.661,256,87.661z"/>
<path style="fill:#E6646E;" d="M323.046,352.194H188.954c-7.052,0-12.59-6.041-11.979-13.066l13.941-160.323
	c0.54-6.214,5.742-10.983,11.979-10.983h106.21c6.237,0,11.439,4.769,11.979,10.983l13.941,160.323
	C335.636,346.153,330.098,352.194,323.046,352.194z"/>
<path style="fill:#DC4655;" d="M262.181,328.145c-32.909,0-58.753-28.189-55.902-60.974l8.639-99.349h-12.023
	c-6.237,0-11.439,4.769-11.979,10.983l-13.941,160.322c-0.611,7.025,4.927,13.066,11.979,13.066h134.092
	c7.052,0,12.59-6.041,11.979-13.066l-0.955-10.982L262.181,328.145L262.181,328.145z"/>
<circle style="fill:#E6646E;" cx="256" cy="39.565" r="32.06"/>
<path style="fill:#DC4655;" d="M272.032,55.597c-17.709,0-32.065-14.356-32.065-32.065c0-4.699,1.067-9.128,2.883-13.15
	c-11.134,5.028-18.915,16.172-18.915,29.182c0,17.708,14.356,32.065,32.065,32.065c13.01,0,24.154-7.781,29.182-18.915
	C281.16,54.531,276.731,55.597,272.032,55.597z"/>
<circle style="fill:#E6646E;" cx="256" cy="472.44" r="32.06"/>
<path style="fill:#DC4655;" d="M272.032,488.468c-17.709,0-32.065-14.356-32.065-32.065c0-4.699,1.067-9.128,2.883-13.15
	c-11.134,5.028-18.915,16.172-18.915,29.182c0,17.708,14.356,32.065,32.065,32.065c13.01,0,24.154-7.781,29.182-18.915
	C281.16,487.402,276.731,488.468,272.032,488.468z"/>
<circle style="fill:#E6646E;" cx="68.56" cy="147.78" r="32.06"/>
<path style="fill:#DC4655;" d="M84.594,163.815c-17.709,0-32.065-14.356-32.064-32.065c0-4.699,1.067-9.128,2.883-13.15
	c-11.134,5.028-18.915,16.172-18.915,29.182c0,17.708,14.356,32.065,32.064,32.065c13.01,0,24.154-7.781,29.182-18.915
	C93.722,162.748,89.293,163.815,84.594,163.815z"/>
<circle style="fill:#E6646E;" cx="443.44" cy="364.22" r="32.06"/>
<path style="fill:#DC4655;" d="M459.471,380.25c-17.709,0-32.065-14.356-32.065-32.065c0-4.699,1.067-9.128,2.883-13.15
	c-11.134,5.028-18.915,16.172-18.915,29.182c0,17.708,14.356,32.065,32.064,32.065c13.01,0,24.154-7.781,29.182-18.915
	C468.599,379.184,464.17,380.25,459.471,380.25z"/>
<circle style="fill:#E6646E;" cx="68.56" cy="364.22" r="32.06"/>
<path style="fill:#DC4655;" d="M84.594,380.25c-17.709,0-32.065-14.356-32.064-32.065c0-4.699,1.067-9.128,2.883-13.15
	c-11.134,5.028-18.915,16.172-18.915,29.182c0,17.708,14.356,32.065,32.064,32.065c13.01,0,24.154-7.781,29.182-18.915
	C93.722,379.184,89.293,380.25,84.594,380.25z"/>
<circle style="fill:#E6646E;" cx="443.44" cy="147.78" r="32.06"/>
<path style="fill:#DC4655;" d="M459.471,163.815c-17.709,0-32.065-14.356-32.065-32.065c0-4.699,1.067-9.128,2.883-13.15
	c-11.134,5.028-18.915,16.172-18.915,29.182c0,17.708,14.356,32.065,32.064,32.065c13.01,0,24.154-7.781,29.182-18.915
	C468.599,162.748,464.17,163.815,459.471,163.815z"/>
<path d="M256,79.129c18.015,0,33.245-12.107,38.009-28.608c38.149,7.006,73.439,24.467,102.369,50.726
	c1.437,1.304,3.24,1.947,5.039,1.947c2.041,0,4.075-0.829,5.556-2.459c2.784-3.067,2.554-7.81-0.513-10.594
	c-31.352-28.457-69.678-47.279-111.101-54.621C293.326,15.596,276.451,0,256,0c-21.816,0-39.564,17.749-39.564,39.564
	C216.436,61.381,234.184,79.129,256,79.129z M256,15c13.545,0,24.564,11.02,24.564,24.564S269.545,64.129,256,64.129
	s-24.564-11.02-24.564-24.564S242.455,15,256,15z"/>
<path d="M256,432.871c-18.016,0-33.247,12.108-38.01,28.611c-38.136-7.005-73.44-24.478-102.349-50.711
	c-3.067-2.783-7.811-2.554-10.594,0.514c-2.784,3.067-2.554,7.811,0.514,10.594c31.329,28.43,69.672,47.262,111.081,54.604
	C218.674,496.404,235.55,512,256,512c21.816,0,39.564-17.749,39.564-39.564C295.564,450.619,277.816,432.871,256,432.871z M256,497
	c-13.545,0-24.564-11.02-24.564-24.564s11.02-24.564,24.564-24.564c13.544,0,24.564,11.02,24.564,24.564S269.545,497,256,497z"/>
<path d="M48.779,182.046c6.216,3.589,13.007,5.294,19.716,5.293c13.683-0.001,27.011-7.097,34.33-19.774
	c5.284-9.152,6.688-19.814,3.952-30.022c-1.758-6.563-5.1-12.428-9.69-17.188c25.772-30.186,59.207-52.258,97.001-63.967
	c3.956-1.226,6.17-5.427,4.944-9.384c-1.226-3.955-5.422-6.171-9.384-4.944c-40.963,12.69-77.147,36.728-104.885,69.625
	c-8.291-3.74-17.54-4.505-26.443-2.119c-10.208,2.735-18.739,9.282-24.023,18.434C23.39,146.893,29.886,171.138,48.779,182.046z
	 M47.288,135.5c3.281-5.683,8.578-9.747,14.916-11.445c2.116-0.567,4.264-0.848,6.397-0.848c4.256,0,8.457,1.116,12.242,3.302
	c5.683,3.281,9.747,8.578,11.445,14.916s0.826,12.957-2.454,18.64c-6.772,11.729-21.825,15.765-33.556,8.991
	C44.549,162.283,40.516,147.23,47.288,135.5z"/>
<path d="M463.221,329.954c-18.892-10.908-43.138-4.413-54.046,14.481c-5.284,9.152-6.688,19.814-3.952,30.022
	c1.758,6.563,5.1,12.428,9.69,17.188c-25.771,30.186-59.2,52.256-97,63.967c-3.956,1.226-6.17,5.427-4.944,9.383
	c0.997,3.217,3.961,5.283,7.162,5.283c0.734,0,1.482-0.109,2.222-0.338c40.976-12.695,77.159-36.733,104.899-69.64
	c5.115,2.306,10.586,3.499,16.124,3.499c3.437,0,6.896-0.452,10.305-1.365c10.208-2.735,18.739-9.282,24.023-18.434
	C488.61,365.107,482.114,340.862,463.221,329.954z M464.712,376.5c-3.281,5.683-8.578,9.747-14.916,11.445
	c-6.336,1.698-12.957,0.827-18.64-2.454s-9.747-8.578-11.445-14.916s-0.826-12.957,2.454-18.64
	c4.545-7.872,12.818-12.277,21.315-12.277c4.164,0,8.382,1.059,12.24,3.286C467.451,349.717,471.484,364.77,464.712,376.5z"/>
<path d="M409.175,167.564c7.32,12.679,20.646,19.775,34.33,19.774c3.16,0,6.337-0.393,9.465-1.168
	c7.934,22.363,11.965,45.818,11.965,69.83c0,15.67-1.741,31.294-5.177,46.436c-0.916,4.04,1.616,8.057,5.655,8.974
	c0.559,0.126,1.116,0.188,1.666,0.188c3.425,0,6.518-2.362,7.308-5.843c3.682-16.229,5.548-32.969,5.548-49.754
	c0-26.202-4.475-51.795-13.296-76.168c16.223-11.725,21.284-34.128,11.063-51.832c-5.284-9.152-13.815-15.699-24.023-18.434
	c-10.21-2.735-20.871-1.332-30.022,3.953c-9.152,5.284-15.699,13.815-18.434,24.023C402.487,147.75,403.891,158.412,409.175,167.564
	z M419.711,141.425c1.698-6.338,5.763-11.635,11.445-14.916c3.785-2.186,7.985-3.302,12.242-3.302c2.134,0,4.281,0.281,6.397,0.848
	c6.338,1.698,11.635,5.763,14.916,11.445c6.772,11.73,2.739,26.783-8.991,33.556c-11.731,6.773-26.782,2.738-33.556-8.991
	C418.885,154.382,418.013,147.763,419.711,141.425z"/>
<path d="M102.825,344.436c-9.011-15.608-27.125-22.743-43.802-18.607C51.09,303.458,47.064,279.989,47.064,256
	c0-15.673,1.742-31.297,5.178-46.438c0.916-4.04-1.615-8.057-5.655-8.974c-4.039-0.916-8.057,1.615-8.974,5.655
	c-3.682,16.229-5.549,32.969-5.549,49.757c0,26.178,4.483,51.783,13.302,76.164C29.138,343.888,24.075,366.294,34.298,384
	c5.284,9.152,13.815,15.699,24.023,18.434c3.409,0.914,6.868,1.365,10.305,1.365c6.855,0,13.622-1.798,19.718-5.318
	c9.152-5.284,15.699-13.815,18.434-24.023C109.513,364.25,108.109,353.588,102.825,344.436z M92.289,370.575
	c-1.698,6.338-5.763,11.635-11.445,14.916s-12.302,4.152-18.64,2.454s-11.635-5.763-14.916-11.445
	c-6.772-11.73-2.739-26.783,8.991-33.556c11.732-6.772,26.783-2.738,33.556,8.991C93.115,357.618,93.987,364.237,92.289,370.575z"/>
<path d="M183.444,178.155l-13.941,160.323c-0.473,5.438,1.372,10.863,5.061,14.886c3.688,4.022,8.934,6.329,14.391,6.329h134.092
	c5.457,0,10.703-2.307,14.391-6.329c3.688-4.023,5.533-9.448,5.061-14.886l-13.941-160.322c-0.884-10.167-9.245-17.833-19.45-17.833
	h-21.557v-8.532c0-17.396-14.152-31.548-31.549-31.548s-31.549,14.152-31.549,31.548v8.532h-21.557
	C192.689,160.322,184.328,167.989,183.444,178.155z M239.451,151.79c0-9.125,7.424-16.548,16.549-16.548s16.549,7.423,16.549,16.548
	v8.532h-33.098L239.451,151.79L239.451,151.79z M202.895,175.322h21.557v8.532c0,4.143,3.357,7.5,7.5,7.5s7.5-3.357,7.5-7.5v-8.532
	h33.098v8.532c0,4.143,3.357,7.5,7.5,7.5s7.5-3.357,7.5-7.5v-8.532h21.557c2.364,0,4.302,1.776,4.507,4.133l13.941,160.322
	c0.149,1.725-0.671,2.902-1.173,3.45c-0.503,0.548-1.604,1.467-3.335,1.467H188.954c-1.731,0-2.832-0.919-3.335-1.467
	c-0.502-0.548-1.322-1.725-1.173-3.449l13.941-160.323C198.593,177.099,200.53,175.322,202.895,175.322z"/>
<g>
</g>
<g>
</g>
<g>
</g>
<g>
</g>
<g>
</g>
<g>
</g>
<g>
</g>
<g>
</g>
<g>
</g>
<g>
</g>
<g>
</g>
<g>
</g>
<g>
</g>
<g>
</g>
<g>
</g>
</svg>
