<?xml version="1.0" encoding="iso-8859-1"?>
<!-- Generator: Adobe Illustrator 19.0.0, SVG Export Plug-In . SVG Version: 6.00 Build 0)  -->
<svg version="1.1" id="Capa_1" xmlns="http://www.w3.org/2000/svg" xmlns:xlink="http://www.w3.org/1999/xlink" x="0px" y="0px"
	 viewBox="0 0 511.999 511.999" style="enable-background:new 0 0 511.999 511.999;" xml:space="preserve">
<path style="fill:#EDEBED;" d="M416.323,183.854c-3.374,0-6.689,0.231-9.963,0.6c-6.919-27.949-32.095-48.697-62.182-48.697
	c-1.567,0-3.102,0.123-4.64,0.235c-24.062-38.596-66.771-64.364-115.602-64.364c-55.543,0-103.237,33.278-124.462,80.94
	C47.696,158.635,7.5,202.593,7.5,255.999c0,57.553,46.656,104.21,104.21,104.21h304.613c48.7,0,88.177-39.478,88.177-88.177
	S465.022,183.854,416.323,183.854z"/>
<path style="fill:#E2E0E3;" d="M239.968,336.16c-57.553,0-104.21-46.656-104.21-104.21c0-53.406,40.196-97.364,91.973-103.431
	c8.736-19.617,22.009-36.734,38.415-50.16c-13.287-4.345-27.462-6.731-42.21-6.731c-55.543,0-103.237,33.278-124.462,80.94
	C47.696,158.635,7.5,202.593,7.5,255.999c0,57.553,46.656,104.21,104.21,104.21h304.613c23.399,0,44.609-9.177,60.395-24.048
	L239.968,336.16L239.968,336.16z"/>
<path style="fill:#E6646E;" d="M326.861,440.37H169.1c-9.339,0-16.701-7.95-15.985-17.262l13.566-176.355
	c0.643-8.353,7.608-14.803,15.985-14.803h130.63c8.377,0,15.342,6.45,15.985,14.803l13.566,176.355
	C343.563,432.42,336.2,440.37,326.861,440.37z"/>
<path style="fill:#DC4655;" d="M268.499,408.305c-42.025,0-75.156-35.777-71.933-77.678l7.591-98.676h-21.491
	c-8.377,0-15.343,6.45-15.985,14.803l-13.565,176.355c-0.716,9.311,6.646,17.262,15.985,17.262h157.761
	c9.339,0,16.701-7.95,15.985-17.262l-1.139-14.803L268.499,408.305L268.499,408.305z"/>
<path d="M336.759,246.178c-0.937-12.184-11.243-21.728-23.463-21.728h-25.751v-8.532c0-21.816-17.749-39.564-39.564-39.564
	s-39.564,17.749-39.564,39.564v8.532h-25.75c-12.22,0-22.526,9.544-23.463,21.728l-13.565,176.354
	c-0.502,6.515,1.757,13,6.195,17.794c4.439,4.794,10.733,7.544,17.268,7.544h157.761c6.533,0,12.826-2.75,17.266-7.543
	c4.439-4.794,6.698-11.279,6.197-17.794L336.759,246.178z M223.416,215.918c0-13.545,11.02-24.564,24.564-24.564
	s24.564,11.02,24.564,24.564v8.532h-49.129L223.416,215.918L223.416,215.918z M333.121,430.135c-1.633,1.764-3.856,2.735-6.26,2.735
	h-157.76c-2.404,0-4.628-0.971-6.261-2.735c-1.634-1.764-2.432-4.055-2.247-6.452l13.565-176.354
	c0.34-4.417,4.077-7.878,8.508-7.878h25.75v16.548c0,4.142,3.357,7.5,7.5,7.5s7.5-3.358,7.5-7.5v-16.548h49.129v16.548
	c0,4.142,3.357,7.5,7.5,7.5s7.5-3.358,7.5-7.5v-16.548h25.751c4.431,0,8.168,3.46,8.508,7.878l13.565,176.354
	C335.553,426.08,334.755,428.371,333.121,430.135z"/>
<path d="M416.322,176.354c-1.473,0-2.969,0.04-4.507,0.12c-9.872-28.689-36.831-48.216-67.638-48.216
	c-0.235,0-0.469,0.002-0.7,0.006c-26.806-40.246-71.163-64.136-119.542-64.136c-55.266,0-105.655,31.875-129.544,81.565
	C40.284,154.103,0,200.794,0,255.999c0,61.597,50.113,111.709,111.71,111.709h16.032c4.143,0,7.5-3.358,7.5-7.5s-3.357-7.5-7.5-7.5
	H111.71c-53.326,0-96.71-43.383-96.71-96.709c0-49.018,36.69-90.28,85.346-95.981c2.629-0.308,4.901-1.98,5.979-4.398
	c20.692-46.467,66.858-76.492,117.611-76.492c44.654,0,85.49,22.741,109.237,60.832c1.473,2.362,4.151,3.713,6.905,3.513l0.406-0.03
	c1.304-0.095,2.536-0.185,3.693-0.185c26.058,0,48.634,17.682,54.9,42.999c0.904,3.654,4.387,6.072,8.119,5.651
	c3.304-0.372,6.288-0.553,9.125-0.553c44.485,0,80.678,36.191,80.678,80.677c0,44.485-36.192,80.677-80.678,80.677h-46.343
	c-4.143,0-7.5,3.358-7.5,7.5s3.357,7.5,7.5,7.5h46.343c52.757,0,95.678-42.92,95.678-95.677S469.079,176.354,416.322,176.354z"/>
<g>
</g>
<g>
</g>
<g>
</g>
<g>
</g>
<g>
</g>
<g>
</g>
<g>
</g>
<g>
</g>
<g>
</g>
<g>
</g>
<g>
</g>
<g>
</g>
<g>
</g>
<g>
</g>
<g>
</g>
</svg>
