<?xml version="1.0" encoding="iso-8859-1"?>
<!-- Generator: Adobe Illustrator 19.0.0, SVG Export Plug-In . SVG Version: 6.00 Build 0)  -->
<svg version="1.1" id="Capa_1" xmlns="http://www.w3.org/2000/svg" xmlns:xlink="http://www.w3.org/1999/xlink" x="0px" y="0px"
	 viewBox="0 0 512 512" style="enable-background:new 0 0 512 512;" xml:space="preserve">
<path style="fill:#DBD9DC;" d="M368.226,39.565H31.548C18.267,39.565,7.5,50.331,7.5,63.613v40.081h384.774V63.613
	C392.274,50.331,381.507,39.565,368.226,39.565z"/>
<path style="fill:#FFFFFF;" d="M368.226,360.21H31.548c-13.282,0-24.048-10.767-24.048-24.048V103.694h384.774v232.468
	C392.274,349.443,381.507,360.21,368.226,360.21z"/>
<path style="fill:#EDEBED;" d="M352.481,192.968l-7.771-31.083c-1.722-6.889-7.408-12.073-14.427-13.152
	c-42.971-6.611-86.7-6.611-129.672,0c-7.019,1.079-12.705,6.264-14.427,13.152l-7.771,31.083c-0.668,2.672,0.61,5.451,3.074,6.683
	l31.053,15.526v99.072c0,3.247,2.632,5.879,5.879,5.879h94.056c3.247,0,5.879-2.632,5.879-5.879v-99.072l31.053-15.526
	C351.871,198.419,353.149,195.64,352.481,192.968z"/>
<g>
	<path style="fill:#DBD9DC;" d="M344.581,161.885l7.771,31.083c0.668,2.673-0.61,5.451-3.074,6.684l-31.053,15.526v-26.852
		c0-5.077,1.607-10.024,4.591-14.132l15.707-21.625C341.423,154.926,343.635,158.102,344.581,161.885z"/>
	<path style="fill:#DBD9DC;" d="M236.795,239.968v-1.012c0-5.594-2.916-10.784-7.694-13.693l-16.561-10.085v99.072
		c0,3.247,2.632,5.879,5.879,5.879h94.055c3.247,0,5.879-2.632,5.879-5.879v-18.17h-25.446
		C261.917,296.081,236.795,270.958,236.795,239.968z"/>
</g>
<circle style="fill:#E6646E;" cx="392.27" cy="360.21" r="112.23"/>
<path style="fill:#DC4655;" d="M424.339,440.371c-61.98,0-112.226-50.245-112.226-112.226c0-22.787,6.836-43.956,18.505-61.657
	c-30.447,20.071-50.569,54.527-50.569,93.721c0,61.981,50.245,112.226,112.226,112.226c39.194,0,73.65-20.123,93.722-50.569
	C468.294,433.535,447.125,440.371,424.339,440.371z"/>
<path style="fill:#FFE17D;" d="M288.352,192.968l-7.771-31.083c-1.722-6.889-7.408-12.073-14.427-13.152
	c-42.971-6.611-86.7-6.611-129.672,0c-7.019,1.079-12.705,6.264-14.427,13.152l-7.771,31.083c-0.668,2.672,0.61,5.451,3.074,6.683
	l31.053,15.526v99.072c0,3.247,2.632,5.879,5.879,5.879h94.056c3.247,0,5.879-2.632,5.879-5.879v-99.072l31.053-15.526
	C287.742,198.419,289.02,195.64,288.352,192.968z"/>
<g>
	<path style="fill:#FFD164;" d="M280.452,161.885l7.77,31.083c0.668,2.673-0.61,5.451-3.074,6.684l-31.053,15.526v-26.852
		c0-5.077,1.607-10.024,4.591-14.132l15.707-21.625C277.294,154.926,279.506,158.102,280.452,161.885z"/>
	<path style="fill:#FFD164;" d="M172.666,239.968v-1.012c0-5.594-2.916-10.784-7.694-13.693l-16.561-10.085v99.072
		c0,3.247,2.632,5.879,5.879,5.879h94.055c3.247,0,5.879-2.632,5.879-5.879v-18.17h-25.446
		C197.788,296.081,172.666,270.958,172.666,239.968z"/>
</g>
<path style="fill:#E6646E;" d="M223.889,192.968l-7.771-31.083c-1.722-6.889-7.408-12.073-14.427-13.152
	c-42.971-6.611-86.7-6.611-129.672,0c-7.019,1.079-12.705,6.264-14.427,13.152l-7.771,31.083c-0.668,2.672,0.61,5.451,3.074,6.683
	l31.053,15.526v99.072c0,3.247,2.632,5.879,5.879,5.879h94.056c3.247,0,5.879-2.632,5.879-5.879v-99.072l31.053-15.526
	C223.279,198.419,224.557,195.64,223.889,192.968z"/>
<g>
	<path style="fill:#DC4655;" d="M57.592,161.885l-7.77,31.083c-0.668,2.673,0.61,5.451,3.074,6.684l31.053,15.526v-26.852
		c0-5.077-1.607-10.024-4.591-14.132l-15.707-21.625C60.75,154.926,58.537,158.102,57.592,161.885z"/>
	<path style="fill:#DC4655;" d="M215.989,161.885l7.77,31.083c0.668,2.673-0.61,5.451-3.074,6.684l-31.053,15.526v-26.852
		c0-5.077,1.607-10.024,4.591-14.132l15.707-21.625C212.831,154.926,215.043,158.102,215.989,161.885z"/>
</g>
<path style="fill:#C43F4F;" d="M95.484,145.862l-0.001,0.001c8.162,13.394,21.143,30.495,38.781,40.551
	c0.816,0.466,1.717,0.699,2.619,0.699s1.803-0.233,2.62-0.699c17.637-10.055,30.613-27.152,38.776-40.546l0,0
	C150.742,143.18,123.021,143.178,95.484,145.862z"/>
<path style="fill:#DC4655;" d="M108.203,239.968v-1.012c0-5.594-2.916-10.784-7.694-13.693l-16.561-10.085v99.072
	c0,3.247,2.632,5.879,5.879,5.879h94.055c3.247,0,5.879-2.632,5.879-5.879v-18.17h-25.446
	C133.325,296.081,108.203,270.958,108.203,239.968z"/>
<path d="M392.274,240.483c-66.017,0-119.726,53.709-119.726,119.727c0,66.017,53.709,119.726,119.726,119.726
	S512,426.227,512,360.21C512,294.192,458.291,240.483,392.274,240.483z M392.274,464.936c-57.746,0-104.726-46.979-104.726-104.726
	s46.979-104.727,104.726-104.727S497,302.464,497,360.21S450.021,464.936,392.274,464.936z"/>
<path d="M247.985,352.71H31.548c-9.125,0-16.548-7.424-16.548-16.549V111.193h313.144c4.143,0,7.5-3.357,7.5-7.5s-3.357-7.5-7.5-7.5
	H15v-32.58c0-9.125,7.423-16.549,16.548-16.549h336.677c9.125,0,16.549,7.424,16.549,16.549v32.58h-24.562
	c-4.143,0-7.5,3.357-7.5,7.5s3.357,7.5,7.5,7.5h24.562v104.724c0,4.143,3.357,7.5,7.5,7.5s7.5-3.357,7.5-7.5V63.613
	c0-17.396-14.152-31.549-31.549-31.549H31.548C14.152,32.064,0,46.217,0,63.613v272.548c0,17.396,14.152,31.549,31.548,31.549
	h216.437c4.142,0,7.5-3.357,7.5-7.5S252.127,352.71,247.985,352.71z"/>
<path d="M39.564,64.129c-4.142,0-7.46,3.357-7.46,7.5s3.398,7.5,7.54,7.5s7.5-3.357,7.5-7.5s-3.358-7.5-7.5-7.5H39.564z"/>
<path d="M87.661,64.129c-4.142,0-7.46,3.357-7.46,7.5s3.398,7.5,7.54,7.5s7.5-3.357,7.5-7.5s-3.358-7.5-7.5-7.5H87.661z"/>
<path d="M63.533,64.129c-4.142,0-7.46,3.357-7.46,7.5s3.398,7.5,7.54,7.5s7.5-3.357,7.5-7.5s-3.358-7.5-7.5-7.5H63.533z"/>
<path d="M119.726,64.129c-4.142,0-7.5,3.357-7.5,7.5s3.358,7.5,7.5,7.5h152.307c4.143,0,7.5-3.357,7.5-7.5s-3.357-7.5-7.5-7.5
	H119.726z"/>
<path d="M367.71,71.629c0-4.143-3.357-7.5-7.5-7.5h-56.113c-4.143,0-7.5,3.357-7.5,7.5s3.357,7.5,7.5,7.5h56.113
	C364.353,79.129,367.71,75.771,367.71,71.629z"/>
<path d="M89.827,327.629h94.056c7.377,0,13.378-6.001,13.378-13.378v-94.438l26.908-13.453c5.651-2.826,8.528-9.081,6.996-15.211
	l-7.771-31.082c-2.461-9.845-10.533-17.203-20.563-18.747c-43.778-6.734-88.173-6.734-131.953,0
	c-10.031,1.544-18.102,8.902-20.563,18.747l-7.771,31.082c-1.533,6.13,1.343,12.385,6.996,15.211l26.907,13.453v94.438
	C76.448,321.628,82.45,327.629,89.827,327.629z M164.38,152.195c-6.831,9.713-16.055,20.14-27.494,27.015
	c-11.445-6.879-20.676-17.319-27.498-27.019C127.704,150.985,146.065,150.986,164.38,152.195z M57.413,193.525l7.455-29.821
	c0.993-3.97,4.247-6.937,8.292-7.559c6.394-0.984,12.802-1.8,19.219-2.486c8.184,13.093,20.99,29.427,38.32,39.308
	c1.885,1.076,4.024,1.646,6.188,1.646s4.304-0.569,6.184-1.643c17.316-9.873,30.113-26.177,38.32-39.305
	c6.397,0.685,12.786,1.499,19.16,2.48c4.045,0.622,7.3,3.59,8.292,7.56l7.455,29.819l-19.036,9.518v-11.378
	c0-4.143-3.358-7.5-7.5-7.5s-7.5,3.357-7.5,7.5v120.965H91.448V191.664c0-4.143-3.358-7.5-7.5-7.5s-7.5,3.357-7.5,7.5v11.379
	L57.413,193.525z"/>
<path d="M288.345,206.359c5.65-2.825,8.528-9.08,6.996-15.211l-7.771-31.082c-2.462-9.845-10.533-17.203-20.563-18.747
	c-8.011-1.231-16.153-2.251-24.201-3.029c-4.121-0.4-7.789,2.619-8.188,6.743c-0.398,4.123,2.621,7.788,6.743,8.187
	c7.769,0.752,15.63,1.736,23.364,2.926c4.045,0.622,7.3,3.59,8.292,7.56l7.455,29.819l-19.035,9.518v-11.378
	c0-4.143-3.358-7.5-7.5-7.5s-7.5,3.357-7.5,7.5V312.63h-28.406c-4.142,0-7.5,3.357-7.5,7.5s3.358,7.5,7.5,7.5h30.028
	c7.377,0,13.379-6.001,13.379-13.378v-94.438L288.345,206.359z"/>
<path d="M318.066,184.164c-4.143,0-7.5,3.357-7.5,7.5v48.304c0,4.143,3.357,7.5,7.5,7.5s7.5-3.357,7.5-7.5v-20.155l26.907-13.454
	c5.65-2.825,8.528-9.08,6.996-15.211l-7.771-31.082c-2.462-9.845-10.533-17.203-20.563-18.747
	c-8.012-1.232-16.154-2.251-24.201-3.029c-4.129-0.407-7.788,2.62-8.187,6.743c-0.399,4.123,2.62,7.788,6.743,8.187
	c7.768,0.752,15.628,1.735,23.364,2.926c4.044,0.622,7.299,3.59,8.291,7.56l7.455,29.819l-19.035,9.518v-11.378
	C325.566,187.521,322.209,184.164,318.066,184.164z"/>
<path d="M437.658,314.825c-2.93-2.928-7.678-2.928-10.607,0l-80.161,80.161c-2.929,2.93-2.929,7.678,0,10.607
	c1.465,1.464,3.385,2.196,5.304,2.196s3.839-0.732,5.304-2.196l80.161-80.161C440.587,322.503,440.587,317.755,437.658,314.825z"/>
<path d="M383.742,328.146c0-12.976-10.557-23.532-23.532-23.532s-23.532,10.557-23.532,23.532s10.557,23.532,23.532,23.532
	S383.742,341.121,383.742,328.146z M351.678,328.146c0-4.705,3.827-8.532,8.532-8.532s8.532,3.827,8.532,8.532
	s-3.827,8.532-8.532,8.532S351.678,332.851,351.678,328.146z"/>
<path d="M424.339,368.742c-12.976,0-23.532,10.557-23.532,23.532s10.557,23.532,23.532,23.532s23.532-10.557,23.532-23.532
	S437.314,368.742,424.339,368.742z M424.339,400.807c-4.705,0-8.532-3.827-8.532-8.532s3.827-8.532,8.532-8.532
	s8.532,3.827,8.532,8.532S429.044,400.807,424.339,400.807z"/>
<g>
</g>
<g>
</g>
<g>
</g>
<g>
</g>
<g>
</g>
<g>
</g>
<g>
</g>
<g>
</g>
<g>
</g>
<g>
</g>
<g>
</g>
<g>
</g>
<g>
</g>
<g>
</g>
<g>
</g>
</svg>
