<?xml version="1.0" encoding="iso-8859-1"?>
<!-- Generator: Adobe Illustrator 19.0.0, SVG Export Plug-In . SVG Version: 6.00 Build 0)  -->
<svg version="1.1" id="Capa_1" xmlns="http://www.w3.org/2000/svg" xmlns:xlink="http://www.w3.org/1999/xlink" x="0px" y="0px"
	 viewBox="0 0 512 512" style="enable-background:new 0 0 512 512;" xml:space="preserve">
<path style="fill:#DBD9DC;" d="M368.226,40.529H31.548C18.267,40.529,7.5,51.296,7.5,64.577v40.081h384.774V64.577
	C392.274,51.296,381.507,40.529,368.226,40.529z"/>
<path style="fill:#FFFFFF;" d="M368.226,361.174H31.548c-13.282,0-24.048-10.767-24.048-24.048V104.658h384.774v232.468
	C392.274,350.407,381.507,361.174,368.226,361.174z"/>
<g>
	<path style="fill:#E6646E;" d="M239.968,176.803h104.21c4.427,0,8.016-3.589,8.016-8.016v-16.032c0-4.427-3.589-8.016-8.016-8.016
		h-104.21c-4.427,0-8.016,3.589-8.016,8.016v16.032C231.952,173.214,235.541,176.803,239.968,176.803z"/>
	<path style="fill:#E6646E;" d="M439.041,272.997c-14.567,0-28.02,4.761-38.894,12.809c-4.391,3.25-10.234,3.25-14.625,0
		c-10.874-8.048-24.327-12.809-38.894-12.809c-36.152,0-65.459,29.307-65.459,65.459c0,47.836,53.625,104.902,104.588,131.294
		c4.421,2.289,9.735,2.289,14.156,0C450.875,443.358,504.5,386.292,504.5,338.456C504.5,302.304,475.193,272.997,439.041,272.997z"
		/>
</g>
<g>
	<path style="fill:#DC4655;" d="M338.441,334.259c0-23.019,9.253-43.861,24.215-59.069c-5.152-1.304-10.471-2.194-16.029-2.194
		c-36.152,0-65.459,29.307-65.459,65.459c0,47.835,53.625,104.901,104.588,131.294c4.421,2.289,9.735,2.289,14.155,0
		c4.507-2.334,9.028-4.985,13.537-7.771C371.425,425.03,338.441,376.815,338.441,334.259z"/>
	<polygon style="fill:#DC4655;" points="103.694,160.771 135.758,192.835 167.823,160.771 151.79,144.738 119.726,144.738 	"/>
</g>
<polygon style="fill:#E6646E;" points="119.726,144.738 103.694,160.771 167.823,160.771 151.79,144.738 "/>
<path d="M247.984,353.674H31.549c-9.125,0-16.549-7.423-16.549-16.548V112.158h313.144c4.143,0,7.5-3.357,7.5-7.5
	s-3.357-7.5-7.5-7.5H15V64.577c0-9.125,7.424-16.548,16.549-16.548h336.677c9.125,0,16.549,7.423,16.549,16.548v32.581h-24.562
	c-4.143,0-7.5,3.357-7.5,7.5s3.357,7.5,7.5,7.5h24.562v136.79c0,4.143,3.357,7.5,7.5,7.5s7.5-3.357,7.5-7.5V64.577
	c0-17.396-14.152-31.548-31.549-31.548H31.549C14.152,33.029,0,47.182,0,64.577v272.549c0,17.396,14.152,31.548,31.549,31.548
	h216.436c4.143,0,7.5-3.357,7.5-7.5S252.127,353.674,247.984,353.674z"/>
<path d="M39.564,65.094c-4.143,0-7.46,3.357-7.46,7.5s3.397,7.5,7.54,7.5s7.5-3.357,7.5-7.5s-3.357-7.5-7.5-7.5H39.564z"/>
<path d="M87.661,65.094c-4.143,0-7.46,3.357-7.46,7.5s3.397,7.5,7.54,7.5s7.5-3.357,7.5-7.5s-3.357-7.5-7.5-7.5H87.661z"/>
<path d="M63.533,65.094c-4.143,0-7.46,3.357-7.46,7.5s3.397,7.5,7.54,7.5s7.5-3.357,7.5-7.5s-3.357-7.5-7.5-7.5H63.533z"/>
<path d="M119.726,65.094c-4.143,0-7.5,3.357-7.5,7.5s3.357,7.5,7.5,7.5h152.307c4.143,0,7.5-3.357,7.5-7.5s-3.357-7.5-7.5-7.5
	H119.726z"/>
<path d="M367.71,72.594c0-4.143-3.357-7.5-7.5-7.5h-56.113c-4.143,0-7.5,3.357-7.5,7.5s3.357,7.5,7.5,7.5h56.113
	C364.353,80.094,367.71,76.736,367.71,72.594z"/>
<path d="M439.041,265.496c-15.741,0-30.733,4.938-43.356,14.28c-1.732,1.281-3.969,1.281-5.701,0
	c-12.623-9.343-27.615-14.28-43.355-14.28c-40.23,0-72.96,32.729-72.96,72.96c0,51.136,55.237,110.298,108.639,137.953
	c3.296,1.708,6.911,2.562,10.527,2.562c3.615,0,7.231-0.854,10.527-2.561C456.763,448.754,512,389.592,512,338.456
	C512,298.226,479.271,265.496,439.041,265.496z M396.463,463.091c-2.273,1.176-4.986,1.177-7.258-0.001
	c-62.1-32.159-100.537-89.734-100.537-124.634c0-31.959,26.001-57.96,57.96-57.96c12.504,0,24.41,3.92,34.432,11.337
	c7.042,5.212,16.507,5.214,23.549,0c10.021-7.417,21.928-11.337,34.433-11.337c31.959,0,57.959,26.001,57.959,57.96
	C497,383.279,444.813,438.051,396.463,463.091z"/>
<path d="M359.693,168.787v-16.032c0-8.556-6.96-15.517-15.516-15.517h-104.21c-8.556,0-15.517,6.961-15.517,15.517v16.032
	c0,8.556,6.961,15.516,15.517,15.516h104.21C352.733,184.303,359.693,177.343,359.693,168.787z M239.451,168.787v-16.032
	c0-0.285,0.231-0.517,0.517-0.517h104.21c0.284,0,0.516,0.231,0.516,0.517v16.032c0,0.284-0.231,0.516-0.516,0.516h-104.21
	C239.683,169.303,239.451,169.071,239.451,168.787z"/>
<path d="M335.646,208.867c0-4.143-3.357-7.5-7.5-7.5h-88.178c-4.143,0-7.5,3.357-7.5,7.5s3.357,7.5,7.5,7.5h88.178
	C332.288,216.367,335.646,213.01,335.646,208.867z"/>
<path d="M239.968,233.432c-4.143,0-7.5,3.357-7.5,7.5s3.357,7.5,7.5,7.5h64.129c4.143,0,7.5-3.357,7.5-7.5s-3.357-7.5-7.5-7.5
	H239.968z"/>
<path d="M64.129,256.964c0,39.497,32.133,71.63,71.629,71.63s71.629-32.133,71.629-71.63c0-33.913-23.698-62.376-55.399-69.752
	l21.138-21.138c2.929-2.93,2.929-7.678,0-10.607l-16.032-16.032c-1.407-1.406-3.314-2.196-5.304-2.196h-32.064
	c-1.989,0-3.896,0.79-5.304,2.196L98.39,155.467c-2.929,2.93-2.929,7.678,0,10.607l21.138,21.138
	C87.827,194.588,64.129,223.051,64.129,256.964z M122.832,152.238h25.852l8.532,8.532l-21.458,21.458L114.3,160.771L122.832,152.238
	z M135.758,200.335c31.226,0,56.629,25.403,56.629,56.629s-25.403,56.63-56.629,56.63s-56.629-25.404-56.629-56.63
	S104.532,200.335,135.758,200.335z"/>
<g>
</g>
<g>
</g>
<g>
</g>
<g>
</g>
<g>
</g>
<g>
</g>
<g>
</g>
<g>
</g>
<g>
</g>
<g>
</g>
<g>
</g>
<g>
</g>
<g>
</g>
<g>
</g>
<g>
</g>
</svg>
