<?xml version="1.0" encoding="iso-8859-1"?>
<!-- Generator: Adobe Illustrator 19.0.0, SVG Export Plug-In . SVG Version: 6.00 Build 0)  -->
<svg version="1.1" id="Capa_1" xmlns="http://www.w3.org/2000/svg" xmlns:xlink="http://www.w3.org/1999/xlink" x="0px" y="0px"
	 viewBox="0 0 512 512" style="enable-background:new 0 0 512 512;" xml:space="preserve">
<path style="fill:#DBD9DC;" d="M368.227,39.566H31.551c-13.282,0-24.048,10.767-24.048,24.048v40.08h384.772v-40.08
	C392.275,50.333,381.508,39.566,368.227,39.566z"/>
<path style="fill:#FFFFFF;" d="M368.227,360.209H31.551c-13.281,0-24.048-10.767-24.048-24.048V103.694h384.772V336.16
	C392.275,349.442,381.508,360.209,368.227,360.209z"/>
<circle style="fill:#FFE17D;" cx="392.27" cy="360.21" r="112.22"/>
<path style="fill:#FFD164;" d="M424.339,440.37c-61.98,0-112.225-50.245-112.225-112.225c0-22.786,6.835-43.956,18.504-61.656
	c-30.446,20.071-50.569,54.527-50.569,93.721c0,61.98,50.245,112.225,112.225,112.225c39.194,0,73.65-20.122,93.721-50.569
	C468.295,433.534,447.125,440.37,424.339,440.37z"/>
<path style="fill:#FFE17D;" d="M223.937,304.096H79.648c-8.854,0-16.032-7.178-16.032-16.032V175.839
	c0-8.854,7.178-16.032,16.032-16.032h144.289c8.854,0,16.032,7.178,16.032,16.032v112.225
	C239.969,296.919,232.792,304.096,223.937,304.096z"/>
<path style="fill:#FFC350;" d="M247.982,256H191.87c-4.427,0-8.016-3.589-8.016-8.016V215.92c0-4.427,3.589-8.016,8.016-8.016
	h56.113c4.427,0,8.016,3.589,8.016,8.016v32.064C255.998,252.411,252.41,256,247.982,256z"/>
<path style="fill:#FFD164;" d="M151.792,280.048c-35.417,0-64.129-28.711-64.129-64.129v-56.113h-8.016
	c-8.854,0-16.032,7.178-16.032,16.032v112.225c0,8.854,7.178,16.032,16.032,16.032h144.289c8.854,0,16.032-7.178,16.032-16.032
	v-8.016h-88.176V280.048z"/>
<path style="fill:#9C969E;" d="M424.336,416.322h-64.129c-4.427,0-8.016-3.589-8.016-8.016v-56.113c0-4.427,3.589-8.016,8.016-8.016
	h64.129c4.427,0,8.016,3.589,8.016,8.016v56.113C432.352,412.733,428.763,416.322,424.336,416.322z"/>
<path style="fill:#867E88;" d="M408.307,392.273c-17.709,0-32.064-14.356-32.064-32.064v-16.032h-16.035
	c-4.427,0-8.016,3.589-8.016,8.016v56.113c0,4.427,3.589,8.016,8.016,8.016h64.129c4.427,0,8.016-3.589,8.016-8.016v-16.032
	L408.307,392.273L408.307,392.273z"/>
<path d="M392.274,240.483c-66.017,0-119.726,53.709-119.726,119.727c0,66.017,53.709,119.726,119.726,119.726
	S512,426.227,512,360.21C512,294.192,458.292,240.483,392.274,240.483z M392.274,464.936c-57.746,0-104.726-46.979-104.726-104.726
	s46.98-104.727,104.726-104.727S497,302.464,497,360.21S450.021,464.936,392.274,464.936z"/>
<path d="M247.985,352.71H31.548c-9.125,0-16.548-7.424-16.548-16.549V111.193h313.143c4.142,0,7.5-3.357,7.5-7.5s-3.358-7.5-7.5-7.5
	H15v-32.58c0-9.125,7.423-16.549,16.548-16.549h336.677c9.125,0,16.549,7.424,16.549,16.549v32.58h-24.562
	c-4.142,0-7.5,3.357-7.5,7.5s3.358,7.5,7.5,7.5h24.562v104.724c0,4.143,3.358,7.5,7.5,7.5s7.5-3.357,7.5-7.5V63.613
	c0-17.396-14.153-31.549-31.549-31.549H31.548C14.152,32.064,0,46.217,0,63.613v272.548c0,17.396,14.152,31.549,31.548,31.549
	h216.437c4.142,0,7.5-3.357,7.5-7.5S252.127,352.71,247.985,352.71z"/>
<path d="M39.564,64.129c-4.142,0-7.46,3.357-7.46,7.5s3.398,7.5,7.54,7.5s7.5-3.357,7.5-7.5s-3.358-7.5-7.5-7.5H39.564z"/>
<path d="M87.661,64.129c-4.142,0-7.46,3.357-7.46,7.5s3.398,7.5,7.54,7.5s7.5-3.357,7.5-7.5s-3.358-7.5-7.5-7.5H87.661z"/>
<path d="M63.533,64.129c-4.142,0-7.46,3.357-7.46,7.5s3.398,7.5,7.54,7.5s7.5-3.357,7.5-7.5s-3.358-7.5-7.5-7.5H63.533z"/>
<path d="M119.726,64.129c-4.142,0-7.5,3.357-7.5,7.5s3.358,7.5,7.5,7.5h152.307c4.142,0,7.5-3.357,7.5-7.5s-3.358-7.5-7.5-7.5
	H119.726z"/>
<path d="M367.709,71.629c0-4.143-3.358-7.5-7.5-7.5h-56.113c-4.142,0-7.5,3.357-7.5,7.5s3.358,7.5,7.5,7.5h56.113
	C364.352,79.129,367.709,75.771,367.709,71.629z"/>
<path d="M431.839,338.62v-10.475c0-21.815-17.749-39.564-39.565-39.564s-39.564,17.749-39.564,39.564v10.475
	c-4.774,2.648-8.016,7.737-8.016,13.573v56.113c0,8.556,6.96,15.516,15.516,15.516h64.129c8.556,0,15.516-6.96,15.516-15.516
	v-56.113C439.855,346.357,436.613,341.269,431.839,338.62z M392.274,303.581c13.545,0,24.564,11.02,24.564,24.564v8.532h-49.129
	v-8.532C367.709,314.601,378.729,303.581,392.274,303.581z M424.855,408.307c0,0.284-0.231,0.516-0.516,0.516H360.21
	c-0.285,0-0.516-0.231-0.516-0.516v-56.113c0-0.284,0.231-0.516,0.516-0.516h64.129c0.285,0,0.516,0.231,0.516,0.516V408.307z"/>
<path d="M392.274,368.742c-4.142,0-7.5,3.357-7.5,7.5v8.016c0,4.143,3.358,7.5,7.5,7.5s7.5-3.357,7.5-7.5v-8.016
	C399.774,372.1,396.417,368.742,392.274,368.742z"/>
<path d="M247.984,200.403h-0.516v-24.564c0-12.976-10.557-23.532-23.532-23.532H79.645c-12.976,0-23.532,10.557-23.532,23.532
	v112.226c0,12.976,10.557,23.532,23.532,23.532h144.291c12.976,0,23.532-10.557,23.532-23.532V263.5h0.516
	c8.556,0,15.516-6.961,15.516-15.517v-32.064C263.5,207.363,256.54,200.403,247.984,200.403z M232.468,288.064
	c0,4.705-3.828,8.532-8.532,8.532H79.645c-4.705,0-8.532-3.827-8.532-8.532V175.839c0-4.705,3.828-8.532,8.532-8.532h144.291
	c4.705,0,8.532,3.827,8.532,8.532v24.564h-40.597c-8.556,0-15.516,6.96-15.516,15.516v32.064c0,8.556,6.96,15.517,15.516,15.517
	h40.597V288.064z M248.5,247.983c0,0.285-0.231,0.517-0.516,0.517h-56.113c-0.285,0-0.516-0.231-0.516-0.517v-32.064
	c0-0.284,0.231-0.516,0.516-0.516h56.113c0.285,0,0.516,0.231,0.516,0.516L248.5,247.983L248.5,247.983z"/>
<path d="M207.903,224.451h-0.08c-4.142,0-7.46,3.357-7.46,7.5s3.398,7.5,7.54,7.5s7.5-3.357,7.5-7.5
	S212.045,224.451,207.903,224.451z"/>
<path d="M359.693,175.839c0-4.143-3.358-7.5-7.5-7.5h-64.129c-4.142,0-7.5,3.357-7.5,7.5s3.358,7.5,7.5,7.5h64.129
	C356.335,183.339,359.693,179.981,359.693,175.839z"/>
<path d="M288.064,232.468c-4.142,0-7.5,3.357-7.5,7.5s3.358,7.5,7.5,7.5h16.032c4.142,0,7.5-3.357,7.5-7.5s-3.358-7.5-7.5-7.5
	H288.064z"/>
<path d="M335.645,207.903c0-4.143-3.358-7.5-7.5-7.5h-40.081c-4.142,0-7.5,3.357-7.5,7.5s3.358,7.5,7.5,7.5h40.081
	C332.287,215.403,335.645,212.046,335.645,207.903z"/>
<g>
</g>
<g>
</g>
<g>
</g>
<g>
</g>
<g>
</g>
<g>
</g>
<g>
</g>
<g>
</g>
<g>
</g>
<g>
</g>
<g>
</g>
<g>
</g>
<g>
</g>
<g>
</g>
<g>
</g>
</svg>
