<?xml version="1.0" encoding="iso-8859-1"?>
<!-- Generator: Adobe Illustrator 19.0.0, SVG Export Plug-In . SVG Version: 6.00 Build 0)  -->
<svg version="1.1" id="Capa_1" xmlns="http://www.w3.org/2000/svg" xmlns:xlink="http://www.w3.org/1999/xlink" x="0px" y="0px"
	 viewBox="0 0 512.003 512.003" style="enable-background:new 0 0 512.003 512.003;" xml:space="preserve">
<path style="fill:#EDEBED;" d="M432.356,504.502H79.646c-4.427,0-8.016-3.589-8.016-8.016V15.518c0-4.427,3.589-8.016,8.016-8.016
	h265.909c4.252,0,8.33,1.689,11.336,4.696l78.785,78.782c3.007,3.007,4.696,7.085,4.696,11.337v394.169
	C440.372,500.913,436.783,504.502,432.356,504.502z"/>
<circle style="fill:#FFD164;" cx="256.001" cy="408.312" r="40.08"/>
<path style="fill:#C9C6CA;" d="M336.162,432.357h48.097c4.427,0,8.016-3.589,8.016-8.016v-32.065c0-4.427-3.589-8.016-8.016-8.016
	h-48.097c-4.427,0-8.016,3.589-8.016,8.016v32.065C328.146,428.768,331.735,432.357,336.162,432.357z"/>
<g>
	<path style="fill:#DBD9DC;" d="M360.211,95.679c-4.427,0-8.016-3.589-8.016-8.016V8.991c-2.071-0.945-4.319-1.489-6.64-1.489
		h-17.409v80.161c0,17.709,14.356,32.065,32.065,32.065h80.161v-17.412c0-2.319-0.543-4.566-1.488-6.636l0,0L360.211,95.679
		L360.211,95.679z"/>
	<rect x="119.731" y="183.852" style="fill:#DBD9DC;" width="272.55" height="144.29"/>
</g>
<path d="M440.372,120.243c-4.143,0-7.5,3.357-7.5,7.5v368.742c0,0.285-0.231,0.517-0.517,0.517H79.646
	c-0.285,0-0.517-0.231-0.517-0.517V15.519c0-0.285,0.231-0.517,0.517-0.517h265.048v72.661c0,8.556,6.961,15.517,15.517,15.517
	h80.161c3.033,0,5.769-1.827,6.929-4.63c1.161-2.803,0.52-6.028-1.625-8.174L357.498,2.198c-0.063-0.063-0.127-0.124-0.192-0.185
	c-0.001-0.002-0.003-0.003-0.004-0.004c-0.004-0.004-0.007-0.007-0.011-0.01c-0.003-0.003-0.006-0.006-0.009-0.008
	c-0.002-0.002-0.004-0.004-0.006-0.006c-0.004-0.004-0.009-0.008-0.014-0.013c0,0,0,0-0.001-0.001
	c-1.324-1.214-3.086-1.959-5.021-1.971c-0.001,0-0.001,0-0.001,0c-0.016,0-0.03,0-0.046,0H79.646
	C71.091,0.002,64.13,6.963,64.13,15.519v480.967c0,8.556,6.961,15.517,15.517,15.517h352.709c8.556,0,15.517-6.961,15.517-15.517
	V127.743C447.872,123.601,444.515,120.243,440.372,120.243z M359.694,25.608l62.571,62.571h-62.054
	c-0.285,0-0.517-0.231-0.517-0.517V25.608z"/>
<path d="M135.243,118.225c0-4.143-3.357-7.5-7.5-7.5c-4.143,0-7.5,3.357-7.5,7.5c0,11.979,10.095,21.739,24.048,24.345v1.207
	c0,4.143,3.357,7.5,7.5,7.5s7.5-3.357,7.5-7.5v-1.207c13.954-2.606,24.049-12.365,24.049-24.345
	c0-16.741-13.375-23.774-24.049-27.821V64.257c5.555,1.815,9.049,5.479,9.049,8.876c0,4.143,3.357,7.5,7.5,7.5s7.5-3.357,7.5-7.5
	c0-11.98-10.095-21.739-24.049-24.345v-1.206c0-4.143-3.357-7.5-7.5-7.5s-7.5,3.357-7.5,7.5v1.206
	c-13.953,2.606-24.048,12.365-24.048,24.345c0,16.739,13.374,23.773,24.048,27.822v26.146
	C138.736,125.286,135.243,121.622,135.243,118.225z M168.34,118.225c0,3.397-3.493,7.062-9.049,8.876v-20.336
	C166.81,110.444,168.34,113.656,168.34,118.225z M135.243,73.134c0-3.397,3.493-7.062,9.048-8.876v20.336
	C136.773,80.914,135.243,77.702,135.243,73.134z"/>
<path d="M399.775,183.856c0-4.143-3.357-7.5-7.5-7.5H119.727c-4.143,0-7.5,3.357-7.5,7.5v144.291c0,4.143,3.357,7.5,7.5,7.5h272.549
	c4.143,0,7.5-3.357,7.5-7.5V183.856H399.775z M271.518,272.551v-33.098h49.129v33.098H271.518z M320.646,287.551v33.097h-49.129
	v-33.097H320.646z M127.227,239.453h129.291v33.098H127.227V239.453z M271.518,224.453v-33.097h49.129v33.097H271.518z
	 M335.646,239.453h49.129v33.098h-49.129V239.453z M384.775,224.453h-49.129v-33.097h49.129V224.453z M256.518,191.356v33.097
	H127.227v-33.097H256.518z M127.227,287.551h129.291v33.097H127.227V287.551z M335.646,320.648v-33.097h49.129v33.097H335.646z"/>
<path d="M208.42,408.309c0,26.235,21.345,47.58,47.581,47.58s47.581-21.345,47.581-47.58c0-26.236-21.345-47.581-47.581-47.581
	S208.42,382.072,208.42,408.309z M288.582,408.309c0,17.965-14.616,32.58-32.581,32.58s-32.581-14.615-32.581-32.58
	s14.616-32.581,32.581-32.581S288.582,390.344,288.582,408.309z"/>
<path d="M240.484,408.309c0,8.556,6.961,15.516,15.517,15.516c8.556,0,15.517-6.96,15.517-15.516s-6.961-15.517-15.517-15.517
	C247.445,392.792,240.484,399.753,240.484,408.309z"/>
<path d="M183.855,384.776h-64.129c-4.143,0-7.5,3.357-7.5,7.5s3.357,7.5,7.5,7.5h64.129c4.143,0,7.5-3.357,7.5-7.5
	S187.998,384.776,183.855,384.776z"/>
<path d="M183.855,416.841h-48.097c-4.143,0-7.5,3.357-7.5,7.5s3.357,7.5,7.5,7.5h48.097c4.143,0,7.5-3.357,7.5-7.5
	S187.998,416.841,183.855,416.841z"/>
<path d="M384.259,376.76h-48.097c-8.556,0-15.516,6.961-15.516,15.517v32.064c0,8.556,6.96,15.516,15.516,15.516h48.097
	c8.556,0,15.517-6.96,15.517-15.516v-32.064C399.775,383.721,392.814,376.76,384.259,376.76z M384.775,424.341
	c0,0.284-0.231,0.516-0.517,0.516h-48.097c-0.284,0-0.516-0.231-0.516-0.516v-32.064c0-0.285,0.231-0.517,0.516-0.517h48.097
	c0.285,0,0.517,0.231,0.517,0.517L384.775,424.341L384.775,424.341z"/>
<path d="M296.08,71.115c4.143,0,7.5-3.357,7.5-7.5s-3.357-7.5-7.5-7.5h-16.029c-4.143,0-7.5,3.357-7.5,7.5s3.357,7.5,7.5,7.5H296.08
	z"/>
<path d="M215.92,71.115h32.064c4.143,0,7.5-3.357,7.5-7.5s-3.357-7.5-7.5-7.5H215.92c-4.143,0-7.5,3.357-7.5,7.5
	S211.777,71.115,215.92,71.115z"/>
<path d="M215.92,103.18h104.21c4.143,0,7.5-3.357,7.5-7.5s-3.357-7.5-7.5-7.5H215.92c-4.143,0-7.5,3.357-7.5,7.5
	S211.777,103.18,215.92,103.18z"/>
<path d="M320.13,120.244h-16.032c-4.143,0-7.5,3.357-7.5,7.5s3.357,7.5,7.5,7.5h16.032c4.143,0,7.5-3.357,7.5-7.5
	S324.272,120.244,320.13,120.244z"/>
<path d="M215.92,135.244h56.113c4.143,0,7.5-3.357,7.5-7.5s-3.357-7.5-7.5-7.5H215.92c-4.143,0-7.5,3.357-7.5,7.5
	C208.42,131.887,211.777,135.244,215.92,135.244z"/>
<g>
</g>
<g>
</g>
<g>
</g>
<g>
</g>
<g>
</g>
<g>
</g>
<g>
</g>
<g>
</g>
<g>
</g>
<g>
</g>
<g>
</g>
<g>
</g>
<g>
</g>
<g>
</g>
<g>
</g>
</svg>
