<?xml version="1.0" encoding="iso-8859-1"?>
<!-- Generator: Adobe Illustrator 19.0.0, SVG Export Plug-In . SVG Version: 6.00 Build 0)  -->
<svg version="1.1" id="Capa_1" xmlns="http://www.w3.org/2000/svg" xmlns:xlink="http://www.w3.org/1999/xlink" x="0px" y="0px"
	 viewBox="0 0 512 512" style="enable-background:new 0 0 512 512;" xml:space="preserve">
<path style="fill:#C0BCC1;" d="M416.323,504.5H95.677c-13.282,0-24.048-10.767-24.048-24.048V31.548
	C71.629,18.267,82.396,7.5,95.677,7.5h320.645c13.282,0,24.048,10.767,24.048,24.048v448.903
	C440.371,493.733,429.604,504.5,416.323,504.5z"/>
<rect x="71.63" y="39.565" style="fill:#FFFFFF;" width="368.74" height="400.81"/>
<g>
	<path style="fill:#EDEBED;" d="M239.968,416.323c-79.689,0-144.29-64.601-144.29-144.29V39.565H71.629v400.806h368.742v-24.048
		H239.968z"/>
	<rect x="127.74" y="231.95" style="fill:#EDEBED;" width="256.52" height="144.29"/>
</g>
<path d="M143.258,158.304c0-4.143-3.358-7.5-7.5-7.5s-7.5,3.357-7.5,7.5c0,11.979,10.095,21.739,24.048,24.345v1.206
	c0,4.143,3.358,7.5,7.5,7.5s7.5-3.357,7.5-7.5v-1.206c13.953-2.606,24.048-12.365,24.048-24.345
	c0-16.739-13.375-23.773-24.048-27.822v-26.146c5.555,1.815,9.048,5.479,9.048,8.876c0,4.143,3.358,7.5,7.5,7.5s7.5-3.357,7.5-7.5
	c0-11.979-10.095-21.739-24.048-24.345V87.66c0-4.143-3.358-7.5-7.5-7.5s-7.5,3.357-7.5,7.5v1.207
	c-13.953,2.606-24.048,12.365-24.048,24.345c0,16.74,13.375,23.774,24.048,27.821v26.146
	C146.752,165.365,143.258,161.701,143.258,158.304z M176.355,158.304c0,3.397-3.493,7.062-9.048,8.876v-20.336
	C174.825,150.524,176.355,153.735,176.355,158.304z M143.258,113.213c0-3.397,3.493-7.062,9.048-8.876v20.336
	C144.788,120.993,143.258,117.781,143.258,113.213z"/>
<path d="M120.242,231.951v144.291c0,4.143,3.358,7.5,7.5,7.5h256.516c4.143,0,7.5-3.357,7.5-7.5V231.951c0-4.143-3.357-7.5-7.5-7.5
	H127.742C123.6,224.451,120.242,227.809,120.242,231.951z M320.646,287.549v33.097h-41.113v-33.097H320.646z M279.532,272.549
	v-33.098h41.113v33.098H279.532z M376.758,320.646h-41.112v-33.097h41.112V320.646z M320.646,335.646v33.097h-41.113v-33.097
	H320.646z M264.532,320.646h-129.29v-33.097h129.291v33.097H264.532z M135.242,335.646h129.291v33.097H135.242V335.646z
	 M335.646,368.742v-33.097h41.112v33.097H335.646z M376.758,272.549h-41.112v-33.098h41.112V272.549z M264.532,239.451v33.098
	h-129.29v-33.098L264.532,239.451L264.532,239.451z"/>
<path d="M328.146,111.193c4.143,0,7.5-3.357,7.5-7.5s-3.357-7.5-7.5-7.5h-16.029c-4.143,0-7.5,3.357-7.5,7.5s3.357,7.5,7.5,7.5
	H328.146z"/>
<path d="M223.936,111.193h56.114c4.143,0,7.5-3.357,7.5-7.5s-3.357-7.5-7.5-7.5h-56.114c-4.142,0-7.5,3.357-7.5,7.5
	S219.793,111.193,223.936,111.193z"/>
<path d="M223.936,143.258h104.21c4.143,0,7.5-3.357,7.5-7.5s-3.357-7.5-7.5-7.5h-104.21c-4.142,0-7.5,3.357-7.5,7.5
	S219.793,143.258,223.936,143.258z"/>
<path d="M328.146,160.322h-16.032c-4.143,0-7.5,3.357-7.5,7.5s3.357,7.5,7.5,7.5h16.032c4.143,0,7.5-3.357,7.5-7.5
	S332.288,160.322,328.146,160.322z"/>
<path d="M223.936,175.322h56.113c4.143,0,7.5-3.357,7.5-7.5s-3.357-7.5-7.5-7.5h-56.113c-4.142,0-7.5,3.357-7.5,7.5
	S219.793,175.322,223.936,175.322z"/>
<path d="M416.322,0H95.677C78.281,0,64.129,14.152,64.129,31.549v448.902c0,17.396,14.152,31.549,31.548,31.549h320.645
	c17.396,0,31.549-14.152,31.549-31.549V31.549C447.871,14.152,433.719,0,416.322,0z M432.871,480.451
	c0,9.125-7.424,16.549-16.549,16.549H95.677c-9.125,0-16.548-7.424-16.548-16.549V31.549C79.129,22.424,86.553,15,95.677,15h320.645
	c9.125,0,16.549,7.424,16.549,16.549V480.451z"/>
<path d="M408.307,432.871H103.693c-4.142,0-7.5,3.357-7.5,7.5s3.358,7.5,7.5,7.5h304.613c4.143,0,7.5-3.357,7.5-7.5
	S412.449,432.871,408.307,432.871z"/>
<path d="M408.307,32.064H103.693c-4.142,0-7.5,3.357-7.5,7.5s3.358,7.5,7.5,7.5h304.613c4.143,0,7.5-3.357,7.5-7.5
	S412.449,32.064,408.307,32.064z"/>
<path d="M272.032,464.936h-32.064c-4.142,0-7.5,3.357-7.5,7.5s3.358,7.5,7.5,7.5h32.064c4.143,0,7.5-3.357,7.5-7.5
	S276.175,464.936,272.032,464.936z"/>
<g>
</g>
<g>
</g>
<g>
</g>
<g>
</g>
<g>
</g>
<g>
</g>
<g>
</g>
<g>
</g>
<g>
</g>
<g>
</g>
<g>
</g>
<g>
</g>
<g>
</g>
<g>
</g>
<g>
</g>
</svg>
