<?xml version="1.0" encoding="iso-8859-1"?>
<!-- Generator: Adobe Illustrator 19.0.0, SVG Export Plug-In . SVG Version: 6.00 Build 0)  -->
<svg version="1.1" id="Capa_1" xmlns="http://www.w3.org/2000/svg" xmlns:xlink="http://www.w3.org/1999/xlink" x="0px" y="0px"
	 viewBox="0 0 511.999 511.999" style="enable-background:new 0 0 511.999 511.999;" xml:space="preserve">
<path style="fill:#6F6571;" d="M272.032,504.5H63.612c-17.709,0-32.065-14.356-32.065-32.065V39.565
	C31.547,21.856,45.903,7.5,63.612,7.5h208.419c17.709,0,32.065,14.356,32.065,32.065v432.871
	C304.096,490.144,289.741,504.5,272.032,504.5z"/>
<path style="fill:#FFD164;" d="M247.983,239.968H87.66c-8.854,0-16.032-7.178-16.032-16.032V103.694
	c0-8.854,7.178-16.032,16.032-16.032h160.323c8.854,0,16.032,7.178,16.032,16.032v120.242
	C264.016,232.79,256.838,239.968,247.983,239.968z"/>
<rect x="95.679" y="111.71" style="fill:#FFE17D;" width="144.29" height="104.21"/>
<path style="fill:#5D5360;" d="M296.081,472.435H87.66c-17.709,0-32.065-14.356-32.065-32.065V8.633
	C41.79,12.209,31.547,24.64,31.547,39.565v432.871c0,17.708,14.356,32.065,32.065,32.065h208.419
	c17.709,0,32.065-14.356,32.065-32.065v-1.133C301.52,471.97,298.866,472.435,296.081,472.435z"/>
<g>
	<path style="fill:#9C969E;" d="M87.66,320.129h16.032c8.854,0,16.032-7.178,16.032-16.032l0,0c0-8.854-7.178-16.032-16.032-16.032
		H87.66c-8.854,0-16.032,7.178-16.032,16.032l0,0C71.628,312.951,78.806,320.129,87.66,320.129z"/>
	<path style="fill:#9C969E;" d="M159.805,320.129h16.032c8.854,0,16.032-7.178,16.032-16.032l0,0
		c0-8.854-7.178-16.032-16.032-16.032h-16.032c-8.854,0-16.032,7.178-16.032,16.032l0,0
		C143.773,312.951,150.951,320.129,159.805,320.129z"/>
	<path style="fill:#9C969E;" d="M231.951,320.129h16.032c8.854,0,16.032-7.178,16.032-16.032l0,0
		c0-8.854-7.178-16.032-16.032-16.032h-16.032c-8.854,0-16.032,7.178-16.032,16.032l0,0
		C215.919,312.951,223.096,320.129,231.951,320.129z"/>
	<path style="fill:#9C969E;" d="M87.66,376.242h16.032c8.854,0,16.032-7.178,16.032-16.032l0,0c0-8.854-7.178-16.032-16.032-16.032
		H87.66c-8.854,0-16.032,7.178-16.032,16.032l0,0C71.628,369.064,78.806,376.242,87.66,376.242z"/>
	<path style="fill:#9C969E;" d="M159.805,376.242h16.032c8.854,0,16.032-7.178,16.032-16.032l0,0
		c0-8.854-7.178-16.032-16.032-16.032h-16.032c-8.854,0-16.032,7.178-16.032,16.032l0,0
		C143.773,369.064,150.951,376.242,159.805,376.242z"/>
	<path style="fill:#9C969E;" d="M231.951,376.242h16.032c8.854,0,16.032-7.178,16.032-16.032l0,0
		c0-8.854-7.178-16.032-16.032-16.032h-16.032c-8.854,0-16.032,7.178-16.032,16.032l0,0
		C215.919,369.064,223.096,376.242,231.951,376.242z"/>
</g>
<path style="fill:#E6646E;" d="M87.66,432.355h16.032c8.854,0,16.032-7.178,16.032-16.032l0,0c0-8.854-7.178-16.032-16.032-16.032
	H87.66c-8.854,0-16.032,7.178-16.032,16.032l0,0C71.628,425.177,78.806,432.355,87.66,432.355z"/>
<path style="fill:#F2A275;" d="M159.805,432.355h16.032c8.854,0,16.032-7.178,16.032-16.032l0,0c0-8.854-7.178-16.032-16.032-16.032
	h-16.032c-8.854,0-16.032,7.178-16.032,16.032l0,0C143.773,425.177,150.951,432.355,159.805,432.355z"/>
<path style="fill:#FFE17D;" d="M231.951,432.355h16.032c8.854,0,16.032-7.178,16.032-16.032l0,0c0-8.854-7.178-16.032-16.032-16.032
	h-16.032c-8.854,0-16.032,7.178-16.032,16.032l0,0C215.919,425.177,223.096,432.355,231.951,432.355z"/>
<path style="fill:#EDEBED;" d="M127.741,63.613v160.323c0,13.282,10.767,24.048,24.048,24.048h304.613
	c13.282,0,24.048-10.767,24.048-24.048V63.613c0-13.282-10.767-24.048-24.048-24.048H151.789
	C138.508,39.565,127.741,50.331,127.741,63.613z"/>
<rect x="159.809" y="39.565" style="fill:#6F6571;" width="272.55" height="208.42"/>
<path style="fill:#5D5360;" d="M272.032,215.919c-44.272,0-80.161-35.889-80.161-80.161V39.565h-32.065v208.419h272.548v-32.065
	H272.032z"/>
<path d="M304.096,272.549c-4.142,0-7.5,3.357-7.5,7.5v192.387c0,13.545-11.02,24.564-24.564,24.564H63.612
	c-13.545,0-24.564-11.02-24.564-24.564V39.564C39.048,26.02,50.067,15,63.612,15h208.419c4.142,0,7.5-3.357,7.5-7.5
	s-3.358-7.5-7.5-7.5H63.612C41.797,0,24.047,17.748,24.047,39.564v432.871c0,21.816,17.749,39.564,39.564,39.564h208.419
	c21.816,0,39.564-17.748,39.564-39.564V280.049C311.596,275.906,308.239,272.549,304.096,272.549z"/>
<path d="M95.676,47.064c4.142,0,7.5-3.357,7.5-7.5s-3.358-7.5-7.5-7.5H79.644c-4.142,0-7.5,3.357-7.5,7.5s3.358,7.5,7.5,7.5H95.676z
	"/>
<path d="M72.144,472.436c0,4.143,3.358,7.5,7.5,7.5h176.355c4.142,0,7.5-3.357,7.5-7.5s-3.358-7.5-7.5-7.5H79.644
	C75.502,464.936,72.144,468.293,72.144,472.436z"/>
<path d="M64.128,103.693v120.242c0,12.976,10.557,23.532,23.532,23.532h8.016c4.142,0,7.5-3.357,7.5-7.5s-3.358-7.5-7.5-7.5H87.66
	c-4.705,0-8.532-3.827-8.532-8.532V103.693c0-4.705,3.828-8.532,8.532-8.532h8.016c4.142,0,7.5-3.357,7.5-7.5s-3.358-7.5-7.5-7.5
	H87.66C74.685,80.161,64.128,90.718,64.128,103.693z"/>
<path d="M103.692,280.564H87.66c-12.976,0-23.532,10.557-23.532,23.532s10.557,23.532,23.532,23.532h16.032
	c12.976,0,23.532-10.557,23.532-23.532S116.668,280.564,103.692,280.564z M103.692,312.629H87.66c-4.705,0-8.532-3.827-8.532-8.532
	s3.828-8.532,8.532-8.532h16.032c4.705,0,8.532,3.827,8.532,8.532S108.397,312.629,103.692,312.629z"/>
<path d="M159.807,327.629h16.032c12.976,0,23.532-10.557,23.532-23.532s-10.557-23.532-23.532-23.532h-16.032
	c-12.976,0-23.532,10.557-23.532,23.532S146.83,327.629,159.807,327.629z M159.807,295.564h16.032c4.705,0,8.532,3.827,8.532,8.532
	s-3.828,8.532-8.532,8.532h-16.032c-4.705,0-8.532-3.827-8.532-8.532S155.102,295.564,159.807,295.564z"/>
<path d="M231.951,327.629h16.032c12.976,0,23.532-10.557,23.532-23.532s-10.557-23.532-23.532-23.532h-16.032
	c-12.976,0-23.532,10.557-23.532,23.532S218.975,327.629,231.951,327.629z M231.951,295.564h16.032c4.705,0,8.532,3.827,8.532,8.532
	s-3.828,8.532-8.532,8.532h-16.032c-4.705,0-8.532-3.827-8.532-8.532S227.246,295.564,231.951,295.564z"/>
<path d="M87.66,383.742h16.032c12.976,0,23.532-10.557,23.532-23.532s-10.557-23.532-23.532-23.532H87.66
	c-12.976,0-23.532,10.557-23.532,23.532S74.685,383.742,87.66,383.742z M87.66,351.678h16.032c4.705,0,8.532,3.827,8.532,8.532
	s-3.828,8.532-8.532,8.532H87.66c-4.705,0-8.532-3.827-8.532-8.532S82.956,351.678,87.66,351.678z"/>
<path d="M159.807,383.742h16.032c12.976,0,23.532-10.557,23.532-23.532s-10.557-23.532-23.532-23.532h-16.032
	c-12.976,0-23.532,10.557-23.532,23.532S146.83,383.742,159.807,383.742z M159.807,351.678h16.032c4.705,0,8.532,3.827,8.532,8.532
	s-3.828,8.532-8.532,8.532h-16.032c-4.705,0-8.532-3.827-8.532-8.532S155.102,351.678,159.807,351.678z"/>
<path d="M231.951,383.742h16.032c12.976,0,23.532-10.557,23.532-23.532s-10.557-23.532-23.532-23.532h-16.032
	c-12.976,0-23.532,10.557-23.532,23.532S218.975,383.742,231.951,383.742z M231.951,351.678h16.032c4.705,0,8.532,3.827,8.532,8.532
	s-3.828,8.532-8.532,8.532h-16.032c-4.705,0-8.532-3.827-8.532-8.532S227.246,351.678,231.951,351.678z"/>
<path d="M87.66,439.854h16.032c12.976,0,23.532-10.557,23.532-23.532s-10.557-23.532-23.532-23.532H87.66
	c-12.976,0-23.532,10.557-23.532,23.532S74.685,439.854,87.66,439.854z M87.66,407.79h16.032c4.705,0,8.532,3.827,8.532,8.532
	s-3.828,8.532-8.532,8.532H87.66c-4.705,0-8.532-3.827-8.532-8.532S82.956,407.79,87.66,407.79z"/>
<path d="M159.807,439.854h16.032c12.976,0,23.532-10.557,23.532-23.532s-10.557-23.532-23.532-23.532h-16.032
	c-12.976,0-23.532,10.557-23.532,23.532S146.83,439.854,159.807,439.854z M159.807,407.79h16.032c4.705,0,8.532,3.827,8.532,8.532
	s-3.828,8.532-8.532,8.532h-16.032c-4.705,0-8.532-3.827-8.532-8.532S155.102,407.79,159.807,407.79z"/>
<path d="M231.951,439.854h16.032c12.976,0,23.532-10.557,23.532-23.532s-10.557-23.532-23.532-23.532h-16.032
	c-12.976,0-23.532,10.557-23.532,23.532S218.975,439.854,231.951,439.854z M231.951,407.79h16.032c4.705,0,8.532,3.827,8.532,8.532
	s-3.828,8.532-8.532,8.532h-16.032c-4.705,0-8.532-3.827-8.532-8.532S227.246,407.79,231.951,407.79z"/>
<path d="M456.403,32.064H151.79c-17.396,0-31.549,14.152-31.549,31.549v160.322c0,17.396,14.153,31.548,31.549,31.548h304.613
	c17.396,0,31.548-14.152,31.548-31.548V63.613C487.952,46.217,473.799,32.064,456.403,32.064z M472.952,223.936
	c0,9.125-7.423,16.548-16.548,16.548H151.79c-9.125,0-16.549-7.423-16.549-16.548V63.613c0-9.125,7.424-16.549,16.549-16.549
	h304.613c9.125,0,16.548,7.424,16.548,16.549V223.936z"/>
<path d="M159.807,64.129c-4.142,0-7.5,3.357-7.5,7.5v144.29c0,4.143,3.358,7.5,7.5,7.5s7.5-3.357,7.5-7.5V71.629
	C167.307,67.486,163.949,64.129,159.807,64.129z"/>
<path d="M432.355,64.129c-4.142,0-7.5,3.357-7.5,7.5v144.29c0,4.143,3.358,7.5,7.5,7.5s7.5-3.357,7.5-7.5V71.629
	C439.855,67.486,436.497,64.129,432.355,64.129z"/>
<path d="M456.403,128.258c-4.142,0-7.5,3.357-7.5,7.5v16.032c0,4.143,3.358,7.5,7.5,7.5s7.5-3.357,7.5-7.5v-16.032
	C463.903,131.615,460.545,128.258,456.403,128.258z"/>
<path d="M337.058,124.672c-2.929-2.928-7.677-2.929-10.607,0.001c-5.102,5.102-7.912,11.886-7.912,19.102s2.81,13.999,7.912,19.102
	c1.465,1.464,3.384,2.196,5.303,2.196s3.839-0.732,5.303-2.197c2.929-2.929,2.929-7.678,0-10.606
	c-2.269-2.269-3.519-5.285-3.519-8.494s1.25-6.227,3.519-8.496C339.987,132.35,339.986,127.601,337.058,124.672z"/>
<path d="M309.461,97.075c-2.929-2.928-7.678-2.928-10.606,0c-12.474,12.475-19.343,29.059-19.343,46.699s6.87,34.225,19.343,46.698
	c1.464,1.464,3.384,2.196,5.303,2.196s3.839-0.732,5.303-2.196c2.929-2.93,2.929-7.678,0-10.607
	c-9.64-9.64-14.95-22.457-14.95-36.091s5.31-26.451,14.95-36.092C312.39,104.753,312.39,100.005,309.461,97.075z"/>
<path d="M255.483,143.774c0-24.059,9.369-46.677,26.38-63.688c2.929-2.93,2.929-7.678,0-10.607c-2.929-2.928-7.678-2.928-10.606,0
	c-19.845,19.846-30.774,46.23-30.774,74.296c0,28.064,10.929,54.45,30.774,74.295c1.464,1.464,3.384,2.196,5.303,2.196
	s3.839-0.732,5.303-2.196c2.929-2.93,2.929-7.678,0-10.607C264.853,190.451,255.483,167.833,255.483,143.774z"/>
<g>
</g>
<g>
</g>
<g>
</g>
<g>
</g>
<g>
</g>
<g>
</g>
<g>
</g>
<g>
</g>
<g>
</g>
<g>
</g>
<g>
</g>
<g>
</g>
<g>
</g>
<g>
</g>
<g>
</g>
</svg>
