<?xml version="1.0" encoding="iso-8859-1"?>
<!-- Generator: Adobe Illustrator 19.0.0, SVG Export Plug-In . SVG Version: 6.00 Build 0)  -->
<svg version="1.1" id="Capa_1" xmlns="http://www.w3.org/2000/svg" xmlns:xlink="http://www.w3.org/1999/xlink" x="0px" y="0px"
	 viewBox="0 0 512 512" style="enable-background:new 0 0 512 512;" xml:space="preserve">
<g>
	<path style="fill:#5D5360;" d="M39.565,424.339v32.065c0,4.427,3.589,8.016,8.016,8.016h16.343c4.87,0,9.477-2.213,12.519-6.017
		l27.251-34.064H39.565z"/>
	<path style="fill:#5D5360;" d="M472.435,424.339v32.065c0,4.427-3.589,8.016-8.016,8.016h-16.343c-4.87,0-9.477-2.213-12.519-6.017
		l-27.251-34.064H472.435z"/>
</g>
<path style="fill:#6F6571;" d="M472.435,432.355H39.565c-17.709,0-32.065-14.356-32.065-32.065V79.645
	c0-17.709,14.356-32.065,32.065-32.065h432.871c17.709,0,32.065,14.356,32.065,32.065V400.29
	C504.5,417.999,490.144,432.355,472.435,432.355z"/>
<path style="fill:#867E88;" d="M433.201,187.44c-5.432,2.715-8.863,8.267-8.863,14.339v76.376c0,6.073,3.431,11.624,8.863,14.339
	l23.202,11.601V175.839L433.201,187.44z"/>
<path style="fill:#5D5360;" d="M63.613,408.306c-17.709,0-32.065-14.356-32.065-32.065V48.714C17.743,52.289,7.5,64.721,7.5,79.645
	V400.29c0,17.708,14.356,32.065,32.065,32.065h432.871c14.924,0,27.355-10.243,30.931-24.048H63.613V408.306z"/>
<g>
	<path style="fill:#867E88;" d="M63.613,135.758H47.581c-4.427,0-8.016,3.589-8.016,8.016v48.097c0,4.427,3.589,8.016,8.016,8.016
		h16.032c4.427,0,8.016-3.589,8.016-8.016v-48.097C71.629,139.347,68.04,135.758,63.613,135.758z"/>
	<path style="fill:#867E88;" d="M63.613,280.048H47.581c-4.427,0-8.016,3.589-8.016,8.016v48.097c0,4.427,3.589,8.016,8.016,8.016
		h16.032c4.427,0,8.016-3.589,8.016-8.016v-48.097C71.629,283.637,68.04,280.048,63.613,280.048z"/>
</g>
<path d="M472.436,40.081H39.564C17.748,40.081,0,57.83,0,79.646V400.29c0,19.251,13.823,35.327,32.064,38.842v17.271
	c0,8.556,6.961,15.516,15.517,15.516h16.032c7.368,0,14.406-3.519,18.825-9.412l16.989-22.652h313.145l16.989,22.652
	c4.419,5.894,11.457,9.412,18.825,9.412h16.032c8.556,0,15.517-6.96,15.517-15.516v-17.271C498.177,435.617,512,419.541,512,400.29
	V79.646C512,57.83,494.252,40.081,472.436,40.081z M70.438,453.507c-1.603,2.137-4.153,3.412-6.825,3.412H47.581
	c-0.285,0-0.517-0.231-0.517-0.516v-16.549h33.613L70.438,453.507z M464.419,456.919h-16.032c-2.672,0-5.223-1.275-6.825-3.412
	l-10.239-13.652h33.613v16.549C464.936,456.688,464.704,456.919,464.419,456.919z M497,400.29c0,13.545-11.02,24.564-24.564,24.564
	H39.564C26.02,424.854,15,413.835,15,400.29V79.646c0-13.545,11.02-24.564,24.564-24.564h432.871
	c13.545,0,24.564,11.02,24.564,24.564V400.29H497z"/>
<path d="M448.387,88.178h-16.032c-4.143,0-7.5,3.357-7.5,7.5c0,4.143,3.357,7.5,7.5,7.5h16.032c0.285,0,0.517,0.231,0.517,0.516
	v67.51l-19.057,9.528c-8.023,4.012-13.008,12.077-13.008,21.048v76.377c0,8.971,4.984,17.036,13.008,21.048l19.057,9.528v67.51
	c0,0.284-0.231,0.516-0.517,0.516h-16.032c-4.143,0-7.5,3.357-7.5,7.5s3.357,7.5,7.5,7.5h16.032c8.556,0,15.517-6.96,15.517-15.516
	v-272.55C463.903,95.138,456.942,88.178,448.387,88.178z M436.556,285.788c-2.909-1.455-4.717-4.379-4.717-7.632v-76.377
	c0-3.253,1.808-6.177,4.716-7.632l12.349-6.174v103.989L436.556,285.788z"/>
<path d="M407.794,95.678c0-4.143-3.357-7.5-7.5-7.5H63.613c-8.556,0-15.517,6.96-15.517,15.516v24.564H47.58
	c-8.556,0-15.517,6.961-15.517,15.517v48.097c0,8.556,6.961,15.516,15.517,15.516h0.516v65.162H47.58
	c-8.556,0-15.517,6.96-15.517,15.516v48.097c0,8.556,6.961,15.517,15.517,15.517h0.516v24.564c0,8.556,6.961,15.516,15.517,15.516
	H400.29c4.143,0,7.5-3.357,7.5-7.5s-3.357-7.5-7.5-7.5H63.613c-0.285,0-0.517-0.231-0.517-0.516V351.68h0.517
	c8.556,0,15.516-6.961,15.516-15.517v-48.097c0-8.556-6.96-15.516-15.516-15.516h-0.517v-65.162h0.517
	c8.556,0,15.516-6.96,15.516-15.516v-48.097c0-8.556-6.96-15.517-15.516-15.517h-0.517v-24.564c0-0.284,0.231-0.516,0.517-0.516
	h336.681C404.437,103.178,407.794,99.82,407.794,95.678z M64.129,288.064v48.097c0,0.285-0.231,0.517-0.516,0.517H47.581
	c-0.285,0-0.517-0.231-0.517-0.517v-48.097c0-0.284,0.231-0.516,0.517-0.516h16.032C63.897,287.549,64.129,287.78,64.129,288.064z
	 M64.129,143.774v48.097c0,0.284-0.231,0.516-0.516,0.516H47.581c-0.285,0-0.517-0.231-0.517-0.516v-48.097
	c0-0.285,0.231-0.517,0.517-0.517h16.032C63.897,143.258,64.129,143.489,64.129,143.774z"/>
<path d="M264.017,335.646c4.143,0,7.5-3.357,7.5-7.5v-8.532h0.516c26.236,0,47.581-21.345,47.581-47.581
	c0-19.392-11.667-36.1-28.345-43.504c7.576-7.212,12.313-17.381,12.313-28.641c0-19.251-13.824-35.327-32.064-38.842v-9.254
	c0-4.143-3.357-7.5-7.5-7.5s-7.5,3.357-7.5,7.5v8.532h-17.065v-8.532c0-4.143-3.357-7.5-7.5-7.5s-7.5,3.357-7.5,7.5v8.532h-24.564
	c-4.143,0-7.5,3.357-7.5,7.5s3.357,7.5,7.5,7.5h8.532v129.291h-8.532c-4.143,0-7.5,3.357-7.5,7.5s3.357,7.5,7.5,7.5h24.564v8.532
	c0,4.143,3.357,7.5,7.5,7.5s7.5-3.357,7.5-7.5v-8.532h17.065v8.532C256.517,332.288,259.874,335.646,264.017,335.646z
	 M264.017,175.322c13.545,0,24.564,11.02,24.564,24.564s-11.02,24.564-24.564,24.564h-40.598v-49.129h40.598V175.322z
	 M223.419,239.451h48.613c17.965,0,32.581,14.616,32.581,32.581s-14.616,32.581-32.581,32.581h-48.613V239.451z"/>
<g>
</g>
<g>
</g>
<g>
</g>
<g>
</g>
<g>
</g>
<g>
</g>
<g>
</g>
<g>
</g>
<g>
</g>
<g>
</g>
<g>
</g>
<g>
</g>
<g>
</g>
<g>
</g>
<g>
</g>
</svg>
