<?xml version="1.0" encoding="iso-8859-1"?>
<!-- Generator: Adobe Illustrator 19.0.0, SVG Export Plug-In . SVG Version: 6.00 Build 0)  -->
<svg version="1.1" id="Capa_1" xmlns="http://www.w3.org/2000/svg" xmlns:xlink="http://www.w3.org/1999/xlink" x="0px" y="0px"
	 viewBox="0 0 512 512" style="enable-background:new 0 0 512 512;" xml:space="preserve">
<circle style="fill:#867E88;" cx="256" cy="256" r="248.5"/>
<path style="fill:#6F6571;" d="M384.258,376.242c-137.243,0-248.5-111.257-248.5-248.5c0-35.38,7.443-69.007,20.769-99.473
	C68.815,66.639,7.5,154.137,7.5,256c0,137.243,111.257,248.5,248.5,248.5c101.863,0,189.361-61.315,227.731-149.027
	C453.265,368.799,419.638,376.242,384.258,376.242z"/>
<circle style="fill:#AEA8AF;" cx="256" cy="256" r="184.37"/>
<path style="fill:#9C969E;" d="M128.737,172.454c-18.744,28.448-28.254,63.506-24.067,100.987
	c7.79,69.733,64.144,126.091,133.876,133.887c37.485,4.191,72.548-5.32,101-24.066c4.224-2.783,2.757-9.359-2.236-10.172
	c-101.626-16.543-181.858-96.775-198.401-198.401C138.096,169.697,131.52,168.23,128.737,172.454z"/>
<path style="fill:#6F6571;" d="M256,480C132.484,480,32,379.516,32,256S132.484,32,256,32s224,100.484,224,224S379.516,480,256,480z
	 M256,47C140.753,47,47,140.753,47,256s93.753,209,209,209s209-93.753,209-209S371.247,47,256,47z"/>
<path style="fill:#5D5360;" d="M429.724,372.068C392.19,428.064,328.332,465,256,465c-115.247,0-209-93.753-209-209
	c0-72.332,36.936-136.19,92.932-173.724c1.297-6.982,2.901-13.854,4.768-20.618C77.41,100.345,32,172.968,32,256
	c0,123.516,100.484,224,224,224c83.032,0,155.655-45.411,194.342-112.7C443.578,369.167,436.705,370.771,429.724,372.068z"/>
<path d="M437.02,74.98C388.668,26.629,324.38,0,256,0S123.332,26.629,74.98,74.98S0,187.62,0,256s26.629,132.668,74.98,181.02
	S187.62,512,256,512s132.668-26.629,181.02-74.98S512,324.38,512,256S485.371,123.332,437.02,74.98z M426.413,426.413
	C380.895,471.932,320.374,497,256,497s-124.895-25.068-170.413-70.587S15,320.374,15,256S40.068,131.105,85.587,85.587
	S191.626,15,256,15s124.895,25.068,170.413,70.587S497,191.626,497,256S471.932,380.895,426.413,426.413z"/>
<path d="M256,47.064c4.143,0,7.5-3.357,7.5-7.5s-3.357-7.5-7.5-7.5c-59.815,0-116.051,23.293-158.347,65.589
	S32.064,196.185,32.064,256c0,4.143,3.357,7.5,7.5,7.5s7.5-3.357,7.5-7.5C47.064,140.793,140.793,47.064,256,47.064z"/>
<path d="M472.436,248.5c-4.143,0-7.5,3.357-7.5,7.5c0,115.207-93.729,208.936-208.936,208.936c-4.143,0-7.5,3.357-7.5,7.5
	s3.357,7.5,7.5,7.5c59.815,0,116.051-23.293,158.347-65.589S479.936,315.815,479.936,256
	C479.936,251.857,476.578,248.5,472.436,248.5z"/>
<path d="M79.298,248.775c1.792-44.486,20.13-86.337,51.636-117.842c31.505-31.506,73.355-49.844,117.842-51.637
	c44.217-1.777,87.164,12.87,120.908,41.258c3.169,2.668,7.901,2.259,10.567-0.911s2.259-7.9-0.911-10.567
	c-36.613-30.802-83.218-46.713-131.168-44.767c-48.264,1.944-93.667,21.838-127.846,56.017
	c-34.178,34.179-54.071,79.582-56.017,127.846c-1.933,47.973,13.966,94.556,44.767,131.168c1.483,1.764,3.605,2.672,5.743,2.672
	c1.704,0,3.418-0.578,4.824-1.761c3.17-2.667,3.577-7.397,0.911-10.567C92.168,335.94,77.516,293.001,79.298,248.775z"/>
<path d="M263.828,447.69c48.264-1.945,93.667-21.839,127.846-56.017c34.179-34.179,54.072-79.582,56.017-127.846
	c1.933-47.973-13.966-94.556-44.767-131.168c-2.666-3.17-7.396-3.577-10.567-0.911c-3.17,2.667-3.577,7.397-0.911,10.567
	c28.387,33.743,43.039,76.683,41.258,120.908c-1.793,44.486-20.131,86.337-51.637,117.842
	c-31.505,31.506-73.355,49.844-117.842,51.636c-44.236,1.796-87.165-12.869-120.908-41.257c-3.169-2.668-7.9-2.259-10.567,0.911
	c-2.666,3.17-2.259,7.9,0.911,10.567c34.619,29.124,78.152,44.924,123.347,44.924C258.608,447.848,261.217,447.796,263.828,447.69z"
	/>
<path d="M264.017,375.726c4.143,0,7.5-3.357,7.5-7.5v-16.548h8.532c30.656,0,55.597-24.94,55.597-55.597
	c0-22.916-13.938-42.639-33.779-51.138c10.816-8.729,17.747-22.09,17.747-37.04c0-26.236-21.345-47.581-47.581-47.581h-0.516
	v-16.548c0-4.143-3.357-7.5-7.5-7.5s-7.5,3.357-7.5,7.5v16.548h-17.065v-16.548c0-4.143-3.357-7.5-7.5-7.5s-7.5,3.357-7.5,7.5
	v16.548h-32.58c-4.143,0-7.5,3.357-7.5,7.5s3.357,7.5,7.5,7.5h8.532v161.355h-8.532c-4.143,0-7.5,3.357-7.5,7.5s3.357,7.5,7.5,7.5
	h32.58v16.548c0,4.143,3.357,7.5,7.5,7.5s7.5-3.357,7.5-7.5v-16.548h17.065v16.548C256.517,372.368,259.874,375.726,264.017,375.726
	z M272.032,175.322c17.965,0,32.581,14.616,32.581,32.581s-14.616,32.58-32.581,32.58h-56.629v-65.161L272.032,175.322
	L272.032,175.322z M215.403,255.483h64.646c22.385,0,40.597,18.212,40.597,40.598c0,22.385-18.212,40.597-40.597,40.597h-64.646
	L215.403,255.483L215.403,255.483z"/>
<g>
</g>
<g>
</g>
<g>
</g>
<g>
</g>
<g>
</g>
<g>
</g>
<g>
</g>
<g>
</g>
<g>
</g>
<g>
</g>
<g>
</g>
<g>
</g>
<g>
</g>
<g>
</g>
<g>
</g>
</svg>
