<?xml version="1.0" encoding="iso-8859-1"?>
<!-- Generator: Adobe Illustrator 19.0.0, SVG Export Plug-In . SVG Version: 6.00 Build 0)  -->
<svg version="1.1" id="Capa_1" xmlns="http://www.w3.org/2000/svg" xmlns:xlink="http://www.w3.org/1999/xlink" x="0px" y="0px"
	 viewBox="0 0 512 512" style="enable-background:new 0 0 512 512;" xml:space="preserve">
<path style="fill:#EEE7D8;" d="M344.177,360.21H167.823c-8.854,0-16.032-7.178-16.032-16.032V167.824
	c0-8.854,7.178-16.032,16.032-16.032h176.355c8.854,0,16.032,7.178,16.032,16.032v176.355
	C360.21,353.033,353.032,360.21,344.177,360.21z"/>
<path style="fill:#867E88;" d="M312.113,280.048h160.323c17.709,0,32.065,14.356,32.065,32.065v160.323
	c0,17.709-14.356,32.065-32.065,32.065H312.113c-17.709,0-32.065-14.356-32.065-32.065V312.113
	C280.048,294.404,294.404,280.048,312.113,280.048z"/>
<path style="fill:#6F6571;" d="M396.282,476.444c-48.699,0-88.177-39.478-88.177-88.177V280.453
	c-15.795,1.993-28.056,15.325-28.056,31.66v160.323c0,17.709,14.356,32.065,32.065,32.065h160.323
	c16.336,0,29.668-12.261,31.66-28.056H396.282V476.444z"/>
<path style="fill:#FFD164;" d="M39.565,7.501h160.323c17.709,0,32.065,14.356,32.065,32.065v160.323
	c0,17.709-14.356,32.065-32.065,32.065H39.565c-17.709,0-32.065-14.356-32.065-32.065V39.566C7.5,21.857,21.856,7.501,39.565,7.501z
	"/>
<path style="fill:#FFC350;" d="M123.734,203.896c-48.699,0-88.177-39.478-88.177-88.177V7.905C19.761,9.898,7.5,23.23,7.5,39.566
	v160.323c0,17.709,14.356,32.065,32.065,32.065h160.323c16.336,0,29.668-12.261,31.66-28.056H123.734V203.896z"/>
<path d="M239.451,199.887V39.565c0-21.815-17.749-39.564-39.564-39.564H39.564C17.749,0.001,0,17.75,0,39.565v160.322
	c0,21.815,17.749,39.564,39.564,39.564h160.322C221.702,239.452,239.451,221.702,239.451,199.887z M15,199.887V39.565
	c0-13.544,11.02-24.564,24.564-24.564h160.322c13.545,0,24.564,11.02,24.564,24.564v160.322c0,13.545-11.02,24.564-24.564,24.564
	H39.564C26.02,224.452,15,213.433,15,199.887z"/>
<path d="M472.436,272.549H312.113c-21.815,0-39.564,17.749-39.564,39.564v160.322c0,21.815,17.749,39.564,39.564,39.564h160.322
	C494.251,512,512,494.251,512,472.436V312.113C512,290.298,494.251,272.549,472.436,272.549z M497,472.436
	C497,485.98,485.98,497,472.436,497H312.113c-13.545,0-24.564-11.02-24.564-24.564V312.113c0-13.545,11.02-24.564,24.564-24.564
	h160.322c13.545,0,24.564,11.02,24.564,24.564v160.323H497z"/>
<path d="M144.29,88.163c0,4.143,3.357,7.5,7.5,7.5s7.5-3.357,7.5-7.5c0-15.594-13.824-28.616-32.064-31.464v-1.102
	c0-4.143-3.357-7.5-7.5-7.5s-7.5,3.357-7.5,7.5v1.102c-18.24,2.848-32.064,15.87-32.064,31.464
	c0,21.138,15.195,30.153,32.064,36.752v42.574c-9.781-2.26-17.064-8.764-17.064-16.199c0-4.143-3.357-7.5-7.5-7.5
	s-7.5,3.357-7.5,7.5c0,15.594,13.824,28.617,32.064,31.465v1.101c0,4.143,3.357,7.5,7.5,7.5s7.5-3.357,7.5-7.5v-1.101
	c18.24-2.848,32.064-15.871,32.064-31.465c0-21.137-15.195-30.152-32.064-36.751V71.965C137.006,74.225,144.29,80.728,144.29,88.163
	z M95.161,88.163c0-7.435,7.284-13.938,17.064-16.198v36.668C99.383,102.803,95.161,97.306,95.161,88.163z M144.29,151.29
	c0,7.436-7.284,13.939-17.064,16.199V130.82C140.068,136.65,144.29,142.148,144.29,151.29z"/>
<path d="M426.915,379.906c3.1-4.455,4.924-9.861,4.924-15.688c0-11.078-6.579-20.643-16.031-25.01v-11.062
	c0-4.143-3.357-7.5-7.5-7.5s-7.5,3.357-7.5,7.5v8.532h-17.064v-8.532c0-4.143-3.357-7.5-7.5-7.5s-7.5,3.357-7.5,7.5v8.532h-8.533
	c-4.143,0-7.5,3.357-7.5,7.5s3.357,7.5,7.5,7.5h0.516v81.193h-0.516c-4.143,0-7.5,3.357-7.5,7.5s3.357,7.5,7.5,7.5h8.533v8.532
	c0,4.143,3.357,7.5,7.5,7.5s7.5-3.357,7.5-7.5v-8.532h17.064v8.532c0,4.143,3.357,7.5,7.5,7.5s7.5-3.357,7.5-7.5v-8.706
	c17.973-1.761,32.063-16.956,32.063-35.383C447.871,397.91,439.257,385.49,426.915,379.906z M404.299,351.678
	c6.915,0,12.54,5.625,12.54,12.54s-5.625,12.54-12.54,12.54h-28.573v-25.08L404.299,351.678L404.299,351.678z M412.314,432.871
	h-36.589v-41.113h36.589c11.335,0,20.557,9.222,20.557,20.557S423.649,432.871,412.314,432.871z"/>
<path d="M247.981,384.774h-80.159c-22.385,0-40.597-18.212-40.597-40.597v-80.159c0-4.143-3.357-7.5-7.5-7.5s-7.5,3.357-7.5,7.5
	v80.159c0,30.656,24.94,55.597,55.597,55.597h80.159c4.143,0,7.5-3.357,7.5-7.5S252.124,384.774,247.981,384.774z"/>
<path d="M384.774,167.823v80.159c0,4.143,3.357,7.5,7.5,7.5s7.5-3.357,7.5-7.5v-80.159c0-30.656-24.94-55.597-55.597-55.597h-80.159
	c-4.143,0-7.5,3.357-7.5,7.5s3.357,7.5,7.5,7.5h80.159C366.563,127.227,384.774,145.439,384.774,167.823z"/>
<g>
</g>
<g>
</g>
<g>
</g>
<g>
</g>
<g>
</g>
<g>
</g>
<g>
</g>
<g>
</g>
<g>
</g>
<g>
</g>
<g>
</g>
<g>
</g>
<g>
</g>
<g>
</g>
<g>
</g>
</svg>
