<?xml version="1.0" encoding="iso-8859-1"?>
<!-- Generator: Adobe Illustrator 19.0.0, SVG Export Plug-In . SVG Version: 6.00 Build 0)  -->
<svg version="1.1" id="Capa_1" xmlns="http://www.w3.org/2000/svg" xmlns:xlink="http://www.w3.org/1999/xlink" x="0px" y="0px"
	 viewBox="0 0 512 512" style="enable-background:new 0 0 512 512;" xml:space="preserve">
<path style="fill:#FFE17D;" d="M215.919,304.636V496.47c0,5.959,6.271,9.835,11.601,7.17l59.698-29.849
	c5.431-2.716,8.862-8.267,8.862-14.34V304.636c0-5.535,1.909-10.9,5.405-15.191L467.028,86.278
	c3.496-4.291,5.405-9.656,5.405-15.191V23.532c0-8.854-7.178-16.032-16.032-16.032H55.599c-8.854,0-16.032,7.178-16.032,16.032
	v47.556c0,5.535,1.909,10.9,5.405,15.191l165.543,203.166C214.01,293.736,215.919,299.101,215.919,304.636z"/>
<path style="fill:#FFD164;" d="M400.008,71.628H191.872V7.5H55.599c-8.854,0-16.032,7.178-16.032,16.032v47.556
	c0,5.535,1.909,10.9,5.405,15.19l165.543,203.166c3.496,4.291,5.405,9.656,5.405,15.191v191.835c0,5.959,6.271,9.835,11.601,7.17
	l16.604-8.302V296.079h27.908L410.677,91.76C416.485,83.2,410.353,71.628,400.008,71.628z"/>
<path style="fill:#FFC350;" d="M143.775,71.628H39.613c0.122,5.341,1.978,10.5,5.358,14.649l165.544,203.167
	c1.632,2.003,2.881,4.255,3.789,6.634h17.649L143.775,71.628z"/>
<path d="M456.401,0H55.599C42.623,0,32.066,10.557,32.066,23.532v47.556c0,7.239,2.519,14.316,7.091,19.929L204.7,294.184
	c2.397,2.942,3.719,6.654,3.719,10.452V496.47c0,5.417,2.751,10.351,7.359,13.199c2.508,1.55,5.322,2.331,8.147,2.331
	c2.366,0,4.74-0.548,6.949-1.652l59.697-29.849c8.024-4.012,13.009-12.077,13.009-21.048V304.636c0-3.798,1.321-7.51,3.72-10.453
	L472.843,91.016c4.572-5.612,7.091-12.689,7.091-19.929V23.532C479.934,10.557,469.377,0,456.401,0z M288.581,459.451
	c0,3.253-1.808,6.177-4.718,7.632l-59.697,29.849c-0.094,0.048-0.257,0.129-0.502-0.022s-0.245-0.332-0.245-0.439V304.636
	c0-0.353-0.011-0.705-0.023-1.057h65.207c-0.012,0.352-0.023,0.704-0.023,1.057L288.581,459.451L288.581,459.451z M295.673,284.707
	c-0.998,1.224-1.891,2.522-2.689,3.872h-73.967c-0.797-1.35-1.691-2.647-2.688-3.871L50.786,81.541
	c-0.617-0.757-1.159-1.566-1.629-2.413h22.48c4.143,0,7.5-3.357,7.5-7.5s-3.357-7.5-7.5-7.5h-24.57V23.532
	c0-4.705,3.827-8.532,8.532-8.532h400.804c4.705,0,8.532,3.827,8.532,8.532v40.597h-24.564c-4.143,0-7.5,3.357-7.5,7.5
	s3.357,7.5,7.5,7.5h22.474c-0.47,0.847-1.013,1.656-1.629,2.413L295.673,284.707z"/>
<path d="M408.301,64.128H103.694c-4.143,0-7.5,3.357-7.5,7.5s3.357,7.5,7.5,7.5H408.3c4.143,0,7.5-3.357,7.5-7.5
	S412.443,64.128,408.301,64.128z"/>
<g>
</g>
<g>
</g>
<g>
</g>
<g>
</g>
<g>
</g>
<g>
</g>
<g>
</g>
<g>
</g>
<g>
</g>
<g>
</g>
<g>
</g>
<g>
</g>
<g>
</g>
<g>
</g>
<g>
</g>
</svg>
