<?xml version="1.0" encoding="iso-8859-1"?>
<!-- Generator: Adobe Illustrator 19.0.0, SVG Export Plug-In . SVG Version: 6.00 Build 0)  -->
<svg version="1.1" id="Capa_1" xmlns="http://www.w3.org/2000/svg" xmlns:xlink="http://www.w3.org/1999/xlink" x="0px" y="0px"
	 viewBox="0 0 511.999 511.999" style="enable-background:new 0 0 511.999 511.999;" xml:space="preserve">
<path style="fill:#E6646E;" d="M416.323,67.621H95.677c-22.136,0-40.081,17.944-40.081,40.081v184.371h400.806V107.702
	C456.403,85.565,438.458,67.621,416.323,67.621z"/>
<path style="fill:#DC4655;" d="M456.403,163.815h-32.065c-22.1,0-40.081,17.981-40.081,40.081v32.065H127.742v-32.065
	c0-22.1-17.981-40.081-40.081-40.081H55.597v128.258h400.806V163.815z"/>
<path style="fill:#E6646E;" d="M488.468,187.863h-64.129c-8.854,0-16.032,7.178-16.032,16.032v56.113H103.694v-56.113
	c0-8.855-7.178-16.032-16.032-16.032h-64.13c-8.854,0-16.032,7.178-16.032,16.032v224.452c0,8.854,7.178,16.032,16.032,16.032
	h64.129c8.854,0,16.032-7.178,16.032-16.032v-72.145h304.613v72.145c0,8.854,7.178,16.032,16.032,16.032h64.129
	c8.854,0,16.032-7.178,16.032-16.032V203.895C504.5,195.04,497.322,187.863,488.468,187.863z"/>
<rect x="103.69" y="324.14" style="fill:#DC4655;" width="304.61" height="96.19"/>
<rect x="103.69" y="356.2" style="fill:#C43F4F;" width="304.61" height="24.05"/>
<path d="M360.21,348.701H151.792c-4.142,0-7.5,3.357-7.5,7.5s3.358,7.5,7.5,7.5H360.21c4.143,0,7.5-3.357,7.5-7.5
	S364.353,348.701,360.21,348.701z"/>
<path d="M488.468,180.363h-24.564v-72.662c0-26.235-21.345-47.58-47.581-47.58H95.677c-26.236,0-47.581,21.345-47.581,47.58v72.662
	H23.532C10.557,180.363,0,190.92,0,203.896v224.451c0,12.976,10.557,23.532,23.532,23.532h64.129
	c12.976,0,23.532-10.557,23.532-23.532v-0.516h289.613v0.516c0,12.976,10.557,23.532,23.532,23.532h64.129
	c12.976,0,23.532-10.557,23.532-23.532V203.896C512,190.92,501.443,180.363,488.468,180.363z M63.097,107.701
	c0-17.965,14.616-32.58,32.581-32.58h320.645c17.965,0,32.581,14.615,32.581,32.58v72.662H424.34
	c-12.976,0-23.532,10.557-23.532,23.532v50.22c-2.647-1.034-5.523-1.608-8.532-1.608h-272.55c-3.009,0-5.885,0.574-8.532,1.608
	v-50.22c0-12.976-10.557-23.532-23.532-23.532H63.097V107.701z M96.193,428.346c0,4.705-3.828,8.532-8.532,8.532H23.532
	c-4.705,0-8.532-3.827-8.532-8.532V203.896c0-4.705,3.828-8.532,8.532-8.532h64.129c4.705,0,8.532,3.827,8.532,8.532
	C96.193,203.896,96.193,428.346,96.193,428.346z M111.193,412.831v-50.738c2.647,1.034,5.523,1.608,8.532,1.608
	c4.142,0,7.5-3.357,7.5-7.5s-3.358-7.5-7.5-7.5c-4.705,0-8.532-3.827-8.532-8.532V276.04c0-4.705,3.828-8.532,8.532-8.532h272.549
	c4.705,0,8.532,3.827,8.532,8.532v64.129c0,4.705-3.827,8.532-8.532,8.532c-4.143,0-7.5,3.357-7.5,7.5s3.357,7.5,7.5,7.5
	c3.009,0,5.885-0.574,8.532-1.608v50.738L111.193,412.831L111.193,412.831z M497,428.346c0,4.705-3.827,8.532-8.532,8.532h-64.129
	c-4.705,0-8.532-3.827-8.532-8.532V203.896c0-4.705,3.827-8.532,8.532-8.532h64.129c4.705,0,8.532,3.827,8.532,8.532V428.346z"/>
<g>
</g>
<g>
</g>
<g>
</g>
<g>
</g>
<g>
</g>
<g>
</g>
<g>
</g>
<g>
</g>
<g>
</g>
<g>
</g>
<g>
</g>
<g>
</g>
<g>
</g>
<g>
</g>
<g>
</g>
</svg>
