<?xml version="1.0" encoding="iso-8859-1"?>
<!-- Generator: Adobe Illustrator 19.0.0, SVG Export Plug-In . SVG Version: 6.00 Build 0)  -->
<svg version="1.1" id="Capa_1" xmlns="http://www.w3.org/2000/svg" xmlns:xlink="http://www.w3.org/1999/xlink" x="0px" y="0px"
	 viewBox="0 0 511.999 511.999" style="enable-background:new 0 0 511.999 511.999;" xml:space="preserve">
<path style="fill:#6F6571;" d="M368.226,504.5H143.774c-13.282,0-24.048-10.767-24.048-24.048V31.548
	c0-13.282,10.767-24.048,24.048-24.048h224.452c13.282,0,24.048,10.767,24.048,24.048v448.903
	C392.274,493.733,381.507,504.5,368.226,504.5z"/>
<rect x="119.73" y="39.565" style="fill:#FFFFFF;" width="272.55" height="400.81"/>
<path style="fill:#E6646E;" d="M327.383,344.177H184.617c-4.714,0-8.41-4.048-7.983-8.742l14.575-160.323
	c0.375-4.129,3.837-7.29,7.983-7.29h113.617c4.146,0,7.608,3.161,7.983,7.29l14.575,160.323
	C335.793,340.13,332.097,344.177,327.383,344.177z"/>
<path style="fill:#EDEBED;" d="M231.952,408.306c-44.272,0-80.161-35.889-80.161-80.161V39.565h-32.065v400.806h272.548v-32.065
	H231.952z"/>
<path style="fill:#DC4655;" d="M265.601,320.129c-32.996,0-58.87-28.332-55.882-61.193l8.283-91.113h-18.81
	c-4.146,0-7.607,3.161-7.983,7.29l-14.575,160.323c-0.427,4.694,3.27,8.742,7.983,8.742h142.767c4.714,0,8.41-4.048,7.984-8.742
	l-1.391-15.306L265.601,320.129L265.601,320.129z"/>
<path d="M368.226,0H143.774c-17.396,0-31.549,14.152-31.549,31.548v448.903c0,17.396,14.152,31.548,31.549,31.548h224.451
	c17.396,0,31.549-14.152,31.549-31.548V31.548C399.774,14.152,385.622,0,368.226,0z M384.774,480.452
	c0,9.125-7.424,16.548-16.549,16.548H143.774c-9.125,0-16.549-7.424-16.549-16.548V31.548c0-9.125,7.424-16.548,16.549-16.548
	h224.451c9.125,0,16.549,7.424,16.549,16.548L384.774,480.452L384.774,480.452z"/>
<path d="M360.21,432.871H151.79c-4.143,0-7.5,3.357-7.5,7.5c0,4.142,3.357,7.5,7.5,7.5h208.42c4.143,0,7.5-3.358,7.5-7.5
	S364.353,432.871,360.21,432.871z"/>
<path d="M360.21,32.064H151.79c-4.143,0-7.5,3.358-7.5,7.5s3.357,7.5,7.5,7.5h208.42c4.143,0,7.5-3.358,7.5-7.5
	S364.353,32.064,360.21,32.064z"/>
<path d="M264.017,464.936h-16.033c-4.143,0-7.5,3.358-7.5,7.5s3.357,7.5,7.5,7.5h16.033c4.143,0,7.5-3.358,7.5-7.5
	S268.159,464.936,264.017,464.936z"/>
<path d="M256,120.242c-17.396,0-31.549,14.152-31.549,31.548v8.532h-25.26c-8.077,0-14.72,6.066-15.452,14.112l-14.574,160.323
	c-0.395,4.331,1.062,8.656,3.994,11.868c2.933,3.211,7.108,5.053,11.457,5.053h142.768c4.349,0,8.524-1.842,11.457-5.053
	c2.933-3.212,4.389-7.537,3.994-11.868l-14.574-160.324c-0.732-8.044-7.375-14.11-15.452-14.11h-25.26v-8.532
	C287.549,134.395,273.396,120.242,256,120.242z M239.451,151.79c0-9.125,7.424-16.548,16.549-16.548s16.549,7.423,16.549,16.548
	v8.532h-33.098L239.451,151.79L239.451,151.79z M312.809,175.322c0.269,0,0.49,0.203,0.515,0.47l14.574,160.322
	c0.005,0.063,0.021,0.227-0.134,0.396c-0.153,0.168-0.317,0.168-0.38,0.168H184.616c-0.063,0-0.227,0-0.38-0.168
	c-0.154-0.168-0.139-0.333-0.134-0.396l14.574-160.321c0.024-0.268,0.246-0.471,0.515-0.471h25.26v16.549c0,4.142,3.357,7.5,7.5,7.5
	s7.5-3.358,7.5-7.5v-16.549h33.098v16.549c0,4.142,3.357,7.5,7.5,7.5s7.5-3.358,7.5-7.5v-16.549L312.809,175.322L312.809,175.322z"
	/>
<g>
</g>
<g>
</g>
<g>
</g>
<g>
</g>
<g>
</g>
<g>
</g>
<g>
</g>
<g>
</g>
<g>
</g>
<g>
</g>
<g>
</g>
<g>
</g>
<g>
</g>
<g>
</g>
<g>
</g>
</svg>
