<?xml version="1.0" encoding="iso-8859-1"?>
<!-- Generator: Adobe Illustrator 19.0.0, SVG Export Plug-In . SVG Version: 6.00 Build 0)  -->
<svg version="1.1" id="Capa_1" xmlns="http://www.w3.org/2000/svg" xmlns:xlink="http://www.w3.org/1999/xlink" x="0px" y="0px"
	 viewBox="0 0 512 512" style="enable-background:new 0 0 512 512;" xml:space="preserve">
<circle style="fill:#FFC350;" cx="256" cy="256" r="248.5"/>
<path style="fill:#E1A546;" d="M168.462,343.538c-81.818-81.818-94.65-206.493-38.508-301.761
	c-17.73,10.449-34.443,23.28-49.669,38.506c-97.045,97.047-97.045,254.387,0,351.432s254.386,97.046,351.432,0
	c15.227-15.227,28.057-31.938,38.506-49.667c0,0,0.001-0.002,0.001-0.004C374.954,438.189,250.279,425.356,168.462,343.538z"/>
<path d="M437.02,74.98C388.667,26.629,324.38,0,256,0S123.333,26.629,74.98,74.98C26.629,123.333,0,187.62,0,256
	s26.629,132.667,74.98,181.02C123.333,485.371,187.62,512,256,512s132.667-26.629,181.02-74.98C485.371,388.667,512,324.38,512,256
	S485.371,123.333,437.02,74.98z M431.626,421.019l-85.572-85.571c41.15-38.696,94.098-61.542,150.5-64.911
	C493.219,326.959,470.512,379.697,431.626,421.019z M269.542,452.061c-4.053-0.856-8.033,1.732-8.89,5.786
	c-2.717,12.853-4.444,25.991-5.166,39.147c-61.675-0.128-119.777-23.276-164.505-65.368L256,266.607l68.826,68.826
	c-24.598,26.034-43.098,56.251-55.03,89.928c-1.384,3.904,0.66,8.19,4.564,9.574c0.828,0.294,1.674,0.433,2.505,0.433
	c3.087,0,5.979-1.921,7.069-4.997c11.181-31.555,28.496-59.884,51.506-84.322l85.577,85.577
	c-41.32,38.885-94.055,61.591-150.476,64.928c0.719-11.968,2.314-23.912,4.786-35.604
	C276.185,456.897,273.594,452.917,269.542,452.061z M15.006,256.52c60.57-3.304,117.466-27.747,161.552-69.354L245.393,256
	L80.374,421.019C38.283,376.292,15.136,318.192,15.006,256.52z M80.374,90.981l85.571,85.571
	c-41.15,38.696-94.098,61.542-150.5,64.911C18.781,185.041,41.488,132.303,80.374,90.981z M242.458,59.939
	c0.523,0.11,1.045,0.164,1.56,0.164c3.469,0,6.584-2.421,7.33-5.95c2.717-12.853,4.444-25.991,5.166-39.147
	c61.675,0.128,119.777,23.276,164.505,65.368L256,245.393l-68.826-68.826c24.598-26.034,43.098-56.251,55.03-89.928
	c1.384-3.904-0.66-8.19-4.564-9.574c-3.905-1.39-8.191,0.66-9.574,4.564c-11.181,31.555-28.496,59.884-51.506,84.322L90.982,80.374
	c41.32-38.885,94.055-61.591,150.476-64.928c-0.719,11.968-2.314,23.912-4.786,35.604C235.815,55.103,238.406,59.083,242.458,59.939
	z M496.994,255.48c-60.57,3.304-117.466,27.747-161.552,69.354L266.607,256L431.626,90.981
	C473.717,135.708,496.864,193.808,496.994,255.48z"/>
<g>
</g>
<g>
</g>
<g>
</g>
<g>
</g>
<g>
</g>
<g>
</g>
<g>
</g>
<g>
</g>
<g>
</g>
<g>
</g>
<g>
</g>
<g>
</g>
<g>
</g>
<g>
</g>
<g>
</g>
</svg>
