<?xml version="1.0" encoding="iso-8859-1"?>
<!-- Generator: Adobe Illustrator 19.0.0, SVG Export Plug-In . SVG Version: 6.00 Build 0)  -->
<svg version="1.1" id="Capa_1" xmlns="http://www.w3.org/2000/svg" xmlns:xlink="http://www.w3.org/1999/xlink" x="0px" y="0px"
	 viewBox="0 0 512.001 512.001" style="enable-background:new 0 0 512.001 512.001;" xml:space="preserve">
<path style="fill:#EDEBED;" d="M332.203,392.298H59.638c-8.855,0-16.033-7.178-16.033-16.033V23.533
	c0-8.855,7.178-16.033,16.033-16.033h272.565c8.855,0,16.033,7.178,16.033,16.033v352.731
	C348.237,385.119,341.058,392.298,332.203,392.298z"/>
<path style="fill:#FFD164;" d="M348.732,467.156l-55.538,34.867c-12.24,7.684-27.6-3.475-24.073-17.491l15.999-63.595
	l-50.323-42.046c-11.091-9.267-5.223-27.323,9.196-28.301l65.426-4.436l24.436-60.853c5.385-13.411,24.371-13.411,29.757,0
	l24.436,60.853l65.426,4.436c14.419,0.978,20.286,19.034,9.196,28.301l-50.323,42.046l15.999,63.595
	c3.526,14.016-11.834,25.175-24.073,17.491L348.732,467.156z"/>
<g>
	<path style="fill:#FFC350;" d="M421.228,456.25c-69.813-2.797-129.182-46.141-155.16-107.154l-22.077,1.497
		c-14.419,0.978-20.286,19.034-9.196,28.301l50.323,42.046l-15.999,63.595c-3.526,14.016,11.834,25.176,24.073,17.491l55.538-34.868
		l55.538,34.868c12.24,7.684,27.6-3.475,24.073-17.491L421.228,456.25z"/>
	<circle style="fill:#FFC350;" cx="115.757" cy="111.717" r="16.031"/>
	<circle style="fill:#FFC350;" cx="115.757" cy="288.077" r="16.031"/>
	<circle style="fill:#FFC350;" cx="115.757" cy="199.902" r="16.031"/>
</g>
<path d="M115.715,88.182c-12.977,0-23.533,10.558-23.533,23.533s10.558,23.533,23.533,23.533s23.533-10.558,23.533-23.533
	S128.691,88.182,115.715,88.182z M115.715,120.249c-4.705,0-8.533-3.828-8.533-8.533c0-4.704,3.828-8.533,8.533-8.533
	s8.533,3.828,8.533,8.533C124.247,116.421,120.42,120.249,115.715,120.249z"/>
<path d="M292.08,88.182H163.814c-4.142,0-7.5,3.358-7.5,7.5c0,4.142,3.358,7.5,7.5,7.5H292.08c4.142,0,7.5-3.358,7.5-7.5
	C299.581,91.541,296.222,88.182,292.08,88.182z"/>
<path d="M163.814,135.25h16.033c4.142,0,7.5-3.358,7.5-7.5c0-4.142-3.358-7.5-7.5-7.5h-16.033c-4.142,0-7.5,3.358-7.5,7.5
	C156.314,131.892,159.672,135.25,163.814,135.25z"/>
<path d="M251.997,135.25c4.142,0,7.5-3.358,7.5-7.5c0-4.142-3.358-7.5-7.5-7.5h-40.083c-4.142,0-7.5,3.358-7.5,7.5
	c0,4.142,3.358,7.5,7.5,7.5H251.997z"/>
<path d="M115.715,176.366c-12.977,0-23.533,10.558-23.533,23.533c0,12.977,10.558,23.533,23.533,23.533s23.533-10.558,23.533-23.533
	C139.248,186.922,128.691,176.366,115.715,176.366z M115.715,208.432c-4.705,0-8.533-3.828-8.533-8.533
	c0-4.705,3.828-8.533,8.533-8.533s8.533,3.828,8.533,8.533C124.247,204.604,120.42,208.432,115.715,208.432z"/>
<path d="M292.08,176.366H163.814c-4.142,0-7.5,3.358-7.5,7.5c0,4.142,3.358,7.5,7.5,7.5H292.08c4.142,0,7.5-3.358,7.5-7.5
	C299.581,179.724,296.222,176.366,292.08,176.366z"/>
<path d="M163.814,223.433h16.033c4.142,0,7.5-3.358,7.5-7.5c0-4.142-3.358-7.5-7.5-7.5h-16.033c-4.142,0-7.5,3.358-7.5,7.5
	C156.314,220.074,159.672,223.433,163.814,223.433z"/>
<path d="M251.997,223.433c4.142,0,7.5-3.358,7.5-7.5c0-4.142-3.358-7.5-7.5-7.5h-40.083c-4.142,0-7.5,3.358-7.5,7.5
	c0,4.142,3.358,7.5,7.5,7.5H251.997z"/>
<path d="M115.715,264.548c-12.977,0-23.533,10.558-23.533,23.533c0,12.976,10.558,23.533,23.533,23.533s23.533-10.558,23.533-23.533
	C139.248,275.106,128.691,264.548,115.715,264.548z M115.715,296.615c-4.705,0-8.533-3.828-8.533-8.533
	c0-4.704,3.828-8.533,8.533-8.533s8.533,3.828,8.533,8.533C124.247,292.787,120.42,296.615,115.715,296.615z"/>
<path d="M299.581,272.048c0-4.142-3.358-7.5-7.5-7.5H163.814c-4.142,0-7.5,3.358-7.5,7.5s3.358,7.5,7.5,7.5H292.08
	C296.222,279.549,299.581,276.191,299.581,272.048z"/>
<path d="M163.814,296.615c-4.142,0-7.5,3.358-7.5,7.5c0,4.142,3.358,7.5,7.5,7.5h16.033c4.142,0,7.5-3.358,7.5-7.5
	c0-4.142-3.358-7.5-7.5-7.5H163.814z"/>
<path d="M259.497,304.115c0-4.142-3.358-7.5-7.5-7.5h-40.083c-4.142,0-7.5,3.358-7.5,7.5c0,4.142,3.358,7.5,7.5,7.5h40.083
	C256.139,311.616,259.497,308.258,259.497,304.115z"/>
<path d="M201.893,384.797H59.598c-4.705,0-8.533-3.828-8.533-8.533V23.533c0-4.705,3.828-8.533,8.533-8.533h272.564
	c4.705,0,8.533,3.828,8.533,8.533v219.455c0,4.142,3.358,7.5,7.5,7.5s7.5-3.358,7.5-7.5V23.533C355.697,10.558,345.139,0,332.164,0
	H59.598C46.622,0,36.065,10.558,36.065,23.533v352.731c0,12.977,10.558,23.533,23.533,23.533h142.295c4.142,0,7.5-3.358,7.5-7.5
	C209.393,388.156,206.035,384.797,201.893,384.797z"/>
<path d="M474.77,359.317c-2.987-9.192-11.147-15.554-20.79-16.208l-60.728-4.117l-22.682-56.483
	c-3.602-8.969-12.174-14.764-21.838-14.764s-18.237,5.795-21.838,14.764l-22.682,56.483l-60.728,4.117
	c-9.643,0.654-17.803,7.015-20.79,16.208c-2.986,9.192-0.124,19.135,7.292,25.333l46.71,39.026l-14.85,59.028
	c-2.358,9.373,1.17,19.1,8.99,24.78c7.819,5.68,18.16,6.031,26.347,0.893l51.55-32.364l51.55,32.364
	c3.858,2.422,8.195,3.625,12.521,3.624c4.852,0,9.692-1.513,13.826-4.517c7.818-5.681,11.348-15.408,8.99-24.78l-14.85-59.028
	l46.71-39.026C474.894,378.452,477.756,368.508,474.77,359.317z M457.859,373.137l-50.323,42.046
	c-2.209,1.846-3.167,4.793-2.465,7.585l15.999,63.595c1.306,5.19-2.165,8.188-3.259,8.985c-1.094,0.795-5.02,3.17-9.553,0.324
	l-55.538-34.867c-1.219-0.765-2.604-1.148-3.988-1.148s-2.769,0.383-3.988,1.148l-55.538,34.867
	c-4.533,2.847-8.459,0.472-9.553-0.324c-1.095-0.795-4.565-3.794-3.259-8.985l15.999-63.594c0.702-2.792-0.255-5.74-2.465-7.585
	l-50.323-42.046c-4.107-3.431-3.062-7.897-2.644-9.185c0.418-1.287,2.197-5.514,7.537-5.876l65.426-4.436
	c2.872-0.195,5.38-2.017,6.453-4.688l24.437-60.853c1.994-4.967,6.564-5.353,7.917-5.353s5.923,0.386,7.917,5.353l24.437,60.853
	c1.073,2.671,3.581,4.493,6.453,4.688l65.426,4.436c5.34,0.362,7.119,4.589,7.537,5.876
	C460.921,365.239,461.966,369.705,457.859,373.137z"/>
<g>
</g>
<g>
</g>
<g>
</g>
<g>
</g>
<g>
</g>
<g>
</g>
<g>
</g>
<g>
</g>
<g>
</g>
<g>
</g>
<g>
</g>
<g>
</g>
<g>
</g>
<g>
</g>
<g>
</g>
</svg>
