<?xml version="1.0" encoding="iso-8859-1"?>
<!-- Generator: Adobe Illustrator 19.0.0, SVG Export Plug-In . SVG Version: 6.00 Build 0)  -->
<svg version="1.1" id="Capa_1" xmlns="http://www.w3.org/2000/svg" xmlns:xlink="http://www.w3.org/1999/xlink" x="0px" y="0px"
	 viewBox="0 0 512.001 512.001" style="enable-background:new 0 0 512.001 512.001;" xml:space="preserve">
<path style="fill:#FFD164;" d="M273.685,14.767L273.685,14.767c12.076-11.915,32.239-8.722,40.042,6.342l0,0
	c6.336,12.231,21.323,17.1,33.638,10.93l0,0c15.167-7.601,33.356,1.668,36.122,18.405l0,0c2.246,13.59,14.995,22.853,28.614,20.789
	l0,0c16.772-2.542,31.208,11.894,28.667,28.667l0,0c-2.064,13.619,7.199,26.368,20.789,28.614l0,0
	c16.737,2.766,26.005,20.955,18.405,36.122l0,0c-6.171,12.315-1.301,27.302,10.93,33.638l0,0
	c15.063,7.803,18.257,27.966,6.342,40.042l0,0c-9.675,9.805-9.675,25.564,0,35.369l0,0c11.915,12.076,8.722,32.239-6.342,40.042l0,0
	c-12.231,6.336-17.1,21.323-10.93,33.638l0,0c7.601,15.167-1.668,33.356-18.405,36.122l0,0
	c-13.59,2.246-22.853,14.996-20.789,28.614l0,0c2.542,16.772-11.894,31.208-28.667,28.667l0,0
	c-13.619-2.064-26.368,7.199-28.614,20.789l0,0c-2.766,16.737-20.955,26.005-36.122,18.405l0,0
	c-12.315-6.171-27.302-1.301-33.638,10.93l0,0c-7.803,15.064-27.966,18.257-40.042,6.342l0,0c-9.805-9.675-25.564-9.675-35.369,0
	l0,0c-12.076,11.915-32.239,8.722-40.042-6.342l0,0c-6.336-12.231-21.323-17.1-33.638-10.93l0,0
	c-15.166,7.601-33.356-1.668-36.122-18.405l0,0c-2.246-13.59-14.995-22.853-28.614-20.789l0,0
	c-16.772,2.542-31.208-11.894-28.667-28.667l0,0c2.064-13.619-7.199-26.368-20.789-28.614l0,0
	c-16.737-2.766-26.005-20.955-18.405-36.122l0,0c6.171-12.315,1.301-27.302-10.93-33.638l0,0
	c-15.063-7.803-18.257-27.966-6.342-40.042l0,0c9.675-9.805,9.675-25.564,0-35.369l0,0c-11.915-12.076-8.722-32.239,6.342-40.042
	l0,0c12.231-6.336,17.1-21.323,10.93-33.638l0,0c-7.601-15.166,1.668-33.356,18.405-36.122l0,0
	c13.59-2.246,22.853-14.996,20.789-28.614l0,0C68.692,83.127,83.128,68.691,99.9,71.233l0,0
	c13.619,2.064,26.368-7.199,28.614-20.789l0,0c2.766-16.737,20.955-26.005,36.122-18.405l0,0
	c12.315,6.171,27.302,1.301,33.638-10.93l0,0c7.803-15.063,27.966-18.257,40.042-6.342l0,0
	C248.12,24.442,263.879,24.442,273.685,14.767z"/>
<path style="fill:#FFC350;" d="M348.182,392.27c-126.171,0-228.452-102.282-228.452-228.452c0-49.475,15.779-95.237,42.507-132.639
	c-14.632-5.575-31.101,3.395-33.723,19.265c-2.246,13.591-14.995,22.853-28.614,20.789c-16.771-2.542-31.208,11.894-28.665,28.666
	c2.064,13.62-7.2,26.368-20.789,28.614l0,0c-16.738,2.766-26.005,20.955-18.405,36.122c6.172,12.315,1.301,27.302-10.93,33.638
	c-15.063,7.803-18.256,27.966-6.342,40.042c9.675,9.805,9.675,25.564,0,35.369c-11.916,12.076-8.722,32.239,6.342,40.042
	c12.232,6.336,17.101,21.323,10.93,33.637c-7.6,15.167,1.667,33.357,18.405,36.122l0,0c13.59,2.246,22.853,14.996,20.789,28.614
	c-2.542,16.772,11.894,31.208,28.666,28.667c13.619-2.064,26.368,7.2,28.614,20.789c2.766,16.737,20.955,26.005,36.121,18.405h0.001
	c12.315-6.171,27.302-1.301,33.638,10.93c7.803,15.064,27.965,18.256,40.041,6.342c9.806-9.675,25.563-9.675,35.369,0
	c12.076,11.916,32.239,8.722,40.041-6.342c6.336-12.232,21.323-17.1,33.638-10.93h0.001c15.166,7.601,33.355-1.668,36.121-18.405
	c2.246-13.59,14.995-22.853,28.614-20.789c16.772,2.542,31.208-11.894,28.666-28.667c-2.064-13.619,7.2-26.368,20.789-28.614l0,0
	c15.871-2.622,24.84-19.091,19.266-33.723C443.42,376.49,397.658,392.27,348.182,392.27z"/>
<circle style="fill:#FFEDB1;" cx="256.001" cy="256.001" r="200.393"/>
<path style="fill:#FFE17D;" d="M344.878,391.503c-119.603-9.359-215.023-104.778-224.382-224.382
	c-0.322-4.109-3.655-7.312-7.776-7.312l0,0c-2.725,0-5.3,1.38-6.733,3.698c-19.552,31.613-29.522,69.771-25.429,110.538
	c8.279,82.447,74.956,149.121,157.405,157.396c40.764,4.091,78.918-5.879,110.529-25.43c2.317-1.433,3.698-4.009,3.698-6.733l0,0
	C352.19,395.158,348.987,391.824,344.878,391.503z"/>
<path style="fill:#E6646E;" d="M328.143,135.761h-52.221c-12.756,0-24.989,5.067-34.009,14.087L126.371,265.391
	c-12.522,12.522-12.522,32.823,0,45.344l74.894,74.894c12.522,12.522,32.823,12.522,45.344,0l115.542-115.542
	c9.02-9.02,14.087-21.253,14.087-34.009v-52.221C376.238,157.294,354.705,135.761,328.143,135.761z M328.143,199.888
	c-8.854,0-16.031-7.178-16.031-16.031c0-8.854,7.178-16.031,16.031-16.031s16.031,7.178,16.031,16.031
	S336.997,199.888,328.143,199.888z"/>
<path style="fill:#DC4655;" d="M233.328,385.629l-18.212-18.212c-43.826-43.826-43.826-114.88,0-158.706l72.949-72.949h-12.142
	c-12.756,0-24.989,5.067-34.01,14.088L126.371,265.391c-12.522,12.522-12.522,32.823,0,45.344l74.894,74.894
	c10.505,10.505,26.435,12.077,38.704,4.957C237.612,389.218,235.345,387.646,233.328,385.629z"/>
<path d="M502.571,243.583c7.371-7.47,10.656-17.699,9.015-28.064c-1.642-10.365-7.928-19.077-17.245-23.904
	c-8.541-4.424-11.983-15.02-7.675-23.618c4.702-9.382,4.666-20.125-0.099-29.476c-4.764-9.351-13.435-15.694-23.788-17.405
	c-9.49-1.568-16.037-10.581-14.598-20.09c1.572-10.376-1.781-20.582-9.202-28.003c-7.421-7.421-17.623-10.776-28.004-9.203
	c-9.499,1.441-18.522-5.107-20.09-14.598c-1.711-10.354-8.056-19.024-17.406-23.789c-9.351-4.764-20.094-4.8-29.476-0.098
	c-8.6,4.311-19.193,0.866-23.618-7.674c-4.826-9.319-13.54-15.604-23.904-17.245c-10.357-1.641-20.593,1.644-28.063,9.015
	c-6.848,6.756-17.985,6.756-24.833,0c-7.471-7.371-17.705-10.658-28.063-9.015c-10.365,1.642-19.078,7.928-23.904,17.245
	c-4.425,8.541-15.019,11.985-23.619,7.675c-9.382-4.702-20.124-4.665-29.475,0.098c-9.352,4.764-15.695,13.436-17.406,23.79
	c-1.568,9.49-10.585,16.037-20.09,14.597c-10.371-1.572-20.583,1.782-28.004,9.203c-7.421,7.421-10.774,17.627-9.202,28.002
	c1.44,9.51-5.107,18.522-14.598,20.091c-10.354,1.711-19.024,8.055-23.788,17.405c-4.765,9.351-4.801,20.093-0.099,29.476
	c4.309,8.6,0.866,19.194-7.674,23.618c-9.319,4.827-15.604,13.54-17.246,23.904c-1.642,10.365,1.644,20.594,9.015,28.064
	c6.756,6.847,6.756,17.987,0,24.834c-7.371,7.47-10.656,17.699-9.015,28.064c1.642,10.365,7.928,19.077,17.245,23.904
	c8.541,4.424,11.983,15.019,7.675,23.618c-4.702,9.382-4.666,20.125,0.099,29.476c4.764,9.351,13.435,15.694,23.788,17.405
	c9.49,1.568,16.037,10.581,14.598,20.09c-1.572,10.376,1.781,20.582,9.202,28.003c7.421,7.421,17.623,10.775,28.004,9.203
	c9.499-1.44,18.521,5.107,20.09,14.598c1.711,10.354,8.056,19.024,17.405,23.788c9.351,4.764,20.095,4.799,29.477,0.099
	c8.601-4.31,19.193-0.867,23.618,7.674c4.826,9.318,13.539,15.603,23.903,17.245c10.362,1.644,20.595-1.644,28.064-9.015
	c6.848-6.756,17.985-6.756,24.833,0c6.208,6.125,14.32,9.429,22.832,9.429c1.731,0,3.48-0.137,5.232-0.414
	c10.365-1.642,19.077-7.928,23.903-17.245c4.424-8.541,15.018-11.985,23.619-7.674c9.384,4.702,20.126,4.665,29.475-0.099
	c9.352-4.764,15.695-13.435,17.406-23.789c1.568-9.49,10.588-16.035,20.09-14.596c10.376,1.573,20.583-1.782,28.004-9.203
	c7.421-7.421,10.774-17.627,9.202-28.002c-1.44-9.51,5.107-18.522,14.598-20.091c10.354-1.711,19.024-8.055,23.788-17.405
	c4.765-9.351,4.801-20.093,0.099-29.476c-4.309-8.6-0.866-19.194,7.674-23.618c9.319-4.827,15.604-13.54,17.246-23.904
	s-1.644-20.594-9.015-28.064C495.815,261.57,495.815,250.429,502.571,243.583z M491.893,278.951
	c3.988,4.042,5.766,9.575,4.877,15.182c-0.888,5.607-4.289,10.321-9.331,12.933c-15.785,8.178-22.148,27.762-14.185,43.657
	c2.544,5.076,2.524,10.888-0.054,15.946c-2.577,5.059-7.268,8.491-12.869,9.417c-17.541,2.899-29.645,19.558-26.981,37.137
	c0.851,5.613-0.964,11.135-4.979,15.148c-4.015,4.015-9.534,5.831-15.15,4.979c-17.581-2.663-34.239,9.44-37.137,26.981
	c-0.926,5.602-4.358,10.293-9.417,12.87c-5.06,2.578-10.871,2.597-15.946,0.053c-15.893-7.965-35.479-1.603-43.657,14.185
	c-2.611,5.042-7.325,8.442-12.933,9.33c-5.607,0.889-11.142-0.889-15.183-4.876c-6.328-6.245-14.639-9.367-22.951-9.367
	c-8.312,0-16.624,3.123-22.951,9.366c-4.042,3.989-9.584,5.767-15.183,4.877c-5.607-0.888-10.321-4.289-12.933-9.33
	c-8.178-15.787-27.763-22.149-43.658-14.185c-5.075,2.543-10.888,2.524-15.944-0.053c-5.06-2.577-8.492-7.269-9.418-12.87
	c-2.898-17.542-19.558-29.646-37.137-26.982c-5.613,0.851-11.136-0.965-15.149-4.979c-4.015-4.014-5.829-9.536-4.979-15.149
	c2.664-17.578-9.44-34.238-26.981-37.137c-5.602-0.926-10.292-4.358-12.869-9.417c-2.578-5.059-2.598-10.871-0.054-15.946
	c7.965-15.894,1.602-35.479-14.186-43.657c-5.041-2.611-8.442-7.325-9.33-12.932c-0.889-5.608,0.889-11.142,4.877-15.182
	c12.487-12.656,12.487-33.248,0-45.903c-3.988-4.042-5.766-9.575-4.877-15.182c0.888-5.607,4.289-10.321,9.331-12.933
	c15.785-8.178,22.148-27.762,14.185-43.657c-2.544-5.076-2.524-10.888,0.054-15.946c2.577-5.059,7.268-8.491,12.869-9.417
	c17.541-2.899,29.645-19.558,26.981-37.137c-0.851-5.613,0.964-11.135,4.979-15.148c4.016-4.015,9.539-5.829,15.149-4.979
	c17.577,2.662,34.239-9.44,37.137-26.981c0.926-5.602,4.358-10.293,9.418-12.87c5.059-2.578,10.872-2.596,15.945-0.053
	c15.894,7.965,35.479,1.604,43.657-14.186c2.611-5.041,7.325-8.442,12.933-9.33c5.604-0.888,11.141,0.889,15.183,4.877
	c12.656,12.488,33.247,12.488,45.902,0c4.041-3.988,9.573-5.766,15.183-4.877c5.607,0.888,10.321,4.289,12.933,9.33
	c8.179,15.787,27.764,22.149,43.658,14.185c5.075-2.544,10.888-2.523,15.944,0.053c5.06,2.577,8.492,7.269,9.418,12.87
	c2.898,17.542,19.557,29.646,37.137,26.982c5.614-0.851,11.136,0.965,15.15,4.979c4.015,4.014,5.829,9.536,4.979,15.149
	c-2.664,17.578,9.44,34.238,26.981,37.137c5.602,0.926,10.292,4.358,12.869,9.417c2.578,5.059,2.598,10.871,0.054,15.946
	c-7.965,15.894-1.602,35.479,14.186,43.657c5.041,2.611,8.442,7.325,9.33,12.932c0.889,5.608-0.889,11.142-4.877,15.182
	C479.407,245.703,479.407,266.296,491.893,278.951z"/>
<path d="M328.143,128.262h-52.221c-14.851,0-28.812,5.783-39.312,16.283L121.067,260.088c-15.424,15.425-15.424,40.525,0,55.95
	l74.894,74.893c7.473,7.473,17.407,11.588,27.976,11.588s20.503-4.116,27.976-11.588l115.543-115.542
	c10.5-10.501,16.282-24.461,16.282-39.312v-52.221C383.738,153.202,358.798,128.262,328.143,128.262z M368.738,236.078
	c0,10.844-4.223,21.038-11.891,28.705L241.305,380.326c-4.639,4.64-10.808,7.195-17.368,7.195c-6.561,0-12.73-2.555-17.368-7.195
	l-74.894-74.893c-9.578-9.578-9.578-25.161,0-34.739l115.543-115.542c7.667-7.668,17.861-11.891,28.705-11.891h52.221
	c22.384,0,40.596,18.211,40.596,40.596L368.738,236.078L368.738,236.078z"/>
<path d="M328.143,160.325c-12.976,0-23.531,10.557-23.531,23.531c0,12.975,10.557,23.531,23.531,23.531s23.531-10.557,23.531-23.531
	C351.674,170.882,341.118,160.325,328.143,160.325z M328.143,192.389c-4.705,0-8.532-3.828-8.532-8.532s3.827-8.532,8.532-8.532
	s8.532,3.828,8.532,8.532S332.848,192.389,328.143,192.389z"/>
<path d="M63.266,248.752c1.804-48.759,21.81-94.626,56.336-129.152c34.525-34.525,80.391-54.532,129.152-56.335
	c48.494-1.791,95.463,14.506,132.253,45.893c3.152,2.689,7.887,2.313,10.574-0.838c2.688-3.151,2.313-7.885-0.838-10.573
	c-39.659-33.835-90.268-51.405-142.543-49.471c-52.556,1.944-101.992,23.507-139.203,60.718
	c-37.211,37.211-58.774,86.648-60.718,139.203c-1.933,52.261,15.636,102.885,49.471,142.543c1.484,1.739,3.59,2.632,5.71,2.632
	c1.721,0,3.451-0.59,4.864-1.795c3.15-2.688,3.526-7.422,0.838-10.573C77.771,344.215,61.473,297.247,63.266,248.752z"/>
<path d="M403.677,120.421c-3.15,2.688-3.526,7.422-0.838,10.573c31.389,36.791,47.686,83.758,45.894,132.254
	c-1.804,48.759-21.81,94.626-56.336,129.152c-34.524,34.525-80.391,54.532-129.151,56.335
	c-48.501,1.788-95.463-14.506-132.253-45.893c-3.152-2.689-7.886-2.313-10.574,0.838c-2.688,3.151-2.313,7.885,0.838,10.573
	c37.687,32.152,85.27,49.615,134.757,49.615c2.59,0,5.188-0.048,7.787-0.144c52.556-1.944,101.992-23.507,139.203-60.718
	c37.211-37.211,58.774-86.648,60.718-139.203c1.933-52.261-15.636-102.885-49.471-142.543
	C411.563,118.108,406.832,117.731,403.677,120.421z"/>
<g>
</g>
<g>
</g>
<g>
</g>
<g>
</g>
<g>
</g>
<g>
</g>
<g>
</g>
<g>
</g>
<g>
</g>
<g>
</g>
<g>
</g>
<g>
</g>
<g>
</g>
<g>
</g>
<g>
</g>
</svg>
