<?xml version="1.0" encoding="iso-8859-1"?>
<!-- Generator: Adobe Illustrator 19.0.0, SVG Export Plug-In . SVG Version: 6.00 Build 0)  -->
<svg version="1.1" id="Capa_1" xmlns="http://www.w3.org/2000/svg" xmlns:xlink="http://www.w3.org/1999/xlink" x="0px" y="0px"
	 viewBox="0 0 511.998 511.998" style="enable-background:new 0 0 511.998 511.998;" xml:space="preserve">
<g>
	<circle style="fill:#6F6571;" cx="159.793" cy="468.43" r="24.051"/>
	<circle style="fill:#6F6571;" cx="448.389" cy="468.43" r="24.051"/>
</g>
<path style="fill:#867E88;" d="M56.273,90.973l-44.089-44.09c-6.261-6.261-6.261-16.412,0-22.673l0,0
	c6.261-6.261,16.412-6.261,22.673,0l44.09,44.09c6.261,6.261,6.261,16.412,0,22.673l0,0C72.686,97.234,62.535,97.234,56.273,90.973z
	"/>
<path style="fill:#FFE17D;" d="M496.483,348.182H135.749v-80.163h360.734c4.427,0,8.016,3.589,8.016,8.016v64.13
	C504.499,344.593,500.91,348.182,496.483,348.182z"/>
<path style="fill:#FFD164;" d="M183.847,324.133c-13.282,0-24.049-10.767-24.049-24.049v-32.066H135.75v80.163h360.734
	c4.427,0,8.016-3.589,8.016-8.016v-16.032H183.847z"/>
<path style="fill:#FFE17D;" d="M480.45,203.888H151.782v-56.114c0-4.427,3.589-8.016,8.016-8.016H480.45
	c4.427,0,8.016,3.589,8.016,8.016v48.098C488.467,200.3,484.878,203.888,480.45,203.888z"/>
<path style="fill:#FFD164;" d="M199.88,179.839c-13.282,0-24.049-10.767-24.049-24.049v-16.032h-16.032
	c-4.427,0-8.016,3.589-8.016,8.016v56.114H480.45c4.427,0,8.016-3.589,8.016-8.016V179.84H199.88V179.839z"/>
<rect x="103.681" y="203.884" style="fill:#FF8087;" width="368.748" height="64.131"/>
<path style="fill:#E6646E;" d="M151.782,243.97c-13.282,0-24.049-10.767-24.049-24.049v-16.032h-24.049v64.13h368.75v-24.049
	L151.782,243.97L151.782,243.97z"/>
<path d="M496.483,260.519h-16.574c0.006-0.173,0.026-0.342,0.026-0.516v-48.614h0.516c8.556,0,15.516-6.96,15.516-15.516v-48.098
	c0-8.556-6.96-15.516-15.516-15.516H159.799c-8.556,0-15.516,6.96-15.516,15.516v48.098c0,0.174,0.02,0.343,0.026,0.516h-33.564
	l-0.133-64.785c-0.036-12.657-4.985-24.559-13.936-33.51l-8.002-8.002c4.358-8.801,2.898-19.775-4.422-27.095l-44.09-44.091
	c-9.175-9.176-24.105-9.176-33.28,0c-9.175,9.175-9.175,24.105,0,33.281L50.97,96.276c4.444,4.445,10.354,6.893,16.64,6.892
	c3.696,0,7.258-0.852,10.473-2.453l7.984,7.984c6.129,6.129,9.518,14.278,9.543,22.939l0.511,248.684
	c0.042,21.773,17.791,39.489,39.565,39.489h16.61v17.973c-13.786,3.375-24.049,15.829-24.049,30.641
	c0,17.396,14.152,31.549,31.549,31.549s31.549-14.152,31.549-31.549c0-14.812-10.262-27.266-24.049-30.641v-17.973h273.587v17.973
	c-13.786,3.375-24.048,15.829-24.048,30.641c0,17.396,14.152,31.549,31.549,31.549c17.396,0,31.549-14.152,31.549-31.549
	c0-14.812-10.262-27.266-24.049-30.641v-17.973h16.548c4.142,0,7.5-3.358,7.5-7.5s-3.358-7.5-7.5-7.5H135.687
	c-13.519,0-24.54-10.998-24.565-24.519l-0.051-24.612h32.694h352.717c8.556,0,15.516-6.96,15.516-15.516v-64.129
	C511.999,267.479,505.038,260.519,496.483,260.519z M73.644,85.669c-3.327,3.327-8.74,3.327-12.066,0l-44.09-44.09
	c-3.327-3.327-3.327-8.74,0-12.067c1.664-1.663,3.848-2.495,6.033-2.495s4.37,0.832,6.033,2.495l44.089,44.09
	C76.97,76.929,76.97,82.342,73.644,85.669z M464.933,468.427c0,9.125-7.423,16.548-16.548,16.548
	c-9.125,0-16.548-7.423-16.548-16.548c0-9.125,7.423-16.548,16.548-16.548C457.51,451.878,464.933,459.301,464.933,468.427z
	 M176.347,468.427c0,9.125-7.423,16.548-16.548,16.548c-9.125,0-16.548-7.423-16.548-16.548c0-9.125,7.423-16.548,16.548-16.548
	C168.924,451.878,176.347,459.301,176.347,468.427z M128.275,340.682h-17.234l-0.125-65.162h17.359
	c-0.006,0.173-0.026,0.342-0.026,0.516v64.13C128.249,340.34,128.27,340.509,128.275,340.682z M496.999,340.166
	c0,0.285-0.231,0.516-0.516,0.516H143.765c-0.285,0-0.516-0.231-0.516-0.516v-64.13c0-0.285,0.231-0.516,0.516-0.516h8.016
	c4.142,0,7.5-3.358,7.5-7.5s-3.358-7.5-7.5-7.5H111.7c-0.285,0-0.516-0.231-0.516-0.516v-48.099c0-0.285,0.231-0.516,0.516-0.516
	h312.636c4.142,0,7.5-3.358,7.5-7.5s-3.358-7.5-7.5-7.5H159.799c-0.285,0-0.516-0.231-0.516-0.516v-48.098
	c0-0.285,0.231-0.516,0.516-0.516h320.652c0.285,0,0.516,0.231,0.516,0.516v48.098c0,0.285-0.231,0.516-0.516,0.516h-24.049
	c-4.142,0-7.5,3.358-7.5,7.5s3.358,7.5,7.5,7.5h8.016c0.285,0,0.516,0.231,0.516,0.516v48.098c0,0.285-0.231,0.516-0.516,0.516
	H183.847c-4.142,0-7.5,3.358-7.5,7.5s3.358,7.5,7.5,7.5h312.636c0.285,0,0.516,0.231,0.516,0.516L496.999,340.166L496.999,340.166z"
	/>
<g>
</g>
<g>
</g>
<g>
</g>
<g>
</g>
<g>
</g>
<g>
</g>
<g>
</g>
<g>
</g>
<g>
</g>
<g>
</g>
<g>
</g>
<g>
</g>
<g>
</g>
<g>
</g>
<g>
</g>
</svg>
