<?xml version="1.0" encoding="iso-8859-1"?>
<!-- Generator: Adobe Illustrator 19.0.0, SVG Export Plug-In . SVG Version: 6.00 Build 0)  -->
<svg version="1.1" id="Capa_1" xmlns="http://www.w3.org/2000/svg" xmlns:xlink="http://www.w3.org/1999/xlink" x="0px" y="0px"
	 viewBox="0 0 512.001 512.001" style="enable-background:new 0 0 512.001 512.001;" xml:space="preserve">
<path style="fill:#EDEBED;" d="M360.21,7.5H151.79v149.363c0,56.112,43.122,104.395,99.172,107.035
	c59.844,2.818,109.248-44.867,109.248-104.091V7.5z"/>
<g>
	<path style="fill:#DBD9DC;" d="M283.014,239.148c-52.68-6.611-91.143-53.361-91.143-106.454V7.5H151.79v149.239
		c0,57.688,45.569,106.754,103.254,107.274c28.411,0.256,54.17-10.917,73.113-29.128
		C314.168,239.409,298.927,241.145,283.014,239.148z"/>
	<path style="fill:#DBD9DC;" d="M320.129,504.5H191.871h8.016c30.99,0,56.113-25.123,56.113-56.113
		c0,30.99,25.123,56.113,56.113,56.113"/>
</g>
<path d="M320.129,497h-8.016c-26.806,0-48.613-21.808-48.613-48.613V296.081c0-4.142-3.357-7.5-7.5-7.5s-7.5,3.358-7.5,7.5v152.307
	c0,26.805-21.808,48.613-48.613,48.613h-8.016c-4.143,0-7.5,3.358-7.5,7.5s3.357,7.5,7.5,7.5h128.258c4.143,0,7.5-3.358,7.5-7.5
	S324.271,497,320.129,497z M240.874,497c6.146-5.19,11.299-11.523,15.127-18.667c3.828,7.144,8.98,13.477,15.127,18.667H240.874z"/>
<path d="M360.21,0h-83.224c-5.914,0-11.231,3.286-13.878,8.577l-42.98,85.961c-1.797,3.593-1.609,7.779,0.503,11.196
	c2.112,3.418,5.771,5.459,9.79,5.459h45.509l-42.67,85.34c-1.853,3.705-0.351,8.21,3.354,10.062
	c3.706,1.853,8.211,0.351,10.063-3.354l45.196-90.392c1.797-3.593,1.609-7.779-0.503-11.197s-5.772-5.459-9.79-5.459h-45.508
	l40.453-80.907C276.613,15.11,276.79,15,276.987,15h75.724v144.807c0,53.326-43.384,96.709-96.71,96.709s-96.71-43.384-96.71-96.709
	V15h76.336c4.143,0,7.5-3.358,7.5-7.5s-3.357-7.5-7.5-7.5H151.79c-4.143,0-7.5,3.358-7.5,7.5v152.307
	c0,61.597,50.113,111.709,111.71,111.709s111.71-50.113,111.71-111.709V7.5C367.71,3.358,364.353,0,360.21,0z"/>
<g>
</g>
<g>
</g>
<g>
</g>
<g>
</g>
<g>
</g>
<g>
</g>
<g>
</g>
<g>
</g>
<g>
</g>
<g>
</g>
<g>
</g>
<g>
</g>
<g>
</g>
<g>
</g>
<g>
</g>
</svg>
