<?xml version="1.0" encoding="iso-8859-1"?>
<!-- Generator: Adobe Illustrator 19.0.0, SVG Export Plug-In . SVG Version: 6.00 Build 0)  -->
<svg version="1.1" id="Capa_1" xmlns="http://www.w3.org/2000/svg" xmlns:xlink="http://www.w3.org/1999/xlink" x="0px" y="0px"
	 viewBox="0 0 512 512" style="enable-background:new 0 0 512 512;" xml:space="preserve">
<path style="fill:#FFE17D;" d="M206.211,9.729L26.935,96.276c-2.248,1.085-3.676,3.361-3.676,5.857v212.961
	c0,2.496,1.428,4.772,3.676,5.857l179.276,86.547c3.573,1.725,7.737,1.725,11.31,0l179.276-86.547
	c2.248-1.085,3.676-3.361,3.676-5.857V102.133c0-2.496-1.428-4.772-3.676-5.857L217.521,9.729
	C213.948,8.005,209.783,8.005,206.211,9.729z"/>
<path style="fill:#FFC350;" d="M24.34,98.573c-0.684,1.041-1.081,2.266-1.081,3.56v212.961c0,2.496,1.429,4.772,3.676,5.857
	l179.276,86.547c1.786,0.862,3.721,1.294,5.655,1.294V189.103L24.34,98.573z"/>
<path style="fill:#FFD164;" d="M399.391,98.573c0.684,1.041,1.081,2.266,1.081,3.56v212.961c0,2.496-1.429,4.772-3.676,5.857
	L217.52,407.498c-1.786,0.862-3.721,1.294-5.655,1.294V189.103L399.391,98.573z"/>
<polygon style="fill:#DBD9DC;" points="335.842,129.147 147.658,38.236 98.051,62.281 286.658,153.332 "/>
<g>
	<path style="fill:#C0BCC1;" d="M286.658,153.332v70.537c0,2.398,2.506,3.971,4.666,2.928l40.842-19.717
		c2.248-1.085,3.676-3.361,3.676-5.857v-72.077L286.658,153.332z"/>
	<path style="fill:#C0BCC1;" d="M290.541,317.986l-9.233,18.466c-0.991,1.982-0.188,4.393,1.795,5.384l78.64,39.32l47.967-47.967
		l-110.596-19.517C295.617,313.054,292.129,314.809,290.541,317.986z"/>
</g>
<path style="fill:#C9C6CA;" d="M443.973,367.451l-47.967,47.967l39.32,78.64c0.991,1.982,3.402,2.786,5.384,1.795l18.466-9.233
	c3.177-1.588,4.932-5.076,4.315-8.573L443.973,367.451z"/>
<path style="fill:#DBD9DC;" d="M366.727,444.697l114.934-114.934c9.461-9.461,9.461-24.801,0-34.262l0,0
	c-9.461-9.461-24.801-9.461-34.262,0L332.464,410.435l-35.181-1.675c-2.589-0.123-5.11,0.851-6.942,2.684l-13.629,13.629
	c-1.969,1.969-1.383,5.296,1.141,6.474l46.202,21.561l21.561,46.202c1.178,2.524,4.505,3.11,6.474,1.141l13.629-13.629
	c1.833-1.833,2.807-4.354,2.684-6.942L366.727,444.697z"/>
<path style="fill:#C9C6CA;" d="M481.661,295.5c-9.461-9.461-24.801-9.461-34.262,0L332.464,410.434l-35.181-1.675
	c-2.589-0.123-5.11,0.851-6.943,2.684l-13.628,13.629c-1.969,1.969-1.383,5.296,1.14,6.474l46.202,21.561L481.661,295.5
	L481.661,295.5z"/>
<path d="M289.132,373.427c-1.8-3.73-6.286-5.294-10.015-3.493l-59.751,28.846V194.311l37.175-17.947
	c3.73-1.801,5.294-6.284,3.493-10.015c-1.8-3.73-6.285-5.294-10.015-3.493l-38.154,18.419L40.51,98.552l57.193-27.61l181.456,87.599
	v72.197c0,2.581,1.327,4.98,3.513,6.353c1.214,0.762,2.599,1.147,3.987,1.147c1.112,0,2.228-0.247,3.261-0.746l45.525-21.978
	c2.592-1.251,4.239-3.875,4.239-6.754v-72.533l53.289-25.725V296.43c0,4.142,3.357,7.5,7.5,7.5s7.5-3.358,7.5-7.5V98.552
	c0-2.878-1.647-5.503-4.239-6.754L215.126,0.746c-2.061-0.995-4.461-0.995-6.521,0L19.998,91.798
	c-2.592,1.251-4.239,3.876-4.239,6.754v221.125c0,2.878,1.647,5.503,4.239,6.754l188.607,91.051c1.03,0.498,2.146,0.746,3.261,0.746
	s2.23-0.249,3.261-0.746l70.512-34.041C289.369,381.641,290.933,377.158,289.132,373.427z M147.664,47.069l171.1,82.6
	l-32.455,15.667L115.274,62.768L147.664,47.069z M324.684,204.052l-30.525,14.737v-60.585l30.525-14.736V204.052z M211.866,15.828
	l171.356,82.724l-47.254,22.812c-0.173-0.102-0.34-0.211-0.523-0.3L164.66,38.617L211.866,15.828z M30.759,110.501l173.607,83.81
	V398.78L30.759,314.97V110.501z"/>
<path d="M86.679,290.287l-27.678-13.362c-3.731-1.802-8.214-0.237-10.015,3.493s-0.237,8.214,3.493,10.015l27.678,13.362
	c1.051,0.507,2.162,0.748,3.255,0.748c2.788,0,5.466-1.562,6.759-4.241C91.973,296.572,90.409,292.088,86.679,290.287z"/>
<path d="M112.151,268.69l-53.113-25.641c-3.732-1.803-8.214-0.237-10.015,3.493s-0.237,8.214,3.493,10.015l53.113,25.641
	c1.051,0.508,2.162,0.748,3.255,0.748c2.788,0,5.466-1.562,6.759-4.241C117.446,274.974,115.881,270.491,112.151,268.69z"/>
<path d="M486.964,290.197c-5.992-5.993-13.96-9.293-22.435-9.293s-16.442,3.3-22.435,9.293l-34.927,34.927l-112.646-19.878
	c-3.271-0.577-6.527,1.063-8.012,4.032l-13.704,27.41c-1.853,3.705-0.351,8.21,3.354,10.062l72.922,36.461l-19.574,19.574
	l-35.933-1.711c-2.114-0.094-4.166,0.695-5.66,2.188l-20.557,20.558c-1.729,1.73-2.507,4.195-2.082,6.604
	c0.424,2.41,1.997,4.46,4.214,5.495l48.922,22.83l22.83,48.922c1.035,2.217,3.086,3.791,5.495,4.215
	c0.435,0.077,0.869,0.114,1.302,0.114c1.972,0,3.885-0.778,5.304-2.197l20.558-20.558c1.494-1.494,2.288-3.549,2.188-5.66
	l-1.711-35.931l19.575-19.575l36.461,72.922c0.89,1.779,2.449,3.132,4.336,3.761c0.772,0.257,1.573,0.385,2.372,0.385
	c1.153,0,2.303-0.266,3.354-0.792l27.409-13.705c2.968-1.484,4.608-4.743,4.031-8.011l-19.878-112.646l34.928-34.928
	C499.334,322.696,499.334,302.567,486.964,290.197z M289.576,336.687l7.848-15.697l96.797,17.081l-33.959,33.959L289.576,336.687z
	 M456.171,479.737l-15.696,7.849L405.131,416.9l33.959-33.959L456.171,479.737z M476.357,324.459L361.423,439.394
	c-1.494,1.494-2.288,3.549-2.188,5.66l1.711,35.932l-10.64,10.64l-19.456-41.69c-0.744-1.597-2.027-2.88-3.624-3.625l-41.69-19.456
	l10.639-10.64l35.933,1.711c2.125,0.1,4.166-0.695,5.66-2.188l114.935-114.934c3.159-3.159,7.359-4.899,11.827-4.899
	s8.669,1.74,11.828,4.899C482.879,307.325,482.879,317.937,476.357,324.459z"/>
<g>
</g>
<g>
</g>
<g>
</g>
<g>
</g>
<g>
</g>
<g>
</g>
<g>
</g>
<g>
</g>
<g>
</g>
<g>
</g>
<g>
</g>
<g>
</g>
<g>
</g>
<g>
</g>
<g>
</g>
</svg>
