<?xml version="1.0" encoding="iso-8859-1"?>
<!-- Generator: Adobe Illustrator 19.0.0, SVG Export Plug-In . SVG Version: 6.00 Build 0)  -->
<svg version="1.1" id="Capa_1" xmlns="http://www.w3.org/2000/svg" xmlns:xlink="http://www.w3.org/1999/xlink" x="0px" y="0px"
	 viewBox="0 0 512.001 512.001" style="enable-background:new 0 0 512.001 512.001;" xml:space="preserve">
<path style="fill:#FFF6D8;" d="M320.129,328.145H47.581c-4.427,0-8.016-3.589-8.016-8.016V111.71c0-4.427,3.589-8.016,8.016-8.016
	h272.548c4.427,0,8.016,3.589,8.016,8.016v208.419C328.145,324.556,324.556,328.145,320.129,328.145z"/>
<circle style="fill:#AEA8AF;" cx="376.24" cy="360.21" r="16.03"/>
<circle style="fill:#F4C1B0;" cx="183.85" cy="215.92" r="64.13"/>
<path d="M39.564,352.709H23.532c-4.705,0-8.532-3.828-8.532-8.532v-16.032c0-4.142-3.358-7.5-7.5-7.5s-7.5,3.358-7.5,7.5v16.032
	c0,12.976,10.557,23.532,23.532,23.532h16.032c4.142,0,7.5-3.358,7.5-7.5C47.064,356.068,43.707,352.709,39.564,352.709z"/>
<path d="M39.564,64.129H23.532C10.557,64.129,0,74.686,0,87.661v16.032c0,4.142,3.358,7.5,7.5,7.5s7.5-3.358,7.5-7.5V87.661
	c0-4.705,3.828-8.532,8.532-8.532h16.032c4.142,0,7.5-3.358,7.5-7.5S43.707,64.129,39.564,64.129z"/>
<path d="M7.5,303.581c4.142,0,7.5-3.358,7.5-7.5v-32.064c0-4.142-3.358-7.5-7.5-7.5s-7.5,3.358-7.5,7.5v32.064
	C0,300.223,3.358,303.581,7.5,303.581z"/>
<path d="M7.5,239.452c4.142,0,7.5-3.358,7.5-7.5v-32.064c0-4.142-3.358-7.5-7.5-7.5s-7.5,3.358-7.5,7.5v32.064
	C0,236.094,3.358,239.452,7.5,239.452z"/>
<path d="M7.5,175.323c4.142,0,7.5-3.358,7.5-7.5v-32.064c0-4.142-3.358-7.5-7.5-7.5s-7.5,3.358-7.5,7.5v32.064
	C0,171.965,3.358,175.323,7.5,175.323z"/>
<path d="M360.209,256.516c-4.142,0-7.5,3.358-7.5,7.5v32.064c0,4.142,3.358,7.5,7.5,7.5s7.5-3.358,7.5-7.5v-32.064
	C367.709,259.874,364.352,256.516,360.209,256.516z"/>
<path d="M367.709,199.887c0-4.142-3.358-7.5-7.5-7.5s-7.5,3.358-7.5,7.5v32.064c0,4.142,3.358,7.5,7.5,7.5s7.5-3.358,7.5-7.5
	V199.887z"/>
<path d="M367.709,135.758c0-4.142-3.358-7.5-7.5-7.5s-7.5,3.358-7.5,7.5v32.064c0,4.142,3.358,7.5,7.5,7.5s7.5-3.358,7.5-7.5
	V135.758z"/>
<path d="M328.145,79.129h16.032c4.705,0,8.532,3.828,8.532,8.532v16.032c0,4.142,3.358,7.5,7.5,7.5s7.5-3.358,7.5-7.5V87.661
	c0-12.976-10.557-23.532-23.532-23.532h-16.032c-4.142,0-7.5,3.358-7.5,7.5S324.003,79.129,328.145,79.129z"/>
<path d="M103.693,64.129H71.629c-4.142,0-7.5,3.358-7.5,7.5s3.358,7.5,7.5,7.5h32.064c4.142,0,7.5-3.358,7.5-7.5
	S107.835,64.129,103.693,64.129z"/>
<path d="M135.758,79.129h32.064c4.142,0,7.5-3.358,7.5-7.5s-3.358-7.5-7.5-7.5h-32.064c-4.142,0-7.5,3.358-7.5,7.5
	S131.616,79.129,135.758,79.129z"/>
<path d="M199.887,79.129h32.064c4.142,0,7.5-3.358,7.5-7.5s-3.358-7.5-7.5-7.5h-32.064c-4.142,0-7.5,3.358-7.5,7.5
	S195.745,79.129,199.887,79.129z"/>
<path d="M264.016,79.129h32.064c4.142,0,7.5-3.358,7.5-7.5s-3.358-7.5-7.5-7.5h-32.064c-4.142,0-7.5,3.358-7.5,7.5
	S259.874,79.129,264.016,79.129z"/>
<path d="M103.693,352.709H71.629c-4.142,0-7.5,3.358-7.5,7.5c0,4.142,3.358,7.5,7.5,7.5h32.064c4.142,0,7.5-3.358,7.5-7.5
	C111.193,356.068,107.835,352.709,103.693,352.709z"/>
<path d="M167.823,352.709h-32.064c-4.142,0-7.5,3.358-7.5,7.5c0,4.142,3.358,7.5,7.5,7.5h32.064c4.142,0,7.5-3.358,7.5-7.5
	C175.323,356.068,171.965,352.709,167.823,352.709z"/>
<path d="M231.952,352.709h-32.064c-4.142,0-7.5,3.358-7.5,7.5c0,4.142,3.358,7.5,7.5,7.5h32.064c4.142,0,7.5-3.358,7.5-7.5
	C239.452,356.068,236.094,352.709,231.952,352.709z"/>
<path d="M303.581,360.209c0-4.142-3.358-7.5-7.5-7.5h-32.064c-4.142,0-7.5,3.358-7.5,7.5c0,4.142,3.358,7.5,7.5,7.5h32.064
	C300.223,367.709,303.581,364.352,303.581,360.209z"/>
<path d="M476.443,376.758h-24.048c-9.199,0-17.593,3.512-23.913,9.265l-29.523-19.682c0.529-1.956,0.815-4.01,0.815-6.131
	c0-2.121-0.287-4.175-0.815-6.131l29.523-19.682c6.32,5.753,14.713,9.265,23.913,9.265h24.048c19.606,0,35.557-15.95,35.557-35.556
	c0-19.606-15.951-35.557-35.557-35.557h-24.048c-19.606,0-35.556,15.951-35.556,35.557c0,5.001,1.043,9.762,2.915,14.083
	l-29.126,19.417c-3.981-3.085-8.971-4.929-14.386-4.929c-5.415,0-10.404,1.843-14.385,4.929l-85.666-57.111
	c-3.446-2.298-8.104-1.367-10.4,2.08c-2.298,3.446-1.367,8.103,2.08,10.4l85.655,57.104c-0.528,1.956-0.815,4.01-0.815,6.131
	c0,2.121,0.287,4.175,0.815,6.131l-85.648,57.099c-3.447,2.297-4.378,6.954-2.08,10.4c1.445,2.168,3.823,3.341,6.247,3.341
	c1.429,0,2.875-0.408,4.153-1.261l85.66-57.106c3.981,3.085,8.971,4.929,14.385,4.929c5.415,0,10.405-1.843,14.386-4.929
	l29.126,19.417c-1.872,4.322-2.915,9.082-2.915,14.083c0,19.606,15.95,35.557,35.556,35.557h24.048
	c19.606,0,35.557-15.951,35.557-35.557S496.049,376.758,476.443,376.758z M452.395,287.548h24.048
	c11.335,0,20.557,9.222,20.557,20.557c0,11.334-9.222,20.556-20.557,20.556h-24.048c-11.334,0-20.556-9.222-20.556-20.556
	C431.839,296.77,441.061,287.548,452.395,287.548z M376.242,368.742c-4.705,0-8.532-3.828-8.532-8.533
	c0-4.705,3.828-8.532,8.532-8.532c4.705,0,8.533,3.828,8.533,8.532C384.774,364.915,380.947,368.742,376.242,368.742z
	 M476.443,432.871h-24.048c-11.334,0-20.556-9.222-20.556-20.557c0-11.335,9.222-20.557,20.556-20.557h24.048
	c11.335,0,20.557,9.222,20.557,20.557C497,423.649,487.778,432.871,476.443,432.871z"/>
<path d="M249.279,161.102c2.929-2.929,2.929-7.678,0-10.606c-2.929-2.929-7.678-2.929-10.606,0L118.431,270.737
	c-2.929,2.929-2.929,7.678,0,10.606c1.464,1.464,3.384,2.197,5.303,2.197s3.839-0.732,5.303-2.197L249.279,161.102z"/>
<path d="M143.774,207.387c17.396,0,31.548-14.152,31.548-31.548s-14.152-31.548-31.548-31.548s-31.549,14.152-31.549,31.548
	S126.378,207.387,143.774,207.387z M143.774,159.291c9.125,0,16.548,7.423,16.548,16.548s-7.423,16.548-16.548,16.548
	s-16.549-7.423-16.549-16.548S134.649,159.291,143.774,159.291z"/>
<path d="M223.936,224.452c-17.396,0-31.548,14.152-31.548,31.548s14.152,31.548,31.548,31.548s31.548-14.152,31.548-31.548
	S241.332,224.452,223.936,224.452z M223.936,272.548c-9.125,0-16.548-7.423-16.548-16.548c0-9.125,7.423-16.548,16.548-16.548
	s16.548,7.423,16.548,16.548C240.484,265.125,233.061,272.548,223.936,272.548z"/>
<g>
</g>
<g>
</g>
<g>
</g>
<g>
</g>
<g>
</g>
<g>
</g>
<g>
</g>
<g>
</g>
<g>
</g>
<g>
</g>
<g>
</g>
<g>
</g>
<g>
</g>
<g>
</g>
<g>
</g>
</svg>
