<?xml version="1.0" encoding="iso-8859-1"?>
<!-- Generator: Adobe Illustrator 19.0.0, SVG Export Plug-In . SVG Version: 6.00 Build 0)  -->
<svg version="1.1" id="Capa_1" xmlns="http://www.w3.org/2000/svg" xmlns:xlink="http://www.w3.org/1999/xlink" x="0px" y="0px"
	 viewBox="0 0 512 512" style="enable-background:new 0 0 512 512;" xml:space="preserve">
<path style="fill:#EDEBED;" d="M128.655,175.456l30.132,108.388c1.929,6.938,8.246,11.738,15.447,11.738h278.227
	c4.008,0,7.4-2.961,7.942-6.932l15.552-114.046c0.525-3.85-2.468-7.279-6.354-7.279H134.834
	C130.592,167.325,127.519,171.369,128.655,175.456z"/>
<g>
	<circle style="fill:#5D5360;" cx="432.356" cy="480.455" r="24.05"/>
	<circle style="fill:#5D5360;" cx="159.809" cy="480.455" r="24.05"/>
</g>
<path style="fill:#E6646E;" d="M56.287,86.977L12.198,42.89c-6.261-6.261-6.261-16.412,0-22.673l0,0
	c6.261-6.261,16.412-6.261,22.673,0l44.089,44.088c6.261,6.261,6.261,16.412,0,22.673l0,0
	C72.698,93.238,62.548,93.238,56.287,86.977z"/>
<path style="fill:#E6646E;" d="M424.337,288.066h-224.45c-4.427,0-8.016-3.589-8.016-8.016V103.697c0-4.427,3.589-8.016,8.016-8.016
	h224.45c4.427,0,8.016,3.589,8.016,8.016V280.05C432.353,284.477,428.764,288.066,424.337,288.066z"/>
<path style="fill:#DC4655;" d="M296.08,264.018c-44.272,0-80.16-35.889-80.16-80.16V95.681h-16.032
	c-4.427,0-8.016,3.589-8.016,8.016V280.05c0,4.427,3.589,8.016,8.016,8.016h224.45c4.427,0,8.016-3.589,8.016-8.016v-16.032
	L296.08,264.018L296.08,264.018z"/>
<path d="M456.402,431.84c4.143,0,7.5-3.358,7.5-7.5c0-4.142-3.357-7.5-7.5-7.5H155.247c-5.58,0-10.575-2.65-13.703-7.271
	c-3.128-4.621-3.734-10.243-1.662-15.423l18.873-47.182c1.539-3.846-0.332-8.211-4.178-9.749c-3.848-1.54-8.211,0.332-9.749,4.178
	l-18.873,47.182c-3.893,9.732-2.708,20.724,3.168,29.404c5.323,7.862,13.839,12.839,23.185,13.71v18.124
	c-13.786,3.375-24.048,15.829-24.048,30.64c0,17.396,14.152,31.548,31.548,31.548s31.548-14.152,31.548-31.548
	c0-14.812-10.262-27.265-24.048-30.64V431.84h257.545v17.973c-13.786,3.375-24.048,15.829-24.048,30.64
	c0,17.396,14.152,31.548,31.548,31.548c17.396,0,31.549-14.152,31.549-31.548c0-14.812-10.262-27.265-24.049-30.64V431.84
	L456.402,431.84L456.402,431.84z M448.902,480.452c0,9.125-7.424,16.548-16.549,16.548s-16.548-7.423-16.548-16.548
	s7.423-16.548,16.548-16.548S448.902,471.327,448.902,480.452z M176.355,480.452c0,9.125-7.423,16.548-16.548,16.548
	s-16.548-7.423-16.548-16.548s7.423-16.548,16.548-16.548S176.355,471.327,176.355,480.452z"/>
<path d="M199.888,295.566h224.45c8.556,0,15.516-6.96,15.516-15.516V103.697c0-8.556-6.96-15.516-15.516-15.516H340.35
	c17.755-10.661,39.669-25.044,47.352-35.242c5.312-7.05,7.56-15.747,6.33-24.489c-1.229-8.741-5.789-16.481-12.84-21.792
	c-14.553-10.965-35.313-8.044-46.281,6.509l0,0c-5.603,7.436-12.382,23.357-20.15,47.322c-0.926,2.857-1.812,5.663-2.648,8.364
	c-0.836-2.701-1.722-5.507-2.648-8.364c-7.769-23.964-14.548-39.886-20.15-47.322l0,0c-5.312-7.05-13.051-11.61-21.793-12.84
	c-8.739-1.229-17.438,1.02-24.489,6.331c-7.051,5.311-11.61,13.051-12.84,21.792c-1.229,8.742,1.019,17.438,6.331,24.489
	c7.683,10.198,29.597,24.581,47.352,35.242h-83.988c-8.556,0-15.516,6.96-15.516,15.516V280.05
	C184.371,288.606,191.332,295.566,199.888,295.566z M346.891,22.194L346.891,22.194c5.988-7.948,17.326-9.542,25.275-3.554
	c3.851,2.901,6.341,7.127,7.012,11.901c0.672,4.773-0.557,9.523-3.457,13.373c-2.55,3.385-10.786,11.502-37.296,27.84
	c-4.968,3.062-9.807,5.933-14.091,8.424C330.516,59.548,339.907,31.465,346.891,22.194z M248.505,43.914
	c-2.901-3.85-4.129-8.6-3.458-13.373c0.671-4.774,3.162-9,7.012-11.901c3.163-2.383,6.931-3.637,10.823-3.637
	c0.846,0,1.698,0.059,2.551,0.179c4.774,0.671,9.001,3.162,11.901,7.012c6.984,9.271,16.376,37.355,22.558,57.984
	c-4.267-2.48-9.081-5.337-14.032-8.388C259.305,55.43,251.057,47.303,248.505,43.914z M199.371,103.697
	c0-0.285,0.231-0.516,0.516-0.516h224.45c0.284,0,0.516,0.231,0.516,0.516V280.05c0,0.285-0.231,0.516-0.516,0.516H199.888
	c-0.285,0-0.516-0.231-0.516-0.516L199.371,103.697L199.371,103.697z"/>
<path d="M510.148,138.846c-1.425-1.631-3.484-2.568-5.65-2.568h-40.081c-4.143,0-7.5,3.358-7.5,7.5s3.357,7.5,7.5,7.5h31.489
	l-19.106,140.108c-1.651,12.112-12.115,21.246-24.339,21.246H174.235c-14.578,0-27.486-9.809-31.39-23.854l-38.226-137.5h55.188
	c4.142,0,7.5-3.358,7.5-7.5s-3.358-7.5-7.5-7.5h-59.358L87.214,88.672c6.081-9.137,5.1-21.619-2.952-29.671L40.175,14.914
	c-4.445-4.445-10.354-6.893-16.64-6.893s-12.195,2.448-16.64,6.892c-4.445,4.445-6.893,10.354-6.893,16.64s2.448,12.195,6.893,16.64
	l44.089,44.089c4.587,4.587,10.613,6.881,16.639,6.881c2.249,0,4.498-0.321,6.673-0.96l54.096,194.592
	c5.703,20.511,24.553,34.836,45.842,34.836h278.227c19.688,0,36.541-14.711,39.202-34.219l20.267-148.622
	C512.221,142.645,511.572,140.478,510.148,138.846z M61.59,81.674L17.501,37.586c-1.612-1.611-2.499-3.754-2.499-6.033
	s0.887-4.421,2.5-6.033c1.611-1.612,3.754-2.499,6.033-2.499s4.421,0.887,6.033,2.499l44.089,44.089
	c3.327,3.327,3.326,8.74,0,12.066C70.329,85.001,64.916,85,61.59,81.674z"/>
<path d="M258.713,245.274c1.465,1.464,3.385,2.197,5.304,2.197c1.919,0,3.839-0.732,5.304-2.197l96.192-96.192
	c2.929-2.929,2.929-7.678,0-10.606c-2.93-2.929-7.678-2.929-10.607,0l-96.192,96.192
	C255.784,237.596,255.784,242.345,258.713,245.274z"/>
<path d="M276.039,183.342c15.187,0,27.541-12.354,27.541-27.541c0-15.186-12.354-27.54-27.541-27.54
	c-15.186,0-27.54,12.354-27.54,27.54C248.5,170.987,260.855,183.342,276.039,183.342z M276.039,143.262
	c6.915,0,12.541,5.625,12.541,12.54c0,6.915-5.626,12.541-12.541,12.541s-12.54-5.625-12.54-12.541
	C263.5,148.888,269.125,143.262,276.039,143.262z"/>
<path d="M348.185,200.406c-15.186,0-27.54,12.354-27.54,27.54c0,15.186,12.354,27.541,27.54,27.541s27.54-12.354,27.54-27.541
	C375.725,212.761,363.37,200.406,348.185,200.406z M348.185,240.487c-6.915,0-12.54-5.625-12.54-12.541
	c0-6.915,5.625-12.54,12.54-12.54s12.54,5.625,12.54,12.54C360.725,234.861,355.1,240.487,348.185,240.487z"/>
<g>
</g>
<g>
</g>
<g>
</g>
<g>
</g>
<g>
</g>
<g>
</g>
<g>
</g>
<g>
</g>
<g>
</g>
<g>
</g>
<g>
</g>
<g>
</g>
<g>
</g>
<g>
</g>
<g>
</g>
</svg>
