<?xml version="1.0" encoding="iso-8859-1"?>
<!-- Generator: Adobe Illustrator 19.0.0, SVG Export Plug-In . SVG Version: 6.00 Build 0)  -->
<svg version="1.1" id="Capa_1" xmlns="http://www.w3.org/2000/svg" xmlns:xlink="http://www.w3.org/1999/xlink" x="0px" y="0px"
	 viewBox="0 0 512 512" style="enable-background:new 0 0 512 512;" xml:space="preserve">
<circle style="fill:#FFF6D8;" cx="256" cy="256" r="200.4"/>
<g>
	<circle style="fill:#F4C1B0;" cx="256" cy="256" r="80.16"/>
</g>
<path d="M487.359,146.279c-1.777-3.742-6.254-5.334-9.992-3.556c-3.742,1.777-5.334,6.251-3.557,9.993
	C489.198,185.107,497,219.857,497,256c0,64.374-25.068,124.894-70.587,170.413C380.895,471.932,320.374,497,256,497
	c-38.177,0-74.687-8.664-108.513-25.751c-28.185-14.238-53.648-34.227-74.324-58.247l29.591,9.864
	c3.929,1.31,8.177-0.814,9.487-4.744s-0.814-8.177-4.744-9.487l-53.25-17.75c-2.466-0.821-5.182-0.309-7.177,1.357
	s-2.986,4.246-2.619,6.819l8.875,62.125c0.535,3.741,3.743,6.44,7.416,6.44c0.353,0,0.71-0.025,1.07-0.076
	c4.101-0.586,6.95-4.385,6.364-8.485l-4.952-34.663c21.699,24.78,48.207,45.438,77.501,60.236C176.667,502.794,215.451,512,256,512
	c68.38,0,132.668-26.629,181.02-74.98C485.371,388.667,512,324.38,512,256C512,217.613,503.71,180.698,487.359,146.279z"/>
<path d="M15,256c0-64.374,25.068-124.894,70.587-170.413S191.626,15,256,15c70.856,0,136.903,30.494,182.816,83.991l-29.569-9.856
	c-3.932-1.312-8.178,0.814-9.487,4.744s0.813,8.177,4.743,9.487l53.25,17.75c0.776,0.258,1.576,0.385,2.371,0.385
	c1.732,0,3.438-0.6,4.807-1.742c1.995-1.666,2.986-4.246,2.619-6.819l-8.875-62.125c-0.586-4.101-4.394-6.948-8.485-6.364
	c-4.101,0.586-6.95,4.385-6.364,8.485l4.947,34.628C400.068,31.76,330.538,0,256,0C187.62,0,123.333,26.629,74.98,74.98
	C26.629,123.333,0,187.62,0,256c0,38.388,8.291,75.304,24.641,109.721c1.284,2.703,3.974,4.284,6.78,4.284
	c1.078,0,2.174-0.234,3.213-0.728c3.741-1.777,5.333-6.251,3.556-9.993C22.802,326.895,15,292.145,15,256z"/>
<path d="M201.03,274.262c20.466-19.324,41.628-39.306,41.628-69.312c0-24.607-22.064-44.627-49.184-44.627
	s-49.184,20.02-49.184,44.627c0,4.142,3.358,7.5,7.5,7.5s7.5-3.358,7.5-7.5c0-16.336,15.334-29.627,34.184-29.627
	s34.184,13.291,34.184,29.627c0,23.54-17.937,40.476-36.926,58.406c-21.769,20.554-46.442,43.851-46.442,80.822
	c0,4.142,3.358,7.5,7.5,7.5h83.368c4.142,0,7.5-3.358,7.5-7.5s-3.358-7.5-7.5-7.5h-75.444
	C162.727,310.428,181.38,292.816,201.03,274.262z"/>
<path d="M344.178,351.677c4.143,0,7.5-3.358,7.5-7.5V303.58h8.532c4.143,0,7.5-3.358,7.5-7.5s-3.357-7.5-7.5-7.5h-8.532V167.823
	c0-4.142-3.357-7.5-7.5-7.5s-7.5,3.358-7.5,7.5v120.758h-63.624l22.382-119.375c0.764-4.071-1.918-7.991-5.989-8.754
	c-4.067-0.759-7.989,1.918-8.753,5.989l-24.048,128.258c-0.411,2.193,0.175,4.455,1.6,6.172c1.425,1.717,3.54,2.71,5.771,2.71
	h72.661v40.597C336.678,348.319,340.035,351.677,344.178,351.677z"/>
<path d="M256,87.145c4.143,0,7.5-3.358,7.5-7.5V47.581c0-4.142-3.357-7.5-7.5-7.5c-4.142,0-7.5,3.358-7.5,7.5v32.064
	C248.5,83.787,251.858,87.145,256,87.145z"/>
<path d="M248.5,464.419c0,4.142,3.358,7.5,7.5,7.5c4.143,0,7.5-3.358,7.5-7.5v-32.064c0-4.142-3.357-7.5-7.5-7.5
	c-4.142,0-7.5,3.358-7.5,7.5V464.419z"/>
<path d="M432.354,248.5c-4.143,0-7.5,3.358-7.5,7.5s3.357,7.5,7.5,7.5h32.064c4.143,0,7.5-3.358,7.5-7.5s-3.357-7.5-7.5-7.5H432.354
	z"/>
<path d="M79.645,263.5c4.142,0,7.5-3.358,7.5-7.5s-3.358-7.5-7.5-7.5H47.581c-4.142,0-7.5,3.358-7.5,7.5s3.358,7.5,7.5,7.5H79.645z"
	/>
<g>
</g>
<g>
</g>
<g>
</g>
<g>
</g>
<g>
</g>
<g>
</g>
<g>
</g>
<g>
</g>
<g>
</g>
<g>
</g>
<g>
</g>
<g>
</g>
<g>
</g>
<g>
</g>
<g>
</g>
</svg>
