<?xml version="1.0" encoding="iso-8859-1"?>
<!-- Generator: Adobe Illustrator 19.0.0, SVG Export Plug-In . SVG Version: 6.00 Build 0)  -->
<svg version="1.1" id="Capa_1" xmlns="http://www.w3.org/2000/svg" xmlns:xlink="http://www.w3.org/1999/xlink" x="0px" y="0px"
	 viewBox="0 0 512 512" style="enable-background:new 0 0 512 512;" xml:space="preserve">
<path style="fill:#E6646E;" d="M488.056,254.526l-55.701-18.567l-34.152-88.794c-3.572-9.287-12.495-15.415-22.445-15.415H15.516
	c-4.427,0-8.016,3.589-8.016,8.016v216.435c0,4.427,3.589,8.016,8.016,8.016h448.903l24.964-9.986
	c9.13-3.652,15.117-12.495,15.117-22.328v-54.562C504.5,266.99,497.876,257.799,488.056,254.526z"/>
<path style="fill:#DC4655;" d="M7.5,300.089v56.113c0,4.427,3.589,8.016,8.016,8.016h448.903l24.964-9.986
	c9.13-3.652,15.117-12.495,15.117-22.328v-31.815H7.5z"/>
<path style="fill:#867E88;" d="M304.097,163.814v56.113c0,8.854,7.178,16.032,16.032,16.032h112.226l-27.748-72.145H304.097z"/>
<path style="fill:#FFC350;" d="M77.884,110.546l84.185,192.422c2.195,5.017,9.313,5.017,11.508,0l84.185-192.422
	c-27.551-12.072-57.933-18.878-89.939-18.878S105.434,98.474,77.884,110.546z"/>
<path style="fill:#FFE17D;" d="M167.823,123.733c-27.429,0-53.435,6.035-76.829,16.778l76.829,175.609l76.829-175.609
	C221.257,129.768,195.252,123.733,167.823,123.733z"/>
<path style="fill:#FFEDB1;" d="M167.823,203.895c-14.381,7.023-21.543,12.024-44.654,10.16l44.654,102.066l44.654-102.066
	C203.394,198.884,189.366,193.373,167.823,203.895z"/>
<path style="fill:#C43F4F;" d="M502.973,340.169h-13.626c-4.139,0-8.218-1.501-11.094-4.478
	c-11.623-12.033-27.839-19.57-45.898-19.57c-18.088,0-34.382,7.514-46.016,19.571c-2.874,2.979-6.955,4.477-11.094,4.477H168.819
	c-4.139,0-8.22-1.499-11.094-4.477c-11.634-12.057-27.928-19.571-46.016-19.571s-34.382,7.514-46.016,19.571
	c-2.874,2.979-6.955,4.477-11.094,4.477H7.5v16.032c0,4.427,3.589,8.016,8.016,8.016h448.903l24.964-9.986
	c0.437-0.175,0.832-0.417,1.254-0.616c-0.006-0.014-0.016-0.026-0.022-0.04C496.419,350.844,500.821,346.023,502.973,340.169z"/>
<g>
	<circle style="fill:#6F6571;" cx="111.71" cy="380.25" r="40.08"/>
	<circle style="fill:#6F6571;" cx="432.36" cy="380.25" r="40.08"/>
	<polygon style="fill:#6F6571;" points="404.607,163.814 304.097,163.814 304.097,187.863 413.857,187.863 	"/>
</g>
<g>
	<circle style="fill:#FF8587;" cx="127.74" cy="179.85" r="16.03"/>
	<circle style="fill:#FF8587;" cx="183.85" cy="235.96" r="16.03"/>
</g>
<path d="M111.709,364.732c-8.556,0-15.516,6.961-15.516,15.517c0,8.556,6.96,15.517,15.516,15.517s15.516-6.961,15.516-15.517
	C127.225,371.693,120.265,364.732,111.709,364.732z"/>
<path d="M432.355,364.732c-8.556,0-15.516,6.961-15.516,15.517c0,8.556,6.96,15.517,15.516,15.517s15.516-6.961,15.516-15.517
	C447.871,371.693,440.911,364.732,432.355,364.732z"/>
<path d="M490.428,247.411l-52.343-17.448l-32.881-85.491c-4.652-12.096-16.485-20.223-29.445-20.223H259.953l4.68-10.697
	c1.66-3.793-0.069-8.214-3.861-9.875c-29.542-12.945-60.815-19.509-92.949-19.509c-32.135,0-63.407,6.563-92.949,19.509
	c-3.792,1.661-5.521,6.082-3.861,9.875l4.68,10.697H15.516C6.96,124.249,0,131.21,0,139.766v216.435
	c0,8.556,6.96,15.517,15.516,15.517H64.91c-0.504,2.77-0.781,5.619-0.781,8.532c0,26.236,21.345,47.581,47.581,47.581
	s47.581-21.345,47.581-47.581c0-2.914-0.277-5.762-0.781-8.532h227.046c-0.504,2.77-0.781,5.619-0.781,8.532
	c0,26.236,21.345,47.581,47.581,47.581s47.581-21.345,47.581-47.581c0-3.706-0.44-7.31-1.245-10.775l15.87-7.935
	C505.317,356.161,512,345.349,512,333.323v-55.982C512,263.739,503.331,251.712,490.428,247.411z M362.82,171.313l19.049,57.146
	h-61.74c-4.705,0-8.532-3.827-8.532-8.532v-48.613h51.223V171.313z M397.68,228.46l-19.049-57.146h20.824l21.979,57.146H397.68z
	 M183.855,244.492c-4.705,0-8.532-3.827-8.532-8.532s3.828-8.532,8.532-8.532s8.532,3.827,8.532,8.532
	S188.56,244.492,183.855,244.492z M201.505,220.421c-4.316-4.896-10.626-7.993-17.65-7.993c-12.976,0-23.532,10.557-23.532,23.532
	s10.557,23.532,23.532,23.532c0.189,0,0.375-0.01,0.563-0.014l-16.595,37.931l-41.15-94.057c0.355,0.016,0.711,0.027,1.069,0.027
	c12.976,0,23.533-10.557,23.533-23.532s-10.557-23.532-23.533-23.532c-7.206,0-13.663,3.259-17.983,8.377l-8.93-20.41
	c21.416-8.553,43.92-12.897,66.994-12.897s45.578,4.344,66.993,12.897L201.505,220.421z M119.209,179.846
	c0-4.705,3.828-8.532,8.532-8.532c4.705,0,8.533,3.827,8.533,8.532s-3.828,8.532-8.533,8.532
	C123.037,188.378,119.209,184.551,119.209,179.846z M167.823,99.168c27.555,0,54.433,5.161,80.013,15.354l-5.273,12.054
	c-0.998,1.046-1.695,2.379-1.957,3.865c-23.257-9.323-47.708-14.057-72.783-14.057c-25.156,0-49.684,4.763-73.009,14.146
	l-7.003-16.007C113.389,104.329,140.268,99.168,167.823,99.168z M111.709,412.831c-17.965,0-32.581-14.616-32.581-32.581
	c0-17.965,14.616-32.581,32.581-32.581s32.581,14.616,32.581,32.581C144.29,398.214,129.675,412.831,111.709,412.831z
	 M432.355,412.831c-17.965,0-32.581-14.616-32.581-32.581c0-17.965,14.616-32.581,32.581-32.581s32.581,14.616,32.581,32.581
	C464.936,398.214,450.32,412.831,432.355,412.831z M487.853,348.123l-14.846,7.423c-8.36-13.707-23.455-22.878-40.651-22.878
	c-17.679,0-33.125,9.699-41.328,24.049h-237.99c-8.203-14.35-23.649-24.049-41.328-24.049s-33.125,9.699-41.328,24.049H15.516
	c-0.285,0-0.516-0.231-0.516-0.517v-48.612h112.742c4.142,0,7.5-3.357,7.5-7.5s-3.358-7.5-7.5-7.5H15V139.766
	c0-0.285,0.231-0.517,0.516-0.517h66.739l78.696,179.877c1.194,2.73,3.892,4.494,6.871,4.494s5.677-1.764,6.871-4.494
	l78.697-179.877h122.368c6.798,0,13.005,4.263,15.445,10.607l2.483,6.457h-89.59c-4.142,0-7.5,3.357-7.5,7.5v56.113
	c0,12.976,10.557,23.532,23.532,23.532h111.009l54.547,18.183c6.768,2.255,11.315,8.563,11.315,15.698v15.248h-8.532
	c-4.142,0-7.5,3.357-7.5,7.5s3.358,7.5,7.5,7.5H497v25.734C497,339.631,493.495,345.302,487.853,348.123z"/>
<path d="M456.403,292.589h-248.5c-4.142,0-7.5,3.357-7.5,7.5s3.358,7.5,7.5,7.5h248.5c4.142,0,7.5-3.357,7.5-7.5
	S460.545,292.589,456.403,292.589z"/>
<path d="M178.552,150.494l-8.016,8.016c-2.929,2.929-2.929,7.678,0,10.606c1.465,1.465,3.384,2.197,5.304,2.197
	c1.919,0,3.839-0.732,5.303-2.196l8.016-8.016c2.929-2.929,2.929-7.678,0-10.606C186.23,147.566,181.481,147.565,178.552,150.494z"
	/>
<path d="M167.903,188.378h-0.08c-4.142,0-7.46,3.357-7.46,7.5s3.398,7.5,7.54,7.5s7.5-3.357,7.5-7.5
	S172.045,188.378,167.903,188.378z"/>
<path d="M199.887,172.346h-0.08c-4.142,0-7.46,3.357-7.46,7.5s3.398,7.5,7.54,7.5s7.5-3.357,7.5-7.5
	S204.029,172.346,199.887,172.346z"/>
<g>
</g>
<g>
</g>
<g>
</g>
<g>
</g>
<g>
</g>
<g>
</g>
<g>
</g>
<g>
</g>
<g>
</g>
<g>
</g>
<g>
</g>
<g>
</g>
<g>
</g>
<g>
</g>
<g>
</g>
</svg>
