<?xml version="1.0" encoding="iso-8859-1"?>
<!-- Generator: Adobe Illustrator 19.0.0, SVG Export Plug-In . SVG Version: 6.00 Build 0)  -->
<svg version="1.1" id="Capa_1" xmlns="http://www.w3.org/2000/svg" xmlns:xlink="http://www.w3.org/1999/xlink" x="0px" y="0px"
	 viewBox="0 0 512 512" style="enable-background:new 0 0 512 512;" xml:space="preserve">
<path style="fill:#FFE17D;" d="M488.056,262.543l-55.701-18.567l-34.152-88.794c-3.572-9.287-12.495-15.415-22.445-15.415H15.516
	c-4.427,0-8.016,3.589-8.016,8.016v216.435c0,4.427,3.589,8.016,8.016,8.016h448.903l24.964-9.986
	c9.13-3.652,15.117-12.495,15.117-22.328v-54.562C504.5,275.006,497.876,265.816,488.056,262.543z"/>
<path style="fill:#FFD164;" d="M7.5,308.105v56.113c0,4.427,3.589,8.016,8.016,8.016h448.903l24.964-9.986
	c9.13-3.652,15.117-12.495,15.117-22.328v-31.815H7.5z"/>
<path style="fill:#867E88;" d="M304.097,171.831v56.113c0,8.854,7.178,16.032,16.032,16.032h112.226l-27.748-72.145H304.097z"/>
<path style="fill:#FFC350;" d="M502.973,348.185h-13.626c-4.139,0-8.218-1.501-11.094-4.478
	c-11.623-12.033-27.839-19.57-45.898-19.57c-18.088,0-34.382,7.514-46.016,19.571c-2.874,2.979-6.955,4.477-11.094,4.477H168.819
	c-4.139,0-8.22-1.499-11.094-4.477c-11.634-12.057-27.928-19.571-46.016-19.571s-34.382,7.514-46.016,19.571
	c-2.874,2.979-6.955,4.477-11.094,4.477H7.5v16.032c0,4.427,3.589,8.016,8.016,8.016h448.903l24.964-9.986
	c0.437-0.175,0.832-0.417,1.254-0.616c-0.006-0.014-0.016-0.026-0.022-0.04C496.419,358.861,500.821,354.04,502.973,348.185z"/>
<g>
	<circle style="fill:#6F6571;" cx="111.71" cy="388.27" r="40.08"/>
	<circle style="fill:#6F6571;" cx="432.36" cy="388.27" r="40.08"/>
	<polygon style="fill:#6F6571;" points="404.607,171.831 304.097,171.831 304.097,195.879 413.857,195.879 	"/>
</g>
<path style="fill:#E6646E;" d="M239.24,308.105H96.405c-4.701,0-8.393-4.027-7.986-8.711l14.638-168.339
	c0.36-4.142,3.828-7.322,7.986-7.322h113.559c4.158,0,7.626,3.179,7.986,7.322l14.638,168.339
	C247.634,304.078,243.942,308.105,239.24,308.105z"/>
<path style="fill:#DC4655;" d="M180.203,284.056c-32.909,0-58.753-28.189-55.902-60.974l8.639-99.349h-21.897
	c-4.158,0-7.626,3.179-7.986,7.322L88.419,299.394c-0.407,4.684,3.285,8.711,7.986,8.711H239.24c4.701,0,8.394-4.027,7.986-8.711
	l-1.334-15.337h-65.689V284.056z"/>
<path d="M111.709,372.75c-8.556,0-15.516,6.961-15.516,15.517s6.96,15.516,15.516,15.516s15.516-6.96,15.516-15.516
	S120.265,372.75,111.709,372.75z"/>
<path d="M432.355,372.75c-8.556,0-15.516,6.961-15.516,15.517s6.96,15.516,15.516,15.516s15.516-6.96,15.516-15.516
	S440.911,372.75,432.355,372.75z"/>
<path d="M490.428,255.427l-52.343-17.448l-32.881-85.49c-4.652-12.096-16.485-20.223-29.445-20.223H240.222l-0.162-1.861
	c-0.703-8.079-7.348-14.172-15.458-14.172h-25.231v-8.532c0-17.396-14.152-31.548-31.548-31.548s-31.548,14.152-31.548,31.548v8.532
	h-25.231c-8.11,0-14.755,6.093-15.458,14.173l-0.162,1.86H15.516C6.96,132.267,0,139.227,0,147.781v216.436
	c0,8.556,6.96,15.516,15.516,15.516H64.91c-0.504,2.771-0.781,5.619-0.781,8.533c0,26.235,21.345,47.58,47.581,47.58
	s47.581-21.345,47.581-47.58c0-2.914-0.277-5.763-0.781-8.533h227.047c-0.504,2.771-0.781,5.619-0.781,8.533
	c0,26.235,21.345,47.58,47.581,47.58s47.581-21.345,47.581-47.58c0-3.707-0.44-7.31-1.246-10.775l15.871-7.935
	C505.318,364.178,512,353.365,512,341.339v-55.981C512,271.757,503.331,259.729,490.428,255.427z M362.82,179.331l19.049,57.145
	h-61.74c-4.705,0-8.532-3.827-8.532-8.532v-48.612h51.223V179.331z M397.68,236.475l-19.049-57.145h20.824l21.979,57.145H397.68z
	 M151.274,107.701c0-9.124,7.423-16.548,16.548-16.548s16.548,7.424,16.548,16.548v8.532h-33.097L151.274,107.701L151.274,107.701z
	 M111.043,131.233h25.231v16.549c0,4.143,3.358,7.5,7.5,7.5s7.5-3.357,7.5-7.5v-16.549h33.097v16.549c0,4.143,3.358,7.5,7.5,7.5
	s7.5-3.357,7.5-7.5v-16.549h25.231c0.27,0,0.491,0.203,0.515,0.472l14.638,168.339c0.005,0.063,0.02,0.227-0.134,0.394
	s-0.319,0.167-0.381,0.167H96.405c-0.062,0-0.228,0-0.381-0.167s-0.139-0.331-0.133-0.394l14.638-168.338
	C110.552,131.436,110.773,131.233,111.043,131.233z M111.709,420.846c-17.965,0-32.581-14.615-32.581-32.58
	s14.616-32.581,32.581-32.581s32.581,14.616,32.581,32.581S129.675,420.846,111.709,420.846z M432.355,420.846
	c-17.965,0-32.581-14.615-32.581-32.58s14.616-32.581,32.581-32.581s32.581,14.616,32.581,32.581S450.32,420.846,432.355,420.846z
	 M487.853,356.141l-14.847,7.423c-8.36-13.707-23.454-22.878-40.651-22.878c-17.678,0-33.125,9.699-41.327,24.048h-237.99
	c-8.203-14.349-23.649-24.048-41.328-24.048c-17.678,0-33.125,9.699-41.327,24.048H15.516c-0.285,0-0.516-0.231-0.516-0.516v-48.613
	h40.597c4.142,0,7.5-3.357,7.5-7.5s-3.358-7.5-7.5-7.5H15V147.781c0-0.284,0.231-0.516,0.516-0.516h78.603L80.947,298.743
	c-0.376,4.32,1.089,8.632,4.02,11.829c2.931,3.197,7.1,5.031,11.438,5.031H239.24c4.337,0,8.506-1.834,11.438-5.03
	c2.931-3.197,4.396-7.509,4.021-11.829l-13.172-151.479h134.232c6.798,0,13.005,4.263,15.445,10.607l2.484,6.457h-89.59
	c-4.142,0-7.5,3.357-7.5,7.5v56.112c0,12.976,10.557,23.532,23.532,23.532h111.009l54.547,18.183
	c6.768,2.256,11.315,8.565,11.315,15.699v15.247h-8.532c-4.142,0-7.5,3.357-7.5,7.5s3.358,7.5,7.5,7.5H497v25.734
	C497,347.647,493.495,353.318,487.853,356.141z"/>
<path d="M456.403,300.604H280.048c-4.142,0-7.5,3.357-7.5,7.5s3.358,7.5,7.5,7.5h176.355c4.142,0,7.5-3.357,7.5-7.5
	S460.545,300.604,456.403,300.604z"/>
<g>
</g>
<g>
</g>
<g>
</g>
<g>
</g>
<g>
</g>
<g>
</g>
<g>
</g>
<g>
</g>
<g>
</g>
<g>
</g>
<g>
</g>
<g>
</g>
<g>
</g>
<g>
</g>
<g>
</g>
</svg>
