<?xml version="1.0" encoding="iso-8859-1"?>
<!-- Generator: Adobe Illustrator 19.0.0, SVG Export Plug-In . SVG Version: 6.00 Build 0)  -->
<svg version="1.1" id="Capa_1" xmlns="http://www.w3.org/2000/svg" xmlns:xlink="http://www.w3.org/1999/xlink" x="0px" y="0px"
	 viewBox="0 0 512 512" style="enable-background:new 0 0 512 512;" xml:space="preserve">
<path style="fill:#FFE17D;" d="M372.314,365.191l-96.078-55.318c-9.322-5.367-21.086-3.812-28.692,3.795l-24.861,24.861
	c-7.605,7.605-19.692,8.21-28.062,1.454c-14.625-11.805-29.237-24.917-43.527-39.207c-14.289-14.289-27.402-28.903-39.207-43.527
	c-6.756-8.369-6.151-20.457,1.454-28.062l24.861-24.861c7.606-7.606,9.162-19.369,3.795-28.692l-55.32-96.079
	c-7.811-13.566-26.37-16.021-37.439-4.952L20.724,103.12c-37.161,37.161,6.144,140.718,96.726,231.3s194.138,133.887,231.3,96.726
	l28.516-28.516C388.335,391.561,385.88,373.002,372.314,365.191z"/>
<path style="fill:#FFD164;" d="M137.493,314.377C46.912,223.795,3.607,120.238,40.769,83.077L20.725,103.12
	c-37.161,37.161,6.143,140.718,96.725,231.3s194.138,133.887,231.3,96.725l20.043-20.043
	C331.632,448.263,228.075,404.958,137.493,314.377z"/>
<path d="M376.056,358.691l-96.078-55.319c-12.239-7.046-27.757-4.991-37.74,4.992l-24.861,24.86
	c-4.887,4.887-12.645,5.282-18.046,0.922c-14.667-11.84-29.112-24.852-42.934-38.674c-13.826-13.827-26.839-28.274-38.675-42.935
	c-4.361-5.401-3.964-13.159,0.922-18.045l24.861-24.861c9.984-9.984,12.037-25.502,4.992-37.739L93.18,75.814
	c-4.897-8.505-13.285-14.121-23.014-15.408c-9.732-1.289-19.289,1.954-26.23,8.895L15.421,97.817
	c-40.705,40.705,1.781,146.964,96.725,241.909c70.564,70.564,147.368,112.152,198.875,112.145
	c17.795-0.002,32.582-4.969,43.033-15.421l28.515-28.516c6.939-6.939,10.183-16.499,8.896-26.229
	C390.177,371.977,384.561,363.588,376.056,358.691z M343.445,425.841c-15.452,15.453-47.316,14.695-87.418-2.074
	c-42.806-17.901-90.138-51.515-133.272-94.65c-43.135-43.134-76.749-90.465-94.65-133.272
	c-16.771-40.104-17.527-71.967-2.075-87.418l14.645-14.645l5.198,9.028c1.388,2.411,3.912,3.76,6.507,3.76
	c1.27,0,2.557-0.322,3.736-1.001c3.591-2.067,4.825-6.653,2.757-10.244l-7.213-12.528l2.886-2.886
	c3.093-3.094,7.184-4.774,11.475-4.774c0.721,0,1.449,0.047,2.178,0.144c5.065,0.67,9.432,3.594,11.981,8.021l55.319,96.079
	c3.668,6.369,2.598,14.448-2.598,19.644l-9.088,9.088l-48.908-84.945c-2.067-3.592-6.655-4.826-10.244-2.758
	c-3.591,2.067-4.825,6.653-2.757,10.244l50.923,88.445l-4.788,4.788c-10.324,10.323-11.178,26.693-1.987,38.078
	c12.169,15.074,25.539,29.918,39.74,44.12c14.196,14.195,29.04,27.567,44.119,39.739c11.385,9.19,27.755,8.335,38.078-1.986
	l3.457-3.457l18.518,10.57c1.173,0.67,2.45,0.987,3.712,0.987c2.604,0,5.138-1.359,6.521-3.784
	c2.054-3.599,0.802-8.179-2.796-10.233l-14.959-8.538l10.408-10.408c5.199-5.198,13.276-6.266,19.645-2.598l96.078,55.319
	c4.428,2.549,7.351,6.915,8.021,11.981c0.67,5.064-1.018,10.04-4.631,13.651l-3.805,3.805l-82.259-46.947
	c-3.596-2.053-8.178-0.801-10.233,2.796c-2.054,3.599-0.802,8.18,2.796,10.233l78.699,44.915L343.445,425.841z"/>
<path d="M168.279,260.055c0,4.144,3.359,7.501,7.501,7.501h64.14c4.143,0,7.501-3.358,7.501-7.501c0-4.144-3.359-7.501-7.501-7.501
	h-56.197c2.636-21.923,16.667-36.797,31.435-52.453c15.861-16.815,32.263-34.202,32.263-60.308
	c0-21.819-17.752-39.571-39.571-39.571s-39.571,17.752-39.571,39.571c0,4.144,3.359,7.501,7.501,7.501
	c4.143,0,7.501-3.358,7.501-7.501c0-13.547,11.022-24.568,24.568-24.568c13.546,0,24.568,11.022,24.568,24.569
	c0,20.146-13.056,33.986-28.173,50.013C187.387,207.677,168.279,227.933,168.279,260.055z"/>
<path d="M263.973,227.469h48.62v32.586c0,4.144,3.358,7.501,7.501,7.501c4.144,0,7.501-3.358,7.501-7.501v-32.586h8.534
	c4.144,0,7.501-3.358,7.501-7.501s-3.358-7.501-7.501-7.501h-8.534V107.722c0-4.144-3.358-7.501-7.501-7.501
	c-4.144,0-7.501,3.358-7.501,7.501v104.744h-39.972l14.813-103.684c0.586-4.102-2.264-7.9-6.365-8.486
	c-4.092-0.576-7.9,2.265-8.486,6.365l-16.036,112.247c-0.307,2.152,0.334,4.333,1.759,5.976
	C259.732,226.526,261.799,227.469,263.973,227.469z"/>
<path d="M510.549,103.287c-1.413-1.928-3.661-3.067-6.051-3.067h-56.123c-4.144,0-7.501,3.358-7.501,7.501s3.358,7.501,7.501,7.501
	h45.888L449.24,257.796c-1.247,3.951,0.944,8.164,4.895,9.413c0.752,0.237,1.513,0.35,2.261,0.35c3.186,0,6.141-2.045,7.151-5.244
	l48.105-152.333C512.371,107.701,511.961,105.216,510.549,103.287z"/>
<path d="M418.328,76.446c-3.995-1.113-8.129,1.212-9.247,5.201L352.96,282.085c-1.116,3.99,1.212,8.129,5.201,9.247
	c0.677,0.188,1.357,0.279,2.026,0.279c3.28,0,6.292-2.167,7.22-5.48l56.122-200.438C424.645,81.703,422.317,77.563,418.328,76.446z"
	/>
<g>
</g>
<g>
</g>
<g>
</g>
<g>
</g>
<g>
</g>
<g>
</g>
<g>
</g>
<g>
</g>
<g>
</g>
<g>
</g>
<g>
</g>
<g>
</g>
<g>
</g>
<g>
</g>
<g>
</g>
</svg>
