<?xml version="1.0" encoding="iso-8859-1"?>
<!-- Generator: Adobe Illustrator 19.0.0, SVG Export Plug-In . SVG Version: 6.00 Build 0)  -->
<svg version="1.1" id="Capa_1" xmlns="http://www.w3.org/2000/svg" xmlns:xlink="http://www.w3.org/1999/xlink" x="0px" y="0px"
	 viewBox="0 0 512 512" style="enable-background:new 0 0 512 512;" xml:space="preserve">
<polygon style="fill:#AEA8AF;" points="226.942,265.018 178.845,313.115 199.887,332.153 245.98,286.06 "/>
<path style="fill:#9C969E;" d="M204.206,287.753c6.159,7.182,12.858,13.88,20.04,20.04l21.733-21.733l-19.038-21.042
	L204.206,287.753z"/>
<path style="fill:#DC4655;" d="M14.544,497.456L14.544,497.456c-9.392-9.392-9.392-24.618,0-34.01l158.711-158.711
	c3.13-3.13,8.206-3.13,11.337,0l22.673,22.673c3.13,3.13,3.13,8.206,0,11.337L48.553,497.456
	C39.162,506.848,23.935,506.848,14.544,497.456z"/>
<path style="fill:#E6646E;" d="M207.264,327.408l-12.309-12.309L44.899,465.156c-9.391,9.391-9.391,24.618,0,34.01
	c0.243,0.243,0.53,0.408,0.781,0.638c0.99-0.724,1.98-1.453,2.873-2.347l158.711-158.711
	C210.395,335.614,210.395,330.539,207.264,327.408z"/>
<path style="fill:#AEA8AF;" d="M184.591,304.735c-3.13-3.13-8.206-3.13-11.336,0l-22.437,22.437l34.01,34.009l22.437-22.437
	c3.131-3.131,3.131-8.206,0-11.337L184.591,304.735z"/>
<path style="fill:#C9C6CA;" d="M207.264,327.408l-12.309-12.309l-28.105,28.105l17.978,17.977l22.437-22.437
	C210.395,335.614,210.395,330.539,207.264,327.408z"/>
<circle style="fill:#DBD9DC;" cx="344.18" cy="167.82" r="160.32"/>
<circle style="fill:#FFFFFF;" cx="344.18" cy="167.82" r="120.24"/>
<path style="fill:#EDEBED;" d="M380.961,200.995c-34.155-8.518-61.438-35.801-69.955-69.955c-3.387-13.58-3.662-26.712-1.581-39.049
	c1.105-6.548-5.907-11.526-11.719-8.314c-32.888,18.176-54.018,54.992-48.981,96.248c5.265,43.125,40.225,78.086,83.35,83.352
	c41.257,5.038,78.074-16.093,96.25-48.981c3.212-5.812-1.766-12.824-8.314-11.719C407.673,204.657,394.541,204.381,380.961,200.995z
	"/>
<path style="fill:#E6646E;" d="M400.29,231.952H289.035c-4.612,0-8.273-3.883-8.002-8.487l7.073-120.242
	c0.249-4.237,3.758-7.545,8.002-7.545h97.109c4.244,0,7.753,3.308,8.002,7.545l7.073,120.242
	C408.563,228.069,404.902,231.952,400.29,231.952z"/>
<path style="fill:#DC4655;" d="M363.122,207.903c-27.674,0-49.639-23.295-48.014-50.921l3.606-61.305h-22.606
	c-4.244,0-7.753,3.308-8.002,7.546l-7.073,120.242c-0.271,4.604,3.39,8.487,8.002,8.487H400.29c4.612,0,8.273-3.883,8.002-8.487
	l-0.915-15.562H363.122z"/>
<path d="M344.178,0C251.64,0,176.354,75.285,176.354,167.822c0,38.474,13.022,73.958,34.879,102.297l-26.088,26.088
	c-5.682-2.482-12.553-1.414-17.195,3.225L9.241,458.144C3.282,464.102,0,472.024,0,480.451s3.282,16.35,9.24,22.309
	c5.959,5.958,13.882,9.24,22.309,9.24s16.35-3.282,22.308-9.24l158.712-158.712c4.641-4.642,5.706-11.512,3.225-17.194
	l26.087-26.087c28.339,21.857,63.823,34.879,102.297,34.879C436.715,335.646,512,260.36,512,167.822C512,75.285,436.715,0,344.178,0
	z M43.249,492.153c-3.125,3.125-7.28,4.847-11.7,4.847s-8.576-1.722-11.701-4.848C16.722,489.027,15,484.871,15,480.451
	c0-4.42,1.722-8.575,4.848-11.7L150.817,337.78l23.403,23.403L43.249,492.153z M201.961,333.441l-17.134,17.134l-23.403-23.403
	l17.133-17.133c0.101-0.101,0.233-0.151,0.366-0.151c0.132,0,0.265,0.051,0.364,0.151l22.673,22.672
	C202.162,332.912,202.162,333.241,201.961,333.441z M205.948,315.484l-9.433-9.432l24.433-24.433
	c3.019,3.267,6.166,6.414,9.433,9.433L205.948,315.484z M344.178,320.646c-84.267,0-152.823-68.557-152.823-152.823
	S259.911,15,344.178,15S497,83.556,497,167.822S428.444,320.646,344.178,320.646z"/>
<path d="M403.795,54.818c-3.661-1.937-8.201-0.536-10.136,3.126c-1.936,3.662-0.536,8.2,3.126,10.136
	c37.092,19.606,60.134,57.825,60.134,99.742c0,62.166-50.575,112.742-112.741,112.742s-112.742-50.576-112.742-112.742
	c0-41.917,23.042-80.136,60.135-99.742c3.662-1.936,5.062-6.474,3.126-10.136c-1.937-3.662-6.475-5.063-10.136-3.126
	c-42.021,22.212-68.125,65.513-68.125,113.004c0,70.438,57.305,127.742,127.742,127.742s127.741-57.305,127.741-127.742
	C471.919,120.33,445.815,77.03,403.795,54.818z"/>
<path d="M280.134,102.782l-7.073,120.241c-0.25,4.248,1.28,8.459,4.199,11.556c2.919,3.096,7.034,4.872,11.29,4.872h111.255
	c4.255,0,8.37-1.775,11.289-4.871c2.92-3.096,4.45-7.308,4.201-11.556l-7.073-120.242c-0.481-8.189-7.285-14.604-15.49-14.604
	h-17.006V71.629c0-17.396-14.152-31.548-31.548-31.548s-31.549,14.152-31.549,31.548v16.549h-17.006
	C287.419,88.178,280.615,94.593,280.134,102.782z M327.629,71.629c0-9.124,7.424-16.548,16.549-16.548s16.548,7.424,16.548,16.548
	v16.549h-33.097L327.629,71.629L327.629,71.629z M320.129,119.21c4.143,0,7.5-3.357,7.5-7.5v-8.532h33.097v8.532
	c0,4.143,3.357,7.5,7.5,7.5s7.5-3.357,7.5-7.5v-8.532h17.006c0.273,0,0.5,0.213,0.516,0.485l7.073,120.241
	c0.004,0.062,0.014,0.223-0.14,0.385c-0.152,0.162-0.314,0.162-0.376,0.162H288.55c-0.061,0-0.223,0-0.376-0.162
	c-0.152-0.161-0.143-0.322-0.139-0.384l7.073-120.242c0.016-0.272,0.242-0.485,0.515-0.485h17.006v8.532
	C312.629,115.853,315.986,119.21,320.129,119.21z"/>
<g>
</g>
<g>
</g>
<g>
</g>
<g>
</g>
<g>
</g>
<g>
</g>
<g>
</g>
<g>
</g>
<g>
</g>
<g>
</g>
<g>
</g>
<g>
</g>
<g>
</g>
<g>
</g>
<g>
</g>
</svg>
