<?xml version="1.0" encoding="iso-8859-1"?>
<!-- Generator: Adobe Illustrator 19.0.0, SVG Export Plug-In . SVG Version: 6.00 Build 0)  -->
<svg version="1.1" id="Capa_1" xmlns="http://www.w3.org/2000/svg" xmlns:xlink="http://www.w3.org/1999/xlink" x="0px" y="0px"
	 viewBox="0 0 512 512" style="enable-background:new 0 0 512 512;" xml:space="preserve">
<path style="fill:#FFE17D;" d="M287.654,344.177c0-30.991,25.123-56.113,56.113-56.113c0.814,0,1.606,0.088,2.411,0.122
	l-9.666-193.31c-0.427-8.532-7.468-15.231-16.013-15.231H110.518c-8.545,0-15.586,6.699-16.013,15.231L80.076,383.457
	c-0.458,9.158,6.844,16.833,16.013,16.833h238.84c1.02,0,2.006-0.128,2.971-0.31C309.669,397.046,287.654,373.185,287.654,344.177z"
	/>
<path style="fill:#FFD164;" d="M293.126,368.226h-63.029c-64.181,0-115.291-53.729-112.085-117.83l8.537-170.75h-16.03
	c-8.545,0-15.586,6.699-16.013,15.232l-14.429,288.58c-0.458,9.158,6.844,16.833,16.013,16.833h238.84
	c1.02,0,2.006-0.128,2.971-0.31C318.057,397.918,301.34,385.488,293.126,368.226z"/>
<g>
	<path style="fill:#E6646E;" d="M339.503,256.1c-52.115,2.455-90.344,51.53-82.831,103.16
		c8.144,55.967,59.757,86.966,69.484,130.933c1.841,8.321,9.092,14.307,17.615,14.307c8.456,0,15.765-5.874,17.572-14.134
		c10.459-47.858,70.603-80.317,70.603-146.189C431.944,294.064,390.141,253.716,339.503,256.1z M343.767,400.29
		c-30.99,0-56.113-25.123-56.113-56.113c0-30.991,25.123-56.113,56.113-56.113s56.113,25.122,56.113,56.113
		S374.757,400.29,343.767,400.29z"/>
	<circle style="fill:#E6646E;" cx="159.4" cy="119.73" r="16.03"/>
	<circle style="fill:#E6646E;" cx="271.62" cy="119.73" r="16.03"/>
</g>
<path style="fill:#DC4655;" d="M315.436,392.555c-16.603-9.745-27.781-27.735-27.781-48.378c0-22.989,13.838-42.721,33.627-51.393
	c11.352-15.753,27.527-27.831,46.65-33.38c-8.981-2.556-18.526-3.771-28.428-3.304c-52.115,2.455-90.344,51.53-82.831,103.16
	c8.144,55.967,59.757,86.966,69.484,130.933c1.841,8.321,9.092,14.307,17.615,14.307c8.456,0,15.765-5.874,17.572-14.134
	c1.37-6.27,3.628-12.268,6.456-18.119C355.062,445.911,330.193,422.64,315.436,392.555z"/>
<path d="M248.09,119.726c0,12.976,10.557,23.532,23.532,23.532s23.532-10.557,23.532-23.532c0-10.353-6.724-19.16-16.032-22.3
	v-10.28H320.5c4.552,0,8.295,3.561,8.522,8.105l6.452,129.058c0.207,4.137,3.731,7.317,7.864,7.116
	c4.138-0.206,7.323-3.728,7.116-7.864l-6.452-129.059c-0.627-12.536-10.95-22.356-23.503-22.356h-41.378v-8.532
	C279.122,28.537,250.585,0,215.509,0s-63.613,28.537-63.613,63.613v8.532h-41.378c-12.553,0-22.876,9.82-23.503,22.356
	l-14.429,288.58c-0.325,6.501,1.966,12.679,6.452,17.395s10.541,7.313,17.051,7.313h135.448c4.143,0,7.5-3.357,7.5-7.5
	s-3.357-7.5-7.5-7.5H96.089c-2.36,0-4.556-0.941-6.183-2.651s-2.457-3.95-2.34-6.308l14.429-288.579
	c0.228-4.546,3.971-8.106,8.522-8.106h41.378v10.281c-9.308,3.139-16.032,11.946-16.032,22.3c0,12.976,10.557,23.532,23.532,23.532
	s23.532-10.557,23.532-23.532c0-10.353-6.724-19.16-16.032-22.3v-10.28h97.227v10.281
	C254.814,100.565,248.09,109.372,248.09,119.726z M159.396,128.258c-4.705,0-8.532-3.827-8.532-8.532s3.827-8.532,8.532-8.532
	s8.532,3.827,8.532,8.532S164.101,128.258,159.396,128.258z M166.896,72.146v-8.532c0-26.806,21.808-48.613,48.613-48.613
	s48.613,21.808,48.613,48.613v8.532H166.896z M271.622,128.258c-4.705,0-8.532-3.827-8.532-8.532s3.827-8.532,8.532-8.532
	s8.532,3.827,8.532,8.532S276.327,128.258,271.622,128.258z"/>
<path d="M409.802,274.941c-19.104-18.227-44.186-27.568-70.651-26.333c-26.605,1.253-50.819,13.537-68.182,34.591
	c-17.796,21.578-25.712,49.695-21.719,77.141c4.729,32.495,23.368,57.219,39.814,79.031c13.222,17.537,25.711,34.103,29.768,52.442
	C321.462,503.699,331.716,512,343.77,512c11.89,0,22.361-8.425,24.898-20.032c4.021-18.403,16.544-35.013,29.802-52.597
	c19.206-25.475,40.975-54.347,40.975-95.193C439.444,317.767,428.917,293.178,409.802,274.941z M386.492,430.341
	c-14.273,18.933-27.756,36.814-32.479,58.424c-1.06,4.849-5.272,8.235-10.244,8.235c-4.962,0-9.193-3.465-10.291-8.427
	c-4.763-21.525-18.205-39.355-32.437-58.232c-16.112-21.37-32.772-43.468-36.948-72.161c-3.386-23.266,3.338-47.117,18.447-65.438
	c14.636-17.746,34.99-28.099,57.314-29.15c22.313-1.037,43.483,6.834,59.592,22.203c16.119,15.378,24.997,36.112,24.997,58.383
	C424.444,380.003,405.151,405.593,386.492,430.341z"/>
<path d="M343.767,280.564c-35.076,0-63.612,28.537-63.612,63.613s28.536,63.612,63.612,63.612s63.613-28.536,63.613-63.612
	S378.843,280.564,343.767,280.564z M343.767,392.79c-26.805,0-48.612-21.808-48.612-48.612c0-26.806,21.808-48.613,48.612-48.613
	c26.806,0,48.613,21.808,48.613,48.613C392.38,370.982,370.572,392.79,343.767,392.79z"/>
<g>
</g>
<g>
</g>
<g>
</g>
<g>
</g>
<g>
</g>
<g>
</g>
<g>
</g>
<g>
</g>
<g>
</g>
<g>
</g>
<g>
</g>
<g>
</g>
<g>
</g>
<g>
</g>
<g>
</g>
</svg>
