<?xml version="1.0" encoding="iso-8859-1"?>
<!-- Generator: Adobe Illustrator 19.0.0, SVG Export Plug-In . SVG Version: 6.00 Build 0)  -->
<svg version="1.1" id="Capa_1" xmlns="http://www.w3.org/2000/svg" xmlns:xlink="http://www.w3.org/1999/xlink" x="0px" y="0px"
	 viewBox="0 0 511.999 511.999" style="enable-background:new 0 0 511.999 511.999;" xml:space="preserve">
<path style="fill:#DBD9DC;" d="M480.452,47.581H31.548C18.267,47.581,7.5,58.347,7.5,71.629v40.081h497V71.629
	C504.5,58.347,493.733,47.581,480.452,47.581z"/>
<path style="fill:#FFFFFF;" d="M480.452,464.419H31.548c-13.282,0-24.048-10.767-24.048-24.048V111.71h497v328.661
	C504.5,453.653,493.733,464.419,480.452,464.419z"/>
<rect x="63.61" y="223.94" style="fill:#FFEDB1;" width="192.39" height="128.26"/>
<g>
	<rect x="95.68" y="223.94" style="fill:#FFFFFF;" width="48.1" height="88.18"/>
	<rect x="175.84" y="223.94" style="fill:#FFFFFF;" width="48.1" height="88.18"/>
</g>
<path style="fill:#E6646E;" d="M448.387,199.887H320.129c-4.427,0-8.016-3.589-8.016-8.016v-24.048c0-4.427,3.589-8.016,8.016-8.016
	h128.258c4.427,0,8.016,3.589,8.016,8.016v24.048C456.403,196.298,452.814,199.887,448.387,199.887z"/>
<path style="fill:#FFE17D;" d="M416.323,264.016h-96.194c-4.427,0-8.016-3.589-8.016-8.016v-16.032c0-4.427,3.589-8.016,8.016-8.016
	h96.194c4.427,0,8.016,3.589,8.016,8.016V256C424.339,260.427,420.75,264.016,416.323,264.016z"/>
<path style="fill:#E6646E;" d="M227.509,159.806H92.104c-2.764,0-5.333,1.424-6.798,3.768L47.58,223.935v2.42
	c0,15.192,11.376,28.81,26.547,29.604c16.18,0.847,29.565-12.022,29.565-28.017c0,15.495,12.561,28.056,28.056,28.056
	s28.056-12.561,28.056-28.056c0,15.495,12.561,28.056,28.056,28.056s28.056-12.561,28.056-28.056
	c0,15.995,13.385,28.864,29.565,28.017c15.172-0.795,26.548-14.412,26.547-29.604v-2.42l-37.726-60.361
	C232.842,161.23,230.273,159.806,227.509,159.806z"/>
<path style="fill:#DC4655;" d="M70.613,255.564c12.65,2.194,24.106-4.093,29.621-14.111c1.54-2.799,5.543-2.411,7.125,0.364
	C112.187,250.288,121.301,256,131.75,256c10.527,0,19.7-5.798,24.5-14.375c1.61-2.878,5.502-2.878,7.113,0
	c4.8,8.577,13.973,14.375,24.5,14.375c10.449,0,19.563-5.712,24.392-14.183c1.582-2.775,5.584-3.163,7.125-0.364
	c5.514,10.018,16.971,16.305,29.621,14.111c13.686-2.374,23.032-15.318,23.032-29.208v-2.42H47.581v2.42
	C47.581,240.246,56.927,253.19,70.613,255.564z"/>
<path d="M39.564,72.146h-0.08c-4.142,0-7.46,3.357-7.46,7.5s3.398,7.5,7.54,7.5s7.5-3.357,7.5-7.5S43.707,72.146,39.564,72.146z"/>
<path d="M87.661,72.146h-0.08c-4.142,0-7.46,3.357-7.46,7.5s3.398,7.5,7.54,7.5s7.5-3.357,7.5-7.5S91.803,72.146,87.661,72.146z"/>
<path d="M63.613,72.146h-0.08c-4.142,0-7.46,3.357-7.46,7.5s3.398,7.5,7.54,7.5s7.5-3.357,7.5-7.5S67.755,72.146,63.613,72.146z"/>
<path d="M479.936,79.646c0-4.143-3.358-7.5-7.5-7.5h-72.145c-4.142,0-7.5,3.357-7.5,7.5s3.358,7.5,7.5,7.5h72.145
	C476.578,87.146,479.936,83.788,479.936,79.646z"/>
<path d="M368.226,72.146h-248.5c-4.142,0-7.5,3.357-7.5,7.5s3.358,7.5,7.5,7.5h248.5c4.142,0,7.5-3.357,7.5-7.5
	S372.368,72.146,368.226,72.146z"/>
<path d="M480.452,40.081H31.548C14.152,40.081,0,54.233,0,71.629v368.742c0,17.396,14.152,31.548,31.548,31.548h448.903
	c17.396,0,31.548-14.152,31.548-31.548V71.629C512,54.233,497.848,40.081,480.452,40.081z M480.452,456.919H31.548
	c-9.125,0-16.548-7.424-16.548-16.548V119.21h425.375c4.142,0,7.5-3.357,7.5-7.5s-3.358-7.5-7.5-7.5H15V71.629
	c0-9.124,7.423-16.548,16.548-16.548h448.903c9.125,0,16.548,7.424,16.548,16.548v32.581h-24.565c-4.142,0-7.5,3.357-7.5,7.5
	s3.358,7.5,7.5,7.5H497v321.161C497,449.495,489.577,456.919,480.452,456.919z"/>
<path d="M279.532,227.943v-4.008c0-1.405-0.395-2.783-1.14-3.975l-40.081-64.129c-1.371-2.193-3.774-3.525-6.36-3.525H87.661
	c-2.586,0-4.989,1.332-6.36,3.525L41.22,219.96c-0.745,1.191-1.14,2.569-1.14,3.975v4.008c0,12.399,6.383,23.33,16.032,29.695
	v87.055h-0.516c-4.142,0-7.5,3.357-7.5,7.5s3.358,7.5,7.5,7.5h208.419c4.142,0,7.5-3.357,7.5-7.5s-3.358-7.5-7.5-7.5H263.5v-87.055
	C273.149,251.273,279.532,240.343,279.532,227.943z M91.818,167.307h135.977l30.705,49.129H61.113L91.818,167.307z M183.339,263.206
	c1.483,0.189,2.991,0.294,4.524,0.294c11.389,0,21.544-5.383,28.057-13.737c0.163,0.21,0.347,0.402,0.516,0.607v54.244h-33.097
	L183.339,263.206L183.339,263.206z M167.626,231.436H208.1c-1.666,9.674-10.095,17.064-20.237,17.064
	C177.721,248.5,169.292,241.11,167.626,231.436z M131.75,248.5c-10.142,0-18.571-7.39-20.237-17.064h40.474
	C150.321,241.11,141.892,248.5,131.75,248.5z M136.274,263.206v41.408h-33.097v-54.244c0.169-0.205,0.353-0.397,0.516-0.607
	c6.512,8.354,16.668,13.737,28.057,13.737C133.283,263.5,134.792,263.395,136.274,263.206z M55.4,231.436h40.474
	C94.208,241.11,85.779,248.5,75.637,248.5S57.066,241.11,55.4,231.436z M248.5,344.693H71.113v-81.491
	c1.483,0.189,2.991,0.298,4.524,0.298c4.413,0,8.637-0.817,12.54-2.293v50.906c0,4.143,3.358,7.5,7.5,7.5h48.097
	c4.142,0,7.5-3.357,7.5-7.5V257.64c3.255-2.147,6.141-4.809,8.532-7.877c2.391,3.068,5.278,5.73,8.532,7.877v54.473
	c0,4.143,3.358,7.5,7.5,7.5h48.097c4.142,0,7.5-3.357,7.5-7.5v-50.906c3.903,1.476,8.127,2.293,12.54,2.293
	c1.534,0,3.041-0.109,4.524-0.298v81.491H248.5z M243.976,248.5c-10.142,0-18.571-7.39-20.237-17.064h40.474
	C262.547,241.11,254.118,248.5,243.976,248.5z"/>
<path d="M448.387,152.307H320.129c-8.556,0-15.516,6.96-15.516,15.516v24.049c0,8.556,6.96,15.516,15.516,15.516h128.258
	c8.556,0,15.516-6.96,15.516-15.516v-24.049C463.903,159.267,456.943,152.307,448.387,152.307z M448.903,191.871
	c0,0.284-0.231,0.516-0.516,0.516H320.129c-0.285,0-0.516-0.231-0.516-0.516v-24.049c0-0.284,0.231-0.516,0.516-0.516h128.258
	c0.285,0,0.516,0.231,0.516,0.516L448.903,191.871L448.903,191.871z"/>
<path d="M320.129,271.517h96.194c8.556,0,15.516-6.961,15.516-15.517v-16.032c0-8.556-6.96-15.517-15.516-15.517h-96.194
	c-8.556,0-15.516,6.961-15.516,15.517V256C304.613,264.556,311.573,271.517,320.129,271.517z M319.613,239.968
	c0-0.285,0.231-0.517,0.516-0.517h96.194c0.285,0,0.516,0.231,0.516,0.517V256c0,0.285-0.231,0.517-0.516,0.517h-96.194
	c-0.285,0-0.516-0.231-0.516-0.517V239.968z"/>
<path d="M312.113,311.596h16.032c4.142,0,7.5-3.357,7.5-7.5s-3.358-7.5-7.5-7.5h-16.032c-4.142,0-7.5,3.357-7.5,7.5
	S307.971,311.596,312.113,311.596z"/>
<path d="M431.839,304.096c0-4.143-3.358-7.5-7.5-7.5H360.21c-4.142,0-7.5,3.357-7.5,7.5s3.358,7.5,7.5,7.5h64.129
	C428.481,311.596,431.839,308.239,431.839,304.096z"/>
<path d="M360.209,328.661c-4.142,0-7.5,3.357-7.5,7.5s3.358,7.5,7.5,7.5h48.097c4.142,0,7.5-3.357,7.5-7.5s-3.358-7.5-7.5-7.5
	H360.209z"/>
<path d="M183.855,408.822h-72.146c-4.142,0-7.5,3.357-7.5,7.5s3.358,7.5,7.5,7.5h72.146c4.142,0,7.5-3.357,7.5-7.5
	S187.997,408.822,183.855,408.822z"/>
<path d="M215.919,376.758h-104.21c-4.142,0-7.5,3.357-7.5,7.5s3.358,7.5,7.5,7.5h104.21c4.142,0,7.5-3.357,7.5-7.5
	S220.062,376.758,215.919,376.758z"/>
<path d="M456.403,376.758h-144.29c-4.142,0-7.5,3.357-7.5,7.5s3.358,7.5,7.5,7.5h144.291c4.142,0,7.5-3.357,7.5-7.5
	S460.545,376.758,456.403,376.758z"/>
<path d="M456.403,408.822h-144.29c-4.142,0-7.5,3.357-7.5,7.5s3.358,7.5,7.5,7.5h144.291c4.142,0,7.5-3.357,7.5-7.5
	S460.545,408.822,456.403,408.822z"/>
<path d="M79.645,376.758H63.613c-4.142,0-7.5,3.357-7.5,7.5s3.358,7.5,7.5,7.5h16.032c4.142,0,7.5-3.357,7.5-7.5
	S83.787,376.758,79.645,376.758z"/>
<path d="M79.645,408.822H63.613c-4.142,0-7.5,3.357-7.5,7.5s3.358,7.5,7.5,7.5h16.032c4.142,0,7.5-3.357,7.5-7.5
	S83.787,408.822,79.645,408.822z"/>
<path d="M312.113,343.661h16.032c4.142,0,7.5-3.357,7.5-7.5s-3.358-7.5-7.5-7.5h-16.032c-4.142,0-7.5,3.357-7.5,7.5
	S307.971,343.661,312.113,343.661z"/>
<g>
</g>
<g>
</g>
<g>
</g>
<g>
</g>
<g>
</g>
<g>
</g>
<g>
</g>
<g>
</g>
<g>
</g>
<g>
</g>
<g>
</g>
<g>
</g>
<g>
</g>
<g>
</g>
<g>
</g>
</svg>
