<?xml version="1.0" encoding="iso-8859-1"?>
<!-- Generator: Adobe Illustrator 19.0.0, SVG Export Plug-In . SVG Version: 6.00 Build 0)  -->
<svg version="1.1" id="Capa_1" xmlns="http://www.w3.org/2000/svg" xmlns:xlink="http://www.w3.org/1999/xlink" x="0px" y="0px"
	 viewBox="0 0 511.999 511.999" style="enable-background:new 0 0 511.999 511.999;" xml:space="preserve">
<path style="fill:#DBD9DC;" d="M480.452,47.581H31.548C18.267,47.581,7.5,58.347,7.5,71.629v40.081h497V71.629
	C504.5,58.347,493.733,47.581,480.452,47.581z"/>
<path style="fill:#FFFFFF;" d="M480.452,464.419H31.548c-13.282,0-24.048-10.767-24.048-24.048V111.71h497v328.661
	C504.5,453.653,493.733,464.419,480.452,464.419z"/>
<path style="fill:#E6646E;" d="M374.682,234.905l-10.596-42.385c-2.348-9.395-10.103-16.464-19.674-17.936
	c-58.597-9.016-118.228-9.016-176.825,0c-9.571,1.472-17.325,8.541-19.674,17.936l-10.596,42.385
	c-0.911,3.645,0.831,7.434,4.192,9.114l42.345,21.172V400.29c0,4.427,3.589,8.016,8.016,8.016h128.258
	c4.427,0,8.016-3.589,8.016-8.016V265.191l42.345-21.172C373.851,242.339,375.594,238.55,374.682,234.905z"/>
<path style="fill:#C43F4F;" d="M199.583,170.671c11.131,18.265,28.831,41.585,52.883,55.298c1.113,0.636,2.343,0.952,3.572,0.952
	c1.23,0,2.459-0.316,3.572-0.952c24.05-13.713,41.746-37.027,52.877-55.291C274.938,167.01,237.134,167.009,199.583,170.671z"/>
<g>
	<path style="fill:#DC4655;" d="M147.914,192.52l-10.596,42.386c-0.911,3.645,0.831,7.433,4.192,9.113l42.345,21.172v-24.044
		c0-6.009-1.689-11.898-4.874-16.994l-25.925-41.481C150.65,185.463,148.844,188.796,147.914,192.52z"/>
	<path style="fill:#DC4655;" d="M364.086,192.52l10.596,42.386c0.911,3.645-0.831,7.433-4.192,9.113l-42.345,21.172v-24.044
		c0-6.009,1.689-11.898,4.874-16.994l25.925-41.481C361.35,185.463,363.156,188.796,364.086,192.52z"/>
	<path style="fill:#DC4655;" d="M207.903,320.129v-26.67c0-8.336-4.317-16.078-11.409-20.459l-12.639-7.809V400.29
		c0,4.427,3.589,8.016,8.016,8.016h128.258c4.427,0,8.016-3.589,8.016-8.016v-16.032h-56.113
		C236.615,384.258,207.903,355.547,207.903,320.129z"/>
</g>
<path d="M39.564,72.146h-0.08c-4.142,0-7.46,3.357-7.46,7.5s3.398,7.5,7.54,7.5s7.5-3.357,7.5-7.5S43.707,72.146,39.564,72.146z"/>
<path d="M87.661,72.146h-0.08c-4.142,0-7.46,3.357-7.46,7.5s3.398,7.5,7.54,7.5s7.5-3.357,7.5-7.5S91.803,72.146,87.661,72.146z"/>
<path d="M63.613,72.146h-0.08c-4.142,0-7.46,3.357-7.46,7.5s3.398,7.5,7.54,7.5s7.5-3.357,7.5-7.5S67.755,72.146,63.613,72.146z"/>
<path d="M479.936,79.646c0-4.143-3.358-7.5-7.5-7.5h-72.145c-4.142,0-7.5,3.357-7.5,7.5s3.358,7.5,7.5,7.5h72.145
	C476.578,87.146,479.936,83.788,479.936,79.646z"/>
<path d="M368.226,72.146h-248.5c-4.142,0-7.5,3.357-7.5,7.5s3.358,7.5,7.5,7.5h248.5c4.142,0,7.5-3.357,7.5-7.5
	S372.368,72.146,368.226,72.146z"/>
<path d="M480.452,40.081H31.548C14.152,40.081,0,54.233,0,71.629v368.742c0,17.396,14.152,31.548,31.548,31.548h448.903
	c17.396,0,31.548-14.152,31.548-31.548V71.629C512,54.233,497.848,40.081,480.452,40.081z M480.452,456.919H31.548
	c-9.125,0-16.548-7.424-16.548-16.548V119.21h425.375c4.142,0,7.5-3.357,7.5-7.5s-3.358-7.5-7.5-7.5H15V71.629
	c0-9.124,7.423-16.548,16.548-16.548h448.903c9.125,0,16.548,7.424,16.548,16.548v32.581h-24.565c-4.142,0-7.5,3.357-7.5,7.5
	s3.358,7.5,7.5,7.5H497v321.161C497,449.495,489.577,456.919,480.452,456.919z"/>
<path d="M371.362,190.7c-3.089-12.356-13.22-21.592-25.809-23.529c-59.424-9.141-119.684-9.141-179.106,0
	c-12.589,1.938-22.719,11.173-25.809,23.529l-10.596,42.385c-1.778,7.11,1.558,14.365,8.113,17.642l38.2,19.1V400.29
	c0,8.556,6.96,15.517,15.516,15.517h128.258c8.556,0,15.516-6.961,15.516-15.517V269.826l38.199-19.099
	c6.556-3.277,9.892-10.532,8.114-17.642L371.362,190.7z M298.485,176.903c-9.953,14.93-24.209,31.896-42.442,42.406
	c-18.247-10.515-32.507-27.506-42.443-42.411C241.864,174.799,270.221,174.801,298.485,176.903z M367.137,237.311l-31.492,15.746
	v-19.929c0-4.143-3.358-7.5-7.5-7.5s-7.5,3.357-7.5,7.5V400.29c0,0.285-0.231,0.517-0.516,0.517H191.871
	c-0.285,0-0.516-0.231-0.516-0.517V233.127c0-4.143-3.358-7.5-7.5-7.5s-7.5,3.357-7.5,7.5v19.929l-31.492-15.747
	c-0.214-0.106-0.327-0.353-0.269-0.585l10.596-42.386c1.621-6.481,6.935-11.326,13.538-12.342
	c9.324-1.435,18.671-2.613,28.031-3.585c10.937,17.803,28.414,40.564,52.196,54.123c2.158,1.234,4.61,1.887,7.088,1.887
	c2.479,0,4.93-0.652,7.082-1.882c23.761-13.548,41.229-36.264,52.199-54.119c9.332,0.971,18.651,2.146,27.948,3.577
	c6.604,1.016,11.917,5.86,13.538,12.342l10.596,42.387C367.464,236.957,367.351,237.203,367.137,237.311z"/>
<path d="M100.98,242.68c-2.929-2.928-7.678-2.928-10.606,0L50.293,282.76c-2.929,2.93-2.929,7.678,0,10.607l40.081,40.081
	c1.464,1.464,3.384,2.196,5.303,2.196s3.839-0.732,5.303-2.196c2.929-2.93,2.929-7.678,0-10.607l-34.777-34.777l34.777-34.777
	C103.91,250.357,103.91,245.609,100.98,242.68z"/>
<path d="M421.626,242.68c-2.928-2.927-7.677-2.929-10.606,0c-2.929,2.93-2.929,7.678,0,10.607l34.777,34.777l-34.777,34.777
	c-2.929,2.93-2.929,7.678,0,10.607c1.464,1.464,3.384,2.196,5.303,2.196s3.839-0.732,5.303-2.196l40.081-40.081
	c2.929-2.93,2.929-7.678,0-10.607L421.626,242.68z"/>
<g>
</g>
<g>
</g>
<g>
</g>
<g>
</g>
<g>
</g>
<g>
</g>
<g>
</g>
<g>
</g>
<g>
</g>
<g>
</g>
<g>
</g>
<g>
</g>
<g>
</g>
<g>
</g>
<g>
</g>
</svg>
