<?xml version="1.0" encoding="iso-8859-1"?>
<!-- Generator: Adobe Illustrator 19.0.0, SVG Export Plug-In . SVG Version: 6.00 Build 0)  -->
<svg version="1.1" id="Capa_1" xmlns="http://www.w3.org/2000/svg" xmlns:xlink="http://www.w3.org/1999/xlink" x="0px" y="0px"
	 viewBox="0 0 512 512" style="enable-background:new 0 0 512 512;" xml:space="preserve">
<path style="fill:#DBD9DC;" d="M368.233,43.585H31.549C18.267,43.585,7.5,54.353,7.5,67.634v40.082h384.781V67.634
	C392.281,54.353,381.514,43.585,368.233,43.585z"/>
<path style="fill:#FFFFFF;" d="M368.233,364.236H31.549c-13.282,0-24.048-10.767-24.048-24.048V107.716h384.781v232.472
	C392.281,353.469,381.514,364.236,368.233,364.236z"/>
<path style="fill:#6F6571;" d="M159.809,324.154H79.646c-8.854,0-16.032-7.178-16.032-16.032V163.829
	c0-8.854,7.178-16.032,16.032-16.032h80.162c8.854,0,16.032,7.178,16.032,16.032v144.293
	C175.842,316.976,168.664,324.154,159.809,324.154z"/>
<g>
	<path style="fill:#FFD164;" d="M231.956,179.862h104.212c4.427,0,8.016-3.589,8.016-8.016v-16.032c0-4.427-3.589-8.016-8.016-8.016
		H231.956c-4.427,0-8.016,3.589-8.016,8.016v16.032C223.939,176.273,227.528,179.862,231.956,179.862z"/>
	<path style="fill:#FFD164;" d="M384.801,431.074l-55.536,34.866c-12.239,7.684-27.598-3.475-24.072-17.49l15.998-63.592
		l-50.321-42.044c-11.09-9.266-5.223-27.321,9.195-28.299l65.423-4.436l24.435-60.85c5.385-13.41,24.37-13.41,29.756,0l24.435,60.85
		l65.423,4.436c14.418,0.978,20.285,19.033,9.195,28.299l-50.321,42.044l15.998,63.592c3.526,14.015-11.833,25.173-24.072,17.49
		L384.801,431.074z"/>
</g>
<path style="fill:#FFC350;" d="M457.294,420.168c-69.81-2.797-129.176-46.139-155.154-107.15l-22.076,1.497
	c-14.418,0.978-20.285,19.033-9.195,28.299l50.321,42.044l-15.997,63.592c-3.526,14.015,11.833,25.174,24.072,17.49l55.536-34.867
	l55.536,34.867c12.239,7.684,27.598-3.475,24.072-17.49L457.294,420.168z"/>
<path style="fill:#FFD164;" d="M175.842,292.642H63.614V163.829c0-8.854,7.178-16.032,16.032-16.032h80.162
	c8.854,0,16.032,7.178,16.032,16.032v128.812H175.842z"/>
<path style="fill:#FFC350;" d="M135.76,276.057c-26.563,0-48.098-21.534-48.098-48.098v-80.162h-8.016
	c-8.854,0-16.032,7.178-16.032,16.032v128.812h112.228v-16.585H135.76V276.057z"/>
<path d="M243.312,356.736H31.55c-9.125,0-16.549-7.424-16.549-16.549V115.215h313.15c4.143,0,7.5-3.357,7.5-7.5
	c0-4.143-3.357-7.5-7.5-7.5H15V67.634c0-9.125,7.424-16.549,16.549-16.549h336.683c9.125,0,16.549,7.424,16.549,16.549v32.581
	h-24.562c-4.143,0-7.5,3.357-7.5,7.5c0,4.143,3.357,7.5,7.5,7.5h24.562v91.952c0,4.143,3.357,7.5,7.5,7.5c4.143,0,7.5-3.357,7.5-7.5
	V67.634c0-17.396-14.152-31.55-31.55-31.55H31.55C14.152,36.084,0,50.237,0,67.634v272.553c0,17.396,14.152,31.55,31.55,31.55
	h211.763c4.143,0,7.5-3.357,7.5-7.5C250.812,360.093,247.454,356.736,243.312,356.736z"/>
<path d="M39.565,68.15c-4.143,0-7.46,3.357-7.46,7.5s3.397,7.5,7.54,7.5s7.5-3.357,7.5-7.5s-3.357-7.5-7.5-7.5H39.565z"/>
<path d="M87.663,68.15c-4.143,0-7.46,3.357-7.46,7.5s3.397,7.5,7.54,7.5c4.143,0,7.5-3.357,7.5-7.5s-3.357-7.5-7.5-7.5H87.663z"/>
<path d="M63.534,68.15c-4.143,0-7.46,3.357-7.46,7.5s3.397,7.5,7.54,7.5s7.5-3.357,7.5-7.5s-3.357-7.5-7.5-7.5H63.534z"/>
<path d="M119.728,68.15c-4.143,0-7.5,3.357-7.5,7.5s3.357,7.5,7.5,7.5h152.31c4.143,0,7.5-3.357,7.5-7.5s-3.357-7.5-7.5-7.5H119.728
	z"/>
<path d="M367.716,75.65c0-4.143-3.357-7.5-7.5-7.5h-56.114c-4.143,0-7.5,3.357-7.5,7.5s3.357,7.5,7.5,7.5h56.114
	C364.359,83.15,367.716,79.793,367.716,75.65z"/>
<path d="M510.834,323.24c-2.987-9.191-11.147-15.553-20.789-16.206l-60.726-4.118l-22.681-56.48
	c-3.601-8.968-12.172-14.763-21.836-14.764c-0.001,0,0,0-0.001,0c-9.664,0-18.236,5.796-21.838,14.764l-22.68,56.48l-60.726,4.118
	c-9.642,0.653-17.802,7.015-20.789,16.206c-2.986,9.19-0.123,19.134,7.293,25.33l46.708,39.024l-14.85,59.025
	c-2.357,9.373,1.171,19.1,8.99,24.78c4.134,3.003,8.972,4.516,13.823,4.516c4.325,0,8.663-1.203,12.521-3.625l51.548-32.362
	l51.548,32.362c8.186,5.14,18.526,4.788,26.344-0.891c7.819-5.681,11.348-15.407,8.99-24.78l-14.85-59.025l46.708-39.024
	C510.957,342.375,513.821,332.43,510.834,323.24z M493.924,337.059l-50.321,42.044c-2.209,1.847-3.167,4.794-2.465,7.586
	l15.998,63.592c1.306,5.19-2.165,8.189-3.26,8.984c-1.096,0.796-5.021,3.167-9.551,0.323l-55.536-34.866
	c-2.439-1.531-5.537-1.531-7.977,0l-55.536,34.866c-4.529,2.846-8.456,0.474-9.551-0.323c-1.095-0.795-4.565-3.794-3.26-8.984
	l15.998-63.592c0.702-2.792-0.256-5.739-2.465-7.586l-50.321-42.044c-4.107-3.432-3.062-7.896-2.644-9.184
	c0.418-1.286,2.197-5.514,7.538-5.876l65.423-4.437c2.872-0.194,5.379-2.016,6.452-4.688l24.435-60.85
	c1.994-4.967,6.564-5.354,7.918-5.354c1.354,0,5.923,0.387,7.917,5.354l24.436,60.85c1.073,2.672,3.58,4.493,6.452,4.688
	l65.423,4.437c5.341,0.362,7.12,4.59,7.538,5.876C496.986,329.162,498.031,333.628,493.924,337.059z"/>
<path d="M79.647,140.296c-12.976,0-23.532,10.557-23.532,23.532v144.293c0,12.976,10.557,23.532,23.532,23.532h80.162
	c12.976,0,23.532-10.557,23.532-23.532V163.828c0-12.976-10.557-23.532-23.532-23.532H79.647z M168.342,163.829v144.293
	c0,4.705-3.827,8.532-8.532,8.532H79.647c-4.705,0-8.532-3.827-8.532-8.532V163.829c0-4.705,3.827-8.532,8.532-8.532h80.162
	C164.515,155.296,168.342,159.124,168.342,163.829z"/>
<path d="M127.744,292.606h-16.032c-4.143,0-7.5,3.357-7.5,7.5c0,4.143,3.357,7.5,7.5,7.5h16.032c4.143,0,7.5-3.357,7.5-7.5
	C135.244,295.963,131.887,292.606,127.744,292.606z"/>
<path d="M351.684,171.846v-16.032c0-8.556-6.961-15.517-15.517-15.517H231.955c-8.556,0-15.516,6.961-15.516,15.517v16.032
	c0,8.556,6.96,15.516,15.516,15.516h104.212C344.723,187.362,351.684,180.402,351.684,171.846z M231.44,171.846v-16.032
	c0-0.285,0.231-0.517,0.516-0.517h104.212c0.285,0,0.517,0.231,0.517,0.517v16.032c0,0.284-0.231,0.516-0.517,0.516H231.956
	C231.671,172.362,231.44,172.13,231.44,171.846z"/>
<path d="M327.635,211.926c0-4.143-3.357-7.5-7.5-7.5h-88.18c-4.143,0-7.5,3.357-7.5,7.5s3.357,7.5,7.5,7.5h88.18
	C324.277,219.426,327.635,216.069,327.635,211.926z"/>
<path d="M231.955,236.492c-4.143,0-7.5,3.357-7.5,7.5s3.357,7.5,7.5,7.5h64.131c4.143,0,7.5-3.357,7.5-7.5s-3.357-7.5-7.5-7.5
	H231.955z"/>
<g>
</g>
<g>
</g>
<g>
</g>
<g>
</g>
<g>
</g>
<g>
</g>
<g>
</g>
<g>
</g>
<g>
</g>
<g>
</g>
<g>
</g>
<g>
</g>
<g>
</g>
<g>
</g>
<g>
</g>
</svg>
