<?xml version="1.0" encoding="iso-8859-1"?>
<!-- Generator: Adobe Illustrator 19.0.0, SVG Export Plug-In . SVG Version: 6.00 Build 0)  -->
<svg version="1.1" id="Capa_1" xmlns="http://www.w3.org/2000/svg" xmlns:xlink="http://www.w3.org/1999/xlink" x="0px" y="0px"
	 viewBox="0 0 511.999 511.999" style="enable-background:new 0 0 511.999 511.999;" xml:space="preserve">
<path style="fill:#DBD9DC;" d="M480.452,47.581H31.548C18.267,47.581,7.5,58.347,7.5,71.629v40.081h497V71.629
	C504.5,58.347,493.733,47.581,480.452,47.581z"/>
<path style="fill:#5D5360;" d="M480.452,464.419H31.548c-13.282,0-24.048-10.767-24.048-24.048V111.71h497v328.661
	C504.5,453.653,493.733,464.419,480.452,464.419z"/>
<path style="fill:#FFE17D;" d="M199.887,167.823H79.645c-8.854,0-16.032,7.178-16.032,16.032v96.194
	c0,8.854,7.178,16.032,16.032,16.032h120.242c8.854,0,16.032-7.179,16.032-16.032v-96.194
	C215.919,175,208.741,167.823,199.887,167.823z"/>
<path style="fill:#FFC350;" d="M223.935,256h-56.113c-4.427,0-8.016-3.589-8.016-8.016v-32.065c0-4.427,3.589-8.016,8.016-8.016
	h56.113c4.427,0,8.016,3.589,8.016,8.016v32.065C231.952,252.411,228.363,256,223.935,256z"/>
<path style="fill:#FFD164;" d="M87.661,223.935v-56.113h-8.016c-8.854,0-16.032,7.178-16.032,16.032v96.194
	c0,8.854,7.178,16.032,16.032,16.032h120.242c8.854,0,16.032-7.179,16.032-16.032v-8.016h-80.161
	C109.195,272.032,87.661,250.499,87.661,223.935z"/>
<path style="fill:#A18259;" d="M324.137,223.935h-8.016c11.068,0,20.04-8.973,20.04-20.04c0-11.068-8.972-20.04-20.04-20.04h-36.073
	v96.194h44.089c15.495,0,28.056-12.561,28.056-28.056C352.194,236.496,339.632,223.935,324.137,223.935z"/>
<path d="M39.564,72.146h-0.08c-4.142,0-7.46,3.357-7.46,7.5s3.398,7.5,7.54,7.5s7.5-3.357,7.5-7.5S43.707,72.146,39.564,72.146z"/>
<path d="M87.661,72.146h-0.08c-4.142,0-7.46,3.357-7.46,7.5s3.398,7.5,7.54,7.5s7.5-3.357,7.5-7.5S91.803,72.146,87.661,72.146z"/>
<path d="M63.613,72.146h-0.08c-4.142,0-7.46,3.357-7.46,7.5s3.398,7.5,7.54,7.5s7.5-3.357,7.5-7.5S67.755,72.146,63.613,72.146z"/>
<path d="M479.936,79.646c0-4.143-3.358-7.5-7.5-7.5h-72.145c-4.142,0-7.5,3.357-7.5,7.5s3.358,7.5,7.5,7.5h72.145
	C476.578,87.146,479.936,83.788,479.936,79.646z"/>
<path d="M368.226,72.146h-248.5c-4.142,0-7.5,3.357-7.5,7.5s3.358,7.5,7.5,7.5h248.5c4.142,0,7.5-3.357,7.5-7.5
	S372.368,72.146,368.226,72.146z"/>
<path d="M480.452,40.081H31.548C14.152,40.081,0,54.233,0,71.629v368.742c0,17.396,14.152,31.548,31.548,31.548h448.903
	c17.396,0,31.548-14.152,31.548-31.548V71.629C512,54.233,497.848,40.081,480.452,40.081z M480.452,456.919H31.548
	c-9.125,0-16.548-7.424-16.548-16.548V119.21h425.375c4.142,0,7.5-3.357,7.5-7.5s-3.358-7.5-7.5-7.5H15V71.629
	c0-9.124,7.423-16.548,16.548-16.548h448.903c9.125,0,16.548,7.424,16.548,16.548v32.581h-24.565c-4.142,0-7.5,3.357-7.5,7.5
	s3.358,7.5,7.5,7.5H497v321.161C497,449.495,489.577,456.919,480.452,456.919z"/>
<path d="M359.693,251.991c0-14.403-8.614-26.825-20.957-32.407c3.1-4.455,4.924-9.862,4.924-15.689
	c0-11.078-6.578-20.643-16.03-25.01v-11.062c0-4.143-3.358-7.5-7.5-7.5s-7.5,3.357-7.5,7.5v8.532h-17.065v-8.532
	c0-4.143-3.358-7.5-7.5-7.5s-7.5,3.357-7.5,7.5v8.532h-8.534c-4.142,0-7.5,3.357-7.5,7.5s3.358,7.5,7.5,7.5h0.516v81.193h-0.516
	c-4.142,0-7.5,3.357-7.5,7.5s3.358,7.5,7.5,7.5h8.534v8.532c0,4.143,3.358,7.5,7.5,7.5s7.5-3.357,7.5-7.5v-8.532h17.065v8.532
	c0,4.143,3.358,7.5,7.5,7.5s7.5-3.357,7.5-7.5v-8.706C345.603,285.613,359.693,270.419,359.693,251.991z M316.121,191.354
	c6.915,0,12.54,5.625,12.54,12.54s-5.625,12.541-12.54,12.541h-28.573v-25.081H316.121z M287.548,231.436h36.589
	c11.334,0,20.556,9.222,20.556,20.557c0,11.334-9.222,20.556-20.556,20.556h-36.589V231.436z"/>
<path d="M199.887,303.581c12.976,0,23.532-10.557,23.532-23.532V263.5h0.516c8.556,0,15.516-6.961,15.516-15.517v-32.064
	c0-8.556-6.96-15.516-15.516-15.516h-0.516v-16.549c0-12.976-10.557-23.532-23.532-23.532H79.645
	c-12.976,0-23.532,10.557-23.532,23.532v96.194c0,12.976,10.557,23.532,23.532,23.532L199.887,303.581L199.887,303.581z
	 M224.452,215.919v32.064c0,0.285-0.231,0.517-0.516,0.517h-56.113c-0.285,0-0.516-0.231-0.516-0.517v-32.064
	c0-0.284,0.231-0.516,0.516-0.516h56.113C224.22,215.403,224.452,215.635,224.452,215.919z M71.113,280.049v-96.194
	c0-4.705,3.828-8.532,8.532-8.532h120.242c4.705,0,8.532,3.827,8.532,8.532v16.549h-40.597c-8.556,0-15.516,6.96-15.516,15.516
	v32.064c0,8.556,6.96,15.517,15.516,15.517h40.597v16.549c0,4.705-3.828,8.532-8.532,8.532H79.645
	C74.94,288.581,71.113,284.754,71.113,280.049z"/>
<path d="M183.855,239.451c4.142,0,7.5-3.357,7.5-7.5s-3.358-7.5-7.5-7.5h-0.08c-4.142,0-7.46,3.357-7.46,7.5
	S179.713,239.451,183.855,239.451z"/>
<path d="M103.693,336.678H79.645c-4.142,0-7.5,3.357-7.5,7.5s3.358,7.5,7.5,7.5h24.048c4.142,0,7.5-3.357,7.5-7.5
	S107.835,336.678,103.693,336.678z"/>
<path d="M103.693,400.807H79.645c-4.142,0-7.5,3.357-7.5,7.5s3.358,7.5,7.5,7.5h24.048c4.142,0,7.5-3.357,7.5-7.5
	S107.835,400.807,103.693,400.807z"/>
<path d="M103.693,368.742H79.645c-4.142,0-7.5,3.357-7.5,7.5s3.358,7.5,7.5,7.5h24.048c4.142,0,7.5-3.357,7.5-7.5
	S107.835,368.742,103.693,368.742z"/>
<path d="M239.968,336.678h-104.21c-4.142,0-7.5,3.357-7.5,7.5s3.358,7.5,7.5,7.5h104.209c4.142,0,7.5-3.357,7.5-7.5
	S244.11,336.678,239.968,336.678z"/>
<path d="M215.919,400.807h-80.161c-4.142,0-7.5,3.357-7.5,7.5s3.358,7.5,7.5,7.5h80.161c4.142,0,7.5-3.357,7.5-7.5
	S220.062,400.807,215.919,400.807z"/>
<path d="M215.919,368.742h-80.161c-4.142,0-7.5,3.357-7.5,7.5s3.358,7.5,7.5,7.5h80.161c4.142,0,7.5-3.357,7.5-7.5
	S220.062,368.742,215.919,368.742z"/>
<path d="M312.113,336.678h-24.048c-4.142,0-7.5,3.357-7.5,7.5s3.358,7.5,7.5,7.5h24.048c4.142,0,7.5-3.357,7.5-7.5
	S316.255,336.678,312.113,336.678z"/>
<path d="M312.113,400.807h-24.048c-4.142,0-7.5,3.357-7.5,7.5s3.358,7.5,7.5,7.5h24.048c4.142,0,7.5-3.357,7.5-7.5
	S316.255,400.807,312.113,400.807z"/>
<path d="M312.113,368.742h-24.048c-4.142,0-7.5,3.357-7.5,7.5s3.358,7.5,7.5,7.5h24.048c4.142,0,7.5-3.357,7.5-7.5
	S316.255,368.742,312.113,368.742z"/>
<path d="M448.387,336.678h-104.21c-4.142,0-7.5,3.357-7.5,7.5s3.358,7.5,7.5,7.5h104.21c4.142,0,7.5-3.357,7.5-7.5
	S452.529,336.678,448.387,336.678z"/>
<path d="M448.387,192.387h-64.129c-4.142,0-7.5,3.357-7.5,7.5s3.358,7.5,7.5,7.5h64.129c4.142,0,7.5-3.357,7.5-7.5
	S452.529,192.387,448.387,192.387z"/>
<path d="M384.258,239.451h40.081c4.142,0,7.5-3.357,7.5-7.5s-3.358-7.5-7.5-7.5h-40.081c-4.142,0-7.5,3.357-7.5,7.5
	S380.116,239.451,384.258,239.451z"/>
<path d="M384.258,271.517h40.081c4.142,0,7.5-3.357,7.5-7.5s-3.358-7.5-7.5-7.5h-40.081c-4.142,0-7.5,3.357-7.5,7.5
	S380.116,271.517,384.258,271.517z"/>
<path d="M424.339,400.807h-80.162c-4.142,0-7.5,3.357-7.5,7.5s3.358,7.5,7.5,7.5h80.162c4.142,0,7.5-3.357,7.5-7.5
	S428.481,400.807,424.339,400.807z"/>
<path d="M424.339,368.742h-80.162c-4.142,0-7.5,3.357-7.5,7.5s3.358,7.5,7.5,7.5h80.162c4.142,0,7.5-3.357,7.5-7.5
	S428.481,368.742,424.339,368.742z"/>
<g>
</g>
<g>
</g>
<g>
</g>
<g>
</g>
<g>
</g>
<g>
</g>
<g>
</g>
<g>
</g>
<g>
</g>
<g>
</g>
<g>
</g>
<g>
</g>
<g>
</g>
<g>
</g>
<g>
</g>
</svg>
