<?xml version="1.0" encoding="iso-8859-1"?>
<!-- Generator: Adobe Illustrator 19.0.0, SVG Export Plug-In . SVG Version: 6.00 Build 0)  -->
<svg version="1.1" id="Capa_1" xmlns="http://www.w3.org/2000/svg" xmlns:xlink="http://www.w3.org/1999/xlink" x="0px" y="0px"
	 viewBox="0 0 512 512" style="enable-background:new 0 0 512 512;" xml:space="preserve">
<path style="fill:#E6646E;" d="M320.129,284.055H119.726C57.745,284.055,7.5,233.81,7.5,171.829l0,0
	c0-61.981,50.245-112.226,112.226-112.226h200.403c61.981,0,112.226,50.245,112.226,112.226l0,0
	C432.355,233.81,382.11,284.055,320.129,284.055z"/>
<path style="fill:#DC4655;" d="M183.855,251.99c-61.981,0-112.226-50.246-112.226-112.226l0,0c0-30.794,12.421-58.676,32.504-78.954
	C49.554,68.419,7.5,115.154,7.5,171.829c0,61.98,50.245,112.226,112.226,112.226h200.403c30.56,0,58.231-12.251,78.469-32.065
	H183.855z"/>
<polygon style="fill:#5D5360;" points="367.043,222.206 367.446,404.297 423.44,345.555 504.5,341.634 "/>
<polygon style="fill:#6F6571;" points="367.043,222.206 423.44,345.555 504.5,341.634 "/>
<path d="M335.102,275.493c-4.924,0.704-9.961,1.062-14.973,1.062H119.726C61.979,276.555,15,229.575,15,171.829
	S61.979,67.104,119.726,67.104h200.403c57.746,0,104.726,46.979,104.726,104.726c0,17.249-4.279,34.344-12.377,49.436
	c-1.958,3.65-0.586,8.196,3.063,10.155c3.652,1.955,8.196,0.585,10.155-3.063c9.263-17.266,14.158-36.813,14.158-56.527
	c0-66.017-53.709-119.726-119.726-119.726H119.726C53.708,52.104,0,105.813,0,171.829s53.708,119.726,119.726,119.726h200.403
	c5.72,0,11.472-0.408,17.096-1.212c4.101-0.587,6.949-4.387,6.363-8.486C343.001,277.755,339.19,274.916,335.102,275.493z"/>
<path d="M127.742,116.233H95.677c-4.142,0-7.5,3.357-7.5,7.5v96.193c0,4.143,3.358,7.5,7.5,7.5h40.081
	c17.396,0,31.548-14.152,31.548-31.549c0-11.677-6.382-21.885-15.836-27.339c4.863-5.552,7.82-12.814,7.82-20.757
	C159.291,130.385,145.138,116.233,127.742,116.233z M103.177,131.233h24.565c9.125,0,16.548,7.423,16.548,16.548
	s-7.423,16.549-16.548,16.549h-24.565V131.233z M135.758,212.426h-32.581v-33.097h24.565h8.016c9.125,0,16.548,7.424,16.548,16.549
	S144.883,212.426,135.758,212.426z"/>
<path d="M191.871,116.233c-4.142,0-7.5,3.357-7.5,7.5v68.137c0,19.606,15.95,35.557,35.556,35.557s35.557-15.95,35.557-35.557
	v-68.137c0-4.143-3.358-7.5-7.5-7.5s-7.5,3.357-7.5,7.5v68.137c0,11.335-9.222,20.557-20.557,20.557
	c-11.334,0-20.556-9.222-20.556-20.557v-68.137C199.371,119.59,196.013,116.233,191.871,116.233z"/>
<path d="M347.898,117.221c-3.595-2.055-8.178-0.806-10.232,2.791l-25.553,44.717l-25.553-44.717
	c-2.056-3.598-6.641-4.848-10.232-2.791c-3.597,2.055-4.846,6.637-2.791,10.232l31.076,54.383v38.09c0,4.143,3.357,7.5,7.5,7.5
	s7.5-3.357,7.5-7.5v-38.09l31.076-54.383C352.744,123.858,351.495,119.276,347.898,117.221z"/>
<path d="M509.419,335.973L371.962,216.544c-2.221-1.931-5.367-2.382-8.037-1.16c-2.675,1.224-4.389,3.896-4.382,6.838l0.402,182.092
	c0.007,3.063,1.876,5.814,4.721,6.949c0.901,0.36,1.844,0.534,2.777,0.534c2.013,0,3.987-0.811,5.431-2.325l48.352-50.724
	l44.242,96.763c1.261,2.757,3.981,4.384,6.826,4.384c1.043,0,2.104-0.219,3.114-0.681c3.767-1.723,5.424-6.173,3.702-9.939
	l-44.242-96.763l69.993-3.386c3.06-0.148,5.722-2.142,6.725-5.036S511.731,337.982,509.419,335.973z M423.078,338.064
	c-1.924,0.093-3.737,0.923-5.066,2.316l-43.107,45.223l-0.325-146.914l110.902,96.356L423.078,338.064z"/>
<g>
</g>
<g>
</g>
<g>
</g>
<g>
</g>
<g>
</g>
<g>
</g>
<g>
</g>
<g>
</g>
<g>
</g>
<g>
</g>
<g>
</g>
<g>
</g>
<g>
</g>
<g>
</g>
<g>
</g>
</svg>
