<?xml version="1.0" encoding="iso-8859-1"?>
<!-- Generator: Adobe Illustrator 19.0.0, SVG Export Plug-In . SVG Version: 6.00 Build 0)  -->
<svg version="1.1" id="Capa_1" xmlns="http://www.w3.org/2000/svg" xmlns:xlink="http://www.w3.org/1999/xlink" x="0px" y="0px"
	 viewBox="0 0 512 512" style="enable-background:new 0 0 512 512;" xml:space="preserve">
<rect x="31.548" y="139.77" style="fill:#EDEBED;" width="448.9" height="280.56"/>
<rect x="31.548" y="139.77" style="fill:#FFE17D;" width="448.9" height="240.48"/>
<path style="fill:#FFD164;" d="M31.548,232.987c11.5,5.697,24.397,8.985,38.077,8.985c23.882,0,46.164-9.843,62.125-26.435
	c15.962,16.592,38.243,26.435,62.125,26.435s46.164-9.843,62.125-26.435c15.962,16.592,38.243,26.435,62.125,26.435
	s46.164-9.843,62.125-26.435c15.962,16.592,38.243,26.435,62.125,26.435c13.68,0,26.577-3.288,38.077-8.985v-93.221H31.548V232.987z
	"/>
<path style="fill:#DBD9DC;" d="M488.468,452.395H23.532c-8.854,0-16.032-7.178-16.032-16.032v-16.032
	c0-4.427,3.589-8.016,8.016-8.016h480.968c4.427,0,8.016,3.589,8.016,8.016v16.032C504.5,445.217,497.322,452.395,488.468,452.395z"
	/>
<path style="fill:#E6646E;" d="M504.5,155.798c0,34.311-27.814,62.125-62.125,62.125c-25.52,0-47.446-15.388-57.006-37.391
	c-1.976-4.549-8.261-4.549-10.238,0c-9.56,22.003-31.486,37.391-57.006,37.391s-47.446-15.388-57.006-37.391
	c-1.976-4.549-8.261-4.549-10.238,0c-9.56,22.003-31.486,37.391-57.006,37.391s-47.446-15.388-57.006-37.391
	c-1.976-4.549-8.261-4.549-10.238,0c-9.56,22.003-31.486,37.391-57.006,37.391c-34.311,0-62.125-27.814-62.125-62.125L43.47,69.47
	c2.489-5.974,8.327-9.866,14.799-9.866h395.462c6.472,0,12.31,3.892,14.799,9.866L504.5,155.798z"/>
<path style="fill:#DC4655;" d="M69.625,217.923c25.52,0,47.446-15.388,57.006-37.392c1.976-4.548,8.261-4.548,10.237,0
	c9.56,22.003,31.486,37.392,57.006,37.392s47.446-15.388,57.006-37.392c1.976-4.548,8.261-4.548,10.237,0
	c9.56,22.003,31.486,37.392,57.006,37.392s47.446-15.388,57.006-37.392c1.976-4.548,8.261-4.548,10.237,0
	c9.56,22.003,31.486,37.392,57.006,37.392c34.311,0,62.125-27.814,62.125-62.125H7.5C7.5,190.11,35.314,217.923,69.625,217.923z"/>
<polygon style="fill:#5D5360;" points="143.774,235.96 143.971,324.737 171.27,296.098 210.79,294.186 "/>
<path d="M56.113,380.25c0,4.143,3.357,7.5,7.5,7.5h384.773c4.143,0,7.5-3.357,7.5-7.5s-3.357-7.5-7.5-7.5H63.613
	C59.471,372.75,56.113,376.107,56.113,380.25z"/>
<path d="M496.483,404.814h-8.532V243.976c0-4.143-3.357-7.5-7.5-7.5s-7.5,3.357-7.5,7.5v160.839H39.049V243.976
	c0-4.143-3.357-7.5-7.5-7.5s-7.5,3.357-7.5,7.5v160.839h-8.532C6.961,404.814,0,411.775,0,420.331v16.032
	c0,12.976,10.557,23.532,23.532,23.532h464.936c12.976,0,23.532-10.557,23.532-23.532v-16.032
	C512,411.775,505.039,404.814,496.483,404.814z M497,436.363c0,4.705-3.827,8.532-8.532,8.532H23.532
	c-4.705,0-8.532-3.827-8.532-8.532v-16.032c0-0.285,0.231-0.517,0.517-0.517h208.961c-0.012,0.171-0.026,0.342-0.026,0.517
	c0,4.143,3.357,7.5,7.5,7.5h48.098c4.143,0,7.5-3.357,7.5-7.5c0-0.174-0.014-0.345-0.026-0.517h208.961
	c0.285,0,0.517,0.231,0.517,0.517v16.032H497z"/>
<path d="M69.625,225.424c27.095,0,50.624-15.556,62.125-38.207c11.501,22.651,35.03,38.207,62.125,38.207
	s50.624-15.556,62.125-38.207c11.501,22.651,35.03,38.207,62.125,38.207s50.624-15.556,62.125-38.207
	c11.501,22.651,35.03,38.207,62.125,38.207c38.392,0,69.625-31.233,69.625-69.625c0-0.99-0.196-1.971-0.577-2.885l-35.97-86.328
	c-3.665-8.797-12.191-14.481-21.722-14.481H58.269c-9.53,0-18.057,5.685-21.722,14.481l-35.97,86.328
	C0.196,153.828,0,154.809,0,155.799C0,194.19,31.233,225.424,69.625,225.424z M69.625,210.424c-27.576,0-50.434-20.541-54.1-47.125
	h108.198C120.054,189.881,97.2,210.424,69.625,210.424z M193.875,210.424c-27.575,0-50.429-20.543-54.097-47.125h108.195
	C244.304,189.881,221.45,210.424,193.875,210.424z M318.125,210.424c-27.575,0-50.429-20.543-54.097-47.125h108.195
	C368.554,189.881,345.7,210.424,318.125,210.424z M442.375,210.424c-27.575,0-50.429-20.543-54.097-47.125h108.198
	C492.809,189.883,469.951,210.424,442.375,210.424z M50.393,72.355c1.329-3.19,4.421-5.251,7.876-5.251h395.463
	c3.455,0,6.547,2.061,7.876,5.251l31.642,75.943H18.75L50.393,72.355z"/>
<path d="M217.877,296.641c1.003-2.895,0.145-6.107-2.168-8.116l-67.016-58.226c-2.221-1.931-5.366-2.383-8.037-1.16
	c-2.675,1.224-4.389,3.896-4.382,6.838l0.196,88.776c0.007,3.063,1.876,5.814,4.721,6.949c0.901,0.36,1.844,0.534,2.777,0.534
	c2.013,0,3.987-0.811,5.431-2.325l19.656-20.62l19.21,42.014c1.261,2.756,3.981,4.383,6.826,4.383c1.043,0,2.104-0.219,3.114-0.681
	c3.767-1.723,5.424-6.173,3.702-9.94l-19.21-42.013l28.454-1.377C214.212,301.528,216.874,299.535,217.877,296.641z
	 M170.908,288.606c-1.924,0.093-3.737,0.923-5.066,2.316l-14.412,15.119l-0.119-53.599l40.461,35.153L170.908,288.606z"/>
<g>
</g>
<g>
</g>
<g>
</g>
<g>
</g>
<g>
</g>
<g>
</g>
<g>
</g>
<g>
</g>
<g>
</g>
<g>
</g>
<g>
</g>
<g>
</g>
<g>
</g>
<g>
</g>
<g>
</g>
</svg>
