<?xml version="1.0" encoding="iso-8859-1"?>
<!-- Generator: Adobe Illustrator 19.0.0, SVG Export Plug-In . SVG Version: 6.00 Build 0)  -->
<svg version="1.1" id="Capa_1" xmlns="http://www.w3.org/2000/svg" xmlns:xlink="http://www.w3.org/1999/xlink" x="0px" y="0px"
	 viewBox="0 0 512 512" style="enable-background:new 0 0 512 512;" xml:space="preserve">
<path style="fill:#C0BCC1;" d="M456.403,59.605H55.597c-13.282,0-24.048,10.767-24.048,24.048v336.677h448.903V83.653
	C480.452,70.372,469.685,59.605,456.403,59.605z"/>
<rect x="31.548" y="91.67" style="fill:#E6646E;" width="448.9" height="288.58"/>
<path style="fill:#9C969E;" d="M488.468,452.395H23.532c-8.854,0-16.032-7.178-16.032-16.032v-16.032
	c0-4.427,3.589-8.016,8.016-8.016h480.968c4.427,0,8.016,3.589,8.016,8.016v16.032C504.5,445.217,497.322,452.395,488.468,452.395z"
	/>
<path style="fill:#DC4655;" d="M223.935,348.185c-88.544,0-160.323-71.779-160.323-160.323V91.669H31.548V380.25h448.903v-32.065
	H223.935z"/>
<path style="fill:#FFFFFF;" d="M199.092,187.863h-40.081c-8.854,0-16.032,7.178-16.032,16.032v32.065
	c0,8.854,7.178,16.032,16.032,16.032h40.081l93.316,35.891c5.251,2.019,10.894-1.856,10.894-7.482V159.454
	c0-5.626-5.643-9.501-10.894-7.482L199.092,187.863z"/>
<g>
	<path style="fill:#DEB6BB;" d="M191.871,243.976H151.79l28.431,80.172c1.702,4.799,6.241,8.005,11.333,8.005h23.642
		c3.875,0,6.584-3.835,5.289-7.487L191.871,243.976z"/>
	<path style="fill:#DEB6BB;" d="M329.294,202.376l-25.992-6.497v48.097l25.992-6.498c3.569-0.891,6.072-4.098,6.072-7.776v-19.547
		C335.367,206.476,332.863,203.269,329.294,202.376z"/>
</g>
<g>
	<path style="fill:#EDEBED;" d="M199.887,187.558l-0.795,0.305h-40.081c-8.855,0-16.032,7.178-16.032,16.032v32.065
		c0,8.854,7.178,16.032,16.032,16.032h40.081l0.795,0.305L199.887,187.558L199.887,187.558z"/>
	<path style="fill:#EDEBED;" d="M292.408,260.186l-93.316-35.891h-40.081c-8.855,0-16.032-7.178-16.032-16.032v27.696
		c0,8.854,7.178,16.032,16.032,16.032h40.081l93.316,35.891c5.251,2.02,10.894-1.856,10.894-7.482v-27.696
		C303.302,258.33,297.659,262.206,292.408,260.186z"/>
</g>
<path style="fill:#DBD9DC;" d="M199.887,224.601l-0.795-0.305h-40.081c-8.855,0-16.032-7.178-16.032-16.032v27.696
	c0,8.854,7.178,16.032,16.032,16.032h40.081l0.795,0.305L199.887,224.601L199.887,224.601z"/>
<path d="M448.387,84.169H63.613c-4.143,0-7.5,3.357-7.5,7.5s3.357,7.5,7.5,7.5h384.773c4.143,0,7.5-3.357,7.5-7.5
	S452.529,84.169,448.387,84.169z"/>
<path d="M448.387,372.75H63.613c-4.143,0-7.5,3.357-7.5,7.5s3.357,7.5,7.5,7.5h384.773c4.143,0,7.5-3.357,7.5-7.5
	S452.529,372.75,448.387,372.75z"/>
<path d="M496.483,404.814h-8.532V83.653c0-17.396-14.152-31.549-31.548-31.549H55.597c-17.396,0-31.548,14.152-31.548,31.549
	v321.161h-8.532C6.961,404.814,0,411.775,0,420.331v16.032c0,12.976,10.557,23.532,23.532,23.532h464.936
	c12.976,0,23.532-10.557,23.532-23.532v-16.032C512,411.775,505.039,404.814,496.483,404.814z M39.049,83.653
	c0-9.125,7.423-16.549,16.548-16.549h400.807c9.125,0,16.548,7.424,16.548,16.549v321.161H39.049V83.653z M497,436.363
	c0,4.705-3.827,8.532-8.532,8.532H23.532c-4.705,0-8.532-3.827-8.532-8.532v-16.032c0-0.285,0.231-0.517,0.517-0.517h208.961
	c-0.012,0.171-0.026,0.342-0.026,0.517c0,4.143,3.357,7.5,7.5,7.5h48.098c4.143,0,7.5-3.357,7.5-7.5
	c0-0.174-0.014-0.345-0.026-0.517h208.961c0.285,0,0.517,0.231,0.517,0.517v16.032H497z"/>
<path d="M304.071,146.664c-4.215-2.896-9.58-3.528-14.355-1.692L197.7,180.363h-38.688c-12.976,0-23.532,10.557-23.532,23.532
	v32.064c0,9.931,6.187,18.439,14.906,21.887l23.732,71.196c2.114,6.347,8.03,10.61,14.72,10.61h23.181
	c4.974,0,9.679-2.408,12.587-6.443c2.908-4.034,3.706-9.26,2.134-13.979l-18.57-55.712l81.547,31.364
	c1.804,0.693,3.691,1.035,5.57,1.035c3.093,0,6.161-0.926,8.783-2.727c4.216-2.896,6.732-7.677,6.732-12.791V249.83l20.312-5.078
	c6.92-1.729,11.753-7.919,11.753-15.053v-19.547c0-7.133-4.832-13.322-11.752-15.054l-20.313-5.078v-30.569
	C310.802,154.341,308.285,149.56,304.071,146.664z M150.479,203.896c0-4.705,3.827-8.532,8.532-8.532h32.581v49.129h-32.581
	c-4.705,0-8.532-3.827-8.532-8.532L150.479,203.896L150.479,203.896z M212.438,324.438c-0.154,0.215-0.333,0.215-0.419,0.215
	h-23.181c-0.223,0-0.419-0.142-0.489-0.354l-21.604-64.808h24.271l21.493,64.481C212.536,324.055,212.592,324.225,212.438,324.438z
	 M295.802,280.4c0,0.089,0,0.272-0.224,0.426s-0.396,0.089-0.478,0.057l-88.508-34.042v-53.827l88.507-34.042
	c0.081-0.033,0.254-0.099,0.479,0.056c0.224,0.154,0.224,0.338,0.224,0.426V280.4z M327.475,209.652
	c0.23,0.058,0.392,0.265,0.392,0.502v19.547c0,0.237-0.16,0.442-0.391,0.5l-16.674,4.168v-28.885L327.475,209.652z"/>
<path d="M415.012,219.928c0-4.143-3.357-7.5-7.5-7.5h-40.081c-4.143,0-7.5,3.357-7.5,7.5s3.357,7.5,7.5,7.5h40.081
	C411.654,227.428,415.012,224.07,415.012,219.928z"/>
<path d="M372.093,173.139l-16.032,8.017c-3.704,1.853-5.206,6.357-3.354,10.063c1.314,2.628,3.963,4.147,6.714,4.147
	c1.127,0,2.271-0.256,3.349-0.794l16.032-8.017c3.704-1.853,5.206-6.357,3.354-10.063
	C380.303,172.788,375.801,171.289,372.093,173.139z"/>
<path d="M362.769,245.284c-3.704-1.854-8.21-0.352-10.062,3.354c-1.853,3.704-0.351,8.21,3.354,10.062l16.032,8.016
	c1.076,0.539,2.221,0.794,3.348,0.794c2.751,0,5.4-1.52,6.714-4.148c1.853-3.704,0.351-8.21-3.354-10.062L362.769,245.284z"/>
<g>
</g>
<g>
</g>
<g>
</g>
<g>
</g>
<g>
</g>
<g>
</g>
<g>
</g>
<g>
</g>
<g>
</g>
<g>
</g>
<g>
</g>
<g>
</g>
<g>
</g>
<g>
</g>
<g>
</g>
</svg>
