<?xml version="1.0" encoding="iso-8859-1"?>
<!-- Generator: Adobe Illustrator 19.0.0, SVG Export Plug-In . SVG Version: 6.00 Build 0)  -->
<svg version="1.1" id="Capa_1" xmlns="http://www.w3.org/2000/svg" xmlns:xlink="http://www.w3.org/1999/xlink" x="0px" y="0px"
	 viewBox="0 0 511.999 511.999" style="enable-background:new 0 0 511.999 511.999;" xml:space="preserve">
<path style="fill:#FFFFFF;" d="M480.452,55.597H31.548C18.267,55.597,7.5,66.364,7.5,79.645v384.774
	c0,13.282,10.767,24.048,24.048,24.048h448.903c13.282,0,24.048-10.767,24.048-24.048V79.645
	C504.5,66.364,493.733,55.597,480.452,55.597z"/>
<g>
	<circle style="fill:#6F6571;" cx="183.85" cy="416.32" r="16.03"/>
	<circle style="fill:#6F6571;" cx="328.14" cy="416.32" r="16.03"/>
</g>
<path style="fill:#E6646E;" d="M480.452,55.597H31.548C18.267,55.597,7.5,66.364,7.5,79.645v40.081h497V79.645
	C504.5,66.364,493.733,55.597,480.452,55.597z"/>
<g>
	<path style="fill:#FFD164;" d="M79.645,87.661H63.613c-4.427,0-8.016-3.589-8.016-8.016V31.548c0-4.427,3.589-8.016,8.016-8.016
		h16.032c4.427,0,8.016,3.589,8.016,8.016v48.097C87.661,84.072,84.072,87.661,79.645,87.661z"/>
	<path style="fill:#FFD164;" d="M448.387,87.661h-16.032c-4.427,0-8.016-3.589-8.016-8.016V31.548c0-4.427,3.589-8.016,8.016-8.016
		h16.032c4.427,0,8.016,3.589,8.016,8.016v48.097C456.403,84.072,452.814,87.661,448.387,87.661z"/>
</g>
<path style="fill:#EDEBED;" d="M136.4,203.296l34.08,121.649c3.106,11.15,13.717,18.505,25.248,17.503l151.8-13.2
	c7.426-0.646,13.427-6.325,14.482-13.705l14.232-99.624L136.4,203.296z"/>
<path d="M480.452,48.097h-16.548V31.548c0-8.556-6.96-15.516-15.516-15.516h-16.032c-8.556,0-15.516,6.96-15.516,15.516v16.548
	H95.161V31.548c0-8.556-6.96-15.516-15.516-15.516H63.613c-8.556,0-15.516,6.96-15.516,15.516v16.548H31.548
	C14.152,48.097,0,62.249,0,79.646v384.774c0,17.396,14.152,31.548,31.548,31.548h448.903c17.396,0,31.548-14.152,31.548-31.548
	V79.646C512,62.249,497.848,48.097,480.452,48.097z M432.355,31.032h16.032c0.285,0,0.516,0.231,0.516,0.516v48.097
	c0,0.284-0.231,0.516-0.516,0.516h-16.032c-0.285,0-0.516-0.231-0.516-0.516V31.548C431.839,31.264,432.07,31.032,432.355,31.032z
	 M63.613,31.032h16.032c0.285,0,0.516,0.231,0.516,0.516v48.097c0,0.284-0.231,0.516-0.516,0.516H63.613
	c-0.285,0-0.516-0.231-0.516-0.516V31.548C63.097,31.264,63.328,31.032,63.613,31.032z M480.452,480.967H31.548
	c-9.125,0-16.548-7.424-16.548-16.548V127.226h24.563c4.142,0,7.5-3.357,7.5-7.5c0-4.142-3.358-7.5-7.5-7.5H15v-32.58
	c0-9.125,7.423-16.549,16.548-16.549h16.548v16.549c0,8.556,6.96,15.516,15.516,15.516h16.032c8.556,0,15.516-6.96,15.516-15.516
	V63.097h321.678v16.549c0,8.556,6.96,15.516,15.516,15.516h16.032c8.556,0,15.516-6.96,15.516-15.516V63.097h16.548
	c9.125,0,16.548,7.424,16.548,16.549v32.58h-24.564c-4.142,0-7.5,3.358-7.5,7.5c0,4.143,3.358,7.5,7.5,7.5H497v337.194
	C497,473.544,489.577,480.967,480.452,480.967z"/>
<path d="M440.371,112.226H71.629c-4.142,0-7.5,3.358-7.5,7.5c0,4.143,3.358,7.5,7.5,7.5h368.742c4.142,0,7.5-3.357,7.5-7.5
	C447.871,115.584,444.513,112.226,440.371,112.226z"/>
<path d="M376.637,208.43l-236.19-12.471c-1.909-2.725-4.245-5.151-6.922-7.156l-25.337-18.968
	c-3.315-2.482-8.016-1.807-10.499,1.509s-1.807,8.017,1.509,10.499l25.337,18.968c2.909,2.178,5.048,5.305,6.023,8.806
	l32.696,117.342c1.988,7.133,6.334,13.067,12.008,17.14l-23.131,40.479c-2.776,4.857-2.757,10.646,0.052,15.486
	c2.203,3.797,5.77,6.386,9.905,7.328c-1.135,2.756-1.766,5.771-1.766,8.932c0,12.976,10.557,23.532,23.532,23.532
	s23.532-10.557,23.532-23.532c0-3.009-0.574-5.885-1.608-8.532h100.441c-1.034,2.647-1.608,5.523-1.608,8.532
	c0,12.976,10.557,23.532,23.532,23.532s23.532-10.557,23.532-23.532c0-3.009-0.574-5.885-1.608-8.532h2.124
	c4.142,0,7.5-3.357,7.5-7.5c0-4.142-3.358-7.5-7.5-7.5h-186.59c-0.118,0-0.297,0-0.446-0.257s-0.061-0.412-0.002-0.515
	l24.171-42.299c1.415,0.196,2.848,0.32,4.304,0.32c0.91,0,1.828-0.039,2.749-0.119l151.799-13.2
	c10.96-0.953,19.701-9.226,21.257-20.116l14.232-99.623c0.297-2.084-0.294-4.198-1.631-5.824
	C380.698,209.53,378.739,208.541,376.637,208.43z M192.387,416.322c0,4.705-3.828,8.532-8.532,8.532s-8.532-3.827-8.532-8.532
	c0-4.704,3.828-8.532,8.532-8.532S192.387,411.618,192.387,416.322z M336.677,416.322c0,4.705-3.828,8.532-8.532,8.532
	s-8.532-3.827-8.532-8.532c0-4.704,3.828-8.532,8.532-8.532S336.677,411.618,336.677,416.322z M271.182,328.358v-25.986
	l36.746-0.866l-1.945,23.826L271.182,328.358z M226.576,332.237l-5.055-28.694l34.661-0.817v26.937L226.576,332.237z
	 M159.53,257.706l38.876,1.08l5.315,30.173l-35.252,0.831L159.53,257.706z M213.711,259.211l42.471,1.18v27.331l-37.293,0.879
	L213.711,259.211z M256.182,245.385l-45.127-1.253l-5.232-29.699l50.359,2.659V245.385z M271.182,217.883l43.386,2.291
	l-2.186,26.772l-41.2-1.145L271.182,217.883L271.182,217.883z M271.182,287.368v-26.561l39.978,1.11l-2.005,24.556L271.182,287.368z
	 M326.176,262.335l35.717,0.992l-3.14,21.977l-34.519,0.814L326.176,262.335z M364.028,248.38l-36.63-1.017l2.155-26.398
	l38.104,2.012L364.028,248.38z M190.449,213.62l5.3,30.086l-40.433-1.123l-8.715-31.278L190.449,213.62z M195.079,334.976
	c-7.922,0.692-15.237-4.375-17.375-12.044l-5.081-18.236l33.73-0.795l5.222,29.641L195.079,334.976z M346.878,321.776l-25.737,2.238
	l1.866-22.863l33.596-0.792l-2.018,14.124C354.021,318.432,350.852,321.431,346.878,321.776z"/>
<g>
</g>
<g>
</g>
<g>
</g>
<g>
</g>
<g>
</g>
<g>
</g>
<g>
</g>
<g>
</g>
<g>
</g>
<g>
</g>
<g>
</g>
<g>
</g>
<g>
</g>
<g>
</g>
<g>
</g>
</svg>
