<?xml version="1.0" encoding="iso-8859-1"?>
<!-- Generator: Adobe Illustrator 19.0.0, SVG Export Plug-In . SVG Version: 6.00 Build 0)  -->
<svg version="1.1" id="Capa_1" xmlns="http://www.w3.org/2000/svg" xmlns:xlink="http://www.w3.org/1999/xlink" x="0px" y="0px"
	 viewBox="0 0 512.001 512.001" style="enable-background:new 0 0 512.001 512.001;" xml:space="preserve">
<path style="fill:#EDEBED;" d="M408.306,504.502H55.597c-4.427,0-8.016-3.589-8.016-8.016V15.518c0-4.427,3.589-8.016,8.016-8.016
	h265.909c4.252,0,8.33,1.689,11.336,4.696l78.785,78.782c3.007,3.007,4.696,7.085,4.696,11.337v394.169
	C416.323,500.913,412.734,504.502,408.306,504.502z"/>
<g>
	<path style="fill:#DBD9DC;" d="M336.161,95.679c-4.427,0-8.016-3.589-8.016-8.016V8.991c-2.071-0.945-4.319-1.489-6.64-1.489
		h-17.409v80.161c0,17.709,14.356,32.065,32.065,32.065h80.161v-17.412c0-2.319-0.543-4.566-1.488-6.636l0,0L336.161,95.679
		L336.161,95.679z"/>
	<path style="fill:#DBD9DC;" d="M416.323,256.002H87.661c-8.854,0-16.032,7.178-16.032,16.032v96.194
		c0,22.136,17.945,40.081,40.081,40.081h304.613V256.002z"/>
</g>
<path style="fill:#FFD164;" d="M448.387,384.26H111.71c-8.854,0-16.032-7.178-16.032-16.032V256.002
	c0-8.854,7.178-16.032,16.032-16.032h336.677c8.854,0,16.032,7.178,16.032,16.032v112.226
	C464.419,377.082,457.241,384.26,448.387,384.26z"/>
<path style="fill:#FFC350;" d="M175.839,360.212c-30.99,0-56.113-25.123-56.113-56.113V239.97h-8.016
	c-8.854,0-16.032,7.178-16.032,16.032v112.226c0,8.854,7.178,16.032,16.032,16.032h336.677c8.854,0,16.032-7.178,16.032-16.032
	v-8.016H175.839z"/>
<path d="M416.323,120.243c-4.142,0-7.5,3.357-7.5,7.5v80.161c0,4.143,3.358,7.5,7.5,7.5s7.5-3.357,7.5-7.5v-80.161
	C423.823,123.601,420.465,120.243,416.323,120.243z"/>
<path d="M416.323,408.827c-4.142,0-7.5,3.357-7.5,7.5v80.158c0,0.285-0.231,0.517-0.516,0.517H55.597
	c-0.285,0-0.516-0.231-0.516-0.517V15.519c0-0.285,0.231-0.517,0.516-0.517h265.048v72.661c0,8.556,6.96,15.517,15.516,15.517
	h80.162c3.034,0,5.768-1.827,6.929-4.63c1.161-2.803,0.519-6.028-1.626-8.174L333.448,2.198c-0.063-0.063-0.127-0.124-0.192-0.185
	c-0.001-0.002-0.003-0.003-0.004-0.004c-0.003-0.004-0.007-0.007-0.01-0.01c-0.002-0.003-0.006-0.006-0.008-0.008
	c-0.002-0.002-0.004-0.004-0.006-0.006c-0.004-0.004-0.009-0.008-0.014-0.013c0,0-0.001,0-0.001-0.001
	c-1.324-1.214-3.085-1.959-5.021-1.971l0,0c-0.015,0.001-0.03,0.001-0.046,0H55.597c-8.556,0-15.516,6.961-15.516,15.517v480.967
	c0,8.556,6.96,15.517,15.516,15.517h352.71c8.556,0,15.516-6.961,15.516-15.517v-80.158
	C423.823,412.185,420.465,408.827,416.323,408.827z M335.645,25.608l62.571,62.571h-62.055c-0.285,0-0.516-0.231-0.516-0.517
	L335.645,25.608L335.645,25.608z"/>
<path d="M448.387,232.47H111.709c-12.976,0-23.532,10.557-23.532,23.532v112.226c0,12.976,10.557,23.532,23.532,23.532h336.678
	c12.976,0,23.532-10.557,23.532-23.532V256.002C471.919,243.026,461.363,232.47,448.387,232.47z M456.919,368.228
	c0,4.705-3.828,8.532-8.532,8.532H111.709c-4.705,0-8.532-3.827-8.532-8.532V256.002c0-4.705,3.828-8.532,8.532-8.532h336.678
	c4.705,0,8.532,3.827,8.532,8.532L456.919,368.228L456.919,368.228z"/>
<path d="M127.742,272.551c-4.142,0-7.5,3.357-7.5,7.5v64.129c0,4.143,3.358,7.5,7.5,7.5s7.5-3.357,7.5-7.5v-64.129
	C135.242,275.908,131.884,272.551,127.742,272.551z"/>
<path d="M325.673,272.551c-4.142,0-7.5,3.357-7.5,7.5v64.129c0,4.143,3.358,7.5,7.5,7.5s7.5-3.357,7.5-7.5v-64.129
	C333.173,275.908,329.815,272.551,325.673,272.551z"/>
<path d="M186.861,272.551c-4.142,0-7.5,3.357-7.5,7.5v32.358l-17.856-35.713c-1.555-3.11-5.046-4.747-8.431-3.945
	c-3.385,0.8-5.777,3.821-5.777,7.3v64.129c0,4.143,3.358,7.5,7.5,7.5s7.5-3.357,7.5-7.5v-32.358l17.856,35.713
	c1.291,2.582,3.916,4.146,6.706,4.146c0.571,0,1.15-0.065,1.725-0.201c3.385-0.8,5.777-3.821,5.777-7.3v-64.129
	C194.361,275.908,191.003,272.551,186.861,272.551z"/>
<path d="M246.296,272.774c-4.012-0.998-8.09,1.439-9.095,5.457l-8.757,35.025l-8.756-35.025c-1.005-4.019-5.079-6.459-9.095-5.457
	c-4.019,1.005-6.462,5.077-5.457,9.096l16.032,64.129c0.834,3.339,3.834,5.681,7.276,5.681s6.441-2.343,7.276-5.681l16.033-64.129
	C252.758,277.852,250.314,273.779,246.296,272.774z"/>
<path d="M283.054,272.551c-12.976,0-23.532,10.557-23.532,23.532v32.064c0,12.976,10.557,23.532,23.533,23.532
	c12.976,0,23.532-10.557,23.532-23.532v-32.064C306.587,283.107,296.03,272.551,283.054,272.551z M291.587,328.148
	c0,4.705-3.828,8.532-8.532,8.532l0,0c-4.705,0-8.532-3.827-8.532-8.532v-32.064c0-4.705,3.828-8.532,8.533-8.532
	s8.532,3.827,8.532,8.532L291.587,328.148L291.587,328.148z"/>
<path d="M385.868,329.672c-3.584-2.072-8.173-0.849-10.248,2.736c-1.524,2.635-4.357,4.271-7.395,4.271
	c-4.705,0-8.532-3.827-8.532-8.532v-32.064c0-4.705,3.828-8.532,8.532-8.532c3.036,0,5.87,1.636,7.394,4.268
	c2.076,3.586,6.665,4.81,10.249,2.732c3.584-2.075,4.808-6.664,2.732-10.248c-4.197-7.249-12.004-11.752-20.375-11.752
	c-12.976,0-23.532,10.557-23.532,23.532v32.064c0,12.976,10.557,23.532,23.532,23.532c8.374,0,16.183-4.506,20.379-11.76
	C390.679,336.334,389.454,331.746,385.868,329.672z"/>
<path d="M432.355,287.551c4.142,0,7.5-3.357,7.5-7.5s-3.358-7.5-7.5-7.5h-24.048c-4.142,0-7.5,3.357-7.5,7.5v64.129
	c0,4.143,3.358,7.5,7.5,7.5h24.048c4.142,0,7.5-3.357,7.5-7.5s-3.358-7.5-7.5-7.5h-16.548v-17.064h16.548c4.142,0,7.5-3.357,7.5-7.5
	s-3.358-7.5-7.5-7.5h-16.548v-17.064h16.548V287.551z"/>
<g>
</g>
<g>
</g>
<g>
</g>
<g>
</g>
<g>
</g>
<g>
</g>
<g>
</g>
<g>
</g>
<g>
</g>
<g>
</g>
<g>
</g>
<g>
</g>
<g>
</g>
<g>
</g>
<g>
</g>
</svg>
