<?xml version="1.0" encoding="iso-8859-1"?>
<!-- Generator: Adobe Illustrator 19.0.0, SVG Export Plug-In . SVG Version: 6.00 Build 0)  -->
<svg version="1.1" id="Capa_1" xmlns="http://www.w3.org/2000/svg" xmlns:xlink="http://www.w3.org/1999/xlink" x="0px" y="0px"
	 viewBox="0 0 512 512" style="enable-background:new 0 0 512 512;" xml:space="preserve">
<path style="fill:#6F6571;" d="M336.161,151.79H175.839c-13.282,0-24.048,10.767-24.048,24.048v304.613
	c0,13.282,10.767,24.048,24.048,24.048h160.323c13.282,0,24.048-10.767,24.048-24.048V175.839
	C360.21,162.557,349.443,151.79,336.161,151.79z"/>
<rect x="151.79" y="183.85" style="fill:#FFE17D;" width="208.42" height="272.55"/>
<path style="fill:#FFD164;" d="M264.016,432.355c-44.272,0-80.161-35.889-80.161-80.161V183.855H151.79v272.548h208.42v-24.048
	H264.016z"/>
<path style="fill:#FF8587;" d="M312.113,368.226H199.887c-8.854,0-16.032-7.178-16.032-16.032v-64.129
	c0-8.854,7.178-16.032,16.032-16.032h112.226c8.854,0,16.032,7.178,16.032,16.032v64.129
	C328.145,361.048,320.967,368.226,312.113,368.226z"/>
<path d="M233.691,105.434c-2.929,2.93-2.929,7.678,0,10.607c2.93,2.928,7.678,2.928,10.607,0c6.451-6.453,16.951-6.453,23.402,0
	c1.465,1.464,3.385,2.196,5.304,2.196c1.919,0,3.839-0.732,5.304-2.196c2.929-2.93,2.929-7.678,0-10.607
	C266.008,93.133,245.992,93.133,233.691,105.434z"/>
<path d="M307.015,84.228c1.919,0,3.839-0.732,5.304-2.196c2.929-2.93,2.929-7.678,0-10.607c-31.055-31.053-81.582-31.053-112.637,0
	c-2.929,2.93-2.929,7.678,0,10.607c2.93,2.928,7.678,2.928,10.607,0c25.205-25.207,66.217-25.207,91.422,0
	C303.176,83.495,305.096,84.228,307.015,84.228z"/>
<path d="M176.28,48.021C197.574,26.728,225.886,15,256,15c30.114,0,58.426,11.728,79.72,33.021c1.465,1.464,3.385,2.196,5.304,2.196
	c1.919,0,3.839-0.732,5.304-2.196c2.929-2.93,2.929-7.678,0-10.607C322.199,13.287,290.121,0,256,0s-66.199,13.287-90.327,37.414
	c-2.929,2.93-2.929,7.678,0,10.607C168.603,50.949,173.351,50.949,176.28,48.021z"/>
<path d="M336.161,144.29H175.839c-17.396,0-31.549,14.152-31.549,31.549v304.612c0,17.396,14.152,31.549,31.549,31.549h160.322
	c17.396,0,31.549-14.152,31.549-31.549V175.839C367.71,158.442,353.558,144.29,336.161,144.29z M352.71,480.451
	c0,9.125-7.424,16.549-16.549,16.549H175.839c-9.125,0-16.549-7.424-16.549-16.549V175.839c0-9.125,7.424-16.549,16.549-16.549
	h160.322c9.125,0,16.549,7.424,16.549,16.549L352.71,480.451L352.71,480.451z"/>
<path d="M328.146,176.354H183.854c-4.143,0-7.5,3.357-7.5,7.5s3.357,7.5,7.5,7.5h144.291c4.143,0,7.5-3.357,7.5-7.5
	S332.288,176.354,328.146,176.354z"/>
<path d="M328.146,448.903H183.854c-4.143,0-7.5,3.357-7.5,7.5s3.357,7.5,7.5,7.5h144.291c4.143,0,7.5-3.357,7.5-7.5
	S332.288,448.903,328.146,448.903z"/>
<path d="M264.017,472.951h-16.033c-4.143,0-7.5,3.357-7.5,7.5s3.357,7.5,7.5,7.5h16.033c4.143,0,7.5-3.357,7.5-7.5
	S268.159,472.951,264.017,472.951z"/>
<path d="M312.113,264.532H199.887c-12.976,0-23.532,10.557-23.532,23.532v64.129c0,12.976,10.557,23.532,23.532,23.532h112.227
	c12.976,0,23.532-10.557,23.532-23.532v-64.129C335.646,275.089,325.089,264.532,312.113,264.532z M320.646,352.193
	c0,4.705-3.827,8.532-8.532,8.532H199.887c-4.705,0-8.532-3.827-8.532-8.532v-64.129c0-4.705,3.827-8.532,8.532-8.532h112.227
	c4.705,0,8.532,3.827,8.532,8.532V352.193z"/>
<path d="M296.081,328.661h-80.162c-4.143,0-7.5,3.357-7.5,7.5s3.357,7.5,7.5,7.5h80.162c4.143,0,7.5-3.357,7.5-7.5
	S300.224,328.661,296.081,328.661z"/>
<path d="M215.919,311.597h16.032c4.143,0,7.5-3.357,7.5-7.5s-3.357-7.5-7.5-7.5h-16.032c-4.143,0-7.5,3.357-7.5,7.5
	S211.776,311.597,215.919,311.597z"/>
<g>
</g>
<g>
</g>
<g>
</g>
<g>
</g>
<g>
</g>
<g>
</g>
<g>
</g>
<g>
</g>
<g>
</g>
<g>
</g>
<g>
</g>
<g>
</g>
<g>
</g>
<g>
</g>
<g>
</g>
</svg>
