<?xml version="1.0" encoding="iso-8859-1"?>
<!-- Generator: Adobe Illustrator 19.0.0, SVG Export Plug-In . SVG Version: 6.00 Build 0)  -->
<svg version="1.1" id="Capa_1" xmlns="http://www.w3.org/2000/svg" xmlns:xlink="http://www.w3.org/1999/xlink" x="0px" y="0px"
	 viewBox="0 0 512 512" style="enable-background:new 0 0 512 512;" xml:space="preserve">
<path style="fill:#DBD9DC;" d="M368.227,95.677V31.548c0-13.282-10.767-24.048-24.048-24.048h-64.129
	C266.767,7.5,256,18.267,256,31.548v64.129c0,13.282-10.767,24.048-24.048,24.048v272.548c13.282,0,24.048,10.767,24.048,24.048
	v64.129c0,13.282,10.767,24.048,24.048,24.048h64.129c13.282,0,24.048-10.767,24.048-24.048v-64.129
	c0-13.282,10.767-24.048,24.048-24.048V119.726C378.993,119.726,368.227,108.959,368.227,95.677z"/>
<g>
	<path style="fill:#C9C6CA;" d="M296.081,7.5h-16.032C266.767,7.5,256,18.267,256,31.548v64.129
		c0,13.282-10.767,24.048-24.048,24.048h56.113V15.516C288.065,11.089,291.654,7.5,296.081,7.5z"/>
	<path style="fill:#C9C6CA;" d="M296.081,504.5h-16.032c-13.282,0-24.048-10.767-24.048-24.048v-64.129
		c0-13.282-10.767-24.048-24.048-24.048h56.113v104.21C288.065,500.911,291.654,504.5,296.081,504.5z"/>
</g>
<path style="fill:#DBD9DC;" d="M440.371,175.839h-16.032v64.129h16.032c8.854,0,16.032-7.179,16.032-16.032v-32.065
	C456.404,183.016,449.225,175.839,440.371,175.839z"/>
<path style="fill:#6F6571;" d="M392.274,392.274H231.952c-17.709,0-32.065-14.356-32.065-32.065V151.79
	c0-17.709,14.356-32.065,32.065-32.065h160.323c17.709,0,32.065,14.356,32.065,32.065v208.42
	C424.339,377.918,409.983,392.274,392.274,392.274z"/>
<path style="fill:#FF8587;" d="M368.227,304.097H256c-8.854,0-16.032-7.178-16.032-16.032v-64.129
	c0-8.854,7.178-16.032,16.032-16.032h112.226c8.854,0,16.032,7.178,16.032,16.032v64.129
	C384.258,296.919,377.08,304.097,368.227,304.097z"/>
<path style="fill:#5D5360;" d="M272.033,352.194c-17.709,0-32.065-14.356-32.065-32.065V119.726h-8.016
	c-17.709,0-32.065,14.355-32.065,32.065V360.21c0,17.708,14.356,32.065,32.065,32.065h160.323c17.709,0,32.065-14.356,32.065-32.065
	v-8.016H272.033z"/>
<path d="M164.137,233.691c-2.929-2.928-7.678-2.928-10.606,0c-12.301,12.301-12.301,32.316,0,44.617
	c1.464,1.464,3.384,2.196,5.303,2.196s3.839-0.732,5.303-2.196c2.929-2.93,2.929-7.678,0-10.607
	c-3.125-3.125-4.847-7.281-4.847-11.701s1.722-8.576,4.847-11.701C167.066,241.369,167.066,236.621,164.137,233.691z"/>
<path d="M130.127,199.682c-2.929-2.928-7.678-2.928-10.606,0c-31.053,31.055-31.053,81.582,0,112.637
	c1.464,1.464,3.384,2.196,5.303,2.196s3.839-0.732,5.303-2.196c2.929-2.93,2.929-7.678,0-10.607
	c-25.205-25.205-25.205-66.217,0-91.422C133.057,207.359,133.057,202.611,130.127,199.682z"/>
<path d="M63.097,256c0-30.114,11.728-58.426,33.021-79.72c2.929-2.93,2.929-7.678,0-10.607c-2.928-2.927-7.677-2.929-10.606,0
	C61.384,189.801,48.097,221.879,48.097,256s13.288,66.199,37.415,90.327c1.464,1.464,3.384,2.196,5.303,2.196
	s3.839-0.732,5.303-2.196c2.929-2.93,2.929-7.678,0-10.607C74.824,314.426,63.097,286.114,63.097,256z"/>
<path d="M440.371,168.339h-8.532V151.79c0-21.816-17.749-39.564-39.564-39.564c-9.125,0-16.549-7.423-16.549-16.548V31.549
	C375.727,14.152,361.573,0,344.177,0h-64.129C262.652,0,248.5,14.152,248.5,31.549v64.129c0,9.125-7.423,16.548-16.548,16.548
	c-21.816,0-39.564,17.749-39.564,39.564v208.42c0,21.816,17.749,39.564,39.564,39.564c9.125,0,16.548,7.423,16.548,16.548v64.129
	c0,17.396,14.152,31.549,31.548,31.549h64.129c17.396,0,31.548-14.152,31.548-31.549v-64.129c0-9.125,7.424-16.548,16.549-16.548
	c21.816,0,39.564-17.749,39.564-39.564V247.468h8.532c12.976,0,23.532-10.557,23.532-23.532v-32.064
	C463.904,178.896,453.347,168.339,440.371,168.339z M416.839,360.21c0,13.545-11.02,24.564-24.564,24.564h-104.21
	c-4.142,0-7.5,3.357-7.5,7.5s3.358,7.5,7.5,7.5h77.364c-2.979,4.814-4.703,10.482-4.703,16.548v64.129
	c0,9.125-7.423,16.549-16.548,16.549h-64.129c-9.125,0-16.548-7.424-16.548-16.549v-64.129c0-17.396-14.152-31.548-31.548-31.548
	c-13.545,0-24.564-11.02-24.564-24.564V151.79c0-13.545,11.02-24.564,24.564-24.564h104.209c4.142,0,7.5-3.357,7.5-7.5
	s-3.358-7.5-7.5-7.5h-77.364c2.979-4.814,4.703-10.482,4.703-16.548V31.549c0-9.125,7.423-16.549,16.548-16.549h64.129
	c9.125,0,16.548,7.424,16.548,16.549v64.129c0,17.396,14.153,31.548,31.549,31.548c13.545,0,24.564,11.02,24.564,24.564V360.21z
	 M448.904,223.936c0,4.705-3.828,8.532-8.532,8.532h-8.532v-49.129h8.532c4.705,0,8.532,3.827,8.532,8.532V223.936z"/>
<path d="M368.227,200.403H256c-12.976,0-23.532,10.557-23.532,23.532v64.129c0,12.976,10.557,23.532,23.532,23.532h112.226
	c12.976,0,23.533-10.557,23.533-23.532v-64.129C391.758,210.96,381.202,200.403,368.227,200.403z M376.758,288.064
	c0,4.705-3.828,8.532-8.533,8.532H256c-4.705,0-8.532-3.827-8.532-8.532v-64.129c0-4.705,3.828-8.532,8.532-8.532h112.226
	c4.705,0,8.533,3.827,8.533,8.532v64.129H376.758z"/>
<path d="M352.193,264.532h-80.161c-4.142,0-7.5,3.357-7.5,7.5s3.358,7.5,7.5,7.5h80.161c4.142,0,7.5-3.357,7.5-7.5
	S356.335,264.532,352.193,264.532z"/>
<path d="M272.033,247.468h16.032c4.142,0,7.5-3.357,7.5-7.5s-3.358-7.5-7.5-7.5h-16.032c-4.142,0-7.5,3.357-7.5,7.5
	S267.891,247.468,272.033,247.468z"/>
<g>
</g>
<g>
</g>
<g>
</g>
<g>
</g>
<g>
</g>
<g>
</g>
<g>
</g>
<g>
</g>
<g>
</g>
<g>
</g>
<g>
</g>
<g>
</g>
<g>
</g>
<g>
</g>
<g>
</g>
</svg>
