<?xml version="1.0" encoding="iso-8859-1"?>
<!-- Generator: Adobe Illustrator 19.0.0, SVG Export Plug-In . SVG Version: 6.00 Build 0)  -->
<svg version="1.1" id="Capa_1" xmlns="http://www.w3.org/2000/svg" xmlns:xlink="http://www.w3.org/1999/xlink" x="0px" y="0px"
	 viewBox="0 0 512 512" style="enable-background:new 0 0 512 512;" xml:space="preserve">
<rect x="7.5" y="71.629" style="fill:#EDEBED;" width="400.81" height="208.42"/>
<path style="fill:#DBD9DC;" d="M369.823,135.115c-12.619-2.576-22.428-12.384-25.003-25.003l-1.307-6.419H72.294l-1.307,6.419
	c-2.575,12.619-12.384,22.428-25.003,25.003l-6.419,1.307v78.83l6.419,1.307c12.619,2.576,22.428,12.384,25.003,25.003l1.307,6.419
	h271.218l1.307-6.419c2.576-12.619,12.384-22.428,25.003-25.003l6.419-1.307v-78.83L369.823,135.115z"/>
<circle style="fill:#FFD164;" cx="392.27" cy="328.14" r="112.23"/>
<circle style="fill:#FFE17D;" cx="392.27" cy="328.14" r="88.18"/>
<g>
	<circle style="fill:#AEA8AF;" cx="95.68" cy="175.839" r="16.03"/>
	<circle style="fill:#AEA8AF;" cx="320.13" cy="175.839" r="16.03"/>
</g>
<path style="fill:#C0BCC1;" d="M207.903,103.693c-35.357,0-64.129,32.365-64.129,72.145s28.772,72.145,64.129,72.145
	s64.129-32.365,64.129-72.145S243.26,103.693,207.903,103.693z"/>
<g>
	<path style="fill:#6F6571;" d="M360.21,280.047c-8.846,0-16.032,7.186-16.032,16.032s7.186,16.032,16.032,16.032
		s16.032-7.186,16.032-16.032C376.242,287.234,369.056,280.047,360.21,280.047z"/>
	<path style="fill:#6F6571;" d="M424.339,280.047c-8.846,0-16.032,7.186-16.032,16.032s7.186,16.032,16.032,16.032
		s16.032-7.186,16.032-16.032C440.371,287.234,433.185,280.047,424.339,280.047z"/>
	<path style="fill:#6F6571;" d="M360.21,344.177c-8.846,0-16.032,7.186-16.032,16.032s7.186,16.032,16.032,16.032
		s16.032-7.186,16.032-16.032C376.242,351.364,369.056,344.177,360.21,344.177z"/>
	<path style="fill:#6F6571;" d="M424.339,344.177c-8.846,0-16.032,7.186-16.032,16.032s7.186,16.032,16.032,16.032
		s16.032-7.186,16.032-16.032C440.371,351.364,433.185,344.177,424.339,344.177z"/>
</g>
<path d="M392.274,208.419c-66.017,0-119.726,53.709-119.726,119.727c0,66.017,53.709,119.726,119.726,119.726
	S512,394.161,512,328.146C512,262.128,458.291,208.419,392.274,208.419z M424.339,287.549c4.705,0,8.532,3.827,8.532,8.532
	s-3.827,8.532-8.532,8.532s-8.532-3.827-8.532-8.532S419.634,287.549,424.339,287.549z M360.21,287.549
	c4.705,0,8.532,3.827,8.532,8.532s-3.827,8.532-8.532,8.532s-8.532-3.827-8.532-8.532S355.505,287.549,360.21,287.549z
	 M352.708,231.188v42.594c-6.95,2.344-12.454,7.849-14.798,14.799h-42.594C305.954,262.607,326.734,241.826,352.708,231.188z
	 M360.21,368.742c-4.705,0-8.532-3.827-8.532-8.532s3.827-8.532,8.532-8.532s8.532,3.827,8.532,8.532
	S364.915,368.742,360.21,368.742z M367.71,429.953V382.51c9.308-3.139,16.032-11.946,16.032-22.3
	c0-12.976-10.557-23.532-23.532-23.532s-23.532,10.557-23.532,23.532c0,10.354,6.724,19.16,16.032,22.3v42.594
	c-38.188-15.64-65.161-53.205-65.161-96.958c0-8.458,1.015-16.682,2.917-24.564h47.445c3.139,9.308,11.946,16.032,22.3,16.032
	c12.976,0,23.532-10.557,23.532-23.532c0-10.354-6.725-19.162-16.034-22.3v-47.444c7.883-1.902,16.108-2.917,24.566-2.917
	c8.457,0,16.681,1.015,24.563,2.917v47.447c-9.307,3.14-16.03,11.946-16.03,22.299c0,12.976,10.557,23.532,23.532,23.532
	s23.532-10.557,23.532-23.532c0-10.354-6.725-19.162-16.034-22.3v-42.595C470.026,246.826,497,284.391,497,328.146
	c0,8.458-1.015,16.682-2.917,24.564h-47.445c-3.139-9.308-11.946-16.032-22.3-16.032c-12.976,0-23.532,10.557-23.532,23.532
	c0,10.354,6.724,19.16,16.032,22.3v47.445c-7.882,1.902-16.106,2.917-24.564,2.917S375.592,431.855,367.71,429.953z
	 M424.339,368.742c-4.705,0-8.532-3.827-8.532-8.532s3.827-8.532,8.532-8.532s8.532,3.827,8.532,8.532
	S429.044,368.742,424.339,368.742z M431.839,425.102V382.51c6.951-2.344,12.455-7.849,14.8-14.8h42.594
	C478.594,393.685,457.813,414.464,431.839,425.102z"/>
<path d="M32.024,103.692c0,4.143,3.398,7.54,7.54,7.54s7.54-3.397,7.54-7.54s-3.398-7.54-7.54-7.54S32.024,99.55,32.024,103.692z"/>
<path d="M39.564,255.482c4.142,0,7.54-3.397,7.54-7.54s-3.398-7.54-7.54-7.54s-7.54,3.397-7.54,7.54S35.422,255.482,39.564,255.482z
	"/>
<path d="M368.742,103.692c0,4.143,3.397,7.54,7.54,7.54s7.54-3.397,7.54-7.54s-3.397-7.54-7.54-7.54S368.742,99.55,368.742,103.692z
	"/>
<path d="M95.677,152.307c-12.976,0-23.532,10.557-23.532,23.532s10.557,23.532,23.532,23.532s23.532-10.557,23.532-23.532
	S108.653,152.307,95.677,152.307z M95.677,184.37c-4.705,0-8.532-3.827-8.532-8.532s3.828-8.532,8.532-8.532
	s8.532,3.827,8.532,8.532S100.382,184.37,95.677,184.37z"/>
<path d="M320.129,152.307c-12.976,0-23.532,10.557-23.532,23.532s10.557,23.532,23.532,23.532s23.532-10.557,23.532-23.532
	S333.104,152.307,320.129,152.307z M320.129,184.37c-4.705,0-8.532-3.827-8.532-8.532s3.827-8.532,8.532-8.532
	s8.532,3.827,8.532,8.532S324.834,184.37,320.129,184.37z"/>
<path d="M205.019,182.761c9.767,4.069,11.417,6.344,11.417,11.113c0,3.539-3.907,6.528-8.532,6.528c-4.53,0-7.63-2.619-8.352-5.206
	c-1.112-3.989-5.244-6.321-9.239-5.21c-3.99,1.113-6.322,5.249-5.209,9.239c2.013,7.218,7.888,12.779,15.3,15.052v1.64
	c0,4.143,3.358,7.5,7.5,7.5s7.5-3.357,7.5-7.5v-1.643c9.308-2.872,16.032-10.928,16.032-20.401
	c0-15.093-10.658-20.797-20.648-24.959c-9.767-4.069-11.417-6.344-11.417-11.113c0-3.539,3.907-6.528,8.532-6.528
	c4.53,0,7.63,2.619,8.352,5.205c1.113,3.989,5.249,6.32,9.239,5.21c3.99-1.113,6.322-5.25,5.209-9.239
	c-2.013-7.218-7.888-12.778-15.3-15.052v-1.641c0-4.143-3.358-7.5-7.5-7.5s-7.5,3.357-7.5,7.5v1.644
	c-9.308,2.872-16.032,10.928-16.032,20.401C184.371,172.895,195.029,178.6,205.019,182.761z"/>
<path d="M256,272.549H15V79.128h385.807v104.725c0,4.143,3.357,7.5,7.5,7.5s7.5-3.357,7.5-7.5V71.628c0-4.143-3.357-7.5-7.5-7.5H7.5
	c-4.142,0-7.5,3.357-7.5,7.5v208.42c0,4.143,3.358,7.5,7.5,7.5H256c4.143,0,7.5-3.357,7.5-7.5S260.143,272.549,256,272.549z"/>
<path d="M279.533,247.982c0-4.143-3.357-7.5-7.5-7.5h-22.366c18.068-14.473,29.865-38.049,29.865-64.645
	s-11.797-50.172-29.865-64.646h87.724c3.046,15.813,15.538,28.306,31.352,31.352v41.311c0,4.143,3.357,7.5,7.5,7.5
	s7.5-3.357,7.5-7.5v-48.098c0-4.143-3.357-7.5-7.5-7.5c-13.545,0-24.564-11.02-24.564-24.564c0-4.143-3.357-7.5-7.5-7.5H71.629
	c-4.142,0-7.5,3.357-7.5,7.5c0,13.545-11.02,24.564-24.564,24.564c-4.142,0-7.5,3.357-7.5,7.5v80.161c0,4.143,3.358,7.5,7.5,7.5
	c13.545,0,24.564,11.02,24.564,24.564c0,4.143,3.358,7.5,7.5,7.5h200.404C276.176,255.482,279.533,252.126,279.533,247.982z
	 M264.532,175.839c0,35.646-25.404,64.645-56.629,64.645s-56.629-28.999-56.629-64.645s25.404-64.646,56.629-64.646
	S264.532,140.192,264.532,175.839z M78.416,240.482c-3.046-15.813-15.538-28.306-31.352-31.352v-66.587
	c15.814-3.046,28.305-15.538,31.352-31.352h87.724c-18.068,14.473-29.865,38.049-29.865,64.646
	c0,26.596,11.797,50.172,29.865,64.645H78.416z"/>
<g>
</g>
<g>
</g>
<g>
</g>
<g>
</g>
<g>
</g>
<g>
</g>
<g>
</g>
<g>
</g>
<g>
</g>
<g>
</g>
<g>
</g>
<g>
</g>
<g>
</g>
<g>
</g>
<g>
</g>
</svg>
