<?xml version="1.0" encoding="iso-8859-1"?>
<!-- Generator: Adobe Illustrator 19.0.0, SVG Export Plug-In . SVG Version: 6.00 Build 0)  -->
<svg version="1.1" id="Capa_1" xmlns="http://www.w3.org/2000/svg" xmlns:xlink="http://www.w3.org/1999/xlink" x="0px" y="0px"
	 viewBox="0 0 511.999 511.999" style="enable-background:new 0 0 511.999 511.999;" xml:space="preserve">
<path style="fill:#FFFFFF;" d="M480.452,55.597H31.548C18.267,55.597,7.5,66.364,7.5,79.645v384.774
	c0,13.282,10.767,24.048,24.048,24.048h448.903c13.282,0,24.048-10.767,24.048-24.048V79.645
	C504.5,66.364,493.733,55.597,480.452,55.597z"/>
<path style="fill:#E6646E;" d="M480.452,55.597H31.548C18.267,55.597,7.5,66.364,7.5,79.645v40.081h497V79.645
	C504.5,66.364,493.733,55.597,480.452,55.597z"/>
<g>
	<path style="fill:#FFD164;" d="M79.645,87.661H63.613c-4.427,0-8.016-3.589-8.016-8.016V31.548c0-4.427,3.589-8.016,8.016-8.016
		h16.032c4.427,0,8.016,3.589,8.016,8.016v48.097C87.661,84.072,84.072,87.661,79.645,87.661z"/>
	<path style="fill:#FFD164;" d="M448.387,87.661h-16.032c-4.427,0-8.016-3.589-8.016-8.016V31.548c0-4.427,3.589-8.016,8.016-8.016
		h16.032c4.427,0,8.016,3.589,8.016,8.016v48.097C456.403,84.072,452.814,87.661,448.387,87.661z"/>
</g>
<path style="fill:#C9C6CA;" d="M411.45,301.519l-27.192-5.438l-19.617-39.234c-2.716-5.432-8.267-8.863-14.34-8.863h-54.22v120.242
	h99.355c3.165,0,6.26-0.937,8.893-2.693l12.871-8.581c4.46-2.973,7.139-7.979,7.139-13.339V317.24
	C424.339,309.596,418.944,303.018,411.45,301.519z"/>
<path style="fill:#DBD9DC;" d="M424.339,317.239c0-7.642-5.394-14.222-12.888-15.721l-27.192-5.438h-88.177v24.048H424.34v-2.889
	H424.339z"/>
<rect x="296.08" y="344.69" style="fill:#AEA8AF;" width="80.16" height="23.532"/>
<g>
	<circle style="fill:#5D5360;" cx="376.24" cy="376.24" r="24.05"/>
	<path style="fill:#5D5360;" d="M384.258,296.081l-19.618-39.235c-2.715-5.431-8.267-8.862-14.339-8.862h-54.22v48.097H384.258z"/>
</g>
<path style="fill:#E6646E;" d="M119.726,368.226h184.371V231.952c0-4.427-3.589-8.016-8.016-8.016H119.726
	c-4.427,0-8.016,3.589-8.016,8.016V360.21C111.71,364.637,115.299,368.226,119.726,368.226z"/>
<path style="fill:#DC4655;" d="M119.726,368.226h184.371v-23.532H111.71v15.516C111.71,364.637,115.299,368.226,119.726,368.226z"/>
<circle style="fill:#5D5360;" cx="175.84" cy="376.24" r="24.05"/>
<path d="M480.452,48.097h-16.548V31.548c0-8.556-6.96-15.516-15.516-15.516h-16.032c-8.556,0-15.516,6.96-15.516,15.516v16.548
	H95.161V31.548c0-8.556-6.96-15.516-15.516-15.516H63.613c-8.556,0-15.516,6.96-15.516,15.516v16.548H31.548
	C14.152,48.097,0,62.249,0,79.646v384.774c0,17.396,14.152,31.548,31.548,31.548h448.903c17.396,0,31.548-14.152,31.548-31.548
	V79.646C512,62.249,497.848,48.097,480.452,48.097z M432.355,31.032h16.032c0.285,0,0.516,0.231,0.516,0.516v48.097
	c0,0.284-0.231,0.516-0.516,0.516h-16.032c-0.285,0-0.516-0.231-0.516-0.516V31.548C431.839,31.264,432.07,31.032,432.355,31.032z
	 M63.613,31.032h16.032c0.285,0,0.516,0.231,0.516,0.516v48.097c0,0.284-0.231,0.516-0.516,0.516H63.613
	c-0.285,0-0.516-0.231-0.516-0.516V31.548C63.097,31.264,63.328,31.032,63.613,31.032z M480.452,480.967H31.548
	c-9.125,0-16.548-7.424-16.548-16.548V127.226h24.562c4.142,0,7.5-3.357,7.5-7.5c0-4.142-3.358-7.5-7.5-7.5H15v-32.58
	c0-9.125,7.423-16.549,16.548-16.549h16.548v16.549c0,8.556,6.96,15.516,15.516,15.516h16.032c8.556,0,15.516-6.96,15.516-15.516
	V63.097h321.678v16.549c0,8.556,6.96,15.516,15.516,15.516h16.032c8.556,0,15.516-6.96,15.516-15.516V63.097h16.548
	c9.125,0,16.548,7.424,16.548,16.549v32.58h-24.564c-4.142,0-7.5,3.358-7.5,7.5c0,4.143,3.358,7.5,7.5,7.5H497v337.194
	C497,473.544,489.577,480.967,480.452,480.967z"/>
<path d="M440.371,112.226H71.629c-4.142,0-7.5,3.358-7.5,7.5c0,4.143,3.358,7.5,7.5,7.5h368.742c4.142,0,7.5-3.357,7.5-7.5
	C447.871,115.584,444.513,112.226,440.371,112.226z"/>
<path d="M412.921,294.165l-23.595-4.72l-17.977-35.953c-4.012-8.024-12.077-13.008-21.048-13.008h-38.705v-8.532
	c0-8.556-6.96-15.516-15.516-15.516H119.726c-8.556,0-15.516,6.96-15.516,15.516V360.21c0,8.556,6.96,15.516,15.516,15.516h24.578
	c-0.003,0.173-0.013,0.343-0.013,0.517c0,17.396,14.152,31.548,31.548,31.548s31.548-14.152,31.548-31.548
	c0-0.173-0.01-0.344-0.013-0.517h137.332c-0.003,0.173-0.013,0.343-0.013,0.517c0,17.396,14.152,31.548,31.548,31.548
	s31.549-14.152,31.549-31.548c0-1.301-0.089-2.581-0.242-3.841l13.812-9.208c6.562-4.375,10.479-11.694,10.479-19.58V317.24
	C431.839,306.062,423.883,296.357,412.921,294.165z M175.839,392.79c-9.125,0-16.548-7.423-16.548-16.548
	s7.423-16.549,16.548-16.549s16.548,7.424,16.548,16.549C192.387,385.367,184.964,392.79,175.839,392.79z M203.291,360.726
	c-5.426-9.562-15.695-16.032-27.453-16.032s-22.027,6.47-27.453,16.032h-28.661c-0.285,0-0.516-0.231-0.516-0.516V231.952
	c0-0.285,0.231-0.516,0.516-0.516h176.355c0.285,0,0.516,0.231,0.516,0.516v128.774H203.291z M311.597,255.484h38.705
	c3.253,0,6.177,1.807,7.632,4.716l14.19,28.38h-60.527V255.484z M376.242,392.79c-9.125,0-16.548-7.423-16.548-16.548
	s7.423-16.549,16.548-16.549s16.549,7.424,16.549,16.549C392.791,385.367,385.367,392.79,376.242,392.79z M416.839,320.646h-8.532
	c-4.142,0-7.5,3.357-7.5,7.5c0,4.142,3.358,7.5,7.5,7.5h8.532v7.968c0,2.859-1.42,5.513-3.799,7.1l-11.034,7.355
	c-5.719-8.083-15.132-13.375-25.764-13.375c-11.758,0-22.027,6.47-27.453,16.032h-37.192v-57.145h71.92l26.464,5.292
	c3.974,0.795,6.859,4.314,6.859,8.367L416.839,320.646L416.839,320.646z"/>
<path d="M268.516,282.064l-32.064-24.048c-3.313-2.485-8.015-1.813-10.5,1.5c-2.485,3.314-1.813,8.015,1.5,10.5l14.064,10.548
	H151.79c-4.142,0-7.5,3.358-7.5,7.5s3.358,7.5,7.5,7.5h89.726l-14.064,10.548c-3.313,2.485-3.985,7.186-1.5,10.5
	c1.474,1.964,3.726,3,6.006,3c1.566,0,3.145-0.489,4.494-1.5l32.064-24.048c1.889-1.417,3-3.64,3-6S270.405,283.48,268.516,282.064z
	"/>
<g>
</g>
<g>
</g>
<g>
</g>
<g>
</g>
<g>
</g>
<g>
</g>
<g>
</g>
<g>
</g>
<g>
</g>
<g>
</g>
<g>
</g>
<g>
</g>
<g>
</g>
<g>
</g>
<g>
</g>
</svg>
