<?xml version="1.0" encoding="iso-8859-1"?>
<!-- Generator: Adobe Illustrator 19.0.0, SVG Export Plug-In . SVG Version: 6.00 Build 0)  -->
<svg version="1.1" id="Capa_1" xmlns="http://www.w3.org/2000/svg" xmlns:xlink="http://www.w3.org/1999/xlink" x="0px" y="0px"
	 viewBox="0 0 512 512" style="enable-background:new 0 0 512 512;" xml:space="preserve">
<circle style="fill:#FFD164;" cx="256" cy="256" r="248.5"/>
<path style="fill:#FFC350;" d="M384.258,376.242c-137.243,0-248.5-111.257-248.5-248.5c0-35.38,7.443-69.007,20.769-99.473
	C68.815,66.639,7.5,154.137,7.5,256c0,137.243,111.257,248.5,248.5,248.5c101.863,0,189.361-61.315,227.731-149.027
	C453.265,368.799,419.638,376.242,384.258,376.242z"/>
<circle style="fill:#FFEDB1;" cx="256" cy="256" r="184.37"/>
<path style="fill:#FFE17D;" d="M128.737,172.454c-18.744,28.448-28.254,63.506-24.067,100.987
	c7.79,69.733,64.144,126.091,133.876,133.887c37.485,4.191,72.548-5.32,101-24.066c4.224-2.783,2.757-9.359-2.236-10.172
	c-101.626-16.543-181.858-96.775-198.401-198.401C138.096,169.697,131.52,168.23,128.737,172.454z"/>
<path style="fill:#FFC350;" d="M256,480C132.484,480,32,379.516,32,256S132.484,32,256,32s224,100.484,224,224S379.516,480,256,480z
	 M256,47C140.753,47,47,140.753,47,256s93.753,209,209,209s209-93.753,209-209S371.247,47,256,47z"/>
<path style="fill:#E1A546;" d="M429.724,372.068C392.19,428.064,328.332,465,256,465c-115.247,0-209-93.753-209-209
	c0-72.332,36.936-136.19,92.932-173.724c1.297-6.982,2.901-13.854,4.768-20.618C77.41,100.345,32,172.968,32,256
	c0,123.516,100.484,224,224,224c83.032,0,155.655-45.411,194.342-112.7C443.578,369.167,436.705,370.771,429.724,372.068z"/>
<path d="M437.02,74.98C388.667,26.629,324.38,0,256,0S123.333,26.629,74.98,74.98C26.629,123.332,0,187.62,0,256
	s26.629,132.668,74.98,181.02C123.333,485.371,187.62,512,256,512s132.667-26.629,181.02-74.98C485.371,388.668,512,324.38,512,256
	S485.371,123.332,437.02,74.98z M426.413,426.413C380.894,471.932,320.374,497,256,497s-124.894-25.068-170.413-70.587
	S15,320.374,15,256S40.068,131.106,85.587,85.587S191.626,15,256,15s124.894,25.068,170.413,70.587S497,191.626,497,256
	S471.932,380.894,426.413,426.413z"/>
<path d="M256,47.064c4.142,0,7.5-3.357,7.5-7.5s-3.358-7.5-7.5-7.5c-59.815,0-116.051,23.293-158.346,65.589
	C55.358,139.949,32.064,196.185,32.064,256c0,4.143,3.358,7.5,7.5,7.5s7.5-3.357,7.5-7.5C47.064,140.793,140.792,47.064,256,47.064z
	"/>
<path d="M472.436,248.5c-4.142,0-7.5,3.357-7.5,7.5c0,115.207-93.728,208.936-208.936,208.936c-4.142,0-7.5,3.357-7.5,7.5
	s3.358,7.5,7.5,7.5c59.815,0,116.051-23.293,158.346-65.589c42.296-42.296,65.589-98.531,65.589-158.347
	C479.936,251.857,476.578,248.5,472.436,248.5z"/>
<path d="M79.297,248.775c1.792-44.486,20.13-86.337,51.636-117.842c31.506-31.506,73.356-49.844,117.843-51.637
	c44.229-1.771,87.165,12.871,120.908,41.258c3.17,2.669,7.901,2.26,10.567-0.911c2.667-3.17,2.259-7.9-0.911-10.567
	c-36.613-30.801-83.196-46.712-131.168-44.767c-48.264,1.944-93.667,21.838-127.845,56.017S66.254,199.908,64.31,248.172
	c-1.933,47.973,13.965,94.556,44.767,131.168c1.483,1.764,3.606,2.672,5.743,2.672c1.704,0,3.418-0.578,4.824-1.761
	c3.17-2.667,3.578-7.397,0.911-10.567C92.167,335.94,77.516,293.001,79.297,248.775z"/>
<path d="M263.829,447.69c48.263-1.945,93.666-21.839,127.845-56.017c34.179-34.179,54.072-79.582,56.017-127.846
	c1.933-47.973-13.965-94.556-44.767-131.168c-2.666-3.17-7.397-3.576-10.567-0.911c-3.17,2.667-3.578,7.397-0.911,10.567
	c28.387,33.743,43.039,76.683,41.257,120.908c-1.792,44.486-20.13,86.337-51.636,117.842
	c-31.505,31.506-73.356,49.844-117.842,51.636c-44.23,1.796-87.166-12.87-120.908-41.257c-3.169-2.667-7.9-2.259-10.567,0.911
	s-2.259,7.9,0.911,10.567c34.619,29.124,78.153,44.924,123.347,44.924C258.609,447.848,261.217,447.796,263.829,447.69z"/>
<path d="M304.613,201.892c0,4.143,3.358,7.5,7.5,7.5s7.5-3.357,7.5-7.5c0-20.862-16.624-38.744-40.081-46.053v-12.064
	c0-4.143-3.358-7.5-7.5-7.5s-7.5,3.357-7.5,7.5v8.991c-2.793-0.293-5.637-0.459-8.532-0.459c-2.895,0-5.739,0.166-8.533,0.459
	v-8.991c0-4.143-3.358-7.5-7.5-7.5s-7.5,3.357-7.5,7.5v12.064c-23.457,7.31-40.08,25.191-40.08,46.053
	c0,28.135,17.322,42.475,40.08,52.853v85.613c-14.942-5.907-25.08-17.249-25.08-30.248c0-4.143-3.358-7.5-7.5-7.5
	s-7.5,3.357-7.5,7.5c0,20.862,16.623,38.743,40.08,46.052v12.064c0,4.143,3.358,7.5,7.5,7.5s7.5-3.357,7.5-7.5v-8.991
	c2.793,0.293,5.638,0.459,8.533,0.459c2.894,0,5.739-0.166,8.532-0.459v8.991c0,4.143,3.358,7.5,7.5,7.5s7.5-3.357,7.5-7.5v-12.064
	c23.458-7.309,40.081-25.19,40.081-46.052c0-28.136-17.323-42.476-40.081-52.854v-85.613
	C294.474,177.549,304.613,188.892,304.613,201.892z M207.387,201.892c0-13,10.138-24.342,25.08-30.249v66.353
	C215.815,229.199,207.387,218.901,207.387,201.892z M256,344.693c-2.912,0-5.76-0.193-8.533-0.544v-83.275
	c1.986,0.74,3.992,1.469,6.01,2.189c3.91,1.396,7.588,2.773,11.054,4.153v76.933C261.759,344.5,258.912,344.693,256,344.693z
	 M304.613,310.109c0,12.999-10.138,24.341-25.081,30.249v-66.354C296.185,282.801,304.613,293.099,304.613,310.109z
	 M264.532,251.126c-1.986-0.741-3.991-1.469-6.009-2.189c-3.911-1.396-7.589-2.773-11.055-4.153v-76.932
	c2.773-0.351,5.621-0.544,8.533-0.544s5.759,0.193,8.532,0.544v83.274H264.532z"/>
<g>
</g>
<g>
</g>
<g>
</g>
<g>
</g>
<g>
</g>
<g>
</g>
<g>
</g>
<g>
</g>
<g>
</g>
<g>
</g>
<g>
</g>
<g>
</g>
<g>
</g>
<g>
</g>
<g>
</g>
</svg>
