<?xml version="1.0" encoding="iso-8859-1"?>
<!-- Generator: Adobe Illustrator 19.0.0, SVG Export Plug-In . SVG Version: 6.00 Build 0)  -->
<svg version="1.1" id="Capa_1" xmlns="http://www.w3.org/2000/svg" xmlns:xlink="http://www.w3.org/1999/xlink" x="0px" y="0px"
	 viewBox="0 0 512.001 512.001" style="enable-background:new 0 0 512.001 512.001;" xml:space="preserve">
<path style="fill:#EDEBED;" d="M304.097,328.146H31.548c-13.282,0-24.048-10.767-24.048-24.048V71.63
	c0-13.282,10.767-24.048,24.048-24.048h272.548c13.282,0,24.048,10.767,24.048,24.048v232.468
	C328.145,317.379,317.378,328.146,304.097,328.146z"/>
<circle style="fill:#C9C6CA;" cx="320.13" cy="280.051" r="88.18"/>
<path style="fill:#6F6571;" d="M499.824,459.744L499.824,459.744c-6.235,6.235-16.438,6.235-22.673,0l-64.836-64.836
	c-6.235-6.235-6.235-16.438,0-22.673l0,0c6.235-6.235,16.438-6.235,22.673,0l64.836,64.836
	C506.059,443.306,506.059,453.508,499.824,459.744z"/>
<circle style="fill:#FFFFFF;" cx="320.13" cy="280.051" r="64.13"/>
<path style="fill:#EDEBED;" d="M336.955,300.038c-18.037-4.293-32.509-18.761-36.81-36.795c-1.195-5.009-1.586-9.903-1.305-14.614
	c0.374-6.258-6.916-10.139-11.627-6.003c-11.651,10.229-18.492,25.79-16.67,42.894c2.438,22.88,21.232,41.675,44.112,44.114
	c17.105,1.824,32.667-5.018,42.897-16.669c4.137-4.711,0.254-12.001-6.004-11.627C346.844,301.619,341.956,301.229,336.955,300.038z
	"/>
<path d="M151.791,256.517c-4.142,0-7.5,3.357-7.5,7.5v16.032c0,4.143,3.358,7.5,7.5,7.5s7.5-3.357,7.5-7.5v-16.032
	C159.291,259.875,155.933,256.517,151.791,256.517z"/>
<path d="M87.661,256.517c-4.142,0-7.5,3.357-7.5,7.5v16.032c0,4.143,3.358,7.5,7.5,7.5s7.5-3.357,7.5-7.5v-16.032
	C95.161,259.875,91.803,256.517,87.661,256.517z"/>
<path d="M119.726,256.517c-4.142,0-7.5,3.357-7.5,7.5v16.032c0,4.143,3.358,7.5,7.5,7.5s7.5-3.357,7.5-7.5v-16.032
	C127.226,259.875,123.868,256.517,119.726,256.517z"/>
<path d="M95.161,95.678c0-4.143-3.358-7.5-7.5-7.5s-7.5,3.357-7.5,7.5v136.273c0,4.143,3.358,7.5,7.5,7.5s7.5-3.357,7.5-7.5V95.678z
	"/>
<path d="M127.226,95.678c0-4.143-3.358-7.5-7.5-7.5s-7.5,3.357-7.5,7.5v136.273c0,4.143,3.358,7.5,7.5,7.5s7.5-3.357,7.5-7.5V95.678
	z"/>
<path d="M159.291,95.678c0-4.143-3.358-7.5-7.5-7.5s-7.5,3.357-7.5,7.5v136.273c0,4.143,3.358,7.5,7.5,7.5s7.5-3.357,7.5-7.5V95.678
	z"/>
<path d="M176.355,95.678v184.371c0,4.143,3.358,7.5,7.5,7.5s7.5-3.357,7.5-7.5V95.678c0-4.143-3.358-7.5-7.5-7.5
	S176.355,91.536,176.355,95.678z"/>
<path d="M48.097,95.677v184.371c0,4.143,3.358,7.5,7.5,7.5s7.5-3.357,7.5-7.5V95.677c0-4.143-3.358-7.5-7.5-7.5
	S48.097,91.535,48.097,95.677z"/>
<path d="M215.919,88.178c-4.142,0-7.5,3.357-7.5,7.5v128.258c0,4.143,3.358,7.5,7.5,7.5s7.5-3.357,7.5-7.5V95.678
	C223.419,91.536,220.062,88.178,215.919,88.178z"/>
<path d="M240.484,95.678v88.177c0,4.143,3.358,7.5,7.5,7.5s7.5-3.357,7.5-7.5V95.678c0-4.143-3.358-7.5-7.5-7.5
	S240.484,91.536,240.484,95.678z"/>
<path d="M272.548,95.677v72.146c0,4.143,3.358,7.5,7.5,7.5s7.5-3.357,7.5-7.5V95.677c0-4.143-3.358-7.5-7.5-7.5
	S272.548,91.535,272.548,95.677z"/>
<path d="M505.127,431.767l-64.836-64.837c-7.319-7.318-18.293-8.78-27.094-4.421l-20.352-20.352
	c14.307-16.726,22.962-38.424,22.962-62.108c0-52.757-42.921-95.678-95.678-95.678s-95.677,42.921-95.677,95.678
	c0,52.756,42.92,95.677,95.677,95.677c23.684,0,45.383-8.654,62.109-22.961l20.352,20.351c-4.358,8.801-2.897,19.776,4.422,27.096
	l64.836,64.835c4.432,4.433,10.342,6.874,16.64,6.874s12.208-2.441,16.64-6.873v-0.001c4.432-4.432,6.873-10.342,6.873-16.64
	S509.559,436.199,505.127,431.767z M320.129,360.726c-44.485,0-80.677-36.191-80.677-80.677s36.192-80.678,80.677-80.678
	c44.486,0,80.678,36.192,80.678,80.678S364.615,360.726,320.129,360.726z M494.52,454.441c-1.599,1.599-3.742,2.479-6.033,2.479
	c-2.292,0-4.434-0.881-6.033-2.48l-64.836-64.835c-3.327-3.327-3.327-8.741-0.001-12.067c1.664-1.663,3.849-2.495,6.034-2.495
	s4.37,0.832,6.033,2.495l64.836,64.837c1.599,1.599,2.479,3.741,2.479,6.032C497,450.699,496.119,452.841,494.52,454.441z"/>
<path d="M207.903,320.646H31.548c-9.125,0-16.548-7.424-16.548-16.549V71.629c0-9.124,7.423-16.548,16.548-16.548h272.548
	c9.125,0,16.548,7.424,16.548,16.548v88.178c0,4.143,3.358,7.5,7.5,7.5s7.5-3.357,7.5-7.5V71.629
	c0-17.396-14.152-31.548-31.548-31.548H31.548C14.152,40.082,0,54.234,0,71.629v232.468c0,17.396,14.152,31.549,31.548,31.549
	h176.355c4.142,0,7.5-3.357,7.5-7.5S212.045,320.646,207.903,320.646z"/>
<g>
</g>
<g>
</g>
<g>
</g>
<g>
</g>
<g>
</g>
<g>
</g>
<g>
</g>
<g>
</g>
<g>
</g>
<g>
</g>
<g>
</g>
<g>
</g>
<g>
</g>
<g>
</g>
<g>
</g>
</svg>
