<?xml version="1.0" encoding="iso-8859-1"?>
<!-- Generator: Adobe Illustrator 19.0.0, SVG Export Plug-In . SVG Version: 6.00 Build 0)  -->
<svg version="1.1" id="Capa_1" xmlns="http://www.w3.org/2000/svg" xmlns:xlink="http://www.w3.org/1999/xlink" x="0px" y="0px"
	 viewBox="0 0 512.001 512.001" style="enable-background:new 0 0 512.001 512.001;" xml:space="preserve">
<polygon style="fill:#9C969E;" points="226.935,265.026 178.836,313.124 199.879,332.163 245.973,286.068 "/>
<path style="fill:#867E88;" d="M204.198,287.761c6.159,7.182,12.858,13.88,20.041,20.041l21.734-21.734l-19.039-21.043
	L204.198,287.761z"/>
<path style="fill:#5D5360;" d="M14.53,497.471L14.53,497.471c-9.392-9.392-9.392-24.619,0-34.011l158.716-158.715
	c3.13-3.13,8.206-3.13,11.337,0l22.674,22.674c3.13,3.13,3.13,8.206,0,11.337L48.54,497.471
	C39.149,506.863,23.922,506.863,14.53,497.471z"/>
<path style="fill:#6F6571;" d="M207.256,327.418l-12.309-12.309L44.886,465.17c-9.391,9.391-9.391,24.619,0,34.011
	c0.243,0.243,0.53,0.408,0.781,0.638c0.99-0.724,1.98-1.453,2.873-2.347l158.716-158.716
	C210.387,335.624,210.387,330.549,207.256,327.418z"/>
<path style="fill:#9C969E;" d="M184.582,304.744c-3.13-3.13-8.206-3.13-11.336,0l-22.438,22.438l34.011,34.01l22.438-22.438
	c3.131-3.131,3.131-8.206,0-11.337L184.582,304.744z"/>
<path style="fill:#AEA8AF;" d="M207.256,327.418l-12.309-12.309l-28.106,28.106l17.979,17.978l22.438-22.438
	C210.387,335.624,210.387,330.549,207.256,327.418z"/>
<circle style="fill:#C9C6CA;" cx="344.171" cy="167.825" r="160.325"/>
<circle style="fill:#FFFFFF;" cx="344.171" cy="167.825" r="120.244"/>
<path style="fill:#EDEBED;" d="M380.958,201.001c-34.156-8.518-61.44-35.802-69.957-69.957c-3.387-13.58-3.662-26.713-1.581-39.05
	c1.105-6.548-5.907-11.526-11.719-8.314c-32.889,18.177-54.02,54.994-48.982,96.251c5.265,43.126,40.226,78.088,83.352,83.354
	c41.258,5.038,78.076-16.093,96.253-48.982c3.212-5.812-1.766-12.824-8.314-11.719C407.671,204.663,394.539,204.387,380.958,201.001
	z"/>
<path d="M344.174,0c-92.541,0-167.828,75.287-167.828,167.827c0,38.475,13.023,73.96,34.88,102.3l-26.08,26.08
	c-1.94-0.852-4.049-1.311-6.232-1.311c-4.145,0-8.041,1.614-10.971,4.545L9.226,458.157c-12.3,12.301-12.3,32.316,0,44.617
	c6.15,6.15,14.229,9.226,22.309,9.226s16.158-3.075,22.309-9.226l158.716-158.716c4.642-4.642,5.708-11.513,3.226-17.196
	l26.088-26.088c28.34,21.858,63.825,34.881,102.3,34.881c92.54,0,167.827-75.287,167.827-167.828
	C512.001,75.287,436.714,0,344.174,0z M43.237,492.167c-6.452,6.452-16.951,6.452-23.404,0s-6.452-16.951,0-23.404l130.975-130.975
	l23.404,23.404L43.237,492.167z M201.954,333.452l-17.135,17.135l-23.404-23.404l17.135-17.134c0.037-0.038,0.151-0.151,0.364-0.151
	c0.214,0,0.328,0.113,0.365,0.151l22.674,22.674C202.155,332.923,202.155,333.251,201.954,333.452z M205.94,315.495l-9.434-9.434
	l24.435-24.435c3.02,3.268,6.167,6.415,9.434,9.434L205.94,315.495z M344.174,320.655c-84.269,0-152.827-68.558-152.827-152.827
	S259.905,15,344.174,15s152.826,68.558,152.826,152.826C497.001,252.096,428.444,320.655,344.174,320.655z"/>
<path d="M445.744,90.33c-2.516-3.29-7.221-3.918-10.514-1.401c-3.29,2.517-3.917,7.224-1.4,10.514
	c34.139,44.634,29.868,108.307-9.934,148.108c-39.802,39.802-103.474,44.071-148.107,9.933c-3.292-2.517-7.997-1.889-10.514,1.4
	c-2.517,3.29-1.89,7.998,1.4,10.514c22.87,17.493,50.146,26.088,77.341,26.088c32.951,0,65.78-12.622,90.487-37.329
	C479.6,213.061,484.432,140.911,445.744,90.33z"/>
<path d="M264.451,88.105c39.803-39.802,103.475-44.071,148.108-9.932c3.291,2.517,7.998,1.889,10.514-1.401
	c2.517-3.29,1.89-7.997-1.4-10.514c-50.583-38.688-122.734-33.856-167.83,11.24c-45.096,45.097-49.928,117.247-11.24,167.828
	c1.477,1.931,3.707,2.944,5.962,2.944c1.589,0,3.191-0.503,4.551-1.543c3.29-2.517,3.917-7.224,1.4-10.514
	C220.378,191.579,224.649,127.906,264.451,88.105z"/>
<path d="M15.502,31.033h198.656c4.142,0,7.5-3.358,7.5-7.5s-3.358-7.5-7.5-7.5H15.502c-4.142,0-7.5,3.358-7.5,7.5
	S11.36,31.033,15.502,31.033z"/>
<path d="M186.837,63.615c0-4.142-3.358-7.5-7.5-7.5H55.585c-4.142,0-7.5,3.358-7.5,7.5s3.358,7.5,7.5,7.5h123.753
	C183.479,71.115,186.837,67.757,186.837,63.615z"/>
<path d="M95.666,96.196c-4.142,0-7.5,3.358-7.5,7.5c0,4.143,3.358,7.5,7.5,7.5h64.131c4.142,0,7.5-3.357,7.5-7.5
	c0-4.142-3.358-7.5-7.5-7.5H95.666z"/>
<g>
</g>
<g>
</g>
<g>
</g>
<g>
</g>
<g>
</g>
<g>
</g>
<g>
</g>
<g>
</g>
<g>
</g>
<g>
</g>
<g>
</g>
<g>
</g>
<g>
</g>
<g>
</g>
<g>
</g>
</svg>
