<?xml version="1.0" encoding="iso-8859-1"?>
<!-- Generator: Adobe Illustrator 19.0.0, SVG Export Plug-In . SVG Version: 6.00 Build 0)  -->
<svg version="1.1" id="Capa_1" xmlns="http://www.w3.org/2000/svg" xmlns:xlink="http://www.w3.org/1999/xlink" x="0px" y="0px"
	 viewBox="0 0 512.001 512.001" style="enable-background:new 0 0 512.001 512.001;" xml:space="preserve">
<rect x="209.173" y="130.336" transform="matrix(-0.7071 -0.7071 0.7071 -0.7071 376.1718 464.4146)" style="fill:#FFC350;" width="150.192" height="47.928"/>
<g>
	<path style="fill:#FFD164;" d="M193.574,131.624l-11.336-11.336c-6.261-6.261-6.261-16.412,0-22.673l45.347-45.347
		c6.261-6.261,16.412-6.261,22.673,0l11.336,11.336c6.261,6.261,6.261,16.412,0,22.673l-45.347,45.347
		C209.986,137.886,199.835,137.886,193.574,131.624z"/>
	<path style="fill:#FFD164;" d="M318.277,256.329l-11.336-11.336c-6.261-6.261-6.261-16.412,0-22.673l45.347-45.347
		c6.261-6.261,16.412-6.261,22.673,0l11.336,11.336c6.261,6.261,6.261,16.412,0,22.673l-45.347,45.347
		C334.69,262.59,324.538,262.59,318.277,256.329z"/>
</g>
<g>
	<path style="fill:#FFC350;" d="M334.949,239.657l-11.336-11.336c-6.261-6.261-6.261-16.412,0-22.673l-16.671,16.671
		c-6.261,6.261-6.261,16.412,0,22.674l11.336,11.335c6.261,6.261,16.412,6.261,22.673,0l16.672-16.671
		C351.361,245.919,341.211,245.919,334.949,239.657z"/>
	<path style="fill:#FFC350;" d="M232.918,114.953c-6.261,6.261-16.412,6.261-22.673,0l-11.336-11.336
		c-6.261-6.261-6.261-16.412,0-22.674l-16.671,16.672c-6.261,6.261-6.261,16.412,0,22.673l11.336,11.335
		c6.261,6.262,16.412,6.262,22.673,0L232.918,114.953z"/>
	<path style="fill:#FFC350;" d="M467.453,404.417c-1.784-7.137-8.196-12.144-15.553-12.144H332.643
		c-7.357,0-13.769,5.006-15.553,12.144l-4.98,19.921h160.326L467.453,404.417z"/>
	<path style="fill:#FFC350;" d="M264.747,151.145L12.186,403.706c-6.261,6.261-6.261,16.412,0,22.673
		c6.261,6.262,16.412,6.262,22.673,0l252.562-252.561L264.747,151.145z"/>
</g>
<rect x="244.306" y="155.966" transform="matrix(0.7071 0.7071 -0.7071 0.7071 202.283 -131.881)" style="fill:#E1A546;" width="32.06" height="44.541"/>
<path style="fill:#FFD164;" d="M278.599,193.977l-34.011-34.011c-3.13-3.13-3.13-8.206,0-11.337l34.011-34.011
	c3.13-3.13,8.206-3.13,11.337,0l34.011,34.011c3.13,3.13,3.13,8.206,0,11.337l-34.011,34.011
	C286.806,197.107,281.729,197.107,278.599,193.977z"/>
<path style="fill:#6F6571;" d="M488.467,424.339H296.076c-8.854,0-16.032,7.178-16.032,16.032v16.032
	c0,4.427,3.589,8.016,8.016,8.016h208.423c4.427,0,8.016-3.589,8.016-8.016v-16.032C504.5,431.516,497.321,424.339,488.467,424.339z
	"/>
<path style="fill:#5D5360;" d="M352.19,456.403v-16.032c0-8.855,7.178-16.032,16.032-16.032h-72.147
	c-8.854,0-16.032,7.178-16.032,16.032v16.032c0,4.427,3.589,8.016,8.016,8.016h72.147C355.779,464.42,352.19,460.83,352.19,456.403z
	"/>
<path style="fill:#E1A546;" d="M388.757,392.273h-56.114c-7.357,0-13.769,5.006-15.553,12.144l-4.98,19.921h56.114l4.981-19.921
	C374.987,397.279,381.4,392.273,388.757,392.273z"/>
<path style="fill:#FFE17D;" d="M296.932,121.614l-12.761,12.761c-6.261,6.261-6.261,16.412,0,22.673l21.346,21.347l18.43-18.43
	c3.131-3.131,3.131-8.207,0-11.337L296.932,121.614z"/>
<path d="M273.294,199.28c3.025,3.024,6.998,4.537,10.973,4.537c1.447,0,2.893-0.206,4.294-0.607l13.44,13.44l-0.365,0.365
	c-9.175,9.176-9.175,24.105,0,33.281l11.336,11.336c0.001,0,0.001,0,0.001,0c4.588,4.587,10.613,6.88,16.64,6.88
	s12.053-2.293,16.641-6.88l45.347-45.348c9.175-9.176,9.175-24.105,0-33.281l-11.336-11.336c-9.175-9.173-24.105-9.175-33.281,0
	l-0.365,0.365l-13.441-13.441c1.502-5.249,0.196-11.139-3.929-15.266l-34.012-34.011c-4.127-4.126-10.017-5.431-15.265-3.929
	l-13.44-13.44l0.365-0.365c9.175-9.176,9.175-24.105,0-33.281l-11.336-11.336c-9.175-9.173-24.103-9.176-33.281,0l-45.348,45.348
	c-9.174,9.175-9.174,24.105,0,33.281l11.336,11.336c4.588,4.587,10.614,6.881,16.641,6.881c6.025,0,12.052-2.294,16.64-6.881
	l0.365-0.365l13.439,13.438c-1.503,5.25-0.197,11.141,3.93,15.268l0.364,0.364L6.881,398.403
	c-9.174,9.175-9.174,24.105,0.001,33.281c4.588,4.587,10.613,6.88,16.64,6.88s12.053-2.293,16.641-6.88L272.93,198.916
	L273.294,199.28z M369.658,182.275l11.336,11.336c3.327,3.326,3.327,8.739,0,12.065l-45.346,45.348
	c-3.328,3.326-8.74,3.326-12.068,0l-11.335-11.336c-3.327-3.326-3.327-8.739,0-12.065l45.348-45.348
	C360.919,178.946,366.332,178.948,369.658,182.275z M312.609,206.044l-12.066-12.067l23.402-23.402l12.066,12.066L312.609,206.044z
	 M318.642,153.932c0.2,0.201,0.201,0.528,0.002,0.729c-0.001,0-0.002,0.001-0.002,0.002c-0.003,0.003-0.006,0.007-0.009,0.01
	l-34.001,34c-0.2,0.203-0.527,0.205-0.729,0l-34.01-34.01c-0.202-0.201-0.202-0.528,0-0.73l34-34.001
	c0.003-0.003,0.007-0.006,0.01-0.009l0.001-0.001c0.1-0.099,0.232-0.15,0.364-0.15s0.265,0.051,0.364,0.151L318.642,153.932z
	 M198.877,126.321l-11.336-11.335c-3.326-3.327-3.326-8.741,0-12.067l45.348-45.347c1.663-1.664,3.848-2.495,6.032-2.495
	c2.186,0,4.37,0.831,6.033,2.495l11.336,11.336c3.327,3.326,3.327,8.739,0,12.065l-5.659,5.659c-0.003,0.003-0.007,0.006-0.01,0.009
	s-0.006,0.007-0.009,0.01l-39.669,39.669C207.616,129.65,202.203,129.648,198.877,126.321z M255.926,102.554l12.065,12.065
	l-23.403,23.404l-12.066-12.065L255.926,102.554z M29.556,421.077c-3.328,3.326-8.741,3.325-12.067,0.001
	c-3.326-3.327-3.326-8.741,0-12.067l232.769-232.768l12.065,12.065L29.556,421.077z"/>
<path d="M488.467,416.839h-10.176l-3.56-14.24c-2.624-10.494-12.012-17.824-22.83-17.824H332.643
	c-10.818,0-20.206,7.33-22.83,17.825l-3.559,14.239h-10.176c-12.976,0-23.533,10.557-23.533,23.533v16.032
	c0,8.556,6.96,15.516,15.516,15.516h208.423c8.556,0,15.517-6.96,15.517-15.516v-16.032
	C512,427.395,501.443,416.839,488.467,416.839z M497,456.403c0,0.284-0.231,0.516-0.517,0.516H288.06
	c-0.284,0-0.516-0.231-0.516-0.516v-16.032c0-4.705,3.827-8.532,8.532-8.532h128.26c4.143,0,7.5-3.357,7.5-7.5s-3.357-7.5-7.5-7.5
	h-102.62l2.65-10.602c0.951-3.806,4.354-6.463,8.277-6.463H451.9c3.923,0,7.326,2.657,8.277,6.463l2.65,10.602h-6.428
	c-4.143,0-7.5,3.357-7.5,7.5s3.357,7.5,7.5,7.5h32.067c4.705,0,8.532,3.827,8.532,8.532v16.032H497z"/>
<g>
</g>
<g>
</g>
<g>
</g>
<g>
</g>
<g>
</g>
<g>
</g>
<g>
</g>
<g>
</g>
<g>
</g>
<g>
</g>
<g>
</g>
<g>
</g>
<g>
</g>
<g>
</g>
<g>
</g>
</svg>
