<?xml version="1.0" encoding="iso-8859-1"?>
<!-- Generator: Adobe Illustrator 19.0.0, SVG Export Plug-In . SVG Version: 6.00 Build 0)  -->
<svg version="1.1" id="Capa_1" xmlns="http://www.w3.org/2000/svg" xmlns:xlink="http://www.w3.org/1999/xlink" x="0px" y="0px"
	 viewBox="0 0 512 512" style="enable-background:new 0 0 512 512;" xml:space="preserve">
<path style="fill:#FFD164;" d="M495.326,156.247L477.31,60.165c-2.957-15.772-15.035-28.26-30.699-31.74l-0.005-0.002
	c-125.539-27.898-255.672-27.898-381.211,0l-0.005,0.002c-15.664,3.48-27.742,15.968-30.699,31.74l-18.016,96.082
	c-0.68,3.625,1.203,7.247,4.562,8.774l82.458,37.481v293.982c0,4.427,3.589,8.016,8.016,8.016h288.58
	c4.427,0,8.016-3.589,8.016-8.016V202.502l82.458-37.481C494.123,163.494,496.006,159.872,495.326,156.247z"/>
<g>
	<path style="fill:#FFC350;" d="M34.69,60.165l-18.016,96.082c-0.68,3.626,1.203,7.248,4.561,8.774l82.458,37.481v-71.726
		c0-10.664-3.544-21.026-10.075-29.456L45.625,39.371C40.103,44.949,36.199,52.118,34.69,60.165z"/>
	<path style="fill:#FFC350;" d="M477.31,60.165l18.016,96.082c0.68,3.626-1.203,7.248-4.561,8.774l-82.458,37.481v-71.726
		c0-10.664,3.544-21.026,10.075-29.456l47.993-61.948C471.897,44.949,475.801,52.118,477.31,60.165z"/>
	<path style="fill:#FFC350;" d="M349.034,12.471c-23.217,33.546-54.661,71.094-93.143,97.986
		c-38.454-26.9-69.9-64.536-93.051-97.973c-11.895,1.268-23.763,2.827-35.611,4.582c27.034,41.428,67.8,92.806,120.02,126.191
		c2.63,1.683,5.636,2.521,8.635,2.521c2.998,0,5.996-0.838,8.635-2.521c52.236-33.372,92.967-84.58,120.12-126.213
		C372.791,15.293,360.925,13.738,349.034,12.471z"/>
</g>
<path style="fill:#E1A546;" d="M349.033,12.471c-61.891-6.589-124.305-6.586-186.194,0.013
	c23.151,33.437,54.598,71.074,93.051,97.973C294.373,83.566,325.817,46.017,349.033,12.471z"/>
<path style="fill:#FFC350;" d="M127.742,304.097v-69.35c0-11.624-6.291-22.337-16.442-28.001l-7.607-4.244v293.982
	c0,4.427,3.589,8.016,8.016,8.016h288.58c4.427,0,8.016-3.589,8.016-8.016v-16.032h-104.21
	C206.699,480.452,127.742,401.495,127.742,304.097z"/>
<path d="M502.698,154.864l-18.016-96.082c-3.509-18.718-17.771-33.488-36.346-37.657c-0.034-0.008-0.069-0.016-0.104-0.023
	C385.223,7.1,320.546,0,256,0S126.777,7.1,63.768,21.102c-0.034,0.008-0.068,0.016-0.102,0.023
	c-18.577,4.167-32.838,18.938-36.348,37.657L9.302,154.864c-1.319,7.037,2.312,14.021,8.83,16.985l78.061,35.482v289.152
	c0,8.556,6.96,15.517,15.516,15.517H400.29c8.556,0,15.516-6.961,15.516-15.517V207.332l78.062-35.483
	C500.386,168.885,504.017,161.901,502.698,154.864z M159.056,20.431c19.867,30.113,51.643,70.053,93.048,95.222
	c1.197,0.728,2.546,1.091,3.896,1.091c1.349,0,2.697-0.363,3.894-1.09c41.403-25.148,73.118-64.906,93.102-95.218
	c6.32,0.708,12.631,1.488,18.933,2.334c-23.859,37.74-61.332,84.91-111.849,112.465c-2.488,1.359-5.667,1.361-8.165-0.002
	c-50.488-27.54-87.949-74.665-111.844-112.463C146.391,21.923,152.719,21.141,159.056,20.431z M336.077,18.712
	c-18.514,26.955-45.738,59.684-80.075,81.69c-34.326-22.023-61.583-54.869-80.02-81.695C202.59,16.251,229.306,15,256,15
	C282.714,15,309.449,16.252,336.077,18.712z M487.661,158.193l-71.854,32.661v-15.016c0-4.143-3.358-7.5-7.5-7.5s-7.5,3.357-7.5,7.5
	v320.646c0,0.285-0.231,0.517-0.516,0.517H111.709c-0.285,0-0.516-0.231-0.516-0.517V175.839c0-4.143-3.358-7.5-7.5-7.5
	s-7.5,3.357-7.5,7.5v15.015l-71.853-32.66c-0.218-0.1-0.339-0.332-0.295-0.566l18.016-96.082c0.652-3.478,1.862-6.746,3.51-9.734
	l45.448,58.433c3.336,4.29,5.174,9.646,5.174,15.081v18.443c0,4.143,3.358,7.5,7.5,7.5s7.5-3.357,7.5-7.5v-18.443
	c0-8.755-2.959-17.381-8.334-24.29L55.828,40.567c3.331-2.252,7.105-3.914,11.188-4.821c0.031-0.007,0.062-0.014,0.092-0.021
	c18.778-4.17,37.708-7.708,56.738-10.626c24.642,40.207,65.036,92.838,120.882,123.301c3.443,1.881,7.34,2.875,11.271,2.875
	s7.829-0.994,11.267-2.873c55.886-30.483,96.287-83.169,120.885-123.303c19.03,2.918,37.96,6.456,56.738,10.626
	c0.031,0.008,0.063,0.015,0.094,0.021c4.083,0.907,7.857,2.569,11.188,4.821l-47.031,60.469c-5.375,6.909-8.334,15.536-8.334,24.29
	v18.447c0,4.143,3.358,7.5,7.5,7.5s7.5-3.357,7.5-7.5v-18.447c0-5.436,1.837-10.791,5.174-15.081l45.448-58.433
	c1.648,2.988,2.858,6.256,3.51,9.734l18.016,96.082C487.999,157.862,487.877,158.095,487.661,158.193z"/>
<g>
</g>
<g>
</g>
<g>
</g>
<g>
</g>
<g>
</g>
<g>
</g>
<g>
</g>
<g>
</g>
<g>
</g>
<g>
</g>
<g>
</g>
<g>
</g>
<g>
</g>
<g>
</g>
<g>
</g>
</svg>
