<?xml version="1.0" encoding="iso-8859-1"?>
<!-- Generator: Adobe Illustrator 19.0.0, SVG Export Plug-In . SVG Version: 6.00 Build 0)  -->
<svg version="1.1" id="Capa_1" xmlns="http://www.w3.org/2000/svg" xmlns:xlink="http://www.w3.org/1999/xlink" x="0px" y="0px"
	 viewBox="0 0 512 512" style="enable-background:new 0 0 512 512;" xml:space="preserve">
<path style="fill:#FF8587;" d="M391.051,495.352c-23.536-171.208-78.938-303.478-78.938-303.478H199.889
	c0,0-55.402,132.27-78.938,303.478c-0.662,4.816,3.111,9.148,7.973,9.148h254.155C387.94,504.499,391.713,500.168,391.051,495.352z"
	/>
<path style="fill:#E6646E;" d="M381.876,81.6l-17.024-51.071c-2.815-8.446-10.059-14.759-18.858-16.117
	c-59.642-9.207-120.346-9.207-179.989,0c-8.798,1.358-16.043,7.672-18.858,16.117L130.125,81.6
	c-1.339,4.015,0.675,8.378,4.599,9.965l48.839,19.759l16.326,81.628h112.224l16.326-81.628l48.839-19.759
	C381.201,89.978,383.215,85.615,381.876,81.6z"/>
<g>
	<path style="fill:#FF8587;" d="M154.798,19.466c-3.479,2.846-6.179,6.65-7.65,11.063L130.125,81.6
		c-1.338,4.015,0.675,8.378,4.598,9.965l48.839,19.759l-5.779-28.896c-2.624-13.119-6.668-25.914-12.06-38.156L154.798,19.466z"/>
	<path style="fill:#FF8587;" d="M357.203,19.466c3.479,2.846,6.179,6.65,7.65,11.063L381.877,81.6
		c1.338,4.015-0.675,8.378-4.598,9.965l-48.839,19.759l5.779-28.896c2.624-13.119,6.668-25.914,12.06-38.156L357.203,19.466z"/>
</g>
<path style="fill:#DC4655;" d="M193.033,10.948c14.581,23.462,35.709,50.999,62.723,68.703
	c27.099-17.746,48.227-45.286,62.789-68.743C276.822,6.457,234.753,6.469,193.033,10.948z"/>
<path d="M399.711,503.534c-20.977-161.753-71.826-292.568-79.657-312.045l14.672-73.36l45.705-19.588
	c7.36-3.153,11.141-11.573,8.609-19.169l-17.073-51.214c-3.757-11.273-13.388-19.398-25.132-21.206
	c-60.274-9.271-121.396-9.271-181.671,0c-11.745,1.808-21.375,9.933-25.132,21.205l-17.072,51.216
	c-2.532,7.596,1.25,16.016,8.608,19.168l45.706,19.589l14.672,73.361c-7.833,19.48-58.681,150.293-79.658,312.044
	c-0.278,2.14,0.379,4.295,1.804,5.915c1.424,1.621,3.477,2.55,5.634,2.55h272.545c2.157,0,4.21-0.929,5.634-2.55
	C399.331,507.829,399.988,505.674,399.711,503.534z M305.464,17.134c-11.888,17.892-28.741,38.871-49.693,53.492
	c-20.927-14.621-37.789-35.647-49.632-53.457C239.199,14.322,272.403,14.311,305.464,17.134z M137.476,84.753
	c-0.244-0.104-0.37-0.384-0.285-0.636l17.072-51.216c1.971-5.913,7.022-10.176,13.183-11.123c7.289-1.121,14.59-2.102,21.901-2.945
	c13.406,21.335,34.669,49.346,62.37,67.129c1.234,0.792,2.643,1.188,4.052,1.188c1.408,0,2.816-0.396,4.049-1.188
	c27.721-17.781,48.959-45.698,62.44-67.175c7.443,0.854,14.877,1.849,22.297,2.99c6.161,0.947,11.212,5.21,13.183,11.123
	l17.072,51.216c0.084,0.252-0.041,0.531-0.287,0.637l-36.228,15.526l5.22-26.1c0.812-4.062-1.822-8.013-5.884-8.825
	c-4.064-0.815-8.013,1.822-8.825,5.884l-22.627,113.135H205.822L183.195,71.24c-0.813-4.061-4.764-6.688-8.825-5.884
	c-4.062,0.813-6.696,4.764-5.884,8.825l5.22,26.1L137.476,84.753z M319.21,496.999c-5.773-103.329-16.307-192.734-24.219-250.04
	c-0.566-4.104-4.344-6.962-8.456-6.404c-4.103,0.566-6.97,4.353-6.404,8.455c7.853,56.874,18.302,145.518,24.056,247.989h-96.375
	c5.754-102.472,16.203-191.114,24.056-247.989c0.566-4.103-2.301-7.889-6.404-8.455c-4.104-0.564-7.889,2.301-8.456,6.404
	c-7.912,57.305-18.446,146.711-24.219,250.04h-64.496c20.676-150.889,66.833-272.826,76.656-297.625h19.11
	c-0.631,3.931-1.445,9.102-2.403,15.425c-0.621,4.096,2.196,7.919,6.292,8.539c0.381,0.058,0.759,0.086,1.133,0.086
	c3.646,0,6.843-2.663,7.406-6.377c1.159-7.65,2.107-13.614,2.766-17.673h33.493c0.659,4.059,1.607,10.023,2.767,17.673
	c0.563,3.715,3.76,6.377,7.406,6.377c0.374,0,0.752-0.028,1.133-0.086c4.095-0.62,6.912-4.443,6.292-8.539
	c-0.959-6.323-1.772-11.494-2.404-15.425h19.112c9.821,24.78,55.966,146.642,76.655,297.625H319.21z"/>
<g>
</g>
<g>
</g>
<g>
</g>
<g>
</g>
<g>
</g>
<g>
</g>
<g>
</g>
<g>
</g>
<g>
</g>
<g>
</g>
<g>
</g>
<g>
</g>
<g>
</g>
<g>
</g>
<g>
</g>
</svg>
