<?xml version="1.0" encoding="iso-8859-1"?>
<!-- Generator: Adobe Illustrator 19.0.0, SVG Export Plug-In . SVG Version: 6.00 Build 0)  -->
<svg version="1.1" id="Capa_1" xmlns="http://www.w3.org/2000/svg" xmlns:xlink="http://www.w3.org/1999/xlink" x="0px" y="0px"
	 viewBox="0 0 512 512" style="enable-background:new 0 0 512 512;" xml:space="preserve">
<path style="fill:#E6646E;" d="M284.744,7.5h-57.488c-2.126,0-4.165,0.845-5.668,2.348l-25.975,25.975
	c-2.101,2.101-2.2,5.475-0.226,7.696l56.42,63.473c2.232,2.511,6.156,2.511,8.388,0l56.42-63.473
	c1.974-2.221,1.875-5.595-0.226-7.696L290.413,9.848C288.909,8.345,286.87,7.5,284.744,7.5z"/>
<path style="fill:#DC4655;" d="M195.386,43.519l56.42,63.472c2.232,2.511,6.156,2.511,8.388,0l56.42-63.472
	c1.002-1.127,1.459-2.55,1.402-3.954H193.985C193.928,40.969,194.384,42.391,195.386,43.519z"/>
<path style="fill:#FFC350;" d="M256,87.661c-8.854,0-16.032,7.178-16.032,16.032v24.048h32.065v-24.048
	C272.033,94.839,264.854,87.661,256,87.661z"/>
<path style="fill:#FFE17D;" d="M256,119.726c-106.252,0-192.387,86.134-192.387,192.387S149.748,504.5,256,504.5
	s192.387-86.134,192.387-192.387S362.253,119.726,256,119.726z M256,472.435c-88.544,0-160.323-71.779-160.323-160.323
	S167.456,151.79,256,151.79s160.323,71.779,160.323,160.323S344.544,472.435,256,472.435z"/>
<path style="fill:#FFD164;" d="M95.678,312.113c0-88.543,71.779-160.323,160.323-160.323v-32.065
	c-106.253,0-192.387,86.134-192.387,192.387S149.747,504.5,256,504.5v-32.065C167.457,472.435,95.678,400.656,95.678,312.113z"/>
<path d="M279.532,113.618v-9.924c0-1.606-0.163-3.175-0.471-4.692l46.762-54.556c2.551-2.976,2.38-7.413-0.391-10.185L293.368,2.196
	C291.961,0.79,290.054,0,288.065,0h-64.129c-1.989,0-3.897,0.79-5.303,2.196L186.569,34.26c-2.771,2.771-2.942,7.209-0.391,10.185
	l46.762,54.556c-0.308,1.517-0.471,3.085-0.471,4.692v9.924C133.3,125.302,56.113,209.856,56.113,312.113
	C56.113,422.331,145.782,512,256,512s199.887-89.669,199.887-199.887C455.887,209.856,378.7,125.302,279.532,113.618z
	 M241.11,85.486l-32.933-38.422h95.645L270.89,85.486c-4.059-3.326-9.245-5.325-14.89-5.325
	C250.355,80.161,245.17,82.161,241.11,85.486z M227.042,15h57.916l17.064,17.064h-92.045L227.042,15z M247.468,103.693
	c0-4.705,3.828-8.532,8.532-8.532c4.705,0,8.532,3.827,8.532,8.532v8.727c-2.831-0.12-5.673-0.194-8.532-0.194
	c-2.86,0-5.702,0.075-8.532,0.194V103.693z M256,497c-101.947,0-184.887-82.939-184.887-184.887S154.053,127.226,256,127.226
	s184.887,82.94,184.887,184.888S357.948,497,256,497z"/>
<path d="M103.353,304.936c1.773-38.079,17.607-73.906,44.585-100.884c26.978-26.979,62.806-42.813,100.884-44.586
	c37.826-1.773,74.719,10.427,103.881,34.319c3.204,2.625,7.928,2.156,10.555-1.049c2.625-3.204,2.155-7.93-1.049-10.555
	c-32.034-26.246-72.551-39.621-114.084-37.7c-41.82,1.948-81.167,19.337-110.793,48.963S90.317,262.418,88.37,304.237
	c-1.935,41.535,11.454,82.051,37.701,114.085c1.483,1.811,3.635,2.747,5.806,2.747c1.672,0,3.354-0.557,4.749-1.698
	c3.204-2.625,3.673-7.351,1.048-10.555C113.78,379.653,101.591,342.762,103.353,304.936z"/>
<path d="M385.931,205.904c-2.626-3.205-7.352-3.673-10.555-1.049c-3.204,2.625-3.674,7.351-1.049,10.555
	c23.894,29.163,36.082,66.055,34.319,103.881c-1.773,38.078-17.607,73.906-44.585,100.884
	c-26.977,26.978-62.805,42.812-100.884,44.585c-37.835,1.772-74.719-10.426-103.88-34.319c-3.205-2.625-7.93-2.154-10.555,1.049
	c-2.625,3.204-2.156,7.93,1.048,10.555c30.003,24.581,67.442,37.884,106.193,37.884c2.624,0,5.258-0.062,7.892-0.184
	c41.819-1.948,81.167-19.337,110.793-48.962c29.625-29.627,47.014-68.974,48.962-110.794
	C425.566,278.454,412.177,237.938,385.931,205.904z"/>
<g>
</g>
<g>
</g>
<g>
</g>
<g>
</g>
<g>
</g>
<g>
</g>
<g>
</g>
<g>
</g>
<g>
</g>
<g>
</g>
<g>
</g>
<g>
</g>
<g>
</g>
<g>
</g>
<g>
</g>
</svg>
