<?xml version="1.0" encoding="iso-8859-1"?>
<!-- Generator: Adobe Illustrator 19.0.0, SVG Export Plug-In . SVG Version: 6.00 Build 0)  -->
<svg version="1.1" id="Capa_1" xmlns="http://www.w3.org/2000/svg" xmlns:xlink="http://www.w3.org/1999/xlink" x="0px" y="0px"
	 viewBox="0 0 512.002 512.002" style="enable-background:new 0 0 512.002 512.002;" xml:space="preserve">
<path style="fill:#5D5360;" d="M280.049,504.5h-80.161c-4.427,0-8.016-3.589-8.016-8.016V15.516c0-4.427,3.589-8.016,8.016-8.016
	h80.161c4.427,0,8.016,3.589,8.016,8.016v480.968C288.066,500.911,284.477,504.5,280.049,504.5z"/>
<g>
	<path style="fill:#6F6571;" d="M280.049,7.5H215.92v64.129c0,8.854,7.178,16.032,16.032,16.032h56.113V15.516
		C288.066,11.089,284.477,7.5,280.049,7.5z"/>
	<path style="fill:#6F6571;" d="M280.049,504.5H215.92v-64.129c0-8.854,7.178-16.032,16.032-16.032h56.113v72.145
		C288.066,500.911,284.477,504.5,280.049,504.5z"/>
</g>
<path style="fill:#C9C6CA;" d="M288.066,400.29h-96.194c-8.854,0-16.032-7.178-16.032-16.032V127.742
	c0-8.854,7.178-16.032,16.032-16.032h96.194c8.854,0,16.032,7.178,16.032,16.032v256.516
	C304.098,393.112,296.92,400.29,288.066,400.29z"/>
<path style="fill:#C0BCC1;" d="M368.227,231.952h-24.048v48.097h24.048c8.854,0,16.032-7.179,16.032-16.032v-16.032
	C384.259,239.129,377.081,231.952,368.227,231.952z"/>
<circle style="fill:#DBD9DC;" cx="239.971" cy="256" r="112.23"/>
<path style="fill:#C9C6CA;" d="M239.969,143.774c-61.981,0-112.226,50.246-112.226,112.226s50.245,112.226,112.226,112.226V143.774z
	"/>
<circle style="fill:#FFD164;" cx="239.971" cy="256" r="80.16"/>
<circle style="fill:#FFE17D;" cx="239.971" cy="256" r="56.11"/>
<circle style="fill:#FFD164;" cx="239.971" cy="256" r="24.05"/>
<path d="M175.84,248.5h-8.091c1.685-16.157,8.729-31.767,20.841-43.879s27.722-19.156,43.879-20.841v8.091
	c0,4.143,3.357,7.5,7.5,7.5s7.5-3.357,7.5-7.5v-8.108c11.371,1.155,22.565,4.984,32.564,11.608
	c3.455,2.289,8.108,1.344,10.395-2.109c2.288-3.453,1.344-8.107-2.109-10.395c-34.57-22.903-80.973-18.216-110.336,11.146
	c-29.361,29.362-34.05,75.765-11.146,110.336c1.442,2.178,3.827,3.358,6.259,3.358c1.422,0,2.86-0.404,4.136-1.249
	c3.453-2.287,4.397-6.941,2.109-10.395c-6.624-9.999-10.453-21.193-11.608-32.564h8.108c4.143,0,7.5-3.357,7.5-7.5
	S179.982,248.5,175.84,248.5z"/>
<path d="M257.586,212.061L235.723,248.5h-27.818c-4.143,0-7.5,3.357-7.5,7.5s3.357,7.5,7.5,7.5h32.064
	c2.635,0,5.076-1.382,6.432-3.642l24.049-40.081c2.131-3.552,0.979-8.158-2.573-10.29
	C264.325,207.355,259.717,208.508,257.586,212.061z"/>
<path d="M368.227,224.451h-12.759c-7.12-26.036-22.821-48.563-43.87-64.329v-32.38c0-10.354-6.724-19.16-16.032-22.3V15.517
	C295.566,6.961,288.606,0,280.05,0h-80.162c-8.556,0-15.516,6.961-15.516,15.517v89.926c-9.308,3.14-16.032,11.946-16.032,22.3
	v32.38c-29.18,21.855-48.097,56.699-48.097,95.878s18.917,74.022,48.097,95.878v32.38c0,10.354,6.724,19.16,16.032,22.3v89.926
	c0,8.556,6.96,15.517,15.516,15.517h80.162c8.556,0,15.516-6.961,15.516-15.517v-89.926c9.308-3.14,16.032-11.946,16.032-22.3
	v-32.38c21.049-15.766,36.75-38.293,43.87-64.329h12.759c12.976,0,23.532-10.557,23.532-23.532v-16.033
	C391.759,235.008,381.202,224.451,368.227,224.451z M280.565,15.517v88.693h-33.097V15h32.581
	C280.334,15,280.565,15.231,280.565,15.517z M199.888,15h32.581v89.21h-33.097V15.517C199.372,15.231,199.604,15,199.888,15z
	 M183.34,127.742c0-4.705,3.827-8.532,8.532-8.532h96.193c4.705,0,8.532,3.827,8.532,8.532v22.796
	c-16.87-9.095-36.157-14.264-56.629-14.264s-39.759,5.169-56.629,14.264L183.34,127.742L183.34,127.742z M199.372,496.483V407.79
	h33.097V497h-32.581C199.604,497,199.372,496.769,199.372,496.483z M280.05,497h-32.581v-89.21h33.097v88.693
	C280.565,496.769,280.334,497,280.05,497z M296.598,384.258c0,4.705-3.827,8.532-8.532,8.532h-96.193
	c-4.705,0-8.532-3.827-8.532-8.532v-22.796c16.87,9.095,36.157,14.264,56.629,14.264s39.759-5.169,56.629-14.264v22.796H296.598z
	 M239.969,360.726c-57.746,0-104.726-46.979-104.726-104.726s46.979-104.726,104.726-104.726S344.694,198.254,344.694,256
	S297.715,360.726,239.969,360.726z M376.759,264.017c0,4.705-3.827,8.532-8.532,8.532h-9.681c0.752-5.411,1.149-10.934,1.149-16.549
	s-0.397-11.138-1.149-16.549h9.681c4.705,0,8.532,3.827,8.532,8.532V264.017z"/>
<path d="M313.102,207.65c-2.286-3.451-6.938-4.398-10.395-2.109c-3.453,2.287-4.397,6.941-2.109,10.395
	c6.624,9.999,10.453,21.193,11.608,32.564h-8.108c-4.143,0-7.5,3.357-7.5,7.5s3.357,7.5,7.5,7.5h8.091
	c-1.685,16.157-8.729,31.767-20.841,43.879c-12.112,12.113-27.722,19.157-43.879,20.842v-8.092c0-4.143-3.357-7.5-7.5-7.5
	s-7.5,3.357-7.5,7.5v8.108c-11.372-1.155-22.567-4.985-32.566-11.609c-3.451-2.283-8.106-1.343-10.395,2.111
	c-2.287,3.453-1.342,8.106,2.111,10.395c14.68,9.725,31.486,14.474,48.222,14.474c22.678,0,45.22-8.728,62.114-25.621
	C331.316,288.624,336.005,242.222,313.102,207.65z"/>
<g>
</g>
<g>
</g>
<g>
</g>
<g>
</g>
<g>
</g>
<g>
</g>
<g>
</g>
<g>
</g>
<g>
</g>
<g>
</g>
<g>
</g>
<g>
</g>
<g>
</g>
<g>
</g>
<g>
</g>
</svg>
