<?xml version="1.0" encoding="iso-8859-1"?>
<!-- Generator: Adobe Illustrator 19.0.0, SVG Export Plug-In . SVG Version: 6.00 Build 0)  -->
<svg version="1.1" id="Capa_1" xmlns="http://www.w3.org/2000/svg" xmlns:xlink="http://www.w3.org/1999/xlink" x="0px" y="0px"
	 viewBox="0 0 511.999 511.999" style="enable-background:new 0 0 511.999 511.999;" xml:space="preserve">
<path style="fill:#C9C6CA;" d="M111.71,71.629H71.629c-8.854,0-16.032,7.178-16.032,16.032v16.032h72.145V87.661
	C127.742,78.807,120.564,71.629,111.71,71.629z"/>
<g>
	<path style="fill:#C0BCC1;" d="M95.677,71.629H71.629c-8.854,0-16.032,7.178-16.032,16.032v16.032h24.048V87.661
		C79.645,78.807,86.823,71.629,95.677,71.629z"/>
	<path style="fill:#C0BCC1;" d="M191.871,71.629h-16.032c-8.854,0-16.032,7.178-16.032,16.032v16.032h48.097V87.661
		C207.903,78.807,200.725,71.629,191.871,71.629z"/>
</g>
<path style="fill:#AEA8AF;" d="M175.839,71.629c-8.854,0-16.032,7.178-16.032,16.032v16.032h24.048V71.629H175.839z"/>
<path style="fill:#DBD9DC;" d="M480.452,440.371H31.548c-13.282,0-24.048-10.767-24.048-24.048V127.742
	c0-13.282,10.767-24.048,24.048-24.048h448.903c13.282,0,24.048,10.767,24.048,24.048v288.581
	C504.5,429.604,493.733,440.371,480.452,440.371z"/>
<circle style="fill:#AEA8AF;" cx="167.82" cy="272.03" r="120.24"/>
<circle style="fill:#C0BCC1;" cx="167.82" cy="272.03" r="96.19"/>
<path style="fill:#5D5360;" d="M117.863,215.919c-4.936,0-9.592,2.276-12.675,6.13c-10.96,13.704-17.527,31.07-17.527,49.982
	s6.568,36.279,17.527,49.983c3.083,3.855,7.739,6.13,12.675,6.13h99.918c4.936,0,9.592-2.276,12.675-6.13
	c10.96-13.704,17.527-31.07,17.527-49.983c0-18.912-6.567-36.278-17.527-49.982c-3.083-3.855-7.739-6.13-12.675-6.13H117.863z"/>
<circle style="fill:#6F6571;" cx="167.82" cy="272.03" r="24.05"/>
<circle style="fill:#FFFFFF;" cx="191.87" cy="247.98" r="16.03"/>
<path style="fill:#FFEDB1;" d="M400.29,191.871h48.097c8.854,0,16.032-7.178,16.032-16.032v-16.032
	c0-8.854-7.178-16.032-16.032-16.032H400.29c-8.854,0-16.032,7.178-16.032,16.032v16.032
	C384.258,184.693,391.436,191.871,400.29,191.871z"/>
<path style="fill:#C9C6CA;" d="M31.548,272.032V103.694c-13.282,0-24.048,10.767-24.048,24.048v288.581
	c0,13.282,10.767,24.048,24.048,24.048h448.903c13.282,0,24.048-10.767,24.048-24.048h-328.66
	C96.149,416.323,31.548,351.721,31.548,272.032z"/>
<path d="M480.452,96.193H215.403v-8.532c0-12.976-10.557-23.532-23.532-23.532h-16.032c-12.976,0-23.532,10.557-23.532,23.532v8.532
	h-17.065v-8.532c0-12.976-10.557-23.532-23.532-23.532H71.629c-12.976,0-23.532,10.557-23.532,23.532v8.532H31.548
	C14.152,96.193,0,110.346,0,127.742v288.58c0,17.396,14.152,31.549,31.548,31.549h448.903c17.396,0,31.548-14.152,31.548-31.549
	v-288.58C512,110.346,497.848,96.193,480.452,96.193z M167.307,87.661c0-4.705,3.828-8.532,8.532-8.532h16.032
	c4.705,0,8.532,3.827,8.532,8.532v8.532h-33.097v-8.532H167.307z M63.097,87.661c0-4.705,3.828-8.532,8.532-8.532h40.081
	c4.705,0,8.532,3.827,8.532,8.532v8.532H63.097V87.661z M497,416.322c0,9.125-7.423,16.549-16.548,16.549H31.548
	c-9.125,0-16.548-7.424-16.548-16.549v-288.58c0-9.125,7.423-16.549,16.548-16.549h448.903c9.125,0,16.548,7.424,16.548,16.549
	L497,416.322L497,416.322z"/>
<path d="M117.864,335.646h99.918c7.229,0,13.984-3.261,18.532-8.946c12.541-15.683,19.17-34.586,19.17-54.667
	c0-20.082-6.629-38.985-19.169-54.667c-4.547-5.686-11.302-8.946-18.532-8.946h-99.919c-7.23,0-13.985,3.261-18.533,8.946
	c-12.541,15.682-19.169,34.585-19.169,54.667c0,20.081,6.629,38.984,19.17,54.667C103.879,332.385,110.634,335.646,117.864,335.646z
	 M111.045,226.734c1.686-2.107,4.17-3.315,6.818-3.315h99.919c2.648,0,5.133,1.208,6.817,3.315
	c10.392,12.993,15.884,28.657,15.884,45.298c0,16.64-5.493,32.304-15.884,45.298c-1.686,2.107-4.17,3.315-6.818,3.315h-99.918
	c-2.648,0-5.133-1.208-6.818-3.315c-10.392-12.994-15.885-28.658-15.885-45.298C95.161,255.392,100.654,239.728,111.045,226.734z"/>
<path d="M167.823,303.581c17.396,0,31.548-14.152,31.548-31.549s-14.152-31.549-31.548-31.549s-31.548,14.152-31.548,31.549
	S150.427,303.581,167.823,303.581z M167.823,255.483c9.125,0,16.548,7.424,16.548,16.549s-7.423,16.549-16.548,16.549
	s-16.548-7.424-16.548-16.549S158.698,255.483,167.823,255.483z"/>
<path d="M448.387,136.274H400.29c-12.976,0-23.532,10.557-23.532,23.532v16.032c0,12.976,10.557,23.532,23.532,23.532h48.097
	c12.976,0,23.532-10.557,23.532-23.532v-16.032C471.919,146.831,461.363,136.274,448.387,136.274z M391.758,175.839v-16.032
	c0-4.705,3.828-8.532,8.532-8.532h16.548v33.097H400.29C395.586,184.371,391.758,180.544,391.758,175.839z M456.919,175.839
	c0,4.705-3.828,8.532-8.532,8.532h-16.548v-33.097h16.548c4.705,0,8.532,3.827,8.532,8.532V175.839z"/>
<path d="M88.102,192.313c39.732-39.735,103.363-43.966,148.01-9.839c3.292,2.516,7.997,1.887,10.514-1.404
	c2.515-3.291,1.886-7.998-1.404-10.514c-24.379-18.634-54.723-27.843-85.464-25.955c-31.036,1.915-60.25,15.093-82.262,37.104
	c-22.012,22.013-35.189,51.228-37.104,82.263c-1.896,30.733,7.321,61.085,25.955,85.464c1.477,1.932,3.708,2.945,5.964,2.945
	c1.588,0,3.189-0.502,4.549-1.541c3.291-2.516,3.919-7.223,1.404-10.514C44.14,295.676,48.369,232.045,88.102,192.313z"/>
<path d="M258.786,193.229c-3.291,2.516-3.919,7.223-1.404,10.514c34.125,44.646,29.896,108.277-9.838,148.01
	c-39.733,39.735-103.363,43.965-148.011,9.839c-3.29-2.513-7.997-1.885-10.513,1.404c-2.515,3.291-1.886,7.998,1.405,10.514
	c22.287,17.034,49.56,26.198,77.558,26.198c2.628,0,5.268-0.081,7.905-0.243c31.036-1.915,60.251-15.093,82.263-37.104
	c22.012-22.013,35.189-51.227,37.104-82.263c1.896-30.733-7.322-61.085-25.955-85.464
	C266.783,191.342,262.078,190.714,258.786,193.229z"/>
<g>
</g>
<g>
</g>
<g>
</g>
<g>
</g>
<g>
</g>
<g>
</g>
<g>
</g>
<g>
</g>
<g>
</g>
<g>
</g>
<g>
</g>
<g>
</g>
<g>
</g>
<g>
</g>
<g>
</g>
</svg>
