<?xml version="1.0" encoding="iso-8859-1"?>
<!-- Generator: Adobe Illustrator 19.0.0, SVG Export Plug-In . SVG Version: 6.00 Build 0)  -->
<svg version="1.1" id="Capa_1" xmlns="http://www.w3.org/2000/svg" xmlns:xlink="http://www.w3.org/1999/xlink" x="0px" y="0px"
	 viewBox="0 0 512 512" style="enable-background:new 0 0 512 512;" xml:space="preserve">
<g>
	<path style="fill:#5D5360;" d="M355.234,456.818c-4.544-4.556-7.049-10.599-7.049-17.019V139.766
		C348.185,66.838,288.851,7.5,215.919,7.5S83.653,66.838,83.653,139.766v68.137h32.065v-68.137
		c0-55.252,44.95-100.202,100.202-100.202s100.202,44.95,100.202,100.202v300.033c0,14.983,5.836,29.074,16.435,39.681
		l14.826,14.823l24.852-21.807L355.234,456.818z"/>
	<path style="fill:#5D5360;" d="M215.919,71.629c-37.572,0-68.137,30.569-68.137,68.137v60.121h32.065v-60.121
		c0-19.892,16.181-36.073,36.073-36.073s36.073,16.181,36.073,36.073v38.812c0,10.265-4.467,20.052-11.969,26.825l-12.079,10.515
		l16.032,32.065l14.953-16.57c15.687-12.826,25.127-32.331,25.127-52.835v-38.812C284.056,102.198,253.491,71.629,215.919,71.629z"
		/>
</g>
<path style="fill:#867E88;" d="M258.124,230.789l-20.65-24.53c-2.851-3.387-7.908-3.82-11.295-0.97l-25.812,23.134l25.247,41.279
	l31.54-27.619C260.54,239.234,260.975,234.177,258.124,230.789z"/>
<path style="fill:#FFD164;" d="M202.661,212.493c-9.975-13.04-25.481-20.622-41.899-20.622H99.685
	c-13.282,0-24.048,10.767-24.048,24.048v232.468c0,26.563,21.534,48.097,48.097,48.097h96.194c17.709,0,32.065-14.356,32.065-32.065
	v-96.194C251.992,331.455,231.742,250.512,202.661,212.493z"/>
<path style="fill:#FFC350;" d="M123.734,448.387V215.919c0-13.282,10.767-24.048,24.048-24.048c-17.925,0-48.097,0-48.097,0
	c-13.282,0-24.048,10.767-24.048,24.048v232.468c0,26.563,21.534,48.097,48.097,48.097h48.097
	C145.267,496.484,123.734,474.95,123.734,448.387z"/>
<g>
	<path style="fill:#9C969E;" d="M76.358,456.403c3.824,22.739,23.55,40.081,47.376,40.081h96.194
		c17.709,0,32.065-14.356,32.065-32.065v-8.016H76.358z"/>
	<path style="fill:#9C969E;" d="M160.625,256.953c-2.67-5.517-8.267-8.97-14.397-8.97l-26.503,0.001
		c-6.641,0-12.024,5.384-12.024,12.024v172.347h88.177C195.879,337.415,171.279,278.966,160.625,256.953z"/>
</g>
<path style="fill:#5D5360;" d="M123.734,504.5c-39.782,0-72.145-32.367-72.145-72.145s32.363-72.145,72.145-72.145
	s72.145,32.367,72.145,72.145S163.516,504.5,123.734,504.5z"/>
<path style="fill:#9C969E;" d="M123.734,472.435c-22.101,0-40.081-17.982-40.081-40.081s17.98-40.081,40.081-40.081
	s40.081,17.981,40.081,40.081S145.835,472.435,123.734,472.435z"/>
<path style="fill:#867E88;" d="M123.734,448.387c-8.84,0-16.032-7.193-16.032-16.032s7.192-16.032,16.032-16.032
	c8.84,0,16.032,7.193,16.032,16.032S132.574,448.387,123.734,448.387z"/>
<rect x="316.12" y="199.89" style="fill:#9C969E;" width="32.06" height="216.44"/>
<path style="fill:#867E88;" d="M316.121,416.323V439.8c0,14.983,5.836,29.074,16.435,39.681l14.826,14.823l24.852-21.807
	l-16.999-15.679c-4.544-4.556-7.049-10.599-7.049-17.019v-23.477h-32.065V416.323z"/>
<path style="fill:#FFD164;" d="M372.234,472.435h64.129c13.282,0,24.048,10.767,24.048,24.048l0,0c0,4.427-3.589,8.016-8.016,8.016
	h-96.194c-4.427,0-8.016-3.589-8.016-8.016l0,0C348.185,483.202,358.952,472.435,372.234,472.435z"/>
<path style="fill:#FFC350;" d="M388.266,496.484c0-13.282,10.767-24.048,24.048-24.048h-40.081
	c-13.282,0-24.048,10.767-24.048,24.048c0,4.427,3.589,8.016,8.016,8.016h40.081C391.855,504.5,388.266,500.911,388.266,496.484z"/>
<path d="M436.363,464.936h-61.265l-14.653-13.515c-3.07-3.13-4.759-7.252-4.759-11.621V139.767C355.686,62.699,292.987,0,215.919,0
	S76.153,62.699,76.153,139.767v55.17c-4.981,5.58-8.016,12.932-8.016,20.982v159.482c-14.822,14.472-24.048,34.651-24.048,56.953
	c0,43.917,35.729,79.646,79.645,79.646c12.469,0,24.274-2.887,34.793-8.017h61.401c21.816,0,39.564-17.749,39.564-39.564v-96.193
	c0-23.093-7.766-63.646-20.927-100.688l23.419-19.715c3.171-2.669,5.112-6.413,5.467-10.543c0.096-1.115,0.063-2.221-0.075-3.305
	c15.217-14.231,24.18-34.585,24.18-55.396v-38.812c0-41.707-33.931-75.638-75.637-75.638s-75.637,33.931-75.637,75.638v44.604
	h-17.064v-44.604c0-51.116,41.586-92.702,92.702-92.702s92.702,41.586,92.702,92.702V439.8c0,16.985,6.616,32.96,18.632,44.984
	l13.432,13.43v6.286c0,4.143,3.358,7.5,7.5,7.5h112.226c4.142,0,7.5-3.357,7.5-7.5v-8.017
	C467.911,479.088,453.759,464.936,436.363,464.936z M323.621,207.387h17.064v201.436h-17.064V207.387z M59.089,432.354
	c0-35.646,29-64.645,64.645-64.645s64.645,28.999,64.645,64.645S159.379,497,123.734,497S59.089,468,59.089,432.354z
	 M115.202,353.173v-93.165c0-2.495,2.029-4.524,4.524-4.524h26.502c3.302,0,6.232,1.815,7.646,4.737
	c10.273,21.224,26.076,62.269,32.068,122.485c-14.607-18.265-37.057-29.996-62.209-29.996
	C120.851,352.71,118.006,352.873,115.202,353.173z M219.927,488.983h-40.256c7.222-7.135,13.087-15.636,17.178-25.08h47.643v0.516
	C244.492,477.964,233.472,488.983,219.927,488.983z M244.492,448.903h-42.854c1.133-5.341,1.741-10.875,1.741-16.549
	c0-86.188-19.579-144.733-36.003-178.669c-3.882-8.02-12.183-13.202-21.148-13.202h-26.502c-10.766,0-19.524,8.759-19.524,19.524
	v96.253c-6.026,1.867-11.741,4.442-17.064,7.61V215.919c0-9.124,7.423-16.548,16.548-16.548h61.076
	c14.039,0,27.475,6.608,35.942,17.679c27.721,36.242,47.788,115.458,47.788,151.176L244.492,448.903L244.492,448.903z
	 M244.492,178.578c0,6.843-2.501,13.455-6.945,18.631c-1.529-0.666-3.167-1.1-4.877-1.247c-4.131-0.362-8.151,0.92-11.32,3.59
	l-11.659,9.815c-0.356-0.481-0.712-0.962-1.071-1.432c-5.67-7.412-13.007-13.32-21.271-17.369v-50.801
	c0-15.755,12.818-28.573,28.573-28.573s28.572,12.818,28.572,28.573v38.813H244.492z M252.324,236.347l-19.413,16.343
	c-4.514-11.049-9.515-21.486-14.931-30.694l13.029-10.968c0.04-0.034,0.157-0.14,0.376-0.119c0.213,0.019,0.317,0.142,0.351,0.182
	l20.65,24.529c0.034,0.04,0.138,0.164,0.12,0.377C252.488,236.209,252.365,236.313,252.324,236.347z M155.282,139.767
	c0-33.436,27.202-60.638,60.637-60.638s60.637,27.202,60.637,60.638v38.812c0,15.603-6.297,30.888-17.103,42.145l-11.054-13.13
	c7.095-7.965,11.092-18.303,11.092-29.014v-38.812c0-24.026-19.546-43.573-43.572-43.573s-43.573,19.547-43.573,43.573v45.762
	c-3.793-0.748-7.669-1.157-11.585-1.157h-5.479V139.767z M215.919,32.064c-59.387,0-107.702,48.315-107.702,107.702v44.604h-8.532
	c-2.957,0-5.816,0.418-8.532,1.182v-45.787C91.153,70.97,147.123,15,215.919,15s124.766,55.97,124.766,124.767v52.62h-17.064v-52.62
	C323.621,80.38,275.306,32.064,215.919,32.064z M323.621,439.8v-15.978h17.064V439.8c0,8.416,3.281,16.341,9.239,22.314
	c0.074,0.074,0.149,0.146,0.226,0.217l6.997,6.453c-5.198,2.843-9.507,7.108-12.413,12.266l-6.872-6.872
	C328.678,464.99,323.621,452.78,323.621,439.8z M452.911,497h-97.226v-0.517c0-9.125,7.423-16.548,16.548-16.548h64.129
	c9.125,0,16.548,7.423,16.548,16.548V497H452.911z"/>
<path d="M135.614,402.054c3.857,1.511,8.207-0.395,9.717-4.252c1.509-3.858-0.396-8.208-4.253-9.717
	c-17.625-6.895-37.639-2.725-50.989,10.625c-13.349,13.35-17.52,33.363-10.625,50.989c1.158,2.96,3.989,4.77,6.987,4.77
	c0.909,0,1.833-0.166,2.73-0.518c3.858-1.509,5.762-5.859,4.253-9.717c-4.724-12.076-1.873-25.782,7.262-34.917
	C109.831,400.182,123.538,397.331,135.614,402.054z"/>
<path d="M168.004,415.011c-1.509-3.857-5.86-5.762-9.717-4.252c-3.858,1.509-5.762,5.859-4.253,9.717
	c4.724,12.076,1.873,25.782-7.262,34.917c-9.136,9.136-22.843,11.982-34.918,7.263c-3.858-1.511-8.208,0.395-9.717,4.252
	c-1.509,3.858,0.396,8.208,4.253,9.717c5.646,2.209,11.535,3.281,17.374,3.281c12.389,0,24.542-4.833,33.615-13.905
	C170.728,452.65,174.898,432.637,168.004,415.011z"/>
<g>
</g>
<g>
</g>
<g>
</g>
<g>
</g>
<g>
</g>
<g>
</g>
<g>
</g>
<g>
</g>
<g>
</g>
<g>
</g>
<g>
</g>
<g>
</g>
<g>
</g>
<g>
</g>
<g>
</g>
</svg>
