<?xml version="1.0" encoding="iso-8859-1"?>
<!-- Generator: Adobe Illustrator 19.0.0, SVG Export Plug-In . SVG Version: 6.00 Build 0)  -->
<svg version="1.1" id="Capa_1" xmlns="http://www.w3.org/2000/svg" xmlns:xlink="http://www.w3.org/1999/xlink" x="0px" y="0px"
	 viewBox="0 0 511.999 511.999" style="enable-background:new 0 0 511.999 511.999;" xml:space="preserve">
<path style="fill:#FFEDB1;" d="M292.086,88.258c-7.559-3.816-12.037-11.866-12.037-20.333c0-4.353,1.337-8.549,3.57-12.287
	c3.708-6.211,5.372-13.758,3.93-21.851C285.119,20.15,273.574,9.3,259.812,7.714c-19.414-2.238-35.875,12.88-35.875,31.844
	c0,5.952,1.667,11.474,4.525,16.21c2.221,3.679,3.491,7.844,3.491,12.142v0.007c0,8.444-4.432,16.511-11.974,20.309
	c-21.583,10.871-37.584,31.192-42.533,55.542h156.915C329.4,119.475,313.618,99.129,292.086,88.258z"/>
<path style="fill:#FFE17D;" d="M245.828,99.206c6.481-6.073,11.974-14.656,11.974-25.088v-0.007c0-5.31-1.27-10.455-3.491-14.999
	c-2.858-5.851-4.525-12.672-4.525-20.025c0-12.548,4.75-23.693,12.12-30.951c-0.702-0.131-1.381-0.34-2.095-0.422
	c-19.414-2.238-35.875,12.88-35.875,31.844c0,5.952,1.667,11.474,4.525,16.21c2.221,3.679,3.491,7.844,3.491,12.142v0.007
	c0,8.444-4.432,16.511-11.974,20.309c-21.583,10.871-37.584,31.192-42.533,55.542h46.491
	C223.935,143.77,223.935,119.721,245.828,99.206z"/>
<path style="fill:#EDEBED;" d="M167.821,191.867v280.569c0,17.708,14.356,32.065,32.065,32.065h112.228
	c17.709,0,32.065-14.356,32.065-32.065V191.867H167.821z"/>
<g>
	<path style="fill:#DBD9DC;" d="M219.945,504.5h0.422C220.223,504.254,220.083,504.296,219.945,504.5z"/>
	<path style="fill:#DBD9DC;" d="M167.821,191.867v280.569c0,17.708,14.356,32.065,32.065,32.065h16.032V239.964
		c0-13.282,10.767-24.048,24.048-24.048h104.211v-24.048L167.821,191.867L167.821,191.867z"/>
</g>
<path style="fill:#FFD164;" d="M344.179,191.867H167.821c-4.427,0-8.016-3.589-8.016-8.016v-32.065c0-4.427,3.589-8.016,8.016-8.016
	h176.357c4.427,0,8.016,3.589,8.016,8.016v32.065C352.195,188.278,348.606,191.867,344.179,191.867z"/>
<path style="fill:#FFC350;" d="M167.821,143.77c-4.427,0-8.016,3.589-8.016,8.016v32.065c0,4.427,3.589,8.016,8.016,8.016h48.098
	V143.77L167.821,143.77L167.821,143.77z"/>
<path d="M344.179,136.27h-3.92c-6.587-23.798-22.646-43.525-44.794-54.707c-4.809-2.428-7.916-7.78-7.916-13.637
	c0-2.775,0.867-5.694,2.509-8.443c4.881-8.175,6.566-17.515,4.875-27.012c-3.028-16.986-17.117-30.23-34.264-32.207
	c-11.279-1.299-22.574,2.255-30.987,9.752c-8.418,7.504-13.246,18.272-13.246,29.543c0,7.066,1.938,14.012,5.604,20.085
	c1.577,2.614,2.411,5.473,2.411,8.274c0,5.867-3.08,11.21-7.848,13.61c-21.977,11.07-38.467,31.249-45.049,54.741h-3.733
	c-8.556,0-15.516,6.96-15.516,15.516v32.064c0,5.836,3.241,10.925,8.016,13.574v275.011c0,21.816,17.749,39.565,39.565,39.565
	h112.23c21.815,0,39.565-17.748,39.565-39.565v-275.01c4.774-2.649,8.016-7.738,8.016-13.574v-32.064
	C359.695,143.23,352.735,136.27,344.179,136.27z M223.35,94.925C233.131,90,239.451,79.4,239.451,67.91
	c0-5.525-1.58-11.064-4.569-16.018c-2.255-3.735-3.446-8-3.446-12.334c0-6.998,2.999-13.685,8.228-18.345
	c5.299-4.725,12.148-6.869,19.288-6.05c10.448,1.205,19.369,9.591,21.214,19.938c1.049,5.89,0.017,11.661-2.986,16.689
	c-3.028,5.072-4.63,10.651-4.63,16.134c0,11.465,6.343,22.073,16.157,27.027c17.076,8.622,29.771,23.396,35.849,41.316H187.26
	C193.383,118.538,206.395,103.466,223.35,94.925z M312.114,497H199.886c-13.545,0-24.564-11.02-24.564-24.564V199.368h120.757
	c4.143,0,7.5-3.357,7.5-7.5c0-4.143-3.357-7.5-7.5-7.5H167.821c-0.284,0-0.516-0.231-0.516-0.517v-32.064
	c0-0.284,0.231-0.516,0.516-0.516h176.357c0.284,0,0.516,0.231,0.516,0.516v32.064c0,0.285-0.231,0.517-0.516,0.517h-16.03
	c-4.143,0-7.5,3.357-7.5,7.5c0,4.143,3.357,7.5,7.5,7.5h8.53v273.068C336.679,485.981,325.659,497,312.114,497z"/>
<path d="M247.983,240.48h-32.064c-4.143,0-7.5,3.357-7.5,7.5s3.357,7.5,7.5,7.5h32.064c4.143,0,7.5-3.357,7.5-7.5
	S252.126,240.48,247.983,240.48z"/>
<path d="M247.983,304.611h-32.064c-4.143,0-7.5,3.357-7.5,7.5s3.357,7.5,7.5,7.5h32.064c4.143,0,7.5-3.357,7.5-7.5
	S252.126,304.611,247.983,304.611z"/>
<path d="M247.983,272.546h-16.032c-4.143,0-7.5,3.357-7.5,7.5s3.357,7.5,7.5,7.5h16.032c4.143,0,7.5-3.357,7.5-7.5
	S252.126,272.546,247.983,272.546z"/>
<path d="M247.983,336.676h-16.032c-4.143,0-7.5,3.357-7.5,7.5c0,4.143,3.357,7.5,7.5,7.5h16.032c4.143,0,7.5-3.357,7.5-7.5
	C255.484,340.033,252.126,336.676,247.983,336.676z"/>
<path d="M247.983,400.805h-16.032c-4.143,0-7.5,3.357-7.5,7.5c0,4.143,3.357,7.5,7.5,7.5h16.032c4.143,0,7.5-3.357,7.5-7.5
	C255.484,404.163,252.126,400.805,247.983,400.805z"/>
<path d="M247.983,368.741h-32.064c-4.143,0-7.5,3.357-7.5,7.5s3.357,7.5,7.5,7.5h32.064c4.143,0,7.5-3.357,7.5-7.5
	S252.126,368.741,247.983,368.741z"/>
<path d="M247.983,432.871h-32.064c-4.143,0-7.5,3.357-7.5,7.5s3.357,7.5,7.5,7.5h32.064c4.143,0,7.5-3.357,7.5-7.5
	S252.126,432.871,247.983,432.871z"/>
<g>
</g>
<g>
</g>
<g>
</g>
<g>
</g>
<g>
</g>
<g>
</g>
<g>
</g>
<g>
</g>
<g>
</g>
<g>
</g>
<g>
</g>
<g>
</g>
<g>
</g>
<g>
</g>
<g>
</g>
</svg>
