<?xml version="1.0" encoding="iso-8859-1"?>
<!-- Generator: Adobe Illustrator 19.0.0, SVG Export Plug-In . SVG Version: 6.00 Build 0)  -->
<svg version="1.1" id="Capa_1" xmlns="http://www.w3.org/2000/svg" xmlns:xlink="http://www.w3.org/1999/xlink" x="0px" y="0px"
	 viewBox="0 0 512.001 512.001" style="enable-background:new 0 0 512.001 512.001;" xml:space="preserve">
<path style="fill:#FFD800;" d="M462.301,8.649l-8.8-5.198c-7.712-4.555-17.279-4.604-25.036-0.127L65.08,213.04
	c-16.042,9.262-25.925,26.379-25.925,44.904v226.707c0,7.434,3.973,14.301,10.419,18.006l11.082,6.37
	c0.188,0.112,0.378,0.221,0.57,0.328l0.301,0.173l0.006-0.008c5.961,3.184,13.452,3.531,20.14-0.33L446.92,298.313
	c16.042-9.262,25.925-26.379,25.925-44.904V26.712C472.845,18.652,468.44,12.121,462.301,8.649z"/>
<path style="fill:#FF812C;" d="M50.54,491.214V264.517c0-18.524,9.883-35.641,25.925-44.904L441.712,8.738
	c6.856-3.959,14.559-3.499,20.589-0.089l-8.8-5.198c-7.712-4.555-17.279-4.604-25.036-0.127L65.08,213.04
	c-16.042,9.262-25.925,26.379-25.925,44.904v226.707c0,7.434,3.973,14.301,10.419,18.006l11.082,6.37
	C54.741,505.496,50.54,499.085,50.54,491.214z"/>
<path style="fill:#CC8200;" d="M61.225,509.354l0.301,0.173l0.006-0.008C61.43,509.464,61.327,509.41,61.225,509.354z"/>
<polygon style="fill:#FF9F2C;" points="295.733,159.887 295.733,194.656 445.323,108.29 445.323,73.885 "/>
<g>
	<polygon style="fill:#FFFFFF;" points="295.733,293.318 295.733,324.065 339.605,298.565 339.605,268.14 	"/>
	<polygon style="fill:#FFFFFF;" points="349.014,262.587 349.014,293.335 392.886,267.834 392.886,237.409 	"/>
	<polygon style="fill:#FFFFFF;" points="402.295,231.857 402.295,262.604 446.167,237.104 446.167,206.679 	"/>
</g>
<g>
	<polygon style="fill:#FF9F2C;" points="297.419,218.649 443.638,134.27 443.638,149.661 297.419,234.039 	"/>
	<polygon style="fill:#FF9F2C;" points="297.419,253.143 443.638,168.764 443.638,184.155 297.419,268.533 	"/>
</g>
<g>
	<polygon style="fill:#C40041;" points="119.161,445.286 115.595,412.791 89.68,422.998 144.126,318.969 173.608,341.256 	"/>
	<polygon style="fill:#C40041;" points="228.054,382.417 231.62,345.804 257.536,326.086 203.09,284.926 173.608,341.256 	"/>
</g>
<g>
	<path style="fill:#F43834;" d="M76.493,320.591L76.493,320.591c-3.66,19.795-3.66,38.731,0,54.3l0,0
		c3.51,14.93,15.325,17.842,26.725,6.588l45.393-44.811v-30.564V275.54l-45.393,7.604C91.818,285.053,80.003,301.609,76.493,320.591
		z"/>
	<path style="fill:#F43834;" d="M270.722,208.453L270.722,208.453c3.66,15.569,3.66,34.505,0,54.3l0,0
		c-3.51,18.982-15.325,35.537-26.725,37.447l-45.393,7.604V277.24v-30.564l45.393-44.811
		C255.398,190.611,267.213,193.523,270.722,208.453z"/>
</g>
<path style="fill:#FF5331;" d="M185.249,334.603l-23.283,13.443c-9.13,5.271-16.531-0.324-16.531-12.497v-55.222
	c0-12.173,7.401-26.314,16.531-31.585l23.283-13.443c9.13-5.271,16.531,0.324,16.531,12.497v55.222
	C201.78,315.191,194.379,329.332,185.249,334.603z"/>
<g style="opacity:0.2;">
	<path style="fill:#FFFFFF;" d="M119.424,194.811L50.54,386.605v104.61c0,15.977,17.296,25.963,31.132,17.974l60.987-35.211
		l132.574-369.123L119.424,194.811z"/>
</g>
<g style="opacity:0.2;">
	<path style="fill:#FFFFFF;" d="M472.845,113.53V26.712c0-15.977-17.296-25.963-31.133-17.974l-91.296,52.71L217.842,430.57
		l178.057-102.8L472.845,113.53z"/>
</g>
<g>
</g>
<g>
</g>
<g>
</g>
<g>
</g>
<g>
</g>
<g>
</g>
<g>
</g>
<g>
</g>
<g>
</g>
<g>
</g>
<g>
</g>
<g>
</g>
<g>
</g>
<g>
</g>
<g>
</g>
</svg>
