<?xml version="1.0" encoding="iso-8859-1"?>
<!-- Generator: Adobe Illustrator 19.0.0, SVG Export Plug-In . SVG Version: 6.00 Build 0)  -->
<svg version="1.1" id="Capa_1" xmlns="http://www.w3.org/2000/svg" xmlns:xlink="http://www.w3.org/1999/xlink" x="0px" y="0px"
	 viewBox="0 0 512.001 512.001" style="enable-background:new 0 0 512.001 512.001;" xml:space="preserve">
<path style="fill:#00D16D;" d="M436.88,8.649l-8.8-5.198c-7.712-4.555-17.279-4.604-25.036-0.127L39.659,213.04
	c-16.042,9.262-25.925,26.379-25.925,44.904v226.707c0,7.434,3.974,14.301,10.419,18.006l11.082,6.37
	c0.188,0.112,0.378,0.221,0.57,0.328l0.301,0.173l0.006-0.008c5.96,3.184,13.452,3.531,20.14-0.33l365.247-210.876
	c16.043-9.262,25.925-26.379,25.925-44.904V26.712C447.423,18.652,443.019,12.121,436.88,8.649z"/>
<path style="fill:#007A6E;" d="M25.119,491.214V264.517c0-18.524,9.883-35.641,25.925-44.904L416.291,8.738
	c6.856-3.959,14.559-3.499,20.589-0.089l-8.8-5.198c-7.712-4.555-17.279-4.604-25.036-0.127L39.659,213.04
	c-16.042,9.262-25.925,26.379-25.925,44.904v226.707c0,7.434,3.974,14.301,10.419,18.006l11.082,6.37
	C29.32,505.496,25.119,499.085,25.119,491.214z"/>
<path style="fill:#2683BF;" d="M35.804,509.354l0.301,0.173l0.006-0.008C36.009,509.464,35.906,509.41,35.804,509.354z"/>
<polygon style="fill:#284363;" points="25.119,423.207 447.303,179.459 447.303,241.581 25.119,485.541 "/>
<polygon style="fill:#FFD800;" points="337.72,105.953 419.656,58.648 419.656,110.979 337.72,158.284 "/>
<g>
	<path style="fill:#FF9F2C;" d="M349.639,108.416l13.256-7.653c2.62-1.513,5.895,0.378,5.895,3.403v17.95l-5.701,3.421v2.819
		l51.304-29.317v5.349c0,1.743-0.93,3.354-2.44,4.226l-67.72,39.098v-5.289c0-1.711,0.896-3.297,2.362-4.18l12.359-7.445v-2.819
		l-8.858,5.003c-2.62,1.48-5.863-0.413-5.863-3.422v-11.784C344.235,113.916,346.295,110.347,349.639,108.416z"/>
	<path style="fill:#FF9F2C;" d="M411.954,97.196c1.51-0.871,2.44-2.482,2.44-4.226v-7.956l-37.902,21.883
		c-1.51,0.871-2.44,2.482-2.44,4.226v7.956L411.954,97.196z"/>
	<path style="fill:#FF9F2C;" d="M376.492,92.927c-1.51,0.872-2.44,2.482-2.44,4.226v7.956l20.864-12.052
		c1.509-0.872,2.439-2.482,2.439-4.225v-7.95L376.492,92.927z"/>
	<path style="fill:#FF9F2C;" d="M401.958,78.093c-1.528,0.866-2.473,2.488-2.473,4.245v8.087l12.469-7.199
		c1.51-0.871,2.44-2.482,2.44-4.226v-7.956L401.958,78.093z"/>
</g>
<g>
	<polygon style="fill:#FFFFFF;" points="53.19,269.683 53.19,304.088 163.574,240.317 163.574,205.953 	"/>
	<polygon style="fill:#FFFFFF;" points="174.599,199.224 174.599,233.993 324.189,147.627 324.189,113.222 	"/>
</g>
<g>
	<polygon style="fill:#009F5E;" points="53.19,330.069 324.189,173.607 324.189,188.998 53.19,345.459 	"/>
	<polygon style="fill:#009F5E;" points="53.19,358.633 324.189,202.172 324.189,217.563 53.19,374.024 	"/>
</g>
<g style="opacity:0.2;">
	<path style="fill:#FFFFFF;" d="M94.003,194.811L25.119,386.605v104.61c0,15.977,17.296,25.963,31.132,17.974l60.986-35.211
		l132.574-369.123L94.003,194.811z"/>
</g>
<g style="opacity:0.2;">
	<path style="fill:#FFFFFF;" d="M447.423,113.53V26.712c0-15.977-17.296-25.963-31.132-17.974l-91.296,52.71L192.421,430.57
		l178.056-102.8L447.423,113.53z"/>
</g>
<path style="fill:#FFD800;" d="M498.266,221.761l-45.992-26.553l-0.117,0.01c-25.701,2.238-50.599,10.083-72.941,22.982l0,0
	c-29.257,16.891-55.842,38.036-78.884,62.741l-4.361,4.676v130.747l45.848,26.47l0,0l0,0c25.742-2.224,50.682-10.073,73.058-22.992
	l0.442-0.255c29.053-16.774,55.472-37.742,78.404-62.227l4.544-4.851L498.266,221.761L498.266,221.761z"/>
<path style="fill:#FF9F2C;" d="M295.97,285.617l45.847,26.47l0,0c25.742-2.224,50.682-10.073,73.059-22.992l0.442-0.255
	c29.053-16.774,55.472-37.742,78.404-62.227l4.544-4.851l-45.991-26.553l-0.118,0.01c-25.701,2.238-50.599,10.083-72.941,22.982l0,0
	c-29.257,16.891-55.842,38.036-78.884,62.741L295.97,285.617z"/>
<polygon style="fill:#FF812C;" points="341.818,312.087 295.97,285.617 295.97,416.364 341.818,442.834 "/>
<path style="fill:#C8CED6;" d="M345.214,297.038c-8.256,0-14.948-6.693-14.948-14.948v-28.56c0-36.443,21.066-80.213,55.707-96.488
	c35.175-16.526,79.325,3.379,79.325,45.798v19.041c0,19.328-29.897,19.328-29.897,0V202.84c0-25.836-26.248-23.204-41.427-14.842
	c-21.483,11.834-33.812,42.251-33.812,65.532v28.56C360.162,290.346,353.47,297.038,345.214,297.038z"/>
<path style="fill:#FF9F2C;" d="M475.15,313.788c0,21.712-19.299,50.456-43.104,64.2c-23.806,13.744-43.104,7.285-43.104-14.428
	c0-21.712,19.298-50.456,43.104-64.2C455.851,285.616,475.15,292.075,475.15,313.788z"/>
<g>
</g>
<g>
</g>
<g>
</g>
<g>
</g>
<g>
</g>
<g>
</g>
<g>
</g>
<g>
</g>
<g>
</g>
<g>
</g>
<g>
</g>
<g>
</g>
<g>
</g>
<g>
</g>
<g>
</g>
</svg>
