<?xml version="1.0" encoding="iso-8859-1"?>
<!-- Generator: Adobe Illustrator 19.0.0, SVG Export Plug-In . SVG Version: 6.00 Build 0)  -->
<svg version="1.1" id="Capa_1" xmlns="http://www.w3.org/2000/svg" xmlns:xlink="http://www.w3.org/1999/xlink" x="0px" y="0px"
	 viewBox="0 0 512.001 512.001" style="enable-background:new 0 0 512.001 512.001;" xml:space="preserve">
<path style="fill:#33AEFF;" d="M462.301,8.649l-8.8-5.198c-7.712-4.555-17.279-4.604-25.036-0.127L65.08,213.04
	c-16.042,9.262-25.925,26.379-25.925,44.904v226.707c0,7.434,3.973,14.301,10.419,18.006l11.082,6.37
	c0.188,0.112,0.378,0.221,0.57,0.328l0.301,0.173l0.006-0.008c5.961,3.184,13.452,3.531,20.14-0.33L446.92,298.314
	c16.043-9.262,25.925-26.379,25.925-44.904V26.712C472.845,18.652,468.44,12.121,462.301,8.649z"/>
<path style="fill:#247AB3;" d="M50.54,491.214V264.517c0-18.524,9.883-35.641,25.925-44.904L441.712,8.738
	c6.856-3.959,14.559-3.499,20.589-0.089l-8.8-5.198c-7.712-4.555-17.279-4.604-25.036-0.127L65.08,213.04
	c-16.042,9.262-25.925,26.379-25.925,44.904v226.707c0,7.434,3.973,14.301,10.419,18.006l11.082,6.37
	C54.742,505.496,50.54,499.085,50.54,491.214z"/>
<path style="fill:#2683BF;" d="M61.225,509.354l0.301,0.173l0.006-0.008C61.43,509.464,61.327,509.41,61.225,509.354z"/>
<polygon style="fill:#284363;" points="50.54,423.207 472.724,179.459 472.724,241.581 50.54,485.541 "/>
<polygon style="fill:#FFD800;" points="363.141,105.953 445.077,58.648 445.077,110.979 363.141,158.284 "/>
<g>
	<path style="fill:#FF9F2C;" d="M375.061,108.416l13.256-7.653c2.62-1.513,5.895,0.378,5.895,3.403v17.95l-5.701,3.421v2.819
		l51.304-29.317v5.349c0,1.743-0.93,3.354-2.44,4.226l-67.72,39.098v-5.289c0-1.711,0.896-3.297,2.362-4.18l12.359-7.445v-2.819
		l-8.858,5.003c-2.62,1.48-5.863-0.413-5.863-3.422v-11.784C369.656,113.916,371.716,110.347,375.061,108.416z"/>
	<path style="fill:#FF9F2C;" d="M437.376,97.196c1.51-0.871,2.44-2.482,2.44-4.226v-7.956l-37.902,21.883
		c-1.51,0.871-2.44,2.482-2.44,4.226v7.956L437.376,97.196z"/>
	<path style="fill:#FF9F2C;" d="M401.913,92.927c-1.51,0.872-2.44,2.482-2.44,4.226v7.956l20.864-12.052
		c1.509-0.872,2.439-2.482,2.439-4.225v-7.95L401.913,92.927z"/>
	<path style="fill:#FF9F2C;" d="M427.38,78.093c-1.528,0.866-2.473,2.488-2.473,4.245v8.087l12.469-7.199
		c1.51-0.871,2.44-2.482,2.44-4.226v-7.956L427.38,78.093z"/>
</g>
<g>
	<polygon style="fill:#FFFFFF;" points="78.612,269.683 78.612,304.088 188.995,240.317 188.995,205.953 	"/>
	<polygon style="fill:#FFFFFF;" points="200.021,199.224 200.021,233.993 349.61,147.627 349.61,113.222 	"/>
</g>
<g>
	<polygon style="fill:#2683BF;" points="78.612,330.069 349.61,173.607 349.61,188.998 78.612,345.459 	"/>
	<polygon style="fill:#2683BF;" points="78.612,358.633 349.61,202.172 349.61,217.563 78.612,374.024 	"/>
</g>
<g style="opacity:0.2;">
	<path style="fill:#FFFFFF;" d="M119.424,194.811L50.54,386.605v104.61c0,15.977,17.296,25.963,31.132,17.974l60.987-35.211
		l132.574-369.123L119.424,194.811z"/>
</g>
<g style="opacity:0.2;">
	<path style="fill:#FFFFFF;" d="M472.845,113.53V26.712c0-15.977-17.296-25.963-31.132-17.974l-91.296,52.71L217.842,430.57
		l178.056-102.8L472.845,113.53z"/>
</g>
<g>
</g>
<g>
</g>
<g>
</g>
<g>
</g>
<g>
</g>
<g>
</g>
<g>
</g>
<g>
</g>
<g>
</g>
<g>
</g>
<g>
</g>
<g>
</g>
<g>
</g>
<g>
</g>
<g>
</g>
</svg>
