<?xml version="1.0" encoding="iso-8859-1"?>
<!-- Generator: Adobe Illustrator 19.0.0, SVG Export Plug-In . SVG Version: 6.00 Build 0)  -->
<svg version="1.1" id="Capa_1" xmlns="http://www.w3.org/2000/svg" xmlns:xlink="http://www.w3.org/1999/xlink" x="0px" y="0px"
	 viewBox="0 0 512.001 512.001" style="enable-background:new 0 0 512.001 512.001;" xml:space="preserve">
<g>
	<path style="fill:#8B5129;" d="M403.46,70.537c0.001,0,0.002,0.001,0.003,0.001l-12.242-7.068l0.02,0.068
		c-4.905-1.099-6.311-1.563-4.216-1.394c-0.932-1.354-2.181-2.447-3.605-3.215l-12.148-7.223l0.005,0.013
		c-3.004-1.842-6.931-2.164-10.417-0.151L103.07,200.231c-4.551,2.627-7.095,7.874-6.068,13.32h-0.247V498.34h0.072
		c5.486,14.639,20.951,15.683,35.224,9.776l261.633-150.909c9.569-5.52,15.464-15.727,15.464-26.773V79.655
		C409.147,75.481,406.734,72.158,403.46,70.537C403.461,70.537,406.734,72.158,403.46,70.537z"/>
	<path style="fill:#8B5129;" d="M404.827,71.325l-0.226-0.131c0.07,0.046,0.14,0.09,0.209,0.138L404.827,71.325z"/>
</g>
<path style="fill:#BA6024;" d="M123.146,203.462l-2.924,1.687l-3.068,1.769c-1.632,0.942-1.632,3.297-0.001,4.239
	c2.377,1.372,5.305,1.373,7.682,0.002l256.132-147.7c1.962-1.131,4.062-1.515,6.057-1.314c-2.848-4.135-8.606-5.901-13.498-3.076
	L123.146,203.462L123.146,203.462z"/>
<path style="fill:#33AEFF;" d="M350.149,13.694l-4.72-2.789c-4.137-2.443-9.269-2.469-13.431-0.068L137.055,123.343
	c-8.606,4.968-13.908,14.152-13.908,24.089v121.62c0,3.988,2.132,7.672,5.589,9.66l5.945,3.417c0.101,0.06,0.203,0.118,0.305,0.176
	l0.161,0.093l0.003-0.004c3.198,1.709,7.217,1.895,10.805-0.177L341.897,169.09c8.606-4.968,13.908-14.152,13.908-24.089V23.385
	C355.805,19.061,353.442,15.558,350.149,13.694z"/>
<path style="fill:#4F78E0;" d="M129.254,272.573V150.958c0-9.938,5.302-19.12,13.908-24.089L339.103,13.742
	c3.678-2.124,7.81-1.877,11.045-0.048l-4.72-2.789c-4.137-2.443-9.269-2.469-13.431-0.068L137.055,123.343
	c-8.606,4.968-13.908,14.152-13.908,24.089v121.62c0,3.988,2.132,7.672,5.589,9.66l5.945,3.417
	C131.508,280.235,129.254,276.796,129.254,272.573z"/>
<path style="fill:#2683BF;" d="M134.986,282.305l0.161,0.093l0.003-0.004C135.096,282.364,135.041,282.335,134.986,282.305z"/>
<polygon style="fill:#424242;" points="129.254,236.09 355.74,105.328 355.74,138.654 129.254,269.529 "/>
<polygon style="fill:#FFD800;" points="296.953,65.895 340.909,40.518 340.909,68.591 296.953,93.969 "/>
<g>
	<path style="fill:#DCA700;" d="M303.347,67.217l7.111-4.106c1.405-0.812,3.163,0.203,3.163,1.826v9.63l-3.059,1.835v1.512
		l27.524-15.727v2.87c0,0.935-0.498,1.8-1.309,2.267l-36.329,20.975V85.46c0-0.918,0.48-1.769,1.267-2.242l6.63-3.994v-1.512
		l-4.752,2.683c-1.405,0.794-3.145-0.221-3.145-1.836v-6.322C300.448,70.167,301.553,68.253,303.347,67.217z"/>
	<path style="fill:#DCA700;" d="M336.777,61.197c0.81-0.467,1.309-1.332,1.309-2.267v-4.268l-20.333,11.74
		c-0.81,0.467-1.309,1.331-1.309,2.267v4.268L336.777,61.197z"/>
	<path style="fill:#DCA700;" d="M317.753,58.907c-0.81,0.467-1.309,1.331-1.309,2.267v4.269l11.193-6.466
		c0.81-0.467,1.308-1.331,1.308-2.267v-4.265L317.753,58.907z"/>
	<path style="fill:#DCA700;" d="M331.414,50.949c-0.82,0.465-1.327,1.334-1.327,2.277v4.338l6.689-3.862
		c0.81-0.467,1.309-1.332,1.309-2.267v-4.268L331.414,50.949z"/>
</g>
<g>
	<polygon style="fill:#FFFFFF;" points="144.313,153.731 144.313,172.187 203.53,137.977 203.53,119.542 	"/>
	<polygon style="fill:#FFFFFF;" points="209.445,115.932 209.445,134.583 289.694,88.252 289.694,69.795 	"/>
</g>
<g>
	<polygon style="fill:#2683BF;" points="144.313,186.125 289.694,102.189 289.694,110.446 144.313,194.381 	"/>
	<polygon style="fill:#2683BF;" points="144.313,201.449 289.694,117.513 289.694,125.769 144.313,209.705 	"/>
</g>
<g style="opacity:0.2;">
	<path style="fill:#FFFFFF;" d="M166.208,113.563l-36.954,102.89v56.12c0,8.571,9.278,13.928,16.701,9.643l32.717-18.889
		l71.121-198.021L166.208,113.563z"/>
</g>
<g style="opacity:0.2;">
	<path style="fill:#FFFFFF;" d="M355.805,69.96V23.385c0-8.571-9.278-13.928-16.701-9.643l-48.977,28.277L219.006,240.04
		l95.52-55.149L355.805,69.96z"/>
</g>
<polygon style="fill:#00AC65;" points="409.147,130.21 183.901,433.528 108.795,303.317 334.041,0 "/>
<g>
	<path style="fill:#FFE6C6;" d="M125.325,300.657l62.379,108.148l204.911-275.934L330.236,24.723L125.325,300.657z M373.972,139.741
		L194.508,381.407l-50.54-87.621L323.433,52.12L373.972,139.741z"/>
	<path style="fill:#FFE6C6;" d="M161.075,277.171c4.42,7.664,1.793,22.24-5.869,32.557c-7.662,10.317-17.456,12.468-21.877,4.805
		c-4.42-7.664-1.793-22.24,5.869-32.557C146.86,271.658,156.654,269.507,161.075,277.171z"/>
	<path style="fill:#FFE6C6;" d="M338.24,38.599c4.42,7.664,1.793,22.24-5.869,32.557c-7.662,10.317-17.457,12.468-21.877,4.805
		c-4.42-7.664-1.793-22.24,5.869-32.557C324.025,33.087,333.82,30.936,338.24,38.599z"/>
	<path style="fill:#FFE6C6;" d="M207.447,357.567c4.42,7.664,1.793,22.24-5.869,32.557c-7.662,10.317-17.457,12.468-21.877,4.805
		c-4.42-7.664-1.793-22.24,5.869-32.557C193.232,352.054,203.027,349.903,207.447,357.567z"/>
	<path style="fill:#FFE6C6;" d="M288.222,177.375c9.32,16.159,3.779,46.892-12.375,68.647
		c-16.155,21.755-36.806,26.29-46.127,10.131s-3.779-46.892,12.375-68.647S278.902,161.216,288.222,177.375z"/>
	<path style="fill:#FFE6C6;" d="M203.274,291.765c2.285,3.961,0.927,11.494-3.033,16.826s-9.021,6.444-11.306,2.483
		c-2.285-3.961-0.927-11.493,3.034-16.826C195.928,288.917,200.989,287.805,203.274,291.765z"/>
	<path style="fill:#FFE6C6;" d="M327.834,124.033c2.284,3.961,0.927,11.493-3.033,16.826c-3.96,5.332-9.021,6.444-11.306,2.483
		c-2.284-3.961-0.927-11.494,3.033-16.826C320.487,121.184,325.549,120.072,327.834,124.033z"/>
	<path style="fill:#FFE6C6;" d="M384.613,118.994c4.42,7.664,1.793,22.24-5.869,32.557c-7.662,10.317-17.456,12.468-21.877,4.805
		c-4.42-7.664-1.793-22.24,5.869-32.557C370.398,113.482,380.192,111.331,384.613,118.994z"/>
</g>
<path style="fill:#D88A55;" d="M393.855,70.835L132.05,222.132c-8.982,5.197-20.059,5.179-29.024-0.046
	c-3.395-1.979-5.386-5.148-6.025-8.536l-0.247-1.967V498.34h0.072c0.354,3.828,2.408,7.52,6.2,9.73
	c8.965,5.226,20.042,5.243,29.024,0.046l261.633-150.908c9.569-5.52,15.464-15.727,15.464-26.773V79.655
	C409.147,71.808,400.648,66.905,393.855,70.835z"/>
<g>
	<path style="fill:#8B5129;" d="M96.845,212.309l0.156,1.242c0.612,3.244,2.478,6.275,5.613,8.264
		c0.139,0.089,0.267,0.187,0.411,0.271c2.241,1.306,4.614,2.287,7.054,2.943c1.22,0.327,2.456,0.574,3.701,0.739
		c1.849,0.244,3.715,0.308,5.573,0.194c0.645-0.04,1.288-0.099,1.929-0.182c3.735-0.482,7.399-1.699,10.767-3.646L393.855,70.837
		c3.181-1.84,6.726-1.727,9.608-0.298l-12.242-7.068l0.02,0.068c-2.977-1.778-6.837-2.062-10.273-0.08L124.837,211.158
		c-2.377,1.371-5.305,1.37-7.682-0.002c-1.631-0.942-1.631-3.298,0.001-4.239l5.991-3.455v-14.808l-20.076,11.577
		c-4.526,2.613-6.592,7.333-6.248,11.897L96.845,212.309z"/>
	<path style="fill:#8B5129;" d="M404.81,71.333l0.017-0.008l-0.226-0.131C404.671,71.241,404.742,71.285,404.81,71.333z"/>
</g>
<g>
	<path style="fill:#BA6024;" d="M107.916,251.211c-0.15,0-0.302-0.025-0.45-0.077c-1.77-0.628-3.491-1.426-5.119-2.375
		c-0.644-0.375-0.861-1.201-0.486-1.845c0.375-0.645,1.2-0.863,1.845-0.486c1.482,0.864,3.051,1.591,4.661,2.163
		c0.702,0.249,1.07,1.02,0.821,1.723C108.991,250.865,108.471,251.211,107.916,251.211z"/>
	<path style="fill:#BA6024;" d="M118.632,252.853c-0.722,0-1.321-0.573-1.347-1.3c-0.027-0.745,0.555-1.37,1.299-1.397
		c3.489-0.127,6.878-0.903,10.071-2.306c0.678-0.3,1.477,0.009,1.778,0.693c0.299,0.683-0.01,1.478-0.693,1.778
		c-3.506,1.54-7.228,2.392-11.058,2.532C118.665,252.853,118.649,252.853,118.632,252.853z M138.721,245.133
		c-0.466,0-0.92-0.242-1.169-0.675c-0.372-0.645-0.152-1.469,0.493-1.843l9.44-5.456c0.645-0.373,1.469-0.151,1.843,0.492
		c0.372,0.646,0.152,1.47-0.493,1.844l-9.44,5.456C139.182,245.075,138.95,245.133,138.721,245.133z M157.601,234.22
		c-0.466,0-0.92-0.242-1.169-0.675c-0.372-0.645-0.152-1.469,0.493-1.843l9.44-5.456c0.645-0.373,1.47-0.152,1.843,0.492
		c0.372,0.646,0.152,1.47-0.493,1.844l-9.44,5.456C158.062,234.162,157.83,234.22,157.601,234.22z M176.481,223.308
		c-0.466,0-0.92-0.242-1.169-0.675c-0.372-0.645-0.152-1.469,0.493-1.843l9.441-5.456c0.645-0.373,1.469-0.152,1.843,0.493
		c0.372,0.645,0.152,1.469-0.492,1.843l-9.441,5.456C176.942,223.25,176.709,223.308,176.481,223.308z M195.361,212.397
		c-0.466,0-0.92-0.242-1.17-0.675c-0.372-0.646-0.152-1.47,0.493-1.843l9.44-5.456c0.646-0.374,1.47-0.152,1.843,0.493
		c0.372,0.645,0.152,1.469-0.493,1.843l-9.44,5.456C195.822,212.339,195.59,212.397,195.361,212.397z M214.241,201.485
		c-0.466,0-0.92-0.242-1.17-0.675c-0.372-0.646-0.152-1.47,0.493-1.843l9.44-5.456c0.646-0.374,1.469-0.152,1.843,0.493
		c0.372,0.645,0.152,1.469-0.493,1.843l-9.44,5.456C214.702,201.427,214.47,201.485,214.241,201.485z M233.121,190.572
		c-0.466,0-0.92-0.242-1.169-0.675c-0.372-0.646-0.152-1.469,0.493-1.843l9.44-5.456c0.646-0.373,1.471-0.152,1.844,0.492
		c0.372,0.646,0.152,1.47-0.493,1.844l-9.44,5.456C233.582,190.514,233.35,190.572,233.121,190.572z M252,179.66
		c-0.466,0-0.92-0.242-1.169-0.674c-0.372-0.645-0.152-1.47,0.492-1.843l9.44-5.456c0.642-0.371,1.469-0.152,1.843,0.492
		c0.373,0.646,0.152,1.47-0.493,1.844l-9.439,5.456C252.462,179.601,252.23,179.66,252,179.66z M270.88,168.747
		c-0.465,0-0.919-0.241-1.169-0.675c-0.373-0.646-0.152-1.469,0.493-1.843l9.441-5.456c0.643-0.373,1.468-0.152,1.843,0.493
		c0.373,0.645,0.152,1.469-0.493,1.843l-9.441,5.456C271.342,168.689,271.11,168.747,270.88,168.747z M289.76,157.835
		c-0.465,0-0.919-0.241-1.169-0.675c-0.373-0.645-0.152-1.469,0.493-1.843l9.441-5.456c0.643-0.373,1.468-0.153,1.843,0.493
		c0.373,0.646,0.152,1.469-0.493,1.843l-9.441,5.456C290.222,157.777,289.99,157.835,289.76,157.835z M308.64,146.924
		c-0.465,0-0.919-0.241-1.169-0.675c-0.373-0.645-0.152-1.469,0.493-1.843l9.441-5.456c0.643-0.373,1.469-0.152,1.843,0.493
		c0.373,0.645,0.152,1.469-0.493,1.843l-9.441,5.456C309.102,146.866,308.87,146.924,308.64,146.924z M327.519,136.012
		c-0.465,0-0.919-0.242-1.169-0.675c-0.373-0.645-0.152-1.469,0.493-1.843l9.441-5.456c0.643-0.372,1.469-0.152,1.843,0.493
		c0.373,0.645,0.152,1.469-0.493,1.843l-9.441,5.456C327.982,135.953,327.75,136.012,327.519,136.012z M346.4,125.099
		c-0.465,0-0.919-0.242-1.169-0.674c-0.373-0.646-0.152-1.47,0.493-1.844l9.441-5.457c0.642-0.371,1.469-0.152,1.843,0.492
		c0.373,0.646,0.152,1.47-0.493,1.843l-9.441,5.457C346.862,125.041,346.629,125.099,346.4,125.099z M365.28,114.187
		c-0.465,0-0.919-0.242-1.169-0.675c-0.373-0.645-0.152-1.469,0.493-1.843l9.441-5.456c0.642-0.372,1.469-0.153,1.843,0.493
		c0.373,0.646,0.152,1.469-0.493,1.843l-9.441,5.456C365.742,114.128,365.509,114.187,365.28,114.187z"/>
	<path style="fill:#BA6024;" d="M388.832,105.97c-0.745,0-1.348-0.605-1.348-1.349v-3.058l-2.649,1.53
		c-0.642,0.372-1.469,0.152-1.843-0.493c-0.373-0.645-0.152-1.469,0.493-1.843l6.695-3.87v7.734
		C390.18,105.366,389.576,105.97,388.832,105.97z"/>
	<path style="fill:#BA6024;" d="M388.832,316.116c-0.745,0-1.348-0.605-1.348-1.349V304.26c0-0.746,0.604-1.349,1.348-1.349
		c0.746,0,1.348,0.604,1.348,1.349v10.507C390.18,315.512,389.576,316.116,388.832,316.116z M388.832,295.101
		c-0.745,0-1.348-0.604-1.348-1.349v-10.507c0-0.745,0.604-1.349,1.348-1.349c0.746,0,1.348,0.604,1.348,1.349v10.507
		C390.18,294.497,389.576,295.101,388.832,295.101z M388.832,274.086c-0.745,0-1.348-0.605-1.348-1.349V262.23
		c0-0.745,0.604-1.349,1.348-1.349c0.746,0,1.348,0.604,1.348,1.349v10.507C390.18,273.483,389.576,274.086,388.832,274.086z
		 M388.832,253.072c-0.745,0-1.348-0.605-1.348-1.349v-10.507c0-0.745,0.604-1.349,1.348-1.349c0.746,0,1.348,0.604,1.348,1.349
		v10.507C390.18,252.468,389.576,253.072,388.832,253.072z M388.832,232.057c-0.745,0-1.348-0.604-1.348-1.349v-10.506
		c0-0.745,0.604-1.349,1.348-1.349c0.746,0,1.348,0.605,1.348,1.349v10.506C390.18,231.453,389.576,232.057,388.832,232.057z
		 M388.832,211.043c-0.745,0-1.348-0.605-1.348-1.349v-10.507c0-0.745,0.604-1.349,1.348-1.349c0.746,0,1.348,0.605,1.348,1.349
		v10.507C390.18,210.439,389.576,211.043,388.832,211.043z M388.832,190.028c-0.745,0-1.348-0.604-1.348-1.349v-10.507
		c0-0.745,0.604-1.349,1.348-1.349c0.746,0,1.348,0.604,1.348,1.349v10.507C390.18,189.424,389.576,190.028,388.832,190.028z
		 M388.832,169.013c-0.745,0-1.348-0.605-1.348-1.349v-10.507c0-0.745,0.604-1.349,1.348-1.349c0.746,0,1.348,0.605,1.348,1.349
		v10.507C390.18,168.41,389.576,169.013,388.832,169.013z M388.832,147.999c-0.745,0-1.348-0.605-1.348-1.349v-10.506
		c0-0.746,0.604-1.349,1.348-1.349c0.746,0,1.348,0.604,1.348,1.349v10.507C390.18,147.395,389.576,147.999,388.832,147.999z
		 M388.832,126.985c-0.745,0-1.348-0.604-1.348-1.349v-10.507c0-0.745,0.604-1.349,1.348-1.349c0.746,0,1.348,0.605,1.348,1.349
		v10.507C390.18,126.38,389.576,126.985,388.832,126.985z"/>
	<path style="fill:#BA6024;" d="M384.161,334.72c-0.465,0-0.919-0.241-1.169-0.675c-0.373-0.645-0.152-1.469,0.493-1.843
		l3.998-2.311v-4.617c0-0.745,0.604-1.349,1.348-1.349c0.746,0,1.348,0.605,1.348,1.349v6.175l-5.346,3.09
		C384.622,334.662,384.39,334.72,384.161,334.72z"/>
	<path style="fill:#BA6024;" d="M118.634,484.299c-0.722,0-1.32-0.573-1.347-1.3c-0.027-0.745,0.555-1.37,1.299-1.397
		c3.489-0.127,6.877-0.904,10.071-2.307c0.679-0.3,1.477,0.009,1.778,0.693c0.299,0.683-0.01,1.478-0.693,1.778
		c-3.507,1.541-7.228,2.393-11.058,2.533C118.667,484.299,118.65,484.299,118.634,484.299z M138.722,476.578
		c-0.466,0-0.92-0.242-1.169-0.675c-0.372-0.645-0.152-1.469,0.492-1.843l9.441-5.456c0.645-0.373,1.469-0.152,1.843,0.493
		c0.372,0.646,0.152,1.47-0.493,1.843l-9.441,5.456C139.184,476.52,138.951,476.578,138.722,476.578z M157.602,465.666
		c-0.466,0-0.92-0.241-1.169-0.675c-0.372-0.645-0.152-1.469,0.493-1.843l9.441-5.456c0.645-0.374,1.47-0.152,1.843,0.493
		c0.372,0.646,0.152,1.469-0.492,1.843l-9.441,5.456C158.064,465.608,157.831,465.666,157.602,465.666z M176.482,454.754
		c-0.466,0-0.92-0.241-1.169-0.674c-0.372-0.645-0.152-1.47,0.492-1.844l9.441-5.457c0.647-0.373,1.47-0.152,1.844,0.492
		c0.372,0.646,0.152,1.47-0.492,1.844l-9.44,5.457C176.944,454.695,176.711,454.754,176.482,454.754z M195.362,443.841
		c-0.466,0-0.92-0.241-1.17-0.675c-0.372-0.645-0.152-1.469,0.493-1.843l9.44-5.456c0.646-0.373,1.469-0.152,1.843,0.493
		c0.372,0.645,0.152,1.47-0.493,1.843l-9.44,5.456C195.823,443.782,195.591,443.841,195.362,443.841z M214.242,432.93
		c-0.466,0-0.92-0.242-1.169-0.675c-0.372-0.645-0.152-1.469,0.493-1.843l9.44-5.456c0.646-0.374,1.47-0.152,1.843,0.493
		c0.372,0.645,0.152,1.469-0.493,1.843l-9.44,5.456C214.703,432.871,214.47,432.93,214.242,432.93z M233.122,422.017
		c-0.466,0-0.92-0.241-1.169-0.675c-0.372-0.645-0.152-1.469,0.493-1.843l9.44-5.456c0.647-0.373,1.47-0.152,1.844,0.493
		c0.372,0.645,0.152,1.469-0.493,1.843l-9.44,5.456C233.583,421.959,233.351,422.017,233.122,422.017z M252.001,411.105
		c-0.466,0-0.92-0.241-1.169-0.675c-0.372-0.646-0.152-1.47,0.493-1.843l9.441-5.456c0.642-0.372,1.469-0.152,1.843,0.493
		c0.373,0.645,0.152,1.469-0.493,1.843l-9.441,5.456C252.463,411.047,252.231,411.105,252.001,411.105z M270.881,400.193
		c-0.465,0-0.919-0.241-1.169-0.675c-0.373-0.646-0.152-1.47,0.493-1.843l9.441-5.456c0.642-0.372,1.47-0.152,1.843,0.493
		c0.373,0.645,0.152,1.469-0.493,1.843l-9.441,5.456C271.343,400.135,271.111,400.193,270.881,400.193z M289.761,389.281
		c-0.465,0-0.919-0.241-1.169-0.675c-0.373-0.645-0.152-1.469,0.493-1.843l9.441-5.456c0.642-0.373,1.47-0.152,1.843,0.493
		c0.373,0.645,0.152,1.469-0.493,1.843l-9.441,5.456C290.223,389.222,289.991,389.281,289.761,389.281z M308.641,378.368
		c-0.465,0-0.919-0.242-1.169-0.674c-0.373-0.645-0.152-1.47,0.493-1.843l9.441-5.457c0.642-0.372,1.469-0.152,1.843,0.492
		c0.373,0.645,0.152,1.47-0.493,1.844l-9.441,5.457C309.103,378.31,308.871,378.368,308.641,378.368z M327.52,367.457
		c-0.465,0-0.919-0.242-1.169-0.675c-0.373-0.646-0.152-1.469,0.493-1.843l9.441-5.456c0.642-0.373,1.469-0.152,1.843,0.493
		c0.373,0.645,0.152,1.469-0.493,1.843l-9.441,5.456C327.983,367.398,327.751,367.457,327.52,367.457z M346.401,356.544
		c-0.465,0-0.919-0.241-1.169-0.675c-0.373-0.645-0.152-1.469,0.493-1.843l9.441-5.456c0.642-0.373,1.469-0.153,1.843,0.493
		c0.373,0.646,0.152,1.469-0.493,1.843l-9.441,5.456C346.863,356.486,346.63,356.544,346.401,356.544z M365.281,345.632
		c-0.465,0-0.919-0.241-1.169-0.675c-0.373-0.646-0.152-1.469,0.493-1.843l9.441-5.456c0.642-0.373,1.469-0.153,1.843,0.493
		c0.373,0.645,0.152,1.469-0.493,1.843l-9.441,5.456C365.743,345.574,365.51,345.632,365.281,345.632z"/>
	<path style="fill:#BA6024;" d="M107.916,482.657c-0.15,0-0.302-0.025-0.45-0.078c-1.77-0.628-3.491-1.426-5.119-2.375
		c-0.644-0.375-0.861-1.201-0.486-1.845c0.375-0.644,1.2-0.863,1.845-0.486c1.482,0.864,3.051,1.591,4.661,2.163
		c0.702,0.249,1.07,1.02,0.821,1.723C108.991,482.311,108.471,482.657,107.916,482.657z"/>
</g>
<path style="fill:#8B5129;" d="M415.248,184.599l-6.083-3.583l-46.215,26.682c-13.418,7.747-21.685,22.064-21.685,37.558l0,0
	c0,9.6,5.995,17.114,13.832,20.17c6.577,5.468,16.259,7.022,24.706,2.139l35.443-20.491L415.248,184.599L415.248,184.599z"/>
<path style="fill:#FCBF90;" d="M415.248,184.599v62.474l-35.443,20.491c-14.42,8.337-32.455-2.069-32.455-18.725l0,0
	c0-15.494,8.265-29.811,21.684-37.558L415.248,184.599z"/>
<path style="fill:#284363;" d="M387.948,231.061c0,10.301-6.263,22.268-13.989,26.728c-7.726,4.46-13.989-0.274-13.989-10.576
	s6.263-22.268,13.989-26.728C381.685,216.025,387.948,220.76,387.948,231.061z"/>
<g>
</g>
<g>
</g>
<g>
</g>
<g>
</g>
<g>
</g>
<g>
</g>
<g>
</g>
<g>
</g>
<g>
</g>
<g>
</g>
<g>
</g>
<g>
</g>
<g>
</g>
<g>
</g>
<g>
</g>
</svg>
