<?xml version="1.0" encoding="iso-8859-1"?>
<!-- Generator: Adobe Illustrator 19.0.0, SVG Export Plug-In . SVG Version: 6.00 Build 0)  -->
<svg version="1.1" id="Capa_1" xmlns="http://www.w3.org/2000/svg" xmlns:xlink="http://www.w3.org/1999/xlink" x="0px" y="0px"
	 viewBox="0 0 511.999 511.999" style="enable-background:new 0 0 511.999 511.999;" xml:space="preserve">
<path style="fill:#284363;" d="M412.541,56.394c0-49.125-60.862-74.368-95.523-39.701c0.192-0.053,0.384-0.106,0.577-0.158
	L185.53,92.587c-5.964,1.241-11.83,3.534-17.36,6.99v-0.002l-29.208,16.368c-23.04,13.284-39.503,37.975-39.503,68.37v63.864
	c0,32.145,17.572,61.719,45.803,77.089l0,0c11.091,6.039,17.995,17.657,17.995,30.286v67.031c0,29.744,15.864,57.231,41.62,72.11
	l12.962,7.488l11.62,6.513c6.847,4.035,15.688,4.682,23.588,0.221l0,0l124.287-71.595v0.013l0,0
	c21.754-12.284,35.208-35.331,35.208-60.313L412.541,56.394z"/>
<path style="fill:#33AEFF;" d="M377.333,62.677v374.655l0,0c21.754-12.284,35.208-35.331,35.208-60.313V56.393
	c0-48.616-58.214-74.741-93.679-41.487c-0.624,0.585-1.239,1.181-1.845,1.787c0.192-0.053,0.384-0.106,0.577-0.158
	C347.745,8.394,377.333,31.447,377.333,62.677z"/>
<polygon style="fill:#FFD2A6;" points="373.79,73.735 255.764,141.994 255.764,246.279 373.79,178.346 "/>
<path style="fill:#007A6E;" d="M293.371,265.086l0.012-0.017l-8.421-4.862l-0.005,0.008c-3.239-1.977-8.056-1.643-13.446,1.468
	c-9.752,5.63-17.657,18.182-17.657,28.037c0,4.457,1.628,7.583,4.302,9.166l-0.044,0.063l8.454,4.881l0.038-0.055
	c3.238,1.953,8.04,1.613,13.41-1.488c9.751-5.63,17.657-18.182,17.657-28.037C297.67,269.795,296.043,266.67,293.371,265.086z"/>
<path style="fill:#009F5E;" d="M297.67,274.251c0,9.854-7.905,22.407-17.657,28.037c-9.752,5.63-17.657,2.206-17.657-7.649
	c0-9.854,7.905-22.407,17.657-28.037C289.765,260.972,297.67,264.396,297.67,274.251z"/>
<path style="fill:#C40041;" d="M384.35,212.173l0.011-0.017l-8.421-4.862l-0.005,0.008c-3.239-1.977-8.057-1.643-13.446,1.468
	c-9.751,5.63-17.657,18.182-17.657,28.037c0,4.457,1.628,7.583,4.302,9.166l-0.044,0.063l8.454,4.881l0.038-0.055
	c3.238,1.954,8.04,1.613,13.41-1.488c9.751-5.63,17.657-18.183,17.657-28.037C388.65,216.882,387.022,213.756,384.35,212.173z"/>
<path style="fill:#F43834;" d="M388.649,221.337c0,9.854-7.905,22.407-17.657,28.037c-9.751,5.63-17.657,2.206-17.657-7.648
	c0-9.854,7.905-22.407,17.657-28.037S388.649,211.483,388.649,221.337z"/>
<path style="fill:#212938;" d="M293.371,320.762l0.012-0.017l-8.421-4.862l-0.005,0.007c-3.239-1.977-8.056-1.643-13.446,1.469
	c-9.752,5.63-17.657,18.182-17.657,28.037c0,4.457,1.628,7.583,4.302,9.166l-0.044,0.063l8.454,4.881l0.038-0.055
	c3.238,1.953,8.04,1.613,13.41-1.488c9.751-5.63,17.657-18.182,17.657-28.037C297.67,325.471,296.043,322.346,293.371,320.762z"/>
<path style="fill:#2E527C;" d="M297.67,329.927c0,9.854-7.905,22.407-17.657,28.037c-9.752,5.63-17.657,2.206-17.657-7.649
	c0-9.854,7.905-22.407,17.657-28.037C289.765,316.648,297.67,320.073,297.67,329.927z"/>
<path style="fill:#212938;" d="M338.86,294.306l0.012-0.017l-8.421-4.862l-0.005,0.007c-3.239-1.977-8.057-1.643-13.446,1.469
	c-9.752,5.63-17.657,18.183-17.657,28.037c0,4.457,1.628,7.583,4.302,9.166l-0.044,0.063l8.454,4.881l0.038-0.055
	c3.238,1.953,8.04,1.613,13.41-1.488c9.752-5.63,17.656-18.183,17.656-28.037C343.16,299.014,341.533,295.889,338.86,294.306z"/>
<path style="fill:#2E527C;" d="M343.16,303.47c0,9.854-7.905,22.407-17.657,28.037c-9.751,5.63-17.657,2.206-17.657-7.648
	s7.905-22.407,17.657-28.037C335.255,290.192,343.16,293.616,343.16,303.47z"/>
<path style="fill:#212938;" d="M349.134,301.649l-0.044,0.063l8.454,4.881l0.038-0.055c3.238,1.954,8.04,1.613,13.41-1.488
	c9.751-5.63,17.657-18.183,17.657-28.037c0-4.456-1.627-7.581-4.299-9.165l0.011-0.017l-8.421-4.862l-0.005,0.007
	c-3.239-1.977-8.057-1.643-13.446,1.469c-9.751,5.63-17.657,18.182-17.657,28.037C344.832,296.94,346.46,300.066,349.134,301.649z"
	/>
<path style="fill:#2E527C;" d="M388.649,277.014c0,9.854-7.905,22.407-17.657,28.037c-9.751,5.63-17.657,2.206-17.657-7.648
	s7.905-22.407,17.657-28.037C380.744,263.735,388.649,267.159,388.649,277.014z"/>
<path style="fill:#212938;" d="M293.371,376.438l0.012-0.017l-8.421-4.862l-0.005,0.008c-3.239-1.977-8.056-1.643-13.446,1.469
	c-9.752,5.63-17.657,18.182-17.657,28.037c0,4.457,1.628,7.583,4.302,9.166l-0.044,0.063l8.454,4.881l0.038-0.055
	c3.238,1.953,8.04,1.613,13.41-1.488c9.751-5.63,17.657-18.183,17.657-28.037C297.67,381.147,296.043,378.022,293.371,376.438z"/>
<path style="fill:#2E527C;" d="M297.67,385.603c0,9.854-7.905,22.407-17.657,28.037c-9.752,5.63-17.657,2.206-17.657-7.649
	c0-9.854,7.905-22.407,17.657-28.037C289.765,372.325,297.67,375.749,297.67,385.603z"/>
<path style="fill:#212938;" d="M338.86,349.982l0.012-0.017l-8.421-4.862l-0.005,0.007c-3.239-1.977-8.057-1.643-13.446,1.469
	c-9.752,5.63-17.657,18.182-17.657,28.037c0,4.457,1.628,7.583,4.302,9.166l-0.044,0.063l8.454,4.881l0.038-0.055
	c3.238,1.953,8.04,1.613,13.41-1.488c9.752-5.63,17.656-18.182,17.656-28.037C343.16,354.691,341.533,351.566,338.86,349.982z"/>
<path style="fill:#2E527C;" d="M343.16,359.147c0,9.854-7.905,22.407-17.657,28.037c-9.751,5.63-17.657,2.206-17.657-7.648
	s7.905-22.407,17.657-28.037C335.255,345.868,343.16,349.292,343.16,359.147z"/>
<path style="fill:#212938;" d="M384.35,323.525l0.011-0.017l-8.421-4.862l-0.005,0.007c-3.239-1.977-8.057-1.643-13.446,1.469
	c-9.751,5.63-17.657,18.183-17.657,28.037c0,4.457,1.628,7.583,4.302,9.166l-0.044,0.063l8.454,4.881l0.038-0.055
	c3.238,1.954,8.04,1.613,13.41-1.488c9.751-5.63,17.657-18.183,17.657-28.037C388.65,328.234,387.022,325.109,384.35,323.525z"/>
<path style="fill:#2E527C;" d="M388.649,332.69c0,9.854-7.905,22.407-17.657,28.037c-9.751,5.63-17.657,2.206-17.657-7.648
	s7.905-22.407,17.657-28.037C380.744,319.411,388.649,322.836,388.649,332.69z"/>
<path style="fill:#212938;" d="M293.371,432.115l0.012-0.017l-8.421-4.862l-0.005,0.008c-3.239-1.977-8.056-1.643-13.446,1.469
	c-9.752,5.63-17.657,18.183-17.657,28.037c0,4.457,1.628,7.583,4.302,9.166l-0.044,0.063l8.454,4.881l0.038-0.055
	c3.238,1.953,8.04,1.613,13.41-1.488c9.751-5.63,17.657-18.183,17.657-28.037C297.67,436.824,296.043,433.699,293.371,432.115z"/>
<path style="fill:#2E527C;" d="M297.67,441.279c0,9.854-7.905,22.407-17.657,28.037c-9.752,5.63-17.657,2.206-17.657-7.649
	c0-9.854,7.905-22.407,17.657-28.037C289.765,428.001,297.67,431.425,297.67,441.279z"/>
<path style="fill:#212938;" d="M338.86,405.658l0.012-0.017l-8.421-4.862l-0.005,0.007c-3.239-1.977-8.057-1.643-13.446,1.469
	c-9.752,5.63-17.657,18.182-17.657,28.037c0,4.457,1.628,7.583,4.302,9.166l-0.044,0.063l8.454,4.881l0.038-0.055
	c3.238,1.953,8.04,1.613,13.41-1.488c9.752-5.63,17.656-18.182,17.656-28.037C343.16,410.367,341.533,407.242,338.86,405.658z"/>
<path style="fill:#2E527C;" d="M343.16,414.823c0,9.854-7.905,22.407-17.657,28.037c-9.751,5.63-17.657,2.206-17.657-7.648
	s7.905-22.407,17.657-28.037C335.255,401.544,343.16,404.969,343.16,414.823z"/>
<path style="fill:#212938;" d="M384.35,379.202l0.011-0.017l-8.421-4.862l-0.005,0.007c-3.239-1.977-8.057-1.643-13.446,1.469
	c-9.751,5.63-17.657,18.183-17.657,28.037c0,4.457,1.628,7.583,4.302,9.167l-0.044,0.063l8.454,4.881l0.038-0.055
	c3.238,1.954,8.04,1.613,13.41-1.488c9.751-5.63,17.657-18.183,17.657-28.037C388.65,383.91,387.022,380.785,384.35,379.202z"/>
<path style="fill:#2E527C;" d="M388.649,388.366c0,9.854-7.905,22.407-17.657,28.037c-9.751,5.63-17.657,2.206-17.657-7.648
	s7.905-22.407,17.657-28.037C380.744,375.088,388.649,378.512,388.649,388.366z"/>
<g>
	<polygon style="fill:#FCBC90;" points="266.824,156.514 266.824,177.01 365.447,120.071 365.447,99.574 	"/>
	<polygon style="fill:#FCBC90;" points="266.824,195.023 266.824,215.519 330.224,178.758 330.224,158.262 	"/>
</g>
<g style="opacity:0.2;">
	<polygon style="fill:#FFFFFF;" points="301.935,219.704 357.393,187.784 373.79,142.129 373.79,73.735 349.268,87.917 	"/>
</g>
<g style="opacity:0.2;">
	<polygon style="fill:#FFFFFF;" points="325.822,101.477 277.233,129.578 255.764,189.354 255.764,246.279 278.519,233.182 	"/>
</g>
<path style="fill:#212938;" d="M217.838,488.362V154.14c0-30.848-28.869-53.696-58.633-46.407
	c-7.101,1.805-13.918,4.564-20.234,8.204l-0.01,0.006c-23.04,13.284-39.503,37.976-39.503,68.37v63.864
	c0,32.145,17.572,61.719,45.803,77.089c11.091,6.039,17.995,17.657,17.995,30.286v67.031c0,29.744,15.864,57.231,41.62,72.11
	l12.962,7.488l11.62,6.513C222.668,504.691,217.838,497.358,217.838,488.362z"/>
<path style="fill:#323232;" d="M170.423,98.251c0.156-0.087,0.311-0.173,0.467-0.258C170.733,98.079,170.578,98.165,170.423,98.251z
	"/>
<path style="fill:#33AEFF;" d="M253.046,147.855c0-44.771-49.369-70.466-84.877-48.279v-0.002l-29.226,16.378
	c6.324-3.648,13.15-6.411,20.262-8.219c29.764-7.29,58.633,15.559,58.633,46.407v334.222c0,18.069,19.474,29.437,35.208,20.552
	L253.046,147.855z"/>
<g>
</g>
<g>
</g>
<g>
</g>
<g>
</g>
<g>
</g>
<g>
</g>
<g>
</g>
<g>
</g>
<g>
</g>
<g>
</g>
<g>
</g>
<g>
</g>
<g>
</g>
<g>
</g>
<g>
</g>
</svg>
