<?xml version="1.0" encoding="iso-8859-1"?>
<!-- Generator: Adobe Illustrator 19.0.0, SVG Export Plug-In . SVG Version: 6.00 Build 0)  -->
<svg version="1.1" id="Capa_1" xmlns="http://www.w3.org/2000/svg" xmlns:xlink="http://www.w3.org/1999/xlink" x="0px" y="0px"
	 viewBox="0 0 512 512" style="enable-background:new 0 0 512 512;" xml:space="preserve">
<path style="fill:#284363;" d="M343.825,5.504c-14.755-7.66-32.461-7.334-46.958,1.036L171.579,78.875
	c-15.6,9.006-25.209,25.651-25.209,43.664v363.272c0,6.26,3.356,12.04,8.793,15.143l14.84,8.471
	c4.77,3.054,11.103,3.636,16.712,0.409l141.679-81.648c15.619-9.001,25.243-25.656,25.243-43.682V20.324
	C353.636,13.378,349.42,7.893,343.825,5.504z"/>
<path style="fill:#212938;" d="M162.597,495.886V131.848c0-18.013,9.61-34.657,25.209-43.663L329.49,6.383
	c4.716-2.723,9.949-2.752,14.335-0.879c-14.755-7.66-32.461-7.334-46.958,1.036L171.579,78.875
	c-15.6,9.006-25.209,25.651-25.209,43.664v363.272c0,6.26,3.356,12.04,8.793,15.143l14.84,8.471
	C165.649,506.638,162.597,501.793,162.597,495.886z"/>
<polygon style="fill:#33AEFF;" points="337.88,37.505 177.456,129.574 177.456,455.886 337.88,363.483 "/>
<path style="fill:#FFD800;" d="M211.475,272.205l91.647-52.912c6.128-3.538,13.789,0.885,13.789,7.961v27.587
	c0,9.323-4.974,17.938-13.048,22.6l-91.647,52.912c-6.128,3.538-13.788-0.884-13.788-7.961v-27.587
	C198.427,285.482,203.4,276.867,211.475,272.205z"/>
<g>
	<path style="fill:#284363;" d="M207.642,294.645l5.207-3.007c2.029-1.171,3.535-1.639,4.518-1.404
		c0.984,0.235,1.475,1.202,1.475,2.899c0,1.116-0.214,2.193-0.643,3.23c-0.429,1.037-0.994,1.872-1.695,2.504v0.136
		c0.926-0.208,1.596-0.05,2.011,0.472c0.415,0.523,0.623,1.392,0.623,2.608c0,1.806-0.509,3.523-1.526,5.15
		c-1.018,1.627-2.405,2.947-4.161,3.961l-5.81,3.354L207.642,294.645L207.642,294.645z M211.675,299.954l1.215-0.702
		c0.579-0.334,1.026-0.751,1.343-1.252c0.317-0.5,0.475-1.064,0.475-1.69c0-1.116-0.633-1.309-1.899-0.578l-1.133,0.654v3.568
		H211.675z M211.675,303.889v4.18l1.419-0.819c1.259-0.727,1.889-1.799,1.889-3.215c0-0.663-0.169-1.074-0.505-1.233
		c-0.337-0.159-0.825-0.054-1.465,0.315L211.675,303.889z"/>
	<path style="fill:#284363;" d="M234.425,279.182v11.981c0,2.605-0.553,4.941-1.659,7.01c-1.106,2.068-2.701,3.704-4.784,4.906
		c-2.035,1.175-3.599,1.384-4.692,0.626c-1.092-0.758-1.639-2.439-1.639-5.044v-12.103l4.054-2.34v11.681
		c0,1.407,0.197,2.314,0.592,2.721c0.395,0.408,0.977,0.389,1.746-0.055c0.824-0.475,1.421-1.136,1.792-1.981
		s0.556-1.984,0.556-3.418V281.51L234.425,279.182z"/>
	<path style="fill:#284363;" d="M242.889,281.674l2.573-8.865l4.37-2.523l-4.911,14.966v7.774l-4.064,2.346v-7.611l-4.911-9.458
		l4.391-2.535L242.889,281.674z"/>
	<path style="fill:#284363;" d="M271.092,277.916l-5.289,3.054l-5.453-10.875l-0.092,0.053c0.129,2.131,0.194,3.777,0.194,4.939
		v8.972l-3.574,2.063v-19.904l5.269-3.042l5.432,10.696l0.061-0.035c-0.095-1.951-0.143-3.534-0.143-4.751v-8.999l3.594-2.075
		v19.904H271.092z"/>
	<path style="fill:#284363;" d="M288.287,258.009c0,3.349-0.616,6.251-1.848,8.705c-1.232,2.454-3.036,4.367-5.412,5.738
		c-2.342,1.352-4.137,1.513-5.386,0.482s-1.874-3.221-1.874-6.57c0-3.313,0.621-6.202,1.863-8.666
		c1.242-2.465,3.048-4.381,5.417-5.748c2.376-1.371,4.176-1.544,5.401-0.518C287.674,252.459,288.287,254.651,288.287,258.009z
		 M278.015,263.94c0,3.848,1.004,5.193,3.012,4.033c1.021-0.589,1.778-1.494,2.272-2.714c0.493-1.22,0.74-2.819,0.74-4.798
		c0-1.988-0.25-3.311-0.75-3.971c-0.5-0.66-1.247-0.702-2.241-0.129C279.026,257.529,278.015,260.055,278.015,263.94z"/>
	<path style="fill:#284363;" d="M307.106,257.124l-4.768,2.753l-1.43-7.847c-0.068-0.324-0.175-0.984-0.322-1.979
		c-0.146-0.996-0.253-1.837-0.322-2.524c-0.054,0.621-0.143,1.406-0.266,2.352c-0.123,0.947-0.243,1.822-0.362,2.626
		s-0.614,4.067-1.486,9.789l-4.768,2.753l-3.696-17.77l3.89-2.246l1.624,9.042c0.367,1.993,0.619,3.604,0.756,4.833
		c0.088-0.977,0.247-2.325,0.475-4.046c0.228-1.72,0.441-3.159,0.638-4.317l1.317-8.289l3.737-2.158l1.276,6.792
		c0.218,1.081,0.439,2.347,0.664,3.797c0.225,1.449,0.374,2.543,0.449,3.28c0.088-1.059,0.33-2.945,0.725-5.66l1.654-10.962
		l3.89-2.246L307.106,257.124z"/>
</g>
<path style="fill:#212938;" d="M263.218,420.216l8.825-5.085c6.287-3.623,14.138,0.915,14.138,8.171v3.501
	c0,7.411-3.954,14.258-10.373,17.962l-8.831,5.097c-6.287,3.628-14.144-0.909-14.144-8.167v-3.508
	C252.834,430.77,256.793,423.919,263.218,420.216z"/>
<g style="opacity:0.2;">
	<polygon style="fill:#FFFFFF;" points="177.456,411.326 304.924,56.419 208.786,111.593 177.456,198.825 	"/>
</g>
<g style="opacity:0.2;">
	<polygon style="fill:#FFFFFF;" points="313.681,377.421 337.88,310.043 337.88,67.2 203.712,440.762 	"/>
</g>
<path style="fill:#F43834;" d="M365.603,86.083l-26.962-49.907L177.488,129.88v34.111l26.987,15.707v16.052
	c0,9.587,10.383,15.575,18.681,10.774c8.434-4.88,13.627-13.885,13.627-23.629v-21.956l32.345-18.78v16.043
	c0,9.587,10.383,15.575,18.681,10.774c8.434-4.88,13.627-13.885,13.627-23.629V123.4l32.361-18.789v16.003
	c0,9.587,10.383,15.575,18.681,10.774c8.434-4.88,13.15-13.578,13.15-23.322V86.068L365.603,86.083z"/>
<polygon style="fill:#C40041;" points="204.476,179.682 177.488,163.975 177.488,129.864 "/>
<g>
	<path style="fill:#E3E3E3;" d="M269.113,142.122l-27.486-49.604l-32.308,18.8l27.517,49.586v16.052
		c0,9.587,10.383,15.575,18.681,10.774c8.434-4.88,13.627-13.885,13.627-23.629v-21.997L269.113,142.122z"/>
	<path style="fill:#E3E3E3;" d="M306.28,54.97l-32.292,18.753l27.501,49.632v16.052c0,9.587,10.383,15.575,18.681,10.774
		c8.434-4.88,13.627-13.885,13.627-23.629v-21.997L306.28,54.97z"/>
</g>
<path style="fill:#C40041;" d="M204.476,179.697v16.052c0,9.587,10.383,15.575,18.681,10.774l0,0
	c8.434-4.88,13.627-13.885,13.627-23.629v-21.997L204.476,179.697z"/>
<path style="fill:#D1D1D1;" d="M236.836,160.903v16.052c0,9.587,10.383,15.575,18.681,10.774l0,0
	c8.434-4.88,13.627-13.885,13.627-23.629v-21.997L236.836,160.903z"/>
<g>
	<path style="fill:#C40041;" d="M269.129,142.15v16.052c0,9.587,10.383,15.575,18.681,10.774l0,0
		c8.434-4.88,13.627-13.885,13.627-23.629V123.35L269.129,142.15z"/>
	<path style="fill:#C40041;" d="M333.798,104.561v16.052c0,9.587,10.383,15.575,18.681,10.774l0,0
		c8.434-4.88,13.15-13.578,13.15-23.322V86.068L333.798,104.561z"/>
</g>
<path style="fill:#D1D1D1;" d="M301.489,123.355v16.052c0,9.587,10.383,15.575,18.681,10.774l0,0
	c8.434-4.88,13.627-13.885,13.627-23.629v-21.997L301.489,123.355z"/>
<g>
</g>
<g>
</g>
<g>
</g>
<g>
</g>
<g>
</g>
<g>
</g>
<g>
</g>
<g>
</g>
<g>
</g>
<g>
</g>
<g>
</g>
<g>
</g>
<g>
</g>
<g>
</g>
<g>
</g>
</svg>
