<?xml version="1.0" encoding="iso-8859-1"?>
<!-- Generator: Adobe Illustrator 19.0.0, SVG Export Plug-In . SVG Version: 6.00 Build 0)  -->
<svg version="1.1" id="Capa_1" xmlns="http://www.w3.org/2000/svg" xmlns:xlink="http://www.w3.org/1999/xlink" x="0px" y="0px"
	 viewBox="0 0 512.001 512.001" style="enable-background:new 0 0 512.001 512.001;" xml:space="preserve">
<path style="fill:#00D16D;" d="M451.395,8.649l-8.8-5.198c-7.712-4.555-17.279-4.604-25.036-0.127L54.174,213.04
	c-16.042,9.262-25.925,26.379-25.925,44.904v226.707c0,7.434,3.973,14.301,10.419,18.006l11.082,6.37
	c0.188,0.112,0.378,0.221,0.57,0.328l0.301,0.173l0.006-0.008c5.96,3.184,13.452,3.531,20.14-0.33l365.247-210.876
	c16.042-9.262,25.925-26.379,25.925-44.904V26.712C461.938,18.652,457.534,12.121,451.395,8.649z"/>
<path style="fill:#007A6E;" d="M39.634,491.214V264.517c0-18.524,9.883-35.641,25.925-44.904L430.806,8.738
	c6.856-3.959,14.559-3.499,20.589-0.089l-8.8-5.198c-7.712-4.555-17.279-4.604-25.036-0.127L54.174,213.04
	c-16.042,9.262-25.925,26.379-25.925,44.904v226.707c0,7.434,3.973,14.301,10.419,18.006l11.082,6.37
	C43.835,505.496,39.634,499.085,39.634,491.214z"/>
<path style="fill:#2683BF;" d="M50.319,509.354l0.301,0.173l0.006-0.008C50.523,509.464,50.42,509.41,50.319,509.354z"/>
<polygon style="fill:#284363;" points="39.634,423.207 461.818,179.459 461.818,241.581 39.634,485.541 "/>
<polygon style="fill:#FFD800;" points="352.235,105.953 434.171,58.648 434.171,110.979 352.235,158.284 "/>
<g>
	<path style="fill:#DCA700;" d="M364.154,108.416l13.256-7.653c2.62-1.513,5.895,0.378,5.895,3.403v17.95l-5.701,3.421v2.819
		l51.304-29.317v5.349c0,1.743-0.93,3.354-2.44,4.226l-67.72,39.098v-5.289c0-1.711,0.896-3.297,2.362-4.18l12.359-7.445v-2.819
		l-8.858,5.003c-2.62,1.48-5.863-0.413-5.863-3.422v-11.784C358.749,113.916,360.81,110.347,364.154,108.416z"/>
	<path style="fill:#DCA700;" d="M426.469,97.196c1.51-0.871,2.44-2.482,2.44-4.226v-7.956l-37.902,21.883
		c-1.51,0.871-2.44,2.482-2.44,4.226v7.956L426.469,97.196z"/>
	<path style="fill:#DCA700;" d="M391.007,92.927c-1.51,0.872-2.44,2.482-2.44,4.226v7.956l20.864-12.052
		c1.509-0.872,2.439-2.482,2.439-4.225v-7.95L391.007,92.927z"/>
	<path style="fill:#DCA700;" d="M416.473,78.093C414.945,78.96,414,80.581,414,82.338v8.087l12.469-7.199
		c1.51-0.871,2.44-2.482,2.44-4.226v-7.956L416.473,78.093z"/>
</g>
<g>
	<polygon style="fill:#FFFFFF;" points="67.705,269.683 67.705,304.088 178.089,240.317 178.089,205.953 	"/>
	<polygon style="fill:#FFFFFF;" points="189.114,199.224 189.114,233.993 338.704,147.627 338.704,113.222 	"/>
</g>
<g>
	<polygon style="fill:#009F5E;" points="67.705,330.069 338.704,173.607 338.704,188.998 67.705,345.459 	"/>
	<polygon style="fill:#009F5E;" points="67.705,358.633 338.704,202.172 338.704,217.563 67.705,374.024 	"/>
</g>
<g style="opacity:0.2;">
	<path style="fill:#FFFFFF;" d="M108.518,194.811L39.634,386.605v104.61c0,15.977,17.296,25.963,31.132,17.974l60.986-35.211
		l132.574-369.123L108.518,194.811z"/>
</g>
<g style="opacity:0.2;">
	<path style="fill:#FFFFFF;" d="M461.938,113.53V26.712c0-15.977-17.296-25.963-31.133-17.974l-91.296,52.71L206.936,430.57
		l178.056-102.8L461.938,113.53z"/>
</g>
<polygon style="fill:#C40041;" points="483.751,173.474 459.736,155.319 437.618,142.545 394.928,220.159 374.361,204.611 
	352.228,191.832 328.218,237.723 370.903,269.995 328.218,351.558 374.361,382.484 415.564,303.757 437.618,320.43 459.736,333.193 
	459.736,333.193 483.751,287.308 441.063,255.037 "/>
<polygon style="fill:#F43834;" points="483.751,173.474 459.737,155.319 417.049,236.882 374.361,204.611 350.346,250.495 
	393.034,282.767 350.346,364.33 374.361,382.484 417.049,300.921 459.737,333.193 483.751,287.308 441.063,255.037 "/>
<g>
	<polygon style="fill:#FF5331;" points="459.737,155.319 437.618,142.545 394.928,220.159 417.049,236.882 	"/>
	<polygon style="fill:#FF5331;" points="374.361,204.611 352.228,191.832 328.218,237.723 350.346,250.495 	"/>
	<polygon style="fill:#FF5331;" points="393.034,282.767 370.903,269.995 328.218,351.558 350.346,364.33 	"/>
</g>
<polygon style="fill:#AE392E;" points="374.361,382.484 328.218,351.558 350.346,364.33 "/>
<g>
</g>
<g>
</g>
<g>
</g>
<g>
</g>
<g>
</g>
<g>
</g>
<g>
</g>
<g>
</g>
<g>
</g>
<g>
</g>
<g>
</g>
<g>
</g>
<g>
</g>
<g>
</g>
<g>
</g>
</svg>
