<?xml version="1.0" encoding="iso-8859-1"?>
<!-- Generator: Adobe Illustrator 19.0.0, SVG Export Plug-In . SVG Version: 6.00 Build 0)  -->
<svg version="1.1" id="Capa_1" xmlns="http://www.w3.org/2000/svg" xmlns:xlink="http://www.w3.org/1999/xlink" x="0px" y="0px"
	 viewBox="0 0 512 512" style="enable-background:new 0 0 512 512;" xml:space="preserve">
<g>
	<polygon style="fill:#FCB381;" points="482.267,155.435 300.788,50.669 256.036,125.602 437.493,230.23 	"/>
	<polygon style="fill:#FCB381;" points="512,245.798 512,245.798 438.771,228.095 482.267,155.435 300.788,50.669 256.036,125.602 
		256.036,125.602 256.036,125.602 256.036,125.602 256.036,125.602 211.284,50.669 29.679,155.504 73.146,228.115 47.873,234.225 
		0,245.798 0,245.798 0,245.798 0,253.463 81.442,300.483 81.442,360.529 256.036,461.331 430.629,360.529 430.629,300.721 
		512,253.675 512,245.798 	"/>
</g>
<polygon style="fill:#FFD2A6;" points="256.036,259.729 81.442,360.529 81.442,226.278 256.036,125.603 "/>
<polygon style="fill:#FCBC90;" points="256.036,125.603 256.036,259.729 430.629,360.529 430.629,226.126 "/>
<polygon style="fill:#FFD2A6;" points="430.629,360.529 256.036,461.331 256.036,326.929 430.629,226.126 "/>
<polygon style="fill:#FCBC90;" points="256.036,326.929 81.442,226.278 81.442,360.529 256.036,461.331 "/>
<polygon style="fill:#284363;" points="286.863,384.929 300.676,401.863 295.367,404.928 295.367,416.434 278.403,426.227 
	278.403,414.722 273.051,417.812 "/>
<polygon style="fill:#D88A55;" points="256.036,125.602 211.284,50.669 29.679,155.504 74.453,230.298 "/>
<polygon style="fill:#FCBF90;" points="256.036,125.603 211.284,50.669 36.667,151.484 81.442,226.278 "/>
<polygon style="fill:#D88A55;" points="512,245.798 430.616,226.124 256,326.938 256,326.938 256,334.787 337.529,354.548 
	512,253.675 "/>
<polygon style="fill:#FCBF90;" points="337.406,346.473 256,326.939 430.616,226.124 512,245.798 "/>
<polygon style="fill:#D88A55;" points="256,326.938 81.384,226.124 0,245.798 0,253.463 174.574,354.253 256,334.787 "/>
<g>
	<polygon style="fill:#FFE6C6;" points="174.594,346.473 256,326.939 81.384,226.124 0,245.798 	"/>
	<polygon style="fill:#FFE6C6;" points="256.036,125.603 300.788,50.669 475.404,151.484 430.63,226.278 	"/>
</g>
<g>
	<polygon style="fill:#FCB381;" points="174.594,346.473 174.574,354.254 256,334.787 256,326.939 	"/>
	<polygon style="fill:#FCB381;" points="512,253.675 512,245.798 337.406,346.473 337.406,354.548 	"/>
</g>
<g>
</g>
<g>
</g>
<g>
</g>
<g>
</g>
<g>
</g>
<g>
</g>
<g>
</g>
<g>
</g>
<g>
</g>
<g>
</g>
<g>
</g>
<g>
</g>
<g>
</g>
<g>
</g>
<g>
</g>
</svg>
