<?xml version="1.0" encoding="iso-8859-1"?>
<!-- Generator: Adobe Illustrator 19.0.0, SVG Export Plug-In . SVG Version: 6.00 Build 0)  -->
<svg version="1.1" id="Capa_1" xmlns="http://www.w3.org/2000/svg" xmlns:xlink="http://www.w3.org/1999/xlink" x="0px" y="0px"
	 viewBox="0 0 512 512" style="enable-background:new 0 0 512 512;" xml:space="preserve">
<path style="fill:#424242;" d="M313.825,274.879c11.816,20.466,13.1,51.426,2.866,69.15c-10.233,17.724-28.108,15.502-39.924-4.965
	c-11.816-20.466-13.099-51.426-2.866-69.15S302.009,254.413,313.825,274.879z"/>
<path style="fill:#D1D1D1;" d="M299.253,291.29c5.774,10.001,6.401,25.129,1.401,33.789c-5,8.661-13.734,7.575-19.508-2.426
	c-5.774-10-6.401-25.129-1.4-33.789C284.745,280.204,293.479,281.29,299.253,291.29z"/>
<path style="fill:#656565;" d="M296.832,295.484c4.23,7.326,4.689,18.408,1.026,24.753c-3.663,6.344-10.061,5.549-14.291-1.777
	c-4.23-7.326-4.689-18.408-1.026-24.753C286.204,287.363,292.602,288.158,296.832,295.484z"/>
<path style="fill:#888888;" d="M292.691,318.46c-4.23-7.326-4.689-18.408-1.026-24.753c0.549-0.951,1.173-1.688,1.828-2.32
	c-3.795-3.176-8.164-2.509-10.952,2.32c-3.663,6.344-3.204,17.427,1.026,24.753c3.596,6.228,8.746,7.684,12.463,4.097
	C294.839,321.561,293.701,320.209,292.691,318.46z"/>
<path style="fill:#C2C2C2;" d="M293.165,291.121l-5.626,3.272l6.229,24.659l5.797-3.329c1.561-6.297,0.62-14.431-2.733-20.239
	C295.729,293.574,294.476,292.132,293.165,291.121z"/>
<path style="fill:#D1D1D1;" d="M295.073,298.531c3.108,5.383,3.446,13.527,0.754,18.189c-2.691,4.662-7.393,4.077-10.501-1.306
	s-3.446-13.527-0.754-18.189C287.263,292.563,291.965,293.147,295.073,298.531z"/>
<g>
	<path style="fill:#C8CED6;" d="M117.042,87.583c-3.499,0-6.899-1.819-8.769-5.066c-2.785-4.839-1.12-11.018,3.718-13.801
		L229.015,1.352c4.237-2.448,9.61-1.494,12.761,2.234l47.302,55.981c3.606,4.264,3.069,10.64-1.194,14.242
		c-4.267,3.612-10.643,3.066-14.242-1.194l-41.857-49.536L122.074,86.231C120.485,87.146,118.751,87.58,117.042,87.583z"/>
	<path style="fill:#C8CED6;" d="M234.095,457.273c-1.714,0-3.431-0.438-4.974-1.31l-94.72-53.559
		c-3.171-1.793-5.132-5.155-5.132-8.797V148.065c0-3.612,1.928-6.948,5.053-8.751L276.307,57.34c3.125-1.809,6.981-1.809,10.107,0
		c3.125,1.803,5.053,5.139,5.053,8.751v238.593l90.025,51.895c3.132,1.803,5.063,5.145,5.06,8.761
		c-0.003,3.615-1.934,6.955-5.07,8.754l-142.351,81.833C237.572,456.825,235.835,457.273,234.095,457.273z M149.482,387.711
		l84.57,47.822l122.134-70.213l-79.872-46.042c-3.132-1.803-5.06-5.142-5.06-8.754V83.596l-121.772,70.305V387.711z"/>
</g>
<path style="fill:#F43834;" d="M117.047,92.637c-5.247,0-10.348-2.727-13.153-7.6c-4.177-7.257-1.681-16.525,5.575-20.703
	l93.711-53.941c7.251-4.175,16.525-1.681,20.703,5.576c4.175,7.258,1.678,16.525-5.576,20.703l-93.713,53.941
	C122.212,91.985,119.611,92.637,117.047,92.637z"/>
<rect x="200.272" y="269.807" transform="matrix(-0.505 -0.8631 0.8631 -0.505 12.7501 711.4337)" style="fill:#C2C2C2;" width="20.21" height="164.507"/>
<g>
	<polygon style="fill:#C8CED6;" points="191.754,428.41 181.608,410.928 323.12,328.776 333.266,346.258 	"/>
	
		<rect x="200.51" y="214.862" transform="matrix(-0.4955 -0.8686 0.8686 -0.4955 57.1069 626.9217)" style="fill:#C8CED6;" width="20.21" height="164.029"/>
	
		<rect x="200.667" y="159.989" transform="matrix(-0.4997 -0.8662 0.8662 -0.4997 106.4106 545.6097)" style="fill:#C8CED6;" width="20.21" height="164.17"/>
	
		<rect x="200.663" y="105.366" transform="matrix(-0.5001 -0.866 0.866 -0.5001 153.8235 463.7472)" style="fill:#C8CED6;" width="20.211" height="164.215"/>
	<path style="fill:#C8CED6;" d="M234.095,512c-5.583,0-10.107-4.523-10.107-10.107v-54.727c0-5.583,4.523-10.107,10.107-10.107
		c5.583,0,10.107,4.523,10.107,10.107v54.727C244.201,507.477,239.678,512,234.095,512z"/>
	<path style="fill:#C8CED6;" d="M376.446,430.236c-5.583,0-10.107-4.523-10.107-10.107v-54.796c0-5.583,4.524-10.107,10.107-10.107
		s10.107,4.524,10.107,10.107v54.796C386.552,425.713,382.029,430.236,376.446,430.236z"/>
	<path style="fill:#C8CED6;" d="M139.382,158.171c-2.882,0-5.744-1.227-7.744-3.606L84.375,98.318
		c-1.925-2.29-2.735-5.313-2.214-8.258c0.52-2.948,2.318-5.511,4.91-7.001l17.267-9.939c4.841-2.783,11.02-1.122,13.801,3.718
		c2.783,4.836,1.12,11.015-3.717,13.798l-6.807,3.918l39.499,47.009c3.589,4.274,3.037,10.646-1.237,14.239
		C143.985,157.395,141.675,158.171,139.382,158.171z"/>
</g>
<polygon style="fill:#FCBF90;" points="429.896,279.793 288.049,198.01 146.201,279.793 146.104,279.736 146.104,389.006 
	288.049,470.958 429.994,389.006 429.994,279.736 "/>
<g style="opacity:0.2;">
	<polygon style="fill:#FFFFFF;" points="235.944,228.051 198.895,249.412 340.496,331.449 340.436,360.173 377.544,338.749 
		377.544,310.089 	"/>
</g>
<g style="opacity:0.1;">
	<polygon points="213.209,241.159 354.81,323.197 363.231,318.341 221.63,236.304 	"/>
</g>
<polygon style="fill:#D88A55;" points="146.104,389.006 288.049,470.958 288.049,361.688 146.104,279.736 "/>
<polygon style="fill:#284363;" points="257.916,353.23 246.687,366.997 251.003,369.49 251.003,378.844 264.795,386.806 
	264.795,377.452 269.146,379.964 "/>
<polygon style="fill:#FCB381;" points="429.896,170.792 288.049,89.01 146.202,170.792 146.104,170.736 146.104,280.005 
	288.049,361.958 429.994,280.005 429.994,170.736 "/>
<polygon style="fill:#FFD2A6;" points="429.994,280.005 288.049,361.958 288.049,252.688 429.994,170.736 "/>
<polygon style="fill:#FCBC90;" points="288.049,252.688 146.104,170.736 146.104,280.005 288.049,361.958 "/>
<g style="opacity:0.2;">
	<polygon style="fill:#FFFFFF;" points="377.202,140.412 340.154,119.051 198.553,201.089 198.553,229.749 235.662,251.173 
		235.602,222.449 	"/>
</g>
<g style="opacity:0.2;">
	<polygon style="fill:#424242;" points="362.889,132.159 221.288,214.197 212.867,209.341 354.467,127.304 	"/>
</g>
<polygon style="fill:#284363;" points="318.181,244.23 329.411,257.997 325.094,260.489 325.094,269.844 311.303,277.806 
	311.303,268.452 306.951,270.964 "/>
<polygon style="fill:#FFFFFF;" points="288.984,97.534 228.555,132.064 265.613,153.541 325.41,118.729 "/>
<g>
	<polygon style="fill:#C8CED6;" points="289.593,105.915 297.468,110.509 253.284,135.663 245.41,131.07 	"/>
	<polygon style="fill:#C8CED6;" points="300.853,112.93 308.727,117.523 264.543,142.677 256.669,138.084 	"/>
</g>
<path style="fill:#284363;" d="M147.698,370.63c11.816,20.466,13.099,51.426,2.866,69.15s-28.108,15.501-39.924-4.965
	s-13.1-51.426-2.866-69.15C118.007,347.941,135.882,350.164,147.698,370.63z"/>
<path style="fill:#C8CED6;" d="M133.126,387.042c5.774,10,6.401,25.128,1.401,33.789s-13.734,7.575-19.508-2.426
	c-5.774-10.001-6.401-25.129-1.401-33.789C118.618,375.955,127.353,377.041,133.126,387.042z"/>
<path style="fill:#9FACBC;" d="M130.723,391.205c4.241,7.345,4.702,18.457,1.029,24.818c-3.673,6.361-10.088,5.563-14.329-1.782
	c-4.241-7.346-4.701-18.457-1.029-24.818C120.066,383.062,126.482,383.859,130.723,391.205z"/>
<path style="fill:#C8CED6;" d="M130.949,395.005c2.842,4.922,3.15,12.367,0.689,16.629s-6.759,3.728-9.601-1.194
	c-2.842-4.922-3.15-12.367-0.689-16.629S128.108,390.084,130.949,395.005z"/>
<g>
</g>
<g>
</g>
<g>
</g>
<g>
</g>
<g>
</g>
<g>
</g>
<g>
</g>
<g>
</g>
<g>
</g>
<g>
</g>
<g>
</g>
<g>
</g>
<g>
</g>
<g>
</g>
<g>
</g>
</svg>
