<?xml version="1.0" encoding="iso-8859-1"?>
<!-- Generator: Adobe Illustrator 19.0.0, SVG Export Plug-In . SVG Version: 6.00 Build 0)  -->
<svg version="1.1" id="Capa_1" xmlns="http://www.w3.org/2000/svg" xmlns:xlink="http://www.w3.org/1999/xlink" x="0px" y="0px"
	 viewBox="0 0 512 512" style="enable-background:new 0 0 512 512;" xml:space="preserve">
<g>
	<path style="fill:#212938;" d="M97.773,297.463l0.054,0.081c9.517-4.898,21.022,0.188,29.417,14.727
		c11.573,20.045,12.83,50.368,2.807,67.728c-2.633,4.561-5.79,7.737-9.214,9.631l-0.006,0.077l-25.334,14.596l-22.925-92.29
		L97.773,297.463z"/>
	<path style="fill:#212938;" d="M279.98,402.714l0.054,0.081c9.517-4.897,21.022,0.188,29.416,14.727
		c11.573,20.045,12.83,50.368,2.807,67.728c-2.633,4.561-5.791,7.737-9.214,9.631l-0.006,0.077l-25.334,14.596l-22.925-92.29
		L279.98,402.714z"/>
</g>
<polygon style="fill:#C40041;" points="156.977,0 352.633,112.962 352.633,163.017 222.585,238.1 222.585,391.348 26.93,278.386 
	26.93,75.083 "/>
<polygon style="fill:#F43834;" points="222.585,188.045 352.633,112.962 352.633,165.709 222.585,240.792 "/>
<polygon style="fill:#FF5331;" points="352.633,112.962 156.977,0 26.93,75.083 222.585,188.045 "/>
<path style="fill:#9FACBC;" d="M26.93,275.174v35.979c0,8.711,4.645,16.761,12.187,21.12l183.469,106.048l125.349,72.371
	l4.698-0.559l4.09,0.91l125.957-72.721v-74.823l-43.349-150.426l-86.698-50.055L222.585,238.1l0,0v150.166L26.93,275.174z"/>
<polygon style="fill:#C8CED6;" points="482.681,363.499 482.681,438.322 356.724,511.043 352.633,510.134 352.633,438.322 "/>
<polygon style="fill:#E8EDEF;" points="482.681,363.499 439.332,213.073 308.805,288.432 352.633,438.322 "/>
<polygon style="fill:#EBEEF2;" points="439.332,213.073 352.633,163.017 222.585,238.1 308.805,288.432 "/>
<g>
	<polygon style="fill:#33AEFF;" points="240.871,259.479 300.09,293.693 328.64,399.148 240.871,348.449 	"/>
	<polygon style="fill:#33AEFF;" points="318.866,294.465 346.13,389.374 462.537,321.94 435.124,227.076 	"/>
</g>
<path style="fill:#284363;" d="M284.389,432.006c11.573,20.045,12.83,50.368,2.808,67.728c-10.023,17.36-27.53,15.183-39.103-4.863
	c-11.573-20.045-12.83-50.368-2.807-67.728C255.309,409.784,272.816,411.961,284.389,432.006z"/>
<path style="fill:#C8CED6;" d="M276.229,446.14c6.369,11.032,7.061,27.72,1.545,37.273c-5.516,9.554-15.151,8.356-21.52-2.676
	c-6.369-11.032-7.061-27.72-1.545-37.273C260.225,433.91,269.86,435.108,276.229,446.14z"/>
<path style="fill:#9FACBC;" d="M273.745,450.441c4.785,8.289,5.305,20.827,1.161,28.005c-4.144,7.178-11.383,6.278-16.168-2.011
	c-4.785-8.289-5.305-20.827-1.161-28.005C261.721,441.252,268.96,442.153,273.745,450.441z"/>
<path style="fill:#C8CED6;" d="M272.681,452.285c4.107,7.113,4.553,17.872,0.996,24.033c-3.556,6.16-9.769,5.387-13.875-1.725
	c-4.107-7.113-4.553-17.872-0.996-24.033C262.362,444.399,268.574,445.172,272.681,452.285z"/>
<path style="fill:#284363;" d="M102.182,326.755c11.573,20.045,12.83,50.368,2.807,67.728c-10.023,17.36-27.529,15.182-39.103-4.863
	c-11.573-20.045-12.83-50.368-2.807-67.728C73.102,304.533,90.609,306.71,102.182,326.755z"/>
<path style="fill:#C8CED6;" d="M94.022,340.889c6.369,11.032,7.061,27.72,1.545,37.274s-15.151,8.355-21.52-2.676
	c-6.369-11.032-7.061-27.72-1.545-37.273C78.018,328.659,87.652,329.857,94.022,340.889z"/>
<path style="fill:#9FACBC;" d="M91.538,345.191c4.785,8.288,5.305,20.827,1.161,28.005s-11.383,6.278-16.169-2.011
	c-4.785-8.289-5.305-20.827-1.161-28.005C79.514,336.002,86.753,336.902,91.538,345.191z"/>
<path style="fill:#C8CED6;" d="M90.474,347.034c4.107,7.113,4.553,17.873,0.996,24.033c-3.556,6.16-9.769,5.388-13.875-1.725
	s-4.552-17.873-0.996-24.033S86.367,339.921,90.474,347.034z"/>
<path style="fill:#284363;" d="M462.537,321.94L462.537,321.94c3.7,13.361-2.08,27.537-14.068,34.501l-75.244,43.711
	c-10.391,6.036-23.69,0.746-27.095-10.779l0,0L462.537,321.94z"/>
<g>
	<path style="fill:#FFFFFF;" d="M452.711,386.889l17.569-10.063c2.442-1.399,5.484,0.364,5.484,3.178v10.174
		c0,2.446-1.307,4.706-3.427,5.927l-17.575,10.121c-2.442,1.406-5.491-0.357-5.491-3.174v-10.228
		C449.271,390.372,450.583,388.108,452.711,386.889z"/>
	<path style="fill:#FFFFFF;" d="M363.016,438.581l17.569-10.063c2.442-1.399,5.483,0.364,5.483,3.178v10.174
		c0,2.446-1.306,4.706-3.426,5.927l-17.575,10.121c-2.442,1.406-5.491-0.356-5.491-3.174v-10.228
		C359.576,442.064,360.888,439.799,363.016,438.581z"/>
</g>
<path style="fill:#212938;" d="M485.071,416.553v16.377c0,3.46-1.846,6.657-4.842,8.387l-117.973,68.112
	c-5.952,3.436-13.288,3.428-19.232-0.022l-14.319-8.31v-22.086l0,0l1.366-0.852l20.611,11.946c1.301,0.754,2.907,0.756,4.209,0.003
	l127.79-73.805v-1.118L485.071,416.553"/>
<g>
	<path style="fill:#E9662C;" d="M472.824,398.15l-21.425,12.37c-1.317,0.76-2.128,2.165-2.128,3.686v1.224
		c0,1.509,1.633,2.452,2.94,1.697l21.425-12.377c1.316-0.76,2.127-2.165,2.127-3.686v-1.217
		C475.763,398.338,474.13,397.396,472.824,398.15z"/>
	<path style="fill:#E9662C;" d="M383.129,449.837l-21.425,12.369c-1.317,0.76-2.128,2.165-2.128,3.686v1.224
		c0,1.509,1.633,2.452,2.94,1.697l21.425-12.377c1.316-0.761,2.127-2.165,2.127-3.686v-1.217
		C386.068,450.025,384.435,449.083,383.129,449.837z"/>
</g>
<polygon style="fill:#212938;" points="449.271,430.358 449.271,418.761 386.068,455.269 386.068,466.847 "/>
<g style="opacity:0.2;">
	<polygon style="fill:#FFFFFF;" points="295.085,290.801 312.235,338.553 328.64,399.148 300.414,382.844 260.096,270.586 	"/>
</g>
<g style="opacity:0.2;">
	<polygon style="fill:#FFFFFF;" points="240.871,342.537 240.871,259.479 243.213,260.832 283.532,373.092 243.55,349.996 	"/>
</g>
<g style="opacity:0.2;">
	<path style="fill:#FFFFFF;" d="M335.945,284.565l62.836-36.423l-51.652,143.813c-0.383-0.826-0.731-1.677-0.999-2.582
		l-21.254-73.99L335.945,284.565z"/>
</g>
<g style="opacity:0.2;">
	<path style="fill:#FFFFFF;" d="M373.226,400.153c-1.868,1.085-3.831,1.791-5.813,2.173l61.689-171.759l6.023-3.491l23.224,80.37
		l-19.632,54.661L373.226,400.153z"/>
</g>
<g>
	<path style="fill:#FFFFFF;" d="M77.169,276.928c-4.056-2.341-7.315-5.799-9.685-10.329c-5.878-11.23-4.351-25.878,4.298-41.247
		l6.028,8.033c-7.982,14.184-7.913,24.762-5.428,29.511c2.859,5.46,10.711,8.307,20.497,7.435
		c11.346-1.013,24.271-6.618,36.392-15.782c12.122-9.164,21.921-20.738,27.594-32.591c4.893-10.223,6.157-19.964,3.299-25.424
		c-2.486-4.749-10.389-9.406-24.483-6.899l-3.415-10.009c15.273-2.716,26.919,1.973,32.797,13.204
		c5.342,10.205,4.65,22.943-2.001,36.837c-5.997,12.53-16.257,24.691-28.893,34.242c-12.634,9.551-26.198,15.401-38.192,16.473
		C88.581,281.042,82.25,279.861,77.169,276.928z"/>
	<path style="fill:#FFFFFF;" d="M116.274,164.98c-26.771-15.456-48.551,1.009-48.551,36.704s21.78,77.309,48.551,92.765
		s48.551-1.009,48.551-36.704S143.045,180.436,116.274,164.98z M134.378,253.829c0.256-4.352,0.389-8.859,0.389-13.437
		c0-4.579-0.133-9.239-0.389-13.887c14.602,11.416,23.518,22.743,23.518,27.24C157.896,258.242,148.98,259.273,134.378,253.829z
		 M116.274,285.211c-3.373-1.947-8.007-16.512-10.246-37.274c3.375,2.289,6.812,4.452,10.246,6.434
		c3.434,1.983,6.872,3.79,10.247,5.397C124.281,277.946,119.647,287.159,116.274,285.211z M116.274,245.134
		c-3.913-2.259-7.62-4.626-11.089-7.036c-0.305-4.802-0.475-9.843-0.475-15.06s0.17-10.062,0.475-14.512
		c3.47,1.597,7.177,3.51,11.089,5.769c3.913,2.259,7.62,4.627,11.09,7.037c0.305,4.802,0.475,9.843,0.475,15.06
		s-0.17,10.061-0.475,14.511C123.894,249.306,120.187,247.393,116.274,245.134z M74.651,205.684c0-4.497,8.916-5.529,23.519-0.083
		c-0.256,4.352-0.389,8.859-0.389,13.437s0.133,9.239,0.389,13.886C83.568,221.508,74.651,210.181,74.651,205.684z M116.274,174.218
		c3.373,1.947,8.007,16.512,10.247,37.274c-3.375-2.29-6.813-4.452-10.247-6.435c-3.434-1.982-6.871-3.79-10.246-5.397
		C108.267,181.484,112.901,172.271,116.274,174.218z M156.456,238.462c-5.692-7.45-13.802-15.049-22.819-21.873
		c-1.213-12.723-3.401-24.799-6.524-34.192C141.365,195.757,152.607,217.237,156.456,238.462z M105.435,169.881
		c-3.123,5.786-5.31,15.338-6.524,26.66c-9.017-3.588-17.128-5.354-22.82-4.477C79.941,175.282,91.183,166.784,105.435,169.881z
		 M76.092,220.967c5.692,7.45,13.803,15.049,22.82,21.873c1.213,12.723,3.401,24.8,6.524,34.193
		C91.183,263.673,79.941,242.192,76.092,220.967z M127.113,289.548c3.123-5.786,5.31-15.338,6.524-26.66
		c9.017,3.588,17.127,5.354,22.819,4.477C152.607,284.146,141.365,292.645,127.113,289.548z"/>
</g>
<g>
</g>
<g>
</g>
<g>
</g>
<g>
</g>
<g>
</g>
<g>
</g>
<g>
</g>
<g>
</g>
<g>
</g>
<g>
</g>
<g>
</g>
<g>
</g>
<g>
</g>
<g>
</g>
<g>
</g>
</svg>
