<?xml version="1.0" encoding="iso-8859-1"?>
<!-- Generator: Adobe Illustrator 19.0.0, SVG Export Plug-In . SVG Version: 6.00 Build 0)  -->
<svg version="1.1" id="Capa_1" xmlns="http://www.w3.org/2000/svg" xmlns:xlink="http://www.w3.org/1999/xlink" x="0px" y="0px"
	 viewBox="0 0 512 512" style="enable-background:new 0 0 512 512;" xml:space="preserve">
<polygon style="fill:#FFE6C6;" points="168.341,0 21.359,84.882 21.359,227.299 168.341,312.159 315.324,227.299 315.324,84.882 "/>
<polygon style="fill:#FFD2A6;" points="315.324,227.299 168.341,312.159 168.341,169.742 315.324,84.882 "/>
<polygon style="fill:#FCBC90;" points="21.359,227.299 168.341,312.159 168.341,169.742 21.359,84.882 "/>
<polygon style="fill:#284363;" points="41.459,108.08 28.455,124.022 33.453,126.907 33.453,137.74 49.423,146.96 49.423,136.128 
	54.462,139.037 "/>
<polygon style="fill:#FFFFFF;" points="167.95,4.979 113.892,35.869 147.043,55.081 200.535,23.94 "/>
<g>
	<polygon style="fill:#C8CED6;" points="168.495,12.477 175.539,16.586 136.014,39.088 128.97,34.979 	"/>
	<polygon style="fill:#C8CED6;" points="178.567,18.752 185.611,22.861 146.086,45.363 139.042,41.254 	"/>
</g>
<g style="opacity:0.2;">
	<polygon style="fill:#FFFFFF;" points="211.4,24.866 65.151,110.165 114.109,138.431 260.353,53.136 	"/>
</g>
<g style="opacity:0.2;">
	<polygon style="fill:#424242;" points="241.671,42.299 114.28,116.395 103.143,109.974 230.535,35.879 	"/>
</g>
<path style="fill:#FF5331;" d="M479.602,330.488l-0.865-0.641l0.001,0.001c-0.057-0.044-0.106-0.095-0.165-0.139l-49.97-36.939
	l-29.197-101.227l-20.565-11.873l-1.337-0.772l-62.181-35.9L168.34,227.667v84.493L21.435,227.337v71.298
	c0,8.448,4.505,16.255,11.819,20.483l135.087,77.991l164.273,94.843l8.667,0.485v0.399l2.58-0.255l4.551,0.255l1.471-0.849l0,0
	l135.408-78.178c0.001,0,0.002-0.001,0.003-0.002l0.518-0.299c0.337-0.195,0.607-0.455,0.812-0.754
	c1.053-1.102,1.669-2.577,1.669-4.144v-59.72v-0.927v-0.217C488.293,340.941,485.069,334.539,479.602,330.488z M477.888,342.909
	c0.003-0.001,0.005-0.003,0.008-0.005C477.893,342.906,477.891,342.908,477.888,342.909L477.888,342.909z"/>
<g>
	<path style="fill:#212938;" d="M105.071,294.447l0.052,0.078c9.23-4.75,20.388,0.183,28.529,14.283
		c11.224,19.44,12.443,48.849,2.723,65.685c-2.554,4.423-5.616,7.504-8.936,9.341l-0.006,0.075l-24.57,14.156L80.63,308.558
		L105.071,294.447z"/>
	<path style="fill:#212938;" d="M300.299,406.541l0.052,0.078c9.23-4.75,20.388,0.183,28.529,14.283
		c11.224,19.441,12.443,48.849,2.723,65.685c-2.554,4.424-5.616,7.504-8.936,9.341l-0.006,0.075l-24.57,14.156l-22.233-89.506
		L300.299,406.541z"/>
</g>
<path style="fill:#C40041;" d="M486.541,409.81l-38.433-49.691l-96.218,55.585c-6.417,3.708-14.423,3.249-20.376-1.165
	l-49.789-36.929l132.16-76.338l-29.181-101.259L251.961,276.48l-83.619-48.814v84.493L21.435,227.337v71.298
	c0,8.448,4.505,16.255,11.819,20.483l135.087,77.991l164.273,94.843l15.798,0.884l137.4-79.328
	C487.125,412.75,487.468,411.009,486.541,409.81z"/>
<polygon style="fill:#E84C3D;" points="428.605,292.77 399.408,191.543 251.961,276.48 281.725,377.61 "/>
<g>
	<polygon style="fill:#33AEFF;" points="186.076,248.4 243.508,281.583 267.547,369.766 186.076,322.704 	"/>
	<polygon style="fill:#33AEFF;" points="261.718,282.331 288.16,374.378 422.462,296.276 395.876,204.274 	"/>
</g>
<path style="fill:#284363;" d="M304.575,434.949c11.224,19.441,12.443,48.849,2.723,65.685c-9.72,16.836-26.699,14.725-37.923-4.716
	s-12.443-48.849-2.723-65.685S293.351,415.509,304.575,434.949z"/>
<path style="fill:#C8CED6;" d="M296.661,448.657c6.177,10.699,6.848,26.884,1.499,36.149c-5.349,9.266-14.694,8.104-20.871-2.595
	s-6.848-26.884-1.498-36.149C281.139,436.796,290.484,437.958,296.661,448.657z"/>
<path style="fill:#9FACBC;" d="M294.252,452.829c4.641,8.039,5.145,20.199,1.126,27.16c-4.019,6.962-11.04,6.089-15.681-1.95
	s-5.145-20.199-1.126-27.16C282.59,443.917,289.611,444.79,294.252,452.829z"/>
<path style="fill:#C8CED6;" d="M293.22,454.617c3.983,6.898,4.415,17.333,0.966,23.308c-3.449,5.974-9.474,5.225-13.456-1.673
	c-3.983-6.898-4.415-17.333-0.966-23.308C283.212,446.969,289.237,447.718,293.22,454.617z"/>
<path style="fill:#284363;" d="M109.346,322.855c11.224,19.44,12.443,48.848,2.723,65.684s-26.699,14.725-37.923-4.716
	s-12.443-48.849-2.723-65.685C81.144,301.303,98.122,303.415,109.346,322.855z"/>
<path style="fill:#C8CED6;" d="M101.432,336.563c6.177,10.699,6.848,26.884,1.498,36.149c-5.35,9.266-14.694,8.103-20.871-2.596
	s-6.848-26.883-1.499-36.149C85.911,324.702,95.255,325.864,101.432,336.563z"/>
<path style="fill:#9FACBC;" d="M99.024,340.735c4.641,8.038,5.145,20.198,1.126,27.16c-4.019,6.961-11.04,6.089-15.681-1.95
	s-5.145-20.199-1.126-27.16C87.362,331.823,94.383,332.696,99.024,340.735z"/>
<path style="fill:#C8CED6;" d="M97.992,342.522c3.983,6.898,4.415,17.334,0.966,23.308s-9.474,5.225-13.457-1.673
	s-4.415-17.334-0.966-23.308C87.984,334.875,94.009,335.624,97.992,342.522z"/>
<path style="fill:#F43834;" d="M479.602,330.488l-0.865-0.641l0.001,0.001c4.385,3.424,3.97,10.211-0.843,13.056
	c-0.002,0.001-0.004,0.003-0.007,0.005h-0.001c-0.021,0.013-0.039,0.028-0.061,0.041L353.15,414.975
	c-7.323,4.236-11.835,12.052-11.84,20.512l-0.031,57.349l8.602-0.849l135.408-78.178c1.857-1.073,3.002-3.054,3.002-5.199v-59.72
	v-0.927v-0.217C488.293,340.941,485.069,334.539,479.602,330.488z"/>
<g>
	<path style="fill:#F0C419;" d="M365.651,445.898l-14.944,8.676c-1.277,0.737-2.064,2.1-2.064,3.575v1.187
		c0,1.463,1.584,2.378,2.851,1.646l14.945-8.682c1.277-0.738,2.063-2.1,2.063-3.574v-1.18
		C368.501,446.081,366.918,445.167,365.651,445.898z"/>
	<path style="fill:#F0C419;" d="M483.044,378.068l-14.944,8.676c-1.277,0.737-2.064,2.1-2.064,3.575v1.187
		c0,1.463,1.584,2.378,2.851,1.646l14.945-8.682c1.277-0.738,2.063-2.1,2.063-3.575v-1.18
		C485.895,378.251,484.311,377.336,483.044,378.068z"/>
</g>
<g style="opacity:0.2;">
	<polygon style="fill:#FFFFFF;" points="204.721,259.173 238.393,352.925 267.352,369.653 255.287,325.09 238.654,278.778 	"/>
</g>
<g style="opacity:0.2;">
	<polygon style="fill:#FFFFFF;" points="188.347,249.713 187.848,249.424 186.076,248.401 186.076,322.704 222.02,343.468 	"/>
</g>
<path style="fill:#212938;" d="M381.258,414.069l66.621-38.35c6.633-3.818,14.913,0.969,14.913,8.622l0,0
	c0,7.906-4.219,15.211-11.068,19.162l-66.631,38.44c-6.633,3.827-14.921-0.96-14.921-8.618v-0.084
	C370.172,425.328,374.399,418.017,381.258,414.069z"/>
<g>
	<path style="fill:#FFFFFF;" d="M365.711,429.977c0,6.284-3.821,13.585-8.534,16.306c-4.713,2.721-8.534-0.167-8.534-6.452
		c0-6.284,3.821-13.585,8.534-16.306C361.89,420.804,365.711,423.692,365.711,429.977z"/>
	<path style="fill:#FFFFFF;" d="M482.341,362.742c0,6.284-3.821,13.585-8.534,16.306c-4.713,2.721-8.534-0.167-8.534-6.452
		s3.821-13.585,8.534-16.306S482.341,356.457,482.341,362.742z"/>
</g>
<path style="fill:#C8CED6;" d="M490.641,389.403v15.883c0,3.356-1.79,6.456-4.696,8.134l-135.162,78.401
	c-5.772,3.333-12.887,3.325-18.652-0.021l-13.887-8.059v-21.419l0,0l1.325-0.826l19.989,11.586c1.262,0.732,2.819,0.733,4.082,0.003
	l144.682-83.922v-1.084L490.641,389.403"/>
<g style="opacity:0.2;">
	<polygon style="fill:#FFFFFF;" points="390.274,314.911 411.448,258.159 395.876,204.274 368.628,220.361 320.115,355.435 	"/>
</g>
<g style="opacity:0.2;">
	<polygon style="fill:#FFFFFF;" points="290.736,372.405 339.222,237.407 278.281,272.73 267.547,302.62 288.04,373.962 	"/>
</g>
<g>
</g>
<g>
</g>
<g>
</g>
<g>
</g>
<g>
</g>
<g>
</g>
<g>
</g>
<g>
</g>
<g>
</g>
<g>
</g>
<g>
</g>
<g>
</g>
<g>
</g>
<g>
</g>
<g>
</g>
</svg>
