<?xml version="1.0" encoding="iso-8859-1"?>
<!-- Generator: Adobe Illustrator 19.0.0, SVG Export Plug-In . SVG Version: 6.00 Build 0)  -->
<svg version="1.1" id="Capa_1" xmlns="http://www.w3.org/2000/svg" xmlns:xlink="http://www.w3.org/1999/xlink" x="0px" y="0px"
	 viewBox="0 0 512 512" style="enable-background:new 0 0 512 512;" xml:space="preserve">
<path style="fill:#FFD800;" d="M490.539,321.577l-0.906-0.672c-0.06-0.047-0.111-0.099-0.172-0.146l-52.423-38.753l-30.63-106.196
	l-21.575-12.456l-1.403-0.81l-65.233-37.663L241.434,169.1l-77.445-44.7L9.88,213.363v74.798c0,8.863,4.726,17.053,12.4,21.488
	l141.718,81.819l172.337,99.499l9.093,0.509v0.419l2.707-0.267l4.774,0.267l1.543-0.891l0,0l142.056-82.016
	c0.001,0,0.002-0.001,0.003-0.002l0.543-0.314c0.354-0.204,0.638-0.477,0.852-0.791c1.105-1.156,1.751-2.704,1.751-4.347v-62.651
	v-0.972v-0.228C499.657,332.544,496.274,325.828,490.539,321.577z M163.998,213.708L163.998,213.708l0.011-0.007l0,0
	L163.998,213.708z M488.742,334.608h-0.001c0.003-0.001,0.005-0.003,0.008-0.005C488.746,334.605,488.744,334.607,488.742,334.608z"
	/>
<polygon style="fill:#FF9F2C;" points="163.998,213.708 108.562,245.356 52.698,213.708 164.009,149.112 "/>
<polygon style="fill:#FF812C;" points="163.998,213.708 163.998,213.708 163.998,213.708 108.562,245.356 163.998,277.625 "/>
<polygon style="fill:#CC8200;" points="219.939,181.484 164.009,149.112 164.009,213.702 "/>
<g>
	<path style="fill:#212938;" d="M97.621,283.767l0.055,0.082c9.683-4.983,21.389,0.192,29.93,14.984
		c11.775,20.395,13.054,51.247,2.856,68.909c-2.679,4.641-5.892,7.872-9.375,9.799l-0.006,0.078L95.305,392.47l-23.325-93.9
		L97.621,283.767z"/>
	<path style="fill:#212938;" d="M302.433,401.364l0.055,0.082c9.683-4.983,21.389,0.192,29.93,14.984
		c11.775,20.395,13.054,51.247,2.856,68.909c-2.679,4.641-5.892,7.872-9.375,9.799l-0.006,0.078l-25.776,14.851l-23.325-93.9
		L302.433,401.364z"/>
</g>
<polygon style="fill:#FF9F2C;" points="437.038,282.008 406.407,175.812 251.722,264.919 282.948,371.012 "/>
<path style="fill:#007A6E;" d="M244.286,169.269c-14.535-28.517-39.555-48.343-58.918-73.165c-2.086-1.644-4.221-3.211-6.404-4.721
	c14.727,10.112,27.253,23.425,38.764,36.971l0,0l21.309-12.294l14.195-37.131c-16.063-18.5-32.008-32.899-47.832-43.202V14.255l0,0
	l0,0l0,0l0,0L180.709,0l-21.31,12.294v3.147v-0.005c-5.625-0.64-11.652-0.202-16.622,2.743l-21.31,12.294
	c-24.04,14.247-11.412,61.757-2.022,80.832c15.136,30.746,42.812,51.049,62.164,78.596c-19.518-13.875-36.385-32.363-51.238-51.014
	l-21.31,12.294c9.224,11.583,9.224,11.583,0,0v52.803c16.143,18.651,32.922,33.535,50.337,44.649v29.741l24.691,14.255l0,0
	l21.31-12.294v-12.192v-1.001c5.127,0.114,12.231-2.252,14.319-3.556l0.002,0.011l19.316-11.191l-0.004-0.014
	C266.583,239.028,254.621,189.545,244.286,169.269C237.049,155.071,251.522,183.466,244.286,169.269z M181.609,189.901
	c0.412,0.587,0.801,1.156,1.16,1.7C182.408,191.054,182.022,190.488,181.609,189.901z M182.786,191.627
	c0.36,0.548,0.698,1.078,1.003,1.583C183.484,192.705,183.149,192.177,182.786,191.627z M203.49,267.044
	c0.64,0.047,1.273,0.082,1.894,0.097C204.764,267.127,204.131,267.092,203.49,267.044z"/>
<path style="fill:#00D16D;" d="M123.548,29.422c11.368-5.011,25.279,0.02,35.852,4.661V15.441l0,0v-0.005
	c-5.625-0.64-11.652-0.202-16.622,2.743l-21.31,12.294C122.136,30.071,122.829,29.721,123.548,29.422
	C123.884,29.274,123.36,29.505,123.548,29.422z"/>
<g>
	<path style="fill:#009F5E;" d="M109.062,151.181c14.632,18.375,31.214,36.567,50.342,50.365
		c5.297,3.821,15.193,11.981,22.215,10.713c10.598-1.914,3.727-17.036-0.011-22.358c-19.518-13.875-36.385-32.363-51.238-51.014
		L109.062,151.181L109.062,151.181L109.062,151.181z"/>
	<path style="fill:#009F5E;" d="M198.363,266.361c-0.267-0.05-0.538-0.108-0.808-0.163c-0.524-0.107-1.053-0.223-1.587-0.349
		c-0.278-0.065-0.555-0.13-0.836-0.2c-0.698-0.175-1.404-0.363-2.121-0.569c-0.114-0.032-0.225-0.061-0.34-0.095
		c-0.795-0.233-1.605-0.488-2.423-0.758c-0.264-0.088-0.533-0.181-0.8-0.272c-0.624-0.213-1.254-0.437-1.891-0.672
		c-0.264-0.097-0.526-0.193-0.792-0.294c-0.88-0.334-1.769-0.682-2.674-1.056v6.099v24.596l21.31-12.294v-12.192v-1.001
		C203.181,267.092,200.832,266.827,198.363,266.361z"/>
</g>
<g>
	<path style="fill:#00D16D;" d="M184.091,48.021c15.824,10.303,31.768,24.703,47.832,43.202l0,0l21.31-12.294
		c-16.064-18.5-32.009-32.899-47.833-43.202L184.091,48.021L184.091,48.021z"/>
	<polygon style="fill:#00D16D;" points="159.399,12.294 180.709,0 205.4,14.255 184.091,26.549 	"/>
</g>
<g>
	<polygon style="fill:#009F5E;" points="205.4,14.255 184.091,26.549 184.091,48.021 205.4,35.727 	"/>
	<polygon style="fill:#009F5E;" points="231.923,91.223 227.4,103.056 217.729,128.354 239.038,116.06 253.233,78.929 	"/>
	<path style="fill:#009F5E;" d="M244.286,169.269c-14.535-28.517-39.555-48.343-58.918-73.165
		c-5.484-4.322-18.716-15.764-26.029-13.309c-12.174,4.087,3.649,24.358,7.347,28.861c19.075,23.231,42.421,42.696,56.291,69.907
		l0,0l0,0c10.439,20.481,21.552,66.533-3.258,82.023l0.002,0.011l19.316-11.191l-0.004-0.014
		C266.583,239.028,254.621,189.545,244.286,169.269C237.049,155.071,251.522,183.466,244.286,169.269z"/>
</g>
<path style="fill:#FF812C;" d="M497.818,404.793l-40.32-52.13l-100.941,58.314c-6.732,3.889-15.131,3.408-21.376-1.223
	l-52.233-38.742l0,0l-31.226-106.093l-87.724-51.21v88.64L9.88,213.363v74.798c0,8.863,4.726,17.053,12.4,21.488l141.718,81.819
	l172.337,99.499l16.574,0.928l144.145-83.222C498.431,407.878,498.791,406.051,497.818,404.793z"/>
<g>
	<polygon style="fill:#33AEFF;" points="182.603,235.46 242.855,270.271 268.073,362.784 182.603,313.412 	"/>
	<polygon style="fill:#33AEFF;" points="261.959,271.056 289.573,367.186 430.594,285.686 402.703,189.167 	"/>
</g>
<path style="fill:#284363;" d="M306.919,431.167c11.775,20.395,13.054,51.247,2.857,68.909
	c-10.198,17.663-28.01,15.448-39.785-4.948c-11.775-20.395-13.054-51.247-2.856-68.909
	C277.332,408.557,295.144,410.772,306.919,431.167z"/>
<path style="fill:#C8CED6;" d="M298.616,445.547c6.48,11.224,7.184,28.203,1.572,37.924c-5.612,9.72-15.415,8.502-21.895-2.723
	c-6.48-11.224-7.184-28.203-1.572-37.924C282.333,433.104,292.136,434.323,298.616,445.547z"/>
<path style="fill:#9FACBC;" d="M296.09,449.924c4.869,8.433,5.398,21.19,1.181,28.493s-11.582,6.387-16.451-2.046
	c-4.869-8.433-5.398-21.19-1.181-28.493C283.855,440.575,291.221,441.491,296.09,449.924z"/>
<path style="fill:#C8CED6;" d="M295.006,451.8c4.178,7.237,4.632,18.184,1.014,24.452c-3.618,6.267-9.939,5.481-14.117-1.756
	s-4.632-18.184-1.014-24.452C284.508,443.776,290.828,444.563,295.006,451.8z"/>
<path style="fill:#284363;" d="M102.107,313.57c11.775,20.395,13.054,51.246,2.856,68.909c-10.197,17.662-28.01,15.447-39.785-4.947
	c-11.775-20.395-13.054-51.247-2.856-68.909C72.519,290.96,90.332,293.175,102.107,313.57z"/>
<path style="fill:#C8CED6;" d="M93.804,327.95c6.48,11.224,7.184,28.203,1.572,37.924c-5.612,9.72-15.415,8.501-21.895-2.723
	c-6.48-11.224-7.184-28.203-1.572-37.924C77.521,315.507,87.324,316.726,93.804,327.95z"/>
<path style="fill:#9FACBC;" d="M91.277,332.327c4.869,8.433,5.398,21.19,1.181,28.493s-11.582,6.387-16.451-2.046
	c-4.869-8.433-5.398-21.19-1.181-28.493C79.043,322.978,86.408,323.894,91.277,332.327z"/>
<path style="fill:#C8CED6;" d="M90.194,334.203c4.178,7.237,4.632,18.185,1.014,24.452c-3.619,6.267-9.939,5.482-14.117-1.755
	c-4.178-7.237-4.632-18.185-1.013-24.452C79.696,326.18,86.016,326.966,90.194,334.203z"/>
<path style="fill:#FF9F2C;" d="M490.539,321.577l-0.907-0.672l0.001,0.001c4.601,3.592,4.165,10.712-0.885,13.697
	c-0.002,0.001-0.005,0.003-0.007,0.005l-0.001,0.001c-0.022,0.013-0.041,0.029-0.064,0.043l-130.796,75.56
	c-7.682,4.443-12.416,12.643-12.421,21.519l-0.032,60.164l9.024-0.891l142.056-82.016c1.949-1.125,3.149-3.204,3.149-5.454v-62.651
	v-0.972v-0.227C499.657,332.544,496.274,325.828,490.539,321.577z"/>
<g>
	<path style="fill:#F0C419;" d="M370.993,442.653l-15.678,9.101c-1.34,0.774-2.165,2.203-2.165,3.75v1.245
		c0,1.535,1.662,2.494,2.991,1.727l15.678-9.109c1.339-0.774,2.164-2.203,2.164-3.75v-1.238
		C373.984,442.845,372.323,441.886,370.993,442.653z"/>
	<path style="fill:#F0C419;" d="M494.149,371.493l-15.678,9.101c-1.34,0.774-2.165,2.203-2.165,3.75v1.245
		c0,1.535,1.662,2.494,2.991,1.727l15.678-9.109c1.34-0.774,2.164-2.203,2.164-3.75v-1.238
		C497.14,371.685,495.479,370.726,494.149,371.493z"/>
</g>
<g style="opacity:0.15;">
	<polygon style="fill:#FFFFFF;" points="202.163,246.762 237.488,345.116 267.869,362.665 255.212,315.914 237.762,267.329 	"/>
</g>
<g style="opacity:0.15;">
	<polygon style="fill:#FFFFFF;" points="184.986,236.837 184.462,236.534 182.603,235.46 182.603,313.412 220.312,335.194 	"/>
</g>
<path style="fill:#212938;" d="M387.367,409.262l69.891-40.233c6.958-4.006,15.645,1.017,15.645,9.046l0,0
	c0,8.294-4.426,15.958-11.611,20.103l-69.902,40.327c-6.958,4.014-15.653-1.008-15.653-9.041v-0.088
	C375.737,421.073,380.171,413.403,387.367,409.262z"/>
<path style="fill:#C8CED6;" d="M502.12,383.385v16.663c0,3.52-1.878,6.773-4.927,8.533l-141.797,82.25
	c-6.056,3.496-13.519,3.488-19.567-0.022l-14.569-8.455v-22.471l0,0l1.39-0.867l20.971,12.155c1.324,0.767,2.957,0.769,4.282,0.003
	l151.785-88.042v-1.138L502.12,383.385"/>
<g style="opacity:0.15;">
	<polygon style="fill:#FFFFFF;" points="396.825,305.235 419.038,245.697 402.703,189.168 374.117,206.044 323.222,347.75 	"/>
</g>
<g style="opacity:0.15;">
	<polygon style="fill:#FFFFFF;" points="292.401,365.552 343.267,223.927 279.335,260.984 268.073,292.341 289.573,367.186 	"/>
</g>
<g>
	<path style="fill:#FFFFFF;" d="M369.445,437.465l-14.684,8.478c-1.884,1.088-3.411-0.067-3.411-2.579V431.29
		c0-2.512,1.527-5.43,3.411-6.518l14.684-8.478c1.884-1.088,3.411,0.067,3.411,2.579v12.074
		C372.856,433.46,371.329,436.378,369.445,437.465z"/>
	<path style="fill:#FFFFFF;" d="M491.801,366.93l-14.684,8.478c-1.884,1.088-3.411-0.067-3.411-2.579v-12.074
		c0-2.512,1.527-5.43,3.411-6.518l14.684-8.478c1.884-1.088,3.411,0.067,3.411,2.579v12.074
		C495.212,362.924,493.685,365.842,491.801,366.93z"/>
</g>
<g>
	<polygon style="fill:#FFD800;" points="318.196,124.883 163.998,213.708 251.722,264.919 406.407,175.812 	"/>
	<polygon style="fill:#FFD800;" points="52.698,213.708 163.998,277.625 163.998,302.349 37.22,229.149 	"/>
</g>
<g>
</g>
<g>
</g>
<g>
</g>
<g>
</g>
<g>
</g>
<g>
</g>
<g>
</g>
<g>
</g>
<g>
</g>
<g>
</g>
<g>
</g>
<g>
</g>
<g>
</g>
<g>
</g>
<g>
</g>
</svg>
