<?xml version="1.0" encoding="iso-8859-1"?>
<!-- Generator: Adobe Illustrator 19.0.0, SVG Export Plug-In . SVG Version: 6.00 Build 0)  -->
<svg version="1.1" id="Capa_1" xmlns="http://www.w3.org/2000/svg" xmlns:xlink="http://www.w3.org/1999/xlink" x="0px" y="0px"
	 viewBox="0 0 512 512" style="enable-background:new 0 0 512 512;" xml:space="preserve">
<polygon style="fill:#C40041;" points="224.319,297.888 181.786,273.331 181.786,487.443 224.319,512 266.853,487.443 
	266.853,273.331 "/>
<polygon style="fill:#F43834;" points="224.319,512 266.853,487.443 266.853,273.331 224.319,297.888 "/>
<path style="fill:#C40041;" d="M350.45,0l-15.659,9.04v22.912c0,16.374,7.899,31.741,21.214,41.271l38.857,27.812v97.487
	l17.701,8.362h15.491l0.129-162.005L350.45,0z"/>
<polygon style="fill:#F43834;" points="334.79,9.041 350.45,0 428.183,44.879 428.053,206.885 412.563,206.885 412.563,53.898 "/>
<polygon style="fill:#FF5331;" points="428.183,44.879 412.563,53.898 334.79,9.041 350.45,0 "/>
<path style="fill:#4F78E0;" d="M446.656,170.47L446.656,170.47L166.514,8.274c-12.252-7.637-28.468-7.232-46.254,3.036
	l-10.312,5.954C71.759,39.313,40.802,98.463,40.802,149.381v124.1l281.792,163.16l148.604-85.797v-124.1
	C471.198,198.492,461.664,178.717,446.656,170.47z"/>
<path style="fill:#33AEFF;" d="M471.198,350.844l-148.604,85.797v-124.1c0-50.918,30.958-110.068,69.146-132.116l10.313-5.954
	c38.188-22.048,69.146,1.355,69.146,52.273L471.198,350.844L471.198,350.844z"/>
<polygon style="fill:#5CBEFF;" points="378.848,290.735 471.198,237.547 471.198,260.347 378.848,313.648 "/>
<polygon style="fill:#4F78E0;" points="378.848,290.735 350.96,274.701 350.96,297.547 378.848,313.648 "/>
<polygon style="fill:#99DBFF;" points="350.96,274.701 358.165,270.529 378.848,282.47 456.814,237.547 436.113,225.538 
	443.351,221.373 471.198,237.547 378.848,290.735 "/>
<polygon style="fill:#4F78E0;" points="436.113,225.538 436.113,248.377 437.071,248.931 456.814,237.547 "/>
<g>
</g>
<g>
</g>
<g>
</g>
<g>
</g>
<g>
</g>
<g>
</g>
<g>
</g>
<g>
</g>
<g>
</g>
<g>
</g>
<g>
</g>
<g>
</g>
<g>
</g>
<g>
</g>
<g>
</g>
</svg>
