<?xml version="1.0" encoding="iso-8859-1"?>
<!-- Generator: Adobe Illustrator 19.0.0, SVG Export Plug-In . SVG Version: 6.00 Build 0)  -->
<svg version="1.1" id="Capa_1" xmlns="http://www.w3.org/2000/svg" xmlns:xlink="http://www.w3.org/1999/xlink" x="0px" y="0px"
	 viewBox="0 0 512 512" style="enable-background:new 0 0 512 512;" xml:space="preserve">
<path style="fill:#8392A5;" d="M452.356,232.738v-94.561l-37.598-21.982l15.955-35.191l-50.149-37.912L306.858,0l-14.135,23.594
	L254.607,1.31l-70.921,40.946l-4.027,56.241l0,0l0,0c-5.791,5.903-11.394,12.245-16.777,18.962l-31.447-16.179l-50.149,95.819
	l25.751,27.062l0,0l0,0c-2.706,8.739-5.037,17.555-6.956,26.385l0,0l-40.437,28.716v94.562l37.598,21.982l-15.955,35.191
	l50.149,37.911L205.142,512l14.135-23.594l38.116,22.284l70.921-40.946l4.027-56.241c5.791-5.903,11.394-12.246,16.777-18.962
	l31.447,16.179l50.149-95.818l-25.751-27.062c2.707-8.739,5.037-17.555,6.957-26.386L452.356,232.738z"/>
<g>
	<polygon style="fill:#9FACBC;" points="452.356,138.176 378.65,95.084 378.65,189.645 452.356,232.738 	"/>
	<polygon style="fill:#9FACBC;" points="257.393,510.69 183.686,467.598 254.607,426.652 328.314,469.744 	"/>
</g>
<polygon style="fill:#8392A5;" points="349.117,95.583 326.804,82.538 331.036,101.281 344.525,103.248 "/>
<path style="fill:#9FACBC;" d="M107.037,224.161c-2.707,8.739-5.037,17.555-6.957,26.385l73.704,43.094l15.554,2.481V271.93
	l-8.597-4.679L107.037,224.161z"/>
<polygon style="fill:#8392A5;" points="154.993,474.088 81.287,430.996 107.037,374.199 180.739,417.302 "/>
<g>
	<path style="fill:#9FACBC;" d="M182.427,400.667l-8.647-1.725l-73.699-43.096c1.92,6.614,4.25,12.739,6.957,18.353l71.663,41.911
		c0.321-0.039,0.636-0.06,0.958-0.103l0.055,0.696l1.025,0.6l4.388-6.051L182.427,400.667z"/>
	<polygon style="fill:#9FACBC;" points="380.565,43.092 306.858,0 275.411,52.491 349.117,95.583 	"/>
	<polygon style="fill:#9FACBC;" points="328.314,44.402 254.607,1.31 183.686,42.256 257.393,85.349 	"/>
	<path style="fill:#9FACBC;" d="M236.582,160.548l5.776,2.972l16.543-19.147l-5.536-2.783l-73.706-43.092
		c-5.791,5.903-11.394,12.245-16.777,18.962L236.582,160.548z"/>
</g>
<polygon style="fill:#8392A5;" points="236.582,160.548 205.142,144.373 131.436,101.281 162.883,117.459 "/>
<polygon style="fill:#9FACBC;" points="205.142,144.373 131.436,101.281 81.287,197.099 154.993,240.191 "/>
<g>
	<path style="fill:#C8CED6;" d="M418.269,205.137c0,92.354-56.151,199.64-125.416,239.631
		c-69.265,39.99-125.416-2.459-125.416-94.813s56.151-199.64,125.416-239.631C362.119,70.334,418.269,112.783,418.269,205.137z"/>
	<polygon style="fill:#C8CED6;" points="328.314,44.402 257.393,85.349 250.604,180.167 335.103,131.381 	"/>
	<polygon style="fill:#C8CED6;" points="205.142,144.373 154.993,240.191 198.399,285.807 258.149,171.643 	"/>
	<polygon style="fill:#C8CED6;" points="133.35,322.355 133.35,416.916 201.524,386.608 201.524,273.942 	"/>
	<polygon style="fill:#C8CED6;" points="154.993,474.088 205.142,512 258.149,423.522 198.399,378.352 	"/>
	<polygon style="fill:#C8CED6;" points="257.393,510.69 328.314,469.744 335.103,374.926 250.604,423.711 	"/>
	<polygon style="fill:#C8CED6;" points="380.565,410.72 430.713,314.901 387.308,269.286 327.558,383.449 	"/>
	<polygon style="fill:#C8CED6;" points="452.356,232.738 452.356,138.176 384.182,168.484 384.182,281.15 	"/>
	<polygon style="fill:#C8CED6;" points="430.713,81.004 380.565,43.092 327.558,131.57 387.308,176.74 	"/>
</g>
<path style="fill:#9FACBC;" d="M391.113,220.816c0,72.356-43.992,156.412-98.26,187.743s-98.26-1.926-98.26-74.283
	s43.992-156.412,98.26-187.743S391.113,148.459,391.113,220.816z"/>
<path style="fill:#C8CED6;" d="M371.311,232.248c0,57.775-35.127,124.891-78.458,149.909c-43.331,25.017-78.458-1.538-78.458-59.313
	s35.127-124.891,78.458-149.909C336.184,147.918,371.311,174.473,371.311,232.248z"/>
<g>
	<path style="fill:#9FACBC;" d="M286.374,337.397c-9.459,4.886-18.574,7.326-27.342,7.32v-28.682
		c12.153,1.229,34.799-2.003,40.839-14.61c6.302-13.154-10.024-10.449-18.032-9.702c-18.716,1.573-24.408-11.46-22.662-28.393
		c1.844-17.89,12.932-32.262,27.197-42.473v-11.835l13.412-7.744v11.663c8.595-4.328,17.256-6.507,25.981-6.534l-7.71,29.072
		c-9.483-0.21-28.48,2.849-32.506,13.373c-4.531,11.843,8.213,9.861,15.919,8.902c17.657-1.856,25.899,6.144,25.195,23.84
		c-0.766,19.252-11.666,36.272-26.88,47.54v16.673l-13.412,7.744v-16.154H286.374z"/>
	<polygon style="fill:#9FACBC;" points="133.35,322.355 59.644,279.262 59.644,373.824 133.35,416.916 	"/>
	<polygon style="fill:#9FACBC;" points="154.993,474.088 81.287,430.996 131.436,468.908 205.142,512 	"/>
</g>
<g>
</g>
<g>
</g>
<g>
</g>
<g>
</g>
<g>
</g>
<g>
</g>
<g>
</g>
<g>
</g>
<g>
</g>
<g>
</g>
<g>
</g>
<g>
</g>
<g>
</g>
<g>
</g>
<g>
</g>
</svg>
