<?xml version="1.0" encoding="iso-8859-1"?>
<!-- Generator: Adobe Illustrator 19.0.0, SVG Export Plug-In . SVG Version: 6.00 Build 0)  -->
<svg version="1.1" id="Capa_1" xmlns="http://www.w3.org/2000/svg" xmlns:xlink="http://www.w3.org/1999/xlink" x="0px" y="0px"
	 viewBox="0 0 512.002 512.002" style="enable-background:new 0 0 512.002 512.002;" xml:space="preserve">
<path style="fill:#212938;" d="M426.157,309.818c8.738-8.692,14.127-24.307,14.127-44.966c0-42.133-22.379-89.209-49.986-105.148
	c-8.717-5.033-16.91-6.351-24.044-4.483c0.005,0.003,0.011,0.006,0.016,0.008c-11.882-5.871-22.836-5.912-31.873-1.063
	c-0.002-0.001-0.019-0.009-0.019-0.009l-0.258,0.15c-0.26,0.143-0.515,0.296-0.772,0.447l-35.545,20.587l0.008,0.023
	c-15.359,7.625-25.404,29.066-25.404,59.904c0,50.335,26.736,106.576,59.717,125.617c13.624,7.866,26.175,8.135,36.223,2.215
	l0.005,0.012l36.925-21.328c0.011-0.006,0.021-0.012,0.032-0.018l0.084-0.049l-0.001-0.003
	C414.955,336.271,422.269,325.234,426.157,309.818z"/>
<path style="fill:#284363;" d="M428.64,452.241c0-8.146-3.06-16.476-7.783-23.063c-4.014-5.597-12.632-13.709-19.875-8.619
	l-0.006-0.011l-45,26.284l0.005,0.013c-11.176,3.123-7.602,20.782-4.504,28.371c3.159,7.738,13.202,23.24,23.646,17.909l0.001,0.003
	l0.021-0.012c0.069-0.036,0.133-0.079,0.201-0.116l47.057-27.253c0.388-0.184,0.759-0.401,1.117-0.647l0.171-0.099l-0.004-0.007
	C426.738,462.795,428.64,458.366,428.64,452.241z"/>
<path style="fill:#212938;" d="M381.146,479.709c0,12.038-7.319,17.571-16.348,12.359c-9.028-5.213-16.347-19.197-16.347-31.235
	s7.319-17.571,16.347-12.358C373.827,453.687,381.146,467.671,381.146,479.709z"/>
<path style="fill:#2E527C;" d="M369.56,156.976c32.98,19.042,59.717,75.283,59.717,125.618c0,10.154-1.111,19.262-3.12,27.224
	c8.738-8.692,14.127-24.307,14.127-44.966c0-42.133-22.379-89.209-49.986-105.148c-8.717-5.033-16.91-6.351-24.044-4.483
	C367.349,155.763,368.449,156.335,369.56,156.976z"/>
<path style="fill:#212938;" d="M237.997,393.175c0-50.335-26.736-106.576-59.717-125.618c-13.149-7.591-25.298-8.104-35.163-2.81
	c-0.002-0.001-0.018-0.009-0.018-0.009l-0.258,0.15c-0.26,0.142-0.515,0.296-0.772,0.447l-35.545,20.587l0.008,0.023
	c-10.463,5.193-18.453,16.802-22.485,33.43c-7.671,8.98-12.329,23.82-12.329,43.02c0,42.133,22.379,89.209,49.986,105.148
	c7.586,4.38,14.773,5.937,21.214,5.04c12.822,6.734,24.615,6.716,34.151,1.098l0.005,0.012l36.925-21.328
	c0.011-0.006,0.021-0.012,0.032-0.018l0.085-0.049l-0.001-0.003C228.614,444.04,237.997,422.99,237.997,393.175z"/>
<path style="fill:#284363;" d="M354.996,38.767h0.002l-0.073-0.042c-1.21-0.739-2.437-1.448-3.686-2.118l-43.921-25.245
	c-22.172-13.718-51.307-16.085-77.099-1.159l0,0c-62.368,36.095-100.771,102.692-100.771,174.752v93.035
	c20.175,0.573,36.932,17.552,47.984,32.839v1.739l23.129-13.65v-92.864c0-60.75,32.41-116.886,85.021-147.261l0,0
	c8.967-5.177,18.476-7.508,27.74-7.493c4.711,8.05,7.484,17.514,7.484,27.944v88.169c20.194,0.62,36.935,17.636,47.984,32.951v1.426
	l22.023-12.715v-86.346C390.814,74.603,375.984,51.618,354.996,38.767z"/>
<path style="fill:#2E527C;" d="M177.432,312.569V212.544c0-72.059,38.404-138.657,100.772-174.751l0,0
	c50.019-28.948,112.61,7.146,112.61,64.938v86.346l-22.022,12.715v-94.957c0-42.703-46.227-69.392-83.209-48.041l0,0
	c-52.611,30.375-85.021,86.51-85.021,147.261v92.864L177.432,312.569z"/>
<path style="fill:#284363;" d="M200.562,414.804c0,50.335-26.736,75.704-59.717,56.663S81.128,396.185,81.128,345.85
	s26.736-75.704,59.717-56.663C173.825,308.228,200.562,364.469,200.562,414.804z"/>
<path style="fill:#2E527C;" d="M171.689,420.114c0,42.133-22.379,63.367-49.986,47.429c-27.606-15.938-49.986-63.015-49.986-105.147
	c0-42.133,22.379-63.367,49.986-47.429C149.31,330.905,171.689,377.981,171.689,420.114z"/>
<path style="fill:#284363;" d="M391.841,304.223c0,50.335-26.736,75.704-59.717,56.663c-32.981-19.042-59.717-75.282-59.717-125.617
	s26.736-75.704,59.717-56.663S391.841,253.888,391.841,304.223z"/>
<path style="fill:#212938;" d="M364.253,288.295c0,27.081-14.384,40.73-32.129,30.485c-17.744-10.245-32.129-40.503-32.129-67.584
	s14.384-40.73,32.129-30.485C349.869,230.955,364.253,261.214,364.253,288.295z"/>
<path style="fill:#2E527C;" d="M228.266,429.276c5.932,8.695,11.865,17.391,17.797,26.086c7.794,11.423,15.465,22.067,28.535,28.078
	c16.411,7.548,35.007,6.145,50.593-2.647c9.654-5.446,19.095-11.285,28.805-16.63c6.016-3.312,13.994-2.077,16.109,5.421
	c1.895,6.715-2.61,12.17-7.998,15.361c-9.676,5.731-19.458,11.31-29.229,16.876c-33.855,19.283-76.658,10.612-99.54-21.244
	c-6.875-9.571-13.564-19.282-20.344-28.921c-2.896-4.116-6.92-8.493-7.207-13.743C205.134,425.98,221.011,418.642,228.266,429.276z"
	/>
<g>
</g>
<g>
</g>
<g>
</g>
<g>
</g>
<g>
</g>
<g>
</g>
<g>
</g>
<g>
</g>
<g>
</g>
<g>
</g>
<g>
</g>
<g>
</g>
<g>
</g>
<g>
</g>
<g>
</g>
</svg>
