<?xml version="1.0" encoding="iso-8859-1"?>
<!-- Generator: Adobe Illustrator 19.0.0, SVG Export Plug-In . SVG Version: 6.00 Build 0)  -->
<svg version="1.1" id="Capa_1" xmlns="http://www.w3.org/2000/svg" xmlns:xlink="http://www.w3.org/1999/xlink" x="0px" y="0px"
	 viewBox="0 0 512 512" style="enable-background:new 0 0 512 512;" xml:space="preserve">
<path style="fill:#C8CED6;" d="M340.584,222.005l-6.956-4.016c-13.255-7.653-81.677,8.432-81.677,8.432
	c-46.649,8.432-93.534,46.54-114.509,89.052l0.006,0.013c-4.106,6.89-6.471,16.32-6.471,27.857v110.788L231.21,512l156.012-90.096
	V311.116C387.222,276.772,366.342,236.876,340.584,222.005z"/>
<g>
	<polygon style="fill:#FFFFFF;" points="308.013,288.87 327.557,233.964 307.467,246.652 294.198,278.681 	"/>
	<polygon style="fill:#FFFFFF;" points="294.198,278.681 247.873,277.528 221.136,277.528 280.077,304.929 	"/>
</g>
<polygon style="fill:#E0A679;" points="307.467,254.712 294.198,278.681 247.873,284.049 "/>
<path style="fill:#2E527C;" d="M347.236,113.966c0,13.226,8.041,28.59,17.961,34.317c9.919,5.727,17.961-0.352,17.961-13.578
	s-8.041-28.59-17.961-34.317C355.277,94.661,347.236,100.74,347.236,113.966z"/>
<path style="fill:#284363;" d="M381.591,147.45c0-17.213-20.209-73.516-48.865-59.645l-0.004-0.009l-0.104,0.06
	c-0.568,0.281-1.119,0.597-1.653,0.95l-10.698,6.15c-31.872,16.638,6.32,101.549,38.535,83.987l0.002,0.005l11.725-6.788
	c0.444-0.228,0.876-0.479,1.299-0.752l0.039-0.023l-0.002-0.003C377.843,167.494,381.591,159.138,381.591,147.45z"/>
<g>
	<path style="fill:#212938;" d="M309.294,119.621c0,22.182,13.487,47.951,30.123,57.556c16.637,9.605,30.123-0.59,30.123-22.773
		s-13.487-47.951-30.123-57.556C322.78,87.243,309.294,97.439,309.294,119.621z"/>
	<path style="fill:#212938;" d="M302.946,9.56c-35.61-10.659-63.643-17.41-107.216,7.747l0,0
		c-43.905,25.349-70.952,72.195-70.952,122.892l0,0c0,48.519,25.777,93.384,67.693,117.819l36.928,21.528l49.538-14.378
		c43.62-12.66,74.858-51.778,76.068-97.182c0.026-0.962,0.039-1.926,0.039-2.892c0,0,0.06-43.483-1.885-74.47
		C350.693,51.304,342.771,21.481,302.946,9.56z"/>
</g>
<path style="fill:#FCBF90;" d="M353.159,90.625c-29.426,21.373-60.064,9.228-65.301-27.302
	c-4.829,39.259-32.482,101.115-78.237,106.255v76.781c0,28.98,31.378,47.085,56.468,32.583l34.902-20.174
	c33.45-19.334,54.052-55.037,54.052-93.673v-50.201C355.044,106.693,354.391,98.586,353.159,90.625
	C350.967,92.217,354.391,98.586,353.159,90.625z"/>
<path style="fill:#C40041;" d="M290.627,234.305c18.559-10.715,33.603-39.46,33.603-64.205l-67.206,38.801
	C257.024,233.646,272.068,245.02,290.627,234.305z"/>
<g>
	<path style="fill:#212938;" d="M265.785,168.994c0,7.165-4.356,15.488-9.73,18.591c-5.374,3.102-9.73-0.191-9.73-7.356
		c0-7.165,4.356-15.488,9.73-18.591C261.428,158.536,265.785,161.829,265.785,168.994z"/>
	<path style="fill:#212938;" d="M328.754,132.639c0,7.165-4.356,15.488-9.73,18.591c-5.374,3.102-9.73-0.191-9.73-7.356
		c0-7.165,4.356-15.488,9.73-18.591C324.397,122.181,328.754,125.474,328.754,132.639z"/>
</g>
<path style="fill:#284363;" d="M294.037,268.81c0-4.786-2.91-10.345-6.499-12.418c-1.747-1.008-3.329-0.998-4.497-0.178
	l-0.002-0.004l-17.89,10.449l0.002,0.005c-1.799,0.503-2.993,2.499-2.993,5.561c0,4.786,2.91,10.345,6.499,12.418
	c1.557,0.899,2.985,0.992,4.105,0.42v0.001l0.008-0.005c0.027-0.014,0.053-0.031,0.08-0.046l18.708-10.834
	c0.154-0.073,0.302-0.16,0.444-0.257l0.068-0.039l-0.001-0.003C293.281,273.005,294.037,271.245,294.037,268.81z"/>
<path style="fill:#212938;" d="M275.155,279.729c0,4.786-2.91,6.985-6.499,4.913s-6.499-7.632-6.499-12.418s2.91-6.985,6.499-4.913
	C272.246,269.384,275.155,274.944,275.155,279.729z"/>
<path style="fill:#2E527C;" d="M214.378,259.68l9.602,14.075c6.38,9.351,18.888,12.204,28.692,6.544l12.135-7.006
	c2.716-1.568,6.111,0.392,6.111,3.528l0,0c0,1.898-1.013,3.652-2.657,4.601l-12.649,7.303c-13.341,7.703-30.355,3.95-39.218-8.65
	l-9.997-14.212c-1.78-2.531-1.017-6.043,1.654-7.606l0,0C210.206,256.995,212.97,257.617,214.378,259.68z"/>
<path style="fill:#284363;" d="M224.168,238.245c0-22.182-13.487-47.951-30.123-57.556c-7.087-4.092-13.597-4.579-18.742-2.089
	l-0.004-0.009l-0.104,0.06c-0.568,0.281-1.12,0.597-1.653,0.95l-10.698,6.15c-6.701,3.498-10.973,12.185-10.973,24.669
	c0,22.182,13.487,47.951,30.123,57.556c7.385,4.263,14.145,4.618,19.385,1.762l0.002,0.004l11.725-6.788
	c0.444-0.228,0.877-0.479,1.299-0.752l0.039-0.023l-0.002-0.003C220.42,258.29,224.168,249.934,224.168,238.245z"/>
<path style="fill:#212938;" d="M151.871,210.421c0,22.182,13.487,47.951,30.123,57.556c16.637,9.605,30.123-0.591,30.123-22.773
	s-13.487-47.951-30.123-57.556C165.358,178.044,151.871,188.239,151.871,210.421z"/>
<path style="fill:#2E527C;" d="M153.893,225.81c0,13.226,8.041,28.59,17.961,34.317c9.919,5.727,17.961-0.352,17.961-13.578
	s-8.041-28.59-17.961-34.317S153.893,212.585,153.893,225.81z"/>
<path style="fill:#8392A5;" d="M199.23,493.418l-61.75-35.651V351.522c0-21.158,12.864-30.883,28.732-21.721l4.285,2.474
	c15.868,9.162,28.732,33.74,28.732,54.898v106.245H199.23z"/>
<polygon style="fill:#284363;" points="294.198,278.681 280.077,304.929 286.421,310.221 301.617,301.448 308.013,288.87 "/>
<polygon style="fill:#212938;" points="286.421,310.221 274.961,455.22 294.037,468.629 313.07,433.217 301.617,301.448 "/>
<path style="fill:#FFFFFF;" d="M352.772,390.16l-2.824,1.63c-10.456,6.037-18.932-0.371-18.932-14.313v-36.084l40.688-23.491v36.084
	C371.704,367.927,363.228,384.123,352.772,390.16z"/>
<g>
</g>
<g>
</g>
<g>
</g>
<g>
</g>
<g>
</g>
<g>
</g>
<g>
</g>
<g>
</g>
<g>
</g>
<g>
</g>
<g>
</g>
<g>
</g>
<g>
</g>
<g>
</g>
<g>
</g>
</svg>
