<?xml version="1.0" encoding="iso-8859-1"?>
<!-- Generator: Adobe Illustrator 19.0.0, SVG Export Plug-In . SVG Version: 6.00 Build 0)  -->
<svg version="1.1" id="Capa_1" xmlns="http://www.w3.org/2000/svg" xmlns:xlink="http://www.w3.org/1999/xlink" x="0px" y="0px"
	 viewBox="0 0 512 512" style="enable-background:new 0 0 512 512;" xml:space="preserve">
<polygon style="fill:#FF5331;" points="471.752,397.431 219.224,250.581 38.79,354.452 292.667,501.547 "/>
<g>
	<path style="fill:#C8CED6;" d="M69.543,238.467v40.631l-42.539,24.889l-1.358-0.784l1.536,15.357
		c0.46,0.083-0.617,2.269-0.152,2.269c1.362,0,2.725-0.356,3.945-1.068l38.569-22.566v31.194l-34.659,20.047l7.818,13.522
		L219.34,259.79l106.548,61.418v1.512h2.624l140.642,81.07l7.798-13.532l-62.229-35.872v-33.912l62.848,36.284
		c0.792,0.456,1.649,0.708,2.521,0.866V340.18l-65.368-37.738v-38.291l61.622,35.577c1.162,0.669,2.452,1,3.746,1.027l2.57-15.369
		l-67.938-39.267v-61.255h-15.617v52.239l-57.601-33.255v-56.232H325.89v47.216l-57.164-33.002v-59.162h-15.617v50.146
		l-25.964-14.99V89.552h-15.617v48.876L179.51,156.92v-54.252h-15.617v63.272l-29.932,17.288v-51.715h-15.617v60.735l-33.185,19.167
		v-52.136H69.543v61.155l-43.739,25.262l-0.159-0.092v16.897c0.054,0.001,0.105,0.021,0.159,0.021c1.347,0,2.699-0.351,3.904-1.047
		L69.543,238.467z M341.504,278.203l57.601,33.255v33.926l-57.601-33.204V278.203z M341.504,221.879l57.601,33.255v38.291
		l-57.601-33.255V221.879z M268.724,236.184l57.164,33.003v33.991l-57.164-32.952V236.184z M268.724,179.86l57.164,33.003v38.292
		l-57.164-33.002V179.86z M227.143,212.178l25.964,14.99v34.056l-25.964-14.967V212.178z M227.143,155.854l25.964,14.99v38.293
		l-25.964-14.99V155.854z M179.51,232.855l32.016-18.732v32.142l-32.016,18.518L179.51,232.855L179.51,232.855z M179.51,174.952
		l32.016-18.492v39.565l-32.016,18.732L179.51,174.952L179.51,174.952z M133.961,259.505l29.932-17.512v31.824l-29.932,17.313
		V259.505z M133.961,201.26l29.932-17.288v39.923l-29.932,17.513V201.26z M85.159,288.058l33.185-19.416v31.52l-33.185,19.194
		V288.058z M85.159,229.447l33.185-19.167v40.264L85.159,269.96V229.447z"/>
	<path style="fill:#C8CED6;" d="M10.487,210.037L31.06,356.285c0.336,2.379,1.749,4.474,3.833,5.678l253.719,146.34
		c0.009,0.005,0.019,0.009,0.028,0.014c0.143,0.081,0.294,0.145,0.442,0.217c0.163,0.08,0.323,0.168,0.49,0.236
		c0.017,0.007,0.034,0.011,0.051,0.017c0.926,0.369,1.906,0.557,2.888,0.557c0.001,0,0.002,0,0.002,0c0.002,0,0.002,0,0.002,0
		c1.333,0,2.675-0.335,3.91-1.052L476.967,403.78c0.015-0.009,0.026-0.021,0.041-0.03c0.426-0.251,0.827-0.539,1.198-0.865
		c0.117-0.103,0.21-0.223,0.32-0.332c0.238-0.235,0.472-0.471,0.679-0.736c0.12-0.154,0.216-0.321,0.324-0.483
		c0.163-0.244,0.324-0.488,0.46-0.753c0.092-0.179,0.161-0.365,0.238-0.551c0.11-0.263,0.217-0.525,0.299-0.803
		c0.061-0.208,0.1-0.42,0.145-0.633c0.038-0.183,0.099-0.356,0.124-0.544l18.936-142.527c0.564-4.275-2.44-8.2-6.716-8.769
		c-4.26-0.575-8.2,2.44-8.769,6.715l-5.279,39.73l-32.594,18.825v-26.732h-15.617v35.752l-29.932,17.288v-31.328H385.21v40.348
		l-33.185,19.167v-33.736h-15.616v42.756l-36.088,20.843v-33.271h-15.617v33.09l-57.561-33.231v-34.514h-15.617v25.498
		L153.924,320.7v-51.232h-15.617v42.216l-57.164-33.002v-39.766H65.527v30.75l-33.61-19.404l-5.965-42.402L10.487,210.037z
		 M65.527,287.697v26.414l-26.805-15.475l-4.045-28.75L65.527,287.697z M138.308,329.716v26.413l-57.164-33.002v-26.414
		L138.308,329.716z M138.308,403.581L81.143,370.61v-29.452l57.164,33.003L138.308,403.581L138.308,403.581z M153.924,383.177
		l57.601,33.256v29.379l-57.601-33.224V383.177z M211.525,371.988V398.4l-57.601-33.255v-26.413L211.525,371.988z M284.703,414.236
		v26.411l-57.561-33.231v-26.412L284.703,414.236z M446.375,403.446v-28.639l23.585-13.799l-4.143,31.184L446.375,403.446z
		 M430.758,412.486l-29.932,17.327v-28.357l29.932-17.513V412.486z M385.21,438.853l-33.185,19.21v-28.054l33.185-19.416V438.853z
		 M336.408,467.104l-36.088,20.891v-27.734l36.088-21.114V467.104z M336.408,393.573v27.476l-36.088,21.115v-27.747L336.408,393.573
		z M385.21,365.386v27.11l-33.185,19.416v-27.359L385.21,365.386z M430.758,339.078v26.768l-29.932,17.513v-26.993L430.758,339.078z
		 M476.373,312.732l-3.807,28.653l-26.192,15.324v-26.651L476.373,312.732z M284.703,488.02l-57.561-33.2v-29.371l57.561,33.232
		V488.02z M45.996,350.337l-4.513-32.076l24.044,13.881v29.46L45.996,350.337z"/>
</g>
<path style="fill:#FF5331;" d="M0,163.941L0,163.941v42.211l292.667,168.843L512,248.362v-32.259v-2.572v-7.38l-22.612-13.055l0,0
	L218.924,36.944L0,163.941z M54.562,184.956l164.662-95.201h0.109l238.251,137.218l-164.772,95.628L54.562,184.956z"/>
<polygon style="fill:#C40041;" points="219.333,89.755 219.333,47.544 343.758,119.205 493.55,205.722 493.55,206.099 
	457.583,226.973 "/>
<polygon style="fill:#F43834;" points="18.219,163.921 140.822,92.874 219.224,47.544 219.224,89.755 54.562,184.956 18.219,163.96 
	"/>
<g>
	<path style="fill:#C8CED6;" d="M60.845,202.442c2.155,0,4.321-0.762,6.054-2.308l73.203-65.227l199.63-115.251
		c4.357-2.516,5.851-8.088,3.335-12.444c-2.521-4.354-8.093-5.851-12.445-3.335L130.184,119.596
		c-0.539,0.31-1.042,0.676-1.505,1.088L54.78,186.531c-3.757,3.345-4.087,9.105-0.742,12.861
		C55.837,201.41,58.333,202.442,60.845,202.442z"/>
	<path style="fill:#C8CED6;" d="M262.89,318.697c1.627,0,3.279-0.437,4.768-1.352c4.28-2.638,5.617-8.251,2.979-12.536
		L171.63,144.063L357.306,37.497l98.961,145.15c2.832,4.153,8.51,5.231,12.658,2.399c4.158-2.837,5.231-8.505,2.399-12.658
		L367.611,20.266c-2.684-3.934-7.956-5.127-12.063-2.768L154.412,132.94c-2.14,1.225-3.685,3.269-4.295,5.658
		c-0.605,2.389-0.219,4.921,1.072,7.02l103.933,168.748C256.845,317.157,259.829,318.697,262.89,318.697z"/>
</g>
<path style="fill:#C40041;" d="M170.705,122.351c2.649,0,5.338-0.676,7.798-2.1l138.308-79.893
	c7.468-4.316,10.025-13.863,5.709-21.333C318.209,11.56,308.657,9,301.184,13.314L162.876,93.207
	c-7.468,4.316-10.025,13.863-5.709,21.335C160.06,119.55,165.306,122.351,170.705,122.351z"/>
<path style="fill:#C8CED6;" d="M139.873,133.728c1.535,0,3.096-0.386,4.524-1.21l23.598-13.548
	c4.367-2.506,5.872-8.073,3.365-12.434c-2.501-4.362-8.068-5.882-12.434-3.365l-23.598,13.548
	c-4.367,2.506-5.872,8.073-3.365,12.434C133.646,132.086,136.716,133.728,139.873,133.728z"/>
<path style="fill:#E84C3D;" d="M194.374,136.138c2.638,0,5.307-0.671,7.757-2.079l138.546-79.522
	c7.483-4.291,10.065-13.837,5.77-21.315c-4.296-7.488-13.837-10.073-21.315-5.77l-138.546,79.522
	c-7.483,4.29-10.065,13.837-5.77,21.315C183.704,133.321,188.96,136.138,194.374,136.138z"/>
<path style="fill:#D1D1D1;" d="M158.957,149.95c1.535,0,3.096-0.387,4.524-1.21l28.264-16.222c4.362-2.501,5.872-8.073,3.365-12.434
	c-2.501-4.362-8.073-5.882-12.434-3.365l-28.264,16.222c-4.362,2.501-5.872,8.073-3.365,12.434
	C152.73,148.307,155.8,149.95,158.957,149.95z"/>
<path style="fill:#F43834;" d="M244.468,279.693l9.329-5.105c0.052-0.028,0.102-0.058,0.154-0.084l0.07-0.039l0.005,0.007
	c2.919-1.462,6.631-1.211,10.677,1.125c9.389,5.421,17.001,19.965,17.001,32.484c0,2.939-0.433,5.489-1.197,7.625l0.007,0.011
	l-0.013,0.007c-2.493,6.95-8.62,9.355-15.799,5.21c-9.39-5.421-17.001-19.965-17.001-32.485c0-1.243,0.095-2.399,0.239-3.505
	L244.468,279.693z"/>
<path style="fill:#C40041;" d="M238.998,293.168c0,12.52,7.612,27.064,17.001,32.485c9.39,5.421,17.002-0.333,17.002-12.853
	s-7.612-27.064-17.002-32.485C246.61,274.894,238.998,280.649,238.998,293.168z"/>
<path style="fill:#ED7064;" d="M447.18,151.031l8.305-4.455c0.635-0.468,1.325-0.826,2.052-1.101l0.116-0.062l0.006,0.011
	c2.763-0.993,6.123-0.586,9.756,1.512c9.39,5.421,17.002,19.965,17.002,32.484c0,9.591-4.474,15.189-10.786,14.857l-0.061,0.037
	l-0.027-0.045c-1.903-0.117-3.964-0.747-6.127-1.995c-9.389-5.421-17.001-19.965-17.001-32.484c0-1.106,0.08-2.138,0.195-3.136
	L447.18,151.031z"/>
<path style="fill:#C40041;" d="M441.71,164.506c0,12.52,7.612,27.064,17.002,32.485s17.002-0.333,17.002-12.853
	s-7.612-27.064-17.002-32.485S441.71,151.987,441.71,164.506z"/>
<path style="fill:#FFFFFF;" d="M450.873,169.796c0,5.773,3.51,12.479,7.839,14.978s7.839-0.154,7.839-5.926
	c0-5.773-3.51-12.479-7.839-14.978C454.382,161.37,450.873,164.024,450.873,169.796z"/>
<polygon style="fill:#F43834;" points="512,206.151 512,248.362 292.667,374.994 292.667,332.783 "/>
<polygon style="fill:#C40041;" points="0,163.941 0,206.151 292.667,374.994 292.667,332.783 "/>
<path style="fill:#F43834;" d="M49.459,167.057l9.328-5.104c0.052-0.028,0.103-0.058,0.156-0.085l0.07-0.038l0.004,0.007
	c2.919-1.462,6.631-1.211,10.678,1.125c9.389,5.421,17.001,19.965,17.001,32.484c0,2.941-0.434,5.492-1.198,7.63l0.009,0.006
	l-0.013,0.008c-2.493,6.95-8.62,9.355-15.799,5.21c-9.39-5.421-17.002-19.965-17.002-32.485c0-1.243,0.095-2.399,0.24-3.505
	L49.459,167.057z"/>
<path style="fill:#C40041;" d="M43.989,180.531c0,12.52,7.612,27.064,17.001,32.485c9.39,5.421,17.002-0.333,17.002-12.853
	s-7.612-27.064-17.002-32.485C51.601,162.257,43.989,168.012,43.989,180.531z"/>
<g>
	<path style="fill:#FFFFFF;" d="M53.151,185.821c0,5.773,3.51,12.479,7.839,14.978s7.839-0.154,7.839-5.926
		c0-5.773-3.51-12.479-7.839-14.978C56.661,177.395,53.151,180.049,53.151,185.821z"/>
	<path style="fill:#FFFFFF;" d="M248.161,298.458c0,5.773,3.51,12.479,7.839,14.978c4.33,2.5,7.839-0.154,7.839-5.926
		c0-5.773-3.51-12.479-7.839-14.978C251.67,290.032,248.161,292.686,248.161,298.458z"/>
</g>
<g>
</g>
<g>
</g>
<g>
</g>
<g>
</g>
<g>
</g>
<g>
</g>
<g>
</g>
<g>
</g>
<g>
</g>
<g>
</g>
<g>
</g>
<g>
</g>
<g>
</g>
<g>
</g>
<g>
</g>
</svg>
