<?xml version="1.0" encoding="iso-8859-1"?>
<!-- Generator: Adobe Illustrator 19.0.0, SVG Export Plug-In . SVG Version: 6.00 Build 0)  -->
<svg version="1.1" id="Capa_1" xmlns="http://www.w3.org/2000/svg" xmlns:xlink="http://www.w3.org/1999/xlink" x="0px" y="0px"
	 viewBox="0 0 511.999 511.999" style="enable-background:new 0 0 511.999 511.999;" xml:space="preserve">
<path style="fill:#C40041;" d="M408.136,165.284c-2.567,0-5.037-1.42-6.259-3.873c-1.719-3.452-0.316-7.645,3.135-9.367l0,0
	c0.559-0.279,56.099-28.429,66.489-67.908c2.65-10.075,1.148-19.444-0.445-29.364c-2.448-15.26-5.222-32.556,8.939-51.911
	c2.28-3.114,6.651-3.791,9.764-1.513c3.114,2.279,3.792,6.65,1.513,9.764c-10.719,14.648-8.727,27.067-6.419,41.446
	c1.67,10.408,3.563,22.204,0.16,35.134c-12.008,45.632-71.25,75.604-73.767,76.857C410.246,165.048,409.183,165.284,408.136,165.284
	z"/>
<path style="fill:#F18D83;" d="M402.046,75.217L315.412,59.83L19.378,230.746v273.087l14.119,8.166l296.034-170.915l86.634-115.423
	V83.383L402.046,75.217z M369.474,181.248c0-8.65,4.317-18.439,10.232-24.201c-0.009,0.008-0.018,0.016-0.027,0.025
	c6.354-1.718,11.098,3.117,11.098,12.183c0,8.637-4.303,18.411-10.206,24.176C374.217,195.148,369.474,190.313,369.474,181.248z"/>
<path style="fill:#C40041;" d="M398.183,164.695c0-4.516-1.243-10.342-5.903-12.268c-6.516-2.693-13.247,4.728-12.962,4.446
	c8.122-2.193,11.35,6.274,11.35,12.887c0,8.159-4.134,18.17-10.44,24.33C391.596,191.016,398.183,175.397,398.183,164.695z"/>
<path style="fill:#F43834;" d="M329.53,67.996L33.497,238.912v273.087l296.034-170.915l86.634-115.423V83.383L329.53,67.996z
	 M383.793,192.074c-7.908,4.566-14.32-0.281-14.32-10.826s6.411-22.795,14.32-27.361s14.32,0.281,14.32,10.826
	S391.702,187.508,383.793,192.074z"/>
<g>
	<polygon style="fill:#C40041;" points="33.497,511.999 19.378,503.833 19.378,230.746 33.497,238.912 	"/>
	<polygon style="fill:#C40041;" points="329.53,67.996 315.411,59.831 402.046,75.217 416.165,83.383 	"/>
</g>
<path style="fill:#F18D83;" d="M393.972,155.644l20.515-11.797c4.787-2.753,10.761,0.703,10.761,6.225l0,0
	c0,5.625-3.005,10.821-7.881,13.626l-21.805,12.545c-4.521,2.575-10.138-0.689-10.138-5.892l0,0
	C385.424,164.269,388.687,158.654,393.972,155.644z"/>
<path style="fill:#FFFFFF;" d="M202.577,240.582c0,28.848-7.843,62.092-32.817,79.667c-31.08,21.871-41.952-10.354-42.067-36.433
	c-0.125-28.448,7.612-61.405,32.182-78.775C190.342,183.502,202.577,213.849,202.577,240.582z M157.587,267.088
	c0,6.605-1.746,27.013,8.698,23.345c7.5-2.634,6.31-26.683,6.299-32.004c-0.01-5.552,1.64-26.096-7.45-24.435
	C156.298,235.608,157.587,262.242,157.587,267.088z M274.979,141.047l-80.546,240.102l-29.497,17.03l80.546-240.102L274.979,141.047
	z M313.016,253.89c0,28.785-7.944,62.014-32.843,79.549c-30.989,21.823-41.922-10.283-42.042-36.314
	c-0.131-28.446,7.616-61.41,32.183-78.777C300.781,196.809,313.016,227.156,313.016,253.89z M268.026,280.394
	c0,2.725-0.525,29.039,7.547,24.377c8.371-4.832,7.344-22.135,7.497-29.924c0.05-2.527,0.896-32.391-7.497-27.545
	C266.702,252.425,268.026,272.381,268.026,280.394z"/>
<g>
</g>
<g>
</g>
<g>
</g>
<g>
</g>
<g>
</g>
<g>
</g>
<g>
</g>
<g>
</g>
<g>
</g>
<g>
</g>
<g>
</g>
<g>
</g>
<g>
</g>
<g>
</g>
<g>
</g>
</svg>
