<?xml version="1.0" encoding="iso-8859-1"?>
<!-- Generator: Adobe Illustrator 19.0.0, SVG Export Plug-In . SVG Version: 6.00 Build 0)  -->
<svg version="1.1" id="Capa_1" xmlns="http://www.w3.org/2000/svg" xmlns:xlink="http://www.w3.org/1999/xlink" x="0px" y="0px"
	 viewBox="0 0 512 512" style="enable-background:new 0 0 512 512;" xml:space="preserve">
<polygon style="fill:#FF9F2C;" points="411.864,187.507 442.883,124.968 406.148,103.735 417.264,57.294 380.054,35.786 
	370.487,40.825 369.926,21.507 332.717,0 309.059,25.34 309.059,25.34 309.059,25.34 308.077,23.058 270.868,1.55 238.518,60.198 
	203.923,40.201 184.868,106.491 142.074,110.068 140.338,171.872 94.736,200.515 110.584,248.425 69.117,297.771 100.136,324.493 
	69.117,387.031 105.852,408.265 94.736,454.706 131.946,476.214 141.513,471.176 142.074,490.492 179.283,512 202.941,486.66 
	203.923,488.942 241.132,510.45 274.605,449.767 308.077,471.799 327.132,405.509 369.926,401.932 371.662,340.128 417.264,311.485 
	401.416,263.575 442.883,214.229 "/>
<g>
	<polyline style="fill:#FF812C;" points="203.923,488.942 241.132,510.45 222.078,466.162 202.941,486.66 203.923,488.942 	"/>
	<polyline style="fill:#FF812C;" points="177.547,452.199 141.513,471.176 142.074,490.492 179.283,512 177.547,452.199 	"/>
	<polyline style="fill:#FF812C;" points="106.327,408.539 105.852,408.265 94.736,454.706 131.946,476.214 147.793,410.004 
		106.327,408.539 	"/>
	<polyline style="fill:#FF812C;" points="106.327,408.539 69.117,387.032 100.136,324.493 137.345,346.001 106.327,408.539 	"/>
</g>
<polygon style="fill:#FFD800;" points="274.605,83.741 308.077,23.058 327.132,67.345 369.926,21.508 371.662,81.308 
	417.264,57.294 401.416,123.503 442.883,124.968 411.864,187.507 442.883,214.229 401.416,263.575 417.264,311.485 371.662,340.127 
	369.926,401.932 327.132,405.509 308.077,471.799 274.605,449.767 241.132,510.45 222.078,466.162 179.283,512 177.547,452.199 
	131.946,476.214 147.793,410.004 106.327,408.539 137.345,346.001 106.327,319.279 147.793,269.932 131.946,222.022 177.547,193.38 
	179.283,131.576 222.078,127.998 241.132,61.709 "/>
<path style="fill:#284363;" d="M258.329,236.11c0,30.964-8.59,66.519-35.788,84.893c-32.173,21.735-43.195-12.535-43.258-39.256
	c-0.07-29.803,7.856-63.922,33.174-82.521C244.631,175.59,258.329,207.121,258.329,236.11z M210.838,264.089
	c0,6.033-1.865,27.245,7.967,25.732c9.15-1.408,7.871-29.293,7.864-34.872c-0.007-6.089,1.92-27.176-7.864-25.794
	C209.679,230.445,210.838,258.492,210.838,264.089z M334.755,131.042L249.732,384.49l-31.137,17.977l85.023-253.448L334.755,131.042
	z M374.907,250.157c0,30.891-8.696,66.436-35.81,84.766c-32.08,21.688-43.171-12.45-43.237-39.128
	c-0.074-29.801,7.859-63.926,33.175-82.523C361.21,189.637,374.907,221.167,374.907,250.157z M327.416,278.135
	c0,2.959-0.733,30.756,7.967,25.732c8.898-5.136,7.811-23.844,7.934-32.233c0.052-3.531,0.829-33.49-7.934-28.432
	C325.918,248.669,327.416,269.178,327.416,278.135z"/>
<polygon style="fill:#FF9F2C;" points="308.077,23.058 270.868,1.55 238.518,60.198 241.132,61.709 274.605,83.741 "/>
<g>
	<polygon style="fill:#FF812C;" points="106.327,319.279 69.117,297.771 100.136,324.493 137.345,346.001 	"/>
	<polygon style="fill:#FF812C;" points="131.946,222.022 94.736,200.515 110.584,248.425 147.793,269.932 	"/>
	<polygon style="fill:#FF812C;" points="179.283,131.576 142.074,110.068 140.338,171.873 177.547,193.38 	"/>
	<polygon style="fill:#FF812C;" points="241.132,61.709 203.923,40.201 184.868,106.491 222.078,127.998 	"/>
</g>
<g>
	<polygon style="fill:#FF9F2C;" points="369.926,21.508 332.717,0 309.059,25.34 327.132,67.345 	"/>
	<polygon style="fill:#FF9F2C;" points="417.264,57.294 380.054,35.786 370.487,40.825 371.391,71.98 371.662,81.308 	"/>
	<polygon style="fill:#FF9F2C;" points="442.883,124.968 405.673,103.461 401.416,123.503 	"/>
</g>
<g>
</g>
<g>
</g>
<g>
</g>
<g>
</g>
<g>
</g>
<g>
</g>
<g>
</g>
<g>
</g>
<g>
</g>
<g>
</g>
<g>
</g>
<g>
</g>
<g>
</g>
<g>
</g>
<g>
</g>
</svg>
