<?xml version="1.0" encoding="iso-8859-1"?>
<!-- Generator: Adobe Illustrator 19.0.0, SVG Export Plug-In . SVG Version: 6.00 Build 0)  -->
<svg version="1.1" id="Capa_1" xmlns="http://www.w3.org/2000/svg" xmlns:xlink="http://www.w3.org/1999/xlink" x="0px" y="0px"
	 viewBox="0 0 512.001 512.001" style="enable-background:new 0 0 512.001 512.001;" xml:space="preserve">
<path style="fill:#99DBFF;" d="M495.644,71.951l0.057-0.058L422.08,29.387l-0.009,0.005c-9.975-5.91-22.897-6.831-34.373-0.206
	L73.233,210.743l-41.708,23.923C12.113,245.8,0.14,266.47,0.14,288.849v15.012C0.056,305.507,0,307.158,0,308.818v102.159
	c0,13.374,7.396,24.175,17.649,29.818l-0.005,0.038l70.751,40.817c10.159,6.756,23.835,8.129,35.907,1.16l339.38-195.941
	c29.9-17.263,48.319-49.165,48.319-83.691V101.019C512,88.215,505.219,77.77,495.644,71.951z"/>
<path style="fill:#33AEFF;" d="M121.559,267.48l339.38-195.941C483.633,58.437,512,74.815,512,101.019v102.159
	c0,34.525-18.419,66.428-48.319,83.691L124.301,482.81c-22.693,13.102-51.06-3.275-51.06-29.48V351.171
	C73.241,316.646,91.66,284.743,121.559,267.48z"/>
<g>
	<path style="fill:#FFFFFF;" d="M150.066,382.164l-1.766-7.936l-11.644,6.723l-1.814,10.002l-10.638,6.142l11.692-54.731
		l12.918-7.458l11.84,41.145L150.066,382.164z M146.291,364.798l-1.544-6.952c-0.36-1.536-0.797-3.539-1.313-6.008
		c-0.514-2.471-0.854-4.257-1.018-5.362c-0.146,1.196-0.437,3.194-0.869,5.993c-0.434,2.8-1.394,8.377-2.88,16.73L146.291,364.798z"
		/>
	<path style="fill:#FFFFFF;" d="M194.949,331.345c0,7.975-1.646,15.07-4.939,21.285c-3.293,6.216-7.922,11.045-13.887,14.489
		l-11.594,6.694v-47.784l12.403-7.161c5.752-3.321,10.192-3.924,13.322-1.808C193.385,319.175,194.949,323.937,194.949,331.345z
		 M184.899,337.605c0-4.38-0.649-7.251-1.949-8.615c-1.3-1.363-3.272-1.281-5.92,0.248l-2.819,1.628v26.768l2.157-1.246
		c2.941-1.698,5.099-4.082,6.472-7.151S184.899,342.29,184.899,337.605z"/>
	<path style="fill:#FFFFFF;" d="M231.792,310.074c0,7.975-1.647,15.07-4.939,21.285c-3.294,6.216-7.922,11.045-13.887,14.489
		l-11.595,6.694v-47.784l12.403-7.161c5.752-3.321,10.193-3.924,13.323-1.808C230.227,297.904,231.792,302.665,231.792,310.074z
		 M221.742,316.334c0-4.38-0.649-7.251-1.949-8.615c-1.299-1.363-3.271-1.281-5.919,0.248l-2.819,1.628v26.768l2.157-1.246
		c2.941-1.698,5.099-4.082,6.472-7.151C221.056,324.896,221.742,321.019,221.742,316.334z"/>
	<path style="fill:#FFFFFF;" d="M267.066,314.613l-9.683,5.59v-37.227l-8.751,5.053v-10.558l27.16-15.681v10.558l-8.727,5.038
		v37.227H267.066z"/>
	<path style="fill:#FFFFFF;" d="M314.449,263.3c0,8.04-1.478,15.005-4.436,20.896c-2.958,5.892-7.288,10.483-12.992,13.776
		c-5.621,3.246-9.931,3.631-12.93,1.158c-2.999-2.474-4.499-7.731-4.499-15.771c0-7.953,1.491-14.887,4.474-20.805
		c2.983-5.916,7.317-10.517,13.004-13.8c5.704-3.293,10.026-3.708,12.968-1.244C312.978,249.975,314.449,255.238,314.449,263.3z
		 M289.79,277.537c0,9.238,2.41,12.466,7.23,9.683c2.452-1.415,4.27-3.587,5.454-6.515c1.186-2.928,1.778-6.768,1.778-11.518
		c0-4.772-0.601-7.95-1.803-9.533c-1.201-1.584-2.994-1.687-5.381-0.31C292.216,262.147,289.79,268.211,289.79,277.537z"/>
	<path style="fill:#FFFFFF;" d="M349.919,228.897c-2.304,1.33-4.102,3.627-5.392,6.889c-1.292,3.262-1.938,7.104-1.938,11.527
		c0,9.196,2.623,12.279,7.869,9.25c1.585-0.915,3.121-2.096,4.608-3.544c1.486-1.446,2.982-3.018,4.485-4.714v10.916
		c-2.99,3.492-6.373,6.327-10.147,8.506c-5.409,3.123-9.557,3.426-12.44,0.907c-2.885-2.518-4.327-7.731-4.327-15.642
		c0-4.945,0.698-9.696,2.097-14.25c1.397-4.555,3.406-8.597,6.03-12.127c2.622-3.529,5.707-6.318,9.253-8.366
		c3.873-2.236,7.575-3.251,11.104-3.044l-2.966,11.876c-1.324-0.063-2.648,0.004-3.971,0.201
		C352.861,227.482,351.44,228.02,349.919,228.897z"/>
	<path style="fill:#FFFFFF;" d="M388.528,244.487l-1.765-7.936l-11.645,6.723l-1.813,10.003l-10.639,6.142l11.693-54.731
		l12.917-7.458l11.841,41.145L388.528,244.487z M384.753,227.122l-1.544-6.952c-0.359-1.536-0.797-3.539-1.312-6.008
		c-0.515-2.471-0.854-4.257-1.018-5.362c-0.147,1.196-0.438,3.194-0.869,5.993c-0.435,2.8-1.395,8.377-2.881,16.73L384.753,227.122z
		"/>
	<path style="fill:#FFFFFF;" d="M412.673,213.16v17.388l-9.682,5.59v-47.784l11.741-6.779c9.739-5.623,14.61-3.728,14.61,5.685
		c0,5.534-2.026,10.986-6.079,16.355l10.442,14.79l-10.982,6.34l-7.599-13.001L412.673,213.16z M412.673,203.453l1.814-1.047
		c3.383-1.953,5.074-4.924,5.074-8.911c0-3.29-1.658-3.978-4.977-2.063l-1.912,1.104L412.673,203.453L412.673,203.453z"/>
	<path style="fill:#FFFFFF;" d="M452.776,207.394l-9.683,5.59v-37.227l-8.751,5.053v-10.558l27.16-15.681v10.558l-8.727,5.038
		v37.227H452.776z"/>
	<path style="fill:#FFFFFF;" d="M129.763,456.932c-18.277,0-33.146-14.869-33.146-33.146v-73.354
		c0-31.381,16.883-60.623,44.06-76.314l298.297-172.221c5.075-2.93,10.783-4.479,16.505-4.479c18.277,0,33.146,14.869,33.146,33.146
		v73.354c0,31.382-16.883,60.624-44.06,76.314l-298.297,172.22C141.192,455.383,135.484,456.932,129.763,456.932z M455.478,103.78
		c-4.673,0-9.155,1.22-13.323,3.627L143.857,279.628c-25.215,14.558-40.878,41.689-40.878,70.804v73.354
		c0,14.768,12.015,26.783,26.783,26.783c4.673,0,9.155-1.22,13.323-3.627l298.296-172.221
		c25.215-14.558,40.879-41.688,40.879-70.804v-73.354C482.261,115.795,470.246,103.78,455.478,103.78z"/>
</g>
<g style="opacity:0.2;">
	<path style="fill:#FFFFFF;" d="M460.939,71.539l-74.844,43.211L223.411,425.589l230.852-133.283L512,181.989v-80.97
		C512,74.814,483.633,58.437,460.939,71.539z"/>
</g>
<g style="opacity:0.2;">
	<path style="fill:#FFFFFF;" d="M152.32,249.72L73.24,400.816v52.513c0,26.205,28.367,42.582,51.061,29.48l40.666-23.479
		l162.684-310.839L152.32,249.72z"/>
</g>
<path style="fill:#4F78E0;" d="M73.241,453.33v-32.464l0,0v-97.699c0-17.504-9.353-33.674-24.527-42.4l-14.951-8.599
	c-14.298-8.224-31.957,1.212-33.622,17.084v14.61C0.056,305.507,0,307.158,0,308.818v102.159c0,13.374,7.396,24.176,17.649,29.818
	l-0.005,0.038l44.225,25.514l26.525,15.303C79.456,475.706,73.241,465.595,73.241,453.33z"/>
<g>
</g>
<g>
</g>
<g>
</g>
<g>
</g>
<g>
</g>
<g>
</g>
<g>
</g>
<g>
</g>
<g>
</g>
<g>
</g>
<g>
</g>
<g>
</g>
<g>
</g>
<g>
</g>
<g>
</g>
</svg>
