<?xml version="1.0" encoding="iso-8859-1"?>
<!-- Generator: Adobe Illustrator 19.0.0, SVG Export Plug-In . SVG Version: 6.00 Build 0)  -->
<svg version="1.1" id="Capa_1" xmlns="http://www.w3.org/2000/svg" xmlns:xlink="http://www.w3.org/1999/xlink" x="0px" y="0px"
	 viewBox="0 0 512 512" style="enable-background:new 0 0 512 512;" xml:space="preserve">
<polygon style="fill:#D88A55;" points="457.794,0 36.09,243.471 36.09,501.535 54.217,512 475.91,268.535 475.91,10.439 "/>
<polygon style="fill:#FFD2A6;" points="54.217,512 54.217,253.904 475.91,10.439 475.91,268.535 "/>
<g>
	<path style="fill:#FCBC90;" d="M342.036,112.699c-1.474,0-2.669-1.195-2.669-2.669v-8.007c0-1.474,1.195-2.669,2.669-2.669
		s2.669,1.195,2.669,2.669v8.007C344.705,111.504,343.51,112.699,342.036,112.699z"/>
	<path style="fill:#FCBC90;" d="M342.036,309.747c-1.474,0-2.669-1.195-2.669-2.669v-16.421c0-3.451,5.338-3.451,5.338,0v16.421
		C344.705,308.552,343.51,309.747,342.036,309.747z M342.036,276.906c-1.474,0-2.669-1.195-2.669-2.669v-16.421
		c0-3.451,5.338-3.451,5.338,0v16.421C344.705,275.711,343.51,276.906,342.036,276.906z M342.036,244.064
		c-1.474,0-2.669-1.195-2.669-2.669v-16.421c0-3.451,5.338-3.451,5.338,0v16.421C344.705,242.87,343.51,244.064,342.036,244.064z
		 M342.036,211.223c-1.474,0-2.669-1.195-2.669-2.669v-16.42c0-3.451,5.338-3.451,5.338,0v16.42
		C344.705,210.028,343.51,211.223,342.036,211.223z M342.036,178.382c-1.474,0-2.669-1.195-2.669-2.669v-16.421
		c0-3.451,5.338-3.451,5.338,0v16.421C344.705,177.187,343.51,178.382,342.036,178.382z M342.036,145.541
		c-1.474,0-2.669-1.195-2.669-2.669v-16.421c0-3.451,5.338-3.451,5.338,0v16.421C344.705,144.346,343.51,145.541,342.036,145.541z"
		/>
	<path style="fill:#FCBC90;" d="M342.036,334.175c-1.474,0-2.669-1.195-2.669-2.669v-8.007c0-1.474,1.195-2.669,2.669-2.669
		s2.669,1.195,2.669,2.669v8.007C344.705,332.98,343.51,334.175,342.036,334.175z"/>
</g>
<g>
	<path style="fill:#284363;" d="M125.717,327.4c0,17.165-4.762,36.876-19.84,47.062c-17.836,12.049-23.946-6.949-23.981-21.762
		c-0.039-16.522,4.355-35.436,18.39-45.747C118.123,293.85,125.717,311.33,125.717,327.4z M99.389,342.911
		c0,3.159-1.003,15.316,4.416,14.265c5.122-0.993,4.364-16.066,4.36-19.332c-0.004-3.211,1.038-15.253-4.36-14.299
		C98.701,324.448,99.389,339.657,99.389,342.911z M168.085,269.154l-47.134,140.502l-17.261,9.966l47.134-140.503L168.085,269.154z
		 M190.344,335.188c0,17.125-4.821,36.83-19.852,46.991c-17.784,12.023-23.932-6.902-23.969-21.691
		c-0.041-16.521,4.357-35.438,18.391-45.747C182.75,301.638,190.344,319.117,190.344,335.188z M164.016,350.698
		c0,1.64-0.406,17.05,4.417,14.265c5.215-3.011,4.421-14.332,4.417-19.365c-0.002-1.901,0.359-17.022-4.417-14.265
		C163.186,334.363,164.016,345.732,164.016,350.698z"/>
	<polygon style="fill:#284363;" points="207.596,220.838 207.596,241.145 319.294,176.867 319.294,156.596 	"/>
</g>
<g>
	<polygon style="fill:#FCBC90;" points="207.596,268.059 207.596,288.366 239.17,270.161 239.17,249.889 	"/>
	<polygon style="fill:#FCBC90;" points="248.365,244.372 248.365,264.679 279.939,246.474 279.939,226.202 	"/>
	<polygon style="fill:#FCBC90;" points="287.732,221.368 287.732,241.675 319.306,223.469 319.306,203.197 	"/>
</g>
<polygon style="fill:#2E527C;" points="366.955,223.911 366.955,244.217 436.116,204.224 436.116,183.952 "/>
<polygon style="fill:#284363;" points="366.955,175.87 366.955,196.176 461.204,141.726 461.204,121.454 "/>
<g>
	<polygon style="fill:#2E527C;" points="366.955,271.608 366.955,291.915 436.116,251.921 436.116,231.65 	"/>
	<polygon style="fill:#2E527C;" points="222.751,357.094 222.751,371.891 304.139,324.974 304.139,310.203 	"/>
	<polygon style="fill:#2E527C;" points="222.751,323.287 222.751,338.084 304.139,291.168 304.139,276.397 	"/>
</g>
<polygon style="fill:#FCBC90;" points="475.91,10.439 457.794,0 36.09,243.471 54.217,253.904 "/>
<g>
</g>
<g>
</g>
<g>
</g>
<g>
</g>
<g>
</g>
<g>
</g>
<g>
</g>
<g>
</g>
<g>
</g>
<g>
</g>
<g>
</g>
<g>
</g>
<g>
</g>
<g>
</g>
<g>
</g>
</svg>
