<?xml version="1.0" encoding="iso-8859-1"?>
<!-- Generator: Adobe Illustrator 19.0.0, SVG Export Plug-In . SVG Version: 6.00 Build 0)  -->
<svg version="1.1" id="Capa_1" xmlns="http://www.w3.org/2000/svg" xmlns:xlink="http://www.w3.org/1999/xlink" x="0px" y="0px"
	 viewBox="0 0 511.999 511.999" style="enable-background:new 0 0 511.999 511.999;" xml:space="preserve">
<polygon style="fill:#D1D1D1;" points="125.619,104.673 111.524,112.982 125.833,104.708 "/>
<path style="fill:#C8CED6;" d="M420.507,319.304l-66.574,38.437c-0.001-0.006-0.003-0.012-0.004-0.018l0,0
	c-1.452-5.492-2.262-11.052-2.262-16.38L351.581,59.61c0-22.68-14.527-49.559-31.852-57.518c-6.24-2.867-11.836-2.686-16.27-0.076
	l-0.009-0.014l-191.926,110.98c0,0-18.012,10.56-20.032,32.71c-1.686,18.49,0,46.878,0,46.878l65.823-38.003
	c1.406,5.398,2.198,10.856,2.198,16.091l0.084,281.732c0,22.68,14.527,49.559,31.852,57.518c6.232,2.863,11.823,2.685,16.254,0.084
	c0,0,0,0.001-0.001,0.001c0.006-0.003,0.012-0.006,0.017-0.009l0.009,0.014l192.747-111.106c0,0,18.012-10.56,20.032-32.711
	C422.194,347.692,420.507,319.304,420.507,319.304z"/>
<g>
	<path style="fill:#8392A5;" d="M127.662,113.141c-6.176-2.838-11.725-2.693-16.138-0.159c0,0-18.012,10.56-20.032,32.71
		c-1.686,18.49,0,46.878,0,46.878l65.833-38.009C152.648,136.575,140.986,119.261,127.662,113.141z"/>
	<polygon style="fill:#8392A5;" points="188.205,209.024 280.183,155.681 280.183,186.538 188.205,239.882 	"/>
	<polygon style="fill:#8392A5;" points="300.826,143.623 327.088,128.409 327.088,159.267 300.826,174.481 	"/>
	<polygon style="fill:#8392A5;" points="188.205,284.778 280.183,231.435 280.183,262.293 188.205,315.636 	"/>
	<polygon style="fill:#8392A5;" points="300.826,219.377 327.088,204.163 327.088,235.021 300.826,250.235 	"/>
	<polygon style="fill:#8392A5;" points="188.205,360.532 280.183,307.189 280.183,338.047 188.205,391.39 	"/>
	<polygon style="fill:#8392A5;" points="300.826,295.131 327.088,279.917 327.088,310.775 300.826,325.989 	"/>
</g>
<path style="fill:#E8EDEF;" d="M420.507,319.304L218.068,436.12l0,0v49.311c0,12.025-3.977,20.815-10.366,24.563
	c0.006-0.003,0.012-0.006,0.017-0.009l0.009,0.014l192.747-111.106c0,0,18.012-10.56,20.032-32.711
	C422.194,347.692,420.507,319.304,420.507,319.304z"/>
<g>
</g>
<g>
</g>
<g>
</g>
<g>
</g>
<g>
</g>
<g>
</g>
<g>
</g>
<g>
</g>
<g>
</g>
<g>
</g>
<g>
</g>
<g>
</g>
<g>
</g>
<g>
</g>
<g>
</g>
</svg>
