<?xml version="1.0" encoding="iso-8859-1"?>
<!-- Generator: Adobe Illustrator 19.0.0, SVG Export Plug-In . SVG Version: 6.00 Build 0)  -->
<svg version="1.1" id="Capa_1" xmlns="http://www.w3.org/2000/svg" xmlns:xlink="http://www.w3.org/1999/xlink" x="0px" y="0px"
	 viewBox="0 0 512 512" style="enable-background:new 0 0 512 512;" xml:space="preserve">
<path style="fill:#212938;" d="M468.565,87.341c-8.276-24.995-21.691-42.491-38.404-52.433h0.007l-0.117-0.068
	c-0.229-0.136-0.461-0.265-0.691-0.398L386.245,9.611c-0.015-0.009-0.03-0.017-0.044-0.026l-0.313-0.18l0.002,0.006
	c-37.07-21.51-90.099-6.215-139.377,46.588c-63.208,67.729-99.19,174.603-88.86,254.132L46.655,429.067
	c-11.05,11.84-14.756,28.768-9.666,44.142c1.792,5.412,5.521,9.355,10.024,11.58L85.35,506.1l0,0
	c7.551,7.626,20.641,8.251,28.751-0.439l92.314-98.917l6.477-6.939l33.489,18.823l-0.002-0.008
	c37.108,22.27,90.585,7.156,140.255-46.066C458.53,295.513,495.212,167.82,468.565,87.341z"/>
<g>
	<path style="fill:#284363;" d="M114.101,505.66l138.932-148.869l-18.82-56.839L90.279,454.181
		c-11.051,11.841-14.758,28.77-9.667,44.146l0,0C85.369,512.694,103.775,516.725,114.101,505.66z"/>
	<path style="fill:#284363;" d="M290.134,81.115c-71.898,77.04-108.58,204.733-81.933,285.212
		c26.647,80.478,106.534,83.266,178.431,6.227c71.897-77.04,108.58-204.733,81.933-285.212
		C441.918,6.863,362.032,4.075,290.134,81.115z"/>
</g>
<path style="fill:#99DBFF;" d="M343.101,315.72c48.033-51.468,100.417-171.687,44.592-234.967
	c-49.129-8.213-92.438,43.226-114.624,81.166c-29.604,50.624-59.325,142.886-14.399,193.811
	C283.597,359.897,314.232,346.654,343.101,315.72C395.436,259.642,314.232,346.654,343.101,315.72z"/>
<path style="fill:#C8CED6;" d="M220.078,392.059l-18.796-56.757c-0.002-0.018-0.005-0.036-0.008-0.055l-0.008,0.008l0,0l0,0
	l-26.579,28.48l18.82,56.839l26.587-28.488C220.088,392.077,220.083,392.068,220.078,392.059z"/>
<polygon style="fill:#9FACBC;" points="201.266,335.255 157.65,310.134 131.162,338.517 174.687,363.736 "/>
<g style="opacity:0.2;">
	<path style="fill:#FFFFFF;" d="M404.661,114.665l-126.065,240.87c20.413-3.49,42.951-16.719,64.505-39.815
		c0.12-0.129,0.236-0.266,0.356-0.395l59.111-112.941C410.162,171.059,411.361,140.104,404.661,114.665z"/>
</g>
<g style="opacity:0.2;">
	<path style="fill:#FFFFFF;" d="M387.705,80.767c-22.829-3.825-50.446,6.964-77.112,32.57l-69.363,132.53
		c-5.736,29.966-5.39,59.003,2.392,82.505c3.122,9.429,7.261,17.369,12.206,23.86l137.877-263.44
		C391.841,85.879,389.843,83.192,387.705,80.767z"/>
</g>
<path style="fill:#212938;" d="M433.144,125.296c-8.697-26.267-25.189-41.155-45.451-44.542c6.221,7.052,11.343,16.17,15.048,27.358
	c19.397,58.581-7.305,151.531-59.64,207.609c-28.869,30.934-59.504,44.177-84.431,40.01c26.353,29.871,72.495,22.542,114.834-22.826
	C425.839,276.826,452.541,183.877,433.144,125.296z"/>
<g>
</g>
<g>
</g>
<g>
</g>
<g>
</g>
<g>
</g>
<g>
</g>
<g>
</g>
<g>
</g>
<g>
</g>
<g>
</g>
<g>
</g>
<g>
</g>
<g>
</g>
<g>
</g>
<g>
</g>
</svg>
