<?xml version="1.0" encoding="iso-8859-1"?>
<!-- Generator: Adobe Illustrator 19.0.0, SVG Export Plug-In . SVG Version: 6.00 Build 0)  -->
<svg version="1.1" id="Capa_1" xmlns="http://www.w3.org/2000/svg" xmlns:xlink="http://www.w3.org/1999/xlink" x="0px" y="0px"
	 viewBox="0 0 512 512" style="enable-background:new 0 0 512 512;" xml:space="preserve">
<path style="fill:#284363;" d="M335.546,274.88c11.816,20.466,13.099,51.426,2.866,69.15s-28.108,15.501-39.924-4.965
	s-13.1-51.426-2.866-69.15C305.855,252.19,323.729,254.413,335.546,274.88z"/>
<path style="fill:#C8CED6;" d="M320.974,291.291c5.774,10,6.401,25.129,1.401,33.789c-5,8.661-13.734,7.575-19.508-2.426
	s-6.401-25.129-1.401-33.789C306.466,280.204,315.2,281.29,320.974,291.291z"/>
<path style="fill:#9FACBC;" d="M318.57,295.454c4.241,7.345,4.702,18.457,1.029,24.818s-10.088,5.563-14.329-1.782
	s-4.702-18.457-1.029-24.818S314.329,288.109,318.57,295.454z"/>
<g>
	<path style="fill:#C8CED6;" d="M318.797,299.255c2.842,4.922,3.15,12.367,0.689,16.629s-6.759,3.728-9.601-1.194
		s-3.15-12.367-0.689-16.629C311.657,293.798,315.955,294.333,318.797,299.255z"/>
	<path style="fill:#C8CED6;" d="M138.763,87.583c-3.499,0-6.899-1.819-8.769-5.066c-2.785-4.839-1.12-11.018,3.718-13.801
		L250.736,1.352c4.237-2.448,9.61-1.494,12.761,2.234L310.8,59.567c3.606,4.264,3.069,10.64-1.194,14.242
		c-4.267,3.612-10.643,3.066-14.242-1.194l-41.857-49.536L143.795,86.231C142.206,87.146,140.472,87.58,138.763,87.583z"/>
	<path style="fill:#C8CED6;" d="M255.816,457.273c-1.714,0-3.431-0.438-4.974-1.31l-94.72-53.559
		c-3.171-1.793-5.132-5.155-5.132-8.797V148.065c0-3.612,1.928-6.948,5.053-8.751L298.028,57.34
		c6.536-3.784,15.16,1.151,15.16,8.751v238.593l90.025,51.895c6.551,3.771,6.595,13.724-0.01,17.516l-142.351,81.833
		C259.293,456.825,257.556,457.273,255.816,457.273z M171.203,387.711l84.57,47.822l122.134-70.213l-79.872-46.042
		c-3.132-1.803-5.06-5.142-5.06-8.754V83.596l-121.772,70.305V387.711z"/>
</g>
<path style="fill:#F43834;" d="M138.768,92.637c-15.082,0-20.675-20.761-7.578-28.303l93.711-53.941
	c16.908-9.735,32.061,16.527,15.127,26.28l-93.713,53.941C143.933,91.985,141.332,92.637,138.768,92.637z"/>
<g>
	
		<rect x="221.996" y="269.81" transform="matrix(-0.505 -0.8631 0.8631 -0.505 45.4417 730.1885)" style="fill:#C8CED6;" width="20.21" height="164.507"/>
	<polygon style="fill:#C8CED6;" points="213.475,428.41 203.329,410.928 344.84,328.776 354.986,346.258 	"/>
	
		<rect x="222.238" y="214.867" transform="matrix(-0.4955 -0.8686 0.8686 -0.4955 89.596 645.8011)" style="fill:#C8CED6;" width="20.21" height="164.029"/>
	
		<rect x="222.391" y="159.983" transform="matrix(-0.4997 -0.8662 0.8662 -0.4997 138.9946 564.4174)" style="fill:#C8CED6;" width="20.21" height="164.17"/>
	
		<rect x="222.386" y="105.366" transform="matrix(-0.5001 -0.866 0.866 -0.5001 186.409 482.5574)" style="fill:#C8CED6;" width="20.211" height="164.215"/>
	<path style="fill:#C8CED6;" d="M255.816,512c-5.583,0-10.107-4.523-10.107-10.107v-54.727c0-5.583,4.524-10.107,10.107-10.107
		c5.583,0,10.106,4.523,10.106,10.107v54.727C265.922,507.477,261.399,512,255.816,512z"/>
	<path style="fill:#C8CED6;" d="M398.166,430.236c-5.583,0-10.107-4.523-10.107-10.107v-54.796c0-5.583,4.524-10.107,10.107-10.107
		s10.107,4.524,10.107,10.107v54.796C408.273,425.713,403.749,430.236,398.166,430.236z"/>
	<path style="fill:#C8CED6;" d="M161.103,158.171c-2.882,0-5.744-1.227-7.744-3.606l-47.263-56.247
		c-1.925-2.29-2.735-5.313-2.214-8.258c0.52-2.948,2.318-5.511,4.91-7.001l17.267-9.939c4.841-2.783,11.02-1.122,13.801,3.718
		c2.783,4.836,1.12,11.015-3.717,13.798l-6.807,3.918l39.499,47.009c3.589,4.274,3.037,10.646-1.237,14.239
		C165.705,157.395,163.396,158.171,161.103,158.171z"/>
</g>
<path style="fill:#284363;" d="M169.419,370.63c11.816,20.466,13.099,51.426,2.866,69.15s-28.108,15.501-39.924-4.965
	c-11.816-20.466-13.1-51.426-2.866-69.15C139.728,347.941,157.603,350.164,169.419,370.63z"/>
<path style="fill:#C8CED6;" d="M154.847,387.042c5.774,10,6.401,25.128,1.401,33.789s-13.734,7.575-19.508-2.426
	s-6.401-25.129-1.401-33.789C140.339,375.955,149.073,377.041,154.847,387.042z"/>
<path style="fill:#9FACBC;" d="M152.443,391.205c4.241,7.345,4.702,18.457,1.029,24.818c-3.673,6.361-10.088,5.563-14.329-1.782
	c-4.241-7.346-4.702-18.457-1.029-24.818C141.787,383.062,148.203,383.859,152.443,391.205z"/>
<path style="fill:#C8CED6;" d="M152.67,395.005c2.842,4.922,3.15,12.367,0.689,16.629s-6.759,3.728-9.601-1.194
	s-3.15-12.367-0.689-16.629S149.828,390.084,152.67,395.005z"/>
<g>
</g>
<g>
</g>
<g>
</g>
<g>
</g>
<g>
</g>
<g>
</g>
<g>
</g>
<g>
</g>
<g>
</g>
<g>
</g>
<g>
</g>
<g>
</g>
<g>
</g>
<g>
</g>
<g>
</g>
</svg>
