<?xml version="1.0" encoding="iso-8859-1"?>
<!-- Generator: Adobe Illustrator 19.0.0, SVG Export Plug-In . SVG Version: 6.00 Build 0)  -->
<svg version="1.1" id="Capa_1" xmlns="http://www.w3.org/2000/svg" xmlns:xlink="http://www.w3.org/1999/xlink" x="0px" y="0px"
	 viewBox="0 0 512 512" style="enable-background:new 0 0 512 512;" xml:space="preserve">
<path style="fill:#D88A55;" d="M370.905,9.992L370.905,9.992l-0.006-0.004c-0.004-0.003-0.009-0.005-0.013-0.008l-14.687-8.47
	l-0.002,0.004c-3.117-1.854-7.157-2.15-10.747-0.077L147.48,115.735c-7.232,4.175-11.688,11.892-11.688,20.244v356.829
	c0,4.292,2.446,7.723,5.787,9.441l-0.003,0.008l14.109,8.148c0.16,0.098,0.322,0.191,0.488,0.281l0.251,0.145l0.007-0.016
	c3.021,1.538,6.764,1.683,10.119-0.254l197.97-114.299c7.232-4.176,11.688-11.892,11.688-20.244V19.189
	C376.208,15.103,373.999,11.783,370.905,9.992z"/>
<path style="fill:#FCBF90;" d="M166.55,510.56l197.97-114.298c7.232-4.176,11.688-11.893,11.688-20.244V19.189
	c0-8.183-8.858-13.297-15.944-9.205l-197.97,114.298c-7.232,4.176-11.688,11.893-11.688,20.244v356.829
	C150.606,509.537,159.464,514.651,166.55,510.56z"/>
<polygon style="fill:#8392A5;" points="295.111,18.088 186.192,80.976 186.192,93.385 191.564,90.305 206.335,98.792 
	206.335,139.845 211.735,142.962 320.479,80.16 320.479,32.844 "/>
<polygon style="fill:#C8CED6;" points="211.736,95.736 211.736,142.963 320.479,80.16 320.479,32.844 "/>
<polygon style="fill:#9FACBC;" points="320.479,32.844 295.111,18.088 186.192,80.975 211.736,95.736 "/>
<polygon style="fill:#FFFFFF;" points="171.613,178.199 355.617,72.271 355.617,359.381 171.613,465.616 "/>
<path style="fill:#C8CED6;" d="M227.03,107.454L227.03,107.454c1.546-0.891,3.476,0.225,3.476,2.009v47.235
	c0,3.165,3.422,5.145,6.166,3.569l60.134-34.545c3.117-1.791,5.039-5.111,5.039-8.706V67.475c0-1.991,1.062-3.832,2.787-4.827
	l0.002-0.001c1.546-0.892,3.478,0.223,3.478,2.008v53.774c0,4.955-2.643,9.533-6.934,12.011l-62.205,35.914
	c-6.548,3.781-14.734-0.945-14.734-8.506v-45.563C224.24,110.291,225.304,108.449,227.03,107.454z"/>
<g>
	<polygon style="fill:#8392A5;" points="187.855,215.701 339.375,127.519 339.375,154.185 187.855,242.367 	"/>
	<polygon style="fill:#8392A5;" points="187.855,276.905 339.375,188.724 339.375,215.39 187.855,303.572 	"/>
	<polygon style="fill:#8392A5;" points="187.855,338.11 339.375,249.928 339.375,276.595 187.855,364.776 	"/>
	<polygon style="fill:#8392A5;" points="187.855,399.315 339.375,311.133 339.375,337.8 187.855,425.981 	"/>
</g>
<g>
</g>
<g>
</g>
<g>
</g>
<g>
</g>
<g>
</g>
<g>
</g>
<g>
</g>
<g>
</g>
<g>
</g>
<g>
</g>
<g>
</g>
<g>
</g>
<g>
</g>
<g>
</g>
<g>
</g>
</svg>
