<?xml version="1.0" encoding="iso-8859-1"?>
<!-- Generator: Adobe Illustrator 19.0.0, SVG Export Plug-In . SVG Version: 6.00 Build 0)  -->
<svg version="1.1" id="Capa_1" xmlns="http://www.w3.org/2000/svg" xmlns:xlink="http://www.w3.org/1999/xlink" x="0px" y="0px"
	 viewBox="0 0 512 512" style="enable-background:new 0 0 512 512;" xml:space="preserve">
<path style="fill:#FF812C;" d="M400.76,341.767l-30.274-17.449l0,0l0,0l-77.259,0.028l-14.003,51.231l14.638,8.436
	c-30.143,33.326-78.178,69.673-126.134,56.474c-2.087-2.015-4.099-4.176-6.03-6.488l0,0l-30.274-17.449l0,0l-28.193,44.509l0,0l0,0
	c8.843,10.594,19.034,18.689,30.296,24.249l-0.022,0.002l23.479,13.703l-0.005-0.022c55.871,34.161,123.07-5.361,164.139-44.788
	l14.3,8.242l0,0l32.359-0.013L400.76,341.767z M314.127,411.942c0.025-0.03,0.051-0.059,0.076-0.088l-0.005,0.017
	C314.175,411.895,314.151,411.919,314.127,411.942C314.152,411.913,314.151,411.919,314.127,411.942z"/>
<polygon style="fill:#FFD800;" points="400.76,341.767 370.486,324.319 293.227,324.346 323.501,341.795 "/>
<path style="fill:#FF9F2C;" d="M241.549,505.215c35.439-11.799,71.098-38.4,102.928-75.911l-9.059,33.143l32.359-0.012
	l32.982-120.666l-77.259,0.028l-14.003,51.231l21.977-0.008c-25.763,30.836-54.759,52.693-83.569,62.285
	c-34.527,11.496-65.143,3.93-86.207-21.304l-28.193,44.509C159.908,510.138,198.278,519.622,241.549,505.215z"/>
<path style="fill:#FFD800;" d="M247.906,455.303c22.502-7.492,45.117-22.466,66.217-43.356c0.027-0.031,0.054-0.061,0.08-0.093
	l-0.005,0.017c5.889-5.835,11.66-12.131,17.276-18.853l0,0l-21.976,0.008l0,0l-15.636-9.012
	c-30.156,33.34-78.172,69.675-126.134,56.474C188.409,460.456,216.543,465.745,247.906,455.303
	C270.408,447.81,216.543,465.745,247.906,455.303z"/>
<path style="fill:#007A6E;" d="M325.948,232.07c-1.732-1.398-3.738-2.573-6-3.542l-19.05-11.245
	c-0.158-0.094-0.315-0.189-0.476-0.281l-0.147-0.087h-0.015c-12.807-7.179-28.426-4.117-42.228-3.01
	c5.245-23.069,43.275-30.02,62.6-29.591l14.377-54.211l-22.35-12.919c-8.806,0.026-17.601,1.262-26.098,3.56v-0.204l-22.35-12.919
	l-25.009,14.439v22.069c-29.741,21.287-51.227,52.119-51.227,89.663l0,0l0,0c0,13.877,1.473,30.594,14.938,38.27l-0.001,0.003
	l21.851,12.627v-0.001c12.657,7.578,28.325,4.165,42.167,3.468c-1.663,8.637-8.666,14.622-15.734,19.202
	c-18.05,11.698-41.705,16.395-62.979,14.246l0,0v53.482l22.35,12.919c9.335,0.007,18.88-1.48,28.635-4.446v8.002l22.35,12.919
	l25.01-14.439v-31.09c20.594-15.252,37.02-35.821,45.064-60.336C337.647,280.265,343.564,246.295,325.948,232.07
	C324.216,230.672,333.276,237.988,325.948,232.07z"/>
<path style="fill:#009F5E;" d="M261.552,374.361c-17.639,9.112-34.635,13.661-50.985,13.649v-53.482
	c19.878,2.008,41.933-1.979,59.322-12.019c8.672-5.007,18.322-12.013,19.623-22.75c1.471-12.141-9.244-11.934-18.46-11.756
	c-19.261,0.372-45.96,7.2-56.437-14.69c-8.691-18.159-4.725-44.458,2.244-62.426c8.637-22.268,25.512-40.108,44.693-53.837v-22.069
	l25.01-14.439v21.747c16.027-8.07,32.177-12.134,48.448-12.184l-14.377,54.211c-16.836-0.373-32.017,3.343-45.549,11.155
	c-7.602,4.389-24.025,17.143-16.257,28.055c5.184,7.282,23.792,3.209,30.876,2.328c13.152-1.383,30.337-1.66,39.605,9.596
	c8.864,10.766,8.426,27.949,7.045,40.973c-3.566,33.622-22.983,62.679-49.79,82.533v31.09l-25.01,14.439v-30.124H261.552z"/>
<path style="fill:#00C169;" d="M335.009,130.104L335.009,130.104L335.009,130.104z"/>
<path style="fill:#00D16D;" d="M286.561,142.288c16.027-8.071,32.177-12.134,48.448-12.185l-22.35-12.919
	c-8.734,0.027-17.434,1.219-26.098,3.56V142.288z"/>
<g>
	<path style="fill:#00C169;" d="M189.004,219.151c-0.016,0.114-0.027,0.229-0.043,0.343c0.016-0.113,0.033-0.226,0.049-0.339
		L189.004,219.151z"/>
	<path style="fill:#00C169;" d="M188.962,219.494c-0.146,1.052-0.281,2.107-0.394,3.17
		C188.682,221.601,188.816,220.546,188.962,219.494z"/>
	<polygon style="fill:#00C169;" points="263.375,296.508 263.375,296.508 263.376,296.508 	"/>
</g>
<g>
	<path style="fill:#00D16D;" d="M241.012,332.817c15.626-2.967,35.17-9.739,44.728-23.393l-22.356-12.907
		c0,0-0.007-0.007-0.009-0.009c-18.897,20.979-51.219,27.519-75.159,25.101l22.35,12.919
		C219.91,335.472,230.058,334.901,241.012,332.817C251.966,330.737,230.058,334.901,241.012,332.817z"/>
	<polygon style="fill:#00D16D;" points="261.552,134.98 239.202,122.061 264.211,107.622 286.561,120.541 	"/>
</g>
<path style="fill:#FF812C;" d="M408.768,46.838c-6.327-6.8-13.614-12.738-21.666-17.381c-0.005-0.003-0.01-0.007-0.016-0.01
	c0.003,0.002,0.005,0.003,0.008,0.005c0.001,0.001,0.003,0.002,0.004,0.002l0.023-0.003l-30.602-17.648l-0.003,0.011
	C297.808-21.764,228.982,22.708,188.02,64.389l-13.99-8.068l-32.829,1.801L110.9,178.714l30.317,17.485l78.379-4.297l12.865-51.199
	l0,0l0,0l0,0l-14.365-8.285c30.198-34.773,80.047-74.46,129.847-60.806h-0.001c1.041,1.003,2.069,2.031,3.072,3.109l30.317,17.485
	c-0.013-0.013-0.013-0.013,0,0l0,0l0,0L408.768,46.838z"/>
<path style="fill:#FF9F2C;" d="M298.459,26.523c-35.644,13.573-71.124,41.726-102.434,80.406l8.323-33.123l-32.829,1.801
	l-30.302,120.592l78.379-4.297l12.865-51.199l-22.295,1.223c25.329-31.775,54.173-54.89,83.151-65.924
	c34.727-13.224,65.985-7.468,88.015,16.205l27.437-45.368C381.155,17.165,341.98,9.951,298.459,26.523z"/>
<polygon style="fill:#FFD800;" points="204.348,73.807 174.031,56.322 141.202,58.122 171.519,75.607 "/>
<g>
</g>
<g>
</g>
<g>
</g>
<g>
</g>
<g>
</g>
<g>
</g>
<g>
</g>
<g>
</g>
<g>
</g>
<g>
</g>
<g>
</g>
<g>
</g>
<g>
</g>
<g>
</g>
<g>
</g>
</svg>
