<?xml version="1.0" encoding="iso-8859-1"?>
<!-- Generator: Adobe Illustrator 19.0.0, SVG Export Plug-In . SVG Version: 6.00 Build 0)  -->
<svg version="1.1" id="Capa_1" xmlns="http://www.w3.org/2000/svg" xmlns:xlink="http://www.w3.org/1999/xlink" x="0px" y="0px"
	 viewBox="0 0 512 512" style="enable-background:new 0 0 512 512;" xml:space="preserve">
<path style="fill:#FFD800;" d="M512,233.278c0-22.366-12.648-40.34-30.011-49.385l0.013-0.013l-29.532-17.332l-0.015,0.015
	c-16.686-11.633-39.519-14.245-59.658-2.665l-158.618,91.204c-39.291,22.592-63.512,64.459-63.512,109.782v0.374
	c0,22.485,12.778,40.53,30.279,49.527l-0.007,0.007l34.076,20.272l0.053-0.054c16.124,8.975,36.625,10.123,54.889-0.422
	l102.909-59.415l71.996-7.115l-12.223-27.498C489.48,317.463,512,276.976,512,233.278z"/>
<path style="fill:#FF9F2C;" d="M428.572,185.012l-158.618,91.204c-39.291,22.592-63.512,64.459-63.512,109.782v0.374
	c0,42.859,46.396,69.646,83.513,48.216l102.909-59.415l71.996-7.115l-12.223-27.498C489.48,317.463,512,276.976,512,233.278l0,0
	C512,190.463,465.689,163.67,428.572,185.012z"/>
<g>
	<path style="fill:#FF812C;" d="M289.409,360.1c0,10.151-6.172,21.943-13.785,26.339s-13.785-0.27-13.785-10.421
		s6.172-21.943,13.785-26.339S289.409,349.949,289.409,360.1z"/>
	<path style="fill:#FF812C;" d="M349.424,325.45c0,10.151-6.172,21.943-13.785,26.339c-7.613,4.395-13.785-0.27-13.785-10.421
		s6.172-21.943,13.785-26.339C343.252,310.633,349.424,315.299,349.424,325.45z"/>
	<path style="fill:#FF812C;" d="M409.439,290.8c0,10.151-6.172,21.943-13.785,26.339s-13.785-0.27-13.785-10.421
		s6.172-21.943,13.785-26.339C403.267,275.984,409.439,280.649,409.439,290.8z"/>
	<path style="fill:#FF812C;" d="M469.454,256.151c0,10.151-6.172,21.943-13.785,26.339s-13.785-0.27-13.785-10.421
		s6.172-21.943,13.785-26.338C463.282,241.334,469.454,246,469.454,256.151z"/>
</g>
<path style="fill:#00D16D;" d="M311.322,97.348l0.013-0.013l-29.532-17.332l-0.015,0.015c-16.687-11.633-39.519-14.245-59.658-2.665
	L63.512,168.557C24.221,191.149,0,233.016,0,278.339v0.375c0,22.485,12.778,40.53,30.279,49.527l-0.007,0.007l34.076,20.272
	l0.052-0.053c8.816,4.906,18.935,7.472,29.29,7.063l-0.879,3.785l35.776,21.113l10.114-43.546l-0.038-0.022l1.346-0.777l-1.309,0.8
	l-10.114,43.546l66.438-76.11l82.991-47.915c39.181-22.621,63.318-64.427,63.318-109.669v-0.001
	C341.333,124.366,328.685,106.392,311.322,97.348z"/>
<polygon style="fill:#007A6E;" points="128.587,380.427 92.811,359.314 102.925,315.767 138.7,336.881 "/>
<path style="fill:#009F5E;" d="M257.905,98.467L99.288,189.671c-39.291,22.592-63.512,64.459-63.512,109.782v0.375
	c0,42.859,46.396,69.646,83.514,48.216l20.72-11.962l-1.309,0.8l-10.114,43.546l66.438-76.11l82.991-47.915
	c39.181-22.621,63.318-64.427,63.318-109.669v-0.001C341.333,103.918,295.022,77.125,257.905,98.467z"/>
<g>
	<path style="fill:#007A6E;" d="M118.742,273.555c0,10.151-6.172,21.943-13.785,26.339c-7.613,4.395-13.785-0.27-13.785-10.421
		s6.172-21.943,13.785-26.339C112.57,258.738,118.742,263.404,118.742,273.555z"/>
	<path style="fill:#007A6E;" d="M178.757,238.905c0,10.151-6.172,21.943-13.785,26.339c-7.613,4.395-13.785-0.27-13.785-10.421
		c0-10.151,6.172-21.943,13.785-26.339C172.585,224.088,178.757,228.754,178.757,238.905z"/>
	<path style="fill:#007A6E;" d="M238.772,204.255c0,10.151-6.172,21.943-13.785,26.339c-7.613,4.395-13.785-0.27-13.785-10.421
		s6.172-21.943,13.785-26.339C232.6,189.439,238.772,194.104,238.772,204.255z"/>
	<path style="fill:#007A6E;" d="M298.787,169.606c0,10.151-6.172,21.943-13.785,26.339s-13.785-0.27-13.785-10.421
		s6.172-21.943,13.785-26.339S298.787,159.455,298.787,169.606z"/>
</g>
<g>
</g>
<g>
</g>
<g>
</g>
<g>
</g>
<g>
</g>
<g>
</g>
<g>
</g>
<g>
</g>
<g>
</g>
<g>
</g>
<g>
</g>
<g>
</g>
<g>
</g>
<g>
</g>
<g>
</g>
</svg>
