<?xml version="1.0" encoding="iso-8859-1"?>
<!-- Generator: Adobe Illustrator 19.0.0, SVG Export Plug-In . SVG Version: 6.00 Build 0)  -->
<svg version="1.1" id="Capa_1" xmlns="http://www.w3.org/2000/svg" xmlns:xlink="http://www.w3.org/1999/xlink" x="0px" y="0px"
	 viewBox="0 0 512 512" style="enable-background:new 0 0 512 512;" xml:space="preserve">
<path style="fill:#284363;" d="M257.442,235.147c11.918,20.643,13.213,51.869,2.891,69.747
	c-10.321,17.877-28.35,15.635-40.268-5.008s-13.212-51.869-2.891-69.746C227.495,212.263,245.524,214.505,257.442,235.147z"/>
<path style="fill:#C8CED6;" d="M242.744,251.7c5.824,10.087,6.456,25.345,1.413,34.081c-5.043,8.736-13.853,7.64-19.676-2.447
	c-5.824-10.087-6.456-25.345-1.413-34.081C228.111,240.518,236.921,241.613,242.744,251.7z"/>
<path style="fill:#2E527C;" d="M240.302,255.93c4.266,7.389,4.729,18.567,1.035,24.966c-3.695,6.399-10.148,5.597-14.414-1.793
	c-4.266-7.389-4.729-18.567-1.035-24.966C229.582,247.738,236.036,248.541,240.302,255.93z"/>
<path style="fill:#C8CED6;" d="M238.528,259.003c3.135,5.43,3.475,13.643,0.76,18.346c-2.715,4.702-7.457,4.113-10.592-1.317
	s-3.475-13.643-0.76-18.345C230.651,252.983,235.393,253.573,238.528,259.003z"/>
<path style="fill:#284363;" d="M443.821,342.988c11.918,20.643,13.212,51.869,2.891,69.746s-28.35,15.635-40.268-5.007
	c-11.918-20.643-13.213-51.87-2.891-69.747C413.875,320.103,431.903,322.345,443.821,342.988z"/>
<path style="fill:#C8CED6;" d="M429.124,359.54c5.824,10.087,6.456,25.345,1.413,34.081s-13.853,7.64-19.676-2.447
	c-5.824-10.087-6.456-25.345-1.413-34.081C414.491,348.358,423.3,349.453,429.124,359.54z"/>
<path style="fill:#2E527C;" d="M426.682,363.77c4.266,7.389,4.729,18.567,1.035,24.966c-3.695,6.399-10.148,5.597-14.414-1.792
	s-4.729-18.567-1.035-24.966C415.962,355.579,422.415,356.381,426.682,363.77z"/>
<g>
	<path style="fill:#C8CED6;" d="M426.644,366.843c3.135,5.43,3.475,13.643,0.76,18.345s-7.457,4.113-10.592-1.317
		s-3.475-13.643-0.76-18.346C418.767,360.823,423.509,361.413,426.644,366.843z"/>
	<path style="fill:#C8CED6;" d="M182.632,300.295l37.575,21.693l-88.202,50.924l5.097,8.827l48.175-27.814l0,0l45.123-26.052
		l37.46,21.626l-87.684,50.706l5.104,8.827l47.678-27.571l0.042,0.073l45.185-26.073l37.619,21.719l-88.133,50.711l5.084,8.833
		l141.001-81.13l44.942,25.941l5.097-8.827l-47.322-27.315l0.172-0.3l-40.336-23.171l37.398-21.579l45.088,26.032l5.097-8.826
		l-45.175-26.083V248.13l40.078,23.139l5.097-8.827l-45.175-26.082v-43.337l40.078,23.139l5.097-8.826l-45.175-26.082V170.42
		h-10.196v4.948l-37.53-21.668v-24.609h-10.194v18.724l-37.526-21.666v-38.39h-10.194v32.501l-29.962-17.299l-7.611-57.209
		L225.397,47.1l7.492,56.311l-34.738,20.059l-10.433-50.226l-9.981,2.071l11.118,53.523l-40.506,23.39l-8.772-51.618l-10.048,1.705
		l9.406,55.348l-46.249,26.706l5.097,8.827l42.974-24.814l8.094,47.629l-48.765,28.054l5.084,8.833l45.502-26.176l8.161,48.024
		l-50.239,29.02l5.097,8.827l45.111-26.058l13.606,7.855l-87.679,50.705l5.104,8.827l47.695-27.583l0.031,0.054L182.632,300.295z
		 M168.991,280.651l71.238-41.15l-13.744,23.617l-43.894,25.384L168.991,280.651z M160.088,221.306l42.853-24.652l9.758,46.978
		l-44.453,25.678L160.088,221.306z M200.759,186.15l-42.492,24.445l-8.098-47.648l40.867-23.598L200.759,186.15z M240.83,163.098
		L210.059,180.8l-9.725-46.819l34.009-19.638L240.83,163.098z M248.772,222.794l-26.777,15.468l-9.754-46.958l30.042-17.282
		L248.772,222.794z M256.127,232.456l11.674,6.74l-23.525,13.623L256.127,232.456z M273.077,175.368l-22.02-12.713l-6.246-46.943
		l28.265,16.319v43.337H273.077z M273.077,230.471l-14.078-8.128l-6.245-46.938l20.324,11.733v43.333H273.077z M315.702,266.852
		l-37.534,21.671l-37.755-21.688l37.573-21.758L315.702,266.852z M320.797,202.919l-37.526-21.666v-43.337l37.526,21.666V202.919z
		 M320.797,258.023l-37.526-21.667v-43.334l37.526,21.666V258.023z M368.521,230.472l-37.53-21.668v-43.337l37.53,21.668V230.472z
		 M368.521,285.578l-37.53-21.669v-43.335l37.53,21.668V285.578z M326.088,316.049l-37.701-21.657l37.509-21.655l37.616,21.718
		L326.088,316.049z M288.379,349.576l37.483-21.629l37.691,21.756l-37.54,21.6L288.379,349.576z M240.591,321.987l37.468-21.632
		l37.425,21.602l-37.441,21.652L240.591,321.987z M192.809,294.401l37.407-21.662l37.65,21.732l-37.467,21.632L192.809,294.401z"/>
	<path style="fill:#C8CED6;" d="M82.359,130.757l23.5,176.382l-22.993,39.824c-0.677,1.172-0.859,2.562-0.511,3.869
		c0.352,1.304,1.204,2.419,2.376,3.093l190.893,110.213c0.79,0.455,1.669,0.684,2.548,0.684c0.88,0,1.759-0.229,2.549-0.684
		l143.071-82.605c2.439-1.407,3.271-4.523,1.865-6.962c-1.407-2.442-4.526-3.272-6.962-1.865l-140.522,81.132L94.242,347.646
		l18.766-32.503l162.618,93.887c0.79,0.455,1.669,0.684,2.548,0.684c0.88,0,1.759-0.229,2.549-0.684l143.167-82.658
		c1.576-0.909,2.549-2.591,2.549-4.413V211.746c0-1.494-0.662-2.887-1.766-3.844l0.008-0.009L234.433,43.132L211.002,2.551
		c-1.407-2.441-4.526-3.275-6.962-1.865L60.87,83.346c-1.171,0.674-2.024,1.789-2.376,3.093c-0.348,1.307-0.166,2.698,0.511,3.869
		L82.359,130.757z M412.592,210.913l-118.356,68.333c-0.003,0.002-0.005,0.002-0.008,0.004l-15.459,8.926L96.029,129.921
		l133.827-77.266L412.592,210.913z M379.202,297.006l37.042-21.335v43.345l-37.042,21.387V297.006z M379.202,241.96l37.042-21.387
		v43.333l-37.042,21.335V241.96z M330.991,324.775l38.018-21.897v43.411l-38.018,21.95V324.775z M330.991,269.796l38.018-21.95
		v43.267l-38.018,21.897V269.796z M283.271,352.261l37.526-21.614v43.478l-37.526,21.667V352.261z M283.271,297.348l37.526-21.667
		v43.2l-37.526,21.614V297.348z M235.547,330.939l37.53,21.71v43.14l-37.53-21.668L235.547,330.939L235.547,330.939z
		 M235.547,275.678l37.53,21.668v43.523l-37.53-21.71L235.547,275.678L235.547,275.678z M187.824,303.332l37.53,21.71v43.194
		l-37.53-21.668V303.332z M187.824,248.125l37.53,21.668v43.47l-37.53-21.71V248.125z M187.824,222.903l37.53,32.502v2.619
		l-37.53-21.668V222.903z M140.1,275.725l37.53,21.71v43.248l-37.53-21.668V275.725z M140.1,220.572l37.53,21.668v43.416
		l-37.53-21.71V220.572z M140.1,181.573l37.53,32.502v16.396l-37.53-21.668V181.573z M109.61,258.087l20.297,11.741v43.302
		l-14.043-8.108L109.61,258.087z M101.655,198.375l28.252,16.311v43.363l-21.997-12.725L101.655,198.375z M94.109,141.744
		l35.798,31.001v30.172l-29.951-17.292L94.109,141.744z M89.146,122.126L70.381,89.624l134.344-77.561l18.765,32.499L89.146,122.126
		z"/>
</g>
<g>
	<path style="fill:#F43834;" d="M76.446,90.44c1.729,0,3.481-0.441,5.087-1.37l119.126-68.778c4.875-2.814,6.547-9.049,3.73-13.923
		c-2.814-4.875-9.046-6.547-13.923-3.731L71.339,71.416c-4.875,2.814-6.547,9.049-3.73,13.924
		C69.498,88.608,72.922,90.44,76.446,90.44z"/>
	<path style="fill:#F43834;" d="M302.168,290.754c1.706,0,3.438-0.431,5.027-1.334l88.299-50.186
		c4.895-2.784,6.607-9.006,3.826-13.9s-9.006-6.607-13.9-3.826l-88.299,50.186c-4.895,2.784-6.607,9.006-3.826,13.9
		C295.173,288.899,298.621,290.754,302.168,290.754z"/>
</g>
<path style="fill:#D1D1D1;" d="M63.422,92.856c0.866,0,1.742-0.219,2.545-0.683l7.559-4.364c2.439-1.407,3.272-4.523,1.865-6.962
	c-1.404-2.439-4.529-3.272-6.962-1.865l-7.559,4.364c-2.439,1.407-3.272,4.523-1.865,6.962
	C59.948,91.943,61.663,92.856,63.422,92.856z"/>
<path style="fill:#284363;" d="M105.969,322.344c11.918,20.643,13.212,51.869,2.891,69.746s-28.35,15.635-40.268-5.008
	s-13.212-51.869-2.891-69.746C76.022,299.46,94.051,301.702,105.969,322.344z"/>
<path style="fill:#C8CED6;" d="M91.271,338.897c5.824,10.087,6.456,25.345,1.413,34.081c-5.044,8.735-13.853,7.64-19.677-2.447
	c-5.824-10.087-6.456-25.345-1.413-34.081C76.638,327.715,85.448,328.81,91.271,338.897z"/>
<path style="fill:#2E527C;" d="M88.829,343.127c4.266,7.389,4.729,18.567,1.035,24.966c-3.695,6.399-10.148,5.597-14.414-1.792
	c-4.266-7.389-4.73-18.567-1.035-24.966C78.11,334.935,84.563,335.738,88.829,343.127z"/>
<path style="fill:#C8CED6;" d="M88.823,346.2c3.135,5.43,3.475,13.643,0.76,18.346c-2.715,4.702-7.457,4.113-10.592-1.317
	s-3.475-13.643-0.76-18.345C80.946,340.18,85.688,340.77,88.823,346.2z"/>
<path style="fill:#284363;" d="M292.349,430.185c11.918,20.643,13.212,51.869,2.891,69.747
	c-10.321,17.877-28.35,15.635-40.268-5.008c-11.918-20.643-13.213-51.869-2.891-69.747
	C262.402,407.3,280.431,409.542,292.349,430.185z"/>
<path style="fill:#C8CED6;" d="M277.651,446.737c5.824,10.087,6.456,25.345,1.413,34.081s-13.853,7.64-19.676-2.447
	c-5.824-10.087-6.456-25.345-1.413-34.081C263.018,435.555,271.828,436.65,277.651,446.737z"/>
<path style="fill:#2E527C;" d="M275.209,450.967c4.266,7.389,4.729,18.567,1.035,24.966c-3.695,6.399-10.148,5.597-14.414-1.793
	c-4.266-7.389-4.729-18.567-1.035-24.966C264.489,442.776,270.943,443.578,275.209,450.967z"/>
<path style="fill:#C8CED6;" d="M275.202,454.04c3.135,5.43,3.475,13.643,0.76,18.346c-2.715,4.702-7.457,4.112-10.592-1.317
	c-3.135-5.43-3.475-13.643-0.76-18.345C267.326,448.021,272.068,448.61,275.202,454.04z"/>
<g>
</g>
<g>
</g>
<g>
</g>
<g>
</g>
<g>
</g>
<g>
</g>
<g>
</g>
<g>
</g>
<g>
</g>
<g>
</g>
<g>
</g>
<g>
</g>
<g>
</g>
<g>
</g>
<g>
</g>
</svg>
