<?xml version="1.0" encoding="iso-8859-1"?>
<!-- Generator: Adobe Illustrator 19.0.0, SVG Export Plug-In . SVG Version: 6.00 Build 0)  -->
<svg version="1.1" id="Capa_1" xmlns="http://www.w3.org/2000/svg" xmlns:xlink="http://www.w3.org/1999/xlink" x="0px" y="0px"
	 viewBox="0 0 512 512" style="enable-background:new 0 0 512 512;" xml:space="preserve">
<path style="fill:#E8EDEF;" d="M183.616,135.755c-4.288,0-7.767-3.479-7.767-7.767V79.231c0-30.93,16.64-59.751,43.424-75.213
	c9.293-5.359,20.372-5.355,29.645,0c9.278,5.36,14.82,14.957,14.82,25.671v56.125c0,4.288-3.479,7.767-7.767,7.767
	c-4.288,0-7.767-3.479-7.767-7.767V29.689c0-5.102-2.639-9.668-7.054-12.221c-4.419-2.548-9.693-2.548-14.112,0
	c-21.995,12.701-35.657,36.365-35.657,61.763v48.758C191.382,132.277,187.903,135.755,183.616,135.755z"/>
<polyline style="fill:#FCBC90;" points="401.439,50.168 328.72,30.806 328.72,7.883 110.561,133.838 110.561,134.137 
	110.561,469.715 110.561,470.015 149.681,470.015 183.28,512 401.439,386.046 401.439,50.168 "/>
<polygon style="fill:#FF8A5C;" points="110.561,469.716 328.72,343.761 328.72,7.883 110.561,133.838 "/>
<rect x="110.56" y="134.14" style="fill:#FFD2A6;" width="39.12" height="335.88"/>
<polygon style="fill:#FCBC90;" points="149.681,134.137 183.28,176.122 183.28,512 149.681,470.015 "/>
<polygon style="fill:#FFD2A6;" points="183.28,512 401.439,386.046 401.439,50.168 183.28,176.122 "/>
<path style="fill:#E8EDEF;" d="M256.257,177.778c-4.288,0-7.767-3.479-7.767-7.767v-48.758c0-30.93,16.641-59.751,43.424-75.213
	c9.293-5.36,20.372-5.355,29.645,0c9.278,5.36,14.82,14.957,14.82,25.671v56.125c0,4.288-3.479,7.766-7.766,7.766
	c-4.288,0-7.767-3.479-7.767-7.766V71.711c0-5.102-2.639-9.668-7.054-12.221c-4.419-2.548-9.693-2.548-14.112,0
	c-21.995,12.701-35.657,36.365-35.657,61.763v48.758C264.023,174.299,260.544,177.778,256.257,177.778z"/>
<path style="fill:#F43834;" d="M361.389,188.437c-15.322-11.583-40.165,2.759-55.487,32.035
	c-15.322-11.583-40.164,2.759-55.486,32.035c-15.212,29.066-15.303,61.898-0.31,73.705l55.813,42.193l55.47-105.986
	C376.712,233.143,376.712,200.02,361.389,188.437z"/>
<g>
</g>
<g>
</g>
<g>
</g>
<g>
</g>
<g>
</g>
<g>
</g>
<g>
</g>
<g>
</g>
<g>
</g>
<g>
</g>
<g>
</g>
<g>
</g>
<g>
</g>
<g>
</g>
<g>
</g>
</svg>
