<?xml version="1.0" standalone="no"?>
<!DOCTYPE svg PUBLIC "-//W3C//DTD SVG 20010904//EN"
 "http://www.w3.org/TR/2001/REC-SVG-20010904/DTD/svg10.dtd">
<svg version="1.0" xmlns="http://www.w3.org/2000/svg"
 width="1920.000000pt" height="2560.000000pt" viewBox="0 0 1920.000000 2560.000000"
 preserveAspectRatio="xMidYMid meet">

<g transform="translate(0.000000,2560.000000) scale(0.100000,-0.100000)"
fill="#000000" stroke="none">
<path d="M18345 17561 c6 -21 -10 -38 -20 -21 -12 20 -36 9 -41 -19 -6 -27 -9
-28 -43 -24 -20 2 -47 0 -61 -6 -23 -9 -21 -10 18 -10 61 -1 52 -18 -15 -27
-32 -4 -52 -9 -45 -11 23 -8 -35 -44 -60 -38 -13 3 -36 2 -50 -4 -16 -6 -28
-6 -30 -1 -4 12 -83 -11 -100 -29 -11 -11 -7 -12 22 -7 19 3 28 3 20 -1 -8 -3
-17 -9 -20 -12 -3 -3 -14 -11 -25 -17 -13 -7 -20 -22 -21 -43 -1 -31 -31 -71
-54 -71 -5 0 -10 -4 -10 -10 0 -5 -19 -10 -42 -11 -40 0 -41 -1 -18 -11 23
-11 21 -12 -30 -19 -103 -13 -120 -12 -121 14 -1 21 -18 -37 -22 -75 -1 -10
-10 -19 -22 -20 -34 -2 -40 -3 -52 -11 -16 -10 -26 10 -25 51 1 26 -2 33 -13
28 -10 -3 -15 1 -16 12 0 10 -3 12 -6 5 -3 -9 -31 -13 -91 -13 -76 0 -89 -3
-100 -20 -6 -11 -18 -17 -26 -14 -11 4 -17 -5 -22 -31 -6 -31 -10 -36 -28 -31
-11 3 -30 6 -41 6 -15 1 -13 4 10 14 23 10 26 14 15 21 -12 8 -8 11 15 16 28
6 27 7 -11 8 -29 1 -46 -5 -58 -18 -14 -15 -23 -18 -41 -11 -14 5 -25 5 -27 0
-2 -5 -46 -12 -98 -15 -179 -11 -220 -16 -220 -28 0 -7 -13 -23 -30 -37 -16
-14 -30 -32 -30 -40 -1 -8 -15 -24 -33 -35 -18 -11 -33 -30 -35 -43 -2 -13
-10 -22 -20 -22 -11 0 -6 -8 15 -21 28 -18 45 -20 123 -17 49 2 90 0 90 -4 0
-5 8 -8 18 -8 24 0 62 -33 62 -54 0 -9 7 -16 15 -16 16 0 51 -62 59 -105 8
-42 -13 -124 -35 -138 -10 -6 -19 -17 -19 -24 0 -6 -9 -15 -20 -18 -25 -8 -48
-47 -32 -53 6 -2 14 -3 17 -3 2 0 16 -11 29 -24 21 -21 36 -25 88 -27 97 -2
124 -10 133 -39 4 -10 10 -19 16 -19 16 0 56 -75 64 -120 7 -42 35 -99 35 -72
0 6 5 12 10 12 6 0 10 -7 10 -15 0 -8 5 -15 10 -15 6 0 10 5 10 11 0 8 4 8 13
0 16 -12 37 4 37 29 0 11 2 12 9 2 6 -10 11 -10 21 3 8 9 30 25 50 35 45 23
275 100 299 100 10 0 26 9 36 20 14 16 20 17 27 8 5 -9 8 -6 8 10 0 13 -3 21
-7 19 -5 -3 -9 20 -10 51 -4 108 58 142 198 108 66 -16 68 -16 104 5 20 12 39
19 42 15 3 -3 12 -1 19 5 9 8 18 5 34 -11 17 -17 29 -21 56 -15 19 3 34 10 34
15 0 5 10 12 23 15 13 4 31 18 40 33 10 16 17 21 17 12 0 -13 1 -13 10 0 5 8
10 37 10 63 0 38 5 53 24 70 18 17 22 27 15 38 -8 12 -10 12 -18 -1 -8 -11
-12 -8 -22 15 -23 53 -18 72 33 135 42 53 100 68 187 47 36 -8 85 -22 108 -31
37 -14 46 -14 77 -1 19 8 37 19 41 24 3 6 12 8 20 5 8 -3 25 5 38 18 13 12 45
34 71 47 43 22 46 27 46 62 0 21 -7 59 -15 84 -9 25 -12 51 -8 58 15 24 3 110
-18 128 -13 11 -19 25 -15 36 3 10 1 25 -4 33 -8 12 -10 11 -10 -7 0 -31 -11
-54 -22 -47 -6 4 -5 10 3 16 9 5 3 6 -16 2 -16 -4 -34 -10 -39 -14 -4 -5 -22
-4 -40 2 -17 5 -46 9 -63 9 -21 0 -33 4 -33 13 0 7 -11 18 -25 24 -20 9 -23 9
-18 -3 3 -10 -1 -15 -11 -15 -9 0 -19 -7 -22 -15 -7 -17 -44 -21 -44 -5 0 6
-18 10 -40 10 -30 0 -40 4 -40 16 0 10 -6 14 -17 10 -12 -3 -25 4 -36 19 -15
21 -15 25 -3 25 11 0 13 8 9 38 -7 46 -23 69 -34 50 -7 -10 -9 -10 -9 1 0 7
-6 11 -15 7 -11 -4 -15 1 -15 19 0 14 -5 25 -11 25 -6 0 -8 -8 -4 -19z m-25
-31 c0 -5 -5 -10 -11 -10 -5 0 -7 5 -4 10 3 6 8 10 11 10 2 0 4 -4 4 -10z m80
-45 c0 -21 -5 -25 -27 -25 -16 0 -35 5 -43 10 -11 7 -8 10 16 10 19 0 34 6 38
15 8 23 16 18 16 -10z m-40 -66 c12 -7 10 -8 -7 -9 -28 0 -53 10 -53 22 0 9
33 3 60 -13z m17 -35 c-3 -3 -12 -4 -19 -1 -8 3 -5 6 6 6 11 1 17 -2 13 -5z
m-1100 -296 c-3 -7 -5 -2 -5 12 0 14 2 19 5 13 2 -7 2 -19 0 -25z m163 16 c0
-8 -4 -12 -10 -9 -5 3 -10 10 -10 16 0 5 5 9 10 9 6 0 10 -7 10 -16z m220 7
c0 -19 -22 -23 -38 -7 -15 15 -14 16 11 16 15 0 27 -4 27 -9z m-600 -41 c0 -5
-4 -10 -10 -10 -5 0 -10 5 -10 10 0 6 5 10 10 10 6 0 10 -4 10 -10z m-137 -17
c-24 -2 -62 -2 -85 0 -24 2 -5 4 42 4 47 0 66 -2 43 -4z m1102 -413 c17 -7 15
-9 -12 -9 -18 -1 -33 4 -33 9 0 12 17 12 45 0z"/>
<path d="M7201 17406 c-1 -13 -6 -16 -18 -11 -43 17 -53 18 -47 1 3 -9 2 -16
-4 -16 -6 0 -12 5 -14 11 -6 17 -78 -11 -78 -29 0 -11 -11 -13 -50 -10 -27 3
-50 2 -50 -2 0 -11 -51 -31 -61 -24 -6 3 -10 0 -8 -7 4 -30 -1 -41 -16 -35 -9
3 -15 0 -15 -8 0 -18 -31 -30 -40 -15 -8 13 -40 -27 -40 -49 0 -9 -7 -12 -20
-9 -14 4 -20 0 -21 -11 0 -11 -2 -12 -6 -4 -8 19 -39 14 -55 -9 -12 -18 -17
-20 -35 -11 -16 9 -22 9 -26 -2 -7 -18 1 -26 25 -26 23 0 24 -16 1 -25 -13 -4
-25 2 -40 22 -22 26 -23 27 -23 6 0 -12 -6 -23 -12 -26 -7 -2 -9 -8 -5 -13 4
-5 12 -2 17 6 15 25 19 7 7 -33 l-12 -37 -62 0 c-35 0 -63 -4 -63 -8 0 -33
-114 -87 -159 -75 -16 4 -21 1 -21 -16 0 -11 -3 -20 -7 -20 -24 4 -41 -7 -101
-66 -36 -36 -70 -65 -75 -65 -5 0 -6 -7 -3 -15 4 -10 -3 -20 -19 -27 -14 -6
-25 -17 -25 -25 0 -7 -4 -13 -10 -13 -5 0 -10 -7 -10 -15 0 -8 -6 -15 -14 -15
-8 0 -28 -17 -45 -37 -17 -21 -37 -46 -46 -55 -8 -10 -16 -21 -17 -25 -6 -19
-32 -41 -43 -37 -7 3 -15 -2 -18 -10 -4 -9 -13 -13 -22 -10 -8 3 -15 2 -15 -4
0 -5 -10 -9 -22 -8 -13 0 -23 -3 -24 -9 0 -5 -4 -18 -7 -27 -16 -43 -20 -54
-23 -75 -3 -25 -34 -75 -34 -55 0 20 -17 14 -23 -9 -3 -13 -10 -18 -17 -14 -9
5 -9 10 -1 18 16 16 13 35 -8 58 -17 19 -19 19 -25 2 -4 -10 -2 -19 3 -21 14
-5 14 -32 1 -32 -5 0 -10 -7 -10 -15 0 -8 -8 -23 -19 -34 -10 -10 -21 -35 -25
-55 -4 -20 -12 -36 -18 -36 -9 0 -9 -3 0 -12 9 -9 15 -8 26 8 24 33 27 10 5
-47 -11 -30 -22 -70 -24 -89 -2 -19 -4 -35 -5 -35 -10 0 -18 -147 -10 -175 4
-14 13 -45 20 -70 20 -72 32 -103 54 -135 12 -16 19 -36 18 -44 -2 -7 5 -23
16 -35 24 -25 29 -41 41 -129 7 -52 16 -75 35 -94 14 -14 25 -35 25 -47 -2
-43 13 -151 22 -162 5 -7 10 -28 11 -48 1 -33 3 -35 17 -22 23 21 43 5 46 -36
2 -18 6 -41 10 -50 4 -10 2 -32 -4 -49 -15 -43 -14 -49 5 -42 19 7 45 -22 38
-42 -3 -7 -1 -16 5 -20 6 -3 11 -22 11 -42 0 -26 4 -34 14 -30 24 10 40 -21
37 -74 -1 -30 2 -49 8 -49 13 0 13 22 1 170 -5 63 -12 182 -15 264 -3 82 -8
152 -10 157 -3 4 -1 10 4 13 8 5 12 49 27 276 3 47 9 99 14 115 5 17 12 43 15
58 3 16 18 41 33 55 15 15 27 30 27 33 0 3 12 17 28 31 15 14 27 30 27 35 0 6
14 13 30 17 17 3 30 12 30 20 0 20 67 131 80 132 5 1 15 2 20 3 6 0 10 9 10
19 0 47 36 89 72 83 4 0 12 17 18 39 8 29 19 44 41 56 23 11 30 21 26 35 -3
13 -1 19 6 16 7 -2 18 10 25 27 10 25 15 28 22 16 5 -8 10 -10 10 -4 0 6 16
27 35 47 19 20 35 42 35 50 0 7 18 23 40 36 22 12 40 20 40 17 0 -3 9 3 20 14
12 12 19 24 16 28 -3 5 6 21 20 37 13 15 24 23 24 17 0 -20 22 -13 27 8 3 11
13 20 23 20 13 0 17 6 13 20 -4 14 0 20 12 20 9 0 19 9 22 20 3 11 8 20 12 20
3 0 17 10 31 23 14 13 33 26 43 30 9 4 20 15 24 24 12 34 25 45 35 31 7 -10
11 -10 21 3 6 8 20 18 30 22 9 3 17 17 18 29 1 22 1 22 9 -2 8 -23 11 -24 14
0 2 14 35 35 79 49 20 7 35 17 32 22 -4 5 4 9 16 9 12 0 35 15 53 35 24 26 37
33 54 28 13 -3 22 -1 22 6 0 6 8 11 18 11 9 1 33 14 52 30 20 18 46 30 62 30
15 0 28 5 28 10 0 6 6 10 14 10 8 0 17 12 21 28 6 24 8 25 14 8 7 -18 8 -18
14 -2 5 12 13 15 27 11 18 -6 25 3 21 28 0 4 3 7 9 7 6 0 10 -4 10 -10 0 -19
25 -10 56 19 18 17 49 33 70 37 22 3 47 15 58 26 10 11 25 17 33 14 18 -7 42
20 43 49 1 18 2 18 11 -3 11 -29 35 -23 32 7 -3 21 12 30 19 10 7 -20 34 2 33
28 0 33 -52 67 -74 49 -11 -8 -15 -8 -18 2 -8 21 -23 13 -23 -13 0 -14 -4 -25
-10 -25 -5 0 -10 6 -10 14 0 20 -24 26 -76 19 -42 -6 -59 -1 -119 30 -13 7
-20 6 -23 -2 -5 -15 -99 -14 -106 2 -5 10 -7 10 -12 0 -3 -7 -12 -13 -19 -13
-7 0 -16 6 -18 13 -4 10 -6 10 -6 0 -1 -18 -22 -16 -36 4 -11 15 -15 15 -29 4
-9 -7 -16 -9 -16 -4 0 5 -11 15 -24 21 -22 10 -26 8 -32 -11 -15 -49 -51 -50
-46 -1 3 26 1 35 -7 30 -6 -4 -11 -13 -10 -19 6 -47 -22 -48 -32 -1 -4 16 -7
21 -8 10z m-1 -46 c0 -11 -7 -20 -15 -20 -15 0 -21 21 -8 33 12 13 23 7 23
-13z m720 -56 c0 -9 -7 -14 -17 -12 -25 5 -28 28 -4 28 12 0 21 -6 21 -16z
m-140 -4 c0 -5 -15 -10 -32 -9 -31 1 -32 1 -8 9 35 11 40 11 40 0z"/>
<path d="M7840 17390 c0 -5 5 -10 11 -10 5 0 7 5 4 10 -3 6 -8 10 -11 10 -2 0
-4 -4 -4 -10z"/>
<path d="M17259 17287 c-11 -8 -14 -18 -8 -32 7 -19 8 -19 8 2 1 12 7 23 14
26 6 2 10 7 7 10 -3 3 -12 0 -21 -6z"/>
<path d="M16768 17213 c6 -2 18 -2 25 0 6 3 1 5 -13 5 -14 0 -19 -2 -12 -5z"/>
<path d="M16738 17173 c12 -2 30 -2 40 0 9 3 -1 5 -23 4 -22 0 -30 -2 -17 -4z"/>
<path d="M16738 17153 c12 -2 30 -2 40 0 9 3 -1 5 -23 4 -22 0 -30 -2 -17 -4z"/>
<path d="M16758 17141 c-66 -9 -70 -19 -7 -17 31 1 54 7 57 14 2 6 2 11 0 11
-1 -1 -24 -5 -50 -8z"/>
<path d="M5795 16650 c-3 -5 1 -10 10 -10 9 0 13 5 10 10 -3 6 -8 10 -10 10
-2 0 -7 -4 -10 -10z"/>
<path d="M16320 16459 c0 -11 4 -18 10 -14 5 3 7 12 3 20 -7 21 -13 19 -13 -6z"/>
<path d="M16401 16464 c-1 -6 -11 -10 -23 -10 -19 1 -22 -4 -20 -22 3 -20 0
-23 -16 -18 -23 8 -41 -12 -22 -24 9 -6 11 -24 7 -63 -4 -42 -2 -59 9 -68 13
-10 13 -14 -1 -29 -8 -9 -15 -28 -15 -42 0 -18 -7 -27 -21 -31 -15 -4 -20 -11
-16 -21 4 -9 2 -16 -4 -16 -6 0 -9 -7 -5 -15 5 -13 -5 -20 -26 -16 -4 0 -15
-15 -23 -35 -13 -31 -17 -34 -30 -24 -12 10 -16 9 -22 -6 -4 -10 -2 -19 5 -22
7 -2 12 -8 12 -14 0 -6 -7 -8 -15 -4 -12 4 -15 -3 -15 -31 0 -30 2 -34 15 -23
12 10 15 10 15 0 0 -6 -9 -14 -20 -17 -12 -3 -19 -11 -17 -17 2 -6 0 -23 -4
-38 -8 -31 7 -40 18 -10 3 9 12 24 19 32 7 8 13 20 13 25 0 6 8 12 18 13 10 2
29 14 43 27 38 34 128 93 153 100 12 3 33 12 46 18 19 9 25 9 28 0 3 -7 13
-13 23 -13 29 0 14 34 -36 82 -24 24 -44 47 -44 52 0 5 -8 18 -17 28 -13 15
-18 41 -19 110 -2 51 2 100 7 110 6 11 8 24 5 31 -2 7 -5 8 -5 1z m-33 -75
c-2 -6 -8 -10 -13 -10 -5 0 -11 4 -13 10 -2 6 4 11 13 11 9 0 15 -5 13 -11z"/>
<path d="M8676 15971 c-3 -4 -31 -9 -62 -10 -77 -1 -134 -17 -249 -66 -16 -7
-50 -21 -75 -31 -25 -10 -49 -23 -55 -27 -5 -5 -44 -28 -85 -51 -52 -30 -74
-47 -72 -59 2 -11 -2 -15 -11 -11 -19 7 -39 -20 -35 -48 2 -17 9 -23 26 -22
12 0 22 -2 22 -5 0 -14 79 -3 123 17 27 12 54 22 61 22 7 0 21 6 31 14 11 8
26 11 34 8 9 -3 12 -1 7 6 -4 7 10 19 38 32 25 11 47 24 50 28 3 5 23 14 45
22 23 7 41 17 41 22 0 5 9 6 20 3 14 -4 20 -2 18 6 -2 7 4 14 12 14 8 1 29 7
45 15 17 7 35 14 40 16 17 4 59 23 80 36 35 23 44 35 42 57 -1 18 -8 21 -44
21 -23 0 -44 -4 -47 -9z"/>
<path d="M16100 15906 c0 -9 5 -16 10 -16 6 0 10 4 10 9 0 6 -4 13 -10 16 -5
3 -10 -1 -10 -9z"/>
<path d="M16180 15808 c0 -23 11 -48 21 -48 14 0 11 24 -6 46 -12 16 -14 17
-15 2z"/>
<path d="M19025 15744 c-27 -8 -66 -17 -85 -19 -19 -3 -51 -9 -70 -14 -19 -5
-78 -19 -130 -32 -52 -12 -102 -27 -110 -34 -8 -8 -27 -17 -42 -20 -16 -4 -28
-11 -28 -16 0 -5 -5 -9 -11 -9 -6 0 -23 -8 -37 -19 -49 -35 -115 -51 -158 -40
-31 9 -40 8 -50 -5 -6 -9 -16 -16 -22 -16 -7 0 -14 -10 -17 -22 -9 -44 -25
-153 -25 -178 1 -24 1 -24 15 -6 7 10 18 15 23 12 5 -3 23 -1 41 4 32 9 151
-6 161 -20 3 -4 20 -15 38 -24 40 -21 102 -88 120 -130 17 -37 11 -190 -7
-225 -22 -40 -82 -101 -115 -115 -76 -34 -176 -67 -186 -61 -12 8 -40 14 -110
25 -115 18 -132 22 -148 35 -84 69 -147 115 -157 115 -7 0 -25 15 -40 33 -50
61 -67 77 -85 77 -41 0 -52 28 -49 119 2 47 7 98 13 112 8 23 5 31 -22 59 -17
17 -31 36 -29 42 1 6 -4 13 -10 15 -7 3 -13 -2 -13 -11 0 -9 -5 -16 -11 -16
-6 0 -9 -6 -6 -13 3 -7 -1 -21 -9 -32 -8 -10 -14 -26 -14 -34 0 -21 -54 -73
-104 -100 -29 -17 -45 -20 -65 -13 -32 11 -91 -3 -91 -22 0 -7 8 -35 19 -62
38 -100 44 -131 46 -219 0 -49 -5 -127 -12 -173 -8 -45 -11 -87 -8 -91 3 -5 7
-36 10 -69 5 -63 29 -132 45 -132 6 0 6 -9 0 -26 -6 -14 -10 -52 -10 -84 0
-33 -6 -79 -14 -102 -12 -37 -27 -91 -30 -108 -1 -3 -5 -11 -9 -17 -5 -7 -12
-82 -17 -165 -14 -235 -21 -289 -39 -322 -10 -17 -26 -55 -36 -83 -13 -37 -24
-53 -37 -53 -10 0 -26 -16 -38 -40 -11 -22 -16 -40 -10 -40 5 0 7 -13 4 -30
-4 -19 -2 -30 5 -30 37 0 -12 -42 -62 -54 -23 -6 -30 -3 -34 14 -3 11 -10 20
-15 20 -11 0 1 74 13 78 18 7 10 93 -11 119 l-20 26 -1 -24 0 -24 -11 25 c-6
14 -19 44 -29 67 -11 24 -19 53 -19 65 0 39 -12 68 -26 68 -8 0 -14 10 -14 23
0 12 -8 38 -19 57 -21 40 -34 105 -34 170 0 26 -1 33 -4 18 -6 -41 -23 -34
-22 10 1 115 -6 129 -74 151 -30 10 -43 10 -67 -1 -17 -7 -30 -16 -30 -20 0
-13 -38 -9 -43 5 -4 10 -6 10 -6 0 -1 -8 -16 -13 -40 -13 -22 0 -43 -4 -46
-10 -4 -6 -16 -4 -31 6 -13 9 -24 12 -24 8 0 -5 -5 -1 -11 9 -10 17 -12 17
-23 1 -14 -18 -36 -12 -36 11 0 17 -48 29 -64 16 -15 -13 -26 -4 -26 21 0 10
-4 18 -10 18 -5 0 -10 -5 -10 -11 0 -8 -4 -8 -14 0 -11 9 -20 9 -38 -1 -13 -7
-25 -16 -28 -20 -3 -4 -30 -14 -60 -22 -30 -8 -68 -19 -85 -25 -16 -5 -64 -14
-105 -20 -41 -6 -100 -15 -130 -22 -69 -14 -214 -6 -233 13 -9 9 -30 12 -60
10 -41 -4 -46 -7 -50 -30 -3 -22 -4 -21 -6 8 -1 27 -9 40 -33 57 -21 15 -34
19 -39 12 -4 -8 -8 -7 -11 2 -4 11 -11 8 -31 -9 -16 -15 -27 -20 -32 -13 -3 6
-1 11 6 11 10 0 10 3 2 11 -9 9 -18 8 -38 -5 -18 -12 -36 -15 -57 -11 -55 12
-117 45 -123 65 -4 11 -18 23 -33 26 -38 10 -84 43 -76 56 4 6 3 8 -3 5 -5 -4
-22 7 -37 22 -25 27 -82 48 -113 42 -7 -1 -13 2 -13 8 0 5 -18 11 -40 13 -28
2 -40 0 -40 -9 0 -17 -11 -16 -39 4 -19 13 -44 16 -113 14 -77 -2 -88 0 -88
15 0 14 -6 15 -37 9 -21 -4 -50 -8 -64 -9 -15 0 -36 -9 -46 -18 -11 -10 -35
-18 -56 -18 -26 0 -37 -4 -37 -15 0 -11 -11 -15 -40 -15 -22 0 -40 4 -40 9 0
5 -28 0 -62 -11 -35 -11 -75 -21 -89 -22 -14 0 -33 -7 -41 -13 -11 -10 -17
-10 -27 0 -8 8 -14 9 -19 1 -4 -6 -37 -15 -75 -18 -38 -5 -74 -14 -83 -23 -8
-8 -36 -17 -62 -19 -26 -2 -47 -4 -47 -4 0 -1 -31 -4 -70 -6 -88 -5 -145 -22
-138 -40 6 -15 -6 -18 -31 -8 -9 3 -16 15 -16 25 0 23 -29 37 -40 19 -5 -8
-29 -11 -81 -7 -41 2 -57 2 -36 0 53 -6 51 -33 -3 -33 -22 0 -40 5 -40 10 0 6
-37 10 -90 10 -82 0 -90 -2 -90 -19 0 -21 -22 -33 -45 -25 -10 4 -15 0 -15
-15 0 -15 6 -21 24 -21 31 0 50 -24 42 -55 -5 -20 -2 -26 19 -31 20 -5 23 -9
14 -20 -9 -11 -7 -14 11 -14 19 0 20 -2 10 -15 -11 -13 -8 -15 16 -16 16 0 23
-3 16 -6 -9 -3 -5 -12 13 -29 14 -13 32 -21 40 -18 13 6 20 -6 16 -28 0 -5 4
-8 9 -8 6 0 10 -7 10 -15 0 -8 11 -17 25 -21 26 -6 32 -18 15 -29 -6 -4 -5
-14 4 -28 8 -12 14 -49 15 -82 1 -33 6 -62 12 -64 6 -2 1 -10 -10 -18 -26 -17
-110 -8 -118 13 -7 20 -23 17 -23 -3 0 -15 -2 -16 -10 -3 -5 8 -10 11 -10 6 0
-5 -7 -3 -15 4 -8 7 -15 9 -15 5 0 -4 -6 -2 -14 4 -10 9 -16 9 -21 1 -4 -7
-19 -8 -38 -4 -44 10 -85 7 -212 -17 -159 -29 -164 -29 -170 -19 -11 18 -81
11 -106 -10 -13 -11 -29 -24 -35 -29 -7 -5 -31 -11 -55 -13 -40 -3 -46 -7 -62
-40 -9 -21 -24 -38 -32 -38 -8 0 -33 -19 -55 -41 -39 -41 -40 -41 -65 -25 -14
10 -34 14 -45 11 -13 -4 -22 1 -30 15 -13 24 -23 25 -44 5 -10 -11 -36 -15
-90 -15 -42 0 -76 -4 -76 -9 0 -5 -8 -11 -17 -15 -19 -6 -55 -27 -63 -37 -6
-7 -59 -23 -79 -24 -14 0 -25 -15 -35 -48 -3 -10 -10 -15 -16 -12 -5 3 -10 1
-10 -5 0 -6 -4 -8 -10 -5 -5 3 -10 2 -10 -2 0 -12 -68 -36 -80 -28 -16 10 -70
-5 -67 -18 1 -6 -3 -11 -10 -12 -6 0 -22 -12 -36 -27 -53 -57 -87 -3 -61 95 8
29 14 53 14 55 0 1 -16 2 -36 2 -40 0 -68 22 -62 48 8 29 -26 77 -50 74 -22
-3 -31 13 -12 20 5 2 7 13 4 26 -5 19 -13 22 -52 22 -28 0 -52 -6 -64 -17 -17
-15 -19 -15 -36 0 -12 11 -34 16 -58 15 l-39 -1 45 -7 45 -7 -42 -1 c-24 -1
-43 -6 -43 -12 0 -5 -18 -10 -40 -10 -22 0 -40 4 -40 9 0 6 -32 13 -71 17 -64
6 -70 9 -65 27 4 18 1 19 -35 14 -35 -4 -38 -3 -23 7 10 8 15 20 11 30 -8 20
-27 21 -27 1 0 -8 -7 -15 -15 -15 -8 0 -15 5 -15 10 0 6 -4 10 -10 10 -5 0
-10 -9 -10 -20 0 -11 -4 -20 -10 -20 -5 0 -10 7 -10 15 0 13 -3 13 -20 3 -11
-7 -20 -18 -20 -25 0 -7 -5 -12 -11 -11 -6 2 -16 -10 -22 -27 -5 -16 -13 -32
-16 -35 -25 -20 -30 -89 -27 -348 2 -203 0 -277 -10 -289 -19 -27 -7 -44 23
-32 29 11 48 0 58 -32 9 -28 -12 -50 -40 -43 -18 4 -23 1 -27 -21 -4 -21 -1
-28 17 -35 34 -13 37 -23 24 -95 -8 -50 -19 -75 -45 -106 -35 -42 -39 -55 -25
-77 6 -10 10 -10 21 3 7 8 19 15 27 15 17 0 14 -48 -5 -107 -8 -26 -8 -36 4
-47 11 -12 13 -37 10 -115 -3 -56 -1 -101 4 -101 12 0 30 -66 30 -106 0 -17 8
-42 18 -55 10 -13 23 -35 29 -49 6 -14 36 -54 68 -90 31 -36 62 -76 68 -89 7
-13 28 -32 47 -42 34 -18 37 -18 99 2 64 19 65 19 157 0 106 -22 182 -59 271
-132 58 -47 70 -52 199 -85 187 -47 237 -76 444 -257 54 -46 117 -91 157 -110
60 -28 76 -32 133 -28 163 9 444 -9 510 -33 65 -24 177 -35 362 -37 152 -1
164 -2 230 -29 38 -16 78 -36 89 -46 12 -11 52 -22 104 -30 92 -13 163 -47
190 -88 12 -18 13 -29 4 -55 -14 -39 -3 -50 46 -51 42 -1 162 -34 237 -65 35
-15 106 -44 158 -65 120 -47 280 -133 390 -210 47 -33 99 -65 115 -71 17 -6
55 -22 85 -34 30 -13 86 -29 123 -36 71 -12 98 -21 252 -84 148 -61 235 -108
280 -150 23 -22 62 -54 87 -71 40 -28 133 -132 209 -234 47 -62 68 -82 78 -75
6 3 11 -2 11 -12 0 -15 2 -16 10 -3 8 12 10 12 10 1 0 -11 11 -12 49 -7 27 4
51 3 53 -1 1 -5 33 -31 71 -58 37 -27 67 -56 67 -66 0 -9 7 -22 15 -29 16 -13
21 -35 6 -25 -20 12 -19 -13 1 -54 12 -24 17 -46 12 -49 -15 -12 -9 -64 9 -77
13 -9 15 -14 5 -17 -16 -6 71 -185 136 -278 25 -36 58 -84 73 -108 54 -84 118
-167 150 -199 18 -17 33 -36 33 -42 0 -6 5 -11 10 -11 6 0 10 -7 10 -15 0 -8
9 -15 21 -15 11 0 18 -4 14 -9 -5 -8 78 -157 96 -171 3 -3 18 -27 33 -54 15
-27 51 -85 80 -130 29 -45 79 -124 110 -176 32 -52 76 -115 98 -140 61 -67
119 -149 146 -205 13 -27 39 -70 57 -95 18 -25 40 -63 50 -85 28 -67 18 -180
-19 -207 -14 -9 -9 -140 5 -149 7 -4 14 -15 15 -24 5 -31 13 -45 29 -45 8 0
15 -8 16 -17 2 -54 13 -72 81 -132 117 -104 189 -182 246 -264 54 -79 122
-159 122 -144 0 4 15 -9 32 -30 18 -21 36 -40 39 -43 3 -3 9 -13 12 -24 4 -11
13 -16 22 -12 9 3 15 0 15 -9 0 -8 9 -15 20 -15 11 0 20 -4 20 -10 0 -5 7 -10
15 -10 9 0 15 -6 13 -12 -1 -7 3 -23 10 -35 9 -16 10 -29 3 -41 -13 -24 -3
-61 22 -87 30 -32 57 -91 64 -142 3 -27 28 -94 55 -150 26 -56 48 -104 48
-108 0 -11 73 -192 105 -262 19 -40 49 -89 68 -110 41 -46 54 -69 82 -148 11
-33 49 -103 83 -156 70 -108 85 -164 59 -216 -9 -16 -23 -35 -31 -42 -20 -17
-20 -45 -1 -64 8 -9 45 -77 81 -154 37 -76 74 -149 84 -163 10 -14 22 -48 28
-77 6 -28 22 -71 36 -95 13 -23 24 -46 25 -50 1 -5 2 -10 2 -13 1 -3 2 -8 3
-12 1 -5 12 -28 25 -52 14 -26 19 -47 13 -53 -10 -10 -42 0 -42 14 0 5 -5 6
-10 3 -6 -4 -13 8 -17 25 -3 18 -12 34 -19 37 -8 3 -14 10 -14 15 0 6 -8 17
-17 24 -15 11 -15 13 -3 14 8 0 0 7 -17 15 -22 9 -33 21 -33 35 0 12 -7 34
-15 50 -13 26 -21 30 -55 30 -40 0 -44 5 -43 47 0 6 -6 9 -13 6 -17 -6 -18
-15 -4 -29 7 -7 6 -11 -5 -11 -8 0 -15 8 -15 18 0 23 -17 34 -33 21 -7 -6 -21
-6 -36 -1 -21 8 -23 14 -19 59 3 27 1 47 -4 44 -4 -3 -9 14 -10 38 -1 24 -2
50 -4 58 -1 8 -2 20 -3 26 -2 18 -61 15 -61 -3 0 -12 -7 -14 -30 -10 -19 4
-34 1 -45 -9 -8 -8 -19 -13 -24 -10 -5 3 -14 -1 -21 -9 -7 -8 -27 -17 -46 -21
-19 -3 -34 -10 -34 -15 0 -5 -7 -9 -15 -9 -8 0 -47 -15 -87 -34 -40 -18 -90
-39 -110 -45 -21 -7 -57 -23 -80 -35 -24 -13 -61 -29 -83 -36 -22 -7 -56 -20
-75 -30 -113 -56 -289 -140 -313 -149 -15 -6 -52 -27 -82 -46 -31 -19 -58 -35
-61 -35 -4 0 -72 -44 -153 -97 -80 -54 -151 -100 -156 -103 -6 -3 -38 -24 -72
-47 -34 -24 -65 -43 -68 -43 -4 0 -21 -11 -39 -25 -18 -14 -36 -25 -40 -25 -4
0 -26 -13 -49 -29 -93 -63 -278 -169 -476 -273 -30 -15 -62 -35 -71 -43 -9 -8
-26 -15 -38 -15 -12 0 -30 -4 -40 -10 -31 -17 -215 -82 -249 -87 -42 -7 -83 4
-83 22 0 9 -6 12 -15 9 -11 -5 -13 -2 -9 10 4 10 0 18 -10 22 -9 3 -16 14 -16
23 0 39 -63 43 -175 13 -51 -13 -128 -29 -182 -37 -40 -6 -43 -5 -43 17 0 12
7 32 15 42 23 31 19 56 -9 56 -72 0 -125 134 -128 321 -1 104 0 108 30 153 31
45 33 76 6 76 -16 0 -34 31 -34 60 0 17 -4 19 -27 14 -35 -8 -53 -30 -53 -64
0 -27 -41 -196 -80 -325 -11 -38 -22 -83 -25 -99 -2 -16 -9 -43 -14 -60 -6
-17 -18 -74 -27 -126 -9 -52 -20 -99 -24 -105 -5 -5 -11 -37 -15 -70 -4 -33
-16 -98 -27 -145 -11 -47 -24 -110 -29 -140 -9 -56 -32 -172 -73 -365 -8 -38
-21 -97 -29 -130 -8 -33 -28 -118 -45 -190 -17 -71 -43 -173 -57 -225 -77
-277 -75 -253 -41 -501 24 -172 40 -327 52 -507 5 -65 11 -95 21 -99 7 -3 13
-16 13 -28 0 -15 8 -26 22 -31 20 -6 20 -7 -9 -19 l-30 -13 -1 -228 c-1 -206
-7 -319 -28 -511 l-7 -63 577 0 c396 0 576 3 576 11 0 25 -82 215 -103 238
-13 15 -33 42 -45 61 -31 52 -87 102 -108 98 -15 -3 -19 -12 -17 -43 5 -130 9
-175 16 -175 18 0 3 -22 -49 -75 -31 -31 -61 -54 -67 -52 -17 6 -11 71 23 232
16 77 38 196 50 265 11 69 30 167 41 219 29 129 17 211 -31 211 -18 0 -30 51
-30 130 0 21 -6 56 -14 78 -16 44 -46 180 -71 312 -8 47 -22 119 -30 160 -9
41 -16 106 -17 144 -2 67 -1 70 32 97 18 16 50 36 69 45 20 9 43 23 52 30 20
18 98 3 168 -31 25 -12 62 -30 82 -39 48 -22 119 -92 119 -116 0 -11 5 -20 10
-20 6 0 10 -18 10 -39 0 -44 8 -71 20 -71 5 0 21 -5 37 -12 15 -6 39 -13 51
-14 39 -5 64 -43 57 -84 -4 -19 -12 -38 -18 -42 -9 -6 -9 -10 -1 -15 12 -8 24
-89 24 -157 -1 -25 5 -43 17 -52 10 -7 13 -14 7 -14 -18 0 -13 -48 7 -66 11
-9 19 -14 19 -11 0 3 16 -1 35 -9 19 -7 63 -14 97 -14 35 0 83 -7 108 -15 25
-8 66 -17 93 -20 26 -4 47 -11 47 -16 0 -5 16 -19 36 -31 32 -19 34 -23 20
-33 -9 -7 -16 -23 -16 -37 0 -17 -8 -28 -25 -36 -14 -6 -25 -16 -25 -22 0 -5
-7 -10 -15 -10 -8 0 -16 -4 -16 -10 -3 -19 -5 -25 -17 -48 -11 -19 -10 -32 8
-81 12 -32 32 -70 46 -84 13 -14 24 -31 24 -36 0 -5 10 -13 22 -17 20 -6 108
-87 108 -99 0 -15 72 -75 90 -75 11 0 20 -5 20 -12 0 -6 3 -9 6 -6 3 3 20 2
39 -3 30 -9 37 -6 75 28 24 21 48 44 54 51 53 65 97 91 167 99 38 4 49 3 50
-8 3 -34 4 -39 12 -39 4 0 11 0 16 0 16 0 21 29 10 57 -8 22 -6 32 10 54 17
23 77 219 69 224 -60 33 -67 44 -43 68 8 8 12 17 10 19 -9 9 35 81 69 111 44
40 82 155 100 305 8 63 19 109 28 118 13 13 19 10 57 -31 38 -41 41 -49 35
-81 -4 -23 -2 -39 5 -43 10 -7 6 -35 -15 -85 -7 -18 -6 -18 19 -1 33 22 34 13
3 -28 -13 -18 -27 -49 -31 -70 -4 -20 -16 -48 -26 -61 -20 -25 -26 -62 -9 -51
6 3 10 -3 10 -14 0 -12 -4 -21 -9 -21 -13 0 -41 -64 -41 -92 0 -13 -5 -29 -12
-36 -15 -15 -38 -78 -44 -121 -3 -18 -11 -48 -18 -66 -8 -18 -10 -38 -6 -46 6
-9 -1 -33 -17 -64 -14 -28 -27 -75 -30 -105 -5 -63 -18 -103 -45 -142 -14 -21
-16 -26 -5 -22 30 11 26 -14 -9 -59 -20 -25 -33 -51 -29 -57 7 -12 -7 -83 -35
-175 -10 -33 -20 -70 -23 -82 l-5 -22 964 -1 964 0 0 1830 c0 1756 -1 1830
-18 1830 -26 0 -42 20 -42 51 0 22 6 29 30 34 l30 7 0 5459 c0 4868 -2 5459
-15 5459 -8 0 -25 6 -36 13 -17 9 -23 9 -26 0 -8 -23 -103 39 -103 67 0 6 -7
10 -15 10 -8 0 -15 7 -15 15 0 8 -5 26 -12 40 -11 24 -13 25 -19 8 -6 -14 -8
-13 -8 9 -1 15 -6 30 -12 34 -8 4 -8 8 0 13 15 10 2 48 -19 54 -16 4 -27 36
-33 105 -1 12 -5 22 -8 22 -4 0 -6 18 -5 40 0 22 4 40 7 40 4 0 12 14 18 32 8
23 14 29 22 21 16 -16 39 -5 32 14 -4 10 -2 14 5 10 12 -8 62 12 62 25 0 4 9
8 19 8 11 0 23 5 26 10 4 6 11 8 16 5 5 -4 14 -3 21 1 7 4 31 7 55 5 l43 -3 0
245 0 244 -62 0 c-35 1 -85 -5 -113 -13z m-1050 -1265 c5 -7 25 -8 56 -4 31 4
49 3 49 -3 0 -6 19 -13 42 -17 56 -10 83 -40 91 -100 4 -27 4 -52 0 -56 -15
-14 -90 -30 -163 -35 -41 -3 -90 -12 -108 -21 -22 -9 -46 -13 -68 -8 -21 3
-34 2 -34 -5 0 -18 -49 -11 -63 11 -11 15 -16 17 -20 7 -10 -29 -20 6 -19 65
2 73 11 119 21 113 4 -3 25 4 47 14 21 11 54 21 73 22 18 1 36 8 38 15 6 16
49 17 58 2z m-3042 -166 c-7 -2 -19 -2 -25 0 -7 3 -2 5 12 5 14 0 19 -2 13 -5z
m-1713 -303 c0 -5 -4 -10 -10 -10 -5 0 -10 5 -10 10 0 6 5 10 10 10 6 0 10 -4
10 -10z m3012 -9 c-6 -3 -12 -20 -15 -36 -3 -24 -4 -22 -6 12 -1 35 2 41 15
36 9 -3 11 -8 6 -12z m-168 -27 c9 -3 16 -12 16 -20 0 -8 7 -14 16 -14 29 0
45 -27 38 -65 -5 -29 -11 -35 -33 -36 -14 -1 -19 -3 -11 -5 8 -3 20 -20 26
-39 11 -34 10 -35 -16 -35 -15 0 -42 5 -60 11 -25 9 -34 9 -40 -1 -6 -9 -13
-4 -24 19 -19 36 -18 36 -55 16 -18 -9 -44 -12 -72 -9 -52 6 -59 10 -59 32 -1
15 -2 15 -11 -1 -10 -18 -11 -18 -25 0 -25 33 -17 74 22 110 20 18 44 33 52
33 20 0 80 -18 114 -35 22 -11 29 -11 38 0 6 8 18 11 26 8 8 -3 14 1 14 10 0
8 6 18 13 20 6 3 13 6 14 6 1 1 8 -2 17 -5z m-381 -49 c4 -8 2 -17 -4 -21 -12
-7 -41 15 -33 27 8 14 31 11 37 -6z m-2246 -402 c-3 -2 -16 -1 -29 3 l-23 8
25 6 c23 6 39 -4 27 -17z m-2637 -49 c0 -8 -5 -12 -10 -9 -6 4 -8 11 -5 16 9
14 15 11 15 -7z m453 -21 c-7 -2 -19 -2 -25 0 -7 3 -2 5 12 5 14 0 19 -2 13
-5z m4240 -165 c15 -7 27 -16 27 -20 0 -4 20 -26 45 -49 25 -23 45 -48 45 -57
0 -8 7 -20 15 -26 26 -19 31 -101 9 -144 -10 -20 -22 -39 -25 -42 -3 -3 -12
-23 -20 -44 -15 -42 -78 -110 -126 -138 -28 -16 -31 -16 -73 5 -24 12 -55 32
-69 45 -14 13 -38 31 -52 39 -15 9 -34 31 -43 50 -9 18 -19 32 -23 31 -9 -3
-10 -1 -30 66 -15 51 -12 97 11 140 17 34 75 86 95 86 9 0 36 16 60 35 48 38
103 46 154 23z m-2456 -14 c-3 -3 -12 -4 -19 -1 -8 3 -5 6 6 6 11 1 17 -2 13
-5z m4160 -126 c-2 -13 -4 -5 -4 17 -1 22 1 32 4 23 2 -10 2 -28 0 -40z m-17
-14 c0 -8 -7 -14 -15 -14 -8 0 -15 -5 -15 -12 0 -6 -2 -9 -5 -6 -3 2 1 16 7
30 13 27 28 28 28 2z m-63 -36 c-3 -8 -6 -5 -6 6 -1 11 2 17 5 13 3 -3 4 -12
1 -19z m33 -3380 c36 -6 70 -15 75 -18 6 -4 22 -10 38 -14 38 -9 90 -63 110
-114 21 -52 21 -52 0 -52 -9 0 -14 -3 -10 -6 3 -3 -3 -22 -13 -42 -10 -21 -20
-46 -21 -57 -5 -35 32 -177 55 -214 17 -26 26 -66 35 -143 13 -111 12 -126
-20 -195 -15 -34 -18 -62 -17 -150 2 -94 -1 -114 -20 -155 -18 -36 -32 -50
-63 -62 -22 -9 -48 -16 -58 -16 -10 0 -34 -11 -53 -24 -31 -21 -48 -24 -119
-24 -46 0 -89 5 -96 10 -9 7 -14 3 -19 -16 -5 -22 -8 -23 -20 -11 -8 7 -18 26
-24 40 -9 25 -14 27 -53 23 -23 -3 -50 -8 -59 -12 -12 -5 -18 -4 -18 4 0 6 5
8 10 5 6 -3 10 1 10 10 0 9 -4 14 -9 11 -5 -3 -14 1 -21 9 -10 13 -9 15 9 15
25 0 26 7 6 30 -13 15 -13 21 -2 43 8 15 16 25 19 22 9 -10 30 203 21 222 -5
10 -11 41 -12 68 -2 53 19 195 29 195 3 0 6 16 7 35 1 40 19 68 37 58 6 -3 8
-2 3 2 -9 10 21 45 38 45 14 0 26 22 31 55 11 70 13 89 5 77 -5 -9 -10 0 -15
27 -3 23 -11 41 -17 41 -6 0 -17 7 -26 15 -8 8 -19 13 -23 10 -5 -3 -16 5 -24
17 -11 18 -13 34 -5 73 15 82 19 96 28 90 5 -3 13 7 18 22 8 23 19 31 69 43
76 20 104 21 184 8z m1867 -3432 c-5 -16 -56 -26 -110 -21 -27 2 -52 6 -54 9
-11 11 10 26 31 20 15 -3 30 3 49 20 l28 26 30 -22 c16 -12 28 -26 26 -32z
m-217 4 c0 -5 -5 -10 -11 -10 -5 0 -7 5 -4 10 3 6 8 10 11 10 2 0 4 -4 4 -10z
m0 -2091 c0 -6 -25 -19 -36 -19 -2 0 -4 6 -4 13 0 7 9 13 20 13 11 0 20 -3 20
-7z m242 -249 c3 -16 3 -30 2 -30 -1 0 -9 14 -18 30 -11 24 -12 30 -1 30 7 0
15 -13 17 -30z m88 -190 c0 -5 -5 -10 -11 -10 -5 0 -7 5 -4 10 3 6 8 10 11 10
2 0 4 -4 4 -10z m-3286 -475 c-4 -8 -10 -12 -15 -9 -14 8 -10 24 6 24 9 0 12
-6 9 -15z m-337 -496 c8 -8 7 -21 -4 -48 -9 -20 -21 -61 -27 -91 -6 -30 -15
-55 -21 -55 -14 0 -18 117 -5 165 11 41 34 52 57 29z m142 -327 c14 -10 34
-34 44 -53 11 -19 23 -36 28 -39 9 -6 29 -56 29 -73 0 -7 -16 -22 -35 -35 -21
-13 -35 -30 -35 -42 0 -12 -9 -38 -20 -59 -15 -30 -27 -40 -53 -45 -19 -4 -46
-2 -61 4 -16 6 -26 6 -26 0 0 -5 -7 -7 -15 -4 -9 4 -15 1 -15 -7 0 -7 -7 -3
-16 10 -29 41 -32 333 -3 316 5 -4 9 2 9 12 0 15 2 16 10 3 8 -12 11 -11 16 8
5 18 9 21 16 10 7 -10 11 -9 21 5 15 23 69 17 106 -11z m1828 -636 c19 -42 12
-69 -19 -64 -15 2 -25 13 -31 35 -19 65 21 88 50 29z m-1317 -102 c0 -8 -4
-12 -10 -9 -5 3 -10 10 -10 16 0 5 5 9 10 9 6 0 10 -7 10 -16z m1380 -23 c0
-24 -25 -45 -45 -37 -17 6 -19 29 -5 57 9 15 15 17 30 9 11 -6 20 -19 20 -29z
m-1400 -32 c0 -14 -17 -10 -23 5 -4 10 -1 13 9 9 7 -3 14 -9 14 -14z m1410
-43 c0 -8 -5 -18 -11 -22 -14 -8 -33 11 -25 25 10 16 36 13 36 -3z m-360 -94
c14 -7 33 -29 42 -47 17 -33 17 -34 -10 -52 -15 -9 -43 -23 -62 -30 -45 -16
-150 -17 -150 -1 0 6 -3 8 -6 5 -21 -21 -97 86 -87 124 5 19 12 20 127 18 81
-2 129 -7 146 -17z m-1610 -552 c0 -5 -6 -10 -14 -10 -8 0 -18 5 -21 10 -3 6
3 10 14 10 12 0 21 -4 21 -10z"/>
<path d="M15760 13889 c0 -5 5 -7 10 -4 6 3 10 8 10 11 0 2 -4 4 -10 4 -5 0
-10 -5 -10 -11z"/>
<path d="M17200 9376 c0 -24 23 -41 41 -30 14 8 11 26 -8 40 -26 19 -33 17
-33 -10z"/>
<path d="M17220 9310 c0 -5 5 -10 10 -10 6 0 10 5 10 10 0 6 -4 10 -10 10 -5
0 -10 -4 -10 -10z"/>
<path d="M6605 15639 c-101 -12 -205 -21 -244 -20 -46 0 -110 -34 -121 -64 -5
-14 -13 -25 -18 -25 -4 0 -16 -15 -27 -32 -10 -18 -25 -39 -32 -46 -7 -7 -13
-19 -13 -26 0 -8 -7 -19 -15 -26 -14 -11 -13 -14 7 -24 13 -6 27 -21 32 -33 8
-17 18 -21 58 -21 27 0 51 4 54 9 3 5 16 9 29 9 13 0 27 5 31 11 3 6 15 8 26
6 11 -3 31 -1 46 3 15 5 38 11 52 12 14 2 31 7 39 12 9 6 18 3 26 -8 11 -14
14 -14 18 -2 5 12 27 14 123 11 71 -3 120 -9 124 -15 5 -7 20 -9 44 -5 20 4
36 3 36 -1 0 -5 9 -15 20 -21 16 -11 18 -10 14 2 -4 10 0 15 14 15 11 0 22 -4
24 -10 4 -13 93 -29 109 -19 7 4 23 3 35 -1 15 -6 26 -5 30 1 3 6 19 7 35 4
19 -4 39 0 61 12 42 23 48 33 41 61 -3 12 1 30 8 39 11 13 11 17 2 20 -7 3
-13 11 -13 19 0 18 -108 71 -149 72 -18 0 -38 5 -44 10 -10 8 -63 22 -102 27
-28 4 -99 18 -178 36 -49 10 -94 18 -100 18 -7 -1 -43 -5 -82 -10z"/>
<path d="M15731 15524 c0 -11 3 -14 6 -6 3 7 2 16 -1 19 -3 4 -6 -2 -5 -13z"/>
<path d="M15760 15512 c0 -8 -7 -20 -15 -28 -22 -23 0 -65 28 -55 26 10 27 38
4 71 -9 13 -17 19 -17 12z"/>
<path d="M17654 15455 c24 -18 39 -20 34 -2 -3 6 -15 13 -29 15 -23 2 -23 2
-5 -13z"/>
<path d="M7240 15329 c0 -5 5 -7 10 -4 6 3 10 8 10 11 0 2 -4 4 -10 4 -5 0
-10 -5 -10 -11z"/>
<path d="M8793 15333 c-40 -2 -73 -8 -73 -13 0 -14 -44 -12 -58 2 -6 6 -15 8
-19 4 -4 -4 -1 -12 7 -17 11 -8 1 -9 -34 -6 -50 5 -106 -8 -106 -24 0 -5 -4
-9 -10 -9 -16 0 -49 -32 -72 -69 -19 -31 -22 -32 -29 -15 -7 16 -8 16 -8 -6
-1 -14 -10 -50 -22 -80 -35 -92 -35 -93 46 -96 89 -4 177 -12 182 -18 3 -2 23
2 45 10 22 8 60 14 84 14 23 0 45 4 48 9 3 5 36 12 73 15 64 7 188 45 225 71
10 7 14 16 9 24 -10 15 -2 102 10 115 12 13 97 -22 103 -42 5 -14 16 -16 56
-14 27 2 50 8 50 13 0 5 9 9 19 9 30 0 35 19 9 29 -13 5 -30 16 -37 24 -7 9
-19 13 -27 10 -8 -3 -22 1 -32 9 -18 16 -28 19 -157 43 -76 14 -118 15 -282 8z
m-78 -216 c23 -46 23 -51 8 -62 -11 -8 -28 -9 -52 -4 -20 5 -57 9 -83 9 -27 0
-48 4 -48 10 0 30 110 113 137 103 8 -3 25 -28 38 -56z"/>
<path d="M6960 15260 c0 -5 7 -10 15 -10 8 0 15 5 15 10 0 6 -7 10 -15 10 -8
0 -15 -4 -15 -10z"/>
<path d="M5485 15226 c-29 -8 -40 -17 -40 -31 0 -17 6 -20 35 -17 52 4 60 9
60 37 0 28 0 28 -55 11z"/>
<path d="M7045 15220 c-3 -6 4 -10 17 -10 19 0 20 -2 8 -11 -13 -9 -12 -10 3
-5 9 3 28 1 42 -4 16 -6 25 -6 25 1 0 5 -8 12 -17 15 -10 3 -26 10 -35 15 -23
12 -35 11 -43 -1z"/>
<path d="M7140 15136 c0 -9 5 -16 10 -16 6 0 10 4 10 9 0 6 -4 13 -10 16 -5 3
-10 -1 -10 -9z"/>
<path d="M7140 15040 c-22 -6 -23 -8 -7 -15 11 -4 23 -3 30 4 15 15 7 19 -23
11z"/>
<path d="M6847 15014 c5 -14 2 -16 -20 -10 -16 4 -27 2 -27 -4 0 -5 -14 -9
-31 -8 -28 3 -38 -5 -56 -40 0 -2 -10 2 -21 9 -16 10 -29 10 -59 1 -21 -6 -64
-16 -96 -22 -32 -5 -70 -19 -84 -30 -14 -11 -30 -20 -36 -20 -5 0 -24 -15 -41
-34 -54 -60 -97 -53 -74 12 6 17 4 22 -8 22 -8 0 -12 -4 -9 -10 3 -5 1 -10 -5
-10 -29 0 -107 -125 -124 -200 -12 -52 42 -80 94 -48 18 10 54 22 79 25 45 5
48 4 75 -31 15 -20 31 -34 37 -31 5 4 25 -9 44 -28 35 -34 104 -54 140 -41 8
4 15 1 15 -5 0 -8 5 -9 19 -2 10 6 35 10 54 9 35 -1 79 12 129 38 14 8 33 12
41 8 8 -3 31 6 52 20 41 28 70 33 78 14 3 -7 6 -3 6 10 1 26 51 82 75 82 9 0
16 6 16 14 0 7 18 25 40 40 22 14 40 34 40 44 0 27 -55 108 -87 129 -15 10
-32 23 -38 29 -16 19 -96 66 -102 60 -3 -3 -18 1 -34 9 -15 8 -42 15 -58 15
-24 0 -29 -3 -24 -16z m-87 -54 c0 -5 -5 -10 -11 -10 -5 0 -7 5 -4 10 3 6 8
10 11 10 2 0 4 -4 4 -10z m296 -155 c9 -21 -16 -51 -27 -33 -7 10 -11 10 -21
0 -19 -19 -27 -14 -26 18 1 27 4 30 35 30 21 0 36 -6 39 -15z m-485 -76 c9
-17 8 -23 -2 -30 -21 -13 -32 -6 -36 24 -5 33 21 37 38 6z"/>
<path d="M7225 14990 c-3 -5 -1 -10 4 -10 6 0 11 5 11 10 0 6 -2 10 -4 10 -3
0 -8 -4 -11 -10z"/>
<path d="M7201 14974 c0 -11 3 -14 6 -6 3 7 2 16 -1 19 -3 4 -6 -2 -5 -13z"/>
<path d="M5760 14700 c-8 -5 -26 -10 -38 -10 -13 0 -37 -9 -53 -21 -21 -15
-51 -22 -107 -26 -42 -3 -82 -10 -88 -14 -6 -5 -78 -9 -160 -8 -123 0 -150 -3
-160 -16 -6 -8 -14 -15 -18 -15 -4 0 -14 -7 -22 -15 -15 -14 -42 -20 -74 -15
-8 1 -59 -21 -115 -49 -180 -91 -214 -103 -285 -102 -36 0 -90 -6 -120 -14
-30 -8 -76 -17 -102 -20 -27 -3 -48 -11 -48 -16 0 -6 -4 -8 -9 -4 -6 3 -36 -3
-68 -13 -108 -35 -168 -45 -191 -33 -14 7 -23 8 -27 1 -3 -5 -14 -10 -23 -10
-10 0 -26 -9 -35 -21 -14 -16 -25 -19 -47 -14 -22 5 -38 0 -62 -17 -46 -32
-70 -47 -88 -54 -8 -3 -37 -16 -65 -29 -47 -23 -151 -59 -240 -83 -22 -6 -69
-20 -105 -31 -36 -10 -80 -22 -97 -26 -18 -4 -33 -11 -33 -16 0 -5 -10 -9 -22
-9 -27 0 -82 -19 -162 -54 -32 -14 -67 -26 -77 -26 -25 0 -24 -29 2 -84 20
-43 21 -44 57 -36 49 11 496 4 547 -9 22 -5 50 -12 61 -14 12 -3 45 -7 74 -8
40 -2 54 1 61 13 8 14 15 15 40 6 24 -8 32 -7 42 6 7 8 23 17 37 19 36 6 130
-31 152 -59 11 -13 25 -24 31 -24 7 0 24 -11 39 -25 25 -23 27 -31 22 -73 -8
-74 -14 -93 -24 -87 -6 3 -10 -1 -10 -9 0 -8 -8 -20 -18 -25 -28 -15 -138 -15
-218 -1 -82 15 -164 7 -164 -16 0 -8 -11 -19 -25 -24 -14 -5 -24 -15 -23 -21
6 -22 -104 -68 -177 -74 -38 -3 -96 -13 -128 -21 -32 -7 -77 -14 -100 -14 -23
-1 -64 -7 -91 -14 -31 -8 -65 -10 -95 -5 -58 10 -154 -22 -144 -48 4 -9 -1
-19 -10 -25 -10 -5 -17 -21 -17 -38 0 -16 -6 -33 -13 -37 -7 -4 -20 -20 -29
-34 -15 -24 -21 -25 -75 -21 -50 4 -63 9 -95 40 -32 31 -38 42 -38 79 0 30 -6
48 -22 62 -11 11 -25 18 -30 15 -5 -3 -18 6 -29 20 -11 14 -27 26 -35 26 -9 0
-12 5 -8 12 4 7 -7 2 -24 -10 -39 -29 -43 -34 -31 -52 7 -12 9 -12 9 3 0 15 3
16 22 6 22 -12 22 -12 3 -20 -36 -14 -65 -10 -66 9 0 10 -4 6 -11 -11 -12 -33
-3 -77 16 -77 13 0 26 -20 26 -41 0 -5 -6 -9 -14 -9 -15 0 -29 -29 -24 -51 2
-8 -7 -15 -22 -17 -15 -2 -34 -15 -45 -32 -12 -18 -29 -30 -42 -30 -31 0 -117
-23 -124 -33 -3 -4 -23 -4 -45 1 -42 9 -138 -4 -234 -32 -30 -9 -98 -20 -150
-26 -154 -16 -242 -28 -285 -39 -22 -6 -76 -11 -120 -11 -44 0 -99 -5 -123
-10 -24 -6 -260 -11 -545 -13 l-502 -2 -60 27 c-33 14 -86 29 -118 32 l-57 6
0 -1489 0 -1489 43 -21 c56 -27 97 -67 97 -94 0 -14 11 -28 30 -39 19 -11 30
-25 30 -39 0 -12 10 -37 21 -56 19 -30 20 -38 8 -59 -10 -20 -10 -29 -1 -44 7
-11 12 -24 12 -29 0 -15 -62 -31 -103 -26 l-38 5 7 -47 c6 -48 6 -48 -36 -76
-23 -15 -48 -27 -56 -27 -12 0 -14 -203 -14 -1409 0 -1118 3 -1410 12 -1413 7
-3 74 -4 148 -2 140 4 272 -11 407 -43 40 -10 73 -21 73 -25 0 -5 7 -8 15 -8
8 0 21 -13 30 -30 13 -26 21 -30 56 -30 27 0 42 5 46 16 4 12 8 12 13 4 5 -9
10 -6 15 9 8 25 54 48 121 61 27 5 83 16 124 24 85 16 217 19 226 5 3 -5 21
-9 40 -9 19 0 34 -4 34 -9 0 -5 11 -12 25 -15 30 -8 33 -22 6 -31 -32 -10 -81
-61 -83 -86 -3 -25 -37 -48 -103 -69 -22 -6 -58 -21 -81 -31 -81 -38 -294 -28
-286 14 2 9 0 17 -5 17 -4 0 -41 5 -82 10 -55 7 -90 6 -145 -5 -39 -7 -89 -17
-111 -22 -69 -13 -216 -8 -325 11 -58 10 -120 21 -137 23 l-33 5 0 -401 c0
-221 1 -401 3 -401 1 0 16 4 34 9 45 13 109 -4 145 -38 l31 -29 -26 -33 c-19
-25 -26 -48 -28 -88 -3 -54 -17 -73 -42 -53 -13 11 -41 10 -89 -3 -23 -6 -28
-13 -28 -39 0 -32 1 -33 62 -44 53 -10 69 -18 110 -59 66 -65 95 -129 108
-237 6 -49 13 -93 16 -98 3 -4 16 -8 29 -8 37 0 42 39 15 113 -41 116 -47 145
-38 210 5 34 13 105 18 157 8 86 36 186 61 217 12 14 -9 53 -29 53 -7 0 -17
11 -22 24 -5 13 -18 27 -29 31 -12 3 -21 11 -21 16 0 5 -13 9 -29 9 -35 0
-119 45 -99 53 11 5 11 7 -1 15 -12 8 -10 15 8 37 11 15 21 34 21 41 0 8 6 14
14 14 7 0 19 6 25 14 9 11 21 12 53 4 23 -5 64 -9 92 -8 28 0 58 0 66 0 49 -1
215 33 265 54 153 63 297 81 381 47 46 -18 134 -108 134 -137 1 -62 35 -84
132 -84 51 0 60 4 93 35 21 19 46 37 56 40 11 4 19 16 19 30 0 12 9 33 19 46
18 22 26 24 109 22 102 -2 159 -14 188 -41 14 -13 43 -22 90 -27 38 -4 96 -17
129 -31 134 -53 193 -66 283 -62 82 3 89 5 115 33 32 34 67 106 67 138 1 33
32 93 61 116 15 11 32 35 40 53 7 18 34 69 59 113 25 44 56 107 69 140 14 33
34 76 46 95 11 19 32 60 45 90 14 30 51 104 82 163 32 60 58 113 58 119 0 6
17 41 38 78 22 36 42 79 46 95 4 16 32 69 61 118 30 49 59 105 66 125 6 21 27
54 45 75 19 20 34 45 34 55 0 9 14 37 30 61 17 24 30 56 30 71 0 16 11 37 29
54 16 15 32 43 35 61 4 18 24 55 45 82 21 26 53 82 71 123 19 41 37 80 42 86
16 22 58 105 58 115 0 6 19 39 42 72 23 34 53 80 68 102 15 22 38 65 52 95 13
30 44 77 67 104 23 26 55 74 70 105 51 103 64 126 81 146 9 11 31 43 48 72 17
28 38 60 46 70 9 10 37 48 63 84 101 141 170 225 262 321 53 55 102 109 109
120 8 11 34 28 57 38 24 10 61 34 82 53 21 19 49 38 63 42 14 4 48 22 75 40
28 18 73 45 100 61 28 15 80 48 117 71 131 84 268 137 268 104 0 -23 -44 -82
-75 -101 -37 -23 -120 -114 -150 -165 -11 -19 -49 -80 -84 -135 -35 -56 -66
-111 -69 -123 -3 -12 -8 -26 -12 -32 -4 -5 -15 -35 -25 -65 -10 -30 -21 -59
-24 -65 -4 -5 -13 -28 -20 -50 -7 -22 -16 -49 -20 -60 -8 -21 -27 -85 -56
-190 -9 -33 -20 -70 -25 -82 -5 -11 -20 -81 -34 -155 -14 -73 -28 -144 -31
-158 -3 -14 -8 -41 -11 -60 -19 -117 -38 -206 -45 -216 -5 -6 -11 -30 -14 -55
-3 -24 -9 -70 -14 -101 -4 -31 -4 -64 1 -72 5 -9 5 -16 0 -16 -5 0 -9 -30 -10
-67 0 -38 -1 -70 -1 -73 -10 -48 -17 -470 -9 -543 6 -53 5 -58 -11 -54 -15 4
-17 -3 -13 -53 l4 -57 -31 5 c-34 5 -37 -2 -20 -45 6 -15 12 -39 14 -53 3 -14
10 -53 18 -86 17 -82 14 -343 -6 -382 -15 -30 -14 -43 2 -110 6 -24 9 -48 5
-53 -3 -5 -1 -16 5 -23 6 -7 10 -24 9 -37 -3 -21 1 -24 25 -22 30 2 35 -8 12
-27 -19 -16 -19 -44 0 -60 8 -7 13 -16 10 -20 -3 -4 2 -13 10 -20 11 -9 12
-17 5 -30 -6 -10 -10 -30 -10 -44 0 -14 -4 -28 -10 -31 -5 -3 -10 -12 -10 -18
0 -7 4 -6 10 3 13 20 13 -1 0 -34 -6 -16 -17 -26 -29 -26 -14 0 -19 5 -15 15
7 18 -7 20 -24 3 -9 -9 -12 -9 -12 0 0 8 -7 9 -24 2 -14 -5 -27 -5 -32 0 -6 6
-23 6 -39 1 -32 -8 -37 -36 -11 -56 13 -10 15 -14 24 -47 2 -9 10 -19 18 -22
8 -3 14 -15 14 -27 0 -27 37 -79 56 -79 17 0 19 -30 2 -30 -8 -1 -6 -6 5 -14
22 -17 21 -23 -1 -35 -15 -8 -31 -1 -78 31 -68 48 -126 63 -164 43 -14 -7 -39
-19 -57 -25 -18 -7 -44 -27 -58 -46 -25 -33 -25 -34 -5 -34 12 0 19 -4 16 -9
-3 -5 13 -11 36 -14 23 -3 47 -12 53 -19 5 -8 19 -18 30 -22 13 -5 15 -10 8
-13 -17 -6 -16 -28 2 -43 16 -13 21 -45 6 -36 -4 3 -4 -14 1 -37 6 -23 12 -61
15 -84 3 -24 8 -43 13 -43 4 0 10 -30 14 -67 4 -37 11 -72 16 -78 18 -22 32
-96 20 -110 -8 -9 -8 -15 0 -20 16 -10 12 -21 -12 -33 l-23 -11 25 0 c25 -1
25 -2 28 -97 2 -76 6 -100 21 -115 11 -12 25 -17 34 -13 9 3 23 -1 32 -9 19
-19 20 -34 2 -18 -16 13 -27 5 -27 -19 0 -9 -26 -40 -59 -69 l-58 -53 9 -41
c5 -23 18 -54 28 -69 11 -15 20 -34 20 -43 0 -8 5 -15 10 -15 6 0 10 -9 10
-20 0 -11 11 -27 25 -36 14 -9 23 -20 20 -24 -3 -4 6 -15 20 -24 14 -9 25 -25
25 -36 0 -11 4 -20 10 -20 5 0 20 -24 34 -54 13 -29 31 -56 40 -59 17 -7 12
-32 -10 -54 -19 -19 -21 -17 -28 37 -4 28 -12 50 -18 50 -6 0 -17 8 -24 18
-13 16 -13 16 -14 0 0 -10 -7 -18 -15 -18 -19 0 -19 -29 0 -36 8 -4 15 -17 15
-30 0 -17 6 -24 18 -24 22 0 62 -32 62 -48 0 -6 7 -9 15 -6 20 8 40 -15 52
-61 6 -23 11 -31 12 -19 1 31 27 50 46 34 19 -16 19 -30 1 -30 -26 0 -35 -24
-16 -43 12 -12 20 -15 25 -8 11 18 25 12 25 -11 0 -20 1 -21 20 -3 47 43 51
73 25 203 -7 35 10 102 26 102 5 0 9 -6 9 -12 0 -7 5 -5 11 5 5 9 16 17 24 17
18 0 75 49 75 64 0 7 9 21 21 32 16 14 22 15 28 5 6 -10 10 -10 16 -1 15 25
39 -31 44 -103 2 -29 118 -144 186 -184 33 -20 77 -51 98 -70 24 -21 47 -33
67 -33 25 0 30 -5 39 -37 13 -46 13 -131 0 -198 -5 -27 -14 -77 -19 -110 -26
-165 -36 -201 -67 -246 -17 -25 -35 -58 -39 -73 -3 -14 -10 -29 -15 -32 -12
-7 -11 -61 1 -69 7 -4 6 -13 -1 -26 -23 -43 5 -59 64 -34 14 6 17 2 17 -29 0
-29 -5 -38 -30 -51 -37 -19 -39 -28 -5 -19 19 5 24 3 21 -7 -2 -8 -7 -26 -10
-41 -6 -28 -7 -28 -79 -24 -40 3 -77 2 -82 -2 -19 -14 -35 -52 -35 -86 0 -19
6 -36 13 -39 7 -3 0 -9 -15 -16 -56 -22 -33 -39 102 -74 l85 -23 7 -54 c10
-76 19 -188 23 -295 2 -49 5 -97 7 -105 5 -27 -13 -234 -23 -266 -12 -38 -54
-53 -62 -22 -3 11 -14 18 -30 18 -14 0 -27 6 -30 13 -6 15 -110 43 -145 39
-12 -2 -32 6 -44 18 -13 12 -35 20 -55 20 -30 0 -33 -3 -33 -29 0 -15 -8 -39
-18 -52 -16 -20 -19 -43 -19 -151 0 -70 -4 -133 -9 -140 -5 -7 -9 -31 -8 -53
1 -22 2 -53 3 -68 1 -26 4 -28 36 -26 46 4 59 -9 45 -46 -10 -25 -7 -32 20
-61 48 -48 18 -53 -32 -5 -23 23 -47 41 -53 41 -11 0 -25 -42 -25 -75 0 -7 12
-16 27 -20 24 -6 26 -8 10 -16 -9 -6 -17 -16 -17 -23 0 -8 -7 -17 -16 -20 -14
-5 -14 -10 4 -39 19 -33 19 -34 1 -45 -21 -14 -25 -42 -8 -59 7 -7 8 -17 3
-25 -14 -22 -15 -118 -1 -119 7 -1 19 -2 27 -3 8 0 15 -10 15 -21 0 -16 -6
-19 -28 -17 -26 3 -28 1 -27 -30 1 -18 -1 -62 -4 -98 -11 -134 -12 -155 -4
-172 5 -10 3 -18 -5 -21 -7 -3 1 -16 23 -35 28 -24 32 -32 22 -44 -6 -8 -9
-18 -5 -21 11 -11 -6 -8 -27 5 -26 16 -28 11 -21 -47 4 -28 1 -71 -6 -99 -8
-32 -9 -54 -3 -66 7 -12 5 -27 -6 -49 -8 -17 -12 -36 -8 -42 5 -8 3 -9 -6 -4
-9 5 -10 2 -5 -14 9 -28 -19 -28 -39 0 -11 16 -18 19 -31 11 -12 -6 -14 -11
-6 -16 6 -4 11 -11 11 -17 0 -17 -21 -9 -44 18 -20 24 -26 25 -40 14 -22 -19
-20 -31 5 -28 28 3 36 -19 10 -26 -20 -5 -67 -84 -57 -95 8 -7 35 28 36 46 0
6 4 12 9 12 6 0 9 -12 8 -27 l-2 -28 266 -3 267 -2 17 77 c9 43 21 92 26 109
5 17 12 42 14 55 3 13 7 38 10 54 12 59 67 290 75 310 4 11 26 85 49 165 23
80 51 174 62 210 11 36 27 89 35 119 8 30 21 68 29 85 8 17 19 49 24 71 21 89
71 250 79 253 5 1 7 14 4 27 -2 15 0 25 7 25 7 0 11 8 10 18 -2 9 2 27 9 39 7
13 10 23 8 23 -3 0 1 19 9 41 10 29 12 46 5 54 -7 8 -6 25 3 51 19 55 15 139
-8 164 -10 11 -20 35 -22 52 -2 18 -10 42 -18 55 -8 12 -15 36 -15 53 0 17 -7
45 -16 61 -8 17 -13 38 -10 46 6 15 -22 73 -36 73 -4 0 -8 17 -8 39 0 22 -6
44 -15 51 -9 7 -15 29 -15 51 0 21 -5 49 -11 61 -8 18 -6 31 5 53 9 17 16 24
16 18 0 -7 9 -13 20 -13 17 0 19 5 14 25 -5 19 -2 25 11 25 9 0 29 10 44 22
31 27 35 76 8 106 -24 26 -2 35 32 13 24 -15 24 -15 19 7 -4 12 -2 20 2 17 21
-13 19 18 -2 37 -12 11 -22 25 -20 30 2 6 -12 8 -35 4 -89 -14 -105 -13 -116
11 -7 16 -7 34 1 60 8 25 8 42 1 55 -18 33 -5 43 55 46 48 2 59 -1 77 -22 12
-14 37 -26 60 -30 33 -5 39 -10 38 -29 -4 -41 1 -57 16 -57 18 0 20 -16 3 -24
-10 -5 -10 -7 0 -12 6 -3 12 -13 13 -22 1 -9 5 -1 9 18 5 20 5 40 -1 46 -5 6
-5 24 1 43 6 22 5 41 -2 59 -6 15 -12 30 -13 35 -2 4 -4 9 -5 12 -4 9 -7 25
-9 45 0 11 -8 20 -16 20 -18 0 -20 36 -2 43 8 4 8 8 2 14 -13 10 -18 70 -6 77
5 3 4 27 -1 53 -6 27 -11 57 -12 68 0 11 -4 25 -9 32 -4 6 -4 19 -1 28 5 11 0
18 -14 21 -16 5 -18 11 -12 32 5 20 13 26 30 24 l22 -2 -6 197 c-10 292 -34
476 -78 596 -6 15 -14 28 -19 28 -20 3 -24 5 -36 12 -18 11 -63 -3 -63 -20 0
-13 -3 -13 -15 -3 -12 10 -16 9 -21 -5 -6 -16 -9 -15 -25 6 -16 20 -19 21 -19
6 0 -24 -59 -58 -95 -55 -25 3 -34 11 -53 52 -22 47 -27 109 -21 256 1 31 -8
98 -16 110 -5 8 -4 11 3 7 6 -5 8 0 5 13 -3 11 -9 18 -13 15 -4 -3 -7 1 -7 8
0 6 -3 36 -7 65 -9 54 -30 78 -47 51 -10 -16 -10 -16 -13 34 -1 25 -8 42 -19
48 -13 8 -17 23 -17 65 0 30 -6 67 -14 82 -21 40 -26 119 -32 492 -3 214 -1
362 6 410 20 142 30 215 36 280 3 36 10 72 15 81 4 9 6 19 3 22 -6 6 21 153
34 188 6 13 15 44 22 69 7 25 16 54 20 65 5 11 11 47 15 80 7 77 42 219 66
269 11 22 19 45 19 51 0 7 6 25 14 41 35 72 136 316 136 329 0 9 4 23 9 33 5
9 30 82 56 162 38 117 103 294 164 445 19 45 41 104 66 175 15 41 36 95 47
120 11 25 47 115 80 200 165 433 333 768 538 1075 117 176 157 233 197 279 18
22 33 48 33 59 0 11 11 35 26 54 14 18 30 47 36 63 5 17 14 30 19 30 10 0 43
60 36 67 -3 2 -22 0 -43 -6 -22 -6 -79 -15 -129 -21 -52 -6 -126 -23 -175 -41
-47 -17 -123 -39 -170 -50 -47 -10 -94 -24 -105 -31 -48 -29 -133 -66 -165
-73 -19 -4 -39 -11 -45 -15 -5 -4 -35 -10 -65 -14 -30 -3 -75 -9 -98 -12 l-44
-6 18 26 c18 29 67 59 78 49 3 -4 6 -1 6 5 0 7 9 12 20 12 11 0 44 12 73 26
34 17 81 28 139 34 85 10 162 30 202 55 12 6 50 20 86 29 136 37 168 46 281
81 63 19 134 35 156 35 36 0 43 4 67 40 14 22 26 44 26 49 0 21 296 301 319
301 5 0 28 16 51 35 23 19 53 35 66 35 14 0 42 9 64 20 22 11 50 20 63 20 30
0 40 10 26 26 -6 7 -12 26 -14 42 -2 17 -16 54 -30 82 -15 30 -24 61 -21 73 3
11 -1 35 -9 54 -8 18 -14 59 -14 91 0 35 -7 78 -20 110 -25 64 -28 127 -5 136
30 12 65 -5 71 -34 4 -21 10 -27 21 -23 11 5 14 2 9 -10 -4 -11 -1 -17 8 -17
18 0 20 -16 3 -23 -10 -4 -10 -6 0 -6 16 -1 16 -21 -1 -21 -9 0 -12 -11 -9
-36 3 -28 8 -35 22 -31 14 3 17 -1 15 -23 -1 -15 -6 -33 -10 -40 -5 -8 -4 -11
3 -6 7 4 10 -9 10 -39 0 -26 -4 -45 -11 -45 -6 0 -3 -6 6 -13 10 -7 19 -29 21
-52 2 -27 9 -41 22 -46 18 -6 18 -7 2 -14 -16 -6 -15 -9 7 -26 17 -14 24 -28
22 -48 -1 -16 -5 -27 -9 -25 -3 2 -4 -5 -1 -16 3 -11 10 -20 15 -20 5 0 7 -3
5 -7 -2 -5 1 -51 7 -103 6 -52 9 -116 6 -142 -3 -27 -2 -48 2 -48 4 0 8 -5 8
-11 0 -6 -6 -9 -12 -6 -7 2 -12 12 -12 21 1 9 -3 15 -10 13 -21 -7 -104 -250
-150 -442 -27 -109 -33 -297 -12 -370 23 -82 41 -120 89 -190 61 -90 202 -205
251 -205 6 0 23 -6 38 -14 60 -31 250 -64 373 -65 195 0 485 42 485 71 0 4 5
8 11 8 5 0 7 -4 4 -10 -8 -13 8 -13 21 0 6 6 26 12 45 14 19 2 52 11 74 20 22
9 60 22 85 27 25 6 61 19 80 29 19 10 46 21 60 25 49 15 218 95 350 166 8 5
35 19 60 31 25 13 51 29 58 36 7 6 19 12 26 12 7 0 32 14 54 30 23 17 46 30
50 30 8 0 235 150 312 205 28 20 132 93 200 141 19 13 48 34 64 47 16 12 34
24 40 27 16 7 125 91 151 115 11 11 33 29 49 40 201 142 469 418 568 585 57
97 119 224 122 252 1 15 7 33 12 40 6 7 18 55 28 107 14 77 15 96 4 102 -10 7
-10 9 0 9 6 0 12 9 12 20 0 11 -4 20 -9 20 -10 0 -21 -34 -21 -67 0 -13 -4
-23 -9 -23 -5 0 -11 -8 -15 -17 -3 -10 -9 -25 -14 -33 -5 -8 -35 -68 -68 -134
-41 -83 -66 -121 -82 -127 -13 -5 -22 -15 -21 -21 4 -34 -3 -49 -31 -63 -16
-8 -33 -27 -36 -41 -4 -14 -8 -23 -11 -20 -10 9 -43 -29 -43 -51 0 -12 -4 -25
-10 -28 -6 -3 -10 -14 -10 -24 0 -10 -14 -35 -30 -56 -17 -21 -29 -46 -28 -54
4 -18 -17 -41 -60 -66 -17 -10 -29 -22 -26 -27 3 -4 -2 -11 -10 -14 -9 -3 -16
-10 -16 -15 0 -11 -82 -89 -94 -89 -4 0 -37 -30 -73 -66 -36 -37 -74 -66 -86
-67 -12 -1 -40 -21 -63 -45 -30 -31 -46 -41 -59 -36 -14 6 -17 4 -12 -9 4 -10
1 -17 -6 -18 -7 -1 -29 -3 -49 -4 -31 -3 -37 0 -41 18 -3 15 -5 12 -6 -10 -1
-22 -6 -33 -16 -33 -8 0 -15 -7 -15 -16 0 -8 -13 -20 -30 -25 -16 -6 -30 -17
-30 -25 0 -9 -11 -14 -31 -14 -16 0 -28 -4 -25 -9 7 -10 -11 -26 -39 -33 -11
-3 -28 -9 -37 -13 -13 -5 -18 -2 -19 11 -1 14 -3 12 -8 -6 -4 -14 -15 -27 -26
-29 -21 -4 -52 -31 -36 -31 6 0 11 -7 11 -15 0 -10 -10 -15 -30 -15 -20 0 -30
5 -30 15 0 8 -5 15 -11 15 -7 0 -9 -9 -5 -24 6 -24 -5 -34 -44 -42 -8 -2 -16
-8 -18 -13 -2 -6 -10 -11 -18 -11 -8 0 -20 -12 -26 -26 -8 -18 -17 -24 -30
-20 -13 3 -23 -3 -29 -17 -10 -21 -72 -57 -97 -57 -6 0 -16 -9 -22 -20 -7 -12
-16 -17 -27 -13 -11 4 -14 3 -9 -5 7 -12 -5 -16 -31 -13 -7 1 -13 -6 -13 -15
0 -16 -1 -16 -13 1 -15 19 -37 13 -37 -9 0 -9 -9 -12 -24 -9 -18 4 -25 13 -30
41 -3 21 -1 38 4 40 6 2 10 10 10 17 0 7 6 15 13 18 9 3 9 14 -2 53 -7 27 -14
56 -15 64 -3 22 -27 63 -45 78 -14 12 -12 13 12 9 15 -2 27 0 27 4 0 5 -7 9
-15 9 -8 0 -15 7 -15 15 0 8 7 15 15 15 8 0 15 5 15 10 0 6 -7 11 -15 11 -28
3 -33 4 -41 12 -4 4 3 7 16 7 22 0 22 2 18 80 -4 73 -3 80 14 80 22 0 22 10 3
56 -9 23 -20 34 -31 32 -12 -2 -17 5 -19 27 -2 17 -5 39 -7 50 -6 24 -38 33
-38 11 0 -9 5 -16 10 -16 6 0 10 -4 10 -10 0 -5 -7 -10 -15 -10 -17 0 -30 41
-22 70 3 11 1 18 -4 14 -5 -3 -9 0 -9 7 0 7 -11 10 -30 7 -35 -5 -38 2 -10 20
27 17 25 30 -5 38 -29 7 -33 21 -7 27 16 4 16 5 0 6 -24 1 -23 31 1 31 24 0
37 30 13 31 -9 0 -12 3 -6 5 8 3 9 16 4 40 -13 56 -5 112 19 138 11 12 21 27
21 34 0 6 6 9 14 6 9 -3 17 3 21 15 3 12 17 24 31 27 17 4 24 13 24 30 0 16 8
27 21 32 20 8 20 10 5 24 -20 21 -20 32 -1 52 9 9 11 17 5 21 -5 3 -10 1 -10
-5 0 -7 -6 -10 -14 -7 -9 4 -12 0 -9 -12 3 -12 -2 -20 -16 -24 -27 -7 -37 9
-14 22 10 6 12 11 6 11 -15 0 -18 30 -3 30 6 0 10 8 10 18 0 11 14 25 35 35
19 9 34 22 33 29 -2 6 5 14 15 16 14 3 17 -4 17 -48 0 -34 4 -49 11 -44 6 3 8
17 5 30 -5 18 -3 22 9 18 12 -5 15 2 15 29 0 44 15 87 31 87 8 0 8 -4 -1 -15
-7 -9 -10 -18 -6 -22 10 -10 17 2 19 33 2 21 11 33 31 42 20 10 26 19 23 34
-6 23 1 48 14 48 5 0 9 -9 9 -20 0 -11 5 -20 10 -20 6 0 10 9 10 20 0 13 7 20
20 20 16 0 20 7 20 38 0 33 4 39 41 56 45 22 62 45 53 73 -4 12 -1 10 11 -6
15 -20 20 -22 29 -9 6 8 19 17 30 21 15 6 16 10 6 22 -14 17 -15 17 23 33 19
8 27 19 27 37 0 19 5 25 23 25 25 1 59 26 76 58 7 12 17 20 22 16 6 -3 24 7
41 22 20 19 32 25 35 17 7 -19 21 -16 19 4 0 11 7 19 21 21 12 2 25 12 28 23
4 11 10 17 15 14 4 -2 13 9 21 26 11 29 134 141 148 136 3 -1 8 2 11 8 8 15
50 55 59 55 13 0 29 42 35 93 6 47 0 55 -39 47 -5 -1 -25 2 -45 5 -34 7 -34 7
-10 17 20 7 22 11 10 18 -10 7 -11 10 -2 10 18 0 15 47 -4 54 -23 9 -24 8 -24
-25 0 -17 -4 -28 -10 -24 -5 3 -10 16 -10 28 -1 22 -1 22 -16 2 -8 -11 -12
-26 -9 -33 4 -10 0 -13 -14 -9 -13 3 -31 -6 -52 -24 -18 -16 -38 -29 -45 -29
-7 0 -14 -5 -16 -11 -2 -7 -21 -13 -42 -14 -20 -1 -42 -7 -49 -14 -6 -6 -16
-11 -23 -11 -6 0 -14 -6 -17 -14 -4 -9 -22 -13 -63 -12 -38 1 -69 -4 -90 -16
-42 -22 -143 -58 -165 -58 -9 0 -29 -11 -45 -25 -32 -28 -46 -30 -75 -14 -16
8 -23 7 -33 -6 -9 -13 -30 -18 -84 -20 -61 -2 -72 1 -77 16 -6 18 -34 34 -43
24 -3 -3 0 -5 6 -5 7 0 12 -7 12 -15 0 -20 -9 -19 -32 2 -16 14 -23 15 -38 5
-11 -7 -44 -12 -74 -12 -30 0 -66 -4 -80 -10 -14 -5 -28 -6 -30 -1 -3 4 -28 7
-56 5 -41 -2 -53 1 -63 17 -15 24 -35 25 -33 2 1 -12 -9 -19 -36 -23 -23 -4
-39 -3 -43 4 -3 7 -7 7 -11 -1 -3 -7 -13 -13 -23 -13 -9 0 -23 -6 -30 -12 -10
-11 -14 -10 -22 5 -13 23 -54 24 -45 1 5 -14 1 -16 -23 -11 -19 4 -33 1 -41
-8 -10 -12 -18 -10 -55 11 -38 21 -46 22 -58 10 -19 -19 -102 -16 -102 3 0 21
-55 37 -66 20 -7 -11 -9 -10 -9 4 0 9 -4 17 -10 17 -5 0 -13 11 -16 26 -5 18
-13 25 -28 23 -36 -2 -47 1 -41 11 3 5 1 18 -4 29 -14 25 -51 17 -51 -11 0
-17 -3 -18 -14 -9 -12 10 -17 8 -26 -9 -14 -27 -66 -25 -64 3 1 13 -6 17 -37
17 -21 0 -39 5 -39 10 0 6 -7 10 -16 10 -8 0 -19 13 -25 28 -10 28 -64 59 -74
42 -3 -5 5 -10 17 -12 21 -4 20 -5 -7 -12 -46 -11 -60 -22 -59 -45 1 -25 -3
-26 -22 -6 -23 23 -36 18 -31 -12 2 -16 2 -22 0 -15 -4 10 -8 9 -19 -5 -12
-17 -13 -17 -14 0 0 9 -7 17 -15 17 -8 0 -15 7 -15 15 0 22 -10 19 -36 -12
l-23 -27 -21 21 c-11 12 -20 27 -20 33 0 15 -17 12 -24 -5 -13 -34 -86 -2 -86
38 0 16 5 18 33 12 l32 -6 -32 17 c-18 9 -33 20 -33 24 0 12 43 20 70 13 21
-5 23 -3 13 8 -19 19 -16 29 7 29 11 0 20 -5 20 -12 0 -6 9 -1 20 12 22 26 27
76 8 83 -7 3 -2 6 11 6 16 1 21 -3 18 -13 -6 -15 22 -46 42 -46 6 0 11 -7 9
-16 -2 -10 2 -19 8 -21 17 -6 74 46 74 68 0 14 7 19 25 19 16 0 25 6 25 16 0
8 -3 13 -7 11 -5 -3 -14 1 -21 9 -11 12 -10 15 2 20 21 8 20 24 -1 24 -16 1
-16 2 1 11 14 9 20 8 26 -1 4 -7 16 -9 29 -5 23 7 27 20 11 30 -15 9 -2 25 21
25 12 0 19 -7 19 -20 0 -20 1 -20 31 -4 17 9 43 18 56 20 14 3 36 12 49 21 13
8 24 12 24 9 0 -4 11 1 25 10 14 9 25 23 25 30 0 8 9 14 20 14 27 0 36 25 24
70 -8 27 -7 39 3 49 17 16 16 31 -2 31 -8 0 -15 -5 -15 -11 0 -7 -11 0 -25 15
-14 15 -25 34 -25 43 0 10 -6 14 -20 10 -32 -8 -24 19 15 48 19 15 40 25 47
22 7 -2 24 1 38 8 14 7 43 21 65 31 22 11 42 22 45 25 3 4 21 10 40 14 19 4
40 10 45 13 6 4 15 7 20 8 15 3 119 48 125 54 17 17 103 70 150 92 98 46 128
57 180 64 65 9 88 35 62 70 -9 12 -28 28 -42 35 -14 7 -32 19 -41 26 -9 8 -27
16 -40 18 -13 3 -73 14 -134 26 -60 11 -130 27 -155 34 -25 8 -74 17 -109 20
-34 3 -76 12 -92 20 -15 8 -43 15 -61 16 -140 2 -221 9 -234 20 -11 9 -14 8
-14 -5 0 -12 -7 -14 -29 -10 -16 4 -32 1 -35 -5 -10 -15 -83 -14 -89 2 -3 7
-6 5 -6 -5 -1 -14 -7 -16 -29 -12 -19 4 -32 1 -41 -10 -10 -12 -23 -15 -47
-10 -25 5 -41 1 -64 -16 -18 -13 -39 -20 -51 -17 -12 3 -22 0 -25 -8 -3 -7
-29 -24 -58 -37 -30 -12 -57 -32 -62 -43 -12 -27 -105 -86 -125 -80 -10 3 -20
1 -24 -5 -3 -5 -26 -10 -51 -10 -24 0 -44 -4 -44 -8 0 -12 -32 -11 -47 1 -9 6
-13 6 -13 -2 0 -19 -17 -12 -23 9 -4 16 -11 20 -31 16 -14 -3 -30 -7 -36 -11
-5 -3 -31 -8 -57 -10 -26 -2 -49 -9 -51 -14 -2 -6 -10 -11 -18 -11 -8 0 -15
-8 -16 -17 -1 -10 -2 -25 -3 -33 -3 -32 -17 -60 -29 -60 -7 0 -18 -24 -26 -57
-13 -60 -28 -83 -54 -83 -9 0 -16 -8 -16 -20 0 -13 5 -17 14 -14 8 3 19 -3 26
-15 6 -12 17 -21 25 -21 20 0 19 -25 -2 -50 -17 -19 -17 -19 -30 10 -19 46
-36 38 -29 -12 3 -24 2 -56 -3 -73 -5 -16 -10 -24 -10 -17 -1 6 -8 12 -16 12
-20 0 -21 88 -1 96 16 6 22 124 6 124 -22 0 0 18 30 23 33 7 38 21 15 43 -8 8
-12 21 -9 28 3 8 1 17 -5 21 -7 4 -11 -5 -11 -25 0 -18 -4 -29 -10 -25 -5 3
-10 17 -10 29 0 17 -8 26 -32 34 -26 8 -28 10 -10 11 29 1 31 41 2 48 -21 5
-29 35 -9 31 6 -2 14 3 16 10 3 7 -4 12 -19 12 -27 0 -68 33 -68 56 0 8 -8 17
-17 21 -10 3 -33 22 -50 41 l-33 35 -1 -34 c-1 -23 -3 -27 -6 -12 -5 26 -35
38 -59 25 -22 -12 -54 -3 -54 15 0 10 -7 14 -20 10 -12 -3 -20 0 -20 8 0 14
-22 25 -50 25 -10 0 -32 8 -48 17 -27 16 -31 16 -46 1 -27 -28 -21 -48 13 -42
23 5 32 2 41 -15 6 -12 9 -30 7 -39 -4 -13 -5 -12 -6 4 -1 23 -27 51 -38 41
-3 -4 0 -13 7 -22 8 -10 9 -15 1 -15 -6 0 -11 5 -11 12 0 16 -13 0 -27 -33 -9
-20 -8 -33 2 -53 12 -22 12 -26 0 -26 -8 0 -18 7 -23 16 -5 9 -15 15 -21 13
-9 -3 -6 -12 7 -30 17 -21 18 -27 6 -43 -16 -23 -8 -42 12 -25 11 9 14 7 14
-12 0 -20 2 -21 11 -9 11 15 9 4 -8 -67 -6 -25 -5 -27 11 -14 9 8 20 10 24 6
4 -4 2 -9 -3 -12 -13 -4 -7 -75 6 -84 5 -3 10 -26 11 -52 1 -25 5 -41 9 -35 9
15 22 -47 14 -71 -3 -11 0 -23 7 -28 15 -9 32 -43 48 -96 7 -21 16 -34 22 -31
7 4 9 -8 6 -34 -2 -28 1 -43 9 -46 7 -3 13 -15 13 -26 0 -11 5 -20 10 -20 6 0
10 -9 10 -20 0 -10 10 -28 22 -40 12 -11 16 -20 10 -20 -7 0 -12 -5 -12 -10 0
-6 6 -9 12 -8 7 2 14 -8 16 -22 2 -14 10 -28 17 -32 7 -4 10 -18 7 -33 -2 -15
0 -25 7 -25 6 0 11 -9 11 -20 0 -10 8 -24 18 -29 9 -6 13 -11 9 -11 -5 0 -1
-7 7 -16 9 -8 16 -26 16 -39 0 -15 11 -32 30 -45 22 -16 30 -29 30 -51 0 -17
6 -32 14 -35 8 -3 12 -12 9 -20 -3 -8 1 -14 11 -14 9 0 16 -6 16 -13 0 -18 23
-67 32 -67 4 0 15 -15 24 -32 27 -52 117 -158 160 -188 12 -8 24 -25 28 -38
10 -30 -13 -38 -52 -18 -33 17 -149 141 -172 184 -9 16 -31 48 -49 71 -18 23
-44 64 -58 92 -13 28 -37 62 -54 76 -16 14 -29 35 -29 47 0 13 -9 31 -20 41
-11 10 -23 35 -26 56 -4 23 -15 44 -28 52 -23 16 -96 146 -96 172 0 9 -11 33
-25 53 -14 20 -25 43 -25 50 0 8 -11 27 -25 44 -14 16 -25 38 -25 48 0 9 -7
37 -16 61 -8 24 -22 80 -30 124 -14 74 -64 213 -87 243 -5 6 -25 12 -43 12
-27 0 -34 -4 -34 -20 0 -14 -7 -20 -21 -20 -32 0 -59 19 -59 40 0 11 -4 20
-10 20 -16 0 -12 30 5 36 8 4 15 14 15 23 0 10 3 21 8 25 7 7 8 11 11 39 1 9
3 9 9 -1 6 -9 13 0 21 28 13 45 9 65 -54 230 -56 147 -67 219 -62 394 2 83 10
190 17 237 12 81 12 90 -10 170 -12 46 -25 104 -27 129 -2 25 -12 61 -23 80
-36 68 -57 143 -49 175 6 20 3 41 -8 67 -18 41 -20 43 -43 28z m-483 -946 c29
-20 70 -42 90 -49 37 -13 38 -14 39 -67 2 -70 -3 -88 -26 -88 -12 0 -20 -8
-22 -22 -3 -23 -4 -22 -32 7 -15 17 -32 39 -37 50 -7 19 -8 18 -8 -4 -1 -17
-5 -22 -17 -17 -9 3 -19 6 -23 6 -4 0 -16 15 -26 34 -11 19 -27 37 -37 39 -10
3 -18 12 -18 21 0 9 -6 16 -12 16 -19 0 -17 82 2 97 28 23 73 14 127 -23z
m1004 -562 c-7 -2 -18 1 -23 6 -8 8 -4 9 13 5 13 -4 18 -8 10 -11z m2247 -73
c17 0 32 -1 32 -4 0 -3 -18 -16 -39 -30 -26 -16 -61 -27 -105 -31 -36 -4 -63
-11 -60 -15 3 -5 -12 -9 -33 -9 -21 0 -51 -7 -66 -15 -21 -11 -39 -12 -68 -6
-23 5 -41 5 -45 0 -3 -5 0 -9 5 -9 6 0 11 -4 11 -10 0 -13 -33 -13 -47 1 -8 8
-21 8 -47 -1 -20 -6 -43 -9 -51 -6 -8 3 -15 1 -15 -3 0 -5 -9 -7 -20 -4 -23 6
-29 53 -6 53 8 0 22 7 31 16 11 11 35 17 71 18 30 0 54 4 54 8 0 4 14 8 31 8
17 0 37 7 45 15 9 8 34 16 57 16 23 1 56 5 72 8 17 4 59 5 95 3 36 -3 80 -4
98 -3z m-2261 -41 c-3 -8 -6 -5 -6 6 -1 11 2 17 5 13 3 -3 4 -12 1 -19z m1653
-70 c0 -18 -2 -20 -9 -8 -6 8 -7 18 -5 22 9 14 14 9 14 -14z m-34 -25 c-11
-11 -19 6 -11 24 8 17 8 17 12 0 3 -10 2 -21 -1 -24z m-286 -38 c0 -14 -46
-33 -56 -22 -4 4 26 24 54 36 1 1 2 -6 2 -14z m-723 -122 c-3 -10 -5 -4 -5 12
0 17 2 24 5 18 2 -7 2 -21 0 -30z m-5309 -113 c17 -16 30 -40 29 -52 0 -13 3
-31 7 -40 6 -13 4 -18 -9 -18 -13 0 -16 -6 -11 -25 9 -34 -24 -90 -53 -91 -27
-2 -71 36 -71 60 0 9 -4 16 -9 16 -5 0 -7 10 -4 23 4 16 2 19 -5 8 -8 -11 -10
-5 -10 20 -1 19 -2 43 -4 54 -2 11 2 20 7 21 6 0 19 4 30 8 11 5 27 10 35 12
12 4 12 7 1 14 -13 8 -5 13 31 19 3 0 20 -12 36 -29z m-1039 -10 c17 -17 33
-39 34 -50 2 -11 8 -25 13 -30 12 -12 6 -80 -7 -80 -5 0 -9 -15 -9 -32 -1 -18
-8 -42 -18 -53 -39 -46 -102 -69 -117 -44 -4 6 -13 8 -20 5 -18 -7 -54 35 -66
76 -6 24 -15 35 -26 34 -10 0 -21 10 -27 26 -7 21 -5 33 10 55 10 15 17 32 16
36 -1 5 2 6 8 2 6 -4 24 8 41 27 58 62 121 72 168 28z m7228 -372 c-3 -7 -5
-2 -5 12 0 14 2 19 5 13 2 -7 2 -19 0 -25z m-50 -14 c-3 -3 -12 -4 -19 -1 -8
3 -5 6 6 6 11 1 17 -2 13 -5z m53 -30 c0 -17 -22 -14 -28 4 -2 7 3 12 12 12 9
0 16 -7 16 -16z m-254 -15 c3 -6 1 -16 -5 -22 -9 -9 -14 -8 -21 3 -9 15 -4 30
10 30 5 0 12 -5 16 -11z m-46 -174 c0 -8 -4 -15 -10 -15 -5 0 -10 7 -10 15 0
8 5 15 10 15 6 0 10 -7 10 -15z m-2113 -65 c9 -16 23 -30 29 -30 20 0 23 -51
5 -89 -9 -20 -31 -51 -49 -70 -18 -19 -32 -44 -33 -60 l-1 -26 -8 25 c-6 17
-8 19 -9 7 -1 -10 -8 -20 -16 -23 -8 -4 -15 -12 -15 -20 0 -7 -11 -16 -25 -20
-14 -3 -25 -10 -25 -15 0 -5 -11 -9 -24 -9 -14 0 -28 -5 -31 -10 -3 -6 -17 -7
-29 -4 -18 4 -31 -2 -55 -28 -17 -18 -31 -39 -31 -46 0 -27 -25 -5 -33 29 -40
162 -33 301 16 334 12 7 45 15 72 17 32 2 54 9 62 19 8 11 35 20 73 24 33 4
63 11 66 16 11 19 44 8 61 -21z m1998 0 c3 -5 1 -10 -4 -10 -6 0 -11 5 -11 10
0 6 2 10 4 10 3 0 8 -4 11 -10z m95 -50 c0 -12 -27 -12 -55 0 -16 7 -13 9 18
9 20 1 37 -3 37 -9z m1 -47 c5 -5 -9 -7 -31 -5 -22 2 -43 9 -47 15 -7 12 65 3
78 -10z m-2895 -12 c-4 -5 -1 -11 6 -13 21 -7 27 -166 13 -370 l-8 -116 -38
-4 c-39 -3 -39 -3 -40 32 0 31 -1 32 -9 13 -5 -13 -18 -23 -29 -23 -15 0 -18
5 -14 23 l5 22 -19 -20 c-21 -25 -81 -51 -91 -41 -4 4 -7 37 -6 72 0 35 -3 64
-8 64 -4 0 -8 -5 -8 -10 0 -6 -9 -5 -21 2 -17 10 -23 10 -26 1 -3 -7 -13 -13
-24 -13 -12 0 -19 -7 -19 -18 0 -28 -11 -34 -30 -17 -15 14 -18 13 -30 -10
-14 -26 -29 -33 -31 -15 -1 6 -2 15 -3 20 0 6 -4 10 -8 10 -5 0 -7 -1 -5 -3 5
-6 -40 -44 -68 -56 -20 -9 -31 -9 -33 -2 -5 16 -68 14 -100 -3 -15 -8 -36 -16
-47 -18 -11 -1 -22 -6 -25 -10 -10 -13 -81 -13 -89 1 -7 11 -11 9 -21 -8 -9
-18 -14 -20 -26 -10 -10 8 -14 8 -14 0 0 -6 -17 -11 -40 -11 -24 0 -40 -5 -40
-12 0 -6 -8 -4 -19 6 -15 13 -29 16 -67 11 -27 -4 -53 -6 -58 -5 -5 1 -13 -4
-17 -12 -7 -11 -11 -10 -19 2 -7 11 -5 16 5 18 22 5 18 19 -7 26 -18 5 -20 8
-9 15 9 6 10 11 2 15 -6 4 -11 2 -11 -3 0 -6 -10 -11 -21 -11 -17 0 -20 5 -17
25 3 16 1 25 -7 25 -17 0 -25 23 -25 68 0 35 4 39 51 60 27 12 53 20 58 18 11
-7 45 30 38 41 -7 12 81 15 103 3 14 -7 31 -6 60 4 22 7 40 10 40 5 0 -5 68
-9 150 -9 83 0 150 4 150 9 0 5 17 8 38 8 119 -1 142 3 142 22 0 15 10 21 40
26 22 4 46 13 54 20 7 8 17 10 22 5 5 -5 19 0 33 11 13 10 20 19 16 19 -3 0 1
7 10 16 11 12 13 19 6 24 -7 4 2 19 24 38 19 18 35 28 35 23 0 -6 13 -6 35 0
19 6 40 7 45 4 6 -3 20 1 32 9 25 18 42 21 34 7z m-2521 -110 c28 -25 53 -53
57 -62 4 -10 -7 -30 -33 -58 -21 -23 -39 -46 -39 -52 0 -11 -150 -159 -162
-159 -4 0 -8 -8 -8 -18 0 -27 -32 -40 -104 -43 -65 -2 -66 -2 -127 47 -33 26
-65 57 -70 67 -6 9 -14 15 -19 12 -15 -9 -32 34 -24 58 5 12 8 39 8 60 1 36 4
39 51 59 28 11 64 26 80 33 17 7 49 18 73 25 23 6 42 15 42 20 0 6 3 9 8 8 9
-3 75 24 82 33 7 11 102 27 120 21 8 -3 38 -26 65 -51z m-776 -70 c10 -10 26
-23 35 -28 17 -10 40 -113 25 -113 -5 0 -9 -6 -9 -14 0 -7 -7 -20 -17 -27 -9
-8 -22 -29 -30 -46 -17 -42 -43 -43 -77 -3 -33 39 -49 96 -35 122 6 11 8 31 4
45 -5 21 0 31 27 54 39 34 52 35 77 10z m-569 -23 c40 -27 59 -83 63 -178 l2
-65 -47 -23 c-45 -23 -48 -23 -82 -7 -41 20 -43 29 -36 166 7 131 29 155 100
107z m2630 -171 c0 -13 -4 -27 -9 -32 -5 -6 -14 -26 -19 -45 l-10 -35 -1 36
c-1 41 16 99 30 99 5 0 9 -10 9 -23z m-350 3 c0 -5 -4 -10 -10 -10 -5 0 -10 5
-10 10 0 6 5 10 10 10 6 0 10 -4 10 -10z m6477 -262 c-3 -8 -6 -5 -6 6 -1 11
2 17 5 13 3 -3 4 -12 1 -19z m-80 -94 c-3 -3 -12 -4 -19 -1 -8 3 -5 6 6 6 11
1 17 -2 13 -5z m-7977 -64 c0 -5 -4 -10 -10 -10 -5 0 -10 5 -10 10 0 6 5 10
10 10 6 0 10 -4 10 -10z m7895 -159 c-3 -6 -16 -11 -28 -11 -21 0 -21 1 3 13
27 15 36 14 25 -2z m-6183 -571 c29 -29 27 -56 -6 -92 -17 -20 -42 -41 -55
-48 -22 -11 -27 -10 -43 10 -10 12 -18 29 -18 37 0 8 -4 11 -10 8 -6 -4 -10 7
-10 25 0 18 4 29 10 25 6 -3 14 5 19 18 6 14 16 27 23 30 24 9 75 2 90 -13z
m6108 -25 c0 -8 -6 -15 -14 -15 -17 0 -28 14 -19 24 12 12 33 6 33 -9z m-1552
-38 c7 -18 12 -55 12 -81 0 -26 5 -56 10 -67 8 -14 6 -28 -10 -58 -11 -22 -20
-52 -20 -66 0 -29 -18 -34 -27 -7 -3 9 -12 24 -19 32 -18 21 -18 68 -3 170 17
114 35 138 57 77z m-6347 -442 c54 -7 55 -8 57 -40 2 -26 -2 -35 -18 -40 -23
-7 -70 20 -48 28 7 3 -5 3 -27 0 -50 -6 -73 13 -55 47 6 12 17 19 24 17 7 -3
37 -8 67 -12z m4389 5 c21 -14 3 -24 -67 -39 -63 -15 -78 -8 -43 19 36 28 85
36 110 20z m-4534 -57 c-11 -11 -19 6 -11 24 8 17 8 17 12 0 3 -10 2 -21 -1
-24z m44 7 c0 -5 -4 -10 -10 -10 -5 0 -10 5 -10 10 0 6 5 10 10 10 6 0 10 -4
10 -10z m-333 -93 c7 0 14 -6 17 -13 3 -7 19 -15 37 -19 19 -4 33 -15 37 -27
3 -11 10 -17 18 -14 9 3 14 -2 14 -14 0 -11 4 -20 8 -20 4 0 13 -15 20 -33 14
-38 15 -63 2 -32 -7 16 -9 13 -9 -15 -1 -20 3 -40 7 -45 5 -6 -1 -34 -14 -64
-17 -43 -23 -50 -31 -37 -7 12 -9 7 -10 -21 -1 -21 -6 -39 -12 -41 -6 -2 -11
-16 -11 -31 0 -24 4 -28 27 -27 24 1 30 -5 41 -39 7 -22 15 -47 19 -55 3 -8 5
-29 4 -46 -1 -18 3 -35 9 -39 6 -4 8 -22 5 -46 -3 -21 -2 -39 3 -39 5 0 12
-28 15 -63 7 -74 15 -97 32 -97 7 0 16 -12 18 -27 7 -38 5 -63 -5 -63 -5 0
-14 -11 -20 -25 -9 -20 -18 -25 -47 -25 -20 0 -44 7 -54 15 -11 7 -25 11 -33
8 -21 -8 -29 25 -10 46 18 20 21 47 7 56 -6 3 -13 26 -17 50 -3 25 -10 45 -14
45 -4 0 -12 25 -19 55 -7 30 -16 53 -20 51 -4 -3 -18 12 -29 33 -18 31 -22 55
-22 124 0 53 6 98 15 120 19 47 20 97 1 97 -8 0 -20 16 -26 36 -15 44 -45 76
-85 89 -25 8 -31 17 -37 55 -8 47 6 105 23 94 5 -3 12 2 15 11 9 22 64 45 94
38 14 -3 30 -6 37 -6z m7036 -104 c-13 -2 -33 -2 -45 0 -13 2 -3 4 22 4 25 0
35 -2 23 -4z m-80 -10 c-7 -2 -19 -2 -25 0 -7 3 -2 5 12 5 14 0 19 -2 13 -5z
m-58 -12 c7 -12 -12 -24 -25 -16 -11 7 -4 25 10 25 5 0 11 -4 15 -9z m120 2
c-58 -6 -62 -18 -7 -18 33 0 46 -4 44 -13 -1 -7 11 -15 28 -18 21 -5 30 -12
30 -25 0 -21 16 -26 22 -8 3 9 11 8 28 -1 33 -17 31 -15 24 -34 -8 -21 -23
-20 -40 2 -12 15 -13 15 -14 1 0 -22 25 -33 79 -33 26 -1 46 -6 48 -13 3 -8
-5 -13 -21 -13 -29 0 -42 -20 -31 -47 6 -17 7 -17 21 1 14 20 14 20 29 0 14
-19 14 -19 15 2 0 12 7 24 14 27 9 4 13 1 10 -7 -3 -8 5 -11 30 -8 18 2 37 -1
40 -7 4 -6 25 -11 47 -11 35 0 39 3 39 25 0 21 5 25 30 25 21 0 28 4 24 14 -3
7 2 16 10 19 13 5 16 -1 16 -26 0 -28 4 -33 24 -33 14 0 22 4 20 8 -3 5 -10 6
-15 3 -5 -4 -9 3 -9 13 0 13 10 24 30 31 24 8 30 7 30 -4 0 -9 6 -12 15 -9 8
4 22 1 30 -6 12 -10 15 -9 15 9 0 11 5 21 11 21 6 0 8 -12 5 -32 -5 -30 -5
-31 6 -10 15 30 32 28 26 -3 -7 -32 15 -33 30 -2 8 16 11 18 11 5 1 -9 4 -23
7 -32 5 -13 -2 -16 -35 -16 -40 0 -41 -1 -41 -35 0 -33 -14 -48 -22 -23 -7 20
-58 0 -58 -23 0 -19 -4 -20 -39 -14 -23 4 -48 2 -60 -5 -15 -8 -27 -8 -41 0
-14 7 -20 7 -20 0 0 -5 -17 -10 -37 -11 -40 -1 -99 -16 -73 -18 9 -1 6 -7 -10
-15 -18 -10 -42 -11 -88 -6 -35 4 -72 5 -84 2 -12 -3 -19 -1 -15 4 3 6 2 16
-4 24 -7 13 -9 12 -9 -2 0 -10 -4 -18 -10 -18 -5 0 -10 5 -10 11 0 6 -8 8 -19
4 -22 -7 -109 13 -129 29 -7 6 -23 19 -34 29 -14 13 -28 17 -46 13 -20 -5 -23
-4 -12 3 12 8 9 12 -13 20 l-28 11 6 77 c6 83 23 118 66 140 13 7 20 13 14 14
-21 3 62 16 100 16 l40 0 -40 -4z m151 -50 c-11 -12 -36 7 -36 29 l0 22 21
-23 c12 -12 19 -25 15 -28z m-5790 -4 c86 -8 112 -14 125 -29 9 -11 19 -16 23
-13 3 4 6 -3 6 -15 0 -12 5 -22 10 -22 6 0 10 -6 10 -14 0 -7 7 -19 15 -26 23
-19 -1 -44 -34 -35 -43 11 -125 14 -136 6 -15 -12 -145 -42 -185 -43 -21 -1
-36 4 -39 13 -2 8 -21 30 -42 49 -37 35 -42 46 -40 86 1 27 18 34 96 44 33 4
65 8 71 9 6 0 60 -4 120 -10z m5830 -26 c-10 -10 -19 5 -10 18 6 11 8 11 12 0
2 -7 1 -15 -2 -18z m164 -71 c0 -13 -12 -22 -22 -16 -10 6 -1 24 13 24 5 0 9
-4 9 -8z m60 -17 c0 -14 -4 -25 -10 -25 -5 0 -10 11 -10 25 0 14 5 25 10 25 6
0 10 -11 10 -25z m405 7 c0 -18 -20 -15 -23 4 -3 10 1 15 10 12 7 -3 13 -10
13 -16z m103 -12 c-14 -22 -24 -19 -15 5 4 8 11 15 17 15 6 0 6 -7 -2 -20z
m-79 -17 c-10 -12 -10 -16 1 -23 11 -7 11 -11 1 -24 -7 -9 -17 -13 -22 -10
-11 6 -8 54 3 54 4 0 8 7 8 16 0 8 5 12 10 9 8 -5 7 -12 -1 -22z m-49 -43 c0
-11 -7 -20 -15 -20 -17 0 -18 2 -9 24 9 23 24 20 24 -4z m-75 -20 c-3 -5 -10
-10 -16 -10 -5 0 -9 5 -9 10 0 6 7 10 16 10 8 0 12 -4 9 -10z m35 0 c0 -5 -2
-10 -4 -10 -3 0 -8 5 -11 10 -3 6 -1 10 4 10 6 0 11 -4 11 -10z m-470 -150 c0
-5 -7 -7 -15 -4 -8 4 -15 8 -15 10 0 2 7 4 15 4 8 0 15 -4 15 -10z m-6348
-906 c29 -3 57 -9 62 -14 5 -5 17 -5 28 1 10 5 23 7 29 4 19 -12 169 -32 175
-24 8 13 64 -19 64 -36 0 -8 -5 -15 -11 -15 -5 0 -8 -4 -5 -9 3 -4 -5 -6 -17
-4 -13 3 -84 -4 -157 -16 -74 -11 -217 -23 -317 -27 l-182 -6 -24 25 c-52 57
-1 120 95 116 46 -2 180 10 187 17 2 2 7 1 12 -2 4 -2 32 -7 61 -10z m828
-1019 c9 -11 9 -15 1 -15 -7 0 -9 -4 -6 -10 3 -6 -1 -7 -9 -4 -19 7 -20 0 -4
-26 10 -15 9 -22 -5 -38 -9 -10 -17 -35 -17 -55 0 -26 -4 -37 -15 -37 -8 0
-15 9 -15 20 0 11 5 20 10 20 6 0 10 7 10 15 0 8 -5 15 -11 15 -6 0 -8 11 -5
28 5 21 0 34 -20 55 -14 16 -23 31 -19 35 3 3 10 0 14 -7 7 -11 14 -10 37 3
36 19 39 19 54 1z m-361 -22 c10 -15 40 -23 46 -13 15 24 21 6 12 -30 -10 -35
-14 -39 -36 -34 -25 6 -25 6 -6 -9 11 -9 16 -17 12 -17 -5 0 3 -14 18 -32 l27
-32 -29 -14 c-15 -8 -32 -21 -36 -28 -4 -8 -16 -14 -25 -14 -10 0 -22 -4 -28
-10 -5 -5 -54 -19 -109 -31 -119 -24 -208 -22 -230 7 -16 22 -10 65 13 79 68
44 60 70 -24 81 -30 3 -57 10 -60 15 -3 5 2 6 11 3 11 -4 14 -2 9 9 -3 9 0 25
6 37 10 19 17 21 54 16 24 -4 55 -2 72 5 16 6 49 15 74 19 56 11 220 6 229 -7z
m-797 -45 c22 -6 43 -19 49 -29 7 -15 3 -20 -29 -30 -20 -6 -48 -22 -61 -35
-27 -27 -32 -28 -86 -11 -77 23 -136 87 -82 87 12 1 33 7 47 15 31 18 109 19
162 3z m325 -524 c40 -8 90 -14 111 -14 22 0 55 -7 74 -14 19 -8 45 -12 56 -9
17 4 22 1 22 -14 0 -14 11 -24 40 -33 22 -7 40 -19 40 -25 0 -15 -44 -35 -78
-35 -21 0 -24 -2 -12 -10 12 -8 9 -10 -11 -10 -15 0 -32 -7 -39 -15 -9 -11
-15 -13 -20 -5 -5 8 -19 6 -46 -8 -22 -11 -57 -23 -79 -26 -58 -9 -222 -11
-280 -2 -28 4 -62 9 -75 10 -14 2 -42 7 -63 11 -32 6 -36 9 -25 23 11 13 10
15 -4 9 -26 -9 -36 32 -12 50 10 7 24 13 32 13 25 0 82 41 82 58 0 9 8 27 18
39 27 34 117 37 269 7z m397 -115 c-7 -12 -44 -12 -44 0 0 5 6 11 13 14 17 6
38 -3 31 -14z m3294 -2957 c2 -33 0 -42 -12 -42 -12 0 -16 11 -16 46 0 59 24
55 28 -4z m2 -532 c0 -11 -7 -20 -15 -20 -17 0 -18 2 -9 24 9 23 24 20 24 -4z
m70 -51 c0 -8 -72 -18 -84 -11 -4 2 -4 7 2 11 13 8 82 8 82 0z m146 -85 c-11
-7 -22 -12 -25 -9 -2 3 4 12 15 19 10 8 21 12 24 9 3 -2 -4 -11 -14 -19z m31
-36 c-3 -7 -5 -2 -5 12 0 14 2 19 5 13 2 -7 2 -19 0 -25z m-607 -1622 c0 -8
-7 -21 -15 -30 -8 -8 -15 -21 -15 -29 0 -19 -9 -27 -26 -20 -22 8 -17 31 12
49 14 9 23 23 20 30 -3 8 1 14 9 14 8 0 15 -6 15 -14z m-35 -126 c12 -20 -18
-70 -42 -70 -27 0 -29 6 -8 26 8 9 15 24 15 35 0 20 24 26 35 9z m-90 -91 c5
-5 19 -9 31 -9 30 0 46 -23 38 -54 -10 -40 -20 -40 -64 4 -22 22 -49 40 -60
40 -10 0 -24 8 -29 18 -8 15 -5 17 32 14 23 -2 46 -8 52 -13z m-60 -89 c3 -5
1 -10 -4 -10 -6 0 -11 5 -11 10 0 6 2 10 4 10 3 0 8 -4 11 -10z m5 -120 c0 -5
-4 -10 -10 -10 -5 0 -10 5 -10 10 0 6 5 10 10 10 6 0 10 -4 10 -10z m-60 -50
c0 -5 -2 -10 -4 -10 -3 0 -8 5 -11 10 -3 6 -1 10 4 10 6 0 11 -4 11 -10z
m-214 -797 c-10 -10 -19 5 -10 18 6 11 8 11 12 0 2 -7 1 -15 -2 -18z"/>
<path d="M3938 11473 c12 -2 32 -2 45 0 12 2 2 4 -23 4 -25 0 -35 -2 -22 -4z"/>
<path d="M3538 11435 c18 -13 27 -14 35 -6 8 8 7 11 -5 11 -9 0 -25 3 -35 6
-13 5 -11 1 5 -11z"/>
<path d="M8480 9435 c0 -16 16 -20 24 -6 3 5 -1 11 -9 15 -9 3 -15 0 -15 -9z"/>
<path d="M8027 9434 c-4 -4 -7 -14 -7 -23 0 -11 3 -12 11 -4 6 6 10 16 7 23
-2 6 -7 8 -11 4z"/>
<path d="M8345 9430 c3 -5 12 -10 20 -10 8 0 17 5 20 10 4 6 -5 10 -20 10 -15
0 -24 -4 -20 -10z"/>
<path d="M8178 9413 c-33 -8 -18 -23 22 -23 22 0 40 5 40 10 0 6 -4 10 -9 10
-5 0 -15 2 -23 4 -7 2 -21 2 -30 -1z"/>
<path d="M8268 9383 c6 -2 18 -2 25 0 6 3 1 5 -13 5 -14 0 -19 -2 -12 -5z"/>
<path d="M8390 9360 c8 -5 20 -10 25 -10 6 0 3 5 -5 10 -8 5 -19 10 -25 10 -5
0 -3 -5 5 -10z"/>
<path d="M8124 9325 c9 -23 -4 -45 -27 -45 -11 0 -18 -3 -14 -6 3 -3 19 -3 35
1 24 5 30 11 28 30 0 14 -7 27 -15 30 -9 3 -11 0 -7 -10z"/>
<path d="M5940 14576 c0 -9 5 -16 10 -16 6 0 10 4 10 9 0 6 -4 13 -10 16 -5 3
-10 -1 -10 -9z"/>
<path d="M12562 14168 c-2 -73 -5 -87 -19 -91 -17 -4 -17 -4 0 -12 28 -12 32
3 26 100 l-5 90 -2 -87z"/>
<path d="M13150 14170 c0 -5 5 -10 10 -10 6 0 10 5 10 10 0 6 -4 10 -10 10 -5
0 -10 -4 -10 -10z"/>
<path d="M13383 14153 c9 -2 25 -2 35 0 9 3 1 5 -18 5 -19 0 -27 -2 -17 -5z"/>
<path d="M8065 13983 c-19 -4 -99 -39 -158 -69 -16 -8 -32 -12 -37 -9 -5 3
-20 1 -34 -5 -19 -7 -29 -6 -40 5 -12 13 -16 13 -26 0 -9 -11 -16 -12 -30 -3
-14 9 -27 8 -57 -5 -23 -10 -63 -17 -103 -16 -136 1 -167 -2 -235 -26 -38 -13
-64 -24 -57 -25 21 0 13 -20 -8 -20 -22 0 -28 -26 -7 -33 6 -2 8 -8 4 -13 -4
-4 -17 -2 -29 5 -11 7 -32 15 -46 17 -14 3 -31 13 -38 22 -16 22 -23 14 -23
-24 0 -16 0 -48 -1 -71 0 -36 5 -47 35 -74 19 -17 32 -36 29 -40 -3 -5 0 -9 6
-9 7 0 24 -8 38 -18 15 -11 47 -25 72 -31 54 -15 160 -21 160 -9 0 4 5 8 11 8
8 0 9 -4 0 -13 -17 -21 -1 -28 25 -10 14 9 38 14 59 11 19 -2 35 0 35 4 0 4 8
8 19 8 10 0 24 6 30 13 6 8 28 13 53 12 27 -1 53 6 70 17 29 20 58 24 58 8 0
-17 16 -11 46 17 16 15 36 26 45 25 9 -2 22 4 29 13 7 8 21 15 31 15 10 0 21
5 24 10 3 6 0 10 -7 10 -10 0 -9 3 2 10 9 5 19 5 26 -1 8 -7 14 -7 18 0 4 5
32 13 64 17 68 8 93 17 115 39 15 15 17 15 17 1 0 -9 7 -16 15 -16 8 0 14 6
13 13 -2 7 6 12 19 11 12 0 20 3 18 7 -3 4 17 15 43 24 59 21 129 67 122 80
-3 6 -26 8 -52 7 -28 -2 -48 0 -48 6 0 6 -8 13 -19 17 -10 3 -37 23 -60 44
-31 29 -53 40 -88 45 -49 6 -116 6 -148 -1z m156 -126 c34 -12 36 -14 23 -32
-10 -14 -25 -18 -64 -17 -56 1 -70 7 -70 28 0 9 11 14 36 14 21 0 33 4 29 10
-8 13 2 12 46 -3z"/>
<path d="M11473 13868 c-22 -7 -33 -17 -33 -29 0 -13 -8 -19 -22 -20 -22 -1
-22 -1 2 -9 21 -7 18 -8 -20 -11 l-45 -2 45 -6 c44 -6 44 -6 15 -14 -55 -16
-63 -57 -10 -57 29 0 35 4 36 23 l1 22 6 -23 c8 -28 26 -30 31 -5 2 10 8 21
15 25 7 5 6 8 -4 8 -12 1 -11 4 4 15 10 7 15 18 12 24 -4 5 -2 12 4 16 5 3 10
1 10 -4 0 -6 5 -11 10 -11 14 0 12 32 -4 53 -7 9 -15 17 -17 16 -2 -1 -19 -6
-36 -11z"/>
<path d="M11348 13697 c-3 -19 -2 -25 4 -19 6 6 8 18 6 28 -3 14 -5 12 -10 -9z"/>
<path d="M11380 13675 c0 -3 10 -10 23 -15 19 -9 18 -10 -10 -7 -25 3 -33 0
-33 -12 0 -13 12 -16 55 -16 37 0 55 4 55 13 0 6 -7 12 -15 12 -8 0 -15 4 -15
9 0 5 9 7 20 4 11 -3 20 0 20 6 0 7 -20 11 -50 11 -27 0 -50 -2 -50 -5z"/>
<path d="M10957 13601 c-16 -6 -17 -9 -4 -19 8 -7 22 -10 31 -6 34 13 7 37
-27 25z"/>
<path d="M11433 13603 c9 -2 23 -2 30 0 6 3 -1 5 -18 5 -16 0 -22 -2 -12 -5z"/>
<path d="M11325 13570 c-3 -5 1 -10 9 -10 8 0 18 5 21 10 3 6 -1 10 -9 10 -8
0 -18 -4 -21 -10z"/>
<path d="M17200 13370 c0 -5 5 -10 11 -10 5 0 7 5 4 10 -3 6 -8 10 -11 10 -2
0 -4 -4 -4 -10z"/>
<path d="M11520 13360 c0 -5 5 -10 11 -10 5 0 7 5 4 10 -3 6 -8 10 -11 10 -2
0 -4 -4 -4 -10z"/>
<path d="M11520 13330 c0 -5 11 -10 25 -10 14 0 25 5 25 10 0 6 -11 10 -25 10
-14 0 -25 -4 -25 -10z"/>
<path d="M6198 13283 c7 -3 16 -2 19 1 4 3 -2 6 -13 5 -11 0 -14 -3 -6 -6z"/>
<path d="M7275 13281 c-3 -5 -1 -12 5 -16 5 -3 10 1 10 9 0 18 -6 21 -15 7z"/>
<path d="M11600 13270 c0 -5 4 -10 9 -10 6 0 13 5 16 10 3 6 -1 10 -9 10 -9 0
-16 -4 -16 -10z"/>
<path d="M6777 12711 c-5 -22 1 -33 14 -25 12 7 12 44 0 44 -5 0 -11 -9 -14
-19z"/>
<path d="M10218 12323 c7 -3 16 -2 19 1 4 3 -2 6 -13 5 -11 0 -14 -3 -6 -6z"/>
<path d="M7920 12260 c0 -5 7 -10 15 -10 8 0 15 5 15 10 0 6 -7 10 -15 10 -8
0 -15 -4 -15 -10z"/>
<path d="M7640 12230 c0 -5 5 -10 10 -10 6 0 10 5 10 10 0 6 -4 10 -10 10 -5
0 -10 -4 -10 -10z"/>
<path d="M7602 12180 c0 -14 2 -19 5 -12 2 6 2 18 0 25 -3 6 -5 1 -5 -13z"/>
<path d="M7627 12130 c-5 -21 7 -35 22 -26 10 7 3 46 -9 46 -4 0 -10 -9 -13
-20z"/>
<path d="M8398 12111 c-17 -6 -16 -7 2 -18 13 -9 21 -9 26 -2 9 15 -8 28 -28
20z"/>
<path d="M9745 12090 c-3 -5 -1 -10 4 -10 6 0 11 5 11 10 0 6 -2 10 -4 10 -3
0 -8 -4 -11 -10z"/>
<path d="M9770 11560 c0 -5 9 -10 20 -10 11 0 20 5 20 10 0 6 -9 10 -20 10
-11 0 -20 -4 -20 -10z"/>
<path d="M9360 11051 c0 -8 -7 -11 -17 -6 -15 5 -16 4 -5 -6 9 -10 15 -10 24
-1 6 6 9 15 5 19 -4 3 -7 1 -7 -6z"/>
<path d="M9362 10980 c0 -14 2 -19 5 -12 2 6 2 18 0 25 -3 6 -5 1 -5 -13z"/>
<path d="M12127 10950 c-50 -40 -122 -194 -194 -415 -19 -60 -39 -115 -44
-121 -5 -6 -7 -13 -4 -16 3 -2 -5 -40 -17 -84 -11 -43 -25 -99 -29 -124 -4
-25 -13 -70 -18 -100 -43 -222 -47 -690 -10 -1195 23 -329 22 -318 59 -545 17
-107 40 -249 50 -315 11 -66 23 -133 29 -150 5 -16 17 -68 26 -115 9 -47 21
-101 25 -120 5 -19 18 -71 29 -115 30 -123 59 -234 80 -300 10 -33 38 -121 61
-195 23 -74 52 -166 65 -205 12 -38 32 -104 44 -145 43 -150 53 -186 69 -229
8 -25 16 -59 18 -75 5 -60 17 -121 24 -131 5 -5 11 -28 15 -50 4 -22 11 -44
15 -50 4 -5 10 -21 13 -35 2 -14 16 -63 30 -110 14 -47 30 -108 35 -135 6 -28
16 -64 23 -80 7 -17 14 -39 16 -50 2 -10 7 -22 12 -25 4 -3 11 -18 14 -35 17
-90 45 -187 72 -250 10 -25 46 -136 49 -155 1 -3 6 -12 11 -20 5 -8 29 -53 54
-100 72 -138 106 -198 122 -210 3 -3 13 -19 22 -36 9 -18 30 -46 47 -62 16
-17 30 -36 30 -42 0 -6 3 -9 8 -7 4 2 15 -4 25 -15 9 -10 14 -18 10 -18 -5 0
0 -6 9 -13 9 -8 18 -20 20 -27 2 -8 13 -23 25 -35 12 -12 22 -30 23 -41 0 -10
2 -49 3 -85 1 -37 8 -74 15 -82 8 -9 9 -18 3 -21 -5 -4 -10 -36 -10 -71 0 -36
-2 -69 -5 -73 -5 -8 -12 -43 -21 -102 -12 -78 -19 -106 -25 -115 -4 -5 -8 -32
-9 -59 0 -26 -5 -54 -12 -62 -6 -7 -8 -18 -4 -24 4 -6 0 -26 -9 -45 -9 -18
-14 -44 -12 -57 2 -12 -1 -29 -6 -35 -7 -9 -6 -18 2 -28 13 -16 11 -39 -14
-124 -11 -41 -12 -58 -4 -68 8 -10 8 -17 0 -25 -7 -7 -12 -20 -12 -30 0 -10
-5 -18 -11 -18 -8 0 -8 -4 0 -14 12 -14 5 -46 -12 -58 -6 -3 -12 -17 -13 -30
-2 -12 -6 -37 -10 -55 -3 -18 -2 -45 4 -60 7 -22 6 -32 -5 -42 -10 -9 -13 -25
-10 -47 3 -19 1 -36 -4 -39 -5 -4 -9 -15 -9 -25 0 -10 -5 -20 -10 -22 -6 -2
-13 -37 -16 -78 -3 -41 -8 -77 -12 -80 -4 -3 -8 -35 -8 -72 -1 -37 -5 -75 -9
-85 -14 -34 -14 -29 -30 -293 -10 -169 -10 -185 -2 -204 6 -12 5 -21 -3 -26
-16 -10 -17 -85 -1 -104 9 -11 8 -17 -4 -29 -13 -13 -14 -24 -5 -64 7 -27 8
-74 5 -107 -6 -44 -4 -61 6 -67 9 -5 10 -9 2 -9 -8 0 -8 -9 0 -36 8 -26 8 -40
-1 -54 -6 -11 -10 -25 -7 -32 9 -25 12 -103 4 -113 -4 -6 -9 -37 -10 -70 -1
-33 -4 -64 -8 -70 -9 -17 -8 -75 2 -75 5 0 4 -7 -3 -14 -6 -8 -10 -34 -9 -58
2 -24 -1 -49 -5 -56 -5 -8 -2 -10 8 -6 22 9 21 -22 -1 -31 -17 -7 -16 -8 2
-15 11 -5 14 -9 8 -9 -19 -1 -16 -60 2 -67 20 -8 19 -33 -2 -56 -14 -16 -15
-23 -5 -38 7 -11 12 -50 12 -86 0 -52 -4 -70 -17 -80 -17 -13 -17 -13 0 -14
11 0 20 -10 24 -30 3 -16 9 -30 13 -30 11 0 40 46 40 63 0 8 9 22 19 31 11 10
23 37 26 59 4 23 11 47 15 52 4 6 10 19 13 30 2 11 6 -41 7 -115 2 -175 3
-179 43 -248 24 -41 37 -78 43 -123 4 -35 8 -66 9 -69 1 -3 5 -24 10 -47 4
-24 11 -43 16 -43 5 0 9 -6 9 -14 0 -21 108 -113 206 -176 13 -8 31 -29 41
-47 17 -32 19 -33 85 -33 52 0 68 3 68 14 0 8 6 17 13 19 10 4 10 6 0 6 -7 1
-13 9 -13 19 0 14 2 15 10 2 5 -8 10 -10 10 -5 0 29 216 213 268 229 24 8 46
53 43 91 -1 17 3 36 8 44 7 10 11 2 15 -30 3 -24 11 -89 17 -144 14 -108 15
-211 4 -288 -4 -27 -4 -73 0 -103 l6 -54 250 0 c234 0 250 1 245 18 -9 29 -55
294 -60 342 -3 25 -9 79 -15 120 -5 41 -12 111 -16 155 -3 44 -10 127 -15 185
-5 58 -11 173 -15 255 -3 83 -7 177 -10 210 -3 33 -7 105 -10 160 -3 55 -10
154 -15 220 -5 66 -12 161 -16 210 -3 50 -8 108 -9 130 -2 22 -6 90 -10 150
-3 61 -8 121 -11 135 -5 23 -9 81 -18 255 -3 66 6 188 19 265 4 26 3 31 -4 20
-14 -19 -14 -9 -1 25 7 17 7 24 0 20 -6 -3 -10 3 -10 14 0 12 -4 21 -9 21 -5
0 -12 25 -16 55 -3 30 -10 55 -15 55 -8 0 -17 56 -25 155 -7 99 -14 178 -19
210 -4 29 -11 109 -21 245 -6 85 -10 117 -55 445 -6 44 -11 95 -10 113 0 19
-3 31 -7 29 -5 -3 -8 12 -8 34 1 88 -12 191 -26 200 -8 5 -9 9 -3 9 7 0 14 9
17 21 4 14 10 18 18 13 9 -5 10 -2 6 9 -4 10 0 20 11 26 9 5 14 12 11 15 -3 4
14 26 38 51 23 25 43 52 43 60 0 10 5 13 12 9 7 -5 9 -2 5 9 -3 9 -2 17 3 19
15 5 62 260 50 272 -5 5 -10 17 -10 26 0 13 1 13 10 0 6 -10 8 -3 3 23 -4 28
-2 37 8 37 8 0 2 11 -14 25 -15 14 -27 34 -27 45 0 10 -4 22 -10 25 -5 3 -10
15 -10 26 0 10 -4 19 -10 19 -5 0 -9 3 -8 8 4 17 -17 60 -49 100 -27 33 -33
48 -29 70 18 80 28 259 31 529 1 166 6 306 10 312 12 20 24 12 40 -24 23 -56
28 -122 31 -385 2 -179 7 -261 18 -305 27 -106 48 -195 51 -218 5 -41 55 -157
67 -157 5 0 8 -8 8 -19 0 -10 9 -21 20 -24 13 -3 18 -10 14 -21 -7 -19 21 -22
33 -3 9 14 20 -28 22 -87 1 -53 55 -159 106 -212 24 -24 45 -48 47 -54 2 -7
10 -5 23 4 18 14 18 15 3 16 -20 0 -24 20 -8 36 8 8 6 15 -5 24 -8 7 -15 19
-15 26 0 8 -6 14 -12 14 -9 0 -8 4 2 10 13 9 13 11 0 20 -8 5 -15 15 -15 22
-1 7 -6 31 -13 53 -9 31 -9 52 2 97 7 32 9 62 5 70 -5 7 -9 34 -9 59 0 46 -18
84 -41 84 -16 0 -22 94 -7 112 8 9 7 13 -2 13 -16 0 -8 96 14 170 28 94 16
289 -24 415 -11 33 -25 85 -31 115 -6 30 -15 60 -19 65 -4 6 -11 30 -15 55 -4
25 -11 50 -15 55 -4 6 -13 43 -20 83 -7 40 -17 75 -22 78 -4 3 -8 17 -8 31 0
14 -7 39 -15 56 -8 18 -21 59 -29 92 -8 33 -24 92 -36 130 -12 39 -23 77 -25
85 -2 8 -22 69 -44 135 -22 66 -41 129 -41 140 0 12 -4 25 -8 30 -5 6 -17 47
-27 93 -10 45 -22 82 -27 82 -4 0 -8 11 -8 24 0 23 -19 96 -42 161 -5 17 -11
37 -12 45 -5 34 -19 86 -25 95 -3 6 -6 19 -7 30 -1 11 -9 54 -18 95 -9 42 -18
97 -21 123 -4 26 -12 65 -20 87 -8 22 -12 40 -9 40 2 0 -5 18 -16 40 -11 21
-20 56 -20 78 0 21 -9 80 -19 132 -11 52 -22 114 -25 138 -3 24 -8 47 -10 51
-6 9 -24 121 -30 183 -3 24 -9 64 -15 89 -6 25 -15 111 -21 190 -6 79 -15 187
-20 239 -18 169 -14 320 18 604 5 38 12 61 21 64 10 3 12 0 8 -11 -6 -15 20
-33 31 -22 8 7 4 68 -9 166 -6 47 -9 105 -6 130 7 71 38 213 49 226 5 7 13 36
18 65 10 64 42 157 56 166 6 4 14 27 18 51 4 24 13 53 21 64 32 46 7 87 -53
87 l-37 -1 34 -18 c30 -16 32 -19 15 -24 -10 -4 -46 -7 -79 -8 -33 -1 -68 -6
-77 -11 -14 -7 -22 -2 -37 23 -21 34 -64 61 -85 53 -7 -3 -21 2 -30 11 -9 9
-16 13 -16 9 0 -3 -6 -2 -12 4 -23 18 -75 23 -121 11 -26 -6 -44 -15 -41 -20
11 -18 -12 -8 -29 12 -14 16 -21 18 -32 9 -9 -8 -15 -8 -20 0 -4 6 -12 10 -18
9 -21 -4 -51 14 -78 44 l-25 30 -28 -18 c-28 -18 -29 -18 -42 -1 -8 12 -24 18
-41 17 -69 -3 -111 -9 -122 -15 -6 -4 -11 -3 -11 3 0 6 -11 6 -31 -1 -38 -13
-147 -3 -168 16 -9 7 -27 17 -40 21 -31 9 -101 12 -101 3 0 -3 -10 -4 -22 0
-16 4 -19 2 -13 -8 5 -8 4 -11 -2 -7 -6 4 -25 2 -44 -3 -29 -8 -37 -7 -59 14
-14 13 -30 22 -36 19 -7 -2 -11 3 -10 12 1 11 -14 22 -44 32 -25 8 -49 19 -55
23 -8 6 -103 30 -119 30 -2 0 -15 -9 -29 -20z m1886 -4148 c8 -10 7 -16 -4
-23 -12 -8 -10 -12 8 -27 12 -9 34 -51 49 -92 14 -41 32 -82 39 -90 7 -8 15
-33 18 -55 3 -22 11 -60 17 -85 6 -25 13 -64 15 -88 l3 -42 -20 22 c-25 29
-89 121 -107 155 -31 59 -29 213 3 213 8 0 8 3 0 8 -27 18 -49 88 -45 137 5
45 6 46 9 15 2 -19 9 -41 15 -48z"/>
<path d="M7550 10844 c0 -8 5 -12 10 -9 6 3 10 10 10 16 0 5 -4 9 -10 9 -5 0
-10 -7 -10 -16z"/>
<path d="M9200 10613 c0 -21 3 -24 9 -14 5 8 7 20 4 28 -8 21 -13 15 -13 -14z"/>
<path d="M9266 10471 c-4 -7 -5 -15 -2 -18 9 -9 19 4 14 18 -4 11 -6 11 -12 0z"/>
<path d="M9410 9980 c0 -5 7 -10 15 -10 8 0 15 5 15 10 0 6 -7 10 -15 10 -8 0
-15 -4 -15 -10z"/>
<path d="M9420 9940 c0 -5 5 -10 10 -10 6 0 10 5 10 10 0 6 -4 10 -10 10 -5 0
-10 -4 -10 -10z"/>
<path d="M151 9584 c0 -11 3 -14 6 -6 3 7 2 16 -1 19 -3 4 -6 -2 -5 -13z"/>
<path d="M14405 7995 c3 -149 10 -223 24 -280 18 -69 2 228 -18 350 -8 52 -9
42 -6 -70z"/>
<path d="M14430 7660 c0 -5 5 -10 10 -10 6 0 10 5 10 10 0 6 -4 10 -10 10 -5
0 -10 -4 -10 -10z"/>
<path d="M14110 7660 c-8 -21 -9 -198 -1 -210 17 -25 25 -2 22 73 -2 62 -15
152 -21 137z"/>
<path d="M14451 7524 c0 -11 3 -14 6 -6 3 7 2 16 -1 19 -3 4 -6 -2 -5 -13z"/>
<path d="M14460 7395 c0 -19 4 -35 8 -35 4 0 6 16 4 35 -2 19 -6 35 -8 35 -2
0 -4 -16 -4 -35z"/>
<path d="M14460 7330 c0 -5 5 -10 10 -10 6 0 10 5 10 10 0 6 -4 10 -10 10 -5
0 -10 -4 -10 -10z"/>
<path d="M14480 7182 c0 -30 4 -52 11 -52 6 0 8 17 5 46 -7 64 -16 68 -16 6z"/>
<path d="M14190 7210 c0 -5 4 -10 8 -10 12 0 44 -77 48 -114 1 -17 4 -33 4
-36 1 -3 1 -15 1 -27 -1 -11 3 -24 8 -28 6 -3 11 -20 11 -36 0 -16 6 -45 14
-64 8 -18 12 -35 10 -38 -3 -2 0 -17 6 -32 6 -16 19 -72 30 -126 10 -53 30
-121 43 -151 39 -81 56 -126 83 -208 23 -73 32 -103 74 -243 11 -38 26 -83 34
-100 8 -18 26 -66 41 -107 16 -41 32 -81 38 -88 5 -7 7 -15 4 -19 -4 -3 -3
-11 2 -17 5 -6 14 -42 20 -81 13 -76 37 -166 54 -203 6 -13 10 -37 9 -54 -2
-18 4 -35 13 -42 13 -9 14 -17 6 -39 -21 -54 -69 -9 -143 133 -16 30 -35 60
-41 65 -14 11 -40 64 -52 105 -17 59 -28 54 -52 -25 -12 -42 -21 -91 -19 -108
3 -19 -2 -39 -11 -49 -13 -15 -13 -20 1 -49 9 -18 16 -38 16 -46 0 -7 5 -13
11 -13 8 0 10 -17 6 -54 -3 -29 -1 -58 4 -63 4 -4 10 -31 13 -58 2 -28 5 -50
6 -50 1 0 3 -29 6 -65 2 -35 8 -78 14 -95 5 -16 14 -61 20 -100 6 -38 16 -80
22 -93 9 -17 9 -25 0 -34 -18 -18 -14 -28 9 -28 18 0 20 -5 16 -27 -5 -28 10
-73 25 -73 4 0 8 -7 8 -15 0 -12 4 -13 19 -5 29 15 30 13 21 -20 -7 -26 -6
-30 11 -30 15 0 19 7 19 36 0 20 3 34 8 32 68 -34 75 -44 47 -71 -11 -12 -12
-17 -2 -20 9 -4 9 -6 0 -6 -14 -1 -18 -31 -5 -31 4 0 4 -27 -2 -61 -8 -50 -7
-62 4 -70 22 -15 111 -4 163 20 25 12 51 21 56 21 6 0 11 8 11 18 0 10 16 26
38 37 20 11 39 22 42 25 38 39 58 34 95 -24 15 -24 57 -69 93 -102 36 -32 83
-76 105 -97 21 -20 51 -40 65 -44 15 -3 41 -15 57 -25 17 -10 38 -18 47 -18
10 0 25 -8 35 -19 10 -10 27 -21 38 -25 34 -10 63 -82 67 -165 3 -51 8 -77 19
-85 17 -12 21 -108 4 -102 -5 2 -23 -6 -39 -17 -16 -11 -51 -24 -77 -28 -115
-18 -133 -54 -74 -144 43 -63 59 -75 109 -75 29 0 36 4 36 20 0 11 5 20 10 20
6 0 10 6 10 13 0 8 12 19 26 26 22 10 30 9 44 -4 9 -8 24 -15 33 -15 24 0 21
-14 -5 -25 -14 -6 -29 -27 -38 -52 -13 -38 -13 -45 0 -57 21 -21 96 -36 109
-23 8 8 15 5 25 -9 15 -19 15 -18 10 2 -3 12 -1 25 5 28 13 8 15 48 3 61 -12
14 -30 81 -37 138 -4 26 -9 47 -13 47 -9 0 -41 138 -39 170 1 14 6 31 10 37 5
8 0 19 -13 30 -12 11 -20 30 -20 49 0 24 -4 31 -17 30 -14 -1 -19 9 -23 44 -3
25 -11 54 -17 65 -5 11 -13 35 -16 53 -4 18 -16 42 -27 54 -11 12 -20 29 -20
38 0 9 -9 34 -19 56 -12 25 -19 60 -19 94 0 90 -39 257 -69 292 -8 9 -12 21
-9 27 4 5 2 12 -3 16 -16 10 -41 65 -29 65 6 0 3 9 -6 19 -10 11 -19 32 -19
48 -1 15 -7 33 -13 38 -17 15 -28 55 -14 55 6 0 -3 13 -20 30 -16 16 -30 36
-30 45 0 8 -3 15 -8 15 -4 0 -16 16 -26 35 -11 19 -23 35 -28 35 -4 0 -7 3 -6
8 4 15 -14 72 -22 72 -5 0 -7 7 -4 15 4 8 1 15 -6 15 -7 0 -10 6 -7 14 3 8 2
29 -3 47 -5 18 -12 48 -14 68 -3 20 -10 79 -17 131 -7 52 -16 99 -21 104 -4 6
-8 23 -8 38 0 15 -3 28 -8 28 -4 0 -20 40 -36 90 -17 54 -33 87 -39 83 -6 -3
-7 -1 -3 6 4 6 3 17 -2 24 -6 7 -20 41 -32 77 -37 112 -93 226 -125 256 -12
11 -24 25 -26 31 -2 6 -14 14 -26 17 -17 6 -23 3 -23 -8 0 -9 -7 -16 -15 -16
-8 0 -15 -5 -15 -10 0 -6 7 -13 15 -16 10 -4 15 -20 15 -44 0 -21 4 -40 8 -42
15 -6 50 -115 42 -128 -5 -8 -4 -22 1 -32 5 -10 7 -34 3 -53 -6 -34 7 -84 30
-114 6 -8 12 -24 13 -35 1 -12 5 -33 9 -48 5 -22 3 -28 -10 -28 -24 0 -19 -17
7 -25 l22 -8 -22 -4 c-29 -6 -30 -19 -2 -26 13 -4 20 -12 17 -24 -5 -25 -39
-23 -62 6 -22 27 -60 153 -58 193 1 20 -3 26 -13 21 -11 -4 -15 2 -15 21 0 15
-7 40 -15 57 -9 16 -13 34 -10 39 3 6 1 10 -5 10 -7 0 -9 8 -5 20 4 12 2 20
-5 20 -6 0 -10 6 -7 13 2 6 -2 27 -9 46 -8 18 -14 53 -14 77 0 24 -4 44 -9 44
-7 0 -17 39 -26 105 -1 6 -5 18 -10 28 -4 10 -2 23 4 31 9 11 9 22 -3 49 -8
20 -11 39 -8 43 4 4 2 4 -4 1 -7 -4 -18 14 -29 48 -9 30 -21 57 -26 61 -5 3
-9 14 -9 25 0 16 -5 19 -22 14 -13 -3 -18 -3 -13 2 15 11 13 63 -2 63 -6 0
-11 8 -11 18 1 19 -49 209 -60 226 -3 6 -8 31 -10 56 -2 24 -7 47 -13 51 -5 3
-12 34 -14 68 -5 67 -10 81 -27 81 -7 0 -8 -13 -3 -37 11 -53 13 -84 15 -195
2 -113 -9 -138 -45 -102 -24 23 -62 100 -93 184 -32 88 -93 203 -120 228 -26
23 -52 29 -52 12z m810 -1709 c0 -5 -7 -12 -16 -15 -22 -9 -24 -8 -24 9 0 8 9
15 20 15 11 0 20 -4 20 -9z m-235 -211 c3 -5 1 -10 -4 -10 -6 0 -11 5 -11 10
0 6 2 10 4 10 3 0 8 -4 11 -10z m995 -1440 c0 -5 -5 -10 -11 -10 -5 0 -7 5 -4
10 3 6 8 10 11 10 2 0 4 -4 4 -10z"/>
<path d="M14760 6295 c0 -10 7 -15 18 -13 21 4 19 22 -2 26 -10 2 -16 -3 -16
-13z"/>
<path d="M14815 6270 c-3 -5 1 -10 10 -10 9 0 13 5 10 10 -3 6 -8 10 -10 10
-2 0 -7 -4 -10 -10z"/>
<path d="M4520 6030 c0 -5 5 -10 10 -10 6 0 10 5 10 10 0 6 -4 10 -10 10 -5 0
-10 -4 -10 -10z"/>
<path d="M4348 5883 c7 -3 16 -2 19 1 4 3 -2 6 -13 5 -11 0 -14 -3 -6 -6z"/>
<path d="M1521 5824 c0 -11 3 -14 6 -6 3 7 2 16 -1 19 -3 4 -6 -2 -5 -13z"/>
<path d="M813 5512 c-48 -4 -48 -3 -28 -87 8 -33 15 -78 15 -100 0 -39 41
-144 57 -146 4 0 21 -3 36 -5 21 -4 57 9 130 47 56 28 108 57 115 63 20 19 43
145 30 166 -13 20 -97 27 -109 9 -5 -8 -12 -8 -28 1 -12 6 -36 12 -53 12 -21
1 -33 8 -41 25 -8 19 -17 23 -46 21 -20 -2 -55 -4 -78 -6z"/>
<path d="M18630 4358 c0 -48 4 -47 18 5 8 30 8 37 -4 37 -10 0 -14 -12 -14
-42z"/>
<path d="M15367 4154 c-3 -4 5 -21 18 -38 13 -17 25 -42 27 -55 5 -36 23 -36
41 1 18 37 8 60 -38 84 -30 16 -39 17 -48 8z"/>
<path d="M4748 3763 c7 -3 16 -2 19 1 4 3 -2 6 -13 5 -11 0 -14 -3 -6 -6z"/>
<path d="M4720 3735 c0 -9 5 -15 11 -13 6 2 11 8 11 13 0 5 -5 11 -11 13 -6 2
-11 -4 -11 -13z"/>
<path d="M3155 3530 c-9 -17 -13 -40 -10 -50 7 -21 -16 -154 -45 -265 -16 -62
-32 -147 -87 -460 -8 -49 -22 -100 -29 -112 -15 -24 -48 -31 -59 -13 -3 6 -17
10 -31 10 -14 0 -33 4 -43 10 -19 9 -47 17 -118 29 -23 4 -48 12 -55 18 -7 5
-35 16 -63 23 -27 6 -64 18 -82 26 -17 8 -37 14 -45 14 -7 0 -26 8 -43 18 -16
10 -82 38 -145 61 -63 24 -119 46 -125 49 -5 4 -16 7 -22 8 -7 1 -41 11 -75
22 -35 11 -88 25 -118 32 -94 21 -172 47 -258 85 -46 20 -89 38 -95 39 -7 1
-16 4 -22 7 -5 3 -32 12 -60 18 -27 7 -57 15 -65 18 -8 3 -22 7 -30 8 -8 2
-53 17 -100 35 -47 17 -98 35 -115 40 -16 5 -75 23 -130 40 -55 18 -138 41
-185 51 -47 11 -98 24 -115 30 -16 6 -48 15 -70 21 -22 5 -47 12 -55 15 -8 3
-22 7 -30 9 -53 10 -105 27 -138 44 -20 11 -43 20 -51 20 -7 0 -28 8 -45 19
-17 10 -56 26 -86 36 -30 10 -64 21 -75 25 -17 7 -192 30 -224 30 -7 0 -11
-55 -11 -164 l0 -164 33 -6 c38 -7 53 -23 86 -91 14 -28 31 -58 39 -67 8 -9
11 -22 7 -28 -3 -6 -1 -9 5 -8 12 3 41 -87 32 -97 -12 -11 -21 -3 -43 41 -13
26 -28 55 -34 66 -8 16 -19 18 -65 16 l-55 -3 -3 -1518 -2 -1517 374 0 373 0
7 39 c6 37 7 39 55 45 28 4 53 12 57 18 10 16 22 -18 23 -64 l1 -38 1770 0
c1660 0 1771 1 1790 17 20 17 28 53 12 53 -4 0 -14 -6 -21 -13 -11 -10 -13 -7
-8 14 4 15 0 34 -9 48 -9 12 -13 28 -11 35 7 18 -3 28 -17 17 -6 -4 -35 -11
-65 -15 l-54 -7 5 51 c5 47 3 54 -27 86 -18 19 -37 34 -44 34 -6 0 -11 12 -12
28 -1 69 -10 198 -13 207 -2 6 2 19 10 30 20 27 17 52 -6 58 -17 4 -20 14 -21
69 -1 52 -3 57 -9 28 -7 -36 -9 -34 -29 28 -7 23 -7 32 1 32 6 0 3 9 -7 20
-10 11 -15 28 -12 40 3 11 1 20 -4 20 -5 0 -9 11 -9 25 0 42 -19 28 -22 -17
l-4 -43 -17 38 c-12 26 -15 43 -8 55 6 11 6 33 2 54 -5 19 -5 56 -1 82 4 25 3
46 -1 46 -4 0 -7 43 -6 96 1 100 10 121 43 94 19 -17 34 -3 38 36 2 17 10 30
20 32 9 2 16 10 16 18 0 8 4 14 9 14 5 0 11 13 14 29 6 29 47 55 55 33 3 -11
40 -5 60 11 10 8 16 7 23 -4 7 -11 14 -8 39 18 18 19 36 30 45 27 8 -4 15 -1
15 5 0 6 7 11 15 11 8 0 15 -5 15 -11 0 -8 4 -8 14 0 11 9 15 9 18 0 4 -13 47
7 61 29 4 6 13 12 20 12 6 0 21 11 33 25 20 24 24 24 78 14 65 -12 76 -8 76
29 0 33 7 42 43 65 l28 18 -31 39 c-31 39 -32 69 -1 71 13 0 12 2 -3 8 -15 6
-16 10 -7 16 9 5 21 -2 36 -21 22 -28 22 -28 34 -7 13 26 15 56 1 48 -5 -3 -7
-12 -3 -20 3 -8 0 -15 -7 -15 -7 0 -11 15 -9 43 1 23 -1 52 -5 65 -5 14 -3 29
4 37 10 12 9 15 -4 15 -9 0 -16 6 -16 13 0 9 -2 9 -9 -1 -5 -9 -10 0 -15 27
-3 23 -11 41 -16 41 -6 0 -8 16 -4 40 6 38 5 40 -20 40 -24 0 -26 3 -26 40 0
22 -4 40 -10 40 -5 0 -10 18 -10 40 0 22 5 40 10 40 6 0 10 -7 10 -15 0 -8 6
-15 13 -15 8 0 17 22 23 55 8 43 7 55 -3 55 -8 0 -13 14 -13 40 0 28 4 40 14
40 12 0 12 6 3 36 -8 26 -8 37 0 42 7 5 11 38 10 90 -2 76 0 85 21 101 22 16
23 51 2 51 -4 0 -11 17 -15 37 -4 21 -12 41 -18 45 -6 4 -10 41 -10 95 0 48
-4 94 -9 101 -12 14 7 42 28 42 8 0 16 11 20 25 4 14 9 23 12 20 7 -7 44 95
44 119 -2 40 -31 40 -241 2 -454 -82 -803 -68 -1101 46 -59 22 -179 106 -275
191 -23 20 -45 37 -48 37 -4 0 -14 -14 -22 -30z m-2924 -746 c27 -60 39 -115
54 -239 16 -127 17 -165 4 -115 -11 40 -31 91 -67 170 -13 30 -27 72 -29 93
-3 20 -10 37 -15 37 -11 0 -6 39 10 67 7 12 12 30 13 40 0 14 2 15 6 3 3 -8
14 -34 24 -56z m1272 -810 c7 -7 -13 -54 -24 -54 -11 0 -22 38 -14 50 7 11 28
13 38 4z m-63 -39 c0 -8 -4 -15 -10 -15 -5 0 -7 7 -4 15 4 8 8 15 10 15 2 0 4
-7 4 -15z m3294 -214 c19 -7 19 -8 -2 -13 -12 -4 -26 0 -33 8 -13 16 2 18 35
5z m-3802 -166 c4 -19 -2 -31 -23 -50 -25 -20 -34 -22 -58 -14 -16 6 -36 18
-45 28 -14 16 -14 19 2 39 13 17 28 22 68 22 47 0 52 -2 56 -25z m678 -9 c0
-8 4 -16 9 -18 5 -2 4 -18 -3 -38 -20 -60 -93 -60 -76 1 9 32 34 62 44 52 3
-4 6 -1 6 5 0 7 5 12 10 12 6 0 10 -6 10 -14z m-702 -106 c27 -37 27 -40 0
-40 -17 0 -19 -3 -9 -9 21 -13 -2 -21 -43 -14 -47 7 -53 18 -22 38 14 9 28 25
31 36 9 26 18 24 43 -11z m852 -76 c0 -2 -7 -4 -15 -4 -8 0 -15 4 -15 10 0 5
7 7 15 4 8 -4 15 -8 15 -10z m2640 -1229 c0 -8 -9 -15 -20 -15 -20 0 -26 11
-13 23 12 13 33 7 33 -8z m-83 -37 c-3 -8 -6 -5 -6 6 -1 11 2 17 5 13 3 -3 4
-12 1 -19z"/>
<path d="M5235 3031 c-3 -5 -1 -12 5 -16 5 -3 10 1 10 9 0 18 -6 21 -15 7z"/>
<path d="M5225 2900 c-18 -8 -17 -9 8 -9 15 -1 27 4 27 9 0 12 -8 12 -35 0z"/>
<path d="M4802 2830 c0 -14 2 -19 5 -12 2 6 2 18 0 25 -3 6 -5 1 -5 -13z"/>
<path d="M5730 2779 c0 -5 7 -9 15 -9 8 0 15 -5 15 -11 0 -5 5 -7 10 -4 17 11
11 22 -15 27 -14 3 -25 1 -25 -3z"/>
<path d="M5680 2478 c0 -15 -3 -19 -8 -11 -8 12 -36 12 -48 0 -4 -3 1 -18 11
-33 14 -22 15 -28 4 -35 -10 -6 -11 -11 -3 -16 6 -5 14 -24 16 -43 3 -19 9
-44 13 -54 5 -11 5 -17 -1 -14 -5 4 -9 -4 -9 -17 0 -12 5 -21 11 -18 6 2 17
-3 24 -11 7 -9 16 -13 21 -10 14 8 10 24 -6 24 -32 0 -13 18 25 24 31 5 41 11
46 31 3 14 10 25 15 25 5 0 9 18 9 40 0 27 -4 40 -14 40 -9 0 -12 8 -8 27 4
21 2 25 -12 20 -10 -4 -16 -1 -16 7 0 14 -41 46 -60 46 -5 0 -10 -10 -10 -22z"/>
<path d="M4792 2135 c0 -16 2 -22 5 -12 2 9 2 23 0 30 -3 6 -5 -1 -5 -18z"/>
<path d="M5975 1860 c-3 -11 -17 -23 -31 -26 -14 -4 -24 -13 -24 -24 0 -17 -2
-18 -27 -4 -44 22 -56 18 -51 -16 2 -16 0 -31 -6 -33 -13 -5 96 -57 119 -57 9
0 30 -10 47 -21 22 -16 32 -19 41 -10 16 16 37 14 31 -3 -4 -10 1 -14 19 -12
13 2 28 6 34 9 5 3 15 -10 22 -29 12 -32 31 -47 31 -23 0 6 7 8 16 5 9 -4 23
-1 30 5 11 9 11 14 -3 27 -9 10 -20 17 -24 17 -4 0 -11 3 -15 8 -4 4 -2 7 6 7
10 0 10 3 0 15 -7 8 -20 14 -29 13 -11 -2 -19 9 -25 35 -7 26 -14 36 -24 32
-8 -3 -12 0 -10 7 3 7 17 14 31 16 23 3 27 0 27 -22 0 -33 12 -33 27 -1 10 22
9 25 -9 25 -11 0 -22 8 -25 20 -6 21 -18 26 -27 11 -8 -12 -49 -1 -59 16 -4 7
-17 13 -27 13 -11 0 -20 5 -20 10 0 19 -39 10 -45 -10z m-5 -40 c0 -5 -2 -10
-4 -10 -3 0 -8 5 -11 10 -3 6 -1 10 4 10 6 0 11 -4 11 -10z m110 -20 c0 -5 -5
-10 -11 -10 -5 0 -7 5 -4 10 3 6 8 10 11 10 2 0 4 -4 4 -10z"/>
<path d="M5730 1475 c12 -15 30 -12 30 6 0 5 -10 9 -21 9 -18 0 -19 -2 -9 -15z"/>
<path d="M5759 1400 c-1 -32 -3 -39 -7 -22 -7 21 -8 21 -29 7 -30 -21 -20 -39
21 -42 42 -3 49 12 31 63 l-14 39 -2 -45z"/>
<path d="M5710 1308 c0 -13 6 -18 17 -16 24 5 27 25 3 31 -15 4 -20 0 -20 -15z"/>
<path d="M5760 1309 c0 -5 5 -7 10 -4 6 3 10 8 10 11 0 2 -4 4 -10 4 -5 0 -10
-5 -10 -11z"/>
<path d="M4080 1269 c0 -5 5 -7 10 -4 6 3 10 8 10 11 0 2 -4 4 -10 4 -5 0 -10
-5 -10 -11z"/>
<path d="M5692 1268 c-6 -6 -12 -19 -12 -28 0 -9 -5 -21 -12 -28 -7 -7 -8 -12
-2 -12 5 0 9 -16 10 -36 0 -20 6 -39 12 -43 7 -4 8 -12 2 -21 -8 -13 -10 -12
-10 3 0 9 -4 17 -9 17 -6 0 -6 -12 1 -31 7 -19 15 -28 24 -25 8 3 14 -1 14 -9
0 -8 -4 -15 -10 -15 -5 0 -10 -9 -10 -20 0 -11 -6 -19 -12 -17 -9 1 -13 -10
-13 -33 0 -27 -4 -34 -16 -32 -10 1 -25 -11 -36 -30 -19 -33 -20 -68 -2 -68 5
0 9 -9 9 -20 0 -11 5 -20 10 -20 6 0 10 -9 10 -20 0 -11 -4 -20 -9 -20 -5 0
-12 -8 -16 -17 -9 -22 -17 -123 -10 -123 15 0 53 44 48 56 -6 18 23 19 31 2 3
-7 3 2 0 19 -5 28 -3 32 11 27 15 -6 15 -4 3 15 -11 18 -11 23 0 30 7 4 12 12
11 17 -4 24 2 55 11 49 13 -8 26 49 22 99 -1 11 -7 16 -17 13 -8 -4 -17 -2
-20 3 -4 6 1 10 9 10 10 0 16 9 16 24 0 13 4 26 8 28 4 2 17 27 29 55 19 47
20 54 6 62 -11 6 -17 27 -19 72 -3 46 -1 60 7 49 8 -12 10 -12 7 5 -4 24 -56
33 -76 13z m-47 -378 c3 -5 1 -10 -4 -10 -6 0 -11 5 -11 10 0 6 2 10 4 10 3 0
8 -4 11 -10z m35 -50 c0 -5 -2 -10 -4 -10 -3 0 -8 5 -11 10 -3 6 -1 10 4 10 6
0 11 -4 11 -10z"/>
<path d="M4080 1198 c0 -19 2 -20 10 -8 13 19 13 30 0 30 -5 0 -10 -10 -10
-22z"/>
<path d="M5761 1174 c0 -11 3 -14 6 -6 3 7 2 16 -1 19 -3 4 -6 -2 -5 -13z"/>
<path d="M12765 1050 c-3 -5 -1 -10 4 -10 6 0 11 5 11 10 0 6 -2 10 -4 10 -3
0 -8 -4 -11 -10z"/>
<path d="M5926 973 c-4 -10 -2 -19 3 -21 6 -2 11 -10 11 -18 0 -8 5 -14 11
-14 7 0 9 10 4 28 -9 37 -21 47 -29 25z"/>
<path d="M12910 955 c-10 -12 -10 -15 4 -15 9 0 16 7 16 15 0 8 -2 15 -4 15
-2 0 -9 -7 -16 -15z"/>
<path d="M12890 910 c0 -5 7 -10 15 -10 8 0 15 5 15 10 0 6 -7 10 -15 10 -8 0
-15 -4 -15 -10z"/>
<path d="M12863 825 c-17 -19 -16 -25 2 -25 8 0 15 9 15 20 0 23 -1 24 -17 5z"/>
<path d="M12895 820 c3 -5 8 -10 11 -10 2 0 4 5 4 10 0 6 -5 10 -11 10 -5 0
-7 -4 -4 -10z"/>
<path d="M6065 760 c-3 -5 -1 -10 4 -10 6 0 11 5 11 10 0 6 -2 10 -4 10 -3 0
-8 -4 -11 -10z"/>
<path d="M5617 596 c-9 -7 -17 -18 -17 -25 0 -7 -18 -11 -47 -11 -64 0 -45
-14 21 -15 53 -2 54 -1 59 29 6 38 6 37 -16 22z"/>
<path d="M5527 495 c3 -8 13 -15 23 -15 10 0 20 -5 22 -12 6 -18 28 1 28 24 0
16 -3 18 -14 9 -9 -8 -21 -8 -39 -2 -21 8 -25 7 -20 -4z"/>
<path d="M5620 500 c0 -5 7 -7 15 -4 8 4 15 8 15 10 0 2 -7 4 -15 4 -8 0 -15
-4 -15 -10z"/>
<path d="M5580 414 c0 -12 -3 -29 -6 -38 -4 -11 -1 -16 10 -16 10 0 16 -9 17
-22 0 -13 3 -18 5 -11 3 6 1 28 -5 47 -5 22 -6 36 0 36 5 0 9 6 9 13 0 8 -7
14 -15 14 -9 0 -15 -10 -15 -23z"/>
<path d="M4557 302 c-21 -23 -22 -46 -2 -62 26 -22 47 -4 43 37 -4 42 -18 51
-41 25z"/>
<path d="M4305 230 c3 -5 8 -10 11 -10 2 0 4 5 4 10 0 6 -5 10 -11 10 -5 0 -7
-4 -4 -10z"/>
<path d="M4378 233 c7 -3 16 -2 19 1 4 3 -2 6 -13 5 -11 0 -14 -3 -6 -6z"/>
<path d="M4358 212 c-19 -4 -24 -17 -10 -26 11 -7 52 4 52 14 0 11 -22 17 -42
12z"/>
<path d="M4520 209 c0 -5 5 -7 10 -4 6 3 10 8 10 11 0 2 -4 4 -10 4 -5 0 -10
-5 -10 -11z"/>
<path d="M4721 194 c0 -11 3 -14 6 -6 3 7 2 16 -1 19 -3 4 -6 -2 -5 -13z"/>
<path d="M4460 121 c0 -57 35 -67 41 -11 4 36 -2 50 -21 50 -17 0 -20 -7 -20
-39z"/>
<path d="M17135 120 c-10 -16 4 -50 21 -50 11 0 14 8 12 27 -3 28 -22 41 -33
23z"/>
<path d="M4494 25 c19 -14 36 -12 36 6 0 5 -12 9 -27 9 -27 -1 -27 -1 -9 -15z"/>
</g>
</svg>
